<?xml version="1.0" encoding="utf-8"?>
<!-- Generator: Adobe Illustrator 16.0.0, SVG Export Plug-In . SVG Version: 6.00 Build 0)  -->
<!DOCTYPE svg PUBLIC "-//W3C//DTD SVG 1.1//EN" "http://www.w3.org/Graphics/SVG/1.1/DTD/svg11.dtd">
<svg version="1.1" id="Layer_1" xmlns="http://www.w3.org/2000/svg" xmlns:xlink="http://www.w3.org/1999/xlink" x="0px" y="0px"
	 width="100px" height="78px" viewBox="0 0 100 78" enable-background="new 0 0 100 78" xml:space="preserve">
<polygon opacity="0.6" fill="#2B2B33" points="0,0 0,78 91.287,78 99,70.926 99,0 "/>
<rect opacity="0.6" fill="#36363D" width="99" height="71"/>
<g opacity="0.6">
	<defs>
		<rect id="SVGID_11_" opacity="0.6" width="100" height="78"/>
	</defs>
	<clipPath id="SVGID_2_">
		<use xlink:href="#SVGID_11_"  overflow="visible"/>
	</clipPath>
	<path clip-path="url(#SVGID_2_)" fill="#FFFFFF" d="M20.971,45.665c0.189-0.957,0.297-1.938,0.579-2.864
		c0.94-3.102,2.792-5.521,5.601-7.186c0.287-0.17,0.48-0.164,0.74,0.045c2.975,2.41,7.066,2.449,10.076,0.086
		c0.365-0.287,0.617-0.289,1.005-0.045c3.214,2.021,5.138,4.901,5.817,8.625c0.085,0.473,0.122,0.954,0.182,1.433
		c-7.857,0-15.718,0.001-23.578-0.004C21.253,45.755,21.113,45.695,20.971,45.665"/>
	<path clip-path="url(#SVGID_2_)" fill="#FFFFFF" d="M39.633,29.358c0.07,3.397-2.709,6.628-6.641,6.647
		c-3.67,0.017-6.668-2.979-6.677-6.637c-0.008-3.712,2.952-6.646,6.662-6.686C36.632,22.645,39.725,25.741,39.633,29.358"/>
</g>
<g opacity="0.6">
	<path fill="#FFFFFF" d="M74.309,45.172c-3.229,0-6.63-2.55-6.63-6.018v-0.543h5.1v0.441c0,0.985,0.578,1.529,1.19,1.529
		c0.748,0,1.325-0.306,1.325-1.496v-0.543c0-0.545-0.067-1.7-1.495-1.7v-3.229c1.189,0,1.529-1.02,1.529-1.395v-1.053
		c0-0.545-0.441-1.021-1.258-1.021c-0.985,0-1.292,0.578-1.292,1.122v0.781h-4.589v-0.713c0-3.196,2.617-5.645,6.119-5.645
		c3.468,0,6.085,2.958,6.085,5.95c0,1.155-0.714,2.923-1.665,3.501c1.088,0.51,2.176,2.381,2.176,3.943
		C80.904,42.282,77.878,45.172,74.309,45.172z"/>
</g>
</svg>
