<?xml version="1.0" encoding="utf-8"?>
<!-- Generator: Adobe Illustrator 16.0.0, SVG Export Plug-In . SVG Version: 6.00 Build 0)  -->
<!DOCTYPE svg PUBLIC "-//W3C//DTD SVG 1.1//EN" "http://www.w3.org/Graphics/SVG/1.1/DTD/svg11.dtd">
<svg version="1.1" id="Layer_1" xmlns="http://www.w3.org/2000/svg" xmlns:xlink="http://www.w3.org/1999/xlink" x="0px" y="0px"
	 width="100px" height="78px" viewBox="0 0 100 78" enable-background="new 0 0 100 78" xml:space="preserve">
<polygon fill="#2B2B33" points="0,0 0,78 91.287,78 99,70.926 99,0 "/>
<rect fill="#36363D" width="99" height="71"/>
<g>
	<defs>
		<rect id="SVGID_21_" width="100" height="78"/>
	</defs>
	<clipPath id="SVGID_2_">
		<use xlink:href="#SVGID_21_"  overflow="visible"/>
	</clipPath>
	<path clip-path="url(#SVGID_2_)" fill="#FFFFFF" d="M20.971,45.665c0.189-0.957,0.297-1.938,0.579-2.864
		c0.94-3.102,2.792-5.521,5.601-7.186c0.287-0.17,0.48-0.164,0.74,0.045c2.975,2.41,7.066,2.449,10.076,0.086
		c0.365-0.287,0.617-0.289,1.005-0.045c3.214,2.021,5.138,4.901,5.817,8.625c0.085,0.473,0.122,0.954,0.182,1.433
		c-7.857,0-15.718,0.001-23.578-0.004C21.253,45.755,21.113,45.695,20.971,45.665"/>
	<path clip-path="url(#SVGID_2_)" fill="#FFFFFF" d="M39.633,29.358c0.07,3.397-2.709,6.628-6.641,6.647
		c-3.67,0.017-6.668-2.979-6.677-6.637c-0.008-3.712,2.952-6.646,6.662-6.686C36.632,22.645,39.725,25.741,39.633,29.358"/>
</g>
<g>
	<path fill="#FFFFFF" d="M67.139,45.172c-3.434,0-6.46-2.516-6.46-5.745v-1.599c0-1.768,3.604-9.893,4.522-11.797h5.541
		l-2.448,6.188c2.856,0.545,5.304,2.788,5.304,5.609v1.599C73.598,42.622,70.572,45.172,67.139,45.172z M68.498,37.828
		c0-0.543-0.611-1.088-1.359-1.088s-1.36,0.545-1.36,1.088v1.599c0,0.544,0.612,1.088,1.36,1.088s1.359-0.544,1.359-1.088V37.828z"
		/>
	<path fill="#FFFFFF" d="M84.546,37.148v3.808h-4.249v-3.808h-3.808v-4.249h3.808v-3.842h4.249v3.808h3.842v4.283H84.546z"/>
</g>
</svg>
