<?xml version="1.0" encoding="utf-8"?>
<!-- Generator: Adobe Illustrator 16.0.0, SVG Export Plug-In . SVG Version: 6.00 Build 0)  -->
<!DOCTYPE svg PUBLIC "-//W3C//DTD SVG 1.1//EN" "http://www.w3.org/Graphics/SVG/1.1/DTD/svg11.dtd">
<svg version="1.1" id="Layer_1" xmlns="http://www.w3.org/2000/svg" xmlns:xlink="http://www.w3.org/1999/xlink" x="0px" y="0px"
	 width="112.121px" height="122.728px" viewBox="0 0 112.121 122.728" enable-background="new 0 0 112.121 122.728"
	 xml:space="preserve">
<g>
	<path fill="#EACB49" d="M78.102,106.01c0,2.407-2.008,4.355-4.485,4.355h-52.86c-2.479,0-4.487-1.948-4.487-4.355V32.294
		c0-2.406,2.009-4.356,4.487-4.356h52.86c2.478,0,4.485,1.95,4.485,4.356V106.01z"/>
	<g>
		<path fill="#EACB49" d="M88.857,92.127H78.102v-6.014h10.756c1.59,0,3.361-2.232,3.361-5.436V59.824
			c0-3.203-1.771-5.434-3.361-5.434H78.102v-6.013h10.756c5.258,0,9.374,5.027,9.374,11.447v20.854
			C98.231,87.097,94.115,92.127,88.857,92.127z"/>
	</g>
</g>
<g>
	<g>
		<rect x="20.433" y="45.034" fill="#F9D641" width="53.502" height="61.287"/>
		<rect x="20.48" y="26.965" fill="#F9D641" width="53.602" height="18.375"/>
	</g>
	<g>
		<ellipse opacity="0.5" fill="#FFFFFF" cx="34.33" cy="77.065" rx="1.033" ry="1.003"/>
		<ellipse opacity="0.5" fill="#FFFFFF" cx="63.151" cy="94.313" rx="2.274" ry="2.207"/>
		<ellipse opacity="0.5" fill="#FFFFFF" cx="58.515" cy="78.744" rx="1.396" ry="1.354"/>
		<path opacity="0.5" fill="#FFFFFF" d="M36.443,92.9c0-0.861,0.723-1.562,1.611-1.562c0.887,0,1.611,0.7,1.611,1.562
			c0,0.862-0.725,1.563-1.611,1.563C37.166,94.464,36.443,93.763,36.443,92.9z"/>
		<ellipse opacity="0.5" fill="#FFFFFF" cx="39.307" cy="65.51" rx="1.99" ry="1.93"/>
		<ellipse opacity="0.5" fill="#FFFFFF" cx="60.897" cy="59.966" rx="1.148" ry="1.114"/>
		<ellipse opacity="0.5" fill="#FFFFFF" cx="29.475" cy="53.934" rx="1.243" ry="1.206"/>
		<ellipse opacity="0.5" fill="#FFFFFF" cx="31.1" cy="98.98" rx="1.244" ry="1.206"/>
		<ellipse opacity="0.5" fill="#FFFFFF" cx="51.645" cy="53.659" rx="1.242" ry="1.206"/>
	</g>
</g>
<path fill="#FFFFFF" d="M73.92,21.16h-0.119c-0.541-2.357-2.703-4.121-5.295-4.121c-1.004,0-1.941,0.27-2.75,0.731
	c-0.924-3.036-3.816-5.252-7.24-5.252c-2.422,0-4.569,1.109-5.951,2.827c-0.938-1.667-2.76-2.797-4.854-2.797
	c-0.669,0-1.308,0.122-1.901,0.333c-1.315-2.16-3.731-3.613-6.502-3.613c-3.423,0-6.307,2.207-7.238,5.233
	c-0.086-0.004-0.174-0.013-0.266-0.013c-2.533,0-4.665,1.662-5.314,3.922c-0.805-1.092-2.114-1.809-3.602-1.809
	c-2.451,0-4.438,1.928-4.438,4.306c0,0,0,0,0,0l0,0c-2.447,0-4.438,1.929-4.438,4.308c0,1.094,0.436,2.083,1.129,2.843
	c-0.453,0.632-0.723,1.399-0.723,2.228c0,1.237,0.603,2.326,1.525,3.042c-0.216,0.391-0.35,0.83-0.35,1.303
	c0,1.532,1.279,2.772,2.855,2.772c1.577,0,2.855-1.24,2.855-2.772c0-0.473-0.133-0.912-0.348-1.302
	c0.881-0.684,1.457-1.71,1.509-2.879c0.718,0.643,1.669,1.043,2.724,1.043c1.598,0,2.967-0.91,3.619-2.221H73.92
	c2.31,0,4.182-1.816,4.182-4.057C78.102,22.977,76.229,21.16,73.92,21.16z"/>
<ellipse fill="#EACB49" cx="46.695" cy="108.185" rx="29.676" ry="5.565"/>
<ellipse fill="#F8DB62" cx="47.425" cy="104.798" rx="26.407" ry="4.952"/>
<ellipse fill="#F9D641" cx="47.425" cy="45.798" rx="26.407" ry="4.952"/>
<ellipse fill="#FFFFFF" cx="47.425" cy="28.798" rx="26.407" ry="4.952"/>
</svg>
