<?xml version="1.0" encoding="utf-8"?>
<!-- Generator: Adobe Illustrator 16.0.0, SVG Export Plug-In . SVG Version: 6.00 Build 0)  -->
<!DOCTYPE svg PUBLIC "-//W3C//DTD SVG 1.1//EN" "http://www.w3.org/Graphics/SVG/1.1/DTD/svg11.dtd">
<svg version="1.1" id="Layer_1" xmlns="http://www.w3.org/2000/svg" xmlns:xlink="http://www.w3.org/1999/xlink" x="0px" y="0px"
	 width="640px" height="333px" viewBox="0 0 640 333" enable-background="new 0 0 640 333" xml:space="preserve">
<g>
	<path fill="#EDC92C" d="M398.807,44.412c0,3.024-2.452,5.477-5.478,5.477h-14.045c-3.025,0-5.478-2.452-5.478-5.477V25.365
		c0-3.024,2.452-5.477,5.478-5.477h14.045c3.025,0,5.478,2.452,5.478,5.477V44.412z"/>
	<path fill="#F37C2A" d="M391.807,44.412c0,3.024-2.452,5.477-5.478,5.477h-14.045c-3.025,0-5.478-2.452-5.478-5.477V25.365
		c0-3.024,2.452-5.477,5.478-5.477h14.045c3.025,0,5.478,2.452,5.478,5.477V44.412z"/>
	<g>
		<path fill="#F5F5F5" d="M61.303,41.072l343.455-0.008c37.572,0,55.451,16.781,132.574,84.557c0,0,47.043,14.754,77.514,29.99
			c28.824,14.413-16.342,103.202-43.122,112.352c0.393-2.488,0.665-5.021,0.665-7.627c0-27.092-22.065-49.139-49.163-49.139
			c-27.116,0-49.157,22.047-49.157,49.139c0,3.916,0.527,7.703,1.377,11.334H217.151c0.851-3.631,1.378-7.41,1.378-11.334
			c0-27.092-22.043-49.139-49.151-49.139c-27.092,0-49.148,22.047-49.148,49.139c0,3.795,0.475,7.48,1.3,11.033
			c-76.043,0-105.646-0.438-105.646-35.904V109.097C15.882,101.468,33.021,41.072,61.303,41.072z"/>
		<path fill="#F5F5F5" d="M623.807,259.3c0,5.295-4.292,9.589-9.586,9.589h-45.829c-5.294,0-9.585-4.294-9.585-9.589v-90.83
			c0-5.293,4.291-9.581,9.585-9.581h45.829c5.294,0,9.586,4.288,9.586,9.581V259.3z"/>
		<path fill="#E2E2E2" d="M623.807,263.877c0,3.873-3.139,7.012-7.012,7.012H23.818c-3.873,0-7.012-3.139-7.012-7.012V242.9
			c0-3.873,3.139-7.012,7.012-7.012h592.977c3.873,0,7.012,3.139,7.012,7.012V263.877z"/>
		<path fill="#2B2B33" d="M170.042,210.631c-28.305,0-51.242,22.932-51.242,51.248c0,28.289,22.938,51.232,51.242,51.232
			s51.243-22.943,51.243-51.232C221.285,233.563,198.346,210.631,170.042,210.631z"/>
		<path fill="#3E3E49" d="M169.156,230.605c-17.271,0-31.276,14-31.276,31.273c0,17.252,14.006,31.254,31.276,31.254
			c17.263,0,31.265-14.002,31.265-31.254C200.42,244.605,186.418,230.605,169.156,230.605z"/>
		<path fill="#2B2B33" d="M521.965,210.631c-28.303,0-51.246,22.932-51.246,51.248c0,28.289,22.943,51.232,51.246,51.232
			c28.306,0,51.248-22.943,51.248-51.232C573.213,233.563,550.271,210.631,521.965,210.631z"/>
		<path fill="#3E3E49" d="M521.965,230.605c-17.266,0-31.268,14-31.268,31.273c0,17.252,14.002,31.254,31.268,31.254
			c17.271,0,31.27-14.002,31.27-31.254C553.234,244.605,539.236,230.605,521.965,230.605z"/>
	</g>
	<path opacity="0.9" fill="#6BE8D0" d="M398.666,129.708h56.908h65.398c0,0-66.744-57.676-70.112-61.045
		c-9.456-9.455-23.438-8.932-23.438-8.932h-28.766L398.666,129.708L398.666,129.708z"/>
	<path fill="#716C7F" d="M178.895,261.736c0,5.006-4.058,9.07-9.075,9.07c-5.017,0-9.086-4.064-9.086-9.07
		c0-5.02,4.069-9.08,9.086-9.08C174.837,252.656,178.895,256.717,178.895,261.736z"/>
	<path fill="#716C7F" d="M532.392,261.736c0,5.006-4.059,9.07-9.076,9.07c-5.017,0-9.086-4.064-9.086-9.07
		c0-5.02,4.069-9.08,9.086-9.08C528.333,252.656,532.392,256.717,532.392,261.736z"/>
	<polygon fill="none" stroke="#ED7266" stroke-width="10" stroke-miterlimit="10" points="115.507,150.889 157.807,82.473 
		200.104,150.889 	"/>
	<polygon fill="none" stroke="#ED7266" stroke-width="10" stroke-miterlimit="10" points="200.104,106.889 157.807,175.307 
		115.507,106.889 	"/>
</g>
</svg>
