<?xml version="1.0" encoding="utf-8"?>
<!-- Generator: Adobe Illustrator 17.0.0, SVG Export Plug-In . SVG Version: 6.00 Build 0)  -->
<!DOCTYPE svg PUBLIC "-//W3C//DTD SVG 1.1//EN" "http://www.w3.org/Graphics/SVG/1.1/DTD/svg11.dtd">
<svg version="1.1" id="Layer_1" xmlns="http://www.w3.org/2000/svg" xmlns:xlink="http://www.w3.org/1999/xlink" x="0px" y="0px"
	 width="138px" height="136px" viewBox="0 0 138 136" enable-background="new 0 0 138 136" xml:space="preserve">
<g>
	<g>
		<path fill="#68C6F6" d="M128,122.425c0,1.975-1.601,3.575-3.575,3.575H13.575c-1.975,0-3.575-1.601-3.575-3.575V53.575
			C10,51.601,11.601,50,13.575,50h110.849c1.975,0,3.575,1.601,3.575,3.575V122.425z"/>
	</g>
	<g>
		<path fill="#F39463" d="M111.285,105c-2.157,0-4.285,1.473-4.285,3.63V126h17.184c1.975,0,3.816-1.781,3.816-3.756V105H111.285z"
			/>
	</g>
	<g>
		<path fill="#F39463" d="M25.885,105H10v17.244c0,1.975,1.727,3.756,3.701,3.756H30v-17.37C30,106.473,28.042,105,25.885,105z"/>
	</g>
	<g>
		<path fill="#F39463" d="M93,41.975c-1.382,0-2-1.12-2-2.503v-4.61C91,23.8,81.754,15,70.693,15h-1.355
			C58.276,15,49,23.8,49,34.861v4.61c0,1.382-0.618,2.503-2,2.503s-2-1.12-2-2.503v-4.61C45,21.04,55.516,10,69.338,10h1.355
			C84.514,10,95,21.04,95,34.861v4.61C95,40.854,94.382,41.975,93,41.975z"/>
	</g>
	<g>
		<path fill="#F39463" d="M56,43.5c0,3.037-2.462,5.5-5.5,5.5H42.5c-3.037,0-5.5-2.462-5.5-5.5V42.5c0-3.037,2.462-5.5,5.5-5.5H50.5
			c3.037,0,5.5,2.462,5.5,5.5V43.5z M54,43c0-1.657-1.343-3-3-3h-9c-1.657,0-3,1.343-3,3l0,0c0,1.657,1.343,3,3,3h9
			C52.657,46,54,44.657,54,43L54,43z"/>
	</g>
	<g>
		<path fill="#F39463" d="M103,43.5c0,3.037-2.462,5.5-5.5,5.5H89.5c-3.037,0-5.5-2.462-5.5-5.5V42.5c0-3.037,2.462-5.5,5.5-5.5
			H97.5c3.037,0,5.5,2.462,5.5,5.5V43.5z M101,43c0-1.657-1.343-3-3-3h-9c-1.657,0-3,1.343-3,3l0,0c0,1.657,1.343,3,3,3h9
			C99.657,46,101,44.657,101,43L101,43z"/>
	</g>
	<g>
		<path fill="#F39463" d="M99.613,65.549c0.166,2.955-2.679,5.514-6.357,5.513c0,0,0,0,0,0c-3.679,0.001-6.523-2.558-6.357-5.513
			c0.247-5.238,0.494-10.476,0.741-15.715c0.165-2.96,2.679-5.228,5.616-5.231l0,0c2.937,0.003,5.451,2.271,5.616,5.231
			C99.119,55.073,99.366,60.311,99.613,65.549z"/>
	</g>
	<g>
		<path fill="#F39463" d="M53.132,65.549c0.166,2.955-2.679,5.514-6.357,5.513c0,0,0,0,0,0c-3.678,0.001-6.522-2.558-6.357-5.513
			c0.247-5.238,0.494-10.476,0.741-15.715c0.166-2.96,2.679-5.228,5.616-5.231l0,0c2.937,0.003,5.451,2.271,5.616,5.231
			C52.637,55.073,52.885,60.311,53.132,65.549z"/>
	</g>
</g>
</svg>
