<?xml version="1.0" encoding="utf-8"?>
<!-- Generator: Adobe Illustrator 16.0.0, SVG Export Plug-In . SVG Version: 6.00 Build 0)  -->
<!DOCTYPE svg PUBLIC "-//W3C//DTD SVG 1.1//EN" "http://www.w3.org/Graphics/SVG/1.1/DTD/svg11.dtd">
<svg version="1.1" id="Layer_1" xmlns="http://www.w3.org/2000/svg" xmlns:xlink="http://www.w3.org/1999/xlink" x="0px" y="0px"
	 width="139px" height="139px" viewBox="0 0 139 139" enable-background="new 0 0 139 139" xml:space="preserve">
<polygon fill="none" points="129.769,129.046 10.221,129.046 10.221,50.558 69.996,10.954 129.769,50.558 "/>
<polygon fill="#65C7EC" points="129.265,50.225 69.996,10.954 10.41,50.433 69.848,89.527 "/>
<polygon fill="#FEEBCB" points="98.345,16.797 19.671,16.797 19.671,101.414 123,101.414 123,34.408 "/>
<polyline opacity="0.18" points="98.452,34.365 123,53.548 123,34.365 "/>
<polygon fill="#F39463" points="98.452,34.365 123,34.365 98.452,16.797 "/>
<polygon fill="#45B9F5" points="129.769,50.558 129.265,50.225 69.848,89.527 129.769,128.94 "/>
<polygon fill="#30A9D8" points="69.848,89.527 10.221,128.973 10.221,129.046 129.769,129.046 129.769,128.94 "/>
<rect x="27.77" y="30.214" opacity="0.18" width="59.355" height="2.771"/>
<rect x="27.77" y="47.933" opacity="0.18" width="42.876" height="2.771"/>
<rect x="27.77" y="56.334" opacity="0.18" width="42.876" height="2.771"/>
<rect x="76.333" y="56.334" opacity="0.18" width="10.792" height="2.771"/>
<rect x="27.77" y="39.052" opacity="0.18" width="25.521" height="2.771"/>
<rect x="55.771" y="39.052" opacity="0.18" width="10.914" height="2.771"/>
<rect x="27.77" y="65.671" opacity="0.18" width="25.521" height="2.771"/>
<rect x="55.771" y="65.671" opacity="0.18" width="10.914" height="2.771"/>
<rect x="69.836" y="39.052" opacity="0.18" width="17.289" height="2.771"/>
<polygon fill="#45B9F5" points="10.221,128.973 69.848,89.527 10.41,50.433 10.221,50.558 "/>
</svg>
