<?xml version="1.0" encoding="utf-8"?>
<!-- Generator: Adobe Illustrator 16.0.0, SVG Export Plug-In . SVG Version: 6.00 Build 0)  -->
<!DOCTYPE svg PUBLIC "-//W3C//DTD SVG 1.1//EN" "http://www.w3.org/Graphics/SVG/1.1/DTD/svg11.dtd">
<svg version="1.1" id="Layer_1" xmlns="http://www.w3.org/2000/svg" xmlns:xlink="http://www.w3.org/1999/xlink" x="0px" y="0px"
	 width="100px" height="78px" viewBox="0 0 100 78" enable-background="new 0 0 100 78" xml:space="preserve">
<polygon fill="#2B2B33" points="0,0 0,78 91.287,78 99,70.926 99,0 "/>
<rect fill="#36363D" width="99" height="71"/>
<g>
	<defs>
		<rect id="SVGID_25_" width="100" height="78"/>
	</defs>
	<clipPath id="SVGID_2_">
		<use xlink:href="#SVGID_25_"  overflow="visible"/>
	</clipPath>
</g>
<g>
	<path fill="#FFFFFF" d="M28.733,42.316c-0.102,1.394-1.088,2.516-2.481,2.516H15.679v-4.76h1.904l-1.054-14.041h5.065l1.054,14.041
		h1.292l0.985-14.041h4.93L28.733,42.316z"/>
	<path fill="#FFFFFF" d="M43.49,35.381h-2.21l2.583,4.691v4.76H31.659v-4.76h6.765l-7.207-14.041h5.439l2.55,5.712h0.238
		l0.034-5.712h4.691L43.49,35.381z"/>
	<path fill="#FFFFFF" d="M46.721,44.832V26.031h5.1v18.801H46.721z"/>
	<path fill="#FFFFFF" d="M61.17,44.832v-4.76h1.529v-9.281H60.66L59.64,44.832h-4.93l1.021-14.041h-1.19v-4.76h5.609v1.293
		l1.53-1.293h3.569c1.395,0,2.55,1.156,2.55,2.551v16.25H61.17z"/>
	<path fill="#FFFFFF" d="M76.979,44.832v-4.76h1.529v-9.281H76.47l-1.021,14.041h-4.93l1.021-14.041h-1.19v-4.76h5.609v1.293
		l1.53-1.293h3.569c1.395,0,2.55,1.156,2.55,2.551v16.25H76.979z"/>
</g>
</svg>
