<?xml version="1.0" encoding="utf-8"?>
<!-- Generator: Adobe Illustrator 17.0.0, SVG Export Plug-In . SVG Version: 6.00 Build 0)  -->
<!DOCTYPE svg PUBLIC "-//W3C//DTD SVG 1.1//EN" "http://www.w3.org/Graphics/SVG/1.1/DTD/svg11.dtd">
<svg version="1.1" id="Layer_1" xmlns="http://www.w3.org/2000/svg" xmlns:xlink="http://www.w3.org/1999/xlink" x="0px" y="0px"
	 width="100px" height="78px" viewBox="0 0 100 78" enable-background="new 0 0 100 78" xml:space="preserve">
<g>
	<g>
		<polyline fill="#2B2B33" points="0,78 0.188,78 92.287,78 100,70.926 100,0 92.287,0 0,0 		"/>
	</g>
	<rect y="0" fill="#36363D" width="100" height="71"/>
	<g>
		<path fill="#FFFFFF" d="M26.274,42.316c-0.103,1.394-1.088,2.516-2.482,2.516H13.22v-4.759h1.903l-1.054-14.041h5.065
			l1.054,14.041h1.292l0.986-14.041h4.929L26.274,42.316z"/>
		<path fill="#FFFFFF" d="M42.492,35.381h-2.21l2.584,4.692v4.759H30.661v-4.759h6.766l-7.208-14.041h5.439l2.55,5.711h0.238
			l0.034-5.711h4.691L42.492,35.381z"/>
		<path fill="#FFFFFF" d="M47.185,44.832v-18.8h5.1v18.8H47.185z"/>
		<path fill="#FFFFFF" d="M63.097,44.832v-4.759h1.529v-9.281h-2.04l-1.02,14.041h-4.93l1.021-14.041h-1.19v-4.759h5.609v1.292
			l1.53-1.292h3.569c1.394,0,2.55,1.156,2.55,2.55v16.25H63.097z"/>
		<path fill="#FFFFFF" d="M80.368,44.832v-4.759h1.53v-9.281h-2.04l-1.021,14.041h-4.929l1.02-14.041h-1.189v-4.759h5.609v1.292
			l1.529-1.292h3.57c1.394,0,2.549,1.156,2.549,2.55v16.25H80.368z"/>
	</g>
</g>
</svg>
