<?xml version="1.0" encoding="utf-8"?>
<!-- Generator: Adobe Illustrator 16.0.0, SVG Export Plug-In . SVG Version: 6.00 Build 0)  -->
<!DOCTYPE svg PUBLIC "-//W3C//DTD SVG 1.1//EN" "http://www.w3.org/Graphics/SVG/1.1/DTD/svg11.dtd">
<svg version="1.1" id="Layer_1" xmlns="http://www.w3.org/2000/svg" xmlns:xlink="http://www.w3.org/1999/xlink" x="0px" y="0px"
	 width="139px" height="153px" viewBox="11 -55 139 153" enable-background="new 11 -55 139 153" xml:space="preserve">
<g>
	<g>
		<path fill="#FFB5AD" d="M79.733-28.672c10.258-0.17,22.349-6.678,29.24-12.031l-7.124-2.96c-1.553,6.622-41.048,7.278-42.82,0.709
			l-4.578,2.087C61.656-35.119,68.79-28.491,79.733-28.672z"/>
		<path fill="#FFDBED" d="M140.691-30.275l-39.042-13.381c-1.556,6.618-10.409,11.812-21.221,11.988
			c-10.812,0.182-19.831-4.714-21.603-11.279L20.248-28.273c-0.727,0.304-1.311,1.194-1.298,1.984l4.703,24.17
			c0.011,0.789,0.665,1.421,1.451,1.405c0,0,12.504-5.294,12.599-4.512l5.184,70.871c0.093,0.788,0.559,1.939,1.031,2.567
			l15.175,20.271c0.475,0.632,1.507,1.138,2.293,1.12l40.524-0.672c0.787-0.012,1.801-0.551,2.252-1.197l16.042-22.971
			c0.451-0.646,0.879-1.821,0.947-2.602l2.877-67.392c0.068-0.783,12.723,2.662,12.723,2.662c0.787-0.012,1.424-0.665,1.407-1.455
			l3.893-24.313C142.04-29.122,141.429-29.993,140.691-30.275z"/>
		<path fill="#FFB5AD" d="M94.775,9.748c-0.073-4.401-3.701-7.911-8.102-7.839c-2.228,0.036-4.224,0.985-5.645,2.482
			c-1.47-1.451-3.498-2.331-5.729-2.294c-4.396,0.072-7.908,3.703-7.833,8.105c0.147,8.998,13.941,17,13.941,17
			S94.928,18.749,94.775,9.748z"/>
		<path fill="#FFFFFF" d="M59.523,88.623l-0.768-0.372l0.591-0.636c5.464-7.611,13.865-12.06,23.054-12.216
			c8.733-0.144,17.009,3.67,22.697,10.463l-1.1,0.917c-5.41-6.459-13.272-10.083-21.572-9.944
			c-8.732,0.145-16.721,4.379-21.917,11.615l-0.567-0.404L59.523,88.623z"/>
		<g>
			<path fill="#FFFFFF" d="M76.309,83.368c0.021,0.99-0.768,1.806-1.757,1.82c-0.988,0.017-1.806-0.774-1.821-1.763
				c-0.014-0.986,0.771-1.799,1.762-1.817C75.48,81.596,76.295,82.38,76.309,83.368z"/>
			<path fill="#FFFFFF" d="M91.949,83.112c0.017,0.984-0.771,1.8-1.763,1.82c-0.989,0.014-1.804-0.777-1.819-1.763
				c-0.015-0.992,0.772-1.807,1.761-1.824C91.116,81.333,91.928,82.124,91.949,83.112z"/>
		</g>
		<path fill="#FFB5AD" d="M54.699,71.74c-3.254-3.401-7.411-5.449-11.824-6.177l0.012,0.082c0.093,0.788,0.559,1.939,1.031,2.567
			l15.175,20.271c0.273,0.36,0.73,0.669,1.216,0.872C61.121,83.021,59.294,76.542,54.699,71.74z"/>
		<path fill="#FFB5AD" d="M121.072,62.622c-4.891,0.664-9.501,2.931-12.961,6.794c-4.725,5.285-6.24,12.36-4.781,19.042
			c0.336-0.201,0.637-0.45,0.832-0.723l16.042-22.971C120.571,64.235,120.919,63.355,121.072,62.622z"/>
	</g>
	<g>
		<path fill="#F39463" d="M79.733-28.672c10.258-0.17,22.349-6.678,29.24-12.031l-7.124-2.96c-1.553,6.622-41.048,7.278-42.82,0.709
			l-4.578,2.087C61.656-35.119,68.79-28.491,79.733-28.672z"/>
		<path fill="#FFFFFF" d="M140.691-30.275l-39.042-13.381c-1.556,6.618-10.409,11.812-21.221,11.988
			c-10.812,0.182-19.831-4.714-21.603-11.279L20.248-28.273c-0.727,0.304-1.311,1.194-1.298,1.984l4.703,24.17
			c0.011,0.789,0.665,1.421,1.451,1.405c0,0,12.504-5.294,12.599-4.512l5.184,70.871c0.093,0.788,0.559,1.939,1.031,2.567
			l15.175,20.271c0.475,0.632,1.507,1.138,2.293,1.12l40.524-0.672c0.787-0.012,1.801-0.551,2.252-1.197l16.042-22.971
			c0.451-0.646,0.879-1.821,0.947-2.602l2.877-67.392c0.068-0.783,12.723,2.662,12.723,2.662c0.787-0.012,1.424-0.665,1.407-1.455
			l3.893-24.313C142.04-29.122,141.429-29.993,140.691-30.275z"/>
		<path fill="#42E8CE" d="M94.775,9.748c-0.073-4.401-3.701-7.911-8.102-7.839c-2.228,0.036-4.224,0.985-5.645,2.482
			c-1.47-1.451-3.498-2.331-5.729-2.294c-4.396,0.072-7.908,3.703-7.833,8.105c0.147,8.998,13.941,17,13.941,17
			S94.928,18.749,94.775,9.748z"/>
		<g>
			<path fill="#FDEBCC" d="M59.523,88.623l-0.768-0.372l0.591-0.636c5.464-7.611,13.865-12.06,23.054-12.216
				c8.733-0.144,17.009,3.67,22.697,10.463l-1.1,0.917c-5.41-6.459-13.272-10.083-21.572-9.944
				c-8.732,0.145-16.721,4.379-21.917,11.615l-0.567-0.404L59.523,88.623z"/>
		</g>
		<g>
			<path fill="#F2B69C" d="M76.309,83.368c0.021,0.99-0.768,1.806-1.757,1.82c-0.988,0.017-1.806-0.774-1.821-1.763
				c-0.014-0.986,0.771-1.799,1.762-1.817C75.48,81.596,76.295,82.38,76.309,83.368z"/>
			<path fill="#F2B69C" d="M91.949,83.112c0.017,0.984-0.771,1.8-1.763,1.82c-0.989,0.014-1.804-0.777-1.819-1.763
				c-0.015-0.992,0.772-1.807,1.761-1.824C91.116,81.333,91.928,82.124,91.949,83.112z"/>
		</g>
		<path fill="#F39463" d="M54.699,71.74c-3.254-3.401-7.411-5.449-11.824-6.177l0.012,0.082c0.093,0.788,0.559,1.939,1.031,2.567
			l15.175,20.271c0.273,0.36,0.73,0.669,1.216,0.872C61.121,83.021,59.294,76.542,54.699,71.74z"/>
		<path fill="#F39463" d="M121.072,62.622c-4.891,0.664-9.501,2.931-12.961,6.794c-4.725,5.285-6.24,12.36-4.781,19.042
			c0.336-0.201,0.637-0.45,0.832-0.723l16.042-22.971C120.571,64.235,120.919,63.355,121.072,62.622z"/>
	</g>
</g>
</svg>
