<?xml version="1.0" encoding="utf-8"?>
<!-- Generator: Adobe Illustrator 16.0.0, SVG Export Plug-In . SVG Version: 6.00 Build 0)  -->
<!DOCTYPE svg PUBLIC "-//W3C//DTD SVG 1.1//EN" "http://www.w3.org/Graphics/SVG/1.1/DTD/svg11.dtd">
<svg version="1.1" id="Layer_1" xmlns="http://www.w3.org/2000/svg" xmlns:xlink="http://www.w3.org/1999/xlink" x="0px" y="0px"
	 width="860px" height="286px" viewBox="0 0 860 286" enable-background="new 0 0 860 286" xml:space="preserve">
<g opacity="0.9">
	<g>
		<defs>
			<rect id="SVGID_1_" width="860" height="286"/>
		</defs>
		<clipPath id="SVGID_2_">
			<use xlink:href="#SVGID_1_"  overflow="visible"/>
		</clipPath>
		<rect clip-path="url(#SVGID_2_)" fill="#36363D" width="860" height="286"/>
	</g>
</g>
<g>
	<g>
		<path fill="#FFFFFF" d="M343.99,112.49V95.438h-3.097v17.053h-8.258v-5.78h2.065V95.438h-1.652v-5.781h17.136v22.834H343.99z"/>
		<path fill="#FFFFFF" d="M355.345,104.232v-8.795h-2.064v-5.781h8.258v14.576H355.345z"/>
		<path fill="#FFFFFF" d="M364.843,112.49v-5.78h7.597V95.438h-7.185v-5.781h13.378v17.054h1.693v5.78H364.843z"/>
		<path fill="#FFFFFF" d="M402.21,112.49h-2.064v-5.78h2.064V95.438h-9.29v-5.781h15.484v16.145
			C408.404,109.27,405.638,112.49,402.21,112.49z M392.92,116.619V98.988h6.193v17.631H392.92z"/>
		<path fill="#FFFFFF" d="M432.684,109.353c-0.165,2.188-1.651,3.138-3.138,3.138h-16.847l-1.61-22.834h5.946l0.661,9.332h1.486
			l0.537-9.332h5.78l-0.908,15.112h-6.441l0.124,1.941h8.547l1.239-17.054h5.987L432.684,109.353z"/>
		<path fill="#FFFFFF" d="M443.956,112.49v-5.78h1.858V95.438h-2.478l-1.238,17.053h-5.987l1.238-17.053h-1.445v-5.781h6.813v1.569
			l1.858-1.569h4.335c1.693,0,3.097,1.404,3.097,3.098v19.736H443.956z"/>
		<path fill="#FFFFFF" d="M455.932,112.49V89.656h6.193v22.834H455.932z"/>
		<path fill="#FFFFFF" d="M481.737,112.49V95.438h-7.019v-5.781h8.051c2.85,0,5.162,2.106,5.162,4.708v18.126H481.737z"/>
		<path fill="#FFFFFF" d="M492.062,112.49V89.656h6.193v22.834H492.062z"/>
		<path fill="#FFFFFF" d="M503.417,104.232v-8.795h-2.064v-5.781h8.258v14.576H503.417z"/>
		<path fill="#FFFFFF" d="M525.88,95.438v17.053h-6.194V95.438h-7.597v-5.781h15.483v5.781H525.88z"/>
	</g>
	<g>
		<path fill="#FFFFFF" d="M92.728,165.772c-0.219-0.663-0.386-1.296-0.502-1.897s-0.174-1.192-0.174-1.774
			c0-0.676,0.085-1.334,0.256-1.974c0.171-0.639,0.448-1.283,0.831-1.933c-0.178-0.007-0.347-0.019-0.508-0.036
			c-0.161-0.017-0.323-0.041-0.487-0.071c-0.164-0.031-0.332-0.072-0.502-0.123c-0.171-0.052-0.355-0.114-0.554-0.189
			c0.089-0.246,0.176-0.492,0.262-0.738c0.085-0.246,0.172-0.499,0.261-0.76c0.287,0.09,0.54,0.158,0.759,0.205
			c0.219,0.049,0.432,0.084,0.641,0.108c0.208,0.023,0.427,0.039,0.656,0.046c0.229,0.007,0.497,0.01,0.805,0.01h2.666
			c0.431,0,0.856,0.049,1.276,0.145c0.421,0.096,0.802,0.28,1.144,0.553c0.335,0.261,0.606,0.626,0.815,1.098
			c0.208,0.472,0.312,1.08,0.312,1.825v7.034h-1.774v-6.84c0-0.423-0.027-0.78-0.082-1.071c-0.055-0.29-0.157-0.522-0.308-0.697
			c-0.15-0.174-0.355-0.299-0.615-0.374s-0.595-0.113-1.005-0.113h-2.01c-0.383,0.527-0.651,1.111-0.805,1.754
			c-0.153,0.643-0.23,1.306-0.23,1.989c0,0.554,0.042,1.099,0.128,1.636c0.085,0.536,0.197,1.048,0.333,1.533l0.338,1.097
			c-0.014,0.178-0.027,0.354-0.041,0.528c-0.014,0.174-0.038,0.36-0.072,0.559h-4.061v-1.527H92.728z"/>
		<path fill="#FFFFFF" d="M106.827,156.646V167.3h-1.774v-9.096h-1.794v-1.559H106.827z"/>
		<path fill="#FFFFFF" d="M109.832,167.392c0-0.19,0.001-0.41,0.005-0.656c0.003-0.246,0.006-0.511,0.01-0.794
			c0.003-0.284,0.009-0.576,0.016-0.877s0.014-0.602,0.021-0.902c0.014-0.513,0.051-0.969,0.113-1.369
			c0.062-0.399,0.15-0.764,0.267-1.092s0.261-0.632,0.436-0.913c0.174-0.279,0.381-0.557,0.62-0.83
			c-0.239-0.342-0.443-0.652-0.61-0.934c-0.167-0.279-0.302-0.536-0.405-0.769c-0.109-0.239-0.202-0.481-0.277-0.728
			s-0.14-0.476-0.195-0.688c0.246-0.109,0.513-0.21,0.8-0.303c0.287-0.092,0.574-0.172,0.861-0.24
			c0.027,0.082,0.053,0.162,0.077,0.24c0.024,0.079,0.05,0.159,0.077,0.241c0.068,0.219,0.145,0.438,0.23,0.656
			s0.197,0.458,0.333,0.718s0.309,0.547,0.518,0.861c0.208,0.314,0.47,0.67,0.784,1.066c0.109,0.144,0.217,0.275,0.323,0.395
			c0.105,0.12,0.23,0.262,0.374,0.426s0.321,0.367,0.533,0.61c0.212,0.242,0.485,0.556,0.82,0.938l0.041,0.051
			c0.246-0.178,0.448-0.365,0.605-0.564c0.157-0.197,0.292-0.411,0.405-0.641c0.113-0.229,0.212-0.475,0.298-0.738
			c0.085-0.263,0.172-0.545,0.261-0.846c0.075-0.267,0.149-0.535,0.22-0.805c0.072-0.271,0.142-0.539,0.21-0.805l-1.497-0.287
			l0.277-1.436l2.871,0.502l0.051,1.322c-0.068,0.328-0.157,0.688-0.267,1.077s-0.212,0.752-0.308,1.087
			c-0.123,0.431-0.245,0.804-0.364,1.117c-0.12,0.315-0.255,0.599-0.405,0.852s-0.33,0.489-0.538,0.707
			c-0.209,0.22-0.467,0.445-0.774,0.678l2.451,2.881l-1.251,1.107l-5.476-6.326c-0.212,0.26-0.368,0.561-0.466,0.902
			c-0.1,0.342-0.169,0.702-0.21,1.081c-0.041,0.38-0.062,0.772-0.062,1.18c0,0.406-0.003,0.809-0.01,1.204
			c-0.007,0.22-0.01,0.457-0.01,0.713c0,0.257-0.003,0.566-0.01,0.928H109.832z"/>
		<path fill="#FFFFFF" d="M123.838,161.384c-0.438-0.506-0.809-0.977-1.112-1.41c-0.305-0.435-0.549-0.843-0.733-1.226
			c-0.191-0.39-0.337-0.734-0.436-1.036c-0.1-0.3-0.187-0.591-0.262-0.871c0.253-0.103,0.521-0.2,0.805-0.292
			c0.284-0.093,0.569-0.176,0.856-0.251c0.027,0.082,0.053,0.162,0.077,0.24c0.023,0.079,0.049,0.159,0.077,0.241
			c0.068,0.219,0.144,0.439,0.226,0.661c0.082,0.223,0.191,0.464,0.328,0.723c0.137,0.261,0.309,0.548,0.518,0.861
			c0.208,0.315,0.473,0.667,0.794,1.057c0.103,0.13,0.2,0.25,0.292,0.359c0.092,0.109,0.198,0.232,0.317,0.369
			s0.263,0.299,0.431,0.486c0.167,0.188,0.378,0.426,0.631,0.713c0.212-0.13,0.395-0.27,0.549-0.42
			c0.153-0.15,0.293-0.316,0.42-0.498c0.126-0.181,0.241-0.385,0.344-0.609c0.103-0.227,0.208-0.479,0.318-0.76
			c0.103-0.272,0.193-0.536,0.272-0.789c0.078-0.253,0.155-0.509,0.23-0.77l-1.456-0.44l0.4-1.405l2.799,0.79l-0.072,1.312
			c-0.096,0.335-0.208,0.692-0.338,1.071c-0.13,0.38-0.256,0.723-0.379,1.031c-0.137,0.328-0.273,0.622-0.41,0.881
			c-0.137,0.261-0.287,0.494-0.451,0.703c-0.164,0.208-0.347,0.399-0.548,0.574c-0.202,0.174-0.429,0.337-0.682,0.486l2.317,2.718
			c-0.014,0.178-0.038,0.378-0.072,0.6c-0.034,0.223-0.092,0.494-0.174,0.815h-8.111v-1.559h6.009L123.838,161.384z"/>
		<path fill="#FFFFFF" d="M136.717,156.646V167.3h-1.774v-9.096h-1.794v-1.559H136.717z"/>
		<path fill="#FFFFFF" d="M142.88,158.204c-0.301,0-0.571-0.003-0.81-0.01s-0.47-0.023-0.692-0.051s-0.446-0.07-0.671-0.129
			c-0.226-0.058-0.472-0.139-0.738-0.24c0.089-0.246,0.176-0.492,0.261-0.738s0.173-0.499,0.262-0.76
			c0.287,0.09,0.54,0.158,0.759,0.205c0.219,0.049,0.432,0.084,0.641,0.108c0.208,0.023,0.427,0.039,0.656,0.046
			s0.498,0.01,0.805,0.01h2c0.431,0,0.854,0.049,1.271,0.145s0.793,0.28,1.128,0.553c0.328,0.261,0.595,0.626,0.8,1.098
			s0.308,1.08,0.308,1.825v7.034h-1.774v-6.84c0-0.43-0.029-0.789-0.087-1.076s-0.164-0.518-0.317-0.692
			c-0.154-0.174-0.366-0.299-0.636-0.374c-0.271-0.075-0.614-0.113-1.031-0.113H142.88z M140.132,164.08
			c0-0.308,0.001-0.577,0.005-0.81c0.003-0.232,0.015-0.455,0.036-0.667s0.048-0.426,0.082-0.641
			c0.034-0.216,0.082-0.453,0.144-0.713c0.287,0.041,0.576,0.084,0.867,0.128c0.29,0.045,0.579,0.088,0.866,0.129
			c-0.041,0.246-0.077,0.466-0.107,0.661c-0.031,0.194-0.055,0.39-0.072,0.584c-0.017,0.195-0.029,0.4-0.036,0.615
			c-0.007,0.216-0.01,0.467-0.01,0.754v3.179h-1.774V164.08z"/>
		<path fill="#FFFFFF" d="M154.446,158.204c-0.301,0-0.571-0.003-0.81-0.01s-0.47-0.023-0.692-0.051s-0.446-0.07-0.671-0.129
			c-0.226-0.058-0.472-0.139-0.738-0.24c0.089-0.246,0.176-0.492,0.261-0.738s0.173-0.499,0.262-0.76
			c0.287,0.09,0.54,0.158,0.759,0.205c0.219,0.049,0.432,0.084,0.641,0.108c0.208,0.023,0.427,0.039,0.656,0.046
			s0.498,0.01,0.805,0.01h2c0.431,0,0.854,0.049,1.271,0.145s0.793,0.28,1.128,0.553c0.328,0.261,0.595,0.626,0.8,1.098
			s0.308,1.08,0.308,1.825v7.034h-1.774v-6.84c0-0.43-0.029-0.789-0.087-1.076s-0.164-0.518-0.317-0.692
			c-0.154-0.174-0.366-0.299-0.636-0.374c-0.271-0.075-0.614-0.113-1.031-0.113H154.446z M151.698,164.08
			c0-0.308,0.001-0.577,0.005-0.81c0.003-0.232,0.015-0.455,0.036-0.667s0.048-0.426,0.082-0.641
			c0.034-0.216,0.082-0.453,0.144-0.713c0.287,0.041,0.576,0.084,0.867,0.128c0.29,0.045,0.579,0.088,0.866,0.129
			c-0.041,0.246-0.077,0.466-0.107,0.661c-0.031,0.194-0.055,0.39-0.072,0.584c-0.017,0.195-0.029,0.4-0.036,0.615
			c-0.007,0.216-0.01,0.467-0.01,0.754v3.179h-1.774V164.08z"/>
		<path fill="#FFFFFF" d="M170.606,153.733v2.912h5.917c0.062,0.227,0.109,0.414,0.144,0.564s0.062,0.284,0.082,0.4
			c0.014,0.123,0.022,0.237,0.025,0.343c0.003,0.106,0.005,0.221,0.005,0.344v2.215c0,0.807-0.163,1.569-0.487,2.286
			c-0.325,0.719-0.809,1.436-1.451,2.154l-2.512,2.758l-1.251-1.117l2.348-2.625c0.226-0.26,0.436-0.514,0.631-0.76
			c0.194-0.246,0.362-0.502,0.502-0.769s0.25-0.552,0.328-0.856c0.079-0.304,0.118-0.641,0.118-1.01v-2.369h-6.173v-4.471H170.606z"
			/>
		<path fill="#FFFFFF" d="M182.306,158.204c-0.301,0-0.571-0.003-0.81-0.01s-0.47-0.023-0.692-0.051
			c-0.223-0.027-0.446-0.07-0.672-0.129c-0.226-0.058-0.472-0.139-0.738-0.24c0.089-0.246,0.176-0.492,0.262-0.738
			c0.085-0.246,0.172-0.499,0.261-0.76c0.287,0.09,0.54,0.158,0.759,0.205c0.219,0.049,0.432,0.084,0.641,0.108
			c0.208,0.023,0.427,0.039,0.656,0.046c0.229,0.007,0.497,0.01,0.805,0.01h0.615c0.417,0,0.829,0.054,1.235,0.159
			c0.407,0.106,0.774,0.296,1.103,0.569s0.6,0.643,0.815,1.107c0.215,0.465,0.34,1.06,0.374,1.784
			c0.021,0.383,0.034,0.764,0.041,1.144c0.007,0.379,0.014,0.771,0.021,1.174s0.01,0.827,0.01,1.271s0,0.916,0,1.415
			c0,0.164-0.003,0.312-0.01,0.446c-0.007,0.133-0.021,0.275-0.041,0.426s-0.05,0.315-0.087,0.497
			c-0.038,0.181-0.087,0.401-0.149,0.661h-7.824v-1.559h6.368c0-0.841-0.007-1.711-0.021-2.609
			c-0.014-0.899-0.038-1.789-0.072-2.672c-0.014-0.43-0.053-0.789-0.118-1.076s-0.172-0.518-0.323-0.692
			c-0.15-0.174-0.357-0.299-0.621-0.374s-0.603-0.113-1.02-0.113H182.306z"/>
		<path fill="#FFFFFF" d="M189.463,167.392c0.109-0.676,0.207-1.266,0.292-1.769c0.085-0.502,0.162-0.948,0.23-1.338
			s0.128-0.74,0.18-1.051c0.051-0.312,0.103-0.615,0.153-0.913c0.052-0.297,0.101-0.603,0.149-0.918
			c0.048-0.313,0.103-0.669,0.164-1.066c0.034-0.341,0.039-0.63,0.015-0.866c-0.024-0.235-0.082-0.465-0.174-0.687
			c-0.093-0.223-0.221-0.458-0.385-0.708c-0.164-0.249-0.366-0.562-0.605-0.938c0.137-0.082,0.26-0.156,0.369-0.225
			s0.222-0.137,0.338-0.205s0.241-0.143,0.374-0.221c0.134-0.079,0.296-0.173,0.487-0.282c0.157,0.219,0.292,0.41,0.405,0.574
			c0.112,0.164,0.213,0.316,0.302,0.456c0.089,0.141,0.167,0.279,0.236,0.416s0.137,0.28,0.205,0.43
			c0.287-0.266,0.562-0.504,0.825-0.712c0.263-0.209,0.532-0.383,0.805-0.523c0.273-0.14,0.564-0.247,0.872-0.323
			c0.308-0.074,0.646-0.112,1.015-0.112c0.902,0,1.654,0.234,2.256,0.702c0.602,0.469,1.001,1.188,1.2,2.158
			c0.055,0.274,0.094,0.614,0.118,1.021c0.023,0.407,0.041,0.827,0.051,1.262c0.011,0.434,0.014,0.857,0.011,1.271
			c-0.004,0.413-0.005,0.768-0.005,1.062c-0.007,0.471-0.017,0.922-0.031,1.354c-0.014,0.43-0.031,0.789-0.051,1.076
			c-0.014,0.15-0.027,0.308-0.041,0.472s-0.034,0.335-0.062,0.513h-5.055v-1.559h3.435c0.007-0.116,0.015-0.242,0.026-0.379
			c0.01-0.137,0.017-0.32,0.021-0.549c0.003-0.229,0.006-0.526,0.01-0.893c0.003-0.365,0.005-0.836,0.005-1.41
			c0-0.259-0.003-0.524-0.01-0.794c-0.007-0.271-0.017-0.53-0.031-0.779c-0.014-0.25-0.033-0.483-0.056-0.702
			c-0.024-0.219-0.053-0.407-0.087-0.564c-0.062-0.253-0.14-0.483-0.236-0.692c-0.096-0.208-0.219-0.384-0.369-0.528
			c-0.15-0.143-0.328-0.254-0.533-0.333c-0.205-0.078-0.448-0.118-0.728-0.118c-0.301,0-0.589,0.049-0.867,0.145
			c-0.276,0.096-0.542,0.224-0.794,0.384c-0.253,0.161-0.496,0.348-0.728,0.56s-0.455,0.43-0.667,0.656
			c-0.123,0.758-0.231,1.429-0.323,2.01c-0.093,0.581-0.176,1.102-0.251,1.563c-0.075,0.461-0.142,0.871-0.2,1.23
			c-0.059,0.358-0.115,0.695-0.169,1.01s-0.106,0.619-0.154,0.913s-0.099,0.602-0.154,0.922H189.463z"/>
		<path fill="#FFFFFF" d="M213.796,157.897c0.068-0.26,0.139-0.515,0.21-0.765c0.072-0.249,0.146-0.504,0.221-0.764l3.025,0.8
			c0.021,0.239,0.038,0.479,0.051,0.718s0.021,0.479,0.021,0.718c-0.068,0.574-0.169,1.137-0.303,1.687
			c-0.133,0.551-0.306,1.086-0.518,1.604c-0.212,0.521-0.47,1.021-0.774,1.503c-0.304,0.481-0.661,0.938-1.071,1.368
			c-0.431,0.451-0.916,0.86-1.456,1.226c-0.54,0.366-1.131,0.702-1.774,1.011c-0.465,0.219-0.952,0.42-1.461,0.604
			s-1.054,0.355-1.635,0.513l-0.502-1.579c0.533-0.157,1.082-0.331,1.646-0.522c0.564-0.191,1.137-0.421,1.718-0.688
			c-0.369-0.957-0.733-1.912-1.092-2.866c-0.359-0.953-0.723-1.908-1.092-2.866c-0.096-0.246-0.179-0.442-0.251-0.589
			c-0.071-0.147-0.166-0.278-0.282-0.396c-0.123-0.115-0.284-0.225-0.482-0.328c-0.198-0.102-0.472-0.235-0.82-0.399
			c0.123-0.246,0.25-0.492,0.379-0.738s0.263-0.492,0.4-0.738c0.376,0.15,0.697,0.287,0.964,0.41s0.496,0.26,0.687,0.41
			c0.191,0.137,0.352,0.298,0.482,0.481c0.13,0.186,0.253,0.421,0.369,0.708c0.068,0.178,0.137,0.355,0.205,0.533
			s0.144,0.376,0.226,0.595s0.174,0.47,0.277,0.754c0.103,0.283,0.224,0.62,0.364,1.01s0.301,0.841,0.482,1.354
			c0.181,0.513,0.395,1.111,0.641,1.795c0.451-0.335,0.839-0.717,1.164-1.144c0.324-0.428,0.603-0.897,0.835-1.41
			c0.226-0.513,0.41-1.062,0.554-1.646c0.144-0.585,0.253-1.215,0.328-1.893L213.796,157.897z"/>
		<path fill="#FFFFFF" d="M222.635,158.204c-0.301,0-0.571-0.003-0.81-0.01s-0.47-0.023-0.692-0.051
			c-0.223-0.027-0.446-0.07-0.672-0.129c-0.226-0.058-0.472-0.139-0.738-0.24c0.089-0.246,0.176-0.492,0.262-0.738
			c0.085-0.246,0.172-0.499,0.261-0.76c0.287,0.09,0.54,0.158,0.759,0.205c0.219,0.049,0.432,0.084,0.641,0.108
			c0.208,0.023,0.427,0.039,0.656,0.046c0.229,0.007,0.497,0.01,0.805,0.01h0.297c0.431,0,0.854,0.049,1.271,0.145
			s0.793,0.276,1.128,0.543c0.328,0.26,0.595,0.619,0.8,1.076c0.205,0.459,0.308,1.057,0.308,1.795v5.537h1.887v1.559h-9.71v-1.559
			h6.05v-5.281c0-0.423-0.031-0.78-0.092-1.071c-0.062-0.29-0.169-0.522-0.323-0.697c-0.154-0.174-0.364-0.299-0.631-0.374
			s-0.605-0.113-1.015-0.113H222.635z"/>
		<path fill="#FFFFFF" d="M233.627,158.204c-0.301,0-0.571-0.003-0.81-0.01s-0.47-0.023-0.692-0.051s-0.446-0.07-0.671-0.129
			c-0.226-0.058-0.472-0.139-0.738-0.24c0.089-0.246,0.176-0.492,0.261-0.738s0.173-0.499,0.262-0.76
			c0.287,0.09,0.54,0.158,0.759,0.205c0.219,0.049,0.432,0.084,0.641,0.108c0.208,0.023,0.427,0.039,0.656,0.046
			s0.498,0.01,0.805,0.01h0.964c0.431,0,0.856,0.049,1.277,0.145c0.42,0.096,0.798,0.276,1.133,0.543
			c0.328,0.267,0.596,0.636,0.805,1.107s0.313,1.08,0.313,1.825v7.034h-1.774v-6.84c0-0.423-0.031-0.78-0.092-1.071
			c-0.062-0.29-0.171-0.522-0.328-0.697c-0.157-0.174-0.369-0.299-0.636-0.374s-0.605-0.113-1.015-0.113H233.627z"/>
		<path fill="#FFFFFF" d="M253.068,157.897c0.068-0.26,0.139-0.515,0.21-0.765c0.072-0.249,0.146-0.504,0.221-0.764l3.025,0.8
			c0.021,0.239,0.038,0.479,0.051,0.718s0.021,0.479,0.021,0.718c-0.068,0.574-0.169,1.137-0.303,1.687
			c-0.133,0.551-0.306,1.086-0.518,1.604c-0.212,0.521-0.47,1.021-0.774,1.503c-0.304,0.481-0.661,0.938-1.071,1.368
			c-0.431,0.451-0.916,0.86-1.456,1.226c-0.54,0.366-1.131,0.702-1.774,1.011c-0.465,0.219-0.952,0.42-1.461,0.604
			s-1.054,0.355-1.635,0.513l-0.502-1.579c0.533-0.157,1.082-0.331,1.646-0.522c0.564-0.191,1.137-0.421,1.718-0.688
			c-0.369-0.957-0.733-1.912-1.092-2.866c-0.359-0.953-0.723-1.908-1.092-2.866c-0.096-0.246-0.179-0.442-0.251-0.589
			c-0.071-0.147-0.166-0.278-0.282-0.396c-0.123-0.115-0.284-0.225-0.482-0.328c-0.198-0.102-0.472-0.235-0.82-0.399
			c0.123-0.246,0.25-0.492,0.379-0.738s0.263-0.492,0.4-0.738c0.376,0.15,0.697,0.287,0.964,0.41s0.496,0.26,0.687,0.41
			c0.191,0.137,0.352,0.298,0.482,0.481c0.13,0.186,0.253,0.421,0.369,0.708c0.068,0.178,0.137,0.355,0.205,0.533
			s0.144,0.376,0.226,0.595s0.174,0.47,0.277,0.754c0.103,0.283,0.224,0.62,0.364,1.01s0.301,0.841,0.482,1.354
			c0.181,0.513,0.395,1.111,0.641,1.795c0.451-0.335,0.839-0.717,1.164-1.144c0.324-0.428,0.603-0.897,0.835-1.41
			c0.226-0.513,0.41-1.062,0.554-1.646c0.144-0.585,0.253-1.215,0.328-1.893L253.068,157.897z"/>
		<path fill="#FFFFFF" d="M260.759,161.384c-0.438-0.506-0.809-0.977-1.112-1.41c-0.305-0.435-0.549-0.843-0.733-1.226
			c-0.191-0.39-0.337-0.734-0.436-1.036c-0.1-0.3-0.187-0.591-0.262-0.871c0.253-0.103,0.521-0.2,0.805-0.292
			c0.284-0.093,0.569-0.176,0.856-0.251c0.027,0.082,0.053,0.162,0.077,0.24c0.023,0.079,0.049,0.159,0.077,0.241
			c0.068,0.219,0.144,0.439,0.226,0.661c0.082,0.223,0.191,0.464,0.328,0.723c0.137,0.261,0.309,0.548,0.518,0.861
			c0.208,0.315,0.473,0.667,0.794,1.057c0.103,0.13,0.2,0.25,0.292,0.359c0.092,0.109,0.198,0.232,0.317,0.369
			s0.263,0.299,0.431,0.486c0.167,0.188,0.378,0.426,0.631,0.713c0.212-0.13,0.395-0.27,0.549-0.42
			c0.153-0.15,0.293-0.316,0.42-0.498c0.126-0.181,0.241-0.385,0.344-0.609c0.103-0.227,0.208-0.479,0.318-0.76
			c0.103-0.272,0.193-0.536,0.272-0.789c0.078-0.253,0.155-0.509,0.23-0.77l-1.456-0.44l0.4-1.405l2.799,0.79l-0.072,1.312
			c-0.096,0.335-0.208,0.692-0.338,1.071c-0.13,0.38-0.256,0.723-0.379,1.031c-0.137,0.328-0.273,0.622-0.41,0.881
			c-0.137,0.261-0.287,0.494-0.451,0.703c-0.164,0.208-0.347,0.399-0.548,0.574c-0.202,0.174-0.429,0.337-0.682,0.486l2.317,2.718
			c-0.014,0.178-0.038,0.378-0.072,0.6c-0.034,0.223-0.092,0.494-0.174,0.815h-8.111v-1.559h6.009L260.759,161.384z"/>
		<path fill="#FFFFFF" d="M273.638,156.646V167.3h-1.774v-9.096h-1.794v-1.559H273.638z"/>
		<path fill="#FFFFFF" d="M276.519,167.392c0.109-0.676,0.207-1.266,0.292-1.769c0.085-0.502,0.162-0.948,0.23-1.338
			s0.128-0.74,0.18-1.051c0.051-0.312,0.103-0.615,0.153-0.913c0.052-0.297,0.101-0.603,0.149-0.918
			c0.048-0.313,0.103-0.669,0.164-1.066c0.034-0.341,0.039-0.63,0.015-0.866c-0.024-0.235-0.082-0.465-0.174-0.687
			c-0.093-0.223-0.221-0.458-0.385-0.708c-0.164-0.249-0.366-0.562-0.605-0.938c0.137-0.082,0.26-0.156,0.369-0.225
			s0.222-0.137,0.338-0.205s0.241-0.143,0.374-0.221c0.134-0.079,0.296-0.173,0.487-0.282c0.157,0.219,0.292,0.41,0.405,0.574
			c0.112,0.164,0.213,0.316,0.302,0.456c0.089,0.141,0.167,0.279,0.236,0.416s0.137,0.28,0.205,0.43
			c0.287-0.266,0.562-0.504,0.825-0.712c0.263-0.209,0.532-0.383,0.805-0.523c0.273-0.14,0.564-0.247,0.872-0.323
			c0.308-0.074,0.646-0.112,1.015-0.112c0.902,0,1.654,0.234,2.256,0.702c0.602,0.469,1.001,1.188,1.2,2.158
			c0.055,0.274,0.094,0.614,0.118,1.021c0.023,0.407,0.041,0.827,0.051,1.262c0.011,0.434,0.014,0.857,0.011,1.271
			c-0.004,0.413-0.005,0.768-0.005,1.062c-0.007,0.471-0.017,0.922-0.031,1.354c-0.014,0.43-0.031,0.789-0.051,1.076
			c-0.014,0.15-0.027,0.308-0.041,0.472s-0.034,0.335-0.062,0.513h-5.055v-1.559h3.435c0.007-0.116,0.015-0.242,0.026-0.379
			c0.01-0.137,0.017-0.32,0.021-0.549c0.003-0.229,0.006-0.526,0.01-0.893c0.003-0.365,0.005-0.836,0.005-1.41
			c0-0.259-0.003-0.524-0.01-0.794c-0.007-0.271-0.017-0.53-0.031-0.779c-0.014-0.25-0.033-0.483-0.056-0.702
			c-0.024-0.219-0.053-0.407-0.087-0.564c-0.062-0.253-0.14-0.483-0.236-0.692c-0.096-0.208-0.219-0.384-0.369-0.528
			c-0.15-0.143-0.328-0.254-0.533-0.333c-0.205-0.078-0.448-0.118-0.728-0.118c-0.301,0-0.589,0.049-0.867,0.145
			c-0.276,0.096-0.542,0.224-0.794,0.384c-0.253,0.161-0.496,0.348-0.728,0.56s-0.455,0.43-0.667,0.656
			c-0.123,0.758-0.231,1.429-0.323,2.01c-0.093,0.581-0.176,1.102-0.251,1.563c-0.075,0.461-0.142,0.871-0.2,1.23
			c-0.059,0.358-0.115,0.695-0.169,1.01s-0.106,0.619-0.154,0.913s-0.099,0.602-0.154,0.922H276.519z"/>
		<path fill="#FFFFFF" d="M288.762,167.392c0.109-0.676,0.207-1.266,0.292-1.769c0.085-0.502,0.162-0.948,0.23-1.338
			s0.128-0.74,0.18-1.051c0.051-0.312,0.103-0.615,0.153-0.913c0.052-0.297,0.101-0.603,0.149-0.918
			c0.048-0.313,0.103-0.669,0.164-1.066c0.034-0.341,0.039-0.63,0.015-0.866c-0.024-0.235-0.082-0.465-0.174-0.687
			c-0.093-0.223-0.221-0.458-0.385-0.708c-0.164-0.249-0.366-0.562-0.605-0.938c0.137-0.082,0.26-0.156,0.369-0.225
			s0.222-0.137,0.338-0.205s0.241-0.143,0.374-0.221c0.134-0.079,0.296-0.173,0.487-0.282c0.157,0.219,0.292,0.41,0.405,0.574
			c0.112,0.164,0.213,0.316,0.302,0.456c0.089,0.141,0.167,0.279,0.236,0.416s0.137,0.28,0.205,0.43
			c0.287-0.266,0.562-0.504,0.825-0.712c0.263-0.209,0.532-0.383,0.805-0.523c0.273-0.14,0.564-0.247,0.872-0.323
			c0.308-0.074,0.646-0.112,1.015-0.112c0.902,0,1.654,0.234,2.256,0.702c0.602,0.469,1.001,1.188,1.2,2.158
			c0.055,0.274,0.094,0.614,0.118,1.021c0.023,0.407,0.041,0.827,0.051,1.262c0.011,0.434,0.014,0.857,0.011,1.271
			c-0.004,0.413-0.005,0.768-0.005,1.062c-0.007,0.471-0.017,0.922-0.031,1.354c-0.014,0.43-0.031,0.789-0.051,1.076
			c-0.014,0.15-0.027,0.308-0.041,0.472s-0.034,0.335-0.062,0.513h-5.055v-1.559h3.435c0.007-0.116,0.015-0.242,0.026-0.379
			c0.01-0.137,0.017-0.32,0.021-0.549c0.003-0.229,0.006-0.526,0.01-0.893c0.003-0.365,0.005-0.836,0.005-1.41
			c0-0.259-0.003-0.524-0.01-0.794c-0.007-0.271-0.017-0.53-0.031-0.779c-0.014-0.25-0.033-0.483-0.056-0.702
			c-0.024-0.219-0.053-0.407-0.087-0.564c-0.062-0.253-0.14-0.483-0.236-0.692c-0.096-0.208-0.219-0.384-0.369-0.528
			c-0.15-0.143-0.328-0.254-0.533-0.333c-0.205-0.078-0.448-0.118-0.728-0.118c-0.301,0-0.589,0.049-0.867,0.145
			c-0.276,0.096-0.542,0.224-0.794,0.384c-0.253,0.161-0.496,0.348-0.728,0.56s-0.455,0.43-0.667,0.656
			c-0.123,0.758-0.231,1.429-0.323,2.01c-0.093,0.581-0.176,1.102-0.251,1.563c-0.075,0.461-0.142,0.871-0.2,1.23
			c-0.059,0.358-0.115,0.695-0.169,1.01s-0.106,0.619-0.154,0.913s-0.099,0.602-0.154,0.922H288.762z"/>
		<path fill="#FFFFFF" d="M304.481,158.204c-0.301,0-0.571-0.003-0.81-0.01s-0.47-0.023-0.692-0.051
			c-0.223-0.027-0.446-0.07-0.672-0.129c-0.226-0.058-0.472-0.139-0.738-0.24c0.089-0.246,0.176-0.492,0.262-0.738
			c0.085-0.246,0.172-0.499,0.261-0.76c0.287,0.09,0.54,0.158,0.759,0.205c0.219,0.049,0.432,0.084,0.641,0.108
			c0.208,0.023,0.427,0.039,0.656,0.046c0.229,0.007,0.497,0.01,0.805,0.01h0.297c0.431,0,0.854,0.049,1.271,0.145
			s0.793,0.276,1.128,0.543c0.328,0.26,0.595,0.619,0.8,1.076c0.205,0.459,0.308,1.057,0.308,1.795v5.537h1.887v1.559h-9.71v-1.559
			h6.05v-5.281c0-0.423-0.031-0.78-0.092-1.071c-0.062-0.29-0.169-0.522-0.323-0.697c-0.154-0.174-0.364-0.299-0.631-0.374
			s-0.605-0.113-1.015-0.113H304.481z"/>
		<path fill="#FFFFFF" d="M321.729,158.204c-0.301,0-0.571-0.003-0.81-0.01s-0.47-0.023-0.692-0.051s-0.446-0.07-0.671-0.129
			c-0.226-0.058-0.472-0.139-0.738-0.24c0.089-0.246,0.176-0.492,0.261-0.738s0.173-0.499,0.262-0.76
			c0.287,0.09,0.54,0.158,0.759,0.205c0.219,0.049,0.432,0.084,0.641,0.108c0.208,0.023,0.427,0.039,0.656,0.046
			s0.498,0.01,0.805,0.01h2c0.431,0,0.854,0.049,1.271,0.145s0.793,0.28,1.128,0.553c0.328,0.261,0.595,0.626,0.8,1.098
			s0.308,1.08,0.308,1.825v7.034h-1.774v-6.84c0-0.43-0.029-0.789-0.087-1.076s-0.164-0.518-0.317-0.692
			c-0.154-0.174-0.366-0.299-0.636-0.374c-0.271-0.075-0.614-0.113-1.031-0.113H321.729z M318.98,164.08
			c0-0.308,0.001-0.577,0.005-0.81c0.003-0.232,0.015-0.455,0.036-0.667s0.048-0.426,0.082-0.641
			c0.034-0.216,0.082-0.453,0.144-0.713c0.287,0.041,0.576,0.084,0.867,0.128c0.29,0.045,0.579,0.088,0.866,0.129
			c-0.041,0.246-0.077,0.466-0.107,0.661c-0.031,0.194-0.055,0.39-0.072,0.584c-0.017,0.195-0.029,0.4-0.036,0.615
			c-0.007,0.216-0.01,0.467-0.01,0.754v3.179h-1.774V164.08z"/>
		<path fill="#FFFFFF" d="M333.849,156.646V167.3h-1.774v-9.096h-1.794v-1.559H333.849z"/>
		<path fill="#FFFFFF" d="M340.565,156.646V167.3h-1.774v-9.096h-1.794v-1.559H340.565z"/>
		<path fill="#FFFFFF" d="M346.728,158.204c-0.301,0-0.571-0.003-0.81-0.01s-0.47-0.023-0.692-0.051s-0.446-0.07-0.671-0.129
			c-0.226-0.058-0.472-0.139-0.738-0.24c0.089-0.246,0.176-0.492,0.261-0.738s0.173-0.499,0.262-0.76
			c0.287,0.09,0.54,0.158,0.759,0.205c0.219,0.049,0.432,0.084,0.641,0.108c0.208,0.023,0.427,0.039,0.656,0.046
			s0.498,0.01,0.805,0.01h2c0.431,0,0.854,0.049,1.271,0.145s0.793,0.28,1.128,0.553c0.328,0.261,0.595,0.626,0.8,1.098
			s0.308,1.08,0.308,1.825v7.034h-1.774v-6.84c0-0.43-0.029-0.789-0.087-1.076s-0.164-0.518-0.317-0.692
			c-0.154-0.174-0.366-0.299-0.636-0.374c-0.271-0.075-0.614-0.113-1.031-0.113H346.728z M343.979,164.08
			c0-0.308,0.001-0.577,0.005-0.81c0.003-0.232,0.015-0.455,0.036-0.667s0.048-0.426,0.082-0.641
			c0.034-0.216,0.082-0.453,0.144-0.713c0.287,0.041,0.576,0.084,0.867,0.128c0.29,0.045,0.579,0.088,0.866,0.129
			c-0.041,0.246-0.077,0.466-0.107,0.661c-0.031,0.194-0.055,0.39-0.072,0.584c-0.017,0.195-0.029,0.4-0.036,0.615
			c-0.007,0.216-0.01,0.467-0.01,0.754v3.179h-1.774V164.08z"/>
		<path fill="#FFFFFF" d="M355.013,167.392c0.109-0.676,0.207-1.266,0.292-1.769c0.085-0.502,0.162-0.948,0.23-1.338
			s0.128-0.74,0.18-1.051c0.051-0.312,0.103-0.615,0.153-0.913c0.052-0.297,0.101-0.603,0.149-0.918
			c0.048-0.313,0.103-0.669,0.164-1.066c0.034-0.341,0.039-0.63,0.015-0.866c-0.024-0.235-0.082-0.465-0.174-0.687
			c-0.093-0.223-0.221-0.458-0.385-0.708c-0.164-0.249-0.366-0.562-0.605-0.938c0.137-0.082,0.26-0.156,0.369-0.225
			s0.222-0.137,0.338-0.205s0.241-0.143,0.374-0.221c0.134-0.079,0.296-0.173,0.487-0.282c0.157,0.219,0.292,0.41,0.405,0.574
			c0.112,0.164,0.213,0.316,0.302,0.456c0.089,0.141,0.167,0.279,0.236,0.416s0.137,0.28,0.205,0.43
			c0.287-0.266,0.562-0.504,0.825-0.712c0.263-0.209,0.532-0.383,0.805-0.523c0.273-0.14,0.564-0.247,0.872-0.323
			c0.308-0.074,0.646-0.112,1.015-0.112c0.902,0,1.654,0.234,2.256,0.702c0.602,0.469,1.001,1.188,1.2,2.158
			c0.055,0.274,0.094,0.614,0.118,1.021c0.023,0.407,0.041,0.827,0.051,1.262c0.011,0.434,0.014,0.857,0.011,1.271
			c-0.004,0.413-0.005,0.768-0.005,1.062c-0.007,0.471-0.017,0.922-0.031,1.354c-0.014,0.43-0.031,0.789-0.051,1.076
			c-0.014,0.15-0.027,0.308-0.041,0.472s-0.034,0.335-0.062,0.513h-5.055v-1.559h3.435c0.007-0.116,0.015-0.242,0.026-0.379
			c0.01-0.137,0.017-0.32,0.021-0.549c0.003-0.229,0.006-0.526,0.01-0.893c0.003-0.365,0.005-0.836,0.005-1.41
			c0-0.259-0.003-0.524-0.01-0.794c-0.007-0.271-0.017-0.53-0.031-0.779c-0.014-0.25-0.033-0.483-0.056-0.702
			c-0.024-0.219-0.053-0.407-0.087-0.564c-0.062-0.253-0.14-0.483-0.236-0.692c-0.096-0.208-0.219-0.384-0.369-0.528
			c-0.15-0.143-0.328-0.254-0.533-0.333c-0.205-0.078-0.448-0.118-0.728-0.118c-0.301,0-0.589,0.049-0.867,0.145
			c-0.276,0.096-0.542,0.224-0.794,0.384c-0.253,0.161-0.496,0.348-0.728,0.56s-0.455,0.43-0.667,0.656
			c-0.123,0.758-0.231,1.429-0.323,2.01c-0.093,0.581-0.176,1.102-0.251,1.563c-0.075,0.461-0.142,0.871-0.2,1.23
			c-0.059,0.358-0.115,0.695-0.169,1.01s-0.106,0.619-0.154,0.913s-0.099,0.602-0.154,0.922H355.013z"/>
		<path fill="#FFFFFF" d="M368.23,161.681c-0.055-0.649-0.094-1.194-0.118-1.636c-0.024-0.44-0.055-0.828-0.092-1.163
			c-0.038-0.335-0.093-0.642-0.164-0.918c-0.072-0.277-0.176-0.572-0.313-0.887c0.239-0.137,0.49-0.26,0.753-0.369
			s0.525-0.212,0.785-0.309c0.13,0.246,0.237,0.484,0.323,0.713c0.085,0.229,0.156,0.477,0.21,0.744
			c0.055,0.266,0.099,0.57,0.133,0.912s0.068,0.748,0.103,1.221l0.431,5.731c0.246,0.021,0.482,0.03,0.708,0.03
			c1.162,0,2.177-0.177,3.045-0.533c0.868-0.354,1.589-0.854,2.164-1.496s1.003-1.407,1.287-2.292
			c0.284-0.886,0.426-1.857,0.426-2.917c0-0.294-0.01-0.585-0.031-0.872s-0.048-0.577-0.082-0.872
			c0.287-0.074,0.571-0.142,0.851-0.199c0.28-0.059,0.578-0.111,0.892-0.159c0.055,0.294,0.096,0.599,0.123,0.913
			s0.041,0.643,0.041,0.984c0,1.496-0.205,2.812-0.615,3.947s-1.001,2.082-1.774,2.84c-0.772,0.76-1.712,1.33-2.82,1.713
			s-2.355,0.574-3.743,0.574c-0.335,0-0.675-0.009-1.021-0.025c-0.345-0.018-0.699-0.05-1.061-0.098L368.23,161.681z
			 M374.444,156.41c0.096,0.328,0.144,0.653,0.144,0.974c0,0.199-0.016,0.398-0.046,0.601c-0.031,0.201-0.074,0.405-0.128,0.61
			c-0.096,0.342-0.212,0.682-0.349,1.02c-0.137,0.339-0.284,0.682-0.441,1.031l-1.138,2.491l-1.518-0.667l1.118-2.491
			c0.191-0.431,0.344-0.786,0.456-1.066c0.113-0.28,0.197-0.533,0.251-0.759c0.048-0.198,0.072-0.41,0.072-0.636
			c0-0.212-0.021-0.472-0.062-0.779L374.444,156.41z"/>
		<path fill="#FFFFFF" d="M388.912,165.485c0.26-0.186,0.483-0.312,0.671-0.38s0.378-0.103,0.569-0.103
			c0.335,0,0.605,0.066,0.81,0.2c0.205,0.133,0.354,0.304,0.446,0.513c0.093,0.208,0.132,0.445,0.118,0.713
			c-0.014,0.266-0.075,0.533-0.185,0.799c-0.075,0.178-0.174,0.387-0.297,0.626s-0.253,0.487-0.39,0.743
			c-0.137,0.257-0.275,0.508-0.416,0.754s-0.261,0.458-0.364,0.636h-1.251l0.81-2.687L388.912,165.485z"/>
		<path fill="#FFFFFF" d="M396.972,153.733v2.912h5.917c0.062,0.227,0.109,0.414,0.144,0.564s0.062,0.284,0.082,0.4
			c0.014,0.123,0.022,0.237,0.025,0.343c0.003,0.106,0.005,0.221,0.005,0.344v2.215c0,0.807-0.163,1.569-0.487,2.286
			c-0.325,0.719-0.809,1.436-1.451,2.154l-2.512,2.758l-1.251-1.117l2.348-2.625c0.226-0.26,0.436-0.514,0.631-0.76
			c0.194-0.246,0.362-0.502,0.502-0.769s0.25-0.552,0.328-0.856c0.079-0.304,0.118-0.641,0.118-1.01v-2.369h-6.173v-4.471H396.972z"
			/>
		<path fill="#FFFFFF" d="M405.441,167.392c0-0.19,0.001-0.41,0.005-0.656c0.003-0.246,0.006-0.511,0.01-0.794
			c0.003-0.284,0.009-0.576,0.016-0.877s0.014-0.602,0.021-0.902c0.014-0.513,0.051-0.969,0.113-1.369
			c0.062-0.399,0.15-0.764,0.267-1.092s0.261-0.632,0.436-0.913c0.174-0.279,0.381-0.557,0.62-0.83
			c-0.239-0.342-0.443-0.652-0.61-0.934c-0.167-0.279-0.302-0.536-0.405-0.769c-0.109-0.239-0.202-0.481-0.277-0.728
			s-0.14-0.476-0.195-0.688c0.246-0.109,0.513-0.21,0.8-0.303c0.287-0.092,0.574-0.172,0.861-0.24
			c0.027,0.082,0.053,0.162,0.077,0.24c0.024,0.079,0.05,0.159,0.077,0.241c0.068,0.219,0.145,0.438,0.23,0.656
			s0.197,0.458,0.333,0.718s0.309,0.547,0.518,0.861c0.208,0.314,0.47,0.67,0.784,1.066c0.109,0.144,0.217,0.275,0.323,0.395
			c0.105,0.12,0.23,0.262,0.374,0.426s0.321,0.367,0.533,0.61c0.212,0.242,0.485,0.556,0.82,0.938l0.041,0.051
			c0.246-0.178,0.448-0.365,0.605-0.564c0.157-0.197,0.292-0.411,0.405-0.641c0.113-0.229,0.212-0.475,0.298-0.738
			c0.085-0.263,0.172-0.545,0.261-0.846c0.075-0.267,0.149-0.535,0.22-0.805c0.072-0.271,0.142-0.539,0.21-0.805l-1.497-0.287
			l0.277-1.436l2.871,0.502l0.051,1.322c-0.068,0.328-0.157,0.688-0.267,1.077s-0.212,0.752-0.308,1.087
			c-0.123,0.431-0.245,0.804-0.364,1.117c-0.12,0.315-0.255,0.599-0.405,0.852s-0.33,0.489-0.538,0.707
			c-0.209,0.22-0.467,0.445-0.774,0.678l2.451,2.881l-1.251,1.107l-5.476-6.326c-0.212,0.26-0.368,0.561-0.466,0.902
			c-0.1,0.342-0.169,0.702-0.21,1.081c-0.041,0.38-0.062,0.772-0.062,1.18c0,0.406-0.003,0.809-0.01,1.204
			c-0.007,0.22-0.01,0.457-0.01,0.713c0,0.257-0.003,0.566-0.01,0.928H405.441z"/>
		<path fill="#FFFFFF" d="M420.094,158.204c-0.301,0-0.571-0.003-0.81-0.01s-0.47-0.023-0.692-0.051s-0.446-0.07-0.671-0.129
			c-0.226-0.058-0.472-0.139-0.738-0.24c0.089-0.246,0.176-0.492,0.261-0.738s0.173-0.499,0.262-0.76
			c0.287,0.09,0.54,0.158,0.759,0.205c0.219,0.049,0.432,0.084,0.641,0.108c0.208,0.023,0.427,0.039,0.656,0.046
			s0.498,0.01,0.805,0.01h0.964c0.431,0,0.856,0.049,1.277,0.145c0.42,0.096,0.798,0.276,1.133,0.543
			c0.328,0.267,0.596,0.636,0.805,1.107s0.313,1.08,0.313,1.825v7.034h-1.774v-6.84c0-0.423-0.031-0.78-0.092-1.071
			c-0.062-0.29-0.171-0.522-0.328-0.697c-0.157-0.174-0.369-0.299-0.636-0.374s-0.605-0.113-1.015-0.113H420.094z"/>
		<path fill="#FFFFFF" d="M428.42,161.681c-0.055-0.649-0.094-1.194-0.118-1.636c-0.024-0.44-0.055-0.828-0.092-1.163
			c-0.038-0.335-0.093-0.642-0.164-0.918c-0.072-0.277-0.176-0.572-0.313-0.887c0.239-0.137,0.49-0.26,0.753-0.369
			s0.525-0.212,0.785-0.309c0.13,0.246,0.237,0.484,0.323,0.713c0.085,0.229,0.156,0.477,0.21,0.744
			c0.055,0.266,0.099,0.57,0.133,0.912s0.068,0.748,0.103,1.221l0.43,5.731c0.246,0.021,0.482,0.03,0.707,0.03
			c1.162,0,2.178-0.177,3.047-0.533c0.867-0.354,1.588-0.854,2.162-1.496s1.004-1.407,1.287-2.292
			c0.285-0.886,0.426-1.857,0.426-2.917c0-0.294-0.01-0.585-0.031-0.872c-0.02-0.287-0.047-0.577-0.082-0.872
			c0.287-0.074,0.572-0.142,0.852-0.199c0.281-0.059,0.578-0.111,0.893-0.159c0.055,0.294,0.096,0.599,0.123,0.913
			s0.041,0.643,0.041,0.984c0,1.496-0.205,2.812-0.615,3.947s-1.002,2.082-1.773,2.84c-0.773,0.76-1.713,1.33-2.82,1.713
			s-2.355,0.574-3.742,0.574c-0.336,0-0.676-0.009-1.021-0.025c-0.345-0.018-0.699-0.05-1.061-0.098L428.42,161.681z
			 M434.635,156.41c0.096,0.328,0.143,0.653,0.143,0.974c0,0.199-0.016,0.398-0.045,0.601c-0.031,0.201-0.074,0.405-0.129,0.61
			c-0.096,0.342-0.213,0.682-0.35,1.02c-0.137,0.339-0.283,0.682-0.439,1.031l-1.139,2.491l-1.518-0.667l1.117-2.491
			c0.191-0.431,0.344-0.786,0.457-1.066s0.195-0.533,0.25-0.759c0.049-0.198,0.072-0.41,0.072-0.636c0-0.212-0.02-0.472-0.061-0.779
			L434.635,156.41z"/>
		<path fill="#FFFFFF" d="M446.334,156.646v3.322c0,0.369-0.004,0.678-0.011,0.924s-0.021,0.471-0.041,0.676
			s-0.048,0.404-0.082,0.596s-0.079,0.403-0.134,0.635l-1.732-0.256c0.034-0.205,0.064-0.393,0.092-0.564
			c0.027-0.17,0.052-0.352,0.072-0.543s0.036-0.406,0.046-0.646c0.011-0.238,0.016-0.525,0.016-0.861v-1.723h-2.349v-1.559H446.334z
			"/>
		<path fill="#FFFFFF" d="M452.373,158.204c-0.301,0-0.571-0.003-0.811-0.01s-0.47-0.023-0.691-0.051
			c-0.223-0.027-0.446-0.07-0.672-0.129c-0.226-0.058-0.472-0.139-0.738-0.24c0.089-0.246,0.176-0.492,0.262-0.738
			c0.085-0.246,0.172-0.499,0.262-0.76c0.287,0.09,0.539,0.158,0.758,0.205c0.219,0.049,0.433,0.084,0.642,0.108
			c0.208,0.023,0.427,0.039,0.656,0.046c0.229,0.007,0.497,0.01,0.805,0.01h0.298c0.43,0,0.854,0.049,1.271,0.145
			c0.416,0.096,0.792,0.276,1.127,0.543c0.328,0.26,0.596,0.619,0.801,1.076c0.205,0.459,0.307,1.057,0.307,1.795v5.537h1.887v1.559
			h-9.71v-1.559h6.05v-5.281c0-0.423-0.031-0.78-0.092-1.071c-0.062-0.29-0.17-0.522-0.323-0.697
			c-0.154-0.174-0.364-0.299-0.631-0.374s-0.604-0.113-1.015-0.113H452.373z"/>
		<path fill="#FFFFFF" d="M468.175,165.772c-0.219-0.663-0.387-1.296-0.502-1.897c-0.117-0.602-0.175-1.192-0.175-1.774
			c0-0.676,0.085-1.334,0.257-1.974c0.17-0.639,0.447-1.283,0.83-1.933c-0.178-0.007-0.347-0.019-0.508-0.036
			c-0.16-0.017-0.322-0.041-0.486-0.071c-0.164-0.031-0.332-0.072-0.503-0.123c-0.171-0.052-0.355-0.114-0.554-0.189
			c0.089-0.246,0.176-0.492,0.262-0.738c0.085-0.246,0.172-0.499,0.262-0.76c0.287,0.09,0.539,0.158,0.758,0.205
			c0.219,0.049,0.433,0.084,0.642,0.108c0.208,0.023,0.427,0.039,0.656,0.046c0.229,0.007,0.497,0.01,0.805,0.01h2.666
			c0.431,0,0.856,0.049,1.276,0.145c0.421,0.096,0.802,0.28,1.144,0.553c0.335,0.261,0.606,0.626,0.815,1.098
			c0.208,0.472,0.312,1.08,0.312,1.825v7.034h-1.773v-6.84c0-0.423-0.028-0.78-0.082-1.071c-0.056-0.29-0.158-0.522-0.309-0.697
			c-0.15-0.174-0.355-0.299-0.615-0.374s-0.594-0.113-1.004-0.113h-2.01c-0.384,0.527-0.651,1.111-0.806,1.754
			c-0.153,0.643-0.23,1.306-0.23,1.989c0,0.554,0.043,1.099,0.128,1.636c0.086,0.536,0.196,1.048,0.334,1.533l0.338,1.097
			c-0.014,0.178-0.027,0.354-0.041,0.528c-0.014,0.174-0.038,0.36-0.072,0.559h-4.061v-1.527H468.175z"/>
		<path fill="#FFFFFF" d="M482.274,156.646V167.3H480.5v-9.096h-1.794v-1.559H482.274z"/>
		<path fill="#FFFFFF" d="M485.934,161.589c0-0.335,0.006-0.645,0.016-0.929c0.011-0.283,0.036-0.559,0.077-0.825
			s0.099-0.536,0.175-0.811c0.074-0.272,0.177-0.566,0.307-0.881c-0.225-0.027-0.452-0.07-0.682-0.129
			c-0.229-0.058-0.48-0.139-0.754-0.24c0.089-0.246,0.177-0.492,0.262-0.738c0.086-0.246,0.173-0.499,0.262-0.76
			c0.287,0.09,0.54,0.158,0.759,0.205c0.219,0.049,0.433,0.084,0.641,0.108c0.209,0.023,0.428,0.039,0.656,0.046
			c0.229,0.007,0.497,0.01,0.806,0.01h2.532c0.431,0,0.856,0.049,1.276,0.145c0.421,0.096,0.798,0.276,1.133,0.543
			c0.335,0.26,0.605,0.619,0.811,1.076c0.205,0.459,0.308,1.057,0.308,1.795v7.096h-1.774v-6.84c0-0.437-0.03-0.799-0.092-1.086
			s-0.171-0.519-0.328-0.692c-0.157-0.175-0.369-0.298-0.636-0.369c-0.267-0.072-0.602-0.108-1.005-0.108h-2.451
			c-0.137,0.287-0.24,0.573-0.312,0.856c-0.071,0.284-0.123,0.562-0.153,0.836c-0.031,0.273-0.048,0.542-0.052,0.805
			c-0.003,0.264-0.005,0.521-0.005,0.774v5.824h-1.774V161.589z"/>
		<path fill="#FFFFFF" d="M499.224,156.175c0.144,0.027,0.331,0.062,0.563,0.107c0.232,0.044,0.491,0.096,0.774,0.153
			c0.284,0.059,0.578,0.12,0.882,0.185c0.305,0.065,0.6,0.132,0.887,0.2s0.549,0.137,0.785,0.205
			c0.235,0.068,0.429,0.13,0.579,0.185c0.369,0.144,0.672,0.312,0.907,0.508c0.236,0.194,0.422,0.417,0.559,0.666
			c0.137,0.25,0.231,0.525,0.282,0.826c0.052,0.301,0.077,0.625,0.077,0.974v5.097c0,0.157-0.005,0.309-0.016,0.456
			c-0.01,0.146-0.025,0.299-0.046,0.456c-0.027,0.157-0.06,0.326-0.098,0.508c-0.037,0.181-0.084,0.381-0.138,0.6h-8.46v-1.549
			h7.003v-5.332c0-0.348-0.021-0.637-0.066-0.866c-0.044-0.229-0.125-0.417-0.24-0.563c-0.117-0.147-0.272-0.265-0.467-0.354
			c-0.195-0.089-0.446-0.175-0.754-0.257c-0.294-0.075-0.608-0.15-0.943-0.226s-0.653-0.146-0.953-0.215l-1.17,2.635l2.062,1.221
			l-0.831,1.354l-3.383-2.01L499.224,156.175z"/>
		<path fill="#FFFFFF" d="M508.934,161.681c-0.055-0.649-0.094-1.194-0.118-1.636c-0.023-0.44-0.055-0.828-0.092-1.163
			c-0.038-0.335-0.093-0.642-0.164-0.918c-0.072-0.277-0.177-0.572-0.313-0.887c0.239-0.137,0.491-0.26,0.754-0.369
			c0.264-0.109,0.524-0.212,0.785-0.309c0.129,0.246,0.237,0.484,0.322,0.713c0.086,0.229,0.155,0.477,0.211,0.744
			c0.054,0.266,0.099,0.57,0.133,0.912s0.068,0.748,0.103,1.221l0.431,5.731c0.246,0.021,0.482,0.03,0.707,0.03
			c1.162,0,2.178-0.177,3.046-0.533c0.868-0.354,1.589-0.854,2.163-1.496s1.004-1.407,1.287-2.292
			c0.284-0.886,0.426-1.857,0.426-2.917c0-0.294-0.01-0.585-0.031-0.872c-0.02-0.287-0.048-0.577-0.082-0.872
			c0.287-0.074,0.571-0.142,0.852-0.199c0.28-0.059,0.577-0.111,0.893-0.159c0.054,0.294,0.095,0.599,0.123,0.913
			c0.026,0.314,0.041,0.643,0.041,0.984c0,1.496-0.205,2.812-0.615,3.947s-1.002,2.082-1.774,2.84
			c-0.772,0.76-1.712,1.33-2.819,1.713s-2.355,0.574-3.743,0.574c-0.335,0-0.675-0.009-1.021-0.025
			c-0.345-0.018-0.699-0.05-1.061-0.098L508.934,161.681z M515.147,156.41c0.096,0.328,0.144,0.653,0.144,0.974
			c0,0.199-0.016,0.398-0.046,0.601c-0.031,0.201-0.074,0.405-0.128,0.61c-0.097,0.342-0.213,0.682-0.35,1.02
			c-0.137,0.339-0.283,0.682-0.44,1.031l-1.138,2.491l-1.518-0.667l1.117-2.491c0.191-0.431,0.344-0.786,0.456-1.066
			c0.113-0.28,0.196-0.533,0.251-0.759c0.048-0.198,0.072-0.41,0.072-0.636c0-0.212-0.021-0.472-0.062-0.779L515.147,156.41z"/>
		<path fill="#FFFFFF" d="M522.643,167.392c0.109-0.676,0.207-1.266,0.293-1.769c0.085-0.502,0.162-0.948,0.23-1.338
			s0.128-0.74,0.18-1.051c0.051-0.312,0.103-0.615,0.153-0.913c0.052-0.297,0.101-0.603,0.149-0.918
			c0.047-0.313,0.102-0.669,0.164-1.066c0.033-0.341,0.039-0.63,0.015-0.866c-0.023-0.235-0.082-0.465-0.174-0.687
			c-0.093-0.223-0.221-0.458-0.385-0.708c-0.164-0.249-0.366-0.562-0.604-0.938c0.136-0.082,0.259-0.156,0.369-0.225
			c0.108-0.068,0.222-0.137,0.338-0.205s0.241-0.143,0.374-0.221c0.134-0.079,0.296-0.173,0.487-0.282
			c0.157,0.219,0.292,0.41,0.405,0.574c0.112,0.164,0.213,0.316,0.302,0.456c0.089,0.141,0.168,0.279,0.236,0.416
			s0.137,0.28,0.205,0.43c0.287-0.266,0.562-0.504,0.825-0.712c0.264-0.209,0.531-0.383,0.806-0.523
			c0.272-0.14,0.563-0.247,0.871-0.323c0.308-0.074,0.646-0.112,1.016-0.112c0.902,0,1.653,0.234,2.256,0.702
			c0.601,0.469,1.001,1.188,1.199,2.158c0.055,0.274,0.094,0.614,0.118,1.021c0.023,0.407,0.041,0.827,0.051,1.262
			c0.011,0.434,0.014,0.857,0.011,1.271c-0.004,0.413-0.006,0.768-0.006,1.062c-0.007,0.471-0.017,0.922-0.03,1.354
			c-0.014,0.43-0.03,0.789-0.052,1.076c-0.014,0.15-0.027,0.308-0.041,0.472s-0.034,0.335-0.061,0.513h-5.056v-1.559h3.435
			c0.007-0.116,0.016-0.242,0.026-0.379c0.01-0.137,0.017-0.32,0.021-0.549c0.003-0.229,0.007-0.526,0.01-0.893
			c0.004-0.365,0.006-0.836,0.006-1.41c0-0.259-0.004-0.524-0.011-0.794c-0.007-0.271-0.018-0.53-0.03-0.779
			c-0.015-0.25-0.033-0.483-0.057-0.702c-0.024-0.219-0.054-0.407-0.088-0.564c-0.061-0.253-0.14-0.483-0.235-0.692
			c-0.096-0.208-0.219-0.384-0.369-0.528c-0.15-0.143-0.328-0.254-0.533-0.333c-0.205-0.078-0.448-0.118-0.728-0.118
			c-0.302,0-0.59,0.049-0.867,0.145c-0.276,0.096-0.542,0.224-0.795,0.384c-0.253,0.161-0.495,0.348-0.728,0.56
			s-0.455,0.43-0.667,0.656c-0.123,0.758-0.23,1.429-0.322,2.01c-0.093,0.581-0.177,1.102-0.252,1.563
			c-0.075,0.461-0.142,0.871-0.199,1.23c-0.059,0.358-0.115,0.695-0.17,1.01s-0.105,0.619-0.153,0.913s-0.1,0.602-0.153,0.922
			H522.643z"/>
		<path fill="#FFFFFF" d="M538.168,158.204c-0.301,0-0.57-0.003-0.81-0.01s-0.47-0.023-0.692-0.051
			c-0.222-0.027-0.445-0.07-0.672-0.129c-0.225-0.058-0.471-0.139-0.738-0.24c0.089-0.246,0.177-0.492,0.262-0.738
			c0.086-0.246,0.173-0.499,0.262-0.76c0.287,0.09,0.54,0.158,0.759,0.205c0.219,0.049,0.433,0.084,0.641,0.108
			c0.209,0.023,0.428,0.039,0.656,0.046c0.229,0.007,0.497,0.01,0.806,0.01h1.999c0.431,0,0.854,0.049,1.271,0.145
			s0.793,0.28,1.128,0.553c0.328,0.261,0.595,0.626,0.8,1.098s0.308,1.08,0.308,1.825v7.034h-1.773v-6.84
			c0-0.43-0.029-0.789-0.088-1.076c-0.058-0.287-0.164-0.518-0.317-0.692c-0.154-0.174-0.366-0.299-0.636-0.374
			c-0.271-0.075-0.614-0.113-1.031-0.113H538.168z M535.42,164.08c0-0.308,0.002-0.577,0.006-0.81
			c0.003-0.232,0.016-0.455,0.035-0.667c0.021-0.212,0.048-0.426,0.082-0.641c0.034-0.216,0.082-0.453,0.145-0.713
			c0.287,0.041,0.575,0.084,0.866,0.128c0.29,0.045,0.579,0.088,0.866,0.129c-0.041,0.246-0.077,0.466-0.107,0.661
			c-0.031,0.194-0.055,0.39-0.072,0.584c-0.017,0.195-0.029,0.4-0.035,0.615c-0.008,0.216-0.011,0.467-0.011,0.754v3.179h-1.774
			V164.08z"/>
		<path fill="#FFFFFF" d="M554.328,153.733v2.912h5.917c0.062,0.227,0.109,0.414,0.144,0.564s0.062,0.284,0.082,0.4
			c0.014,0.123,0.022,0.237,0.025,0.343c0.004,0.106,0.006,0.221,0.006,0.344v2.215c0,0.807-0.163,1.569-0.487,2.286
			c-0.325,0.719-0.809,1.436-1.451,2.154l-2.513,2.758l-1.25-1.117l2.348-2.625c0.226-0.26,0.436-0.514,0.631-0.76
			c0.194-0.246,0.362-0.502,0.502-0.769c0.141-0.267,0.25-0.552,0.328-0.856c0.079-0.304,0.118-0.641,0.118-1.01v-2.369h-6.173
			v-4.471H554.328z"/>
		<path fill="#FFFFFF" d="M563.648,161.681c-0.055-0.649-0.094-1.194-0.118-1.636c-0.023-0.44-0.055-0.828-0.092-1.163
			c-0.038-0.335-0.093-0.642-0.164-0.918c-0.072-0.277-0.177-0.572-0.313-0.887c0.239-0.137,0.491-0.26,0.754-0.369
			c0.264-0.109,0.524-0.212,0.785-0.309c0.129,0.246,0.237,0.484,0.322,0.713c0.086,0.229,0.155,0.477,0.211,0.744
			c0.054,0.266,0.099,0.57,0.133,0.912s0.068,0.748,0.103,1.221l0.431,5.731c0.246,0.021,0.482,0.03,0.707,0.03
			c1.162,0,2.178-0.177,3.046-0.533c0.868-0.354,1.589-0.854,2.163-1.496s1.004-1.407,1.287-2.292
			c0.284-0.886,0.426-1.857,0.426-2.917c0-0.294-0.01-0.585-0.031-0.872c-0.02-0.287-0.048-0.577-0.082-0.872
			c0.287-0.074,0.571-0.142,0.852-0.199c0.28-0.059,0.577-0.111,0.893-0.159c0.054,0.294,0.095,0.599,0.123,0.913
			c0.026,0.314,0.041,0.643,0.041,0.984c0,1.496-0.205,2.812-0.615,3.947s-1.002,2.082-1.774,2.84
			c-0.772,0.76-1.712,1.33-2.819,1.713s-2.355,0.574-3.743,0.574c-0.335,0-0.675-0.009-1.021-0.025
			c-0.345-0.018-0.699-0.05-1.061-0.098L563.648,161.681z M569.862,156.41c0.096,0.328,0.144,0.653,0.144,0.974
			c0,0.199-0.016,0.398-0.046,0.601c-0.031,0.201-0.074,0.405-0.128,0.61c-0.097,0.342-0.213,0.682-0.35,1.02
			c-0.137,0.339-0.283,0.682-0.44,1.031l-1.138,2.491l-1.518-0.667l1.117-2.491c0.191-0.431,0.344-0.786,0.456-1.066
			c0.113-0.28,0.196-0.533,0.251-0.759c0.048-0.198,0.072-0.41,0.072-0.636c0-0.212-0.021-0.472-0.062-0.779L569.862,156.41z"/>
		<path fill="#FFFFFF" d="M586.279,158.204c-0.302,0-0.571-0.003-0.811-0.01s-0.47-0.023-0.692-0.051
			c-0.222-0.027-0.446-0.07-0.671-0.129c-0.227-0.058-0.473-0.139-0.738-0.24c0.088-0.246,0.176-0.492,0.261-0.738
			c0.086-0.246,0.173-0.499,0.262-0.76c0.287,0.09,0.54,0.158,0.759,0.205c0.219,0.049,0.433,0.084,0.641,0.108
			c0.209,0.023,0.428,0.039,0.656,0.046c0.229,0.007,0.498,0.01,0.805,0.01h0.965c0.43,0,0.855,0.049,1.276,0.145
			c0.42,0.096,0.798,0.276,1.133,0.543c0.328,0.267,0.597,0.636,0.805,1.107c0.209,0.472,0.313,1.08,0.313,1.825v7.034h-1.774v-6.84
			c0-0.423-0.03-0.78-0.093-1.071c-0.061-0.29-0.171-0.522-0.328-0.697c-0.157-0.174-0.369-0.299-0.635-0.374
			c-0.268-0.075-0.605-0.113-1.016-0.113H586.279z"/>
		<path fill="#FFFFFF" d="M595.467,165.772c-0.219-0.663-0.387-1.296-0.502-1.897c-0.117-0.602-0.175-1.192-0.175-1.774
			c0-0.676,0.085-1.334,0.257-1.974c0.17-0.639,0.447-1.283,0.83-1.933c-0.178-0.007-0.347-0.019-0.508-0.036
			c-0.16-0.017-0.322-0.041-0.486-0.071c-0.164-0.031-0.332-0.072-0.503-0.123c-0.171-0.052-0.355-0.114-0.554-0.189
			c0.089-0.246,0.176-0.492,0.262-0.738c0.085-0.246,0.172-0.499,0.262-0.76c0.287,0.09,0.539,0.158,0.758,0.205
			c0.219,0.049,0.433,0.084,0.642,0.108c0.208,0.023,0.427,0.039,0.656,0.046c0.229,0.007,0.497,0.01,0.805,0.01h2.666
			c0.431,0,0.856,0.049,1.276,0.145c0.421,0.096,0.802,0.28,1.144,0.553c0.335,0.261,0.606,0.626,0.815,1.098
			c0.208,0.472,0.312,1.08,0.312,1.825v7.034h-1.773v-6.84c0-0.423-0.028-0.78-0.082-1.071c-0.056-0.29-0.158-0.522-0.309-0.697
			c-0.15-0.174-0.355-0.299-0.615-0.374s-0.594-0.113-1.004-0.113h-2.01c-0.384,0.527-0.651,1.111-0.806,1.754
			c-0.153,0.643-0.23,1.306-0.23,1.989c0,0.554,0.043,1.099,0.128,1.636c0.086,0.536,0.196,1.048,0.334,1.533l0.338,1.097
			c-0.014,0.178-0.027,0.354-0.041,0.528c-0.014,0.174-0.038,0.36-0.072,0.559h-4.061v-1.527H595.467z"/>
		<path fill="#FFFFFF" d="M609.566,156.646V167.3h-1.774v-9.096h-1.794v-1.559H609.566z"/>
		<path fill="#FFFFFF" d="M616.652,156.646v3.322c0,0.369-0.004,0.678-0.011,0.924s-0.021,0.471-0.041,0.676
			s-0.048,0.404-0.082,0.596s-0.079,0.403-0.134,0.635l-1.732-0.256c0.034-0.205,0.064-0.393,0.092-0.564
			c0.027-0.17,0.052-0.352,0.072-0.543s0.036-0.406,0.046-0.646c0.011-0.238,0.016-0.525,0.016-0.861v-1.723h-2.349v-1.559H616.652z
			"/>
		<path fill="#FFFFFF" d="M622.691,158.204c-0.301,0-0.571-0.003-0.811-0.01s-0.47-0.023-0.691-0.051
			c-0.223-0.027-0.446-0.07-0.672-0.129c-0.226-0.058-0.472-0.139-0.738-0.24c0.089-0.246,0.176-0.492,0.262-0.738
			c0.085-0.246,0.172-0.499,0.262-0.76c0.287,0.09,0.539,0.158,0.758,0.205c0.219,0.049,0.433,0.084,0.642,0.108
			c0.208,0.023,0.427,0.039,0.656,0.046c0.229,0.007,0.497,0.01,0.805,0.01h0.298c0.43,0,0.854,0.049,1.271,0.145
			c0.416,0.096,0.792,0.276,1.127,0.543c0.328,0.26,0.596,0.619,0.801,1.076c0.205,0.459,0.307,1.057,0.307,1.795v5.537h1.887v1.559
			h-9.71v-1.559h6.05v-5.281c0-0.423-0.031-0.78-0.092-1.071c-0.062-0.29-0.17-0.522-0.323-0.697
			c-0.154-0.174-0.364-0.299-0.631-0.374s-0.604-0.113-1.015-0.113H622.691z"/>
		<path fill="#FFFFFF" d="M639.938,158.204c-0.301,0-0.57-0.003-0.81-0.01s-0.47-0.023-0.692-0.051
			c-0.222-0.027-0.445-0.07-0.672-0.129c-0.225-0.058-0.471-0.139-0.738-0.24c0.089-0.246,0.177-0.492,0.262-0.738
			c0.086-0.246,0.173-0.499,0.262-0.76c0.287,0.09,0.54,0.158,0.759,0.205c0.219,0.049,0.433,0.084,0.641,0.108
			c0.209,0.023,0.428,0.039,0.656,0.046c0.229,0.007,0.497,0.01,0.806,0.01h1.999c0.431,0,0.854,0.049,1.271,0.145
			s0.793,0.28,1.128,0.553c0.328,0.261,0.595,0.626,0.8,1.098s0.308,1.08,0.308,1.825v7.034h-1.773v-6.84
			c0-0.43-0.029-0.789-0.088-1.076c-0.058-0.287-0.164-0.518-0.317-0.692c-0.154-0.174-0.366-0.299-0.636-0.374
			c-0.271-0.075-0.614-0.113-1.031-0.113H639.938z M637.189,164.08c0-0.308,0.002-0.577,0.006-0.81
			c0.003-0.232,0.016-0.455,0.035-0.667c0.021-0.212,0.048-0.426,0.082-0.641c0.034-0.216,0.082-0.453,0.145-0.713
			c0.287,0.041,0.575,0.084,0.866,0.128c0.29,0.045,0.579,0.088,0.866,0.129c-0.041,0.246-0.077,0.466-0.107,0.661
			c-0.031,0.194-0.055,0.39-0.072,0.584c-0.017,0.195-0.029,0.4-0.035,0.615c-0.008,0.216-0.011,0.467-0.011,0.754v3.179h-1.774
			V164.08z"/>
		<path fill="#FFFFFF" d="M650.15,153.733v2.912h5.917c0.062,0.227,0.109,0.414,0.144,0.564s0.062,0.284,0.082,0.4
			c0.014,0.123,0.022,0.237,0.025,0.343c0.004,0.106,0.006,0.221,0.006,0.344v2.215c0,0.807-0.163,1.569-0.487,2.286
			c-0.325,0.719-0.809,1.436-1.451,2.154l-2.513,2.758l-1.25-1.117l2.348-2.625c0.226-0.26,0.436-0.514,0.631-0.76
			c0.194-0.246,0.362-0.502,0.502-0.769c0.141-0.267,0.25-0.552,0.328-0.856c0.079-0.304,0.118-0.641,0.118-1.01v-2.369h-6.173
			v-4.471H650.15z"/>
		<path fill="#FFFFFF" d="M662.333,156.646V167.3h-1.774v-9.096h-1.794v-1.559H662.333z"/>
		<path fill="#FFFFFF" d="M668.043,158.204c-0.301,0-0.57-0.003-0.81-0.01s-0.47-0.023-0.692-0.051
			c-0.222-0.027-0.445-0.07-0.672-0.129c-0.225-0.058-0.471-0.139-0.738-0.24c0.089-0.246,0.177-0.492,0.262-0.738
			c0.086-0.246,0.173-0.499,0.262-0.76c0.287,0.09,0.54,0.158,0.759,0.205c0.219,0.049,0.433,0.084,0.641,0.108
			c0.209,0.023,0.428,0.039,0.656,0.046c0.229,0.007,0.497,0.01,0.806,0.01h5.865v1.559h-2.072v9.096h-1.773v-9.096H668.043z"/>
		<path fill="#FFFFFF" d="M681.6,156.646v5.507c0,0.328,0.048,0.641,0.144,0.938c0.096,0.297,0.201,0.6,0.318,0.907
			c0.197,0.533,0.384,1.071,0.559,1.615c0.174,0.543,0.329,1.105,0.467,1.687h-1.651c-0.089-0.355-0.193-0.729-0.312-1.123
			c-0.12-0.393-0.248-0.764-0.385-1.112l-0.257-0.656c-0.219,0.253-0.401,0.467-0.548,0.641c-0.147,0.175-0.279,0.325-0.396,0.451
			c-0.116,0.127-0.224,0.243-0.322,0.349c-0.1,0.106-0.207,0.218-0.323,0.334c-0.362,0.369-0.756,0.673-1.179,0.912
			c-0.425,0.239-0.913,0.4-1.467,0.482c-0.068-0.261-0.132-0.521-0.189-0.785c-0.059-0.263-0.111-0.524-0.159-0.784
			c0.232-0.062,0.444-0.123,0.636-0.185s0.372-0.139,0.543-0.23c0.171-0.093,0.334-0.202,0.487-0.328
			c0.154-0.127,0.313-0.282,0.478-0.467l1.846-2.02v-4.574h-2.338v-1.559H681.6z"/>
		<path fill="#FFFFFF" d="M688.203,158.204c-0.301,0-0.57-0.003-0.81-0.01s-0.47-0.023-0.692-0.051
			c-0.222-0.027-0.445-0.07-0.672-0.129c-0.225-0.058-0.471-0.139-0.738-0.24c0.089-0.246,0.177-0.492,0.262-0.738
			c0.086-0.246,0.173-0.499,0.262-0.76c0.287,0.09,0.54,0.158,0.759,0.205c0.219,0.049,0.433,0.084,0.641,0.108
			c0.209,0.023,0.428,0.039,0.656,0.046c0.229,0.007,0.497,0.01,0.806,0.01h1.999c0.431,0,0.854,0.049,1.271,0.145
			s0.793,0.28,1.128,0.553c0.328,0.261,0.595,0.626,0.8,1.098s0.308,1.08,0.308,1.825v7.034h-1.773v-6.84
			c0-0.43-0.029-0.789-0.088-1.076c-0.058-0.287-0.164-0.518-0.317-0.692c-0.154-0.174-0.366-0.299-0.636-0.374
			c-0.271-0.075-0.614-0.113-1.031-0.113H688.203z M685.455,164.08c0-0.308,0.002-0.577,0.006-0.81
			c0.003-0.232,0.016-0.455,0.035-0.667c0.021-0.212,0.048-0.426,0.082-0.641c0.034-0.216,0.082-0.453,0.145-0.713
			c0.287,0.041,0.575,0.084,0.866,0.128c0.29,0.045,0.579,0.088,0.866,0.129c-0.041,0.246-0.077,0.466-0.107,0.661
			c-0.031,0.194-0.055,0.39-0.072,0.584c-0.017,0.195-0.029,0.4-0.035,0.615c-0.008,0.216-0.011,0.467-0.011,0.754v3.179h-1.774
			V164.08z"/>
		<path fill="#FFFFFF" d="M705.717,158.204c-0.301,0-0.57-0.003-0.81-0.01s-0.47-0.023-0.692-0.051
			c-0.222-0.027-0.445-0.07-0.672-0.129c-0.225-0.058-0.471-0.139-0.738-0.24c0.089-0.246,0.177-0.492,0.262-0.738
			c0.086-0.246,0.173-0.499,0.262-0.76c0.287,0.09,0.54,0.158,0.759,0.205c0.219,0.049,0.433,0.084,0.641,0.108
			c0.209,0.023,0.428,0.039,0.656,0.046c0.229,0.007,0.497,0.01,0.806,0.01h1.999c0.431,0,0.854,0.049,1.271,0.145
			s0.793,0.28,1.128,0.553c0.328,0.261,0.595,0.626,0.8,1.098s0.308,1.08,0.308,1.825v7.034h-1.773v-6.84
			c0-0.43-0.029-0.789-0.088-1.076c-0.058-0.287-0.164-0.518-0.317-0.692c-0.154-0.174-0.366-0.299-0.636-0.374
			c-0.271-0.075-0.614-0.113-1.031-0.113H705.717z M702.969,164.08c0-0.308,0.002-0.577,0.006-0.81
			c0.003-0.232,0.016-0.455,0.035-0.667c0.021-0.212,0.048-0.426,0.082-0.641c0.034-0.216,0.082-0.453,0.145-0.713
			c0.287,0.041,0.575,0.084,0.866,0.128c0.29,0.045,0.579,0.088,0.866,0.129c-0.041,0.246-0.077,0.466-0.107,0.661
			c-0.031,0.194-0.055,0.39-0.072,0.584c-0.017,0.195-0.029,0.4-0.035,0.615c-0.008,0.216-0.011,0.467-0.011,0.754v3.179h-1.774
			V164.08z"/>
		<path fill="#FFFFFF" d="M714.125,167.392c0-0.19,0.002-0.41,0.006-0.656c0.003-0.246,0.007-0.511,0.01-0.794
			c0.004-0.284,0.009-0.576,0.016-0.877s0.014-0.602,0.021-0.902c0.014-0.513,0.052-0.969,0.112-1.369
			c0.062-0.399,0.15-0.764,0.268-1.092c0.115-0.328,0.261-0.632,0.436-0.913c0.174-0.279,0.381-0.557,0.62-0.83
			c-0.239-0.342-0.442-0.652-0.61-0.934c-0.167-0.279-0.303-0.536-0.404-0.769c-0.11-0.239-0.202-0.481-0.277-0.728
			s-0.141-0.476-0.195-0.688c0.246-0.109,0.514-0.21,0.801-0.303c0.287-0.092,0.574-0.172,0.861-0.24
			c0.026,0.082,0.053,0.162,0.076,0.24c0.024,0.079,0.05,0.159,0.077,0.241c0.068,0.219,0.146,0.438,0.23,0.656
			c0.086,0.219,0.196,0.458,0.333,0.718s0.31,0.547,0.519,0.861c0.208,0.314,0.47,0.67,0.784,1.066
			c0.109,0.144,0.217,0.275,0.323,0.395c0.105,0.12,0.23,0.262,0.374,0.426s0.321,0.367,0.533,0.61
			c0.212,0.242,0.485,0.556,0.82,0.938l0.041,0.051c0.246-0.178,0.447-0.365,0.605-0.564c0.156-0.197,0.292-0.411,0.404-0.641
			c0.113-0.229,0.212-0.475,0.298-0.738c0.085-0.263,0.172-0.545,0.261-0.846c0.075-0.267,0.149-0.535,0.221-0.805
			c0.072-0.271,0.142-0.539,0.211-0.805l-1.498-0.287l0.277-1.436l2.871,0.502l0.051,1.322c-0.068,0.328-0.157,0.688-0.266,1.077
			c-0.11,0.39-0.213,0.752-0.309,1.087c-0.123,0.431-0.244,0.804-0.363,1.117c-0.12,0.315-0.255,0.599-0.405,0.852
			s-0.33,0.489-0.538,0.707c-0.209,0.22-0.467,0.445-0.774,0.678l2.45,2.881l-1.25,1.107l-5.477-6.326
			c-0.212,0.26-0.367,0.561-0.466,0.902c-0.1,0.342-0.169,0.702-0.21,1.081c-0.041,0.38-0.062,0.772-0.062,1.18
			c0,0.406-0.003,0.809-0.01,1.204c-0.007,0.22-0.01,0.457-0.01,0.713c0,0.257-0.004,0.566-0.011,0.928H714.125z"/>
		<path fill="#FFFFFF" d="M728.132,161.384c-0.438-0.506-0.809-0.977-1.112-1.41c-0.305-0.435-0.549-0.843-0.733-1.226
			c-0.191-0.39-0.337-0.734-0.436-1.036c-0.1-0.3-0.187-0.591-0.262-0.871c0.253-0.103,0.521-0.2,0.805-0.292
			c0.284-0.093,0.569-0.176,0.856-0.251c0.027,0.082,0.053,0.162,0.077,0.24c0.023,0.079,0.049,0.159,0.076,0.241
			c0.068,0.219,0.145,0.439,0.227,0.661c0.082,0.223,0.19,0.464,0.328,0.723c0.136,0.261,0.309,0.548,0.518,0.861
			c0.208,0.315,0.473,0.667,0.795,1.057c0.102,0.13,0.199,0.25,0.292,0.359c0.092,0.109,0.198,0.232,0.317,0.369
			c0.12,0.137,0.264,0.299,0.431,0.486c0.168,0.188,0.378,0.426,0.631,0.713c0.212-0.13,0.395-0.27,0.549-0.42
			c0.153-0.15,0.294-0.316,0.42-0.498c0.127-0.181,0.241-0.385,0.344-0.609c0.103-0.227,0.208-0.479,0.317-0.76
			c0.104-0.272,0.193-0.536,0.272-0.789c0.078-0.253,0.155-0.509,0.23-0.77l-1.456-0.44l0.4-1.405l2.799,0.79l-0.072,1.312
			c-0.096,0.335-0.208,0.692-0.338,1.071c-0.13,0.38-0.256,0.723-0.379,1.031c-0.138,0.328-0.274,0.622-0.41,0.881
			c-0.138,0.261-0.287,0.494-0.451,0.703c-0.164,0.208-0.348,0.399-0.549,0.574c-0.202,0.174-0.43,0.337-0.682,0.486l2.316,2.718
			c-0.014,0.178-0.037,0.378-0.071,0.6c-0.034,0.223-0.093,0.494-0.175,0.815h-8.11v-1.559h6.009L728.132,161.384z"/>
		<path fill="#FFFFFF" d="M741.012,156.646V167.3h-1.774v-9.096h-1.794v-1.559H741.012z"/>
		<path fill="#FFFFFF" d="M747.173,158.204c-0.301,0-0.57-0.003-0.81-0.01s-0.47-0.023-0.692-0.051
			c-0.222-0.027-0.445-0.07-0.672-0.129c-0.225-0.058-0.471-0.139-0.738-0.24c0.089-0.246,0.177-0.492,0.262-0.738
			c0.086-0.246,0.173-0.499,0.262-0.76c0.287,0.09,0.54,0.158,0.759,0.205c0.219,0.049,0.433,0.084,0.641,0.108
			c0.209,0.023,0.428,0.039,0.656,0.046c0.229,0.007,0.497,0.01,0.806,0.01h1.999c0.431,0,0.854,0.049,1.271,0.145
			s0.793,0.28,1.128,0.553c0.328,0.261,0.595,0.626,0.8,1.098s0.308,1.08,0.308,1.825v7.034h-1.773v-6.84
			c0-0.43-0.029-0.789-0.088-1.076c-0.058-0.287-0.164-0.518-0.317-0.692c-0.154-0.174-0.366-0.299-0.636-0.374
			c-0.271-0.075-0.614-0.113-1.031-0.113H747.173z M744.425,164.08c0-0.308,0.002-0.577,0.006-0.81
			c0.003-0.232,0.016-0.455,0.035-0.667c0.021-0.212,0.048-0.426,0.082-0.641c0.034-0.216,0.082-0.453,0.145-0.713
			c0.287,0.041,0.575,0.084,0.866,0.128c0.29,0.045,0.579,0.088,0.866,0.129c-0.041,0.246-0.077,0.466-0.107,0.661
			c-0.031,0.194-0.055,0.39-0.072,0.584c-0.017,0.195-0.029,0.4-0.035,0.615c-0.008,0.216-0.011,0.467-0.011,0.754v3.179h-1.774
			V164.08z"/>
		<path fill="#FFFFFF" d="M758.739,158.204c-0.301,0-0.57-0.003-0.81-0.01s-0.47-0.023-0.692-0.051
			c-0.222-0.027-0.445-0.07-0.672-0.129c-0.225-0.058-0.471-0.139-0.738-0.24c0.089-0.246,0.177-0.492,0.262-0.738
			c0.086-0.246,0.173-0.499,0.262-0.76c0.287,0.09,0.54,0.158,0.759,0.205c0.219,0.049,0.433,0.084,0.641,0.108
			c0.209,0.023,0.428,0.039,0.656,0.046c0.229,0.007,0.497,0.01,0.806,0.01h1.999c0.431,0,0.854,0.049,1.271,0.145
			s0.793,0.28,1.128,0.553c0.328,0.261,0.595,0.626,0.8,1.098s0.308,1.08,0.308,1.825v7.034h-1.773v-6.84
			c0-0.43-0.029-0.789-0.088-1.076c-0.058-0.287-0.164-0.518-0.317-0.692c-0.154-0.174-0.366-0.299-0.636-0.374
			c-0.271-0.075-0.614-0.113-1.031-0.113H758.739z M755.991,164.08c0-0.308,0.002-0.577,0.006-0.81
			c0.003-0.232,0.016-0.455,0.035-0.667c0.021-0.212,0.048-0.426,0.082-0.641c0.034-0.216,0.082-0.453,0.145-0.713
			c0.287,0.041,0.575,0.084,0.866,0.128c0.29,0.045,0.579,0.088,0.866,0.129c-0.041,0.246-0.077,0.466-0.107,0.661
			c-0.031,0.194-0.055,0.39-0.072,0.584c-0.017,0.195-0.029,0.4-0.035,0.615c-0.008,0.216-0.011,0.467-0.011,0.754v3.179h-1.774
			V164.08z"/>
		<path fill="#FFFFFF" d="M776.808,156.646V167.3h-1.774v-9.096h-1.794v-1.559H776.808z"/>
		<path fill="#FFFFFF" d="M781.861,158.204c-0.205-0.006-0.399-0.017-0.584-0.03s-0.367-0.036-0.549-0.066
			c-0.181-0.031-0.365-0.073-0.554-0.128c-0.188-0.055-0.392-0.123-0.61-0.205c0.089-0.246,0.177-0.492,0.262-0.738
			c0.086-0.246,0.173-0.499,0.262-0.76c0.287,0.09,0.54,0.158,0.759,0.205c0.219,0.049,0.433,0.084,0.641,0.108
			c0.209,0.023,0.428,0.039,0.656,0.046c0.229,0.007,0.497,0.01,0.806,0.01h3.363v1.559h-2.666l1.445,9.096h-1.814L781.861,158.204z
			"/>
		<path fill="#FFFFFF" d="M157.738,190.203c0.171,0,0.333,0.031,0.487,0.092c0.154,0.062,0.289,0.151,0.405,0.268
			c0.239,0.239,0.359,0.536,0.359,0.892c0,0.349-0.12,0.643-0.359,0.882c-0.116,0.116-0.251,0.207-0.405,0.271
			c-0.153,0.065-0.316,0.098-0.487,0.098s-0.332-0.032-0.482-0.098c-0.15-0.064-0.284-0.155-0.4-0.271s-0.207-0.249-0.272-0.4
			c-0.065-0.149-0.097-0.311-0.097-0.481s0.032-0.333,0.097-0.487c0.065-0.153,0.156-0.288,0.272-0.404
			C157.095,190.323,157.389,190.203,157.738,190.203z"/>
		<path fill="#FFFFFF" d="M165.397,183.404c-0.301,0-0.571-0.003-0.81-0.01s-0.47-0.023-0.692-0.051s-0.446-0.07-0.671-0.129
			c-0.226-0.058-0.472-0.139-0.738-0.24c0.089-0.246,0.176-0.492,0.261-0.738s0.173-0.499,0.262-0.76
			c0.287,0.09,0.54,0.158,0.759,0.205c0.219,0.049,0.432,0.084,0.641,0.108c0.208,0.023,0.427,0.039,0.656,0.046
			s0.498,0.01,0.805,0.01h2c0.431,0,0.854,0.049,1.271,0.145s0.793,0.28,1.128,0.553c0.328,0.261,0.595,0.626,0.8,1.098
			s0.308,1.08,0.308,1.825v7.034h-1.774v-6.84c0-0.43-0.029-0.789-0.087-1.076s-0.164-0.518-0.317-0.692
			c-0.154-0.174-0.366-0.299-0.636-0.374c-0.271-0.075-0.614-0.113-1.031-0.113H165.397z M162.649,189.28
			c0-0.308,0.001-0.577,0.005-0.81c0.003-0.232,0.015-0.455,0.036-0.667s0.048-0.426,0.082-0.641
			c0.034-0.216,0.082-0.453,0.144-0.713c0.287,0.041,0.576,0.084,0.867,0.128c0.29,0.045,0.579,0.088,0.866,0.129
			c-0.041,0.246-0.077,0.466-0.107,0.661c-0.031,0.194-0.055,0.39-0.072,0.584c-0.017,0.195-0.029,0.4-0.036,0.615
			c-0.007,0.216-0.01,0.467-0.01,0.754v3.179h-1.774V189.28z"/>
		<path fill="#FFFFFF" d="M175.61,178.934v2.912h5.917c0.062,0.227,0.109,0.414,0.144,0.564s0.062,0.284,0.082,0.4
			c0.014,0.123,0.022,0.237,0.025,0.343c0.003,0.106,0.005,0.221,0.005,0.344v2.215c0,0.807-0.163,1.569-0.487,2.286
			c-0.325,0.719-0.809,1.436-1.451,2.154l-2.512,2.758l-1.251-1.117l2.348-2.625c0.226-0.26,0.436-0.514,0.631-0.76
			c0.194-0.246,0.362-0.502,0.502-0.769s0.25-0.552,0.328-0.856c0.079-0.304,0.118-0.641,0.118-1.01v-2.369h-6.173v-4.471H175.61z"
			/>
		<path fill="#FFFFFF" d="M187.792,181.846V192.5h-1.774v-9.096h-1.794v-1.559H187.792z"/>
		<path fill="#FFFFFF" d="M196.815,183.098c0.068-0.26,0.139-0.515,0.21-0.765c0.072-0.249,0.146-0.504,0.221-0.764l3.025,0.8
			c0.021,0.239,0.038,0.479,0.051,0.718s0.021,0.479,0.021,0.718c-0.068,0.574-0.169,1.137-0.303,1.687
			c-0.133,0.551-0.306,1.086-0.518,1.604c-0.212,0.521-0.47,1.021-0.774,1.503c-0.304,0.481-0.661,0.938-1.071,1.368
			c-0.431,0.451-0.916,0.86-1.456,1.226c-0.54,0.366-1.131,0.702-1.774,1.011c-0.465,0.219-0.952,0.42-1.461,0.604
			s-1.054,0.355-1.635,0.513l-0.502-1.579c0.533-0.157,1.082-0.331,1.646-0.522c0.564-0.191,1.137-0.421,1.718-0.688
			c-0.369-0.957-0.733-1.912-1.092-2.866c-0.359-0.953-0.723-1.908-1.092-2.866c-0.096-0.246-0.179-0.442-0.251-0.589
			c-0.071-0.147-0.166-0.278-0.282-0.396c-0.123-0.115-0.284-0.225-0.482-0.328c-0.198-0.102-0.472-0.235-0.82-0.399
			c0.123-0.246,0.25-0.492,0.379-0.738s0.263-0.492,0.4-0.738c0.376,0.15,0.697,0.287,0.964,0.41s0.496,0.26,0.687,0.41
			c0.191,0.137,0.352,0.298,0.482,0.481c0.13,0.186,0.253,0.421,0.369,0.708c0.068,0.178,0.137,0.355,0.205,0.533
			s0.144,0.376,0.226,0.595s0.174,0.47,0.277,0.754c0.103,0.283,0.224,0.62,0.364,1.01s0.301,0.841,0.482,1.354
			c0.181,0.513,0.395,1.111,0.641,1.795c0.451-0.335,0.839-0.717,1.164-1.144c0.324-0.428,0.603-0.897,0.835-1.41
			c0.226-0.513,0.41-1.062,0.554-1.646c0.144-0.585,0.253-1.215,0.328-1.893L196.815,183.098z"/>
		<path fill="#FFFFFF" d="M211.099,183.404c-0.301,0-0.571-0.003-0.81-0.01s-0.47-0.023-0.692-0.051s-0.446-0.07-0.671-0.129
			c-0.226-0.058-0.472-0.139-0.738-0.24c0.089-0.246,0.176-0.492,0.261-0.738s0.173-0.499,0.262-0.76
			c0.287,0.09,0.54,0.158,0.759,0.205c0.219,0.049,0.432,0.084,0.641,0.108c0.208,0.023,0.427,0.039,0.656,0.046
			s0.498,0.01,0.805,0.01h0.964c0.431,0,0.856,0.049,1.277,0.145c0.42,0.096,0.798,0.276,1.133,0.543
			c0.328,0.267,0.596,0.636,0.805,1.107s0.313,1.08,0.313,1.825v7.034h-1.774v-6.84c0-0.423-0.031-0.78-0.092-1.071
			c-0.062-0.29-0.171-0.522-0.328-0.697c-0.157-0.174-0.369-0.299-0.636-0.374s-0.605-0.113-1.015-0.113H211.099z"/>
		<path fill="#FFFFFF" d="M222.286,181.846V192.5h-1.774v-9.096h-1.794v-1.559H222.286z"/>
		<path fill="#FFFFFF" d="M229.372,181.846v3.322c0,0.369-0.003,0.678-0.01,0.924s-0.021,0.471-0.041,0.676
			s-0.048,0.404-0.082,0.596s-0.079,0.403-0.133,0.635l-1.733-0.256c0.034-0.205,0.065-0.393,0.092-0.564
			c0.027-0.17,0.051-0.352,0.072-0.543s0.036-0.406,0.046-0.646c0.011-0.238,0.016-0.525,0.016-0.861v-1.723h-2.348v-1.559H229.372z
			"/>
		<path fill="#FFFFFF" d="M234.765,183.404c-0.301,0-0.571-0.003-0.81-0.01s-0.47-0.023-0.692-0.051s-0.446-0.07-0.671-0.129
			c-0.226-0.058-0.472-0.139-0.738-0.24c0.089-0.246,0.176-0.492,0.261-0.738s0.173-0.499,0.262-0.76
			c0.287,0.09,0.54,0.158,0.759,0.205c0.219,0.049,0.432,0.084,0.641,0.108c0.208,0.023,0.427,0.039,0.656,0.046
			s0.498,0.01,0.805,0.01h5.865v1.559h-2.071v9.096h-1.774v-9.096H234.765z"/>
		<path fill="#FFFFFF" d="M250.977,178.934v2.912h5.917c0.062,0.227,0.109,0.414,0.144,0.564s0.062,0.284,0.082,0.4
			c0.014,0.123,0.022,0.237,0.025,0.343c0.003,0.106,0.005,0.221,0.005,0.344v2.215c0,0.807-0.163,1.569-0.487,2.286
			c-0.325,0.719-0.809,1.436-1.451,2.154l-2.512,2.758l-1.251-1.117l2.348-2.625c0.226-0.26,0.436-0.514,0.631-0.76
			c0.194-0.246,0.362-0.502,0.502-0.769s0.25-0.552,0.328-0.856c0.079-0.304,0.118-0.641,0.118-1.01v-2.369h-6.173v-4.471H250.977z"
			/>
		<path fill="#FFFFFF" d="M265.465,183.098c0.068-0.26,0.139-0.515,0.21-0.765c0.072-0.249,0.146-0.504,0.221-0.764l3.025,0.8
			c0.021,0.239,0.038,0.479,0.051,0.718s0.021,0.479,0.021,0.718c-0.068,0.574-0.169,1.137-0.303,1.687
			c-0.133,0.551-0.306,1.086-0.518,1.604c-0.212,0.521-0.47,1.021-0.774,1.503c-0.304,0.481-0.661,0.938-1.071,1.368
			c-0.431,0.451-0.916,0.86-1.456,1.226c-0.54,0.366-1.131,0.702-1.774,1.011c-0.465,0.219-0.952,0.42-1.461,0.604
			s-1.054,0.355-1.635,0.513l-0.502-1.579c0.533-0.157,1.082-0.331,1.646-0.522c0.564-0.191,1.137-0.421,1.718-0.688
			c-0.369-0.957-0.733-1.912-1.092-2.866c-0.359-0.953-0.723-1.908-1.092-2.866c-0.096-0.246-0.179-0.442-0.251-0.589
			c-0.071-0.147-0.166-0.278-0.282-0.396c-0.123-0.115-0.284-0.225-0.482-0.328c-0.198-0.102-0.472-0.235-0.82-0.399
			c0.123-0.246,0.25-0.492,0.379-0.738s0.263-0.492,0.4-0.738c0.376,0.15,0.697,0.287,0.964,0.41s0.496,0.26,0.687,0.41
			c0.191,0.137,0.352,0.298,0.482,0.481c0.13,0.186,0.253,0.421,0.369,0.708c0.068,0.178,0.137,0.355,0.205,0.533
			s0.144,0.376,0.226,0.595s0.174,0.47,0.277,0.754c0.103,0.283,0.224,0.62,0.364,1.01s0.301,0.841,0.482,1.354
			c0.181,0.513,0.395,1.111,0.641,1.795c0.451-0.335,0.839-0.717,1.164-1.144c0.324-0.428,0.603-0.897,0.835-1.41
			c0.226-0.513,0.41-1.062,0.554-1.646c0.144-0.585,0.253-1.215,0.328-1.893L265.465,183.098z"/>
		<path fill="#FFFFFF" d="M280.057,183.404c-0.301,0-0.571-0.003-0.81-0.01s-0.47-0.023-0.692-0.051s-0.446-0.07-0.671-0.129
			c-0.226-0.058-0.472-0.139-0.738-0.24c0.089-0.246,0.176-0.492,0.261-0.738s0.173-0.499,0.262-0.76
			c0.287,0.09,0.54,0.158,0.759,0.205c0.219,0.049,0.432,0.084,0.641,0.108c0.208,0.023,0.427,0.039,0.656,0.046
			s0.498,0.01,0.805,0.01h2c0.431,0,0.854,0.049,1.271,0.145s0.793,0.28,1.128,0.553c0.328,0.261,0.595,0.626,0.8,1.098
			s0.308,1.08,0.308,1.825v7.034h-1.774v-6.84c0-0.43-0.029-0.789-0.087-1.076s-0.164-0.518-0.317-0.692
			c-0.154-0.174-0.366-0.299-0.636-0.374c-0.271-0.075-0.614-0.113-1.031-0.113H280.057z M277.309,189.28
			c0-0.308,0.001-0.577,0.005-0.81c0.003-0.232,0.015-0.455,0.036-0.667s0.048-0.426,0.082-0.641
			c0.034-0.216,0.082-0.453,0.144-0.713c0.287,0.041,0.576,0.084,0.867,0.128c0.29,0.045,0.579,0.088,0.866,0.129
			c-0.041,0.246-0.077,0.466-0.107,0.661c-0.031,0.194-0.055,0.39-0.072,0.584c-0.017,0.195-0.029,0.4-0.036,0.615
			c-0.007,0.216-0.01,0.467-0.01,0.754v3.179h-1.774V189.28z"/>
		<path fill="#FFFFFF" d="M288.465,192.592c0-0.19,0.001-0.41,0.005-0.656c0.003-0.246,0.006-0.511,0.01-0.794
			c0.003-0.284,0.009-0.576,0.016-0.877s0.014-0.602,0.021-0.902c0.014-0.513,0.051-0.969,0.113-1.369
			c0.062-0.399,0.15-0.764,0.267-1.092s0.261-0.632,0.436-0.913c0.174-0.279,0.381-0.557,0.62-0.83
			c-0.239-0.342-0.443-0.652-0.61-0.934c-0.167-0.279-0.302-0.536-0.405-0.769c-0.109-0.239-0.202-0.481-0.277-0.728
			s-0.14-0.476-0.195-0.688c0.246-0.109,0.513-0.21,0.8-0.303c0.287-0.092,0.574-0.172,0.861-0.24
			c0.027,0.082,0.053,0.162,0.077,0.24c0.024,0.079,0.05,0.159,0.077,0.241c0.068,0.219,0.145,0.438,0.23,0.656
			s0.197,0.458,0.333,0.718s0.309,0.547,0.518,0.861c0.208,0.314,0.47,0.67,0.784,1.066c0.109,0.144,0.217,0.275,0.323,0.395
			c0.105,0.12,0.23,0.262,0.374,0.426s0.321,0.367,0.533,0.61c0.212,0.242,0.485,0.556,0.82,0.938l0.041,0.051
			c0.246-0.178,0.448-0.365,0.605-0.564c0.157-0.197,0.292-0.411,0.405-0.641c0.113-0.229,0.212-0.475,0.298-0.738
			c0.085-0.263,0.172-0.545,0.261-0.846c0.075-0.267,0.149-0.535,0.22-0.805c0.072-0.271,0.142-0.539,0.21-0.805l-1.497-0.287
			l0.277-1.436l2.871,0.502l0.051,1.322c-0.068,0.328-0.157,0.688-0.267,1.077s-0.212,0.752-0.308,1.087
			c-0.123,0.431-0.245,0.804-0.364,1.117c-0.12,0.315-0.255,0.599-0.405,0.852s-0.33,0.489-0.538,0.707
			c-0.209,0.22-0.467,0.445-0.774,0.678l2.451,2.881l-1.251,1.107l-5.476-6.326c-0.212,0.26-0.368,0.561-0.466,0.902
			c-0.1,0.342-0.169,0.702-0.21,1.081c-0.041,0.38-0.062,0.772-0.062,1.18c0,0.406-0.003,0.809-0.01,1.204
			c-0.007,0.22-0.01,0.457-0.01,0.713c0,0.257-0.003,0.566-0.01,0.928H288.465z"/>
		<path fill="#FFFFFF" d="M302.472,186.584c-0.438-0.506-0.809-0.977-1.112-1.41c-0.305-0.435-0.549-0.843-0.733-1.226
			c-0.191-0.39-0.337-0.734-0.436-1.036c-0.1-0.3-0.187-0.591-0.262-0.871c0.253-0.103,0.521-0.2,0.805-0.292
			c0.284-0.093,0.569-0.176,0.856-0.251c0.027,0.082,0.053,0.162,0.077,0.24c0.023,0.079,0.049,0.159,0.077,0.241
			c0.068,0.219,0.144,0.439,0.226,0.661c0.082,0.223,0.191,0.464,0.328,0.723c0.137,0.261,0.309,0.548,0.518,0.861
			c0.208,0.315,0.473,0.667,0.794,1.057c0.103,0.13,0.2,0.25,0.292,0.359c0.092,0.109,0.198,0.232,0.317,0.369
			s0.263,0.299,0.431,0.486c0.167,0.188,0.378,0.426,0.631,0.713c0.212-0.13,0.395-0.27,0.549-0.42
			c0.153-0.15,0.293-0.316,0.42-0.498c0.126-0.181,0.241-0.385,0.344-0.609c0.103-0.227,0.208-0.479,0.318-0.76
			c0.103-0.272,0.193-0.536,0.272-0.789c0.078-0.253,0.155-0.509,0.23-0.77l-1.456-0.44l0.4-1.405l2.799,0.79l-0.072,1.312
			c-0.096,0.335-0.208,0.692-0.338,1.071c-0.13,0.38-0.256,0.723-0.379,1.031c-0.137,0.328-0.273,0.622-0.41,0.881
			c-0.137,0.261-0.287,0.494-0.451,0.703c-0.164,0.208-0.347,0.399-0.548,0.574c-0.202,0.174-0.429,0.337-0.682,0.486l2.317,2.718
			c-0.014,0.178-0.038,0.378-0.072,0.6c-0.034,0.223-0.092,0.494-0.174,0.815h-8.111v-1.559h6.009L302.472,186.584z"/>
		<path fill="#FFFFFF" d="M315.351,181.846V192.5h-1.774v-9.096h-1.794v-1.559H315.351z"/>
		<path fill="#FFFFFF" d="M321.513,183.404c-0.301,0-0.571-0.003-0.81-0.01s-0.47-0.023-0.692-0.051s-0.446-0.07-0.671-0.129
			c-0.226-0.058-0.472-0.139-0.738-0.24c0.089-0.246,0.176-0.492,0.261-0.738s0.173-0.499,0.262-0.76
			c0.287,0.09,0.54,0.158,0.759,0.205c0.219,0.049,0.432,0.084,0.641,0.108c0.208,0.023,0.427,0.039,0.656,0.046
			s0.498,0.01,0.805,0.01h2c0.431,0,0.854,0.049,1.271,0.145s0.793,0.28,1.128,0.553c0.328,0.261,0.595,0.626,0.8,1.098
			s0.308,1.08,0.308,1.825v7.034h-1.774v-6.84c0-0.43-0.029-0.789-0.087-1.076s-0.164-0.518-0.317-0.692
			c-0.154-0.174-0.366-0.299-0.636-0.374c-0.271-0.075-0.614-0.113-1.031-0.113H321.513z M318.765,189.28
			c0-0.308,0.001-0.577,0.005-0.81c0.003-0.232,0.015-0.455,0.036-0.667s0.048-0.426,0.082-0.641
			c0.034-0.216,0.082-0.453,0.144-0.713c0.287,0.041,0.576,0.084,0.867,0.128c0.29,0.045,0.579,0.088,0.866,0.129
			c-0.041,0.246-0.077,0.466-0.107,0.661c-0.031,0.194-0.055,0.39-0.072,0.584c-0.017,0.195-0.029,0.4-0.036,0.615
			c-0.007,0.216-0.01,0.467-0.01,0.754v3.179h-1.774V189.28z"/>
		<path fill="#FFFFFF" d="M333.08,183.404c-0.301,0-0.571-0.003-0.81-0.01s-0.47-0.023-0.692-0.051s-0.446-0.07-0.671-0.129
			c-0.226-0.058-0.472-0.139-0.738-0.24c0.089-0.246,0.176-0.492,0.261-0.738s0.173-0.499,0.262-0.76
			c0.287,0.09,0.54,0.158,0.759,0.205c0.219,0.049,0.432,0.084,0.641,0.108c0.208,0.023,0.427,0.039,0.656,0.046
			s0.498,0.01,0.805,0.01h2c0.431,0,0.854,0.049,1.271,0.145s0.793,0.28,1.128,0.553c0.328,0.261,0.595,0.626,0.8,1.098
			s0.308,1.08,0.308,1.825v7.034h-1.774v-6.84c0-0.43-0.029-0.789-0.087-1.076s-0.164-0.518-0.317-0.692
			c-0.154-0.174-0.366-0.299-0.636-0.374c-0.271-0.075-0.614-0.113-1.031-0.113H333.08z M330.332,189.28
			c0-0.308,0.001-0.577,0.005-0.81c0.003-0.232,0.015-0.455,0.036-0.667s0.048-0.426,0.082-0.641
			c0.034-0.216,0.082-0.453,0.144-0.713c0.287,0.041,0.576,0.084,0.867,0.128c0.29,0.045,0.579,0.088,0.866,0.129
			c-0.041,0.246-0.077,0.466-0.107,0.661c-0.031,0.194-0.055,0.39-0.072,0.584c-0.017,0.195-0.029,0.4-0.036,0.615
			c-0.007,0.216-0.01,0.467-0.01,0.754v3.179h-1.774V189.28z"/>
		<path fill="#FFFFFF" d="M349.24,178.934v2.912h5.917c0.062,0.227,0.109,0.414,0.144,0.564s0.062,0.284,0.082,0.4
			c0.014,0.123,0.022,0.237,0.025,0.343c0.003,0.106,0.005,0.221,0.005,0.344v2.215c0,0.807-0.163,1.569-0.487,2.286
			c-0.325,0.719-0.809,1.436-1.451,2.154l-2.512,2.758l-1.251-1.117l2.348-2.625c0.226-0.26,0.436-0.514,0.631-0.76
			c0.194-0.246,0.362-0.502,0.502-0.769s0.25-0.552,0.328-0.856c0.079-0.304,0.118-0.641,0.118-1.01v-2.369h-6.173v-4.471H349.24z"
			/>
		<path fill="#FFFFFF" d="M358.561,186.881c-0.055-0.649-0.094-1.194-0.118-1.636c-0.024-0.44-0.055-0.828-0.092-1.163
			c-0.038-0.335-0.093-0.642-0.164-0.918c-0.072-0.277-0.176-0.572-0.313-0.887c0.239-0.137,0.49-0.26,0.753-0.369
			s0.525-0.212,0.785-0.309c0.13,0.246,0.237,0.484,0.323,0.713c0.085,0.229,0.156,0.477,0.21,0.744
			c0.055,0.266,0.099,0.57,0.133,0.912s0.068,0.748,0.103,1.221l0.431,5.731c0.246,0.021,0.482,0.03,0.708,0.03
			c1.162,0,2.177-0.177,3.045-0.533c0.868-0.354,1.589-0.854,2.164-1.496s1.003-1.407,1.287-2.292
			c0.284-0.886,0.426-1.857,0.426-2.917c0-0.294-0.01-0.585-0.031-0.872s-0.048-0.577-0.082-0.872
			c0.287-0.074,0.571-0.142,0.851-0.199c0.28-0.059,0.578-0.111,0.892-0.159c0.055,0.294,0.096,0.599,0.123,0.913
			s0.041,0.643,0.041,0.984c0,1.496-0.205,2.812-0.615,3.947s-1.001,2.082-1.774,2.84c-0.772,0.76-1.712,1.33-2.82,1.713
			s-2.355,0.574-3.743,0.574c-0.335,0-0.675-0.009-1.021-0.025c-0.345-0.018-0.699-0.05-1.061-0.098L358.561,186.881z
			 M364.774,181.61c0.096,0.328,0.144,0.653,0.144,0.974c0,0.199-0.016,0.398-0.046,0.601c-0.031,0.201-0.074,0.405-0.128,0.61
			c-0.096,0.342-0.212,0.682-0.349,1.02c-0.137,0.339-0.284,0.682-0.441,1.031l-1.138,2.491l-1.518-0.667l1.118-2.491
			c0.191-0.431,0.344-0.786,0.456-1.066c0.113-0.28,0.197-0.533,0.251-0.759c0.048-0.198,0.072-0.41,0.072-0.636
			c0-0.212-0.021-0.472-0.062-0.779L364.774,181.61z"/>
		<path fill="#FFFFFF" d="M381.642,183.404c-0.301,0-0.571-0.003-0.81-0.01s-0.47-0.023-0.692-0.051s-0.446-0.07-0.671-0.129
			c-0.226-0.058-0.472-0.139-0.738-0.24c0.089-0.246,0.176-0.492,0.261-0.738s0.173-0.499,0.262-0.76
			c0.287,0.09,0.54,0.158,0.759,0.205c0.219,0.049,0.432,0.084,0.641,0.108c0.208,0.023,0.427,0.039,0.656,0.046
			s0.498,0.01,0.805,0.01h5.435c0.055,0.192,0.097,0.359,0.128,0.503c0.03,0.144,0.056,0.273,0.077,0.39
			c0.034,0.219,0.058,0.442,0.072,0.672c0.014,0.229,0.021,0.467,0.021,0.713v1.445c0,0.349-0.014,0.677-0.041,0.984
			s-0.081,0.605-0.159,0.893s-0.189,0.567-0.333,0.84c-0.144,0.274-0.335,0.551-0.574,0.831c-0.499,0.581-0.989,1.137-1.472,1.666
			c-0.481,0.53-0.969,1.062-1.461,1.595l-1.354-1.23l1.138-1.199c0.308-0.328,0.61-0.655,0.908-0.979
			c0.297-0.325,0.565-0.631,0.805-0.918c0.191-0.226,0.338-0.449,0.441-0.672c0.103-0.222,0.178-0.451,0.226-0.687
			c0.048-0.236,0.077-0.487,0.087-0.754c0.01-0.267,0.015-0.561,0.015-0.882c0-0.273-0.003-0.547-0.01-0.82s-0.017-0.55-0.031-0.831
			H381.642z M378.997,188.654c0-0.293,0.001-0.56,0.005-0.799c0.003-0.239,0.013-0.471,0.03-0.692
			c0.017-0.223,0.043-0.441,0.077-0.656c0.034-0.216,0.079-0.442,0.133-0.683c0.294,0.041,0.586,0.084,0.876,0.129
			c0.291,0.044,0.583,0.087,0.877,0.128c-0.041,0.246-0.077,0.467-0.107,0.661c-0.031,0.195-0.055,0.39-0.072,0.585
			c-0.017,0.194-0.029,0.399-0.036,0.615c-0.007,0.215-0.01,0.466-0.01,0.753v7.035h-1.774V188.654z"/>
		<path fill="#FFFFFF" d="M391.999,178.934v2.912h5.917c0.062,0.227,0.109,0.414,0.144,0.564s0.062,0.284,0.082,0.4
			c0.014,0.123,0.022,0.237,0.025,0.343c0.003,0.106,0.005,0.221,0.005,0.344v2.215c0,0.807-0.163,1.569-0.487,2.286
			c-0.325,0.719-0.809,1.436-1.451,2.154l-2.512,2.758l-1.251-1.117l2.348-2.625c0.226-0.26,0.436-0.514,0.631-0.76
			c0.194-0.246,0.362-0.502,0.502-0.769s0.25-0.552,0.328-0.856c0.079-0.304,0.118-0.641,0.118-1.01v-2.369h-6.173v-4.471H391.999z"
			/>
		<path fill="#FFFFFF" d="M401.125,186.789c0-0.335,0.005-0.645,0.015-0.929c0.011-0.283,0.036-0.559,0.077-0.825
			s0.099-0.536,0.174-0.811c0.075-0.272,0.178-0.566,0.308-0.881c-0.226-0.027-0.453-0.07-0.682-0.129
			c-0.229-0.058-0.48-0.139-0.753-0.24c0.089-0.246,0.176-0.492,0.261-0.738s0.173-0.499,0.262-0.76
			c0.287,0.09,0.54,0.158,0.759,0.205c0.219,0.049,0.432,0.084,0.641,0.108c0.208,0.023,0.427,0.039,0.656,0.046
			s0.498,0.01,0.805,0.01h2.533c0.431,0,0.856,0.049,1.276,0.145c0.421,0.096,0.798,0.276,1.133,0.543
			c0.335,0.26,0.605,0.619,0.81,1.076c0.205,0.459,0.308,1.057,0.308,1.795v7.096h-1.774v-6.84c0-0.437-0.031-0.799-0.092-1.086
			s-0.171-0.519-0.328-0.692c-0.157-0.175-0.369-0.298-0.636-0.369c-0.267-0.072-0.602-0.108-1.005-0.108h-2.451
			c-0.137,0.287-0.241,0.573-0.313,0.856c-0.071,0.284-0.123,0.562-0.153,0.836c-0.031,0.273-0.048,0.542-0.052,0.805
			c-0.003,0.264-0.005,0.521-0.005,0.774v5.824h-1.774V186.789z"/>
		<path fill="#FFFFFF" d="M415.388,183.404c-0.301,0-0.571-0.003-0.81-0.01s-0.47-0.023-0.692-0.051s-0.446-0.07-0.671-0.129
			c-0.226-0.058-0.472-0.139-0.738-0.24c0.089-0.246,0.176-0.492,0.261-0.738s0.173-0.499,0.262-0.76
			c0.287,0.09,0.54,0.158,0.759,0.205c0.219,0.049,0.432,0.084,0.641,0.108c0.208,0.023,0.427,0.039,0.656,0.046
			s0.498,0.01,0.805,0.01h2c0.431,0,0.854,0.049,1.271,0.145s0.793,0.28,1.128,0.553c0.328,0.261,0.595,0.626,0.8,1.098
			s0.308,1.08,0.308,1.825v7.034h-1.774v-6.84c0-0.43-0.029-0.789-0.087-1.076s-0.164-0.518-0.317-0.692
			c-0.154-0.174-0.366-0.299-0.636-0.374c-0.271-0.075-0.614-0.113-1.031-0.113H415.388z M412.64,189.28
			c0-0.308,0.001-0.577,0.005-0.81c0.003-0.232,0.015-0.455,0.036-0.667s0.048-0.426,0.082-0.641
			c0.034-0.216,0.082-0.453,0.144-0.713c0.287,0.041,0.576,0.084,0.867,0.128c0.29,0.045,0.579,0.088,0.866,0.129
			c-0.041,0.246-0.077,0.466-0.107,0.661c-0.031,0.194-0.055,0.39-0.072,0.584c-0.017,0.195-0.029,0.4-0.036,0.615
			c-0.007,0.216-0.01,0.467-0.01,0.754v3.179h-1.774V189.28z"/>
		<path fill="#FFFFFF" d="M430.215,186.789c0-0.335,0.006-0.645,0.016-0.929c0.01-0.283,0.035-0.559,0.076-0.825
			s0.1-0.536,0.175-0.811c0.075-0.272,0.177-0.566,0.308-0.881c-0.227-0.027-0.453-0.07-0.682-0.129
			c-0.229-0.058-0.48-0.139-0.754-0.24c0.089-0.246,0.176-0.492,0.261-0.738s0.173-0.499,0.262-0.76
			c0.288,0.09,0.54,0.159,0.758,0.211c0.219,0.051,0.434,0.089,0.641,0.112c0.209,0.024,0.428,0.038,0.656,0.041
			c0.23,0.004,0.498,0.005,0.805,0.005h2.77c0.43,0,0.855,0.049,1.277,0.145c0.42,0.096,0.797,0.276,1.133,0.543
			c0.334,0.26,0.604,0.619,0.809,1.076c0.205,0.459,0.309,1.057,0.309,1.795v7.096h-8.818V186.789z M437.26,185.66
			c0-0.437-0.031-0.799-0.094-1.086c-0.061-0.287-0.17-0.519-0.328-0.692c-0.156-0.175-0.369-0.298-0.635-0.369
			c-0.268-0.072-0.602-0.108-1.006-0.108h-2.686c-0.137,0.287-0.24,0.573-0.312,0.856c-0.072,0.284-0.123,0.562-0.154,0.836
			s-0.047,0.542-0.051,0.805c-0.004,0.264-0.006,0.521-0.006,0.774v4.266h5.271V185.66z"/>
		<path fill="#FFFFFF" d="M446.56,181.846v5.507c0,0.328,0.048,0.641,0.144,0.938c0.096,0.297,0.201,0.6,0.318,0.907
			c0.197,0.533,0.384,1.071,0.559,1.615c0.174,0.543,0.329,1.105,0.467,1.687h-1.651c-0.089-0.355-0.193-0.729-0.312-1.123
			c-0.12-0.393-0.248-0.764-0.385-1.112l-0.257-0.656c-0.219,0.253-0.401,0.467-0.548,0.641c-0.147,0.175-0.279,0.325-0.396,0.451
			c-0.116,0.127-0.224,0.243-0.322,0.349c-0.1,0.106-0.207,0.218-0.323,0.334c-0.362,0.369-0.756,0.673-1.179,0.912
			c-0.425,0.239-0.913,0.4-1.467,0.482c-0.068-0.261-0.132-0.521-0.189-0.785c-0.059-0.263-0.111-0.524-0.159-0.784
			c0.232-0.062,0.444-0.123,0.636-0.185s0.372-0.139,0.543-0.23c0.171-0.093,0.334-0.202,0.487-0.328
			c0.154-0.127,0.313-0.282,0.478-0.467l1.846-2.02v-4.574h-2.338v-1.559H446.56z"/>
		<path fill="#FFFFFF" d="M456.854,190.686c0.26-0.186,0.484-0.312,0.672-0.38c0.188-0.068,0.378-0.103,0.569-0.103
			c0.335,0,0.604,0.066,0.81,0.2c0.205,0.133,0.354,0.304,0.446,0.513c0.093,0.208,0.132,0.445,0.118,0.713
			c-0.014,0.266-0.075,0.533-0.185,0.799c-0.075,0.178-0.175,0.387-0.298,0.626s-0.253,0.487-0.389,0.743
			c-0.138,0.257-0.275,0.508-0.416,0.754c-0.14,0.246-0.262,0.458-0.363,0.636h-1.252l0.811-2.687L456.854,190.686z"/>
		<path fill="#FFFFFF" d="M463.582,186.789c0-0.335,0.005-0.645,0.015-0.929c0.011-0.283,0.036-0.559,0.077-0.825
			s0.099-0.536,0.174-0.811c0.075-0.272,0.178-0.566,0.309-0.881c-0.227-0.027-0.453-0.07-0.683-0.129
			c-0.229-0.058-0.48-0.139-0.753-0.24c0.088-0.246,0.176-0.492,0.261-0.738c0.086-0.246,0.173-0.499,0.262-0.76
			c0.287,0.09,0.54,0.159,0.759,0.211c0.219,0.051,0.433,0.089,0.641,0.112c0.209,0.024,0.428,0.038,0.656,0.041
			c0.229,0.004,0.498,0.005,0.805,0.005h2.77c0.43,0,0.855,0.049,1.276,0.145c0.42,0.096,0.798,0.276,1.133,0.543
			c0.335,0.26,0.604,0.619,0.81,1.076c0.205,0.459,0.309,1.057,0.309,1.795v7.096h-8.818V186.789z M470.626,185.66
			c0-0.437-0.03-0.799-0.093-1.086c-0.061-0.287-0.171-0.519-0.328-0.692c-0.157-0.175-0.369-0.298-0.635-0.369
			c-0.268-0.072-0.603-0.108-1.006-0.108h-2.686c-0.138,0.287-0.241,0.573-0.313,0.856c-0.071,0.284-0.123,0.562-0.153,0.836
			c-0.031,0.273-0.048,0.542-0.052,0.805c-0.003,0.264-0.005,0.521-0.005,0.774v4.266h5.271V185.66z"/>
		<path fill="#FFFFFF" d="M478.911,181.846v3.322c0,0.369-0.004,0.678-0.011,0.924s-0.021,0.471-0.041,0.676
			s-0.048,0.404-0.082,0.596s-0.079,0.403-0.134,0.635l-1.732-0.256c0.034-0.205,0.064-0.393,0.092-0.564
			c0.027-0.17,0.052-0.352,0.072-0.543s0.036-0.406,0.046-0.646c0.011-0.238,0.016-0.525,0.016-0.861v-1.723h-2.349v-1.559H478.911z
			"/>
		<path fill="#FFFFFF" d="M483.401,178.934v2.912h5.917c0.062,0.227,0.109,0.414,0.144,0.564s0.062,0.284,0.082,0.4
			c0.014,0.123,0.022,0.237,0.025,0.343c0.004,0.106,0.006,0.221,0.006,0.344v2.215c0,0.807-0.163,1.569-0.487,2.286
			c-0.325,0.719-0.809,1.436-1.451,2.154l-2.513,2.758l-1.25-1.117l2.348-2.625c0.226-0.26,0.436-0.514,0.631-0.76
			c0.194-0.246,0.362-0.502,0.502-0.769c0.141-0.267,0.25-0.552,0.328-0.856c0.079-0.304,0.118-0.641,0.118-1.01v-2.369h-6.173
			v-4.471H483.401z"/>
		<path fill="#FFFFFF" d="M495.584,181.846V192.5h-1.774v-9.096h-1.794v-1.559H495.584z"/>
		<path fill="#FFFFFF" d="M504.607,183.098c0.068-0.26,0.139-0.515,0.21-0.765c0.072-0.249,0.146-0.504,0.221-0.764l3.024,0.8
			c0.021,0.239,0.038,0.479,0.052,0.718s0.021,0.479,0.021,0.718c-0.068,0.574-0.169,1.137-0.303,1.687
			c-0.133,0.551-0.306,1.086-0.518,1.604c-0.212,0.521-0.47,1.021-0.774,1.503c-0.304,0.481-0.661,0.938-1.071,1.368
			c-0.431,0.451-0.916,0.86-1.456,1.226c-0.54,0.366-1.132,0.702-1.774,1.011c-0.465,0.219-0.951,0.42-1.461,0.604
			c-0.509,0.185-1.055,0.355-1.635,0.513l-0.503-1.579c0.533-0.157,1.082-0.331,1.646-0.522c0.564-0.191,1.137-0.421,1.718-0.688
			c-0.369-0.957-0.733-1.912-1.092-2.866c-0.359-0.953-0.724-1.908-1.093-2.866c-0.096-0.246-0.179-0.442-0.251-0.589
			c-0.071-0.147-0.166-0.278-0.282-0.396c-0.123-0.115-0.283-0.225-0.481-0.328c-0.198-0.102-0.472-0.235-0.82-0.399
			c0.123-0.246,0.249-0.492,0.38-0.738c0.129-0.246,0.263-0.492,0.399-0.738c0.376,0.15,0.697,0.287,0.964,0.41
			s0.495,0.26,0.688,0.41c0.19,0.137,0.352,0.298,0.481,0.481c0.13,0.186,0.253,0.421,0.369,0.708
			c0.068,0.178,0.137,0.355,0.205,0.533s0.144,0.376,0.226,0.595s0.174,0.47,0.277,0.754c0.102,0.283,0.224,0.62,0.363,1.01
			c0.141,0.39,0.301,0.841,0.482,1.354c0.181,0.513,0.395,1.111,0.641,1.795c0.451-0.335,0.839-0.717,1.164-1.144
			c0.324-0.428,0.603-0.897,0.836-1.41c0.225-0.513,0.41-1.062,0.553-1.646c0.145-0.585,0.253-1.215,0.328-1.893L504.607,183.098z"
			/>
		<path fill="#FFFFFF" d="M518.891,183.404c-0.302,0-0.571-0.003-0.811-0.01s-0.47-0.023-0.692-0.051
			c-0.222-0.027-0.446-0.07-0.671-0.129c-0.227-0.058-0.473-0.139-0.738-0.24c0.088-0.246,0.176-0.492,0.261-0.738
			c0.086-0.246,0.173-0.499,0.262-0.76c0.287,0.09,0.54,0.158,0.759,0.205c0.219,0.049,0.433,0.084,0.641,0.108
			c0.209,0.023,0.428,0.039,0.656,0.046c0.229,0.007,0.498,0.01,0.805,0.01h0.965c0.43,0,0.855,0.049,1.276,0.145
			c0.42,0.096,0.798,0.276,1.133,0.543c0.328,0.267,0.597,0.636,0.805,1.107c0.209,0.472,0.313,1.08,0.313,1.825v7.034h-1.774v-6.84
			c0-0.423-0.03-0.78-0.093-1.071c-0.061-0.29-0.171-0.522-0.328-0.697c-0.157-0.174-0.369-0.299-0.635-0.374
			c-0.268-0.075-0.605-0.113-1.016-0.113H518.891z"/>
		<path fill="#FFFFFF" d="M530.078,181.846V192.5h-1.774v-9.096h-1.794v-1.559H530.078z"/>
		<path fill="#FFFFFF" d="M537.164,181.846v3.322c0,0.369-0.004,0.678-0.011,0.924s-0.021,0.471-0.041,0.676
			s-0.048,0.404-0.082,0.596s-0.079,0.403-0.134,0.635l-1.732-0.256c0.034-0.205,0.064-0.393,0.092-0.564
			c0.027-0.17,0.052-0.352,0.072-0.543s0.036-0.406,0.046-0.646c0.011-0.238,0.016-0.525,0.016-0.861v-1.723h-2.349v-1.559H537.164z
			"/>
		<path fill="#FFFFFF" d="M542.557,183.404c-0.301,0-0.57-0.003-0.81-0.01s-0.47-0.023-0.692-0.051
			c-0.222-0.027-0.445-0.07-0.672-0.129c-0.225-0.058-0.471-0.139-0.738-0.24c0.089-0.246,0.177-0.492,0.262-0.738
			c0.086-0.246,0.173-0.499,0.262-0.76c0.287,0.09,0.54,0.158,0.759,0.205c0.219,0.049,0.433,0.084,0.641,0.108
			c0.209,0.023,0.428,0.039,0.656,0.046c0.229,0.007,0.497,0.01,0.806,0.01h5.865v1.559h-2.072v9.096h-1.773v-9.096H542.557z"/>
		<path fill="#FFFFFF" d="M554.174,183.404c-0.301,0-0.57-0.003-0.81-0.01s-0.47-0.023-0.692-0.051
			c-0.222-0.027-0.445-0.07-0.672-0.129c-0.225-0.058-0.471-0.139-0.738-0.24c0.089-0.246,0.177-0.492,0.262-0.738
			c0.086-0.246,0.173-0.499,0.262-0.76c0.287,0.09,0.54,0.158,0.759,0.205c0.219,0.049,0.433,0.084,0.641,0.108
			c0.209,0.023,0.428,0.039,0.656,0.046c0.229,0.007,0.497,0.01,0.806,0.01h1.999c0.431,0,0.854,0.049,1.271,0.145
			s0.793,0.28,1.128,0.553c0.328,0.261,0.595,0.626,0.8,1.098s0.308,1.08,0.308,1.825v7.034h-1.773v-6.84
			c0-0.43-0.029-0.789-0.088-1.076c-0.058-0.287-0.164-0.518-0.317-0.692c-0.154-0.174-0.366-0.299-0.636-0.374
			c-0.271-0.075-0.614-0.113-1.031-0.113H554.174z M551.426,189.28c0-0.308,0.002-0.577,0.006-0.81
			c0.003-0.232,0.016-0.455,0.035-0.667c0.021-0.212,0.048-0.426,0.082-0.641c0.034-0.216,0.082-0.453,0.145-0.713
			c0.287,0.041,0.575,0.084,0.866,0.128c0.29,0.045,0.579,0.088,0.866,0.129c-0.041,0.246-0.077,0.466-0.107,0.661
			c-0.031,0.194-0.055,0.39-0.072,0.584c-0.017,0.195-0.029,0.4-0.035,0.615c-0.008,0.216-0.011,0.467-0.011,0.754v3.179h-1.774
			V189.28z"/>
		<path fill="#FFFFFF" d="M572.611,181.846v3.322c0,0.369-0.004,0.678-0.011,0.924s-0.021,0.471-0.041,0.676
			s-0.048,0.404-0.082,0.596s-0.079,0.403-0.134,0.635l-1.732-0.256c0.034-0.205,0.064-0.393,0.092-0.564
			c0.027-0.17,0.052-0.352,0.072-0.543s0.036-0.406,0.046-0.646c0.011-0.238,0.016-0.525,0.016-0.861v-1.723h-2.349v-1.559H572.611z
			"/>
		<path fill="#FFFFFF" d="M578.148,183.404c-0.302,0-0.571-0.003-0.811-0.01s-0.47-0.023-0.692-0.051
			c-0.222-0.027-0.446-0.07-0.671-0.129c-0.227-0.058-0.473-0.139-0.738-0.24c0.088-0.246,0.176-0.492,0.261-0.738
			c0.086-0.246,0.173-0.499,0.262-0.76c0.287,0.09,0.54,0.158,0.759,0.205c0.219,0.049,0.433,0.084,0.641,0.108
			c0.209,0.023,0.428,0.039,0.656,0.046c0.229,0.007,0.498,0.01,0.805,0.01h0.965c0.43,0,0.855,0.049,1.276,0.145
			c0.42,0.096,0.798,0.276,1.133,0.543c0.328,0.267,0.597,0.636,0.805,1.107c0.209,0.472,0.313,1.08,0.313,1.825v7.034h-1.774v-6.84
			c0-0.423-0.03-0.78-0.093-1.071c-0.061-0.29-0.171-0.522-0.328-0.697c-0.157-0.174-0.369-0.299-0.635-0.374
			c-0.268-0.075-0.605-0.113-1.016-0.113H578.148z"/>
		<path fill="#FFFFFF" d="M589.705,181.846v3.322c0,0.369-0.004,0.678-0.011,0.924s-0.021,0.471-0.041,0.676
			s-0.048,0.404-0.082,0.596s-0.079,0.403-0.134,0.635l-1.732-0.256c0.034-0.205,0.064-0.393,0.092-0.564
			c0.027-0.17,0.052-0.352,0.072-0.543s0.036-0.406,0.046-0.646c0.011-0.238,0.016-0.525,0.016-0.861v-1.723h-2.349v-1.559H589.705z
			"/>
		<path fill="#FFFFFF" d="M593.047,186.789c0-0.335,0.006-0.645,0.016-0.929c0.011-0.283,0.036-0.559,0.077-0.825
			s0.099-0.536,0.175-0.811c0.074-0.272,0.177-0.566,0.307-0.881c-0.225-0.027-0.452-0.07-0.682-0.129
			c-0.229-0.058-0.48-0.139-0.754-0.24c0.089-0.246,0.177-0.492,0.262-0.738c0.086-0.246,0.173-0.499,0.262-0.76
			c0.287,0.09,0.54,0.158,0.759,0.205c0.219,0.049,0.433,0.084,0.641,0.108c0.209,0.023,0.428,0.039,0.656,0.046
			c0.229,0.007,0.497,0.01,0.806,0.01h2.532c0.431,0,0.856,0.049,1.276,0.145c0.421,0.096,0.798,0.276,1.133,0.543
			c0.335,0.26,0.605,0.619,0.811,1.076c0.205,0.459,0.308,1.057,0.308,1.795v7.096h-1.774v-6.84c0-0.437-0.03-0.799-0.092-1.086
			s-0.171-0.519-0.328-0.692c-0.157-0.175-0.369-0.298-0.636-0.369c-0.267-0.072-0.602-0.108-1.005-0.108h-2.451
			c-0.137,0.287-0.24,0.573-0.312,0.856c-0.071,0.284-0.123,0.562-0.153,0.836c-0.031,0.273-0.048,0.542-0.052,0.805
			c-0.003,0.264-0.005,0.521-0.005,0.774v5.824h-1.774V186.789z"/>
		<path fill="#FFFFFF" d="M604.028,192.592c0.109-0.676,0.207-1.266,0.293-1.769c0.085-0.502,0.162-0.948,0.23-1.338
			s0.128-0.74,0.18-1.051c0.051-0.312,0.103-0.615,0.153-0.913c0.052-0.297,0.101-0.603,0.149-0.918
			c0.047-0.313,0.102-0.669,0.164-1.066c0.033-0.341,0.039-0.63,0.015-0.866c-0.023-0.235-0.082-0.465-0.174-0.687
			c-0.093-0.223-0.221-0.458-0.385-0.708c-0.164-0.249-0.366-0.562-0.604-0.938c0.136-0.082,0.259-0.156,0.369-0.225
			c0.108-0.068,0.222-0.137,0.338-0.205s0.241-0.143,0.374-0.221c0.134-0.079,0.296-0.173,0.487-0.282
			c0.157,0.219,0.292,0.41,0.405,0.574c0.112,0.164,0.213,0.316,0.302,0.456c0.089,0.141,0.168,0.279,0.236,0.416
			s0.137,0.28,0.205,0.43c0.287-0.266,0.562-0.504,0.825-0.712c0.264-0.209,0.531-0.383,0.806-0.523
			c0.272-0.14,0.563-0.247,0.871-0.323c0.308-0.074,0.646-0.112,1.016-0.112c0.902,0,1.653,0.234,2.256,0.702
			c0.601,0.469,1.001,1.188,1.199,2.158c0.055,0.274,0.094,0.614,0.118,1.021c0.023,0.407,0.041,0.827,0.051,1.262
			c0.011,0.434,0.014,0.857,0.011,1.271c-0.004,0.413-0.006,0.768-0.006,1.062c-0.007,0.471-0.017,0.922-0.03,1.354
			c-0.014,0.43-0.03,0.789-0.052,1.076c-0.014,0.15-0.027,0.308-0.041,0.472s-0.034,0.335-0.061,0.513h-5.056v-1.559h3.435
			c0.007-0.116,0.016-0.242,0.026-0.379c0.01-0.137,0.017-0.32,0.021-0.549c0.003-0.229,0.007-0.526,0.01-0.893
			c0.004-0.365,0.006-0.836,0.006-1.41c0-0.259-0.004-0.524-0.011-0.794c-0.007-0.271-0.018-0.53-0.03-0.779
			c-0.015-0.25-0.033-0.483-0.057-0.702c-0.024-0.219-0.054-0.407-0.088-0.564c-0.061-0.253-0.14-0.483-0.235-0.692
			c-0.096-0.208-0.219-0.384-0.369-0.528c-0.15-0.143-0.328-0.254-0.533-0.333c-0.205-0.078-0.448-0.118-0.728-0.118
			c-0.302,0-0.59,0.049-0.867,0.145c-0.276,0.096-0.542,0.224-0.795,0.384c-0.253,0.161-0.495,0.348-0.728,0.56
			s-0.455,0.43-0.667,0.656c-0.123,0.758-0.23,1.429-0.322,2.01c-0.093,0.581-0.177,1.102-0.252,1.563
			c-0.075,0.461-0.142,0.871-0.199,1.23c-0.059,0.358-0.115,0.695-0.17,1.01s-0.105,0.619-0.153,0.913s-0.1,0.602-0.153,0.922
			H604.028z"/>
		<path fill="#FFFFFF" d="M617.246,186.881c-0.055-0.649-0.094-1.194-0.118-1.636c-0.023-0.44-0.055-0.828-0.092-1.163
			c-0.038-0.335-0.093-0.642-0.164-0.918c-0.072-0.277-0.177-0.572-0.313-0.887c0.239-0.137,0.491-0.26,0.754-0.369
			c0.264-0.109,0.524-0.212,0.785-0.309c0.129,0.246,0.237,0.484,0.322,0.713c0.086,0.229,0.155,0.477,0.211,0.744
			c0.054,0.266,0.099,0.57,0.133,0.912s0.068,0.748,0.103,1.221l0.431,5.731c0.246,0.021,0.482,0.03,0.707,0.03
			c1.162,0,2.178-0.177,3.046-0.533c0.868-0.354,1.589-0.854,2.163-1.496s1.004-1.407,1.287-2.292
			c0.284-0.886,0.426-1.857,0.426-2.917c0-0.294-0.01-0.585-0.031-0.872c-0.02-0.287-0.048-0.577-0.082-0.872
			c0.287-0.074,0.571-0.142,0.852-0.199c0.28-0.059,0.577-0.111,0.893-0.159c0.054,0.294,0.095,0.599,0.123,0.913
			c0.026,0.314,0.041,0.643,0.041,0.984c0,1.496-0.205,2.812-0.615,3.947s-1.002,2.082-1.774,2.84
			c-0.772,0.76-1.712,1.33-2.819,1.713s-2.355,0.574-3.743,0.574c-0.335,0-0.675-0.009-1.021-0.025
			c-0.345-0.018-0.699-0.05-1.061-0.098L617.246,186.881z M623.46,181.61c0.096,0.328,0.144,0.653,0.144,0.974
			c0,0.199-0.016,0.398-0.046,0.601c-0.031,0.201-0.074,0.405-0.128,0.61c-0.097,0.342-0.213,0.682-0.35,1.02
			c-0.137,0.339-0.283,0.682-0.44,1.031l-1.138,2.491l-1.518-0.667l1.117-2.491c0.191-0.431,0.344-0.786,0.456-1.066
			c0.113-0.28,0.196-0.533,0.251-0.759c0.048-0.198,0.072-0.41,0.072-0.636c0-0.212-0.021-0.472-0.062-0.779L623.46,181.61z"/>
		<path fill="#FFFFFF" d="M638.83,178.934v2.912h5.917c0.062,0.227,0.109,0.414,0.144,0.564s0.062,0.284,0.082,0.4
			c0.014,0.123,0.022,0.237,0.025,0.343c0.004,0.106,0.006,0.221,0.006,0.344v2.215c0,0.807-0.163,1.569-0.487,2.286
			c-0.325,0.719-0.809,1.436-1.451,2.154l-2.513,2.758l-1.25-1.117l2.348-2.625c0.226-0.26,0.436-0.514,0.631-0.76
			c0.194-0.246,0.362-0.502,0.502-0.769c0.141-0.267,0.25-0.552,0.328-0.856c0.079-0.304,0.118-0.641,0.118-1.01v-2.369h-6.173
			v-4.471H638.83z"/>
		<path fill="#FFFFFF" d="M650.53,183.404c-0.301,0-0.571-0.003-0.811-0.01s-0.47-0.023-0.691-0.051
			c-0.223-0.027-0.446-0.07-0.672-0.129c-0.226-0.058-0.472-0.139-0.738-0.24c0.089-0.246,0.176-0.492,0.262-0.738
			c0.085-0.246,0.172-0.499,0.262-0.76c0.287,0.09,0.539,0.158,0.758,0.205c0.219,0.049,0.433,0.084,0.642,0.108
			c0.208,0.023,0.427,0.039,0.656,0.046c0.229,0.007,0.497,0.01,0.805,0.01h0.615c0.417,0,0.829,0.054,1.235,0.159
			c0.407,0.106,0.774,0.296,1.103,0.569s0.6,0.643,0.815,1.107c0.215,0.465,0.34,1.06,0.374,1.784
			c0.021,0.383,0.034,0.764,0.041,1.144c0.007,0.379,0.014,0.771,0.021,1.174s0.01,0.827,0.01,1.271s0,0.916,0,1.415
			c0,0.164-0.003,0.312-0.01,0.446c-0.007,0.133-0.021,0.275-0.041,0.426s-0.05,0.315-0.087,0.497
			c-0.038,0.181-0.087,0.401-0.149,0.661h-7.823v-1.559h6.368c0-0.841-0.008-1.711-0.021-2.609
			c-0.014-0.899-0.037-1.789-0.071-2.672c-0.014-0.43-0.053-0.789-0.118-1.076c-0.064-0.287-0.173-0.518-0.322-0.692
			c-0.151-0.174-0.357-0.299-0.621-0.374c-0.263-0.075-0.604-0.113-1.02-0.113H650.53z"/>
		<path fill="#FFFFFF" d="M661.041,183.404c-0.301,0-0.571-0.003-0.811-0.01s-0.47-0.023-0.691-0.051
			c-0.223-0.027-0.446-0.07-0.672-0.129c-0.226-0.058-0.472-0.139-0.738-0.24c0.089-0.246,0.176-0.492,0.262-0.738
			c0.085-0.246,0.172-0.499,0.262-0.76c0.287,0.09,0.539,0.158,0.758,0.205c0.219,0.049,0.433,0.084,0.642,0.108
			c0.208,0.023,0.427,0.039,0.656,0.046c0.229,0.007,0.497,0.01,0.805,0.01h0.615c0.417,0,0.829,0.054,1.235,0.159
			c0.407,0.106,0.774,0.296,1.103,0.569s0.6,0.643,0.815,1.107c0.215,0.465,0.34,1.06,0.374,1.784
			c0.021,0.383,0.034,0.764,0.041,1.144c0.007,0.379,0.014,0.771,0.021,1.174s0.01,0.827,0.01,1.271s0,0.916,0,1.415
			c0,0.164-0.003,0.312-0.01,0.446c-0.007,0.133-0.021,0.275-0.041,0.426s-0.05,0.315-0.087,0.497
			c-0.038,0.181-0.087,0.401-0.149,0.661h-7.823v-1.559h6.368c0-0.841-0.008-1.711-0.021-2.609
			c-0.014-0.899-0.037-1.789-0.071-2.672c-0.014-0.43-0.053-0.789-0.118-1.076c-0.064-0.287-0.173-0.518-0.322-0.692
			c-0.151-0.174-0.357-0.299-0.621-0.374c-0.263-0.075-0.604-0.113-1.02-0.113H661.041z"/>
		<path fill="#FFFFFF" d="M676.381,190.203c0.17,0,0.333,0.031,0.486,0.092c0.154,0.062,0.289,0.151,0.405,0.268
			c0.239,0.239,0.358,0.536,0.358,0.892c0,0.349-0.119,0.643-0.358,0.882c-0.116,0.116-0.251,0.207-0.405,0.271
			c-0.153,0.065-0.316,0.098-0.486,0.098c-0.172,0-0.332-0.032-0.482-0.098c-0.15-0.064-0.284-0.155-0.4-0.271
			s-0.206-0.249-0.271-0.4c-0.064-0.149-0.098-0.311-0.098-0.481s0.033-0.333,0.098-0.487c0.065-0.153,0.155-0.288,0.271-0.404
			C675.737,190.323,676.031,190.203,676.381,190.203z"/>
		<path fill="#FFFFFF" d="M684.676,181.846v13.885h-1.774v-12.326h-2.103v-1.559H684.676z"/>
		<path fill="#FFFFFF" d="M690.407,183.404c-0.301,0-0.57-0.003-0.81-0.01s-0.47-0.023-0.692-0.051
			c-0.222-0.027-0.445-0.07-0.672-0.129c-0.225-0.058-0.471-0.139-0.738-0.24c0.089-0.246,0.177-0.492,0.262-0.738
			c0.086-0.246,0.173-0.499,0.262-0.76c0.287,0.09,0.54,0.158,0.759,0.205c0.219,0.049,0.433,0.084,0.641,0.108
			c0.209,0.023,0.428,0.039,0.656,0.046c0.229,0.007,0.497,0.01,0.806,0.01h1.999c0.431,0,0.854,0.049,1.271,0.145
			s0.793,0.28,1.128,0.553c0.328,0.261,0.595,0.626,0.8,1.098s0.308,1.08,0.308,1.825v7.034h-1.773v-6.84
			c0-0.43-0.029-0.789-0.088-1.076c-0.058-0.287-0.164-0.518-0.317-0.692c-0.154-0.174-0.366-0.299-0.636-0.374
			c-0.271-0.075-0.614-0.113-1.031-0.113H690.407z M687.659,189.28c0-0.308,0.002-0.577,0.006-0.81
			c0.003-0.232,0.016-0.455,0.035-0.667c0.021-0.212,0.048-0.426,0.082-0.641c0.034-0.216,0.082-0.453,0.145-0.713
			c0.287,0.041,0.575,0.084,0.866,0.128c0.29,0.045,0.579,0.088,0.866,0.129c-0.041,0.246-0.077,0.466-0.107,0.661
			c-0.031,0.194-0.055,0.39-0.072,0.584c-0.017,0.195-0.029,0.4-0.035,0.615c-0.008,0.216-0.011,0.467-0.011,0.754v3.179h-1.774
			V189.28z"/>
		<path fill="#FFFFFF" d="M700.62,178.934v2.912h5.917c0.062,0.227,0.109,0.414,0.144,0.564s0.062,0.284,0.082,0.4
			c0.014,0.123,0.022,0.237,0.025,0.343c0.004,0.106,0.006,0.221,0.006,0.344v2.215c0,0.807-0.163,1.569-0.487,2.286
			c-0.325,0.719-0.809,1.436-1.451,2.154l-2.513,2.758l-1.25-1.117l2.348-2.625c0.226-0.26,0.436-0.514,0.631-0.76
			c0.194-0.246,0.362-0.502,0.502-0.769c0.141-0.267,0.25-0.552,0.328-0.856c0.079-0.304,0.118-0.641,0.118-1.01v-2.369h-6.173
			v-4.471H700.62z"/>
		<path fill="#FFFFFF" d="M709.941,186.881c-0.055-0.649-0.094-1.194-0.118-1.636c-0.023-0.44-0.055-0.828-0.092-1.163
			c-0.038-0.335-0.093-0.642-0.164-0.918c-0.072-0.277-0.177-0.572-0.313-0.887c0.239-0.137,0.491-0.26,0.754-0.369
			c0.264-0.109,0.524-0.212,0.785-0.309c0.129,0.246,0.237,0.484,0.322,0.713c0.086,0.229,0.155,0.477,0.211,0.744
			c0.054,0.266,0.099,0.57,0.133,0.912s0.068,0.748,0.103,1.221l0.431,5.731c0.246,0.021,0.482,0.03,0.707,0.03
			c1.162,0,2.178-0.177,3.046-0.533c0.868-0.354,1.589-0.854,2.163-1.496s1.004-1.407,1.287-2.292
			c0.284-0.886,0.426-1.857,0.426-2.917c0-0.294-0.01-0.585-0.031-0.872c-0.02-0.287-0.048-0.577-0.082-0.872
			c0.287-0.074,0.571-0.142,0.852-0.199c0.28-0.059,0.577-0.111,0.893-0.159c0.054,0.294,0.095,0.599,0.123,0.913
			c0.026,0.314,0.041,0.643,0.041,0.984c0,1.496-0.205,2.812-0.615,3.947s-1.002,2.082-1.774,2.84
			c-0.772,0.76-1.712,1.33-2.819,1.713s-2.355,0.574-3.743,0.574c-0.335,0-0.675-0.009-1.021-0.025
			c-0.345-0.018-0.699-0.05-1.061-0.098L709.941,186.881z M716.155,181.61c0.096,0.328,0.144,0.653,0.144,0.974
			c0,0.199-0.016,0.398-0.046,0.601c-0.031,0.201-0.074,0.405-0.128,0.61c-0.097,0.342-0.213,0.682-0.35,1.02
			c-0.137,0.339-0.283,0.682-0.44,1.031l-1.138,2.491l-1.518-0.667l1.117-2.491c0.191-0.431,0.344-0.786,0.456-1.066
			c0.113-0.28,0.196-0.533,0.251-0.759c0.048-0.198,0.072-0.41,0.072-0.636c0-0.212-0.021-0.472-0.062-0.779L716.155,181.61z"/>
	</g>
</g>
</svg>
