<?xml version="1.0" encoding="utf-8"?>
<!-- Generator: Adobe Illustrator 16.0.0, SVG Export Plug-In . SVG Version: 6.00 Build 0)  -->
<!DOCTYPE svg PUBLIC "-//W3C//DTD SVG 1.1//EN" "http://www.w3.org/Graphics/SVG/1.1/DTD/svg11.dtd">
<svg version="1.1" id="Layer_1" xmlns="http://www.w3.org/2000/svg" xmlns:xlink="http://www.w3.org/1999/xlink" x="0px" y="0px"
	 width="231.818px" height="239.395px" viewBox="0 0 231.818 239.395" enable-background="new 0 0 231.818 239.395"
	 xml:space="preserve">
<g>
	<path fill="#EACB49" d="M154.623,21.043c-24.165,0-44.876,8.745-53.622,19.745h-0.004L52.479,88.996
		c-4.279,2.893-7.588,5.732-9.662,9.32l-2.491,2.291l1.162,0.107c-0.762,1.964-1.162,3.938-1.162,6.021
		c0,4.982,2.301,10.885,6.355,15.035l2.4,74.019h98.622l0.007-0.751l56.228-56.164l1.988-73.284
		c4.314-4.252,6.769-9.386,6.769-14.536C212.694,34.254,186.695,21.043,154.623,21.043z"/>
	<path fill="#F7EFC8" stroke="#EACB49" stroke-width="8" stroke-linejoin="round" d="M156.467,106.676
		c0-16.8-25.999-30.419-58.071-30.419c-32.071,0-58.07,13.619-58.07,30.419c0,4.982,2.301,10.414,6.355,14.564l2.4,73.548h98.629
		l1.988-73.127C154.013,117.409,156.467,111.826,156.467,106.676z"/>
	<path fill="#F7EFC8" stroke="#EACB49" stroke-width="8" stroke-linejoin="round" d="M135.267,130.642
		c0-16.8-26-30.419-58.071-30.419s-58.071,13.619-58.071,30.419c0,4.982,2.302,10.433,6.356,14.583l2.4,73.563h98.629l1.988-73.144
		C132.813,141.393,135.267,135.792,135.267,130.642z"/>
</g>
</svg>
