<?xml version="1.0" encoding="utf-8"?>
<!-- Generator: Adobe Illustrator 16.0.0, SVG Export Plug-In . SVG Version: 6.00 Build 0)  -->
<!DOCTYPE svg PUBLIC "-//W3C//DTD SVG 1.1//EN" "http://www.w3.org/Graphics/SVG/1.1/DTD/svg11.dtd">
<svg version="1.1" id="Layer_1" xmlns="http://www.w3.org/2000/svg" xmlns:xlink="http://www.w3.org/1999/xlink" x="0px" y="0px"
	 width="319.697px" height="324.243px" viewBox="0 0 319.697 324.243" enable-background="new 0 0 319.697 324.243"
	 xml:space="preserve">
<path fill="#E0C981" d="M42.014,101.362c-0.85,0.465-1.717,0.924-2.543,1.4c25.061,30.203,62.873,49.441,105.186,49.441
	c48.523,0,91.101-25.316,115.341-63.443c-26.266-8.422-58.779-13.408-93.996-13.408c-47.742,0-90.508,9.172-119.473,23.648
	c2.455,5.242,5.199,10.326,8.271,15.178C50.252,110.2,46.004,105.897,42.014,101.362z"/>
<circle fill="#935527" cx="159.744" cy="99.147" r="45.805"/>
<g>
	<polygon fill="#FDEBCC" points="147.672,112.763 158.328,27.323 170.238,20.741 175.92,17.606 179.094,17.606 164.375,119.743 	"/>
	<polygon fill="#F9DC62" points="150.846,114.847 161.502,29.409 179.094,18.774 167.547,121.817 	"/>
</g>
<g>
	<polygon fill="#FDEBCC" points="165.205,96.2 188.67,42.335 201.486,41.86 207.549,41.808 210.172,44.534 178.977,110.63 	"/>
	<polygon fill="#F9DC62" points="167.639,99.591 191.107,45.726 210.172,44.534 181.504,113.687 	"/>
</g>
<g>
	<path fill="#2AAD5F" d="M114.801,123.63c4.426-15.924-9.096-33.588-30.203-39.453c-21.102-5.865-41.801,2.287-46.227,18.211
		c-4.424,15.922,9.098,33.584,30.203,39.449C89.678,147.702,110.377,139.55,114.801,123.63z"/>
	<path fill="#4DA44D" d="M44.33,106.933c4.012-14.441,22.875-21.811,42.127-16.459c19.258,5.352,31.611,21.395,27.6,35.836
		c-4.016,14.441-22.879,21.811-42.131,16.459S40.316,121.372,44.33,106.933z"/>
</g>
<path fill="#EFCD9C" d="M52.232,105.896c-4.629-1.484-12.762-6.586-17.49-1.759c-7.863,17.252-11.041,36.446-12.283,56.605
	c-1.535,24.949,6.828,55.759,14.715,73.75c-0.621-5.295-10.443-46.938-10.443-52.404C26.73,155.157,38.777,127.055,52.232,105.896z"
	/>
<path fill="#DECA85" d="M294.724,144.603c-2.326-19.752-8.834-38.221-18.664-54.467c-4.137-1.407-11.219-1.539-13.887,0
	C274.097,104.513,289.468,126.153,294.724,144.603z"/>
<path fill="#EFCD9C" d="M27.709,198.229c2.93,24.883,12.531,47.713,26.992,66.658c18.986,14.572,41.898,24.277,66.891,27.225
	C76.291,279.206,40.615,243.53,27.709,198.229z"/>
<path fill="#F4E294" d="M265.992,96.308c13.654,15.535,23.834,34.176,29.332,54.75c-0.152-2.164-0.35-4.316-0.6-6.455
	c-5.256-18.449-14.264-35.318-26.188-49.695C267.71,95.382,266.845,95.843,265.992,96.308z"/>
<path fill="#EFCD9C" d="M287.621,152.659c0,75.455-61.166,136.623-136.621,136.623c-13.008,0-25.574-1.857-37.492-5.254
	c-25.402-6.586-49.402-11.586-65.402-28.586c22.068,33.5,62.844,55.188,107.162,55.188c74.707,0,135.373-59.973,136.566-134.398
	c-0.168-11.484-1.752-22.626-4.592-33.257C287.468,146.177,287.621,149.399,287.621,152.659z"/>
<path fill="#DDAF73" d="M261.478,98.667c8.229,17.564,12.879,37.129,12.879,57.805c0,75.455-61.17,136.623-136.621,136.623
	c-5.467,0-10.846-0.357-16.145-0.982c11.916,3.396,24.482,5.254,37.49,5.254c75.455,0,136.621-61.17,136.621-136.623
	c0-3.262-0.152-6.484-0.379-9.686c-4.719-23.615-7.496-36.073-19.65-59.041C274.208,92.817,263.021,97.897,261.478,98.667z"/>
<path fill="#F4E294" d="M253.205,83.491c3.074,4.854,5.818,9.936,8.273,15.176c1.543-0.77,3.049-1.559,4.514-2.359
	C262.003,91.771,257.753,87.47,253.205,83.491z"/>
<path fill="#AD6432" d="M135.498,123.396c0,25.297-20.512,45.806-45.807,45.806c-25.297,0-45.805-20.509-45.805-45.806
	c0-25.293,20.508-45.803,45.805-45.803C114.986,77.593,135.498,98.103,135.498,123.396z"/>
<path fill="#AD6432" d="M274.357,95.542c0,25.293-20.508,45.803-45.803,45.803c-25.296,0-45.806-20.51-45.806-45.803
	c0-25.297,20.51-45.807,45.806-45.807C253.849,49.735,274.357,70.245,274.357,95.542z"/>
<ellipse fill="#F37264" cx="150.892" cy="138.62" rx="46.702" ry="35.025"/>
<path fill="#FEFAE9" d="M278.658,110.886c0,8.307-12.773,5.72-22.445,5.72h-45.804c-9.672,0-17.512-6.526-17.512-14.833l0,0
	c0-8.307,12.271-3.709,21.943-3.709c0,0,24.266-11.185,34.904-9.908c10.254,1.23,25.93-4.55,25.93,3.756L278.658,110.886z"/>
<g>
	<path fill="#2AAD5F" d="M258.587,137.062c5.713-20.553-11.74-43.348-38.98-50.918c-27.238-7.57-53.951,2.949-59.664,23.502
		c-5.709,20.549,11.742,43.346,38.984,50.916C226.164,168.129,252.878,157.61,258.587,137.062z"/>
	<path fill="#42E588" d="M167.635,115.511c5.18-18.637,29.523-28.148,54.373-21.242c24.854,6.906,40.799,27.613,35.621,46.254
		c-5.182,18.637-29.527,28.148-54.376,21.24C178.404,154.856,162.457,134.149,167.635,115.511z"/>
</g>
<path fill="#F9DEB7" d="M121.592,292.112c5.299,0.625,10.678,0.982,16.145,0.982c75.451,0,150.091-66.557,150.091-142.011
	c0-20.676-4.648-40.24-12.879-57.805c-28.965,14.477-85.199,29.039-132.945,29.039c-35.215,0-67.727-4.986-93.994-13.408
	c-13.455,21.158-21.279,46.248-21.279,73.179C26.73,213.192,51.605,278.442,121.592,292.112z"/>
<path fill="#FFFDF5" d="M30.174,119.91c0,0-0.04,10.281,6.445,6.326c12.389-7.556,80.725,2.999,106.979,5.814
	c6.203,0.665,15.943-8.942,22.474-10.85c-7.095-6.132-16.877,1.324-22.397-1.291c-13.59-6.438-33.559,1.54-58.167-7.903
	c-20.584-7.899-43.733-12.576-48.886-9.486c-1.998,1.198-3.775,5.927-4.588,8.109C31.208,112.848,30.174,119.91,30.174,119.91z"/>
<path fill="#FFFDF5" d="M33.424,124.941c0,0,6.844,1,6.047,8s12.762,11.572,16.203-1.5c15-6.25,1.285,34.247,15.75,34.547
	c14.25,0.295,10.5-36.535,22-32.047s20.25,16.411,32.75,1.75s18.279,7.419,21.498-12.34
	C130.424,113.007,35.924,118.441,33.424,124.941z"/>
<path fill="#FFFDF5" d="M256.173,101.191c0,0,15.797-0.757,16.834,8.526c1.35,12.1,6.654,12.1,8.332,12.1
	c5.85,0,1.982-8.329-3.719-21.825c-6.088-14.417-33.607-10.694-33.607-10.694L256.173,101.191z"/>
</svg>
