<?xml version="1.0" encoding="utf-8"?>
<!-- Generator: Adobe Illustrator 16.0.0, SVG Export Plug-In . SVG Version: 6.00 Build 0)  -->
<!DOCTYPE svg PUBLIC "-//W3C//DTD SVG 1.1//EN" "http://www.w3.org/Graphics/SVG/1.1/DTD/svg11.dtd">
<svg version="1.1" id="Layer_1" xmlns="http://www.w3.org/2000/svg" xmlns:xlink="http://www.w3.org/1999/xlink" x="0px" y="0px"
	 width="305px" height="335px" viewBox="168.61 191.583 305 335" enable-background="new 168.61 191.583 305 335"
	 xml:space="preserve">
<g>
	<path fill="#E0C981" d="M204.042,296.617c-0.85,0.465-1.718,0.924-2.544,1.4c25.062,30.203,62.874,49.441,105.186,49.441
		c48.524,0,91.103-25.316,115.343-63.443c-26.268-8.422-58.78-13.408-93.996-13.408c-47.742,0-90.509,9.172-119.474,23.648
		c2.455,5.242,5.199,10.326,8.272,15.178C212.281,305.455,208.032,301.152,204.042,296.617z"/>
	<circle fill="#7A4418" cx="321.773" cy="294.402" r="45.805"/>
	<g>
		<polygon fill="#F4E294" points="309.7,308.018 320.356,222.578 332.267,215.857 337.948,212.583 341.121,212.583 326.402,314.859 
					"/>
		<polygon fill="#EDD672" points="312.874,310.102 323.529,224.664 341.121,214.928 329.576,317.072 		"/>
	</g>
	<g>
		<polygon fill="#F4E294" points="327.234,291.455 350.699,237.59 363.515,237.115 369.578,237.063 372.558,238.496 
			341.005,305.885 		"/>
		<polygon fill="#EDD672" points="329.667,294.846 353.134,240.98 372.201,239.789 343.531,308.941 		"/>
	</g>
	<g>
		<path fill="#268461" d="M274.829,304.885c4.426-15.924-9.096-33.588-30.203-39.453c-21.102-5.865-41.801,2.287-46.227,18.211
			c-4.423,15.922,9.099,33.584,30.203,39.449S270.406,320.805,274.829,304.885z"/>
		<path fill="#4DA44D" d="M204.358,288.188c4.013-14.441,22.876-21.811,42.128-16.459c19.258,5.352,31.611,21.395,27.599,35.836
			c-4.016,14.441-22.878,21.811-42.131,16.459C212.702,318.672,200.345,302.627,204.358,288.188z"/>
	</g>
	<path fill="#DECA85" d="M210.039,304.164c-4.628-1.484-9.048-3.076-13.269-4.771c-7.862,17.252-12.282,36.408-12.282,56.606
		c0,13.002,1.854,25.568,5.249,37.486c-0.621-5.295-0.979-10.674-0.979-16.141C188.758,350.412,196.583,325.322,210.039,304.164z"/>
	<path fill="#DECA85" d="M456.753,339.857c-2.326-19.752-8.836-38.221-18.666-54.467c-2.365,1.635-4.854,3.232-7.522,4.771
		C442.49,304.539,451.496,321.408,456.753,339.857z"/>
	<path fill="#F4E294" d="M189.737,393.485c2.931,24.883,12.532,47.713,26.993,66.658c18.986,14.572,41.898,24.277,66.89,27.225
		C238.319,474.461,202.643,438.786,189.737,393.485z"/>
	<path fill="#F4E294" d="M428.021,291.563c13.652,15.535,23.833,34.176,29.332,54.75c-0.152-2.164-0.35-4.316-0.6-6.455
		c-5.258-18.449-14.264-35.318-26.188-49.695C429.739,290.637,428.873,291.098,428.021,291.563z"/>
	<path fill="#E0C981" d="M449.649,347.914c0,75.456-61.167,136.624-136.621,136.624c-13.008,0-25.574-1.857-37.491-5.254
		c-25.402-6.586-49.402-11.586-65.402-28.586c17.5,27.5,62.843,55.188,107.162,55.188c74.707,0,135.373-59.973,136.564-134.398
		c-0.168-11.484-1.752-22.627-4.591-33.258C449.496,341.432,449.649,344.654,449.649,347.914z"/>
	<path fill="#C9B479" d="M423.505,293.922c8.23,17.564,12.88,37.129,12.88,57.805c0,75.456-61.169,136.624-136.621,136.624
		c-5.467,0-10.846-0.357-16.145-0.982c11.917,3.396,24.483,5.254,37.491,5.254c75.454,0,136.621-61.17,136.621-136.623
		c0-3.262-0.152-6.485-0.379-9.686c-4.719-23.615-12.066-40.58-25.719-56.115C430.168,290.998,425.05,293.152,423.505,293.922z"/>
	<path fill="#F4E294" d="M415.234,278.746c3.072,4.854,5.816,9.936,8.271,15.176c1.545-0.77,3.05-1.559,4.516-2.359
		C424.032,287.025,419.783,282.725,415.234,278.746z"/>
	<path fill="#935227" d="M297.526,318.65c0,25.297-20.511,45.807-45.807,45.807s-45.804-20.51-45.804-45.807
		c0-25.293,20.508-45.803,45.804-45.803S297.526,293.357,297.526,318.65z"/>
	<path fill="#935227" d="M436.385,290.797c0,25.293-20.507,45.803-45.804,45.803c-25.296,0-45.806-20.51-45.806-45.803
		c0-25.297,20.51-45.807,45.806-45.807C415.878,244.99,436.385,265.5,436.385,290.797z"/>
	<ellipse fill="#F7305A" cx="312.919" cy="333.875" rx="46.702" ry="35.026"/>
	<path fill="#FEFAE9" d="M437.753,297.582c0,8.307-7.841,15.001-17.514,15.001h-45.803c-9.672,0-17.514-6.694-17.514-15.001l0,0
		c0-8.307,7.842-14.999,17.514-14.999h45.803C429.913,282.583,437.753,289.275,437.753,297.582L437.753,297.582z"/>
	<g>
		<path fill="#268461" d="M420.617,332.316c5.713-20.553-11.74-43.348-38.98-50.918c-27.238-7.57-53.953,2.949-59.665,23.502
			c-5.709,20.549,11.743,43.346,38.983,50.917C388.193,363.385,414.908,352.865,420.617,332.316z"/>
		<path fill="#4DA44D" d="M329.662,310.766c5.182-18.637,29.525-28.148,54.373-21.242c24.855,6.906,40.8,27.613,35.621,46.254
			c-5.18,18.637-29.526,28.149-54.375,21.241C340.431,350.111,324.484,329.404,329.662,310.766z"/>
	</g>
	<path fill="#F4E294" d="M283.62,487.368c5.299,0.625,10.678,0.982,16.145,0.982c75.452,0,150.093-66.557,150.093-142.012
		c0-20.676-4.649-40.24-12.879-57.805c-28.965,14.477-85.201,29.039-132.945,29.039c-35.216,0-67.727-4.986-93.994-13.408
		c-13.455,21.158-21.28,46.248-21.28,73.18c0,5.467,0.357,10.846,0.979,16.141C202.643,438.786,213.634,473.698,283.62,487.368z"/>
	<g>
		<g>
			<path fill="#FEFAE9" d="M283.61,337.34v51c0,7.207,4.796,13.047,12,13.047s12-5.84,12-13.047v-65.758h-24V337.34z"/>
			<path fill="#FEFAE9" d="M210.61,350.98v-28.398h-6.991c-1.002,0-3.009,0.443-4.009,0.373v67.758c0,5.896,5.104,10.674,11,10.674
				s11-4.777,11-10.674v-23.391C213.61,365.075,210.61,358.614,210.61,350.98z"/>
			<path fill="#FEFAE9" d="M221.61,322.583v44.74c2,0.549,3.866,1.26,5.729,1.26h1.187c9.498,0,17.084-8.104,17.084-17.602v-28.398
				H221.61z"/>
			<path fill="#FEFAE9" d="M210.61,322.583v28.398c0,7.633,3,14.094,11,16.342v-44.74H210.61z"/>
			<path fill="#FEFAE9" d="M245.61,322.583v28.398v40.92c0,5.238,4.259,9.486,9.5,9.486s9.5-4.248,9.5-9.486V337.34v-14.757H245.61z
				"/>
			<path fill="#FEFAE9" d="M264.61,322.583v14.757c0,5.238,4.259,9.488,9.5,9.488s9.5-4.25,9.5-9.488v-14.757H264.61z"/>
		</g>
		<path fill="#FEFAE9" d="M194.463,314.504c0,0-4.409,14.156,5.782,11.119c2.847-0.848,107.365-2.498,107.365-2.498v-5.387
			c0,0-101.168-5.588-108.756-18.963l-3.182,9.188L194.463,314.504z"/>
	</g>
</g>
</svg>
