<?xml version="1.0" encoding="utf-8"?>
<!-- Generator: Adobe Illustrator 16.0.0, SVG Export Plug-In . SVG Version: 6.00 Build 0)  -->
<!DOCTYPE svg PUBLIC "-//W3C//DTD SVG 1.1//EN" "http://www.w3.org/Graphics/SVG/1.1/DTD/svg11.dtd">
<svg version="1.1" id="Layer_1" xmlns="http://www.w3.org/2000/svg" xmlns:xlink="http://www.w3.org/1999/xlink" x="0px" y="0px"
	 width="421px" height="229px" viewBox="113.61 237.583 421 229" enable-background="new 113.61 237.583 421 229"
	 xml:space="preserve">
<g>
	<g>
		<path fill="#FC855B" d="M470.658,250.212c0,0,30.273-2.294,31.652,37.617c1.375,39.912,4.127,60.097,4.127,60.097
			s3.213,28.904,3.213,33.031c0,4.129,0.742,23.57-6.881,41.17c-7.006,16.176-18.811,33.148-32.113,31.771
			s-26.148-11.471-30.734-33.949c-4.588-22.479-2.754-31.652,0-76.611c2.752-44.957,1.352-56.432,1.352-56.432
			S437.126,252.739,470.658,250.212z"/>
		<path fill="none" d="M440.15,339.867c7.225,19.874,15.082,28.589,32.135,28.589h0.219c23.154,0,31.936-12.844,31.936-37.611
			l-2.764-50.011c-0.512-13.983-12.121-30.379-29.172-30.379h-0.219c-17.055,0-31.104,13.582-31.104,30.202L440.15,339.867z"/>
		<path fill="#C0BFA4" d="M469.509,258.455c0,0-17.213,1.382-19.506,17.441c-2.293,16.053-2.293,30.968-2.293,30.968
			s-3.326,16.86,10.953,20.99c13.018,3.765,11.689,0.61,12.135,5.075l-0.027,1.492c0.045-0.286,0.08-0.559,0.109-0.806
			c0,73.209,0.064,0.498,0.111,0.783l-0.027-1.522c0.447-4.465-0.881-1.372,12.135-5.134c14.277-4.129,10.953-21.104,10.953-21.104
			s0-14.688-2.293-30.746c-2.293-16.054-18.367-17.438-18.367-17.438H469.509z"/>
		<path fill="#B5573E" d="M451.064,322.956c1.691,2.093,4.119,3.86,7.6,4.866c13.018,3.764,11.689,0.626,12.135,5.092l-0.025,1.5
			c0.043-0.285,0.078-0.554,0.109-0.802c0,73.209,0.064,0.5,0.111,0.786l-0.029-1.521c0.447-4.464-0.881-1.37,12.135-5.135
			c3.416-0.986,5.814-2.713,7.502-4.762C484.021,321.861,466.095,319.428,451.064,322.956z"/>
		<line fill="none" x1="488.55" y1="324.455" x2="488.55" y2="365.456"/>
		<line fill="none" x1="452.55" y1="327.455" x2="452.55" y2="362.456"/>
		<path fill="#B5573E" d="M450.757,359.336c5.42,6.523,12.1,8.43,21.746,8.43c8.652-1.211,30.609,3.559,31.984-38.533
			c0,0,5.166,39.426,5.166,47.598l-1.223,24.727c-2.016,9.918-9.766,17.133-19.426,17.133c-8.48,0-15.59-5.104-17.203-11.877
			c-1.613,6.773-8.723,11.877-17.203,11.877c-5.199,0-9.318-1.02-12.213-3.717c-2.482-2.318-4.061-5.869-4.646-11.076l-0.613-18.121
			l3.021-46.249C440.15,338.083,441.712,348.456,450.757,359.336z"/>
		<rect x="464.55" y="276.455" fill="#78A89B" width="12" height="30"/>
		<line fill="none" stroke="#B5573E" stroke-width="2" stroke-miterlimit="10" x1="479.55" y1="335.455" x2="461.55" y2="335.455"/>
		<line fill="none" stroke="#B5573E" stroke-width="2" stroke-miterlimit="10" x1="479.55" y1="344.455" x2="461.55" y2="344.455"/>
		<line fill="none" stroke="#B5573E" stroke-width="2" stroke-miterlimit="10" x1="479.55" y1="353.455" x2="461.55" y2="353.455"/>
		<line fill="none" x1="479.55" y1="362.456" x2="461.55" y2="362.456"/>
		<path fill="#FC855B" d="M394.689,250.212c0,0-30.275-2.294-31.653,37.617c-1.376,39.912-4.128,60.097-4.128,60.097
			s-3.212,28.904-3.212,33.031c0,4.129-0.741,23.57,6.881,41.17c7.005,16.176,18.81,33.148,32.112,31.771
			c13.305-1.377,26.15-11.471,30.738-33.949c4.586-22.479,2.752-31.652,0-76.611c-2.756-44.957-1.354-56.432-1.354-56.432
			S428.22,252.739,394.689,250.212z"/>
		<path fill="none" d="M425.197,339.867c-7.225,19.874-15.083,28.589-32.135,28.589h-0.219c-23.154,0-31.937-12.844-31.937-37.611
			l2.765-50.011c0.512-13.983,12.121-30.379,29.172-30.379h0.219c17.053,0,31.104,13.582,31.104,30.202L425.197,339.867z"/>
		<path fill="#C0BFA4" d="M395.837,258.455c0,0,17.213,1.382,19.506,17.441c2.293,16.053,2.293,30.968,2.293,30.968
			s3.326,16.86-10.951,20.99c-13.02,3.765-11.691,0.61-12.135,5.075l0.024,1.492c-0.044-0.286-0.079-0.559-0.108-0.806
			c0,73.209-0.066,0.498-0.113,0.783l0.029-1.522c-0.447-4.465,0.881-1.372-12.135-5.134c-14.277-4.129-10.955-21.104-10.955-21.104
			s0-14.688,2.295-30.746c2.293-16.054,18.367-17.438,18.367-17.438H395.837z"/>
		<path fill="#B5573E" d="M414.281,322.956c-1.689,2.093-4.119,3.86-7.598,4.866c-13.018,3.764-11.69,0.626-12.135,5.092l0.025,1.5
			c-0.044-0.285-0.079-0.554-0.109-0.802c0,73.209-0.065,0.5-0.111,0.786l0.029-1.521c-0.449-4.464,0.881-1.37-12.137-5.135
			c-3.415-0.986-5.814-2.713-7.502-4.762C381.325,321.861,399.251,319.428,414.281,322.956z"/>
		<line fill="none" x1="375.55" y1="324.455" x2="375.55" y2="365.456"/>
		<line fill="none" x1="411.55" y1="327.455" x2="411.55" y2="362.456"/>
		<path fill="#B5573E" d="M414.589,359.336c-5.42,6.523-12.101,8.43-21.746,8.43c-8.654-1.211-30.611,3.559-31.984-38.533
			c0,0-5.168,39.426-5.168,47.598l1.223,24.727c2.018,9.918,9.768,17.133,19.426,17.133c8.481,0,15.592-5.104,17.203-11.877
			c1.614,6.773,8.723,11.877,17.205,11.877c5.197,0,9.318-1.02,12.211-3.717c2.482-2.318,4.061-5.869,4.646-11.076l0.615-18.121
			l-3.021-46.249C425.197,338.083,423.634,348.456,414.589,359.336z"/>
		<rect x="387.55" y="276.455" fill="#78A89B" width="12" height="30"/>
		<line fill="none" stroke="#B5573E" stroke-width="2" stroke-miterlimit="10" x1="387.55" y1="335.455" x2="405.55" y2="335.455"/>
		<line fill="none" stroke="#B5573E" stroke-width="2" stroke-miterlimit="10" x1="387.55" y1="344.455" x2="405.55" y2="344.455"/>
		<line fill="none" stroke="#B5573E" stroke-width="2" stroke-miterlimit="10" x1="387.55" y1="353.455" x2="405.55" y2="353.455"/>
		<line fill="none" x1="387.55" y1="362.456" x2="405.55" y2="362.456"/>
	</g>
	<path fill="#203C59" d="M304.55,429.34c0,5.586-4.528,10.115-10.114,10.115H148.664c-5.585,0-10.114-4.529-10.114-10.115V265.569
		c0-5.586,4.528-10.114,10.114-10.114h145.771c5.585,0,10.114,4.528,10.114,10.114V429.34z"/>
	<path fill="#162C3F" d="M249.339,273.455l55.211,13.338v-25.028c0-5.586-2.562-9.31-8.148-9.31h-145.37
		c-5.586,0-12.482,3.724-12.482,9.31v24.71l57.921-13.02H249.339z"/>
	<rect x="209.55" y="297.455" fill="#5FA18B" width="27" height="136.001"/>
	<polyline fill="none" points="142.27,287.557 197.55,273.455 250.418,273.455 307.863,291.588 	"/>
	<path fill="none" d="M188.55,353.455h-27.188c2.789,3,4.188,4.803,4.188,8.37v66.078c0,2.438-2.04,4.676-3.478,6.424l26.478,0.184
		V353.455z"/>
	<path fill="none" d="M165.55,361.825c0-3.566-1.4-5.369-4.188-8.37H140.38c0,0,0.67,58.241,0.269,70.735
		c-0.269,8.404,10.115,10.082,10.115,10.082l12.71,0.068c1.438-1.746,2.077-4,2.077-6.438L165.55,361.825L165.55,361.825z"/>
	<line fill="none" x1="141.55" y1="383.456" x2="191.55" y2="383.456"/>
	<line fill="none" x1="153.55" y1="383.456" x2="153.55" y2="409.456"/>
	<line fill="none" x1="180.55" y1="383.456" x2="180.55" y2="409.456"/>
	<line fill="none" x1="262.55" y1="383.456" x2="307.55" y2="383.456"/>
	<line fill="none" x1="147.55" y1="371.456" x2="162.55" y2="371.456"/>
	<line fill="none" x1="221.55" y1="324.455" x2="221.55" y2="341.455"/>
	<line fill="none" x1="221.55" y1="362.456" x2="221.55" y2="383.456"/>
	<line fill="none" x1="221.55" y1="401.456" x2="221.55" y2="421.456"/>
	<line fill="none" x1="221.55" y1="401.456" x2="221.55" y2="421.456"/>
	<path fill="#FF865D" d="M159.55,370.012c0,2.453-1.989,4.443-4.443,4.443h-0.114c-2.454,0-4.443-1.99-4.443-4.443v-0.113
		c0-2.453,1.989-4.443,4.443-4.443h0.114c2.454,0,4.443,1.99,4.443,4.443V370.012z"/>
	<path fill="#FF865D" d="M227.55,334.011c0,2.454-1.989,4.443-4.443,4.443h-0.114c-2.454,0-4.443-1.989-4.443-4.443v-0.112
		c0-2.454,1.989-4.443,4.443-4.443h0.114c2.454,0,4.443,1.989,4.443,4.443V334.011z"/>
	<path fill="#FF865D" d="M227.55,376.012c0,2.453-1.989,4.443-4.443,4.443h-0.114c-2.454,0-4.443-1.99-4.443-4.443v-0.113
		c0-2.453,1.989-4.443,4.443-4.443h0.114c2.454,0,4.443,1.99,4.443,4.443V376.012z"/>
	<path fill="#FF865D" d="M227.55,411.012c0,2.453-1.989,4.443-4.443,4.443h-0.114c-2.454,0-4.443-1.99-4.443-4.443v-0.113
		c0-2.453,1.989-4.443,4.443-4.443h0.114c2.454,0,4.443,1.99,4.443,4.443V411.012z"/>
	<path fill="none" d="M259.55,371.456v12.35v52.65h28.356c0,0,3.824,0,8.541,0h0.18c4.164,0,7.317-4.627,8.075-8.57l-0.152-1.174
		v-2.586v-52.67H259.55z"/>
	<polygon fill="#162C3F" points="304.55,368.456 259.55,368.456 259.55,381.108 259.55,383.456 304.55,383.456 	"/>
	<path fill="#78A89B" d="M204.942,329.16l19.033-21.781c0,0-35.309-42.924-36.583-54.924h-16.267
		C171.125,252.455,171.125,283.571,204.942,329.16z"/>
	<path fill="#78A89B" d="M243.02,329.16l-19.033-21.781c0,0,35.308-42.924,36.583-54.924h16.268
		C276.837,252.455,276.837,283.571,243.02,329.16z"/>
	<polygon fill="#162C3F" points="224.061,307.27 216.034,297.455 232.078,297.455 	"/>
</g>
</svg>
