<?xml version="1.0" encoding="utf-8"?>
<!-- Generator: Adobe Illustrator 16.0.0, SVG Export Plug-In . SVG Version: 6.00 Build 0)  -->
<!DOCTYPE svg PUBLIC "-//W3C//DTD SVG 1.1//EN" "http://www.w3.org/Graphics/SVG/1.1/DTD/svg11.dtd">
<svg version="1.1" id="Layer_1" xmlns="http://www.w3.org/2000/svg" xmlns:xlink="http://www.w3.org/1999/xlink" x="0px" y="0px"
	 width="361.61px" height="435.582px" viewBox="0 270.583 361.61 435.582" enable-background="new 0 270.583 361.61 435.582"
	 xml:space="preserve">
<g>
	<g>
		<g>
			<g>
				<g>
					<g>
						<g>
							<path fill="#F3F4F5" d="M339.917,665.9c0,8.824-4.49,13.316-13.314,13.314l-45.271,0.002
								c-8.828,0-13.322-4.492-13.322-13.316V556.708c0-8.826,4.494-13.314,13.322-13.314h45.271
								c8.824,0,13.314,4.488,13.314,13.314V665.9z"/>
							<path fill="#C9C9C9" d="M312.396,553.378c0,0.857-0.693,1.555-1.553,1.555h-13.756c-0.861,0-1.559-0.697-1.559-1.555l0,0
								c0-0.859,0.697-1.553,1.559-1.553h13.756C311.702,551.828,312.396,552.519,312.396,553.378L312.396,553.378z"/>
							
								<rect x="271.339" y="560.369" fill="#CE3E49" stroke="#CE3E49" stroke-width="3" stroke-miterlimit="10" width="64.914" height="99.205"/>
						</g>
					</g>
				</g>
			</g>
		</g>
		<path fill="#C9C9C9" d="M303.962,663.513c-3.039,0-5.5,2.463-5.5,5.5s2.461,5.5,5.5,5.5c3.041,0,5.5-2.463,5.5-5.5
			S307.003,663.513,303.962,663.513"/>
		<path fill="#91222F" d="M321.87,591.833c-1.705-1.705-5.975-0.193-8.018,1.85l-7.775,7.783
			c-0.758-0.705-19.648-7.441-20.326-6.764l-2.465,2.461c-0.682,0.68-0.682,1.781,0,2.461l13.807,10.83l-5.439,5.443
			c-0.412,0.414-0.936,1.053-1.48,1.811l-0.219-0.217c-0.346-0.346-5.305-0.973-5.65-0.627l-1.258,1.254
			c-0.346,0.346-0.346,0.906,0,1.252c0,0,0.229,0.23,0.619,0.617c0.703,0.705,1.939,1.938,3.322,3.316
			c-0.66,1.643-0.902,3.064-0.27,3.703c0.641,0.637,2.064,0.393,3.707-0.271c1.357,1.355,2.568,2.563,3.273,3.266
			c0.41,0.412,0.652,0.65,0.652,0.65c0.346,0.348,0.908,0.348,1.254,0l1.258-1.252c0.346-0.348-0.281-5.295-0.629-5.641
			l-0.213-0.213c0.754-0.549,1.387-1.066,1.799-1.477l5.441-5.449l10.836,13.766c0.68,0.68,1.783,0.68,2.465,0l2.465-2.463
			c0.68-0.678-6.078-19.564-6.775-20.297l7.77-7.773C322.063,597.81,323.573,593.535,321.87,591.833z"/>
	</g>
	<g>
		<g>
			<path fill="#3A3A3A" d="M82.488,682.707c0,4.678-3.794,8.473-8.473,8.473l0,0c-4.675,0-8.469-3.795-8.469-8.473v-20.924
				c0-4.684,3.793-8.471,8.469-8.471l0,0c4.679,0,8.473,3.787,8.473,8.471V682.707z"/>
			<path fill="#3A3A3A" d="M188.122,682.707c0,4.678-3.789,8.473-8.471,8.473l0,0c-4.68,0-8.465-3.795-8.465-8.473v-20.924
				c0-4.684,3.787-8.471,8.465-8.471l0,0c4.682,0,8.471,3.787,8.471,8.471V682.707z"/>
		</g>
		<g>
			<path fill="#3A3A3A" d="M230.124,493.839v7.488c4.929,2.107,8.388,7.004,8.388,12.713v19.512c0,5.705-3.459,10.604-8.388,12.711
				v7.49c9.688,0,17.556-7.867,17.556-17.557v-24.793C247.679,501.701,239.81,493.839,230.124,493.839z"/>
		</g>
		<g>
			<g>
				<path fill="none" d="M141.424,295.644h-30.759c-6.681,0-12.1,5.412-12.1,12.099v71.636h54.968v-71.636
					C153.533,301.056,148.113,295.644,141.424,295.644z"/>
				<path fill="#3A3A3A" d="M98.565,307.743c0-6.687,5.418-12.099,12.1-12.099h30.759c6.688,0,12.109,5.412,12.109,12.099v71.636
					h7.929v-78.222c0-8.609-6.981-15.589-15.6-15.589h-39.636c-8.607,0-15.59,6.979-15.59,15.589v78.222h7.929V307.743
					L98.565,307.743z"/>
			</g>
			<path fill="#212121" d="M165.241,293.444c0,4.34-2.791,7.867-6.231,7.867H92.766c-3.438,0-6.225-3.527-6.225-7.867l0,0
				c0-4.352,2.787-7.876,6.225-7.876h66.244C162.451,285.568,165.241,289.092,165.241,293.444L165.241,293.444z"/>
		</g>
		<path fill="#67B8CB" d="M231.971,656.386c0,12.521-10.147,22.67-22.663,22.67H44.36c-12.517,0-22.667-10.148-22.667-22.67V401.728
			c0-12.523,10.15-22.662,22.667-22.662h164.948c12.516,0,22.663,10.139,22.663,22.662V656.386z"/>
		<g>
			<path fill="#40ABB6" d="M211.435,636.882c0,10.066-8.166,18.234-18.242,18.234H60.471c-10.072,0-18.241-8.168-18.241-18.234
				V527.316c0-10.068,8.169-18.234,18.241-18.234h132.722c10.076,0,18.242,8.166,18.242,18.234V636.882z"/>
			<path fill="#58B4C3" d="M211.435,647.898c0,10.076-8.166,18.242-18.242,18.242H60.471c-10.072,0-18.241-8.166-18.241-18.242
				l2.757-109.559c0-10.076,8.17-18.244,18.237-18.244h126.588c10.078,0,18.234,8.168,18.234,18.244L211.435,647.898z"/>
			<g>
				<path fill="#40ABB6" d="M182.237,539.525H70.803c-1.392,0-2.521,2.463-2.521,5.508c0,3.039,1.128,5.508,2.521,5.508h111.435
					c1.392,0,2.52-2.469,2.52-5.508C184.757,541.988,183.629,539.525,182.237,539.525z"/>
				<path fill="#28868C" d="M182.237,543.773H70.803c-1.392,0-2.521,0.568-2.521,1.26c0,0.699,1.128,1.26,2.521,1.26h111.435
					c1.392,0,2.52-0.561,2.52-1.26C184.757,544.341,183.629,543.773,182.237,543.773z"/>
				<path fill="#258B90" d="M183.999,548.349c0-0.029,0-0.061,0-0.082c0-1.771-0.926-3.191-2.077-3.191
					c-1.149,0-2.081,1.422-2.081,3.191c0,0.021,0.007,0.053,0.007,0.082c-0.373,0.457-0.606,1.031-0.606,1.674
					c0,1.471,1.203,2.674,2.681,2.674c1.479,0,2.676-1.203,2.676-2.674C184.597,549.38,184.362,548.806,183.999,548.349z"/>
			</g>
		</g>
		<g>
			<g>
				<path fill="#40ABB6" d="M211.435,470.033c0,10.074-8.166,18.232-18.242,18.232H60.471c-10.072,0-18.241-8.158-18.241-18.232
					v-51.018c0-10.068,8.169-18.236,18.241-18.236h132.722c10.076,0,18.242,8.168,18.242,18.236V470.033z"/>
				<path fill="#58B4C3" d="M211.435,470.033c0,10.074-8.166,18.232-18.242,18.232H60.471c-10.072,0-18.241-8.158-18.241-18.232
					l2.757-41.873c0-10.067,8.17-18.235,18.237-18.235h126.588c10.078,0,18.234,8.168,18.234,18.235L211.435,470.033z"/>
			</g>
			<g>
				<path fill="#40ABB6" d="M182.237,419.125H70.803c-1.392,0-2.521,2.462-2.521,5.501c0,3.043,1.128,5.514,2.521,5.514h111.435
					c1.392,0,2.52-2.471,2.52-5.514C184.757,421.586,183.629,419.125,182.237,419.125z"/>
				<path fill="#28868C" d="M182.237,423.373H70.803c-1.392,0-2.521,0.561-2.521,1.254c0,0.699,1.128,1.259,2.521,1.259h111.435
					c1.392,0,2.52-0.56,2.52-1.259C184.757,423.931,183.629,423.373,182.237,423.373z"/>
				<path fill="#258B90" d="M183.999,427.947c0-0.028,0-0.057,0-0.094c0-1.766-0.926-3.185-2.077-3.185
					c-1.149,0-2.081,1.419-2.081,3.185c0,0.037,0.007,0.064,0.007,0.094c-0.373,0.461-0.606,1.027-0.606,1.668
					c0,1.479,1.203,2.674,2.681,2.674c1.479,0,2.676-1.195,2.676-2.674C184.597,428.974,184.362,428.408,183.999,427.947z"/>
			</g>
		</g>
	</g>
</g>
</svg>
