<?xml version="1.0" encoding="utf-8"?>
<!-- Generator: Adobe Illustrator 16.0.0, SVG Export Plug-In . SVG Version: 6.00 Build 0)  -->
<!DOCTYPE svg PUBLIC "-//W3C//DTD SVG 1.1//EN" "http://www.w3.org/Graphics/SVG/1.1/DTD/svg11.dtd">
<svg version="1.1" id="Layer_1" xmlns="http://www.w3.org/2000/svg" xmlns:xlink="http://www.w3.org/1999/xlink" x="0px" y="0px"
	 width="319.697px" height="395.455px" viewBox="0 0 319.697 395.455" enable-background="new 0 0 319.697 395.455"
	 xml:space="preserve">
<g>
	<g>
		<path fill="#F39463" d="M1842.429,144.311c0,0,16.967-1.286,17.74,21.082c0.77,22.368,2.313,33.68,2.313,33.68
			s1.799,16.199,1.799,18.511c0,2.314,0.416,13.21-3.855,23.074c-3.926,9.066-10.541,18.578-17.996,17.807
			c-7.457-0.771-14.656-6.43-17.227-19.025c-2.57-12.598-1.543-17.74,0-42.937c1.543-25.195,0.758-31.627,0.758-31.627
			S1823.638,145.726,1842.429,144.311z"/>
		<path fill="none" d="M1825.332,194.629c4.049,11.139,8.453,16.098,18.01,16.098h0.121c12.979,0,17.898-7.273,17.898-21.152
			l-1.549-27.925c-0.287-7.836-6.793-16.923-16.35-16.923h-0.121c-9.557,0-17.432,7.51-17.432,16.824L1825.332,194.629z"/>
		<path fill="#9D99AD" d="M1841.785,148.727c0,0-9.646,0.877-10.934,9.877c-1.283,8.994-1.283,17.406-1.283,17.406
			s-1.863,9.475,6.139,11.787c7.295,2.111,6.551,0.357,6.801,2.858l-0.016,0.844c0.025-0.161,0.045-0.31,0.063-0.451
			c0,41.031,0.035,0.283,0.063,0.443l-0.018-0.854c0.252-2.503-0.492-0.768,6.801-2.876c8.002-2.313,6.141-11.827,6.141-11.827
			s0-8.333-1.285-17.333c-1.285-8.996-10.295-9.875-10.295-9.875H1841.785z"/>
		<path fill="#B5573E" d="M1831.447,185.078c0.947,1.172,2.309,2.164,4.26,2.728c7.295,2.109,6.551,0.351,6.801,2.854l-0.016,0.84
			c0.025-0.159,0.045-0.31,0.063-0.449c0,41.029,0.035,0.281,0.063,0.441l-0.018-0.854c0.252-2.502-0.492-0.768,6.801-2.877
			c1.914-0.553,3.26-1.52,4.205-2.669C1849.917,184.465,1839.871,183.101,1831.447,185.078z"/>
		<line fill="none" x1="1850.576" y1="185.727" x2="1850.576" y2="209.727"/>
		<line fill="none" x1="1830.576" y1="188.727" x2="1830.576" y2="207.727"/>
		<path fill="#B5573E" d="M1831.275,205.466c3.039,3.656,6.781,4.727,12.188,4.727c4.852-0.681,17.154,1.993,17.928-21.598
			c0,0,2.895,22.097,2.895,26.677l-0.686,13.858c-1.129,5.557-5.475,9.6-10.887,9.6c-4.754,0-8.738-2.859-9.641-6.656
			c-0.906,3.797-4.891,6.656-9.643,6.656c-2.914,0-5.223-0.57-6.844-2.082c-1.391-1.301-2.277-3.289-2.605-6.207l-0.342-10.157
			l1.693-25.92C1825.332,193.557,1826.207,199.37,1831.275,205.466z"/>
		<rect x="1837.576" y="159.727" fill="#51515E" width="6" height="17"/>
		
			<line fill="none" stroke="#B5573E" stroke-width="2" stroke-miterlimit="10" x1="1846.576" y1="192.727" x2="1835.576" y2="192.727"/>
		
			<line fill="none" stroke="#B5573E" stroke-width="2" stroke-miterlimit="10" x1="1846.576" y1="197.727" x2="1835.576" y2="197.727"/>
		
			<line fill="none" stroke="#B5573E" stroke-width="2" stroke-miterlimit="10" x1="1846.576" y1="201.727" x2="1835.576" y2="201.727"/>
		<line fill="none" x1="1846.576" y1="207.727" x2="1835.576" y2="207.727"/>
		<path fill="#F39463" d="M1799.853,144.311c0,0-16.969-1.286-17.74,21.082s-2.314,33.68-2.314,33.68S1778,215.271,1778,217.583
			c0,2.314-0.416,13.21,3.857,23.074c3.926,9.066,10.541,18.578,17.996,17.807c7.457-0.771,14.656-6.43,17.227-19.025
			c2.57-12.598,1.543-17.74,0-42.937c-1.545-25.195-0.758-31.627-0.758-31.627S1818.644,145.726,1799.853,144.311z"/>
		<path fill="none" d="M1816.951,194.629c-4.049,11.139-8.453,16.098-18.01,16.098h-0.123c-12.977,0-17.896-7.273-17.896-21.152
			l1.549-27.925c0.287-7.836,6.793-16.923,16.348-16.923h0.123c9.557,0,17.432,7.51,17.432,16.824L1816.951,194.629z"/>
		<path fill="#9D99AD" d="M1800.498,148.727c0,0,9.645,0.877,10.93,9.877c1.287,8.994,1.287,17.406,1.287,17.406
			s1.863,9.475-6.139,11.787c-7.295,2.111-6.553,0.357-6.801,2.858l0.014,0.844c-0.023-0.161-0.045-0.31-0.061-0.451
			c0,41.031-0.037,0.283-0.063,0.443l0.016-0.854c-0.252-2.503,0.494-0.768-6.801-2.876c-8.002-2.313-6.139-11.827-6.139-11.827
			s0-8.333,1.285-17.333c1.285-8.996,10.295-9.875,10.295-9.875H1800.498z"/>
		<path fill="#B5573E" d="M1810.833,185.078c-0.947,1.172-2.309,2.164-4.258,2.728c-7.295,2.109-6.553,0.351-6.801,2.854l0.014,0.84
			c-0.023-0.159-0.045-0.31-0.061-0.449c0,41.029-0.037,0.281-0.063,0.441l0.016-0.854c-0.252-2.502,0.494-0.768-6.801-2.877
			c-1.914-0.553-3.258-1.52-4.205-2.669C1792.363,184.465,1802.41,183.101,1810.833,185.078z"/>
		<line fill="none" x1="1787.576" y1="185.727" x2="1787.576" y2="209.727"/>
		<line fill="none" x1="1808.576" y1="188.727" x2="1808.576" y2="207.727"/>
		<path fill="#B5573E" d="M1811.005,205.466c-3.037,3.656-6.781,4.727-12.188,4.727c-4.85-0.681-17.154,1.993-17.924-21.598
			c0,0-2.896,22.097-2.896,26.677l0.684,13.858c1.131,5.557,5.475,9.6,10.889,9.6c4.752,0,8.736-2.859,9.641-6.656
			c0.904,3.797,4.889,6.656,9.641,6.656c2.914,0,5.223-0.57,6.846-2.082c1.391-1.301,2.275-3.289,2.604-6.207l0.344-10.157
			l-1.693-25.92C1816.951,193.557,1816.074,199.37,1811.005,205.466z"/>
		
			<line fill="none" stroke="#B5573E" stroke-width="2" stroke-miterlimit="10" x1="1792.576" y1="192.727" x2="1804.576" y2="192.727"/>
		
			<line fill="none" stroke="#B5573E" stroke-width="2" stroke-miterlimit="10" x1="1792.576" y1="197.727" x2="1804.576" y2="197.727"/>
		
			<line fill="none" stroke="#B5573E" stroke-width="2" stroke-miterlimit="10" x1="1792.576" y1="201.727" x2="1804.576" y2="201.727"/>
		<line fill="none" x1="1794.576" y1="207.727" x2="1804.576" y2="207.727"/>
		<rect x="1794.576" y="159.727" fill="#51515E" width="6" height="17"/>
	</g>
	<path fill="#226C89" d="M1746.576,244.204c0,3.047-0.449,5.523-3.439,5.523h-81.619c-2.988,0-6.941-2.477-6.941-5.523v-91.587
		c0-3.046,3.953-5.889,6.941-5.889h81.619c2.99,0,3.439,2.843,3.439,5.889V244.204z"/>
	<path fill="#114859" d="M1718.396,157.727l28.18,7.084v-14.027c0-3.131,0.324-5.057-2.807-5.057H1660.3
		c-3.131,0-5.725,1.926-5.725,5.057v13.849l34.189-6.906H1718.396z"/>
	<rect x="1694.576" y="171.727" fill="#1FADE5" width="14" height="78"/>
	<polyline fill="none" points="1658.39,165.436 1689.371,157.727 1718.998,157.727 1751.193,167.792 	"/>
	<path fill="none" d="M1682.576,201.727h-13.488c1.564,2,0.488,3.135,0.488,5.134v37.032c0,1.367-1.088,2.621-1.895,3.602
		l14.895,0.102V201.727z"/>
	<path fill="none" d="M1669.576,206.861c0-1.999,1.076-3.134-0.488-5.134h-11.76c0,0,0.379,32.861,0.152,39.863
		c-0.152,4.713,5.67,5.763,5.67,5.763l6.194,0.093c0.805-0.979,0.231-2.186,0.231-3.553V206.861z"/>
	<line fill="none" x1="1656.576" y1="218.727" x2="1684.576" y2="218.727"/>
	<line fill="none" x1="1662.576" y1="218.727" x2="1662.576" y2="233.727"/>
	<line fill="none" x1="1677.576" y1="218.727" x2="1677.576" y2="233.727"/>
	<line fill="none" x1="1724.576" y1="218.727" x2="1750.576" y2="218.727"/>
	<line fill="none" x1="1659.576" y1="212.727" x2="1668.576" y2="212.727"/>
	<line fill="none" x1="1701.576" y1="185.727" x2="1701.576" y2="195.727"/>
	<line fill="none" x1="1701.576" y1="207.727" x2="1701.576" y2="218.727"/>
	<line fill="none" x1="1701.576" y1="229.727" x2="1701.576" y2="240.727"/>
	<line fill="none" x1="1701.576" y1="229.727" x2="1701.576" y2="240.727"/>
	<path fill="#F39463" d="M1665.576,212.237c0,1.375-1.115,2.49-2.49,2.49h-0.02c-1.375,0-2.49-1.115-2.49-2.49v-0.02
		c0-1.375,1.115-2.49,2.49-2.49h0.02c1.375,0,2.49,1.115,2.49,2.49V212.237z"/>
	<path fill="#F39463" d="M1704.576,192.238c0,1.375-1.115,2.489-2.49,2.489h-0.02c-1.375,0-2.49-1.114-2.49-2.489v-0.021
		c0-1.375,1.115-2.489,2.49-2.489h0.02c1.375,0,2.49,1.114,2.49,2.489V192.238z"/>
	<path fill="#F39463" d="M1704.576,215.237c0,1.375-1.115,2.49-2.49,2.49h-0.02c-1.375,0-2.49-1.115-2.49-2.49v-0.02
		c0-1.375,1.115-2.49,2.49-2.49h0.02c1.375,0,2.49,1.115,2.49,2.49V215.237z"/>
	<path fill="#F39463" d="M1704.576,234.237c0,1.375-1.115,2.49-2.49,2.49h-0.02c-1.375,0-2.49-1.115-2.49-2.49v-0.02
		c0-1.375,1.115-2.49,2.49-2.49h0.02c1.375,0,2.49,1.115,2.49,2.49V234.237z"/>
	<path fill="none" d="M1722.576,212.727v6.453v29.547h17.432c0,0,2.145,0,4.787,0h0.102c2.334,0,2.722-2.613,3.146-4.824
		l-1.466-0.676v-1.451v-29.049H1722.576z"/>
	<polygon fill="#114859" points="1746.576,210.727 1722.576,210.727 1722.576,217.667 1722.576,218.727 1746.576,218.727 	"/>
	<path fill="#45B9F5" d="M1693.513,188.635l10.666-12.167c0,0-19.789-24.741-20.502-30.741h-9.117
		C1674.56,145.727,1674.56,163.086,1693.513,188.635z"/>
	<path fill="#45B9F5" d="M1714.853,188.635l-10.668-12.167c0,0,19.789-24.741,20.502-30.741h9.117
		C1733.804,145.727,1733.804,163.086,1714.853,188.635z"/>
	<polygon fill="#114859" points="1704.228,177.229 1699.73,171.727 1708.72,171.727 	"/>
</g>
<g>
	<g>
		<g>
			<g>
				<g>
					<g>
						<path fill="#F3F4F5" d="M304.148,357.572c0,7.992-4.066,12.062-12.061,12.059l-41.003,0.003
							c-7.996,0-12.066-4.069-12.066-12.062v-98.898c0-7.994,4.07-12.061,12.066-12.061h41.003c7.994,0,12.061,4.066,12.061,12.061
							V357.572z"/>
						<path fill="#C9C9C9" d="M279.221,255.658c0,0.777-0.627,1.408-1.406,1.408h-12.459c-0.779,0-1.412-0.631-1.412-1.408l0,0
							c0-0.777,0.633-1.404,1.412-1.404h12.459C278.594,254.253,279.221,254.88,279.221,255.658L279.221,255.658z"/>
						<rect x="242.035" y="261.99" fill="#F9DC62" width="58.794" height="89.852"/>
					</g>
				</g>
			</g>
		</g>
	</g>
	<path fill-rule="evenodd" clip-rule="evenodd" fill="#C9C9C9" d="M271.582,355.41c-2.752,0-4.98,2.23-4.98,4.982
		c0,2.75,2.229,4.981,4.98,4.981c2.754,0,4.982-2.231,4.982-4.981C276.564,357.64,274.336,355.41,271.582,355.41"/>
</g>
<g>
	<g>
		<path fill="#2B2B33" d="M70.987,372.793c0,4.235-3.436,7.674-7.674,7.674l0,0c-4.234,0-7.67-3.438-7.67-7.674v-18.95
			c0-4.243,3.436-7.674,7.67-7.674l0,0c4.238,0,7.674,3.431,7.674,7.674V372.793z"/>
		<path fill="#2B2B33" d="M166.664,372.793c0,4.235-3.434,7.674-7.673,7.674l0,0c-4.238,0-7.668-3.438-7.668-7.674v-18.95
			c0-4.243,3.43-7.674,7.668-7.674l0,0c4.24,0,7.673,3.431,7.673,7.674V372.793z"/>
	</g>
	<g>
		<path fill="#3E3E49" d="M204.705,201.732v6.783c4.463,1.908,7.596,6.343,7.596,11.515v17.671c0,5.167-3.133,9.604-7.596,11.514
			v6.783c8.773,0,15.9-7.125,15.9-15.901v-22.454C220.605,208.851,213.479,201.732,204.705,201.732z"/>
	</g>
	<g>
		<g>
			<path fill="none" d="M124.368,22.22H96.508c-6.051,0-10.959,4.902-10.959,10.958v64.883h49.785V33.178
				C135.334,27.123,130.426,22.22,124.368,22.22z"/>
			<path fill="#3E3E49" d="M85.549,33.178c0-6.056,4.908-10.958,10.959-10.958h27.859c6.059,0,10.967,4.902,10.967,10.958v64.883
				h7.182V27.213c0-7.798-6.324-14.119-14.129-14.119H92.489c-7.797,0-14.121,6.321-14.121,14.119v70.848h7.182V33.178z"/>
		</g>
		<path fill="#2B2B33" d="M145.94,20.228c0,3.93-2.527,7.125-5.645,7.125H80.297c-3.113,0-5.637-3.195-5.637-7.125l0,0
			c0-3.941,2.523-7.134,5.637-7.134h59.998C143.413,13.094,145.94,16.287,145.94,20.228L145.94,20.228z"/>
	</g>
	<path fill="#45B9F5" d="M206.379,348.955c0,11.342-9.193,20.533-20.527,20.533H36.454c-11.336,0-20.529-9.191-20.529-20.533
		v-230.65c0-11.344,9.193-20.526,20.529-20.526h149.398c11.334,0,20.527,9.183,20.527,20.526V348.955z"/>
	<g>
		<path fill="#31ABDB" d="M187.777,331.291c0,9.117-7.395,16.516-16.521,16.516H51.047c-9.123,0-16.521-7.398-16.521-16.516v-99.238
			c0-9.119,7.398-16.516,16.521-16.516h120.208c9.127,0,16.521,7.396,16.521,16.516V331.291z"/>
		<path fill="#55C5F2" d="M187.777,341.267c0,9.127-7.395,16.522-16.521,16.522H51.047c-9.123,0-16.521-7.396-16.521-16.522
			l2.496-99.23c0-9.127,7.4-16.525,16.518-16.525h114.654c9.129,0,16.516,7.398,16.516,16.525L187.777,341.267z"/>
		<g>
			<path fill="#31ABDB" d="M161.334,243.111H60.403c-1.26,0-2.281,2.23-2.281,4.988c0,2.752,1.021,4.988,2.281,4.988h100.931
				c1.26,0,2.281-2.236,2.281-4.988C163.615,245.341,162.594,243.111,161.334,243.111z"/>
			<path fill="#3E3E49" d="M161.334,246.958H60.403c-1.26,0-2.281,0.515-2.281,1.141c0,0.634,1.021,1.141,2.281,1.141h100.931
				c1.26,0,2.281-0.507,2.281-1.141C163.615,247.473,162.594,246.958,161.334,246.958z"/>
			<path fill="#3E3E49" d="M162.93,251.102c0-0.025,0-0.054,0-0.073c0-1.604-0.84-2.891-1.883-2.891s-1.884,1.287-1.884,2.891
				c0,0.02,0.006,0.048,0.006,0.073c-0.336,0.414-0.549,0.935-0.549,1.517c0,1.332,1.09,2.422,2.427,2.422
				c1.34,0,2.424-1.09,2.424-2.422C163.471,252.037,163.258,251.516,162.93,251.102z"/>
		</g>
	</g>
	<g>
		<g>
			<path fill="#31ABDB" d="M187.777,180.169c0,9.125-7.395,16.514-16.521,16.514H51.047c-9.123,0-16.521-7.389-16.521-16.514
				v-46.207c0-9.121,7.398-16.518,16.521-16.518h120.208c9.127,0,16.521,7.396,16.521,16.518V180.169z"/>
			<path fill="#55C5F2" d="M187.777,180.169c0,9.125-7.395,16.514-16.521,16.514H51.047c-9.123,0-16.521-7.389-16.521-16.514
				l2.496-37.926c0-9.119,7.4-16.517,16.518-16.517h114.654c9.129,0,16.516,7.397,16.516,16.517L187.777,180.169z"/>
		</g>
		<g>
			<path fill="#31ABDB" d="M161.334,134.061H60.403c-1.26,0-2.281,2.229-2.281,4.982c0,2.756,1.021,4.993,2.281,4.993h100.931
				c1.26,0,2.281-2.237,2.281-4.993C163.615,136.291,162.594,134.061,161.334,134.061z"/>
			<path fill="#3E3E49" d="M161.334,137.908H60.403c-1.26,0-2.281,0.507-2.281,1.136c0,0.634,1.021,1.14,2.281,1.14h100.931
				c1.26,0,2.281-0.506,2.281-1.14C163.615,138.415,162.594,137.908,161.334,137.908z"/>
			<path fill="#3E3E49" d="M162.93,142.05c0-0.025,0-0.051,0-0.084c0-1.6-0.84-2.885-1.883-2.885s-1.884,1.285-1.884,2.885
				c0,0.033,0.006,0.059,0.006,0.084c-0.336,0.419-0.549,0.932-0.549,1.512c0,1.338,1.09,2.421,2.427,2.421
				c1.34,0,2.424-1.083,2.424-2.421C163.471,142.982,163.258,142.469,162.93,142.05z"/>
		</g>
	</g>
</g>
<g>
	<g>
		<path fill="#3E3E49" d="M37.226,123.014l-0.644-1.483c4.875-2.138,7.502-5.37,7.502-7.406c0-2.216-3.129-4.076-4.334-4.605
			l0.649-1.479c0.216,0.096,5.297,2.357,5.3,6.078C45.706,116.931,42.895,120.524,37.226,123.014z"/>
	</g>
	<g>
		<path fill="#45B9F5" d="M32.079,106.997c0,0-12.955,20.821-11.105,25.986l13.621,38.148c1.84,5.158,5.723,6.732,10.883,4.892
			l20.242-7.229c5.162-1.841,6.848-5.408,5.004-10.566l-13.621-38.148C55.259,114.922,32.079,106.997,32.079,106.997z
			 M39.162,124.731c-2.009,0.718-4.216-0.324-4.935-2.336c-0.713-2.002,0.328-4.213,2.336-4.933
			c2.008-0.717,4.215,0.334,4.931,2.337C42.213,121.802,41.165,124.01,39.162,124.731z"/>
	</g>
	<g>
		<path fill="#226C89" d="M31.586,107.815c0,0-12.491,20.2-10.69,25.24l13.291,37.238c1.806,5.035,5.282,6.687,10.317,4.885
			l19.76-7.054c5.035-1.798,6.682-5.278,4.883-10.315l-13.299-37.238C54.052,115.542,31.586,107.815,31.586,107.815z
			 M38.336,125.109c-1.958,0.7-4.115-0.319-4.813-2.276c-0.701-1.963,0.322-4.117,2.279-4.817c1.961-0.698,4.111,0.326,4.813,2.281
			C41.312,122.254,40.294,124.412,38.336,125.109z"/>
	</g>
	<g>
		<path fill="#3E3E49" d="M37.226,123.014c-0.081,0.025-0.174,0.045-0.265,0.04c-0.451,0-0.811-0.36-0.811-0.806
			c0-0.605,0.138-14.951,10.653-23.23c7.308-5.75,17.738-7.048,31.003-3.854c0.434,0.1,0.703,0.539,0.596,0.972
			c-0.102,0.432-0.539,0.698-0.973,0.593c-12.765-3.068-22.733-1.871-29.631,3.56c-9.906,7.792-10.035,21.819-10.035,21.96
			C37.764,122.599,37.542,122.893,37.226,123.014z"/>
	</g>
	<path fill="#FFFFFF" d="M29.692,138.504c-0.943-2.648,0.276-5.516,2.738-6.388l14.656-5.239c2.461-0.877,5.221,0.566,6.167,3.219
		l9.571,26.81c0.951,2.652-0.275,5.515-2.73,6.394l-14.657,5.236c-2.457,0.879-5.222-0.56-6.171-3.214L29.692,138.504z"/>
	<path fill="#94D6E2" d="M33.213,135.078c-0.775,0.278-1.184,1.138-0.906,1.917l9.848,27.582c0.278,0.777,1.138,1.185,1.916,0.905
		c0.777-0.279,1.188-1.137,0.908-1.918l-9.851-27.576C34.85,135.209,33.991,134.804,33.213,135.078z"/>
	<path fill="#94D6E2" d="M39.292,132.908c-0.779,0.279-1.18,1.139-0.902,1.916l9.843,27.577c0.282,0.779,1.136,1.184,1.92,0.904
		c0.776-0.28,1.185-1.132,0.903-1.91l-9.848-27.58C40.933,133.034,40.075,132.628,39.292,132.908z"/>
	<path fill="#94D6E2" d="M45.374,130.74c-0.781,0.278-1.184,1.137-0.905,1.917l9.847,27.572c0.278,0.78,1.133,1.186,1.914,0.907
		c0.777-0.279,1.187-1.139,0.906-1.917l-9.845-27.576C47.011,130.864,46.153,130.459,45.374,130.74z"/>
</g>
<polygon fill="#EACB49" points="242.035,351.841 242.035,261.99 300.83,261.99 "/>
<path fill="#B7913D" d="M287.803,290.488c-1.545-1.546-5.412-0.177-7.262,1.675l-7.043,7.05c-0.686-0.639-17.795-6.741-18.41-6.127
	l-2.232,2.23c-0.617,0.614-0.617,1.612,0,2.229l12.506,9.809l-4.93,4.93c-0.373,0.376-0.844,0.955-1.34,1.641l-0.199-0.197
	c-0.313-0.313-4.803-0.88-5.117-0.566l-1.139,1.135c-0.313,0.313-0.313,0.822,0,1.135c0,0,0.207,0.207,0.561,0.559
	c0.637,0.639,1.756,1.754,3.01,3.004c-0.598,1.487-0.818,2.777-0.242,3.354c0.578,0.577,1.869,0.355,3.357-0.245
	c1.229,1.227,2.326,2.32,2.965,2.957c0.371,0.373,0.59,0.59,0.59,0.59c0.314,0.314,0.822,0.314,1.137,0l1.139-1.135
	c0.313-0.314-0.254-4.795-0.57-5.108l-0.191-0.193c0.682-0.495,1.256-0.965,1.629-1.337l4.928-4.934l9.814,12.467
	c0.615,0.614,1.615,0.614,2.232,0l2.232-2.231c0.615-0.614-5.504-17.72-6.137-18.384l7.035-7.041
	C287.979,295.902,289.345,292.029,287.803,290.488z"/>
</svg>
