<?xml version="1.0" encoding="utf-8"?>
<!-- Generator: Adobe Illustrator 16.0.0, SVG Export Plug-In . SVG Version: 6.00 Build 0)  -->
<!DOCTYPE svg PUBLIC "-//W3C//DTD SVG 1.1//EN" "http://www.w3.org/Graphics/SVG/1.1/DTD/svg11.dtd">
<svg version="1.1" id="Layer_1" xmlns="http://www.w3.org/2000/svg" xmlns:xlink="http://www.w3.org/1999/xlink" x="0px" y="0px"
	 width="646.22px" height="706.165px" viewBox="0 0 646.22 706.165" enable-background="new 0 0 646.22 706.165"
	 xml:space="preserve">
<g>
	<g>
		<g>
			<g>
				<g>
					<g>
						<path fill="#F3F4F5" d="M490.636,534.044c0,8.824-4.49,13.316-13.316,13.313l-45.271,0.003
							c-8.828,0-13.322-4.492-13.322-13.316V424.852c0-8.827,4.494-13.315,13.322-13.315h45.271c8.826,0,13.316,4.488,13.316,13.315
							V534.044z"/>
						<path fill="#C9C9C9" d="M463.114,421.522c0,0.857-0.693,1.555-1.553,1.555h-13.756c-0.861,0-1.559-0.697-1.559-1.555l0,0
							c0-0.859,0.697-1.552,1.559-1.552h13.756C462.421,419.971,463.114,420.663,463.114,421.522L463.114,421.522z"/>
						
							<rect x="422.058" y="428.513" fill="#CE3E49" stroke="#CE3E49" stroke-width="3" stroke-miterlimit="10" width="64.914" height="99.204"/>
					</g>
				</g>
			</g>
		</g>
	</g>
	<path fill-rule="evenodd" clip-rule="evenodd" fill="#C9C9C9" d="M454.681,531.657c-3.039,0-5.5,2.462-5.5,5.5
		c0,3.037,2.461,5.5,5.5,5.5c3.041,0,5.5-2.463,5.5-5.5C460.181,534.119,457.722,531.657,454.681,531.657"/>
	<path fill="#91222F" d="M472.589,459.977c-1.705-1.706-5.975-0.194-8.018,1.85l-7.775,7.783
		c-0.758-0.705-19.648-7.442-20.326-6.764l-2.465,2.462c-0.682,0.679-0.682,1.78,0,2.461l13.807,10.829l-5.441,5.443
		c-0.412,0.415-0.934,1.054-1.48,1.811l-0.219-0.217c-0.346-0.346-5.305-0.972-5.65-0.626l-1.258,1.253
		c-0.346,0.346-0.346,0.907,0,1.253c0,0,0.229,0.229,0.619,0.617c0.703,0.705,1.939,1.936,3.322,3.316
		c-0.66,1.642-0.902,3.065-0.268,3.703c0.639,0.637,2.064,0.393,3.707-0.271c1.357,1.354,2.568,2.562,3.273,3.266
		c0.41,0.411,0.652,0.65,0.652,0.65c0.346,0.348,0.908,0.348,1.254,0l1.258-1.253c0.346-0.348-0.281-5.294-0.629-5.64l-0.213-0.214
		c0.754-0.547,1.387-1.065,1.799-1.476l5.441-5.448l10.836,13.765c0.68,0.679,1.783,0.679,2.465,0l2.465-2.463
		c0.68-0.678-6.078-19.564-6.775-20.297l7.768-7.774C472.782,465.954,474.292,461.679,472.589,459.977z"/>
</g>
<g>
	<g>
		<path fill="#3A3A3A" d="M233.206,550.85c0,4.677-3.794,8.473-8.473,8.473l0,0c-4.675,0-8.469-3.796-8.469-8.473v-20.923
			c0-4.685,3.793-8.472,8.469-8.472l0,0c4.679,0,8.473,3.787,8.473,8.472V550.85z"/>
		<path fill="#3A3A3A" d="M338.841,550.85c0,4.677-3.789,8.473-8.472,8.473l0,0c-4.679,0-8.465-3.796-8.465-8.473v-20.923
			c0-4.685,3.787-8.472,8.465-8.472l0,0c4.683,0,8.472,3.787,8.472,8.472V550.85z"/>
	</g>
	<g>
		<path fill="#3A3A3A" d="M380.842,361.982v7.49c4.929,2.106,8.388,7.003,8.388,12.713v19.51c0,5.705-3.459,10.604-8.388,12.712
			v7.489c9.687,0,17.556-7.866,17.556-17.556v-24.792C398.397,369.844,390.528,361.982,380.842,361.982z"/>
	</g>
	<g>
		<g>
			<path fill="none" d="M292.142,163.787h-30.759c-6.681,0-12.1,5.412-12.1,12.099v71.636h54.968v-71.636
				C304.251,169.199,298.831,163.787,292.142,163.787z"/>
			<path fill="#3A3A3A" d="M249.283,175.886c0-6.687,5.418-12.099,12.1-12.099h30.759c6.688,0,12.109,5.412,12.109,12.099v71.636
				h7.929V169.3c0-8.609-6.981-15.589-15.6-15.589h-39.636c-8.607,0-15.59,6.979-15.59,15.589v78.222h7.929V175.886z"/>
		</g>
		<path fill="#212121" d="M315.959,161.587c0,4.34-2.791,7.867-6.231,7.867h-66.244c-3.438,0-6.225-3.527-6.225-7.867l0,0
			c0-4.351,2.787-7.876,6.225-7.876h66.244C313.169,153.711,315.959,157.236,315.959,161.587L315.959,161.587z"/>
	</g>
	<path fill="#67B8CB" d="M382.689,524.53c0,12.521-10.148,22.669-22.663,22.669H195.078c-12.517,0-22.667-10.147-22.667-22.669
		V269.871c0-12.523,10.15-22.662,22.667-22.662h164.948c12.515,0,22.663,10.139,22.663,22.662V524.53z"/>
	<g>
		<path fill="#40ABB6" d="M362.153,505.026c0,10.067-8.166,18.235-18.242,18.235H211.189c-10.072,0-18.241-8.168-18.241-18.235
			V395.46c0-10.069,8.169-18.235,18.241-18.235h132.722c10.076,0,18.242,8.166,18.242,18.235V505.026z"/>
		<path fill="#58B4C3" d="M362.153,516.042c0,10.076-8.166,18.242-18.242,18.242H211.189c-10.072,0-18.241-8.166-18.241-18.242
			l2.757-109.56c0-10.076,8.17-18.244,18.237-18.244H340.53c10.078,0,18.234,8.168,18.234,18.244L362.153,516.042z"/>
		<g>
			<path fill="#40ABB6" d="M332.956,407.669H221.521c-1.392,0-2.521,2.463-2.521,5.507c0,3.039,1.128,5.509,2.521,5.509h111.435
				c1.391,0,2.519-2.47,2.519-5.509C335.475,410.132,334.347,407.669,332.956,407.669z"/>
			<path fill="#28868C" d="M332.956,411.917H221.521c-1.392,0-2.521,0.568-2.521,1.259c0,0.7,1.128,1.261,2.521,1.261h111.435
				c1.391,0,2.519-0.561,2.519-1.261C335.475,412.485,334.347,411.917,332.956,411.917z"/>
			<path fill="#258B90" d="M334.718,416.492c0-0.028,0-0.06,0-0.081c0-1.771-0.926-3.191-2.078-3.191
				c-1.15,0-2.081,1.421-2.081,3.191c0,0.021,0.007,0.053,0.007,0.081c-0.373,0.457-0.606,1.032-0.606,1.674
				c0,1.472,1.203,2.675,2.68,2.675c1.48,0,2.676-1.203,2.676-2.675C335.315,417.524,335.081,416.949,334.718,416.492z"/>
		</g>
	</g>
	<g>
		<g>
			<path fill="#40ABB6" d="M362.153,338.176c0,10.075-8.166,18.233-18.242,18.233H211.189c-10.072,0-18.241-8.158-18.241-18.233
				v-51.017c0-10.069,8.169-18.236,18.241-18.236h132.722c10.076,0,18.242,8.167,18.242,18.236V338.176z"/>
			<path fill="#58B4C3" d="M362.153,338.176c0,10.075-8.166,18.233-18.242,18.233H211.189c-10.072,0-18.241-8.158-18.241-18.233
				l2.757-41.873c0-10.067,8.17-18.235,18.237-18.235H340.53c10.078,0,18.234,8.168,18.234,18.235L362.153,338.176z"/>
		</g>
		<g>
			<path fill="#40ABB6" d="M332.956,287.269H221.521c-1.392,0-2.521,2.462-2.521,5.501c0,3.043,1.128,5.513,2.521,5.513h111.435
				c1.391,0,2.519-2.47,2.519-5.513C335.475,289.73,334.347,287.269,332.956,287.269z"/>
			<path fill="#28868C" d="M332.956,291.516H221.521c-1.392,0-2.521,0.56-2.521,1.254c0,0.699,1.128,1.259,2.521,1.259h111.435
				c1.391,0,2.519-0.56,2.519-1.259C335.475,292.075,334.347,291.516,332.956,291.516z"/>
			<path fill="#258B90" d="M334.718,296.09c0-0.028,0-0.057,0-0.094c0-1.765-0.926-3.184-2.078-3.184
				c-1.15,0-2.081,1.419-2.081,3.184c0,0.037,0.007,0.065,0.007,0.094c-0.373,0.462-0.606,1.028-0.606,1.669
				c0,1.478,1.203,2.673,2.68,2.673c1.48,0,2.676-1.195,2.676-2.673C335.315,297.118,335.081,296.552,334.718,296.09z"/>
		</g>
	</g>
</g>
</svg>
