<?xml version="1.0" encoding="utf-8"?>
<!-- Generator: Adobe Illustrator 17.0.0, SVG Export Plug-In . SVG Version: 6.00 Build 0)  -->
<!DOCTYPE svg PUBLIC "-//W3C//DTD SVG 1.1//EN" "http://www.w3.org/Graphics/SVG/1.1/DTD/svg11.dtd">
<svg version="1.1" id="Layer_1" xmlns="http://www.w3.org/2000/svg" xmlns:xlink="http://www.w3.org/1999/xlink" x="0px" y="0px"
	 width="196.31px" height="60px" viewBox="0 0 196.31 60" enable-background="new 0 0 196.31 60" xml:space="preserve">
<g>
	<g>
		<g>
			<g>
				<g>
					<rect x="0.31" fill="#CC72E1" width="187" height="50"/>
				</g>
				<g>
					<polygon fill="#AB52C1" points="196.31,60 187.31,50.967 187.31,0.059 196.31,9.186 					"/>
				</g>
				<g>
					<polygon fill="#7A3E89" points="196.31,60 9.078,60 0,50 187.394,50 					"/>
				</g>
			</g>
		</g>
	</g>
	<g>
		<path fill="#FFFFFF" d="M69.135,32.904v-9.573h-4.999v-4.249h5.999c1.899,0,3.499,1.325,3.499,3.049v10.772H69.135z"/>
		<path fill="#FFFFFF" d="M77.136,32.904V19.083h4.499v13.822H77.136z"/>
		<path fill="#FFFFFF" d="M99.857,30.78c-0.101,1.45-1.2,2.125-2.274,2.125H85.535l-1.024-13.822h4.349l0.4,5.349h0.95l0.324-5.349
			h4.249l-0.55,8.048H89.51l0.1,1.524h5.974l0.75-9.573h4.374L99.857,30.78z"/>
		<path fill="#FFFFFF" d="M104.335,27.905v-4.574h-1.624v-4.249h6.123v8.823H104.335z"/>
		<path fill="#FFFFFF" d="M118.859,32.904l-1.6-4.074l-0.375,0.5v3.574h-4.374v-7.273l2.024-1.924l-2.449-4.624h4.549l1.624,3.824
			l0.375-0.525v-3.299h4.374v6.923l-2.024,1.875l2.425,5.024H118.859z"/>
	</g>
</g>
</svg>
