<?xml version="1.0" encoding="utf-8"?>
<!-- Generator: Adobe Illustrator 16.0.0, SVG Export Plug-In . SVG Version: 6.00 Build 0)  -->
<!DOCTYPE svg PUBLIC "-//W3C//DTD SVG 1.1//EN" "http://www.w3.org/Graphics/SVG/1.1/DTD/svg11.dtd">
<svg version="1.1" id="Layer_1" xmlns="http://www.w3.org/2000/svg" xmlns:xlink="http://www.w3.org/1999/xlink" x="0px" y="0px"
	 width="319.697px" height="324.243px" viewBox="0 0 319.697 324.243" enable-background="new 0 0 319.697 324.243"
	 xml:space="preserve">
<rect x="40.576" y="120.606" fill="#FFFFFF" width="141" height="175"/>
<rect x="42.269" y="24.46" fill="#D13E33" width="139.42" height="63.1"/>
<rect x="42.269" y="24.46" fill="#D13E33" width="139.42" height="3.583"/>
<g>
	<path fill="#D8D8D8" d="M45.277,28.18v190.721c19.416,11.922,42.254,18.803,66.707,18.803c24.448,0,47.287-6.881,66.697-18.803
		V28.18H45.277z"/>
</g>
<g>
	<polygon fill="#CECECE" points="45.277,28.18 162.645,42.117 178.681,67.333 178.681,28.18 	"/>
</g>
<g>
	<path fill="#C1BFBF" d="M45.277,25.922v190.721c19.416,11.922,42.254,18.803,66.707,18.803c24.448,0,47.287-6.881,66.697-18.803
		V90.291L55.095,76.909L45.277,25.922z"/>
</g>
<g>
	
		<rect x="33.427" y="105.807" transform="matrix(0.0039 1 -1 0.0039 192.6695 32.4423)" fill="#EFEEE4" width="93.247" height="14.246"/>
	<g>
		<rect x="72.846" y="91.404" transform="matrix(1 -0.004 0.004 1 -0.3711 0.3241)" fill="#9E9D86" width="14.251" height="1.094"/>
	</g>
	<g>
		<g>
			<polygon fill="#E79E2F" points="87.068,84.782 86.94,52.452 72.689,52.504 72.817,84.834 			"/>
		</g>
		<g>
			<g>
				<g>
					<g>
						<path fill="#E5AA5C" d="M85.431,83.145c-0.445,0-0.807-0.353-0.807-0.798c-0.004-0.446,0.357-0.803,0.803-0.803
							c0.441-0.004,0.803,0.354,0.807,0.798C86.234,82.779,85.877,83.145,85.431,83.145z"/>
						<path fill="#E5AA5C" d="M81.695,83.158c-0.44,0.009-0.802-0.353-0.802-0.794c-0.005-0.445,0.353-0.807,0.798-0.811
							c0.441,0,0.803,0.357,0.807,0.803C82.499,82.797,82.141,83.158,81.695,83.158z"/>
						<circle fill="#E5AA5C" cx="77.96" cy="82.373" r="0.803"/>
						<path fill="#E5AA5C" d="M74.229,83.189c-0.441,0.004-0.803-0.357-0.807-0.798c0-0.445,0.357-0.807,0.803-0.807
							c0.441,0,0.803,0.357,0.803,0.798C75.031,82.828,74.674,83.189,74.229,83.189z"/>
					</g>
				</g>
			</g>
			<g>
				<g>
					<g>
						<path fill="#E5AA5C" d="M85.401,76.229c-0.441,0-0.803-0.357-0.803-0.798c-0.004-0.445,0.357-0.807,0.798-0.807
							c0.445-0.005,0.808,0.357,0.812,0.798C86.208,75.868,85.846,76.225,85.401,76.229z"/>
						<path fill="#E5AA5C" d="M81.669,76.243c-0.44,0.004-0.802-0.353-0.807-0.798c0-0.445,0.357-0.807,0.803-0.807
							c0.445-0.005,0.803,0.357,0.803,0.802C82.468,75.876,82.115,76.243,81.669,76.243z"/>
						<path fill="#E5AA5C" d="M77.938,76.26c-0.445,0-0.807-0.357-0.807-0.803c0-0.441,0.357-0.803,0.798-0.803
							c0.44-0.004,0.803,0.353,0.807,0.798C78.736,75.894,78.379,76.256,77.938,76.26z"/>
						<path fill="#E5AA5C" d="M74.202,76.273c-0.446,0.004-0.807-0.357-0.807-0.798c0-0.446,0.357-0.807,0.802-0.807
							c0.441,0,0.803,0.357,0.803,0.798C75.004,75.912,74.647,76.269,74.202,76.273z"/>
					</g>
				</g>
			</g>
			<g>
				<g>
					<g>
						<path fill="#E5AA5C" d="M85.378,69.309c-0.44,0.004-0.807-0.353-0.807-0.799c-0.004-0.44,0.353-0.802,0.798-0.802
							s0.807,0.353,0.807,0.798C86.182,68.948,85.82,69.309,85.378,69.309z"/>
						<path fill="#E5AA5C" d="M81.643,69.327c-0.445,0.004-0.803-0.357-0.803-0.803c-0.004-0.44,0.353-0.802,0.799-0.802
							c0.44,0,0.802,0.357,0.802,0.798C82.446,68.965,82.084,69.322,81.643,69.327z"/>
						<path fill="#E5AA5C" d="M77.907,69.34c-0.445,0.004-0.802-0.357-0.802-0.798c0-0.445,0.353-0.803,0.798-0.807
							c0.446,0,0.803,0.357,0.808,0.798C78.71,68.978,78.356,69.34,77.907,69.34z"/>
						<path fill="#E5AA5C" d="M74.176,69.358c-0.446,0-0.803-0.357-0.803-0.803c-0.009-0.441,0.353-0.803,0.798-0.807
							c0.441,0,0.803,0.357,0.803,0.803C74.974,68.991,74.621,69.353,74.176,69.358z"/>
					</g>
				</g>
			</g>
			<g>
				<g>
					<g>
						<path fill="#E5AA5C" d="M83.597,79.74c-0.446,0.004-0.803-0.357-0.803-0.798c-0.005-0.445,0.353-0.803,0.798-0.807
							c0.441-0.005,0.803,0.356,0.803,0.798C84.395,79.378,84.038,79.74,83.597,79.74z"/>
						<circle fill="#E5AA5C" cx="79.856" cy="78.951" r="0.803"/>
						<path fill="#E5AA5C" d="M76.129,79.771c-0.445,0.005-0.807-0.357-0.807-0.802c-0.004-0.441,0.357-0.803,0.798-0.807
							c0.445,0,0.807,0.356,0.807,0.802C76.928,79.409,76.571,79.767,76.129,79.771z"/>
					</g>
				</g>
			</g>
			<g>
				<g>
					<g>
						<circle fill="#E5AA5C" cx="83.566" cy="72.022" r="0.803"/>
						<path fill="#E5AA5C" d="M79.834,72.838c-0.44,0-0.802-0.358-0.802-0.798c-0.005-0.446,0.357-0.808,0.798-0.808
							s0.803,0.357,0.807,0.803C80.637,72.476,80.275,72.838,79.834,72.838z"/>
						<path fill="#E5AA5C" d="M76.099,72.851c-0.441,0.004-0.803-0.354-0.803-0.798c-0.004-0.446,0.353-0.803,0.798-0.807
							c0.445-0.005,0.803,0.357,0.807,0.802C76.901,72.489,76.544,72.851,76.099,72.851z"/>
					</g>
				</g>
			</g>
		</g>
		<g>
			<g>
				<g>
					<g>
						<path fill="#E5AA5C" d="M85.348,62.393c-0.441,0.004-0.803-0.357-0.803-0.798c-0.004-0.441,0.357-0.803,0.798-0.807
							c0.445,0,0.807,0.357,0.807,0.798C86.15,62.031,85.793,62.393,85.348,62.393z"/>
						<path fill="#E5AA5C" d="M81.616,62.411c-0.445,0-0.803-0.357-0.807-0.803c0-0.441,0.357-0.803,0.803-0.807
							c0.441,0,0.803,0.362,0.808,0.803C82.419,62.044,82.062,62.406,81.616,62.411z"/>
						<path fill="#E5AA5C" d="M77.885,62.424c-0.445,0-0.812-0.357-0.812-0.798c0-0.445,0.357-0.807,0.803-0.807
							c0.441,0,0.807,0.358,0.807,0.798C78.683,62.058,78.326,62.419,77.885,62.424z"/>
						<path fill="#E5AA5C" d="M74.149,62.441c-0.445,0-0.807-0.357-0.807-0.803c0-0.445,0.357-0.807,0.802-0.807
							c0.441,0,0.803,0.357,0.803,0.803C74.947,62.076,74.59,62.437,74.149,62.441z"/>
					</g>
				</g>
			</g>
			<g>
				<g>
					<g>
						<path fill="#E5AA5C" d="M85.326,55.477c-0.445,0-0.807-0.357-0.807-0.803c-0.005-0.437,0.353-0.803,0.798-0.803
							c0.441,0,0.807,0.353,0.807,0.798C86.128,55.115,85.767,55.477,85.326,55.477z"/>
						<path fill="#E5AA5C" d="M81.59,55.495c-0.441,0-0.807-0.361-0.807-0.803c-0.005-0.445,0.357-0.807,0.798-0.807
							c0.445,0,0.807,0.362,0.811,0.798C82.392,55.128,82.031,55.491,81.59,55.495z"/>
						<path fill="#E5AA5C" d="M77.854,55.508c-0.441,0-0.803-0.361-0.803-0.803c0-0.445,0.353-0.802,0.794-0.807
							c0.45,0,0.807,0.357,0.812,0.803C78.657,55.142,78.3,55.504,77.854,55.508z"/>
						<path fill="#E5AA5C" d="M74.118,55.521c-0.441,0.004-0.798-0.357-0.803-0.803c-0.004-0.44,0.353-0.802,0.803-0.807
							c0.441,0,0.803,0.362,0.803,0.803C74.921,55.16,74.563,55.521,74.118,55.521z"/>
					</g>
				</g>
			</g>
			<g>
				<g>
					<g>
						<path fill="#E5AA5C" d="M83.54,65.904c-0.441,0.005-0.803-0.353-0.803-0.798c-0.004-0.441,0.354-0.803,0.799-0.803
							c0.445-0.004,0.802,0.353,0.807,0.798C84.342,65.542,83.985,65.904,83.54,65.904z"/>
						<path fill="#E5AA5C" d="M79.808,65.922c-0.44,0.004-0.802-0.357-0.807-0.803c0-0.44,0.357-0.803,0.799-0.803
							c0.445-0.004,0.807,0.353,0.807,0.799C80.611,65.56,80.249,65.917,79.808,65.922z"/>
						<path fill="#E5AA5C" d="M76.077,65.935c-0.446,0-0.807-0.357-0.807-0.803c0-0.44,0.353-0.802,0.798-0.802
							c0.441-0.005,0.803,0.357,0.807,0.798C76.875,65.573,76.518,65.93,76.077,65.935z"/>
					</g>
				</g>
			</g>
			<g>
				<g>
					<g>
						<path fill="#E5AA5C" d="M83.513,58.988c-0.441,0.005-0.803-0.357-0.803-0.798c-0.004-0.445,0.357-0.807,0.798-0.807
							c0.445,0,0.807,0.353,0.807,0.798C84.315,58.626,83.958,58.988,83.513,58.988z"/>
						<path fill="#E5AA5C" d="M79.781,59.001c-0.445,0.005-0.802-0.357-0.802-0.798c-0.005-0.44,0.353-0.803,0.798-0.807
							c0.44,0,0.802,0.362,0.802,0.798C80.58,58.64,80.223,59.001,79.781,59.001z"/>
						<path fill="#E5AA5C" d="M76.045,59.019c-0.441,0-0.802-0.357-0.802-0.799c-0.005-0.445,0.353-0.807,0.798-0.807
							c0.446-0.004,0.803,0.354,0.807,0.799C76.848,58.653,76.491,59.014,76.045,59.019z"/>
					</g>
				</g>
			</g>
		</g>
	</g>
</g>
<g>
	
		<rect x="70.331" y="142.471" transform="matrix(0.0039 1 -1 0.0039 266.0945 32.0565)" fill="#EFEEE4" width="93.251" height="14.242"/>
	<g>
		
			<rect x="109.752" y="128.064" transform="matrix(1 -0.0037 0.0037 1 -0.4797 0.4375)" fill="#9E9D86" width="14.247" height="1.102"/>
	</g>
	<g>
		<g>
			
				<rect x="100.622" y="98.179" transform="matrix(0.004 1 -1 0.004 221.6224 -11.9001)" fill="#E79E2F" width="32.326" height="14.246"/>
		</g>
		<g>
			<g>
				<g>
					<g>
						<path fill="#E5AA5C" d="M122.335,119.812c-0.441,0-0.803-0.358-0.803-0.803c-0.004-0.445,0.357-0.803,0.799-0.803
							c0.445-0.004,0.802,0.353,0.807,0.799C123.139,119.445,122.781,119.807,122.335,119.812z"/>
						<path fill="#E5AA5C" d="M118.6,119.825c-0.441,0-0.803-0.362-0.803-0.803c0-0.445,0.353-0.803,0.803-0.803
							c0.441-0.004,0.803,0.353,0.803,0.799C119.407,119.458,119.049,119.82,118.6,119.825z"/>
						<path fill="#E5AA5C" d="M114.873,119.833c-0.446,0.005-0.808-0.353-0.812-0.798c0-0.441,0.357-0.803,0.803-0.807
							c0.441,0,0.803,0.357,0.803,0.803C115.671,119.476,115.313,119.833,114.873,119.833z"/>
						<path fill="#E5AA5C" d="M111.137,119.851c-0.445,0-0.803-0.357-0.807-0.799c0-0.445,0.357-0.807,0.798-0.807
							c0.445-0.005,0.807,0.353,0.807,0.798C111.94,119.484,111.578,119.851,111.137,119.851z"/>
					</g>
				</g>
			</g>
			<g>
				<g>
					<g>
						<path fill="#E5AA5C" d="M122.309,112.891c-0.445,0-0.803-0.357-0.807-0.802c0-0.441,0.357-0.803,0.803-0.808
							c0.441,0,0.807,0.357,0.807,0.803S122.755,112.887,122.309,112.891z"/>
						<path fill="#E5AA5C" d="M118.578,112.904c-0.446,0.005-0.807-0.357-0.807-0.798c-0.004-0.446,0.357-0.807,0.798-0.807
							c0.445,0,0.807,0.357,0.807,0.798C119.376,112.538,119.023,112.904,118.578,112.904z"/>
						<path fill="#E5AA5C" d="M114.846,112.922c-0.445,0-0.807-0.357-0.807-0.803c-0.004-0.441,0.353-0.807,0.798-0.807
							c0.441,0,0.803,0.357,0.807,0.803C115.645,112.555,115.287,112.917,114.846,112.922z"/>
						<path fill="#E5AA5C" d="M111.11,112.935c-0.445,0-0.807-0.357-0.807-0.803c0-0.441,0.357-0.803,0.798-0.803
							c0.445-0.004,0.803,0.357,0.807,0.799C111.909,112.569,111.551,112.935,111.11,112.935z"/>
					</g>
				</g>
			</g>
			<g>
				<g>
					<g>
						<path fill="#E5AA5C" d="M122.283,105.971c-0.441,0.004-0.803-0.354-0.807-0.799c-0.005-0.441,0.357-0.802,0.802-0.807
							c0.446,0,0.803,0.362,0.807,0.803C123.085,105.609,122.729,105.971,122.283,105.971z"/>
						<path fill="#E5AA5C" d="M118.551,105.988c-0.446,0-0.807-0.358-0.807-0.803c0-0.441,0.357-0.802,0.798-0.802
							c0.446,0,0.807,0.357,0.807,0.798C119.349,105.626,118.992,105.984,118.551,105.988z"/>
						<path fill="#E5AA5C" d="M114.815,106.001c-0.446,0.004-0.807-0.358-0.807-0.803c0-0.441,0.353-0.803,0.803-0.803
							c0.441,0,0.803,0.357,0.803,0.798C115.618,105.64,115.261,106.001,114.815,106.001z"/>
						<path fill="#E5AA5C" d="M111.08,106.015c-0.441,0.004-0.803-0.358-0.803-0.798c-0.004-0.441,0.357-0.803,0.798-0.807
							c0.445,0,0.803,0.357,0.803,0.803C111.882,105.653,111.525,106.015,111.08,106.015z"/>
					</g>
				</g>
			</g>
			<g>
				<g>
					<g>
						<path fill="#E5AA5C" d="M120.5,116.402c-0.441,0.004-0.803-0.357-0.803-0.803c-0.004-0.441,0.353-0.802,0.799-0.802
							c0.44-0.005,0.802,0.357,0.802,0.798C121.299,116.04,120.942,116.397,120.5,116.402z"/>
						<circle fill="#E5AA5C" cx="116.765" cy="115.614" r="0.805"/>
						<path fill="#E5AA5C" d="M113.034,116.432c-0.441,0-0.807-0.356-0.807-0.802s0.357-0.803,0.802-0.803
							c0.441,0,0.803,0.357,0.803,0.798C113.836,116.066,113.479,116.428,113.034,116.432z"/>
					</g>
				</g>
			</g>
			<g>
				<g>
					<g>
						<path fill="#E5AA5C" d="M120.474,109.486c-0.441,0-0.803-0.357-0.803-0.803c-0.004-0.441,0.357-0.803,0.799-0.807
							c0.44,0,0.802,0.357,0.802,0.798C121.277,109.12,120.92,109.486,120.474,109.486z"/>
						<path fill="#E5AA5C" d="M116.738,109.499c-0.441,0-0.798-0.357-0.803-0.803c0-0.441,0.357-0.803,0.799-0.803
							c0.445,0,0.807,0.357,0.807,0.798C117.542,109.137,117.184,109.495,116.738,109.499z"/>
						<circle fill="#E5AA5C" cx="113.003" cy="108.709" r="0.803"/>
					</g>
				</g>
			</g>
		</g>
		<g>
			<g>
				<g>
					<g>
						<path fill="#E5AA5C" d="M122.256,99.055c-0.441,0-0.803-0.357-0.803-0.803c-0.004-0.441,0.353-0.798,0.798-0.803
							c0.441,0,0.803,0.357,0.807,0.803C123.059,98.693,122.697,99.055,122.256,99.055z"/>
						<path fill="#E5AA5C" d="M118.525,99.072c-0.446,0.004-0.807-0.357-0.807-0.803c0-0.445,0.353-0.807,0.798-0.807
							c0.441,0,0.803,0.357,0.807,0.803C119.323,98.706,118.97,99.068,118.525,99.072z"/>
						<path fill="#E5AA5C" d="M114.789,99.085c-0.441,0-0.807-0.357-0.807-0.798c0-0.445,0.357-0.807,0.803-0.807
							c0.441-0.005,0.802,0.353,0.802,0.798C115.587,98.724,115.234,99.085,114.789,99.085z"/>
						<path fill="#E5AA5C" d="M111.053,99.099c-0.446,0-0.803-0.357-0.803-0.802c0-0.438,0.357-0.803,0.799-0.803
							c0.441,0,0.802,0.357,0.802,0.798C111.856,98.737,111.499,99.099,111.053,99.099z"/>
					</g>
				</g>
			</g>
			<g>
				<g>
					<g>
						<path fill="#E5AA5C" d="M122.229,92.138c-0.445,0-0.802-0.357-0.807-0.802c-0.004-0.441,0.357-0.803,0.803-0.803
							c0.441-0.004,0.803,0.358,0.807,0.799C123.032,91.777,122.675,92.138,122.229,92.138z"/>
						<path fill="#E5AA5C" d="M118.494,92.152c-0.441,0-0.802-0.357-0.802-0.803c-0.004-0.437,0.353-0.803,0.798-0.803
							c0.446,0,0.807,0.358,0.807,0.799C119.296,91.791,118.939,92.152,118.494,92.152z"/>
						<path fill="#E5AA5C" d="M114.762,92.169c-0.445,0-0.807-0.362-0.807-0.803c0-0.445,0.357-0.803,0.798-0.807
							c0.446,0,0.803,0.357,0.807,0.803C115.561,91.803,115.208,92.165,114.762,92.169z"/>
						<path fill="#E5AA5C" d="M111.026,92.183c-0.441,0-0.803-0.357-0.807-0.803c0-0.437,0.357-0.803,0.803-0.807
							c0.441,0,0.802,0.361,0.802,0.803C111.83,91.821,111.472,92.183,111.026,92.183z"/>
					</g>
				</g>
			</g>
			<g>
				<g>
					<g>
						<path fill="#E5AA5C" d="M120.448,102.566c-0.445,0.004-0.803-0.354-0.803-0.799c-0.004-0.446,0.353-0.807,0.794-0.807
							c0.445,0,0.807,0.357,0.807,0.803C121.246,102.204,120.894,102.566,120.448,102.566z"/>
						<path fill="#E5AA5C" d="M116.712,102.583c-0.441,0-0.803-0.357-0.803-0.803c-0.004-0.446,0.357-0.802,0.798-0.807
							c0.445,0,0.803,0.357,0.807,0.803C117.515,102.221,117.158,102.579,116.712,102.583z"/>
						<path fill="#E5AA5C" d="M112.98,102.596c-0.446,0-0.807-0.357-0.807-0.803c0-0.441,0.357-0.802,0.803-0.802
							c0.441-0.005,0.803,0.356,0.807,0.798C113.783,102.235,113.421,102.596,112.98,102.596z"/>
					</g>
				</g>
			</g>
			<g>
				<g>
					<g>
						<path fill="#E5AA5C" d="M120.421,95.649c-0.441,0-0.803-0.353-0.807-0.798c-0.005-0.445,0.362-0.807,0.802-0.807
							c0.441-0.004,0.803,0.357,0.807,0.803C121.224,95.288,120.862,95.649,120.421,95.649z"/>
						<path fill="#E5AA5C" d="M116.686,95.663c-0.441,0.005-0.803-0.357-0.803-0.798c0-0.445,0.353-0.807,0.798-0.807
							c0.446,0,0.803,0.357,0.807,0.803C117.488,95.301,117.131,95.663,116.686,95.663z"/>
						<path fill="#E5AA5C" d="M112.95,95.676c-0.441,0-0.803-0.357-0.803-0.799c0-0.441,0.353-0.803,0.803-0.807
							c0.441,0,0.803,0.357,0.803,0.803C113.757,95.319,113.399,95.676,112.95,95.676z"/>
					</g>
				</g>
			</g>
		</g>
	</g>
</g>
<g>
	
		<rect x="53.324" y="142.469" transform="matrix(0.0039 1 -1 0.0039 249.1478 49.0559)" fill="#EFEEE4" width="93.251" height="14.247"/>
	<g>
		<polygon fill="#9E9D86" points="106.991,128.037 92.744,128.09 92.744,129.192 106.991,129.135 		"/>
	</g>
	<g>
		<g>
			
				<rect x="83.614" y="98.179" transform="matrix(0.004 1 -1 0.004 204.6837 5.1092)" fill="#E79E2F" width="32.326" height="14.247"/>
		</g>
		<g>
			<g>
				<g>
					<g>
						<path fill="#E5AA5C" d="M105.333,119.812c-0.45,0-0.808-0.358-0.812-0.803c0-0.445,0.357-0.803,0.803-0.803
							c0.441-0.004,0.803,0.353,0.803,0.799C106.135,119.445,105.773,119.807,105.333,119.812z"/>
						<path fill="#E5AA5C" d="M101.592,119.825c-0.441,0-0.803-0.362-0.803-0.803c-0.004-0.445,0.354-0.803,0.799-0.803
							c0.441-0.004,0.802,0.353,0.807,0.799C102.395,119.458,102.038,119.82,101.592,119.825z"/>
						<circle fill="#E5AA5C" cx="97.856" cy="119.03" r="0.803"/>
						<path fill="#E5AA5C" d="M94.125,119.851c-0.441,0-0.803-0.357-0.807-0.799c0-0.445,0.357-0.807,0.803-0.807
							c0.445-0.005,0.803,0.353,0.803,0.798C94.928,119.484,94.57,119.851,94.125,119.851z"/>
					</g>
				</g>
			</g>
			<g>
				<g>
					<g>
						<path fill="#E5AA5C" d="M105.297,112.891c-0.441,0-0.803-0.357-0.803-0.802c0-0.441,0.357-0.803,0.803-0.808
							c0.441,0,0.802,0.357,0.807,0.803C106.104,112.529,105.747,112.887,105.297,112.891z"/>
						<path fill="#E5AA5C" d="M101.566,112.904c-0.441,0.005-0.803-0.357-0.803-0.798c-0.004-0.446,0.354-0.807,0.799-0.807
							c0.445,0,0.802,0.357,0.807,0.798C102.369,112.538,102.011,112.904,101.566,112.904z"/>
						<path fill="#E5AA5C" d="M97.834,112.922c-0.44,0-0.807-0.357-0.807-0.803c0-0.441,0.357-0.807,0.799-0.807
							c0.441,0,0.807,0.357,0.807,0.803C98.633,112.555,98.275,112.917,97.834,112.922z"/>
						<path fill="#E5AA5C" d="M94.098,112.935c-0.445,0-0.802-0.357-0.802-0.803c0-0.441,0.353-0.803,0.798-0.803
							c0.441-0.004,0.803,0.357,0.807,0.799C94.901,112.569,94.544,112.935,94.098,112.935z"/>
					</g>
				</g>
			</g>
			<g>
				<g>
					<g>
						<path fill="#E5AA5C" d="M105.275,105.971c-0.446,0.004-0.803-0.354-0.807-0.799c0-0.441,0.353-0.802,0.802-0.807
							c0.441,0,0.803,0.362,0.803,0.803C106.078,105.609,105.721,105.971,105.275,105.971z"/>
						<circle fill="#E5AA5C" cx="101.537" cy="105.186" r="0.803"/>
						<path fill="#E5AA5C" d="M97.804,106.001c-0.441,0.004-0.803-0.358-0.808-0.803c0-0.441,0.362-0.803,0.808-0.803
							c0.44,0,0.803,0.357,0.803,0.798C98.611,105.64,98.253,106.001,97.804,106.001z"/>
						<path fill="#E5AA5C" d="M94.072,106.015c-0.445,0.004-0.802-0.358-0.807-0.798c0-0.441,0.357-0.803,0.799-0.807
							c0.45,0,0.807,0.357,0.811,0.803C94.875,105.653,94.518,106.015,94.072,106.015z"/>
					</g>
				</g>
			</g>
			<g>
				<g>
					<g>
						<path fill="#E5AA5C" d="M103.493,116.402c-0.446,0.004-0.802-0.357-0.802-0.803c-0.005-0.441,0.356-0.802,0.798-0.802
							c0.441-0.005,0.803,0.357,0.803,0.798C104.292,116.04,103.935,116.397,103.493,116.402z"/>
						<path fill="#E5AA5C" d="M99.757,116.419c-0.446,0-0.803-0.356-0.807-0.802c0-0.446,0.357-0.803,0.803-0.807
							c0.441,0,0.803,0.357,0.807,0.798C100.56,116.053,100.203,116.415,99.757,116.419z"/>
						<path fill="#E5AA5C" d="M96.026,116.432c-0.445,0-0.807-0.356-0.807-0.802s0.357-0.803,0.798-0.803
							c0.445,0,0.807,0.357,0.807,0.798C96.829,116.066,96.467,116.428,96.026,116.432z"/>
					</g>
				</g>
			</g>
			<g>
				<g>
					<g>
						<path fill="#E5AA5C" d="M103.467,109.486c-0.446,0-0.807-0.357-0.807-0.803c0-0.441,0.357-0.803,0.798-0.807
							c0.446,0,0.807,0.357,0.807,0.798C104.265,109.12,103.908,109.486,103.467,109.486z"/>
						<path fill="#E5AA5C" d="M99.731,109.499c-0.441,0-0.803-0.357-0.803-0.803c-0.004-0.441,0.354-0.803,0.799-0.803
							s0.802,0.357,0.807,0.798C100.534,109.137,100.176,109.495,99.731,109.499z"/>
						<path fill="#E5AA5C" d="M95.995,109.512c-0.441,0.004-0.803-0.357-0.803-0.798c-0.004-0.445,0.357-0.807,0.798-0.807
							c0.445,0,0.803,0.357,0.807,0.803C96.802,109.15,96.44,109.512,95.995,109.512z"/>
					</g>
				</g>
			</g>
		</g>
		<g>
			<g>
				<g>
					<g>
						<path fill="#E5AA5C" d="M105.244,99.055c-0.441,0-0.802-0.357-0.802-0.803c-0.005-0.441,0.357-0.798,0.798-0.803
							c0.446,0,0.807,0.357,0.807,0.803C106.047,98.693,105.689,99.055,105.244,99.055z"/>
						<path fill="#E5AA5C" d="M101.513,99.072c-0.441,0.004-0.803-0.357-0.808-0.803c0-0.445,0.357-0.807,0.803-0.807
							c0.441,0,0.803,0.357,0.807,0.803C102.32,98.706,101.958,99.068,101.513,99.072z"/>
						<circle fill="#E5AA5C" cx="97.777" cy="98.283" r="0.803"/>
						<path fill="#E5AA5C" d="M94.045,99.099c-0.445,0-0.807-0.357-0.807-0.802c0-0.438,0.357-0.803,0.798-0.803
							c0.445,0,0.803,0.357,0.812,0.798C94.848,98.737,94.491,99.099,94.045,99.099z"/>
					</g>
				</g>
			</g>
			<g>
				<g>
					<g>
						<path fill="#E5AA5C" d="M105.222,92.138c-0.445,0-0.808-0.357-0.808-0.802c0-0.441,0.357-0.803,0.803-0.803
							c0.441-0.004,0.803,0.358,0.803,0.799C106.025,91.777,105.663,92.138,105.222,92.138z"/>
						<path fill="#E5AA5C" d="M101.486,92.152c-0.441,0-0.803-0.357-0.807-0.803c0-0.437,0.357-0.803,0.803-0.803
							c0.441,0,0.803,0.358,0.807,0.799C102.289,91.791,101.927,92.152,101.486,92.152z"/>
						<path fill="#E5AA5C" d="M97.75,92.169c-0.441,0-0.803-0.362-0.803-0.803c0-0.445,0.353-0.803,0.798-0.807
							c0.445,0,0.803,0.357,0.807,0.803C98.558,91.803,98.196,92.165,97.75,92.169z"/>
						<path fill="#E5AA5C" d="M94.015,92.183c-0.441,0-0.798-0.357-0.803-0.803c0-0.437,0.353-0.803,0.798-0.807
							c0.445,0,0.807,0.361,0.807,0.803C94.817,91.821,94.465,92.183,94.015,92.183z"/>
					</g>
				</g>
			</g>
			<g>
				<g>
					<g>
						<path fill="#E5AA5C" d="M103.436,102.566c-0.441,0.004-0.803-0.354-0.803-0.799c0-0.446,0.357-0.807,0.798-0.807
							c0.446,0,0.807,0.357,0.807,0.803C104.238,102.204,103.886,102.566,103.436,102.566z"/>
						<path fill="#E5AA5C" d="M99.705,102.583c-0.441,0-0.803-0.357-0.807-0.803c0-0.446,0.357-0.802,0.798-0.807
							c0.45,0,0.807,0.357,0.807,0.803C100.507,102.221,100.15,102.579,99.705,102.583z"/>
						<path fill="#E5AA5C" d="M95.973,102.596c-0.445,0-0.807-0.357-0.807-0.803c0-0.441,0.357-0.802,0.799-0.802
							c0.441-0.005,0.802,0.356,0.807,0.798C96.771,102.235,96.414,102.596,95.973,102.596z"/>
					</g>
				</g>
			</g>
			<g>
				<g>
					<g>
						<path fill="#E5AA5C" d="M103.414,95.649c-0.446,0-0.803-0.353-0.807-0.798c-0.005-0.445,0.357-0.807,0.798-0.807
							c0.446-0.004,0.807,0.357,0.807,0.803C104.212,95.288,103.854,95.649,103.414,95.649z"/>
						<path fill="#E5AA5C" d="M99.678,95.663c-0.446,0.005-0.803-0.357-0.803-0.798c-0.004-0.445,0.357-0.807,0.799-0.807
							c0.441,0,0.802,0.357,0.802,0.803C100.476,95.301,100.124,95.663,99.678,95.663z"/>
						<path fill="#E5AA5C" d="M95.942,95.676c-0.441,0-0.803-0.357-0.803-0.799c-0.004-0.441,0.357-0.803,0.799-0.807
							c0.441,0,0.802,0.357,0.807,0.803C96.75,95.319,96.388,95.676,95.942,95.676z"/>
					</g>
				</g>
			</g>
		</g>
	</g>
</g>
<g>
	<path fill="#EFEDED" d="M166.282,86.841c-3.263,5.628-2.751,35.272-8.825,35.272s-85.205,0-91.407,0
		c-6.21,0-5.165-27.672-8.966-35.47c-3.802-7.803-14.815-8.107-14.815-8.107v138.16c20.046,13.276,43.987,21.008,69.715,21.008
		c25.723,0,49.664-7.731,69.705-21.008V78.536C181.689,78.536,169.55,81.213,166.282,86.841z"/>
</g>
<rect x="40.576" y="276.606" fill="#D13E33" width="141" height="2"/>
<rect x="58.576" y="195.606" fill="#CECECE" width="104" height="63"/>
<rect x="40.576" y="131.606" fill="#D13E33" width="141" height="2"/>
<polygon fill="#D13E33" points="181.576,175.38 124.078,120.606 181.576,120.606 "/>
<polygon fill="#D13E33" points="40.576,175.38 102.227,120.606 40.576,120.606 "/>
<path fill="#51515E" d="M266.753,144.987c-21.294,0.539-19.659-3.294-19.659-3.294s-9.519-1.059-9.519,3.674v62.156
	c0,0,4.954,4.053,27.774,5.407"/>
<path fill="#716C7F" d="M259.647,144.987c21.299,0.539,16.541-3.294,16.541-3.294s6.388-1.059,6.388,3.674v64.859
	c0,0-1.818,2.704-24.648,4.054"/>
<path fill="#F37264" d="M235.609,284.219c0,7.617,4.23,9.262,7.591,10.082c5.517,1.346,20.809,2.206,31.743,0.225
	c6.214-1.129,6.214-6.942,6.214-6.942s5.522-69.238,5.522-74.61c0-5.385-2.757-5.385-2.757-5.385c-23.39,10.426-46.938,0-46.938,0
	s-2.118-0.896-2.523,1.759C233.946,212.735,235.609,284.219,235.609,284.219z"/>
<path fill="#F37264" d="M242.225,146.295l3.563-43.689h30.787v40.996C276.576,143.602,258.209,154.107,242.225,146.295z"/>
<path fill="#F7A19A" d="M277.285,105.613c0,10.625-6.796,19.239-15.177,19.239c-8.376,0-16.32-8.614-16.32-19.239
	c0-10.625,6.789-19.244,15.178-19.244C269.337,86.37,277.285,94.988,277.285,105.613z"/>
<path fill="#9EA1A7" d="M284.091,145.397c0-4.547-5.883-3.537-5.883-3.537s0.542,4.092-12.813,4.481l1.336-0.004
	c0,0.031-4.94,0.04-5.998,0.048c-1.063-0.009,1.336,0.026,0,0l-3.339-0.048c-12.015-0.384-14.745-4.477-14.745-4.477
	s-3.828-1.011-3.828,3.537c0,0,16.125,10.181,45.257,0.86"/>
</svg>
