<?xml version="1.0" encoding="utf-8"?>
<!-- Generator: Adobe Illustrator 16.0.0, SVG Export Plug-In . SVG Version: 6.00 Build 0)  -->
<!DOCTYPE svg PUBLIC "-//W3C//DTD SVG 1.1//EN" "http://www.w3.org/Graphics/SVG/1.1/DTD/svg11.dtd">
<svg version="1.1" id="Layer_1" xmlns="http://www.w3.org/2000/svg" xmlns:xlink="http://www.w3.org/1999/xlink" x="0px" y="0px"
	 width="375.61px" height="191.583px" viewBox="0 0 375.61 191.583" enable-background="new 0 0 375.61 191.583"
	 xml:space="preserve">
<g>
	<path fill="#73777E" d="M345.473,87.531c-11.535,0.293-10.18-1.785-10.18-1.785s-4.684-0.57-4.684,1.99v33.676
		c0,0,2.209,2.195,14.574,2.928"/>
	<path fill="#73777E" d="M341.625,87.531c11.537,0.293,9.74-1.785,9.74-1.785s4.244-0.57,4.244,1.99v35.141
		c0,0-1.77,1.463-14.137,2.195"/>
	<path fill="#E91A4B" d="M330.159,163.139c0,4.148,2.303,5.043,4.135,5.492c3.004,0.73,11.328,1.199,17.285,0.119
		c3.385-0.613,3.385-3.779,3.385-3.779s3.004-37.701,3.004-40.631c0-2.928-1.5-2.928-1.5-2.928c-12.738,5.676-25.557,0-25.557,0
		s-1.156-0.488-1.377,0.957C329.252,124.213,330.159,163.139,330.159,163.139z"/>
	<path fill="#E46687" d="M332.717,87.39l0.072-22.808h18.82v22.422C351.61,87.005,340.711,91.298,332.717,87.39z"/>
	<path fill="#F9BEC8" d="M351.459,64.982c0,6.299-4.027,11.406-8.995,11.406c-4.966,0-9.675-5.107-9.675-11.406
		s4.025-11.406,8.997-11.406C346.752,53.577,351.459,58.683,351.459,64.982z"/>
	<path fill="#9EA1A7" d="M356.467,87.736c0-2.561-3.313-1.99-3.313-1.99s0.305,2.306-7.213,2.522l0.752-0.003
		c0,0.018-2.783,0.022-3.379,0.026c-0.6-0.004,0.752,0.016,0,0l-1.881-0.026c-6.766-0.214-8.301-2.52-8.301-2.52
		s-2.158-0.57-2.158,1.99c0,0,9.078,5.732,25.484,0.486"/>
	<path fill="#916347" d="M178.61,57.53c0-2.828-1.624-5.948-4.528-5.948H21.98c-2.905,0-5.371,3.12-5.371,5.948v110.673
		c0,2.828,2.465,5.379,5.371,5.379h152.102c2.904,0,4.528-2.551,4.528-5.379V57.53z"/>
	<path fill="#724A33" d="M178.61,110.163c0,2.828-1.624,5.42-4.528,5.42H21.98c-2.905,0-5.371-2.592-5.371-5.42V69.624
		c0-2.831,2.465-6.042,5.371-6.042h152.102c2.904,0,4.528,3.21,4.528,6.042V110.163z"/>
	<g>
		<path fill="none" stroke="#6D4731" stroke-miterlimit="10" stroke-dasharray="5.0323,5.0323" d="M170.11,157.676
			c0,4.342-2.088,7.406-4.693,7.406H29.338c-2.604,0-4.228-3.064-4.228-7.406V97.415c0-4.34,1.624-8.332,4.228-8.332h136.079
			c2.604,0,4.693,3.992,4.693,8.332V157.676z"/>
	</g>
	<path fill="#F3DC75" d="M123.675,16.583H67.574c-9.684,0-17.964,8.042-17.964,17.476v13.66c0,7.976,5.482,14.654,13.071,16.533
		c-0.601-1.412-1.071-2.959-1.071-4.579V46.01c0-6.602,6.198-11.427,12.975-11.427h43.829c6.778,0,12.196,4.826,12.196,11.427
		v13.663c0,1.39-1.016,2.722-1.466,3.966c6.563-2.471,10.466-8.656,10.466-15.92v-13.66
		C139.61,24.625,133.357,16.583,123.675,16.583z"/>
	<g>
		<path fill="#938F7D" d="M72.747,33.155c0,0,0.784-0.076,2.078-0.166c1.294-0.069,3.165-0.237,5.384-0.313
			c2.219-0.07,4.819-0.231,7.592-0.259c2.773-0.035,5.737-0.073,8.696-0.111c2.958,0.038,5.919,0.077,8.693,0.113
			c2.773,0.033,5.364,0.189,7.583,0.26c2.219,0.077,4.069,0.243,5.363,0.312c1.294,0.09,2.229,0.164,2.229,0.165l0.246,0.005v0.422
			h-0.441c0,0-11.833,0.025-23.667,0.05c-11.834-0.025-23.667-0.05-23.667-0.05H72.61V33.16L72.747,33.155z"/>
	</g>
	<path fill="#EFE16C" d="M66.61,118.936c0,2.164-1.392,4.646-4.293,4.646h-5.26c-2.904,0-6.447-2.482-6.447-4.646v-14.365
		c0-2.162,3.542-3.988,6.447-3.988h5.26c2.901,0,4.293,1.826,4.293,3.988V118.936z"/>
	<path fill="#EFE16C" d="M145.61,118.936c0,2.164-1.5,4.646-4.404,4.646h-5.261c-2.903,0-5.335-2.482-5.335-4.646v-14.365
		c0-2.162,2.432-3.988,5.335-3.988h5.261c2.903,0,4.404,1.826,4.404,3.988V118.936z"/>
	<path fill="#916347" d="M178.61,98.071c0,2.83-1.624,4.512-4.528,4.512H21.98c-2.905,0-5.371-1.682-5.371-4.512V57.532
		c0-2.83,2.465-5.95,5.371-5.95h152.102c2.904,0,4.528,3.12,4.528,5.95V98.071z"/>
	<g>
		<g>
			<line fill="none" stroke="#6D4731" stroke-miterlimit="10" x1="170.11" y1="54.583" x2="170.11" y2="57.583"/>
			<path fill="none" stroke="#6D4731" stroke-miterlimit="10" stroke-dasharray="5.0258,5.0258" d="M170.11,62.583v27.503
				c0,2.535-2.088,4.997-4.693,4.997H29.338c-2.604,0-4.228-2.461-4.228-4.997V59.583"/>
			<line fill="none" stroke="#6D4731" stroke-miterlimit="10" x1="25.11" y1="57.583" x2="25.11" y2="54.583"/>
		</g>
	</g>
	<rect x="214.61" y="68.583" fill="#FFFFFF" width="79" height="98"/>
	<rect x="215.555" y="13.947" fill="#91222F" width="77.998" height="35.301"/>
	<rect x="215.555" y="13.947" fill="#91222F" width="77.998" height="2.003"/>
	<rect x="215.555" y="13.947" fill="#91222F" width="1.613" height="35.301"/>
	<g>
		<path fill="#D8D8D8" d="M217.239,16.028v106.699c10.859,6.67,23.639,10.518,37.316,10.518c13.68,0,26.457-3.848,37.316-10.518
			V16.028H217.239z"/>
	</g>
	<g>
		<polygon fill="#CECECE" points="217.239,16.028 282.899,23.825 291.872,37.932 291.872,16.028 		"/>
	</g>
	<g>
		<path fill="#C1BFBF" d="M217.239,16.028v106.699c10.859,6.67,23.639,10.518,37.316,10.518c13.68,0,26.457-3.848,37.316-10.518
			V52.039l-69.141-7.486L217.239,16.028z"/>
	</g>
	<g>
		
			<rect x="209.242" y="60.206" transform="matrix(0.0039 1 -1 0.0039 299.0903 -171.7486)" fill="#EFEEE4" width="53.026" height="8.1"/>
		<g>
			<rect x="231.659" y="52.015" transform="matrix(1 -0.004 0.004 1 -0.2063 0.938)" fill="#9E9D86" width="8.102" height="0.623"/>
		</g>
		<g>
			<g>
				
					<rect x="226.466" y="35.02" transform="matrix(0.0039 1 -1 0.0039 273.8024 -196.7382)" fill="#E79E2F" width="18.384" height="8.102"/>
			</g>
			<g>
				<g>
					<g>
						<g>
							<path fill="#E5AA5C" d="M238.815,47.319c-0.252,0-0.457-0.202-0.457-0.456c-0.004-0.251,0.201-0.456,0.453-0.456
								c0.252-0.002,0.457,0.202,0.461,0.454C239.272,47.111,239.067,47.318,238.815,47.319z"/>
							<circle fill="#E5AA5C" cx="236.689" cy="46.871" r="0.457"/>
							<circle fill="#E5AA5C" cx="234.567" cy="46.879" r="0.457"/>
							<circle fill="#E5AA5C" cx="232.443" cy="46.888" r="0.456"/>
						</g>
					</g>
				</g>
				<g>
					<g>
						<g>
							<circle fill="#E5AA5C" cx="238.797" cy="42.928" r="0.457"/>
							<circle fill="#E5AA5C" cx="236.675" cy="42.937" r="0.457"/>
							<circle fill="#E5AA5C" cx="234.552" cy="42.946" r="0.457"/>
							<circle fill="#E5AA5C" cx="232.427" cy="42.954" r="0.456"/>
						</g>
					</g>
				</g>
				<g>
					<g>
						<g>
							<path fill="#E5AA5C" d="M238.786,39.451c-0.252,0.002-0.459-0.202-0.459-0.454c-0.004-0.252,0.201-0.458,0.455-0.458
								c0.252,0,0.457,0.202,0.459,0.454C239.241,39.245,239.038,39.45,238.786,39.451z"/>
							<circle fill="#E5AA5C" cx="236.659" cy="39.003" r="0.457"/>
							<circle fill="#E5AA5C" cx="234.536" cy="39.011" r="0.457"/>
							<path fill="#E5AA5C" d="M232.415,39.478c-0.252,0-0.457-0.203-0.457-0.456c-0.004-0.252,0.201-0.457,0.453-0.458
								c0.252-0.002,0.457,0.202,0.457,0.455C232.87,39.271,232.667,39.476,232.415,39.478z"/>
						</g>
					</g>
				</g>
				<g>
					<g>
						<g>
							<circle fill="#E5AA5C" cx="237.77" cy="44.926" r="0.457"/>
							<circle fill="#E5AA5C" cx="235.645" cy="44.934" r="0.457"/>
							<circle fill="#E5AA5C" cx="233.524" cy="44.942" r="0.458"/>
						</g>
					</g>
				</g>
				<g>
					<g>
						<g>
							<circle fill="#E5AA5C" cx="237.754" cy="40.992" r="0.456"/>
							<circle fill="#E5AA5C" cx="235.631" cy="41" r="0.457"/>
							<circle fill="#E5AA5C" cx="233.507" cy="41.008" r="0.457"/>
						</g>
					</g>
				</g>
			</g>
			<g>
				<g>
					<g>
						<g>
							<circle fill="#E5AA5C" cx="238.767" cy="35.062" r="0.456"/>
							<circle fill="#E5AA5C" cx="236.644" cy="35.07" r="0.457"/>
							<path fill="#E5AA5C" d="M234.524,35.535c-0.254,0-0.461-0.203-0.461-0.455c0-0.253,0.203-0.458,0.457-0.458
								c0.25-0.001,0.457,0.203,0.457,0.454C234.977,35.328,234.774,35.533,234.524,35.535z"/>
							<circle fill="#E5AA5C" cx="232.398" cy="35.087" r="0.457"/>
						</g>
					</g>
				</g>
				<g>
					<g>
						<g>
							<circle fill="#E5AA5C" cx="238.752" cy="31.128" r="0.457"/>
							<circle fill="#E5AA5C" cx="236.627" cy="31.137" r="0.457"/>
							<circle fill="#E5AA5C" cx="234.504" cy="31.145" r="0.457"/>
							<path fill="#E5AA5C" d="M232.383,31.609c-0.252,0.002-0.455-0.203-0.457-0.455c-0.004-0.251,0.201-0.457,0.455-0.459
								c0.25,0,0.457,0.204,0.457,0.455C232.838,31.404,232.635,31.609,232.383,31.609z"/>
						</g>
					</g>
				</g>
				<g>
					<g>
						<g>
							<circle fill="#E5AA5C" cx="237.739" cy="37.059" r="0.456"/>
							<circle fill="#E5AA5C" cx="235.616" cy="37.067" r="0.457"/>
							<circle fill="#E5AA5C" cx="233.493" cy="37.075" r="0.457"/>
						</g>
					</g>
				</g>
				<g>
					<g>
						<g>
							<circle fill="#E5AA5C" cx="237.723" cy="33.125" r="0.457"/>
							<circle fill="#E5AA5C" cx="235.6" cy="33.133" r="0.456"/>
							<circle fill="#E5AA5C" cx="233.476" cy="33.142" r="0.457"/>
						</g>
					</g>
				</g>
			</g>
		</g>
	</g>
	<g>
		
			<rect x="230.229" y="81.054" transform="matrix(0.0039 1 -1 0.0039 340.8534 -171.9656)" fill="#EFEEE4" width="53.028" height="8.1"/>
		<g>
			<rect x="252.646" y="72.862" transform="matrix(1 -0.004 0.004 1 -0.289 1.0217)" fill="#9E9D86" width="8.102" height="0.625"/>
		</g>
		<g>
			<g>
				
					<rect x="247.454" y="55.868" transform="matrix(0.0039 1 -1 0.0039 315.5552 -196.9611)" fill="#E79E2F" width="18.385" height="8.102"/>
			</g>
			<g>
				<g>
					<g>
						<g>
							<circle fill="#E5AA5C" cx="259.8" cy="67.711" r="0.457"/>
							<circle fill="#E5AA5C" cx="257.677" cy="67.719" r="0.457"/>
							<path fill="#E5AA5C" d="M255.557,68.183c-0.254,0.002-0.459-0.202-0.461-0.454c0-0.252,0.203-0.457,0.457-0.459
								c0.25,0,0.455,0.203,0.457,0.455C256.012,67.978,255.807,68.182,255.557,68.183z"/>
							<circle fill="#E5AA5C" cx="253.43" cy="67.734" r="0.456"/>
						</g>
					</g>
				</g>
				<g>
					<g>
						<g>
							<circle fill="#E5AA5C" cx="259.785" cy="63.776" r="0.457"/>
							<circle fill="#E5AA5C" cx="257.663" cy="63.785" r="0.457"/>
							<circle fill="#E5AA5C" cx="255.539" cy="63.793" r="0.457"/>
							<circle fill="#E5AA5C" cx="253.415" cy="63.802" r="0.457"/>
						</g>
					</g>
				</g>
				<g>
					<g>
						<g>
							<circle fill="#E5AA5C" cx="259.77" cy="59.842" r="0.456"/>
							<circle fill="#E5AA5C" cx="257.647" cy="59.852" r="0.457"/>
							<path fill="#E5AA5C" d="M255.524,60.316c-0.252,0.001-0.457-0.204-0.459-0.456c0-0.252,0.203-0.457,0.457-0.458
								c0.25,0,0.457,0.204,0.457,0.454C255.981,60.109,255.778,60.315,255.524,60.316z"/>
							<circle fill="#E5AA5C" cx="253.399" cy="59.868" r="0.457"/>
						</g>
					</g>
				</g>
				<g>
					<g>
						<g>
							<circle fill="#E5AA5C" cx="258.756" cy="65.773" r="0.457"/>
							<circle fill="#E5AA5C" cx="256.633" cy="65.782" r="0.457"/>
							<path fill="#E5AA5C" d="M254.512,66.247c-0.252,0.001-0.459-0.203-0.459-0.456c0-0.252,0.203-0.457,0.455-0.458
								c0.25,0,0.457,0.204,0.457,0.455C254.969,66.04,254.764,66.245,254.512,66.247z"/>
						</g>
					</g>
				</g>
				<g>
					<g>
						<g>
							<circle fill="#E5AA5C" cx="258.741" cy="61.84" r="0.457"/>
							<path fill="#E5AA5C" d="M256.618,62.305c-0.25,0.001-0.453-0.203-0.455-0.455c0-0.253,0.201-0.458,0.453-0.458
								c0.254-0.001,0.459,0.203,0.459,0.454C257.075,62.099,256.872,62.303,256.618,62.305z"/>
							<circle fill="#E5AA5C" cx="254.495" cy="61.856" r="0.457"/>
						</g>
					</g>
				</g>
			</g>
			<g>
				<g>
					<g>
						<g>
							<circle fill="#E5AA5C" cx="259.754" cy="55.909" r="0.456"/>
							<circle fill="#E5AA5C" cx="257.631" cy="55.917" r="0.457"/>
							<circle fill="#E5AA5C" cx="255.507" cy="55.926" r="0.457"/>
							<circle fill="#E5AA5C" cx="253.383" cy="55.934" r="0.457"/>
						</g>
					</g>
				</g>
				<g>
					<g>
						<g>
							<path fill="#E5AA5C" d="M259.739,52.433c-0.25,0.001-0.455-0.204-0.457-0.456c-0.002-0.251,0.203-0.456,0.455-0.458
								c0.254-0.001,0.459,0.203,0.461,0.456C260.198,52.227,259.995,52.432,259.739,52.433z"/>
							<circle fill="#E5AA5C" cx="257.616" cy="51.983" r="0.457"/>
							<circle fill="#E5AA5C" cx="255.493" cy="51.992" r="0.457"/>
							<circle fill="#E5AA5C" cx="253.37" cy="52" r="0.457"/>
						</g>
					</g>
				</g>
				<g>
					<g>
						<g>
							<circle fill="#E5AA5C" cx="258.725" cy="57.906" r="0.457"/>
							<circle fill="#E5AA5C" cx="256.602" cy="57.914" r="0.457"/>
							<circle fill="#E5AA5C" cx="254.48" cy="57.923" r="0.457"/>
						</g>
					</g>
				</g>
				<g>
					<g>
						<g>
							<circle fill="#E5AA5C" cx="258.71" cy="53.973" r="0.457"/>
							<circle fill="#E5AA5C" cx="256.586" cy="53.981" r="0.457"/>
							<circle fill="#E5AA5C" cx="254.464" cy="53.989" r="0.457"/>
						</g>
					</g>
				</g>
			</g>
		</g>
	</g>
	<g>
		
			<rect x="220.557" y="81.053" transform="matrix(0.0039 1 -1 0.0039 331.2098 -162.2969)" fill="#EFEEE4" width="53.028" height="8.102"/>
		<g>
			<rect x="242.973" y="72.862" transform="matrix(1 -0.004 0.004 1 -0.2892 0.9834)" fill="#9E9D86" width="8.1" height="0.625"/>
		</g>
		<g>
			<g>
				
					<rect x="237.78" y="55.868" transform="matrix(0.0039 1 -1 0.0039 305.9194 -187.2873)" fill="#E79E2F" width="18.385" height="8.102"/>
			</g>
			<g>
				<g>
					<g>
						<g>
							<path fill="#E5AA5C" d="M250.131,68.168c-0.254,0-0.459-0.203-0.461-0.456c0-0.253,0.203-0.457,0.457-0.457
								c0.25-0.001,0.457,0.201,0.457,0.453C250.588,67.96,250.381,68.165,250.131,68.168z"/>
							<circle fill="#E5AA5C" cx="248.004" cy="67.719" r="0.457"/>
							<circle fill="#E5AA5C" cx="245.881" cy="67.726" r="0.457"/>
							<circle fill="#E5AA5C" cx="243.758" cy="67.734" r="0.456"/>
						</g>
					</g>
				</g>
				<g>
					<g>
						<g>
							<circle fill="#E5AA5C" cx="250.113" cy="63.776" r="0.457"/>
							<path fill="#E5AA5C" d="M247.991,64.242c-0.252,0.001-0.457-0.203-0.457-0.455c-0.004-0.254,0.201-0.458,0.453-0.459
								c0.254-0.001,0.457,0.202,0.461,0.455C248.448,64.034,248.245,64.24,247.991,64.242z"/>
							<circle fill="#E5AA5C" cx="245.866" cy="63.793" r="0.457"/>
							<circle fill="#E5AA5C" cx="243.743" cy="63.802" r="0.457"/>
						</g>
					</g>
				</g>
				<g>
					<g>
						<g>
							<circle fill="#E5AA5C" cx="250.098" cy="59.842" r="0.456"/>
							<circle fill="#E5AA5C" cx="247.973" cy="59.852" r="0.457"/>
							<circle fill="#E5AA5C" cx="245.851" cy="59.859" r="0.457"/>
							<circle fill="#E5AA5C" cx="243.727" cy="59.868" r="0.457"/>
						</g>
					</g>
				</g>
				<g>
					<g>
						<g>
							<circle fill="#E5AA5C" cx="249.085" cy="65.773" r="0.457"/>
							<circle fill="#E5AA5C" cx="246.96" cy="65.782" r="0.457"/>
							<circle fill="#E5AA5C" cx="244.838" cy="65.79" r="0.457"/>
						</g>
					</g>
				</g>
				<g>
					<g>
						<g>
							<circle fill="#E5AA5C" cx="249.069" cy="61.84" r="0.457"/>
							<circle fill="#E5AA5C" cx="246.946" cy="61.848" r="0.457"/>
							<circle fill="#E5AA5C" cx="244.822" cy="61.856" r="0.457"/>
						</g>
					</g>
				</g>
			</g>
			<g>
				<g>
					<g>
						<g>
							<circle fill="#E5AA5C" cx="250.082" cy="55.909" r="0.456"/>
							<circle fill="#E5AA5C" cx="247.958" cy="55.917" r="0.457"/>
							<circle fill="#E5AA5C" cx="245.836" cy="55.926" r="0.457"/>
							<circle fill="#E5AA5C" cx="243.711" cy="55.934" r="0.457"/>
						</g>
					</g>
				</g>
				<g>
					<g>
						<g>
							<path fill="#E5AA5C" d="M250.069,52.433c-0.254,0.001-0.457-0.204-0.459-0.456c-0.002-0.251,0.203-0.456,0.457-0.458
								c0.25-0.001,0.455,0.203,0.457,0.456C250.526,52.227,250.321,52.432,250.069,52.433z"/>
							<circle fill="#E5AA5C" cx="247.943" cy="51.983" r="0.457"/>
							<circle fill="#E5AA5C" cx="245.82" cy="51.992" r="0.457"/>
							<circle fill="#E5AA5C" cx="243.696" cy="52" r="0.457"/>
						</g>
					</g>
				</g>
				<g>
					<g>
						<g>
							<circle fill="#E5AA5C" cx="249.053" cy="57.906" r="0.457"/>
							<circle fill="#E5AA5C" cx="246.93" cy="57.914" r="0.457"/>
							<circle fill="#E5AA5C" cx="244.807" cy="57.923" r="0.457"/>
						</g>
					</g>
				</g>
				<g>
					<g>
						<g>
							<circle fill="#E5AA5C" cx="249.038" cy="53.973" r="0.457"/>
							<circle fill="#E5AA5C" cx="246.916" cy="53.981" r="0.457"/>
							<circle fill="#E5AA5C" cx="244.791" cy="53.989" r="0.457"/>
						</g>
					</g>
				</g>
			</g>
		</g>
	</g>
	<g>
		<path fill="#EFEDED" d="M284.934,50.045c-1.826,3.102-1.539,19.452-4.938,19.452c-3.396,0-47.666,0-51.139,0
			s-2.887-15.263-5.014-19.563c-2.127-4.303-8.289-4.472-8.289-4.472v76.197c11.213,7.324,24.607,11.586,39,11.586
			s27.785-4.262,38.998-11.584V45.462C293.553,45.462,286.762,46.939,284.934,50.045z"/>
	</g>
	<rect x="214.61" y="156.583" fill="#91222F" width="79" height="1"/>
	<rect x="226.11" y="111.083" fill="#FFFFFF" stroke="#5E563E" stroke-width="3" stroke-miterlimit="10" width="59" height="35"/>
	<rect x="214.61" y="74.583" fill="#91222F" width="79" height="2"/>
	<polygon fill="#91222F" points="293.61,99.77 260.792,68.583 293.61,68.583 	"/>
	<polygon fill="#91222F" points="214.61,99.77 248.368,68.583 214.61,68.583 	"/>
</g>
</svg>
