<?xml version="1.0" encoding="utf-8"?>
<!-- Generator: Adobe Illustrator 17.0.0, SVG Export Plug-In . SVG Version: 6.00 Build 0)  -->
<!DOCTYPE svg PUBLIC "-//W3C//DTD SVG 1.1//EN" "http://www.w3.org/Graphics/SVG/1.1/DTD/svg11.dtd">
<svg version="1.1" id="Layer_1" xmlns="http://www.w3.org/2000/svg" xmlns:xlink="http://www.w3.org/1999/xlink" x="0px" y="0px"
	 width="389.55px" height="118px" viewBox="0 0 389.55 118" enable-background="new 0 0 389.55 118" xml:space="preserve">
<g>
	<g>
		<g>
			<g>
				<g>
					<g>
						<rect x="-0.45" fill="#45B9F5" width="373" height="101"/>
					</g>
					<g>
						<polygon fill="#D95246" points="388.55,117.064 372.55,99.817 372.55,0.835 388.55,18.936 						"/>
					</g>
					<g>
						<polygon fill="#237B96" points="389.55,118 18.218,118 0.214,101 373.141,101 						"/>
					</g>
				</g>
			</g>
		</g>
		<g>
			<g>
				<g>
					<g>
						<rect x="267.55" fill="#CC72E1" width="105" height="101"/>
					</g>
					<g>
						<polygon fill="#AB52C1" points="389.55,119.064 372.55,101.792 372.55,0 389.55,19.936 						"/>
					</g>
					<g>
						<polygon fill="#7A3E89" points="389.55,118 286.726,118 268.721,101 373.141,101 						"/>
					</g>
				</g>
			</g>
		</g>
		<g>
			<g>
				<g>
					<g>
						<rect x="-0.45" fill="#7A3E89" width="105" height="101"/>
					</g>
					<g>
						<polygon fill="#4A1F54" points="121.55,118 18.218,118 0.214,101 105.142,101 						"/>
					</g>
				</g>
			</g>
		</g>
	</g>
	<g>
		<path fill="#FFFFFF" d="M324.205,52.776v4.59h-6.525v-4.59h-5.04v-6.524h5.04v-4.635h6.525v4.59h5.085v6.569H324.205z"/>
	</g>
	<g>
		<path fill="#FFFFFF" d="M44.235,52.326v-5.67h15.975v5.67H44.235z"/>
	</g>
</g>
</svg>
