<?xml version="1.0" encoding="utf-8"?>
<!-- Generator: Adobe Illustrator 17.0.0, SVG Export Plug-In . SVG Version: 6.00 Build 0)  -->
<!DOCTYPE svg PUBLIC "-//W3C//DTD SVG 1.1//EN" "http://www.w3.org/Graphics/SVG/1.1/DTD/svg11.dtd">
<svg version="1.1" id="Layer_1" xmlns="http://www.w3.org/2000/svg" xmlns:xlink="http://www.w3.org/1999/xlink" x="0px" y="0px"
	 width="389.55px" height="118px" viewBox="0 0 389.55 118" enable-background="new 0 0 389.55 118" xml:space="preserve">
<g>
	<g>
		<g>
			<g>
				<g>
					<g>
						<rect fill="#45B9F5" width="373" height="101"/>
					</g>
					<g>
						<polygon fill="#D95246" points="389,117.064 373,99.817 373,0.835 389,18.936 						"/>
					</g>
					<g>
						<polygon fill="#237B96" points="390,118 18.668,118 0.664,101 373.591,101 						"/>
					</g>
				</g>
			</g>
		</g>
		<g>
			<g>
				<g>
					<g>
						<rect x="268" fill="#CC72E1" width="105" height="101"/>
					</g>
					<g>
						<polygon fill="#AB52C1" points="390,119.064 373,101.792 373,0 390,19.936 						"/>
					</g>
					<g>
						<polygon fill="#7A3E89" points="390,118 287.176,118 269.171,101 373.591,101 						"/>
					</g>
				</g>
			</g>
		</g>
		<g>
			<g>
				<g>
					<g>
						<rect fill="#683275" width="105" height="101"/>
					</g>
					<g>
						<polygon fill="#3C1A44" points="122,118 18.668,118 0.664,101 105.592,101 						"/>
					</g>
				</g>
			</g>
		</g>
	</g>
	<g>
		<path fill="#FFFFFF" d="M324.655,52.776v4.59h-6.525v-4.59h-5.04v-6.524h5.04v-4.635h6.525v4.59h5.085v6.569H324.655z"/>
	</g>
	<g>
		<path fill="#FFFFFF" d="M44.685,52.326v-5.67h15.975v5.67H44.685z"/>
	</g>
</g>
</svg>
