<?xml version="1.0" encoding="utf-8"?>
<!-- Generator: Adobe Illustrator 17.0.0, SVG Export Plug-In . SVG Version: 6.00 Build 0)  -->
<!DOCTYPE svg PUBLIC "-//W3C//DTD SVG 1.1//EN" "http://www.w3.org/Graphics/SVG/1.1/DTD/svg11.dtd">
<svg version="1.1" id="Layer_1" xmlns="http://www.w3.org/2000/svg" xmlns:xlink="http://www.w3.org/1999/xlink" x="0px" y="0px"
	 width="313px" height="184px" viewBox="0 0 313 184" enable-background="new 0 0 313 184" xml:space="preserve">
<g>
	<g>
		<g>
			<path fill="#FCF4E8" d="M298.032,170H43.616C27.873,170,14,156.357,14,140.612v-4.275C14,120.593,27.873,109,43.616,109h254.416
				c0,0-7.127,9.822-7.127,29.075C290.906,160.149,298.032,170,298.032,170z"/>
		</g>
		<g>
			<path fill="#E8E3D8" d="M300.997,172H142v-62h158.997c0,0-7.126,10.322-7.126,29.575C293.871,161.649,300.997,172,300.997,172z"
				/>
		</g>
		<g>
			<path fill="#333333" d="M48.138,170.755c-17.531,0-31.138-12.927-31.138-29.43v-4.276c0-8.112,3.225-15.627,9.308-21.161
				c5.901-5.368,13.645-8.325,21.92-8.325c1.185,0,2.114,0.961,2.114,2.146s-0.996,2.146-2.181,2.146
				c-15.21,0-27.161,11.066-27.161,25.194v4.276c0,14.096,11.868,25.139,26.992,25.139c1.185,0,2.218,0.961,2.218,2.146
				S49.323,170.755,48.138,170.755z"/>
		</g>
		<g>
			<path fill="#43E8CE" d="M303,174H42.904C25.071,174,10,158.502,10,140.612v-4.275C10,119.035,24.764,105,42.904,105H303v8H42.904
				C28.82,113,17,123.091,17,136.337v4.275C17,154.274,29.297,167,42.904,167H303V174z"/>
		</g>
	</g>
	<g>
		<g>
			<path fill="#FCF6EA" d="M59.821,103h68.23C138.95,103,149,93.057,149,82.158v-2.96C149,68.299,138.95,61,128.051,61h-68.23
				c0,0,4.933,6.685,4.933,20.013C64.754,96.294,59.821,103,59.821,103z"/>
		</g>
		<g>
			<path fill="#F37264" d="M129.703,102H235.94c10.899,0,20.06-9.556,20.06-20.455v-2.96C256,67.686,246.839,60,235.94,60H129.703
				c0,0,11.063,6.685,11.063,20.013C140.767,95.294,129.703,102,129.703,102z"/>
		</g>
		<g>
			<path fill="#333333" d="M128.479,103.426c-0.513,0-1.014-0.257-1.304-0.726c-0.446-0.72-0.224-1.664,0.495-2.11
				c0.419-0.263,10.338-6.641,10.338-20.833c0-12.331-10.233-18.794-10.336-18.858c-0.72-0.445-0.943-1.389-0.498-2.109
				c0.444-0.721,1.389-0.943,2.109-0.499c0.481,0.298,11.79,7.445,11.79,21.466c0,15.951-11.307,23.14-11.789,23.438
				C129.033,103.352,128.754,103.426,128.479,103.426z"/>
		</g>
		<g>
			<path fill="#F37264" d="M235.82,105H56v-5h179.82C245,100,253,91.578,253,81.545v-2.96C253,69.358,245.633,63,235.82,63H56v-5
				h179.82C248.475,58,258,66.517,258,78.585v2.96C258,94.236,247.658,105,235.82,105z"/>
		</g>
		<g>
			<g>
				<path fill="#F39463" d="M178.773,81.739c0-13.328-6.159-23.739-6.159-23.739h-11.647c0,0,6.159,10.411,6.159,23.739
					c0,15.281-6.159,23.261-6.159,23.261h11.647C172.614,105,178.773,97.02,178.773,81.739z"/>
			</g>
		</g>
		<g>
			<g>
				<path fill="#F39463" d="M233.943,81.739c0-13.328-6.159-23.739-6.159-23.739h-11.647c0,0,6.159,10.411,6.159,23.739
					c0,15.281-6.159,23.261-6.159,23.261h11.647C227.784,105,233.943,97.02,233.943,81.739z"/>
			</g>
		</g>
	</g>
	<g>
		<rect x="41" y="10" fill="#58B4C3" width="245" height="48"/>
		<rect x="246" y="10" fill="#F39463" width="20" height="48"/>
	</g>
</g>
</svg>
