<?xml version="1.0" encoding="utf-8"?>
<!-- Generator: Adobe Illustrator 16.0.0, SVG Export Plug-In . SVG Version: 6.00 Build 0)  -->
<!DOCTYPE svg PUBLIC "-//W3C//DTD SVG 1.1//EN" "http://www.w3.org/Graphics/SVG/1.1/DTD/svg11.dtd">
<svg version="1.1" id="Layer_1" xmlns="http://www.w3.org/2000/svg" xmlns:xlink="http://www.w3.org/1999/xlink" x="0px" y="0px"
	 width="646.22px" height="706.165px" viewBox="0 0 646.22 706.165" enable-background="new 0 0 646.22 706.165"
	 xml:space="preserve">
<g>
	<path fill="#FDEBCB" d="M381,329.814v60.047c0,39.885-32.615,72.218-72.5,72.218l0,0c-39.885,0-72.5-32.333-72.5-72.218v-61.289
		c0,0,0.646-11.74,17.686-17.613c13.678-4.718,40.539-5.469,57.904-5.486C333.918,305.447,381,305.473,381,329.814z"/>
	<path fill="#645655" d="M370.771,327.787c0,7.617-27.608,13.793-61.667,13.793c-36.225,0-61.67-6.174-61.67-13.793
		s27.611-13.795,61.67-13.795C343.162,313.992,370.771,320.168,370.771,327.787z"/>
	<path fill="#FDEBCB" d="M377.1,348.883c15.463,0,27.998,12.536,27.998,27.995c0,15.461-12.535,27.995-27.998,27.995"/>
	<path fill="#FDEBCB" d="M244.836,404.873c-15.459,0-27.993-12.534-27.993-27.995c0-15.459,12.534-27.995,27.993-27.995"/>
	<path fill="none" stroke="#645655" stroke-width="3.2389" stroke-linecap="round" stroke-miterlimit="10" d="M226.581,375.5
		c0,0,0-10.142,12.981-10.955"/>
	<path fill="none" stroke="#645655" stroke-width="3.2389" stroke-linecap="round" stroke-miterlimit="10" d="M395.357,375.5
		c0,0,0-10.142-12.982-10.955"/>
	<path fill="#645655" d="M273,316.427V332c0,0,25.554,0,45.838,0c20.288,0,40.572,1.75,44.631-3.933
		c4.058-5.68-8.11-12.312-29.208-12.312C305.86,315.756,273,316.427,273,316.427z"/>
	<path fill="#776868" d="M272,320.482v13.796c0,0,26.662-4.464,46.947-4.464c20.285,0,39.91,6.898,45.186-0.607
		c4.013-5.711-20.913-12.68-42.01-12.68C293.722,316.527,272,320.482,272,320.482z"/>
	<path fill="#645655" d="M262.849,323.322"/>
	<g>
		<g>
			<g>
				<g>
					<g>
						<g>
							<path fill-rule="evenodd" clip-rule="evenodd" fill="#EC68A4" stroke="#EC68A4" stroke-width="2" stroke-miterlimit="10" d="
								M298.357,242.06c1.118,0.153,6.578,5.019,2.41,7.159c-0.916-0.746,0.045-2.231-0.658-3.871
								c-5.458-4.791-16.596-0.297-21.681,3.678c0.009,0.697,1.42,1.747,0.396,2.328c-4.425-2.01-10.179,2.871-12.444,6.486
								c-0.894,1.543,0.688,2.744-0.957,3.75c-1.423-0.074-0.949-2.818-2.783-2.318c-5.241,3.659-7.018,9.777-8.409,16.165
								c1.225-0.607,1.36,0.325,1.422,1.353c-4.866,0.098-5.009,5.256-3.267,8.921c-5.3,4.329-1.852,19.419,4.583,22.325
								c0.551-2.021,3.045-5.828,5.67-4.15c-2.402,1.701-5.241,3.093-4.368,7.115c4.787,3.764,17.89,2.566,22.01-1.74
								c1.608-0.029,2.504,0.947,4.457,0.437c0.632-0.569-0.083-2.103,1.672-1.876c0.756,6.132,3.499,9.46,8.42,9.723
								c2.477,11.086,16.573,6.373,25.189,2.896c-1.017-2.271,2.141-2.212,2.441-4.396c-1.002-2.109-3.633-1.918-4.338-4.442
								c2.787,0.389,4.943,1.671,5.631,5.021c0.061,1.408-1.31,1.793-1.932,2.721c7.287-1.888,16.754-8.107,13.126-16.569
								c-0.97-2.26-3.249-2.017-4.728-4.374c8.502-0.127,8.25,14.015,2.438,16.713c6.183-1.401,9.237-5.02,12.044-8.818
								c-0.195-1.329-0.943-2.385-0.654-3.87c0.36-1.835,2.322-1.694,3.41-3.365c0.438-0.671,0.185-2.354,0.636-3.297
								c1.284-2.653,3.296-4.435,4.83-4.403c-1.259,3.191-4.634,4.882-4.425,9.117c-6.883,2.681-0.721,7.047,2.925,7.865
								c4.92,1.111,10.803,1.84,13.952,2.414c0.342-0.893,0.816-1.691,1.155-2.586c-1.123-0.336-2.409-0.443-2.396-2.382
								c1.838-0.668,2.035,0.972,4.004,0.12c1.096-2.063,1.48-4.625,1.982-7.109c-0.028-1.558-2.204-0.096-1.943-2.059
								c2.696-0.539,1.535-5.662,0.747-9.685c-1.188,0.153-2.368,2.052-3.099,0.524c-0.221-1.861,2.291-1.783,3.09-2.916
								c-0.01-4.271-0.991-10.98-4.743-11.541c-0.321,1.021,0.095,2.565-1.093,2.971c-2.936-1.973,1.373-4.083-0.02-7.17
								c-0.232-1.268-1.813-0.643-1.944-2.061c-0.179-5.529-4.896-8.748-7.972-11.789c-6.957-0.373-4.451,7.709-8.111,8.547
								c1.263-3.645,0.758-8.545,5.977-9.38c-0.139-2.046-1.998-1.669-3.17-2.253c-3.736-3.054-7.032-6.723-12.42-7.449
								c0.523,1.362,3.751,4.328,1.308,5.354c-2.573-5.81-8.256-7.239-14.161-8.354c0.623,1.828,3.348,6.782,0.99,8.198
								c-1.508-1.604-1.147-5.645-2.928-7.87c-2.171-1.143-5.846-1.809-8.006-0.234c-0.611-0.896-1.828-0.941-2.651-1.543
								C304.917,242.233,302.619,241.512,298.357,242.06z M307.832,326.094c-7.268,1.289-12.096-0.873-14.286-6.736
								c-3.325-1.715-7.771-1.854-8.092-7.786c-3.446-0.604-5.303-0.209-7.226,2.019c-7.918,0.215-15.296,3.807-20.404-0.523
								c-0.718-0.609-0.94-1.919-1.686-2.898c-2.368-3.118-6.062-6.16-7.193-9.537c-1.722-5.139-1.027-11.049,0.855-16.077
								c-1.125-4.661,0.841-7.124,2.749-9.63c0.918-6.952,3.831-12.492,8.279-16.935c1.226-0.13,2.8-0.747,3.552-0.206
								c2.608-3.827,5.093-7.738,11.661-8.752c4.234-5.615,11.978-6.418,19.022-7.605c1.897-0.318,3.425-1.483,5.29-1.695
								c1.004-0.113,2.245,0.725,3.292,0.634c1.61-0.134,3.242-1.819,4.838-2.015c0.912-0.107,2.911,0.449,4.07,0.505
								c1.942,0.093,3.472-0.153,4.774-0.015c1.206,0.135,2.227,1.217,3.428,1.41c0.502,0.086,1.475-0.723,1.871-0.711
								c3.681,0.059,8.272,2.584,11.051,4.098c0.99-0.643,1.174-1.33,2.646-0.85c5.456,0.965,9.541,5.201,14.161,8.355
								c5.999,4.096,13.235,9.756,14.521,19.843c4.036,1.267,6.912,9.946,5.27,14.64c3.635,11.355,0.788,20.971-4.568,27.063
								c-1.219,0.441-1.846,0.046-2.776,0.075l-2.068-0.447c-4.501-2.451-11.147-1.885-15.184-4.991
								c-2.938,3.628-6.478,7.77-11.21,9.071c-0.978,0.268-2.182-0.519-3.229-0.248c-3.261,0.844-5.763,5.525-10.314,4.936
								C315.624,324.727,307.832,326.094,307.832,326.094z"/>
						</g>
					</g>
				</g>
			</g>
		</g>
		<g>
			<g>
				<g>
					<g>
						<g>
							<path fill-rule="evenodd" clip-rule="evenodd" fill="#F7B5C7" d="M309.974,240.088c0.823,0.602,2.04,0.646,2.651,1.543
								c2.16-1.574,5.835-0.908,8.006,0.234c1.78,2.226,1.42,6.266,2.928,7.87c2.357-1.416-0.367-6.37-0.99-8.198
								c5.905,1.115,11.588,2.545,14.161,8.354c2.443-1.026-0.784-3.992-1.308-5.354c5.388,0.727,8.684,4.396,12.42,7.449
								c1.172,0.584,3.031,0.207,3.17,2.253c-5.219,0.835-4.714,5.735-5.977,9.38c3.66-0.838,1.154-8.92,8.111-8.547
								c3.076,3.041,7.793,6.26,7.972,11.789c0.132,1.418,1.712,0.793,1.944,2.061c1.393,3.087-2.916,5.197,0.02,7.17
								c1.188-0.405,0.771-1.95,1.093-2.971c3.752,0.561,4.733,7.27,4.743,11.541c-0.799,1.133-3.311,1.055-3.09,2.916
								c0.73,1.527,1.91-0.371,3.099-0.524c0.788,4.022,1.949,9.146-0.747,9.685c-0.261,1.963,1.915,0.501,1.943,2.059
								c-0.502,2.484-0.887,5.047-1.982,7.109c-1.969,0.852-2.166-0.788-4.004-0.12c-0.014,1.938,1.272,2.046,2.396,2.382
								c-0.339,0.895-0.813,1.693-1.155,2.586c-3.149-0.574-9.032-1.303-13.952-2.414c-3.646-0.818-9.808-5.185-2.925-7.865
								c-0.209-4.235,3.166-5.926,4.425-9.117c-1.534-0.031-3.546,1.75-4.83,4.403c-0.451,0.942-0.198,2.626-0.636,3.297
								c-1.088,1.671-3.05,1.53-3.41,3.365c-0.289,1.485,0.459,2.541,0.654,3.87c-2.807,3.799-5.861,7.417-12.044,8.818
								c5.812-2.698,6.063-16.84-2.438-16.713c1.479,2.357,3.758,2.114,4.728,4.374c3.628,8.462-5.839,14.682-13.126,16.569
								c0.622-0.928,1.992-1.313,1.932-2.721c-0.688-3.35-2.844-4.632-5.631-5.021c0.705,2.524,3.336,2.333,4.338,4.442
								c-0.301,2.185-3.458,2.125-2.441,4.396c-8.616,3.477-22.712,8.189-25.189-2.896c-4.921-0.263-7.664-3.591-8.42-9.723
								c-1.755-0.227-1.04,1.307-1.672,1.876c-1.953,0.511-2.849-0.466-4.457-0.437c-4.12,4.307-17.223,5.504-22.01,1.74
								c-0.873-4.022,1.966-5.414,4.368-7.115c-2.625-1.678-5.119,2.13-5.67,4.15c-6.435-2.906-9.883-17.996-4.583-22.325
								c-1.742-3.665-1.599-8.823,3.267-8.921c-0.063-1.027-0.197-1.96-1.422-1.353c1.391-6.388,3.168-12.506,8.409-16.165
								c1.834-0.5,1.36,2.244,2.783,2.318c1.645-1.006,0.063-2.207,0.957-3.75c2.266-3.615,8.02-8.496,12.444-6.486
								c1.024-0.581-0.387-1.631-0.396-2.328c5.084-3.975,16.223-8.469,21.681-3.678c0.703,1.64-0.258,3.125,0.658,3.871
								c4.168-2.141-1.292-7.006-2.41-7.159C302.619,241.512,304.917,242.233,309.974,240.088z M307.245,256.886
								c-8.313,1.627-12.08,17.833,0.05,16.718c0.973,2.693,4.008,4.817,6.595,3.662c-2.019-1.633-4.91-2.035-6.019-4.955
								c-11.458,1.188-7.181-13.154,0.734-14.46c-1.928-8.179,3.315-11.272,7.38-15.196c-0.568,0-0.762-0.526-1.293-0.576
								C310.634,245.896,305.512,248.955,307.245,256.886z M280.181,252.313c1.591,1.919,4.402,2.114,5.245,5.087
								c6.579-2.396,13.377-1.801,17.306,1.049c-1.348-4.953-10.597-4.516-16.794-2.729
								C284.854,253.644,282.385,251.238,280.181,252.313z M324.092,255.223c3.266-2.336,6.59,0.545,8.715-0.282
								C331.568,252.863,324.496,251.158,324.092,255.223z M259.504,268.967c1.415,0.583,2.508-1.485,4.969-1.239
								c2.432,0.89,3.807,3.269,4.985,5.926c6.44-1.877,9.938,0.387,11.639,5.194c1.754-0.451,2.344-1.304,3.739-1.434
								c4.79-0.439,7.143,5.678,9.899,6.688c-1.332-4.414-6.503-9.96-13.126-6.938c-0.285-2.634-2.186-2.998-3.176-4.639
								c1.748-2.857,8.008-1.203,9.479-2.802c-3.219-2.077-8.807,0-11.161,2.29c-1.752-0.729-4.069-0.66-6.779-0.046
								C269.354,267.063,261.979,263.973,259.504,268.967z M335.164,266.488c1.24,4.4-1.121,6.244-5.663,6.536
								c0.259,4.021-3.687,7.608-8.116,6.155c-0.677,3.389-6.25,2.974-8.129,1.379c2.36,7.381-13.636,6.941-17.461,12.124
								c-4.236-3.149-12.423-0.731-14.676-6.671c-2.009-0.611-6.541-1.044-7.292,1.637c6.031-2.631,8.876,2.654,12.731,4.612
								c4.78-1.3,7.051,0.943,9.951,2.292c3.291-5.947,16.382-4.943,18.753-11.544c0.994,0.521,2.322,0.569,4.006,0.116
								c1.32-0.65,2.193-1.617,3.155-2.525c4.184,1.33,7.958-2.776,8.502-6.225c4.717-0.734,6.858-3.303,5.337-8.471
								c1.895-1.037,4.328-1.695,4.053-4.271c-3.691,4.545-11.227,4.012-13.689-0.867
								C326.329,265.23,331.222,266.41,335.164,266.488z M340.936,274.674c-2.197,6.609-6.93,11.424-13.84,14.691
								c3.357,1.662,5.321-2.053,8.908-1.51c1.572,1.305,1.704,4.631,3.049,6.254c3.91-0.344,11.003,0.209,10.127-3.708
								c-2.051,2.083-5.631,1.95-9.162,2.349c-1.242-0.967-1.284-3.629-2.08-5.223c-0.868-0.859-2.682-0.38-3.428-1.412
								c2.846-3.43,6.83-6.046,8.172-10.549c3.414-0.979,5.687-2.77,5.725-6.146c-0.154-0.422-0.531-0.533-0.904-0.642
								C346.836,271.822,345.035,274.063,340.936,274.674z M255.5,289.959c6.47-1.541,10.204,4.773,13.842,8.809
								c-1.871,0.941-3.994,1.703-4.124,3.883c1.924,0.346,2.858-2.66,5.48-2.918c3.787,1.378,8.257,1.798,10.476,5.388
								c1.086-1.628-1.966-3.425-1.498-4.126c3.124-0.803,5.316,1.993,7.362,1.141c-1.241-2.284-6.273-3.678-8.59-1.327
								c-2.425-1.704-4.049-0.673-6.267-1.729c-5.861-2.787-8.187-13.33-17.334-10.601
								C254.934,289.156,255.141,289.67,255.5,289.959z M290.022,305.613c1.862,0.375,1.97-1.354,3.671-1.818
								c4.442-1.203,7.498,1.287,8.605,6.111c3.929-2.008,8.258-0.883,10.205,1.452c2.06-3.605,8.309-2.704,10.775-2.226
								c-1.49-3.293-8.28-1.955-10.717,0.221c-2.337-1.587-5.945-2.563-9.364-1.195C302.438,301.99,292.443,299.44,290.022,305.613z
								 M359.91,294.951c1.513,1.064,0.848,5.203,2.598,5.932c0.855-1.388-0.222-2.828,0.119-4.004
								c1.781-0.924,4.569,0.567,4.127-1.494c-1.205-1.006-3.601-0.149-5.1,0.468c-0.639-2.46-2.119-3.732-4.592-3.603
								C357.164,294.347,359.363,293.487,359.91,294.951z M317.559,317.676c-2.201-5.53-8.913,0.09-13.946-0.027
								c-3.806-0.088-3.859-2.762-7.368-3.531C297.998,322.703,311.519,315.088,317.559,317.676z"/>
						</g>
					</g>
				</g>
			</g>
		</g>
		<g>
			<g>
				<g>
					<g>
						<g>
							<g>
								<path fill-rule="evenodd" clip-rule="evenodd" fill="#EC68A4" d="M314.691,242.078c0.531,0.05,0.725,0.576,1.293,0.576
									c-4.065,3.924-9.308,7.018-7.38,15.196c-7.915,1.306-12.192,15.647-0.734,14.46c1.109,2.92,4,3.322,6.019,4.955
									c-2.587,1.155-5.622-0.969-6.595-3.662c-12.129,1.115-8.362-15.091-0.05-16.718
									C305.512,248.955,310.634,245.896,314.691,242.078z"/>
							</g>
						</g>
					</g>
				</g>
			</g>
			<g>
				<g>
					<g>
						<g>
							<g>
								<path fill-rule="evenodd" clip-rule="evenodd" fill="#EC68A4" d="M285.938,255.721c6.197-1.787,15.446-2.225,16.794,2.729
									c-3.929-2.85-10.728-3.445-17.306-1.049c-0.843-2.973-3.654-3.168-5.245-5.087
									C282.385,251.238,284.854,253.644,285.938,255.721z"/>
							</g>
						</g>
					</g>
				</g>
			</g>
			<g>
				<g>
					<g>
						<g>
							<g>
								<path fill-rule="evenodd" clip-rule="evenodd" fill="#EC68A4" d="M332.807,254.94c-2.125,0.827-5.449-2.054-8.715,0.282
									C324.496,251.158,331.568,252.863,332.807,254.94z"/>
							</g>
						</g>
					</g>
				</g>
			</g>
			<g>
				<g>
					<g>
						<g>
							<g>
								<path fill-rule="evenodd" clip-rule="evenodd" fill="#EC68A4" d="M269.973,271.968c2.71-0.614,5.027-0.684,6.779,0.046
									c2.354-2.29,7.942-4.367,11.161-2.29c-1.472,1.599-7.732-0.056-9.479,2.802c0.99,1.641,2.891,2.005,3.176,4.639
									c6.624-3.022,11.794,2.523,13.126,6.938c-2.756-1.01-5.109-7.127-9.899-6.688c-1.395,0.13-1.985,0.982-3.739,1.434
									c-1.701-4.808-5.199-7.071-11.639-5.194c-1.178-2.657-2.553-5.036-4.985-5.926c-2.461-0.246-3.554,1.822-4.969,1.239
									C261.979,263.973,269.354,267.063,269.973,271.968z"/>
							</g>
						</g>
					</g>
				</g>
			</g>
			<g>
				<g>
					<g>
						<g>
							<g>
								<path fill-rule="evenodd" clip-rule="evenodd" fill="#EC68A4" d="M326.625,260.766c2.463,4.879,9.998,5.412,13.689,0.867
									c0.275,2.576-2.158,3.234-4.053,4.271c1.521,5.168-0.62,7.736-5.337,8.471c-0.544,3.448-4.318,7.555-8.502,6.225
									c-0.962,0.908-1.835,1.875-3.155,2.525c-1.684,0.453-3.012,0.404-4.006-0.116c-2.371,6.601-15.462,5.597-18.753,11.544
									c-2.9-1.349-5.171-3.592-9.951-2.292c-3.855-1.958-6.701-7.243-12.731-4.612c0.751-2.681,5.283-2.248,7.292-1.637
									c2.253,5.939,10.44,3.521,14.676,6.671c3.826-5.183,19.822-4.743,17.461-12.124c1.879,1.595,7.452,2.01,8.129-1.379
									c4.43,1.453,8.375-2.135,8.116-6.155c4.542-0.292,6.903-2.136,5.663-6.536C331.222,266.41,326.329,265.23,326.625,260.766z"
									/>
							</g>
						</g>
					</g>
				</g>
			</g>
			<g>
				<g>
					<g>
						<g>
							<g>
								<path fill-rule="evenodd" clip-rule="evenodd" fill="#EC68A4" d="M347.502,268.778c0.373,0.108,0.75,0.22,0.904,0.642
									c-0.038,3.377-2.311,5.168-5.725,6.146c-1.342,4.503-5.326,7.119-8.172,10.549c0.746,1.032,2.56,0.553,3.428,1.412
									c0.796,1.594,0.838,4.256,2.08,5.223c3.531-0.398,7.111-0.266,9.162-2.349c0.876,3.917-6.217,3.364-10.127,3.708
									c-1.345-1.623-1.477-4.949-3.049-6.254c-3.587-0.543-5.551,3.172-8.908,1.51c6.91-3.268,11.643-8.082,13.84-14.691
									C345.035,274.063,346.836,271.822,347.502,268.778z"/>
							</g>
						</g>
					</g>
				</g>
			</g>
			<g>
				<g>
					<g>
						<g>
							<g>
								<path fill-rule="evenodd" clip-rule="evenodd" fill="#EC68A4" d="M254.847,288.478c9.147-2.729,11.473,7.813,17.334,10.601
									c2.218,1.057,3.841,0.025,6.267,1.729c2.317-2.351,7.349-0.957,8.59,1.327c-2.046,0.853-4.238-1.943-7.362-1.141
									c-0.468,0.701,2.584,2.498,1.498,4.126c-2.219-3.59-6.689-4.01-10.476-5.388c-2.622,0.258-3.556,3.264-5.48,2.918
									c0.13-2.18,2.253-2.941,4.124-3.883c-3.638-4.035-7.372-10.35-13.842-8.809C255.141,289.67,254.934,289.156,254.847,288.478
									z"/>
							</g>
						</g>
					</g>
				</g>
			</g>
			<g>
				<g>
					<g>
						<g>
							<g>
								<path fill-rule="evenodd" clip-rule="evenodd" fill="#EC68A4" d="M303.199,308.158c3.418-1.367,7.027-0.392,9.364,1.195
									c2.437-2.176,9.227-3.514,10.717-0.221c-2.467-0.479-8.716-1.38-10.775,2.226c-1.947-2.335-6.276-3.46-10.205-1.452
									c-1.108-4.824-4.164-7.314-8.605-6.111c-1.701,0.465-1.809,2.193-3.671,1.818
									C292.443,299.44,302.438,301.99,303.199,308.158z"/>
							</g>
						</g>
					</g>
				</g>
			</g>
			<g>
				<g>
					<g>
						<g>
							<g>
								<path fill-rule="evenodd" clip-rule="evenodd" fill="#EC68A4" d="M357.063,292.25c2.473-0.13,3.953,1.143,4.592,3.603
									c1.499-0.617,3.895-1.474,5.1-0.468c0.442,2.062-2.346,0.57-4.127,1.494c-0.341,1.176,0.736,2.616-0.119,4.004
									c-1.75-0.729-1.085-4.867-2.598-5.932C359.363,293.487,357.164,294.347,357.063,292.25z"/>
							</g>
						</g>
					</g>
				</g>
			</g>
			<g>
				<g>
					<g>
						<g>
							<g>
								<path fill-rule="evenodd" clip-rule="evenodd" fill="#EC68A4" d="M296.244,314.117c3.509,0.77,3.562,3.443,7.368,3.531
									c5.034,0.117,11.745-5.503,13.946,0.027C311.519,315.088,297.998,322.703,296.244,314.117z"/>
							</g>
						</g>
					</g>
				</g>
			</g>
		</g>
	</g>
	<circle fill="#191717" cx="275.769" cy="375.321" r="5.169"/>
	<circle fill="#191717" cx="337.801" cy="375.321" r="5.17"/>
	<path fill="none" stroke="#645655" stroke-width="4.8583" stroke-linecap="round" stroke-miterlimit="10" d="M307.482,388.495
		c5.428,0,9.831,4.399,9.831,9.83l0,0c0,5.427-4.402,9.826-9.831,9.826"/>
	<path fill="none" stroke="#645655" stroke-width="4.2361" stroke-linecap="round" stroke-miterlimit="10" d="M331.228,423.277
		c-3.343,4.234-10.418,9.768-23.27,9.768c-12.851,0-20.469-5.156-23.269-9.768"/>
</g>
</svg>
