<?xml version="1.0" encoding="utf-8"?>
<!-- Generator: Adobe Illustrator 16.0.0, SVG Export Plug-In . SVG Version: 6.00 Build 0)  -->
<!DOCTYPE svg PUBLIC "-//W3C//DTD SVG 1.1//EN" "http://www.w3.org/Graphics/SVG/1.1/DTD/svg11.dtd">
<svg version="1.1" id="Layer_1" xmlns="http://www.w3.org/2000/svg" xmlns:xlink="http://www.w3.org/1999/xlink" x="0px" y="0px"
	 width="162.121px" height="192.424px" viewBox="0 0 162.121 192.424" enable-background="new 0 0 162.121 192.424"
	 xml:space="preserve">
<g>
	<path fill="#F37264" d="M136.496,150.375c0,10.684-8.658,19.342-19.342,19.342H44.966c-10.684,0-19.341-8.658-19.341-19.342V70.588
		c0-10.684,8.657-19.343,19.341-19.343h72.188c10.684,0,19.342,8.659,19.342,19.343V150.375z"/>
	<rect x="36.852" y="81.832" fill="#F7E8D7" width="88.417" height="57.297"/>
	<g>
		<path fill="#FDEBCC" d="M127.771,50.272l0.121,0.239l-2.811-5.578h-0.045c4.008-1.845,6.805-5.869,6.805-10.57
			c0-6.438-5.221-11.656-11.658-11.656H41.796c-6.438,0-11.655,5.218-11.655,11.656c0,4.701,2.795,8.725,6.804,10.57h-0.047
			l-2.667,5.578h0.332c-2.588,0-5.986,3.225-5.986,5.813c0,2.586,2.098,4.683,4.684,4.683c2.589,0,4.686-2.097,4.686-4.683
			c0-2.588,2.298-4.685,4.885-4.685s4.685,2.097,4.685,4.685c0,2.586,2.097,4.683,4.685,4.683c2.587,0,4.684-2.097,4.684-4.683
			c0-2.588,2.099-4.685,4.688-4.685c2.586,0,4.683,2.097,4.683,4.685c0,2.586,2.099,4.683,4.686,4.683
			c2.589,0,4.685-2.097,4.685-4.683c0-2.588,2.099-4.685,4.684-4.685c2.589,0,4.688,2.097,4.688,4.685
			c0,2.586,2.096,4.683,4.684,4.683s4.685-2.097,4.685-4.683c0-2.588,2.099-4.685,4.685-4.685c2.587,0,4.686,2.097,4.686,4.685
			c0,2.586,2.097,4.683,4.686,4.683c2.587,0,4.683-2.097,4.683-4.683c0-2.588,2.097-4.685,4.686-4.685
			c2.587,0,4.685,2.097,4.685,4.685c0,2.586,2.099,4.683,4.686,4.683c2.588,0,4.686-2.097,4.686-4.683
			C131.842,53.736,130.358,50.272,127.771,50.272z"/>
		<rect x="34.23" y="43.108" fill="#DD5A50" width="93.662" height="7.403"/>
	</g>
	<g>
		<g>
			<path fill="#DD5A50" d="M87.023,107.705c-1.213,7.513-10.006,23.063-17.521,21.841c-7.518-1.223-10.916-18.758-9.691-26.271
				c1.222-7.521,8.302-12.625,15.823-11.405C83.146,93.101,88.256,100.178,87.023,107.705z"/>
			<path fill="#42E588" d="M69.871,97.791c0.084-0.084,0.152-0.177,0.23-0.257l0.021,0.024l2.7-2.431l0,0l-0.25,0.227
				c0.102-0.063,0.188-0.103,0.281-0.162l-0.064,0.287l-0.127,0.636c-0.123,0.866-0.245,1.725-0.15,2.697
				c-0.006,0.239,0.03,0.489,0.099,0.761c0.075,0.271,0.079,0.509,0.237,0.811c0.213,0.581,0.697,1.198,1.467,1.641
				c0.269,0.146,0.604,0.189,0.918,0.084l0.12-0.029c0.597-0.203,1.071-0.589,1.365-1.018c0.26-0.402,0.412-0.789,0.51-1.147
				c0.166-0.704,0.197-1.275,0.102-1.981l-0.004,0.513c0.004-0.203-0.021-0.409-0.021-0.614c0.403,0.327,0.82,0.634,1.384,0.915
				c0.415,0.15,0.654,0.33,1.306,0.383c0.478,0.116,1.339-0.049,2.023-0.478l0.065-0.042c0.602-0.379,0.902-1.112,0.708-1.836
				c-0.06-0.253-0.15-0.513-0.261-0.758c-0.101-0.245-0.234-0.527-0.323-0.608c-0.172-0.242-0.396-0.551-0.555-0.731l-0.817-0.901
				l-0.267-0.302l-0.042-0.037c-0.234-0.175-0.497-0.331-0.754-0.474c0.404-0.286,0.782-0.607,1.178-0.911
				c0.065-0.052,0.094-0.133,0.071-0.208c-0.034-0.093-0.142-0.146-0.239-0.112l-1.521,0.523l-1.27,0.155
				c-0.138-0.005-0.273-0.016-0.408-0.021c-0.236-0.299-0.518-0.607-0.971-0.934c-0.055-0.035-0.137-0.076-0.197-0.114l0.227-0.203
				c1.223-1.044,2.472-2.047,3.742-3.019c0.263-0.18,0.333-0.539,0.153-0.803c-0.186-0.264-0.543-0.331-0.8-0.158l-0.029,0.021
				c-1.326,0.901-2.674,1.763-4.053,2.588L74.629,90.4c0.014-0.024-0.147,0.054-0.297,0.121c-0.146-0.167-0.252-0.329-0.434-0.493
				c-0.113-0.13-0.332-0.254-0.519-0.375c0.127-0.384,0.246-0.76,0.358-1.142l0.103-1.458c0.009-0.077-0.038-0.153-0.12-0.181
				c-0.089-0.035-0.19,0.022-0.222,0.111l-0.013,0.046c-0.268,0.78-0.625,1.449-1.079,2.109c-0.257-0.062-0.537-0.108-0.778-0.135
				c-0.271-0.043-0.561,0.034-0.789,0.225l-0.043,0.027c-0.422,0.345-0.711,0.853-0.688,1.349l-1.025-0.141
				c-0.131-0.026-0.275-0.054-0.412-0.076l0.011,0.015l-0.174-0.019c-0.591-0.084-1.198,0.236-1.445,0.812
				c-0.307,0.692,0.017,1.495,0.714,1.802l0.66,0.279c0.471,0.206,0.903,0.326,1.36,0.494l-1.776,2.013L67.9,95.92
				c-0.467,0.529-0.454,1.342,0.048,1.848C68.479,98.303,69.34,98.317,69.871,97.791z M75.469,99.272h0.027
				C75.536,99.272,75.51,99.29,75.469,99.272z M78.979,97.521c0,0,0.008-0.003,0.008-0.011l0.001,0.013
				C79.07,97.614,78.992,97.558,78.979,97.521z"/>
		</g>
		<g>
			<path fill="#F37264" d="M96.28,126.901c-4.718,4.371-18.653,10.156-23.023,5.435c-4.368-4.717,2.478-18.16,7.198-22.529
				c4.724-4.368,12.092-4.083,16.462,0.634C101.286,115.165,101.003,122.533,96.28,126.901z"/>
			<path fill="#42E588" d="M90.008,111.388c0.1-0.011,0.188-0.038,0.283-0.052l0.004,0.026l3.058-0.212l0,0l-0.276,0.021
				c0.096,0.015,0.179,0.027,0.264,0.041l-0.188,0.154l-0.416,0.358c-0.531,0.513-1.058,1.021-1.509,1.717
				c-0.121,0.153-0.225,0.346-0.322,0.556c-0.091,0.218-0.211,0.383-0.266,0.663c-0.156,0.503-0.156,1.162,0.127,1.857
				c0.102,0.24,0.304,0.439,0.566,0.531l0.101,0.043c0.501,0.176,1.013,0.168,1.431,0.031c0.385-0.135,0.688-0.312,0.934-0.494
				c0.479-0.385,0.797-0.749,1.101-1.273l-0.271,0.341c0.112-0.13,0.205-0.285,0.311-0.415c0.093,0.424,0.211,0.848,0.44,1.324
				c0.205,0.318,0.267,0.56,0.676,0.938c0.255,0.326,0.914,0.661,1.594,0.728l0.065,0.009c0.594,0.063,1.179-0.273,1.423-0.854
				c0.095-0.199,0.168-0.418,0.225-0.64c0.06-0.216,0.114-0.475,0.098-0.569c0.011-0.253,0.02-0.574,0.011-0.777l-0.073-1.025
				l-0.023-0.341l-0.007-0.047c-0.069-0.239-0.161-0.473-0.256-0.703c0.416,0.016,0.837,0,1.26,0.005c0.068,0,0.129-0.041,0.156-0.1
				c0.021-0.084-0.027-0.173-0.104-0.199l-1.286-0.443l-0.928-0.563c-0.086-0.066-0.175-0.148-0.261-0.223
				c-0.006-0.32-0.029-0.672-0.159-1.129c-0.021-0.053-0.051-0.117-0.075-0.178l0.26-0.013c1.354-0.06,2.711-0.081,4.06-0.068
				c0.269,0.022,0.505-0.184,0.521-0.451c0.013-0.271-0.188-0.504-0.451-0.521h-0.032c-1.35-0.095-2.695-0.223-4.039-0.386
				l-1.015-0.115c0.017-0.009-0.131-0.044-0.264-0.073c-0.009-0.189,0.005-0.348-0.03-0.555c-0.01-0.145-0.089-0.336-0.15-0.52
				c0.283-0.191,0.558-0.372,0.829-0.574l0.831-0.915c0.045-0.049,0.054-0.125,0.014-0.184c-0.045-0.071-0.142-0.087-0.207-0.044
				l-0.036,0.029c-0.581,0.376-1.163,0.639-1.81,0.843c-0.143-0.181-0.305-0.356-0.446-0.494c-0.161-0.172-0.397-0.275-0.648-0.268
				h-0.042c-0.457,0.012-0.914,0.198-1.153,0.54l-0.608-0.625c-0.082-0.084-0.16-0.181-0.237-0.263l-0.004,0.015l-0.107-0.111
				c-0.349-0.355-0.914-0.455-1.379-0.203c-0.563,0.307-0.767,1.004-0.463,1.572l0.295,0.531c0.206,0.375,0.432,0.682,0.652,1.03
				l-2.235,0.416l-0.148,0.032c-0.587,0.106-0.998,0.657-0.931,1.254C88.811,111.006,89.38,111.458,90.008,111.388z M92.967,115.29
				l0.018,0.014C93.01,115.321,92.984,115.317,92.967,115.29z M96.211,115.945c0,0,0.005,0,0.006-0.007l-0.001,0.014
				C96.225,116.053,96.199,115.971,96.211,115.945z"/>
		</g>
	</g>
</g>
</svg>
