<?xml version="1.0" encoding="utf-8"?>
<!-- Generator: Adobe Illustrator 16.0.0, SVG Export Plug-In . SVG Version: 6.00 Build 0)  -->
<!DOCTYPE svg PUBLIC "-//W3C//DTD SVG 1.1//EN" "http://www.w3.org/Graphics/SVG/1.1/DTD/svg11.dtd">
<svg version="1.1" id="Layer_1" xmlns="http://www.w3.org/2000/svg" xmlns:xlink="http://www.w3.org/1999/xlink" x="0px" y="0px"
	 width="139px" height="105px" viewBox="11 -55 139 105" enable-background="new 11 -55 139 105" xml:space="preserve">
<g>
	<rect x="33" y="-30" fill="#FDEBCC" width="35" height="56"/>
	<path fill="#30A9D8" d="M74.592-36c0,3.174-2.104,6-4.697,6H31.129c-2.596,0-4.699-2.826-4.699-6l0,0c0-3.174,2.104-6,4.699-6
		h38.766C72.488-42,74.592-39.174,74.592-36L74.592-36z"/>
	<path fill="#45B9F5" d="M74.592-38.5c0,1.586-1.051,2.5-2.35,2.5H28.779c-1.299,0-2.35-0.914-2.35-2.5l0,0
		c0-1.586,1.051-2.5,2.35-2.5h43.463C73.541-41,74.592-40.086,74.592-38.5L74.592-38.5z"/>
	<g>
		<line fill="none" stroke="#EA9E42" stroke-miterlimit="10" x1="33" y1="-26.5" x2="68" y2="-26.5"/>
		<line fill="none" stroke="#EA9E42" stroke-miterlimit="10" x1="33" y1="-21.5" x2="68" y2="-21.5"/>
		<line fill="none" stroke="#EA9E42" stroke-miterlimit="10" x1="33" y1="-17.5" x2="68" y2="-17.5"/>
		<line fill="none" stroke="#EA9E42" stroke-miterlimit="10" x1="33" y1="-11.5" x2="68" y2="-11.5"/>
		<line fill="none" stroke="#EA9E42" stroke-miterlimit="10" x1="33" y1="-6.5" x2="68" y2="-6.5"/>
		<line fill="none" stroke="#EA9E42" stroke-miterlimit="10" x1="33" y1="-3.5" x2="68" y2="-3.5"/>
		<line fill="none" stroke="#EA9E42" stroke-miterlimit="10" x1="33" y1="1.5" x2="68" y2="1.5"/>
		<line fill="none" stroke="#EA9E42" stroke-miterlimit="10" x1="33" y1="7.5" x2="68" y2="7.5"/>
		<line fill="none" stroke="#EA9E42" stroke-miterlimit="10" x1="33" y1="11.5" x2="68" y2="11.5"/>
		<line fill="none" stroke="#EA9E42" stroke-miterlimit="10" x1="33" y1="16.5" x2="68" y2="16.5"/>
		<line fill="none" stroke="#EA9E42" stroke-miterlimit="10" x1="33" y1="21.5" x2="68" y2="21.5"/>
		<line fill="#CC72E1" x1="33" y1="27" x2="68" y2="27"/>
	</g>
	<g>
		<circle fill="#DD584E" cx="99.632" cy="-30.475" r="7.821"/>
		<line fill="none" stroke="#534741" stroke-miterlimit="10" x1="99.5" y1="35" x2="99.5" y2="-22"/>
		<path fill="#F37264" d="M91.812-30.475c0-4.318,3.502-7.82,7.821-7.82c4.318,0,7.82,3.502,7.82,7.82"/>
	</g>
	<g>
		<circle fill="#FDEBCC" cx="126.75" cy="-30.475" r="7.82"/>
		<line fill="none" stroke="#534741" stroke-miterlimit="10" x1="126.5" y1="35" x2="126.5" y2="-22"/>
		<path fill="#FFFFFF" d="M118.93-30.475c0-4.318,3.502-7.82,7.82-7.82c4.32,0,7.82,3.502,7.82,7.82"/>
	</g>
	<path fill="#30A9D8" d="M26.43,31c0-3.174,2.104-6,4.697-6h38.766c2.596,0,4.699,2.826,4.699,6l0,0c0,3.174-2.104,6-4.699,6H31.127
		C28.533,37,26.43,34.174,26.43,31L26.43,31z"/>
	<path fill="#45B9F5" d="M26.43,33.5c0-1.586,1.051-2.5,2.35-2.5h43.463c1.299,0,2.35,0.914,2.35,2.5l0,0
		c0,1.586-1.051,2.5-2.35,2.5H28.779C27.48,36,26.43,35.086,26.43,33.5L26.43,33.5z"/>
</g>
</svg>
