<?xml version="1.0" encoding="utf-8"?>
<!-- Generator: Adobe Illustrator 16.0.0, SVG Export Plug-In . SVG Version: 6.00 Build 0)  -->
<!DOCTYPE svg PUBLIC "-//W3C//DTD SVG 1.1//EN" "http://www.w3.org/Graphics/SVG/1.1/DTD/svg11.dtd">
<svg version="1.1" id="Layer_1" xmlns="http://www.w3.org/2000/svg" xmlns:xlink="http://www.w3.org/1999/xlink" x="0px" y="0px"
	 width="433.121px" height="493.334px" viewBox="0 0 433.121 493.334" enable-background="new 0 0 433.121 493.334"
	 xml:space="preserve">
<g>
	<g>
		<path fill="#F39463" d="M1955.854,250.583c0,0,16.967-1.286,17.74,21.082c0.77,22.368,2.313,33.68,2.313,33.68
			s1.799,16.199,1.799,18.511c0,2.314,0.416,13.21-3.855,23.074c-3.926,9.066-10.541,18.578-17.996,17.807
			c-7.457-0.771-14.656-6.43-17.227-19.025c-2.57-12.598-1.543-17.74,0-42.937c1.543-25.195,0.758-31.627,0.758-31.627
			S1937.063,251.999,1955.854,250.583z"/>
		<path fill="none" d="M1938.756,300.902c4.049,11.139,8.453,16.098,18.01,16.098h0.121c12.979,0,17.898-7.273,17.898-21.152
			l-1.549-27.925c-0.287-7.836-6.793-16.923-16.35-16.923h-0.121c-9.557,0-17.432,7.51-17.432,16.824L1938.756,300.902z"/>
		<path fill="#9D99AD" d="M1955.209,255c0,0-9.646,0.877-10.934,9.877c-1.283,8.994-1.283,17.406-1.283,17.406
			s-1.863,9.475,6.139,11.787c7.295,2.111,6.551,0.357,6.801,2.858l-0.016,0.844c0.025-0.161,0.045-0.31,0.063-0.451
			c0,41.031,0.035,0.283,0.063,0.443l-0.018-0.854c0.252-2.503-0.492-0.768,6.801-2.876c8.002-2.313,6.141-11.827,6.141-11.827
			s0-8.333-1.285-17.333c-1.285-8.996-10.295-9.875-10.295-9.875H1955.209z"/>
		<path fill="#B5573E" d="M1944.871,291.351c0.947,1.172,2.309,2.164,4.26,2.728c7.295,2.109,6.551,0.351,6.801,2.854l-0.016,0.84
			c0.025-0.159,0.045-0.31,0.063-0.449c0,41.029,0.035,0.281,0.063,0.441l-0.018-0.854c0.252-2.502-0.492-0.768,6.801-2.877
			c1.914-0.553,3.26-1.52,4.205-2.669C1963.342,290.738,1953.295,289.374,1944.871,291.351z"/>
		<line fill="none" x1="1964" y1="292" x2="1964" y2="316"/>
		<line fill="none" x1="1944" y1="295" x2="1944" y2="314"/>
		<path fill="#B5573E" d="M1944.699,311.739c3.039,3.656,6.781,4.727,12.188,4.727c4.852-0.681,17.154,1.993,17.928-21.598
			c0,0,2.895,22.097,2.895,26.677l-0.686,13.858c-1.129,5.557-5.475,9.6-10.887,9.6c-4.754,0-8.738-2.859-9.641-6.656
			c-0.906,3.797-4.891,6.656-9.643,6.656c-2.914,0-5.223-0.57-6.844-2.082c-1.391-1.301-2.277-3.289-2.605-6.207l-0.342-10.157
			l1.693-25.92C1938.756,299.83,1939.631,305.643,1944.699,311.739z"/>
		<rect x="1951" y="266" fill="#51515E" width="6" height="17"/>
		<line fill="none" stroke="#B5573E" stroke-width="2" stroke-miterlimit="10" x1="1960" y1="299" x2="1949" y2="299"/>
		<line fill="none" stroke="#B5573E" stroke-width="2" stroke-miterlimit="10" x1="1960" y1="304" x2="1949" y2="304"/>
		<line fill="none" stroke="#B5573E" stroke-width="2" stroke-miterlimit="10" x1="1960" y1="308" x2="1949" y2="308"/>
		<line fill="none" x1="1960" y1="314" x2="1949" y2="314"/>
		<path fill="#F39463" d="M1913.277,250.583c0,0-16.969-1.286-17.74,21.082s-2.314,33.68-2.314,33.68s-1.799,16.199-1.799,18.511
			c0,2.314-0.416,13.21,3.857,23.074c3.926,9.066,10.541,18.578,17.996,17.807c7.457-0.771,14.656-6.43,17.227-19.025
			c2.57-12.598,1.543-17.74,0-42.937c-1.545-25.195-0.758-31.627-0.758-31.627S1932.068,251.999,1913.277,250.583z"/>
		<path fill="none" d="M1930.375,300.902c-4.049,11.139-8.453,16.098-18.01,16.098h-0.123c-12.977,0-17.896-7.273-17.896-21.152
			l1.549-27.925c0.287-7.836,6.793-16.923,16.348-16.923h0.123c9.557,0,17.432,7.51,17.432,16.824L1930.375,300.902z"/>
		<path fill="#9D99AD" d="M1913.922,255c0,0,9.645,0.877,10.93,9.877c1.287,8.994,1.287,17.406,1.287,17.406
			s1.863,9.475-6.139,11.787c-7.295,2.111-6.553,0.357-6.801,2.858l0.014,0.844c-0.023-0.161-0.045-0.31-0.061-0.451
			c0,41.031-0.037,0.283-0.063,0.443l0.016-0.854c-0.252-2.503,0.494-0.768-6.801-2.876c-8.002-2.313-6.139-11.827-6.139-11.827
			s0-8.333,1.285-17.333c1.285-8.996,10.295-9.875,10.295-9.875H1913.922z"/>
		<path fill="#B5573E" d="M1924.258,291.351c-0.947,1.172-2.309,2.164-4.258,2.728c-7.295,2.109-6.553,0.351-6.801,2.854l0.014,0.84
			c-0.023-0.159-0.045-0.31-0.061-0.449c0,41.029-0.037,0.281-0.063,0.441l0.016-0.854c-0.252-2.502,0.494-0.768-6.801-2.877
			c-1.914-0.553-3.258-1.52-4.205-2.669C1905.787,290.738,1915.834,289.374,1924.258,291.351z"/>
		<line fill="none" x1="1901" y1="292" x2="1901" y2="316"/>
		<line fill="none" x1="1922" y1="295" x2="1922" y2="314"/>
		<path fill="#B5573E" d="M1924.43,311.739c-3.037,3.656-6.781,4.727-12.188,4.727c-4.85-0.681-17.154,1.993-17.924-21.598
			c0,0-2.896,22.097-2.896,26.677l0.684,13.858c1.131,5.557,5.475,9.6,10.889,9.6c4.752,0,8.736-2.859,9.641-6.656
			c0.904,3.797,4.889,6.656,9.641,6.656c2.914,0,5.223-0.57,6.846-2.082c1.391-1.301,2.275-3.289,2.604-6.207l0.344-10.157
			l-1.693-25.92C1930.375,299.83,1929.498,305.643,1924.43,311.739z"/>
		<line fill="none" stroke="#B5573E" stroke-width="2" stroke-miterlimit="10" x1="1906" y1="299" x2="1918" y2="299"/>
		<line fill="none" stroke="#B5573E" stroke-width="2" stroke-miterlimit="10" x1="1906" y1="304" x2="1918" y2="304"/>
		<line fill="none" stroke="#B5573E" stroke-width="2" stroke-miterlimit="10" x1="1906" y1="308" x2="1918" y2="308"/>
		<line fill="none" x1="1908" y1="314" x2="1918" y2="314"/>
		<rect x="1908" y="266" fill="#51515E" width="6" height="17"/>
	</g>
	<path fill="#226C89" d="M1860,350.477c0,3.047-0.449,5.523-3.439,5.523h-81.619c-2.988,0-6.941-2.477-6.941-5.523v-91.587
		c0-3.046,3.953-5.889,6.941-5.889h81.619c2.99,0,3.439,2.843,3.439,5.889V350.477z"/>
	<path fill="#114859" d="M1831.82,264l28.18,7.084v-14.027c0-3.131,0.324-5.057-2.807-5.057h-83.469
		c-3.131,0-5.725,1.926-5.725,5.057v13.849l34.189-6.906H1831.82z"/>
	<rect x="1808" y="278" fill="#1FADE5" width="14" height="78"/>
	<polyline fill="none" points="1771.814,271.709 1802.795,264 1832.422,264 1864.617,274.064 	"/>
	<path fill="none" d="M1796,308h-13.488c1.564,2,0.488,3.135,0.488,5.134v37.032c0,1.367-1.088,2.621-1.895,3.602l14.895,0.102V308z
		"/>
	<path fill="none" d="M1783,313.134c0-1.999,1.076-3.134-0.488-5.134h-11.76c0,0,0.379,32.861,0.152,39.863
		c-0.152,4.713,5.67,5.763,5.67,5.763l6.194,0.093c0.805-0.979,0.231-2.186,0.231-3.553V313.134z"/>
	<line fill="none" x1="1770" y1="325" x2="1798" y2="325"/>
	<line fill="none" x1="1776" y1="325" x2="1776" y2="340"/>
	<line fill="none" x1="1791" y1="325" x2="1791" y2="340"/>
	<line fill="none" x1="1838" y1="325" x2="1864" y2="325"/>
	<line fill="none" x1="1773" y1="319" x2="1782" y2="319"/>
	<line fill="none" x1="1815" y1="292" x2="1815" y2="302"/>
	<line fill="none" x1="1815" y1="314" x2="1815" y2="325"/>
	<line fill="none" x1="1815" y1="336" x2="1815" y2="347"/>
	<line fill="none" x1="1815" y1="336" x2="1815" y2="347"/>
	<path fill="#F39463" d="M1779,318.51c0,1.375-1.115,2.49-2.49,2.49h-0.02c-1.375,0-2.49-1.115-2.49-2.49v-0.02
		c0-1.375,1.115-2.49,2.49-2.49h0.02c1.375,0,2.49,1.115,2.49,2.49V318.51z"/>
	<path fill="#F39463" d="M1818,298.511c0,1.375-1.115,2.489-2.49,2.489h-0.02c-1.375,0-2.49-1.114-2.49-2.489v-0.021
		c0-1.375,1.115-2.489,2.49-2.489h0.02c1.375,0,2.49,1.114,2.49,2.489V298.511z"/>
	<path fill="#F39463" d="M1818,321.51c0,1.375-1.115,2.49-2.49,2.49h-0.02c-1.375,0-2.49-1.115-2.49-2.49v-0.02
		c0-1.375,1.115-2.49,2.49-2.49h0.02c1.375,0,2.49,1.115,2.49,2.49V321.51z"/>
	<path fill="#F39463" d="M1818,340.51c0,1.375-1.115,2.49-2.49,2.49h-0.02c-1.375,0-2.49-1.115-2.49-2.49v-0.02
		c0-1.375,1.115-2.49,2.49-2.49h0.02c1.375,0,2.49,1.115,2.49,2.49V340.51z"/>
	<path fill="none" d="M1836,319v6.453V355h17.432c0,0,2.145,0,4.787,0h0.102c2.334,0,2.722-2.613,3.146-4.824L1860,349.5v-1.451V319
		H1836z"/>
	<polygon fill="#114859" points="1860,317 1836,317 1836,323.94 1836,325 1860,325 	"/>
	<path fill="#45B9F5" d="M1806.938,294.908l10.666-12.167c0,0-19.789-24.741-20.502-30.741h-9.117
		C1787.984,252,1787.984,269.359,1806.938,294.908z"/>
	<path fill="#45B9F5" d="M1828.277,294.908l-10.668-12.167c0,0,19.789-24.741,20.502-30.741h9.117
		C1847.229,252,1847.229,269.359,1828.277,294.908z"/>
	<polygon fill="#114859" points="1817.652,283.502 1813.154,278 1822.145,278 	"/>
</g>
<g>
	<polygon fill="#F39463" points="269.816,280 269.008,346.152 227.7,359 81,359 81,67 314,67 314,280 	"/>
	<rect x="81" y="380" fill="#F9A95E" width="240" height="97"/>
	<rect x="80" y="380" fill="#F39463" width="241" height="97"/>
	<rect x="256" y="400" fill="#FFFEFF" width="41" height="59"/>
	<rect x="279" y="104" fill="#91C079" width="13" height="39"/>
	<rect x="258" y="104" fill="#203647" width="21" height="39"/>
	<rect x="254" y="104" fill="#30A49D" width="4" height="39"/>
	<rect x="244" y="104" fill="#8AC475" width="10" height="39"/>
	<rect x="251" y="96" fill="#EDFFFF" width="33" height="8"/>
	<rect x="251" y="143" fill="#EDFFFF" width="33" height="8"/>
	<rect x="251" y="94" fill="#09A893" width="33" height="2"/>
	<path fill="#EDFFFF" d="M280.426,88c-1.221-6-5.863-9.157-11.418-9.157c-5.557,0-10.199,3.157-11.422,9.157H251v6h6.654h22.703H284
		v-6H280.426z"/>
	<rect x="245" y="151" fill="#30A49D" width="43" height="5"/>
	<path fill="#F37264" d="M284,156v-2.085c0,2.242,0.555,5.085-2.748,5.085H257.82c-3.301,0-6.82-2.843-6.82-5.085V156H284z"/>
	<rect x="142" y="104" fill="#91C079" width="11" height="39"/>
	<rect x="119" y="104" fill="#203647" width="23" height="39"/>
	<rect x="116" y="104" fill="#30A49D" width="3" height="39"/>
	<rect x="102" y="104" fill="#8AC475" width="14" height="39"/>
	<rect x="109" y="96" fill="#EDFFFF" width="37" height="8"/>
	<rect x="109" y="143" fill="#EDFFFF" width="37" height="8"/>
	<rect x="109" y="94" fill="#09A893" width="37" height="2"/>
	<path fill="#EDFFFF" d="M141.922,88c-1.221-6-5.863-9.157-11.42-9.157c-5.555,0-10.199,3.157-11.42,9.157H109v6h10.153h22.701H146
		v-6H141.922z"/>
	<rect x="105" y="151" fill="#30A49D" width="45" height="5"/>
	<path fill="#F37264" d="M146,156v-2.085c0,2.242,0.049,5.085-3.25,5.085h-23.434c-3.301,0-9.317-2.843-9.317-5.085V156H146z"/>
	<rect x="279" y="210" fill="#91C079" width="13" height="40"/>
	<rect x="258" y="210" fill="#203647" width="21" height="40"/>
	<rect x="254" y="210" fill="#30A49D" width="4" height="40"/>
	<rect x="244" y="210" fill="#8AC475" width="10" height="40"/>
	<rect x="251" y="204" fill="#EDFFFF" width="33" height="6"/>
	<rect x="251" y="250" fill="#EDFFFF" width="33" height="8"/>
	<rect x="251" y="200" fill="#09A893" width="33" height="4"/>
	<path fill="#EDFFFF" d="M280.426,193c-1.221-5-5.863-9.159-11.418-9.159c-5.557,0-10.199,4.159-11.422,9.159H251v7h6.654h22.703
		H284v-7H280.426z"/>
	<rect x="245" y="258" fill="#30A49D" width="43" height="4"/>
	<path fill="#F37264" d="M284,262v-1.471c0,2.242,0.555,5.471-2.748,5.471H257.82c-3.301,0-6.82-3.229-6.82-5.471V262H284z"/>
	<rect x="135" y="291" fill="#91C079" width="13" height="39"/>
	<rect x="112" y="291" fill="#203647" width="23" height="39"/>
	<rect x="109" y="291" fill="#30A49D" width="3" height="39"/>
	<rect x="99" y="291" fill="#8AC475" width="10" height="39"/>
	<rect x="102" y="282" fill="#EDFFFF" width="40" height="9"/>
	<rect x="102" y="330" fill="#EDFFFF" width="40" height="9"/>
	<rect x="102" y="280" fill="#09A893" width="40" height="2"/>
	<path fill="#EDFFFF" d="M136.254,273c-1.221-4-5.865-9.158-11.422-9.158c-5.555,0-10.199,5.158-11.42,9.158H102v7h11.483h22.701
		H142v-7H136.254z"/>
	<path fill="#FFFEFF" d="M291.162,392c-1.33-7-6.387-9.158-12.434-9.158c-6.053,0-11.105,2.158-12.439,9.158H256v7h10.367h24.719
		H297v-7H291.162z"/>
	<rect x="101" y="339" fill="#30A49D" width="44" height="2"/>
	<path fill="#F37264" d="M142,341v-0.102c0,2.242-1.619,3.102-4.921,3.102h-23.43c-3.303,0-9.649-0.859-9.649-3.102V341H142z"/>
	<rect x="81" y="55" fill="#EDFFFF" width="233" height="8"/>
	<rect x="314" y="55" fill="#14A99B" width="41" height="8"/>
	<rect x="314" y="63" fill="#ED564A" width="38" height="4"/>
	<rect x="81" y="63" fill="#F37264" width="233" height="4"/>
	<rect x="265" y="407" fill="#1D3354" width="23" height="52"/>
	<rect x="276" y="407" fill="#88C66F" width="12" height="52"/>
	<rect x="262" y="407" fill="#359991" width="3" height="52"/>
	<rect x="256" y="399" fill="#14A4A3" width="41" height="1"/>
	<polygon fill="#18A1AF" points="266,352.922 226,365.223 226,357.844 266,345.543 	"/>
	<polygon fill="#FFFEFF" points="81.905,366 130.502,366 227.7,359 83.526,359 	"/>
	<rect x="80" y="366" fill="#FFFEFF" width="241" height="8"/>
	<rect x="81" y="374" fill="#F37264" width="240" height="6"/>
	<polygon fill="#0FA9A5" points="361,358.662 321,372.604 321,366.045 361,352.102 	"/>
	<polygon fill="#ED564A" points="321,377.523 358,363.582 358,358.662 321,372.604 	"/>
	<polygon fill="#F37264" points="358,452.16 321,477.17 321,377.523 358,363.582 	"/>
	<polygon fill="#FDFFFF" points="252,459 252,466 242,466 242,473 233,473 233,477 243.494,477 252.404,477 288,477 288,459 	"/>
	<polygon fill="#11ADA5" points="288,459 288,466 279,466 279,473 270,473 270,477 281.563,477 290.471,477 297,477 297,459 	"/>
	<polygon fill="#F37264" points="355,265.17 314,279.932 314,67 355,67 	"/>
	<polygon fill="#F37264" points="226,280 269.816,280 268.159,345.576 226,357.844 	"/>
	<polygon fill="#2A2F46" points="321,368 115.569,368 115.114,366 321,366 	"/>
	<path fill="#45B9F5" d="M130,143v-17.249c0,0,3.338-10.751-9.216-10.751s-44.549,0-44.549,0S59,115.09,59,131.904
		c0,16.813,0,344.034,0,344.034s7,4.102,11,0V132.313c0,0,0.161-9.313,11.905-9.313c11.746,0,36.449,0,36.449,0
		s3.646-0.118,3.646,6.854c0,6.97,0,13.146,0,13.146S123.5,143,130,143z"/>
	<path fill="#226C89" d="M346.764,402h57.227c0,0,4.01-0.617,4.01,6.355c0,6.969,0,41.826,0,41.826s4,3.689,9-0.822v-45.105
		c0,0,1.975-13.254-10.58-13.254s-59.656,0-59.656,0S343.156,396.166,346.764,402z"/>
	<path fill="#2669A3" d="M279.883,297.676"/>
	<path fill="#226C89" d="M417,476v-75.148c0,0-6-7.791-9-3.279V476"/>
	<path fill="#2669A3" d="M275.883,291.676"/>
	<path fill="#45B9F5" d="M365,122h-25.348c0,0-4.455,4,0,10H369"/>
	<path fill="#F9DC62" d="M346.608,217.158c6.262,0,13.052,1.057,13.052-9.356c0-11.891,0.604-61.465,0.604-61.465
		s-0.121-5.226-7.004-5.282c-6.885-0.055-13.741-0.262-13.741-0.262s-4.406-4.134,0.086-9.019l17.828,0.308
		c0,0,11.977-0.805,11.877,11.906c-0.102,12.711-0.546,47.465-0.546,64.893c0,10.102-2.222,17.12-20.917,17.12H317v-8.786
		L346.608,217.158z"/>
	<polygon fill="#11ADA5" points="295,359 295,351 287,351 287,343 276,343 276,337.75 230.588,337.938 230.588,337.938 
		230.588,337.938 230.588,337.938 265.361,366 296.141,366 296.156,366 296.141,366 300,366 300,359 	"/>
	<polygon fill="#FFFEFF" points="256,359 256,351 251,351 251,343 242,343 242,339 225.672,339 225.825,339 225.825,339 
		225.825,339 257.947,366 257.947,366 257.947,366 258.072,366 265,366 265,359 	"/>
	<rect x="81" y="366" fill="#0E9B8E" width="145" height="2"/>
	<path fill="none" stroke="#F9DC62" stroke-width="7" stroke-linecap="round" stroke-miterlimit="10" d="M275,418.5
		c0,0,26.348,0,35.598,0c4,0,5.902-0.91,5.902-8.41s0-14.707,0-21.375c0-1.625,1.223-5.215,5.098-5.215s12.402,0,12.402,0"/>
	<path fill="none" stroke="#F9DC62" stroke-width="9" stroke-miterlimit="10" d="M269.5,239c0,0,0-5.535,0-9.41
		c0-6.042,4.473-8.09,6.098-8.09c6.668,0,41.875,0,49.375,0s7.527,5.381,7.527,9.381V479"/>
	<path fill="none" stroke="#F9DC62" stroke-width="9" stroke-miterlimit="10" d="M279,243.5h-2.475c0,0-6.726,1-6.726-4.5"/>
	<path fill="none" stroke="#226C89" stroke-width="9" stroke-miterlimit="10" d="M134.5,143V34.273c0,0,1.991-15.773-15.509-15.773
		s-87.5,0-87.5,0S20.5,16.773,20.5,30.773s0,263.5,0,263.5S20.792,305.5,33.391,305.5s101.609,0,101.609,0"/>
	<path fill="#45B9F5" d="M135,313.146c0,0-38.314,0.41-43.174,0c-4.861-0.41-4.826-2.871-4.826-2.871s0-21.322,0-26.654
		c0-5.328-5.904-6.621-5.904-6.621H70.567c0,0-1.621,3,0,5h6.883c0,0,4.16-0.033,4.16,5.293c0,5.334-0.109,26.166-0.109,26.166
		s0.287,4.973,5.146,5.382c4.859,0.41,48.354,0.343,48.354,0.343V313.146z"/>
	<path fill="none" stroke="#45B9F5" stroke-width="9" stroke-miterlimit="10" d="M279,128.5h-40.509c0,0-16.991-3.56-16.991-15.894
		s0-42.167,0-57c0-9.333,4.74-15.106,17.407-15.106c12.667,0,130.583,0,130.583,0s12.01-1.394,12.01,12.689s0,59.083,0,59.083
		s1.189,14.227-12.098,14.227c-14.244,0-29.402,0-29.402,0"/>
</g>
</svg>
