<?xml version="1.0" encoding="utf-8"?>
<!-- Generator: Adobe Illustrator 16.0.0, SVG Export Plug-In . SVG Version: 6.00 Build 0)  -->
<!DOCTYPE svg PUBLIC "-//W3C//DTD SVG 1.1//EN" "http://www.w3.org/Graphics/SVG/1.1/DTD/svg11.dtd">
<svg version="1.1" id="Layer_1" xmlns="http://www.w3.org/2000/svg" xmlns:xlink="http://www.w3.org/1999/xlink" x="0px" y="0px"
	 width="438px" height="499px" viewBox="103.61 104.583 438 499" enable-background="new 103.61 104.583 438 499"
	 xml:space="preserve">
<g>
	<polygon fill="#F9A95D" points="375.933,387.583 375.125,453.735 333.815,466.583 188.61,466.583 188.61,174.583 421.61,174.583 
		421.61,387.583 	"/>
	<rect x="188.61" y="487.583" fill="#F9A95E" width="240" height="97"/>
	<rect x="187.61" y="487.583" fill="#F9A95D" width="241" height="97"/>
	<rect x="363.61" y="507.583" fill="#FFFEFF" width="41" height="59"/>
	<rect x="386.61" y="211.583" fill="#91C079" width="13" height="39"/>
	<rect x="365.61" y="211.583" fill="#203647" width="21" height="39"/>
	<rect x="361.61" y="211.583" fill="#30A49D" width="4" height="39"/>
	<rect x="351.61" y="211.583" fill="#8AC475" width="10" height="39"/>
	<rect x="358.61" y="203.583" fill="#EDFFFF" width="33" height="8"/>
	<rect x="358.61" y="250.583" fill="#EDFFFF" width="33" height="8"/>
	<rect x="358.61" y="201.583" fill="#09A893" width="33" height="2"/>
	<path fill="#EDFFFF" d="M386.543,195.583c-1.221-6-5.865-9.157-11.419-9.157c-5.558,0-10.2,3.157-11.422,9.157h-5.093v6h5.162
		h22.702h5.136v-6H386.543z"/>
	<rect x="352.61" y="258.583" fill="#30A49D" width="43" height="5"/>
	<path fill="#EF4D3E" d="M391.61,263.583v-1.344c0,2.242-0.939,4.344-4.241,4.344h-23.431c-3.302,0-5.328-2.102-5.328-4.344v1.344
		H391.61z"/>
	<rect x="249.61" y="211.583" fill="#91C079" width="11" height="39"/>
	<rect x="226.61" y="211.583" fill="#203647" width="23" height="39"/>
	<rect x="223.61" y="211.583" fill="#30A49D" width="3" height="39"/>
	<rect x="209.61" y="211.583" fill="#8AC475" width="14" height="39"/>
	<rect x="216.61" y="203.583" fill="#EDFFFF" width="37" height="8"/>
	<rect x="216.61" y="250.583" fill="#EDFFFF" width="37" height="8"/>
	<rect x="216.61" y="201.583" fill="#09A893" width="37" height="2"/>
	<path fill="#EDFFFF" d="M248.04,195.583c-1.221-6-5.864-9.157-11.42-9.157c-5.555,0-10.199,3.157-11.42,9.157h-8.589v6h8.66h22.7
		h5.64v-6H248.04z"/>
	<rect x="212.61" y="258.583" fill="#30A49D" width="45" height="5"/>
	<path fill="#EF4D3E" d="M253.61,263.583v-1.344c0,2.242-1.443,4.344-4.744,4.344h-23.432c-3.302,0-7.824-2.102-7.824-4.344v1.344
		H253.61z"/>
	<rect x="386.61" y="317.583" fill="#91C079" width="13" height="40"/>
	<rect x="365.61" y="317.583" fill="#203647" width="21" height="40"/>
	<rect x="361.61" y="317.583" fill="#30A49D" width="4" height="40"/>
	<rect x="351.61" y="317.583" fill="#8AC475" width="10" height="40"/>
	<rect x="358.61" y="311.583" fill="#EDFFFF" width="33" height="6"/>
	<rect x="358.61" y="357.583" fill="#EDFFFF" width="33" height="8"/>
	<rect x="358.61" y="307.583" fill="#09A893" width="33" height="4"/>
	<path fill="#EDFFFF" d="M386.543,300.583c-1.221-5-5.865-9.159-11.419-9.159c-5.558,0-10.2,4.159-11.422,9.159h-5.093v7h5.162
		h22.702h5.136v-7H386.543z"/>
	<rect x="352.61" y="365.583" fill="#30A49D" width="43" height="4"/>
	<path fill="#EF4D3E" d="M391.61,369.583v-0.73c0,2.244-0.939,4.73-4.241,4.73h-23.431c-3.302,0-5.328-2.486-5.328-4.73v0.73H391.61
		z"/>
	<rect x="242.61" y="398.583" fill="#91C079" width="13" height="39"/>
	<rect x="219.61" y="398.583" fill="#203647" width="23" height="39"/>
	<rect x="216.61" y="398.583" fill="#30A49D" width="3" height="39"/>
	<rect x="206.61" y="398.583" fill="#8AC475" width="10" height="39"/>
	<rect x="209.61" y="389.583" fill="#EDFFFF" width="40" height="9"/>
	<rect x="209.61" y="437.583" fill="#EDFFFF" width="40" height="9"/>
	<rect x="209.61" y="387.583" fill="#09A893" width="40" height="2"/>
	<path fill="#EDFFFF" d="M242.37,380.583c-1.221-4-5.865-9.158-11.421-9.158c-5.555,0-10.199,5.158-11.42,9.158h-9.919v7h9.989
		h22.702h7.309v-7H242.37z"/>
	<path fill="#FFFEFF" d="M397.279,499.583c-1.329-7-6.386-9.158-12.435-9.158c-6.051,0-11.105,2.158-12.438,9.158h-8.797v7h8.875
		h24.718h7.407v-7H397.279z"/>
	<rect x="208.61" y="446.583" fill="#30A49D" width="44" height="2"/>
	<path fill="#EF4D3E" d="M249.61,448.583v0.641c0,2.242-3.112,2.359-6.414,2.359h-23.431c-3.302,0-8.155-0.117-8.155-2.359v-0.641
		H249.61z"/>
	<rect x="188.61" y="162.583" fill="#EDFFFF" width="233" height="8"/>
	<rect x="421.61" y="162.583" fill="#14A99B" width="41" height="8"/>
	<rect x="421.61" y="170.583" fill="#203458" width="38" height="4"/>
	<rect x="188.61" y="170.583" fill="#F54840" width="233" height="4"/>
	<rect x="372.61" y="514.583" fill="#1D3354" width="23" height="52"/>
	<rect x="383.61" y="514.583" fill="#88C66F" width="12" height="52"/>
	<rect x="369.61" y="514.583" fill="#359991" width="3" height="52"/>
	<rect x="363.61" y="506.583" fill="#14A4A3" width="41" height="1"/>
	<polygon fill="#18A1AF" points="373.61,461.247 333.61,473.545 333.61,466.168 373.61,453.866 	"/>
	<polygon fill="#FFFEFF" points="188.022,473.583 236.619,473.583 333.815,466.583 189.642,466.583 	"/>
	<rect x="187.61" y="473.583" fill="#FFFEFF" width="241" height="8"/>
	<rect x="188.61" y="481.583" fill="#F15040" width="240" height="6"/>
	<polygon fill="#0FA9A5" points="468.61,466.987 428.61,480.928 428.61,474.368 468.61,460.424 	"/>
	<polygon fill="#193247" points="428.61,485.848 465.61,471.907 465.61,466.987 428.61,480.928 	"/>
	<polygon fill="#EC4F3C" points="465.61,560.483 428.61,585.493 428.61,485.848 465.61,471.907 	"/>
	<polygon fill="#FDFFFF" points="359.61,566.583 359.61,573.583 349.61,573.583 349.61,580.583 340.61,580.583 340.61,584.583 
		349.61,584.583 358.52,584.583 395.61,584.583 395.61,566.583 	"/>
	<polygon fill="#11ADA5" points="395.61,566.583 395.61,573.583 386.61,573.583 386.61,580.583 377.61,580.583 377.61,584.583 
		387.678,584.583 396.588,584.583 404.61,584.583 404.61,566.583 	"/>
	<polygon fill="#EF4D3E" points="462.61,373.495 421.61,388.256 421.61,174.583 462.61,174.583 	"/>
	<polygon fill="#EF4D3E" points="333.61,387.583 375.933,387.583 375.022,453.53 333.61,466.168 	"/>
	<polygon fill="#2A2F46" points="428.61,475.583 221.686,475.583 221.231,473.583 428.61,473.583 	"/>
	<path fill="#17A197" d="M237.61,248.839v-14.764c0,0,1.844-11.493-10.71-11.493c-12.554,0-44.548,0-44.548,0
		s-15.742,0.832-15.742,17.645c0,16.813,0,344.035,0,344.035s7,4.1,11,0V240.637c0,0-1.333-10.054,10.412-10.054
		c11.745,0,36.449,0,36.449,0s5.139,0.624,5.139,7.595c0,6.97,0,10.661,0,10.661S232.61,253.35,237.61,248.839z"/>
	<path fill="#2669A3" d="M452.879,509.583h57.227c0,0,5.504,0.125,5.504,7.096s0,41.826,0,41.826s4,3.689,9-0.82v-45.105
		c0,0,0.48-13.996-12.072-13.996c-12.555,0-59.658,0-59.658,0S443.969,505.583,452.879,509.583z"/>
	<path fill="#2669A3" d="M386,406"/>
	<path fill="#2669A3" d="M524.61,583.583v-74.408c0,0-6-7.789-9-3.277v77.686"/>
	<path fill="#2669A3" d="M133.61,192.016v-57.942c0,0-0.042-4.491,6.844-4.491c6.884,0,41.309,0,41.309,0s3.644-6-0.811-10h-44.549
		c0,0-13.793-0.682-13.793,12.028c0,12.713,0,60.405,0,60.405S128.61,201.038,133.61,192.016z"/>
	<path fill="#2669A3" d="M211.61,119.583h-47.811c0,0-7.693,7-3.238,10h51.049"/>
	<path fill="#2669A3" d="M231.299,406.583h-94.458c0,0-4.231,1.543-4.231-5.43c0-6.971,0-41.828,0-41.828s-5-3.689-10,0.822v45.105
		c0,0-0.753,12.33,11.8,12.33c12.555,0,98.507,0,98.507,0S240.209,411.583,231.299,406.583z"/>
	<path fill="#2669A3" d="M122.61,185.583v214.879c0,0,0.311,0,10.022-11.475l1.463-203.428"/>
	<path fill="#2669A3" d="M382,400"/>
	<path fill="#17A197" d="M381.827,240.583h-38.067c0,0-14.149,1.369-14.149-11.342c0-12.712,0-69.709,0-69.709
		s3.619-13.949,20.225-13.949c16.604,0,109.748,0,109.748,0s4.049,7,0,11H350.239c0,0-9.629-3.204-9.629,8.689s0,61.511,0,61.511
		s0.313,3.8,7.199,3.8c6.886,0,34.018,0,34.018,0S386.281,236.583,381.827,240.583z"/>
	<path fill="#17A197" d="M445.77,239.583h38.066c0,0,10.773,0.729,10.773-11.982s0-68.069,0-68.069s-0.242-13.949-16.846-13.949
		s-106.514,0-106.514,0s-4.047,7,0,11h106.107c0,0,9.252-3.204,9.252,8.689s0,59.868,0,59.868s0.063,4.443-6.822,4.443
		c-6.884,0-34.018,0-34.018,0S441.315,233.583,445.77,239.583z"/>
	<path fill="#2669A3" d="M165.61,119.583h68.502c0,0,12.498,1.554,12.498,18.367c0,16.812,0,111.123,0,111.123s-3.578,4.101-8.438,0
		l1.046-110.269c0,0,0.968-9.221-10.777-9.221c-11.743,0-59.832,0-59.832,0"/>
	<path fill="#FFE00A" d="M445.739,240.103l17.817,0.306c0,0,11.975-0.806,11.876,11.905c-0.102,12.711-0.549,69.707-0.549,69.707
		c0.251-2.185,0.549,13.471-18.148,13.471c-16.605-0.002-45.764-1.188-45.764-1.188s-4.007-4.134,0.08-9.021l45.355,0.363
		c0,0,9.52,2.454,9.614-9.438c0.093-11.891,0.482-61.506,0.482-61.506s-0.183-5.246-7.066-5.303
		c-6.884-0.055-13.769-0.271-13.769-0.271S441.246,244.987,445.739,240.103z"/>
	<polygon fill="#11ADA5" points="402.61,466.583 402.61,458.583 394.61,458.583 394.61,450.583 383.61,450.583 383.61,446.075 
		337.452,445.891 337.452,445.891 337.452,445.891 337.452,445.891 371.479,473.583 402.256,473.583 402.274,473.583 
		402.256,473.583 407.61,473.583 407.61,466.583 	"/>
	<polygon fill="#FFFEFF" points="363.61,466.583 363.61,458.583 358.61,458.583 358.61,450.583 349.61,450.583 349.61,446.583 
		331.79,446.583 331.942,446.583 331.942,446.583 331.942,446.583 364.065,473.583 364.065,473.583 364.065,473.583 
		364.188,473.583 372.61,473.583 372.61,466.583 	"/>
	<path fill="#FFDE15" d="M373.61,351.352V336.59c0,0,0.309-12.007,12.864-12.007c12.553,0,44.545,0,44.545,0
		s12.591,1.347,12.591,18.159c0,16.812,0,161.97,0,161.97s-5,4.102-9,0v-161.56c0,0,2.484-9.569-9.26-9.569s-36.447,0-36.447,0
		s-5.293,0.139-5.293,7.108c0,6.972,0,10.661,0,10.661S377.61,355.862,373.61,351.352z"/>
	<path fill="#FFDE15" d="M434.61,586.583v-136.74c0,0,4-4.1,9,0v136.74"/>
	<path fill="#FFDE15" d="M379.61,523.985c0,0,31.125,0.408,35.984,0c4.861-0.41,6.016-2.869,6.016-2.869s0-21.324,0-26.654
		c0-5.332,6.981-5.879,6.981-5.879h10.529c0,0,1.619,3,0,4h-6.886c0,0-4.971,0.502-4.971,5.83c0,5.33-0.697,25.616-0.697,25.616
		s-0.396,5.103-5.256,5.513c-4.858,0.41-41.701,0.48-41.701,0.48V523.985z"/>
	<rect x="188.61" y="473.583" fill="#0E9B8E" width="145" height="2"/>
	<path fill="#17A197" d="M232.61,421.471c0,0-28.314,0.41-33.173,0c-4.861-0.41-4.827-2.871-4.827-2.871s0-21.322,0-26.654
		c0-5.328-7.398-7.363-7.398-7.363h-10.529c0,0-1.62,3,0,5h6.884c0,0,4.16,0.338,4.16,5.664c0,5.334-0.11,26.351-0.11,26.351
		s1.033,5.065,5.892,5.474c4.859,0.41,39.101,0.438,39.101,0.438V421.471z"/>
</g>
</svg>
