<?xml version="1.0" encoding="utf-8"?>
<!-- Generator: Adobe Illustrator 16.0.0, SVG Export Plug-In . SVG Version: 6.00 Build 0)  -->
<!DOCTYPE svg PUBLIC "-//W3C//DTD SVG 1.1//EN" "http://www.w3.org/Graphics/SVG/1.1/DTD/svg11.dtd">
<svg version="1.1" id="Layer_1" xmlns="http://www.w3.org/2000/svg" xmlns:xlink="http://www.w3.org/1999/xlink" x="0px" y="0px"
	 width="139px" height="322px" viewBox="11 -55 139 322" enable-background="new 11 -55 139 322" xml:space="preserve">
<g>
	<path fill-rule="evenodd" clip-rule="evenodd" fill="#B5573E" d="M70.999-38.315l0.063-0.033c0.162-0.208,0.393-0.357,0.657-0.414
		c0.008-0.042,0.021-0.099,0.042-0.176c0.035-0.122,0.076-0.267,0.114-0.394c0.111-0.371,0.231-0.709,0.397-1.067
		c0.164-0.355,0.369-0.716,0.647-1.134c0.673-1.013,1.541-1.904,2.584-2.5c0.941-0.537,2.017-0.828,3.212-0.753
		c1.08,0.069,2.072,0.353,2.933,0.802c1.086,0.567,1.961,1.396,2.547,2.395c0.589,1.007,0.884,2.18,0.806,3.424
		c-0.058,0.913-0.318,1.862-0.814,2.811c-0.39,0.746-0.857,1.454-1.307,2.14c-0.807,1.224-1.563,2.37-1.566,3.303l-0.032,6.02
		c2.046,0.043,3.365,0.388,4.929,1.091c4.318,1.94,7.492,7.17,9.746,11.3c1.545,2.833,2.066,3.335,3.955,5.694
		c4.961,6.108,22.32,14.635,30.148,19.298c0.021,0.602,0.041,1.2,0.063,1.8c0.717-0.05,1.438-0.101,2.156-0.149
		c2.215,1.272,3.998,2.722,5.172,4.801c0.678,1.201,2.756,5.694,0.078,5.557c-0.752-0.038-0.902-0.21-2.109-0.952
		c-1.834-1.127-4.756-3.041-7.342-4.747H32.92c-2.584,1.706-5.507,3.62-7.34,4.747c-1.207,0.742-1.357,0.914-2.11,0.952
		c-2.678,0.138-0.599-4.355,0.079-5.557c1.174-2.079,2.957-3.528,5.172-4.801c0.72,0.049,1.439,0.1,2.158,0.149
		c0.022-0.6,0.041-1.198,0.061-1.8c7.829-4.663,25.188-13.19,30.148-19.298c1.887-2.359,2.412-2.862,3.956-5.694
		c2.253-4.129,5.427-9.36,9.746-11.3c1.598-0.718,2.939-1.063,5.063-1.093h-0.212l0.006-1.246l0.023-4.779
		c0.008-1.42,0.894-2.765,1.837-4.197c0.428-0.649,0.872-1.321,1.226-1.999c0.381-0.732,0.583-1.46,0.625-2.153
		c0.059-0.91-0.153-1.764-0.58-2.492c-0.431-0.734-1.081-1.348-1.889-1.77c-0.659-0.344-1.429-0.561-2.276-0.615
		c-0.853-0.054-1.623,0.155-2.298,0.54c-0.804,0.458-1.484,1.164-2.024,1.978c-0.232,0.347-0.396,0.638-0.526,0.915
		c-0.126,0.273-0.223,0.544-0.313,0.85c-0.05,0.167-0.08,0.274-0.106,0.366c-0.092,0.33-0.15,0.532-0.262,0.718
		c0.005,0.041,0.007,0.082,0.007,0.122c0,0.625-0.507,1.132-1.133,1.132s-1.133-0.507-1.133-1.132c0-0.232,0.07-0.448,0.191-0.628
		L70.999-38.315L70.999-38.315z M124.361,17.344c-0.611-0.401-1.088-0.716-1.379-0.899c-9.428-6.006-40.891-26.563-42.482-27.602
		c-1.591,1.04-33.054,21.596-42.482,27.602c-0.29,0.184-0.769,0.498-1.377,0.899H124.361z"/>
	
		<line fill="none" stroke="#30A9D8" stroke-width="4" stroke-linecap="round" stroke-miterlimit="10" x1="44" y1="2" x2="44" y2="42"/>
	
		<line fill="none" stroke="#30A9D8" stroke-width="4" stroke-linecap="round" stroke-miterlimit="10" x1="111" y1="2" x2="111" y2="42"/>
	<path fill="#30A9D8" d="M32.833,252.595c0,0-6.552-57.139-0.039-90.632c6.513-33.492,15.487-54.927,13.626-65.472
		c-1.86-10.544-10.243-28.24-10.243-34.753c0-6.512-1.246-8.985-1.246-13.627c0-4.969,16.123-11.195,18.293-11.195
		c2.171,0,22.018,9.921,27.29,9.921c5.272,0,22.208-9.925,26.24-9.925S124,43.113,124,45.284c0,2.17,0,11.551,0,16.435
		c0,4.765-9.83,27.242-9.83,39.956s6.925,24.271,12.091,45.033c5.168,20.762,5.14,30.685,5.14,49.602s-3.736,56.286-3.736,56.286
		S68.574,262.053,32.833,252.595z"/>
	<g>
		<path fill="#30A9D8" d="M80.513,105.445c22.887-0.609,30.254-1.917,33.391-3.685c0-0.028,0.266-0.057,0.266-0.086
			c0-12.714,9.83-35.191,9.83-39.956c0-4.884,0-14.265,0-16.435c0-2.171-13.215-8.372-17.246-8.372s-20.834,9.925-26.106,9.925
			s-25.185-9.921-27.356-9.921c-2.17,0-18.328,6.227-18.328,11.195c0,4.642,1.229,7.115,1.229,13.627
			c0,6.513,8.375,24.209,10.235,34.753c0.305,1.729,0.31,3.759,0.091,6.08C46.522,102.571,57.257,106.065,80.513,105.445z"/>
	</g>
	<path fill="#45B9F5" d="M49.144,252.595c0,0-6.551-57.139-0.039-90.632c6.513-33.492,15.487-54.927,13.626-65.472
		c-1.86-10.544-12.992-28.927-12.992-35.439s-0.87-8.407-0.87-13.049c0-4.968,2.185-11.087,4.355-11.087
		c2.171,0,22.018,9.921,27.29,9.921c5.272,0,22.208-9.925,26.24-9.925S124,43.113,124,45.284c0,2.17,0,11.551,0,16.435
		c0,4.765-9.83,27.242-9.83,39.956s6.925,24.271,12.091,45.033c5.168,20.762,5.14,30.685,5.14,49.602s-3.736,56.286-3.736,56.286
		S84.884,262.053,49.144,252.595z"/>
</g>
</svg>
