<?xml version="1.0" encoding="utf-8"?>
<!-- Generator: Adobe Illustrator 16.0.0, SVG Export Plug-In . SVG Version: 6.00 Build 0)  -->
<!DOCTYPE svg PUBLIC "-//W3C//DTD SVG 1.1//EN" "http://www.w3.org/Graphics/SVG/1.1/DTD/svg11.dtd">
<svg version="1.1" id="Layer_1" xmlns="http://www.w3.org/2000/svg" xmlns:xlink="http://www.w3.org/1999/xlink" x="0px" y="0px"
	 width="80.303px" height="190.909px" viewBox="0 0 80.303 190.909" enable-background="new 0 0 80.303 190.909"
	 xml:space="preserve">
<g>
	<path fill="none" stroke="#231F20" stroke-width="1.6504" stroke-miterlimit="10" d="M56.878,21.962"/>
	<g>
		<path fill="#FFFFFF" d="M45.121,21.962H33.377c0,17.455-3.165,26.261-3.165,26.261h9.94L45.121,21.962z"/>
		<path fill="#EFE9D5" d="M50.09,48.223c0,0-3.166-8.806-3.166-26.261h-3.241l-3.53,29.668L50.09,48.223z"/>
		<path fill="#473F3D" d="M42.651,48.223H30.212c0,0-3.877,13.474-5.715,17.557c-1.837,4.082-3.675,11.637-2.04,13.27
			c0,0-0.229,0.576-0.568,1.675h18.264L42.651,48.223z"/>
		<path fill="#473F3D" d="M20.406,117.769c2.122,15.416,4.91,23.826,0.416,31.916c-5.104,9.188-0.203,19.6-0.203,19.6
			s12.532,3.471,19.533,3.471v-54.986H20.406z"/>
		<path fill="#473F3D" d="M35.183,80.724c3.5,4.635,23.232,0,23.232,0c-0.339-1.099-0.568-1.675-0.568-1.675
			c1.633-1.633-0.203-9.187-2.041-13.27c-1.837-4.083-5.716-17.557-5.716-17.557h-8.688C41.401,48.223,30.988,75.169,35.183,80.724z
			"/>
		<path fill="#473F3D" d="M59.479,149.685c-4.493-8.09-1.706-16.5,0.418-31.916c0,0-22.246-5.1-24.715,0
			c-2.221,4.588,2.445,13.318-2.031,25.4c-3.443,9.294-9.5,18-7,27.492c13.907,3.135,14.001,2.094,14.001,2.094
			c13.334,0,19.531-3.471,19.531-3.471S64.585,158.873,59.479,149.685z"/>
		<path fill="#F37264" d="M21.889,80.724c-0.787,2.555-2.161,7.961-2.626,15.598c4.894,1.655,10.455,2.942,14.906,2.352
			c1.957-0.26,3.963-0.738,5.983-1.326V80.724H21.889z"/>
		<path fill="#F37264" d="M40.152,99.39c-1.976,0.377-3.982,0.82-5.983,1.342c-5.93,1.547-10.968,0.658-15.041-1.084
			c-0.075,3.457,0.04,7.281,0.471,11.453c0.243,2.363,0.52,4.578,0.808,6.668h19.746V99.39z"/>
		<path fill="#F37264" d="M58.415,80.724H40.152v16.624c7.063-2.049,14.319-5.486,20.424-6.094
			C59.956,86.274,59.016,82.67,58.415,80.724z"/>
		<path fill="#F37264" d="M59.897,117.769c0.288-2.09,0.563-4.305,0.808-6.668c0.529-5.131,0.587-9.742,0.39-13.777
			c-4.35,0.064-12.348,0.43-20.942,2.066v18.379H59.897z"/>
	</g>
	<path fill="#EFE9D5" d="M48,20.125C48,21.161,47.16,22,46.125,22h-13.25C31.84,22,31,21.161,31,20.125v-0.25
		C31,18.839,31.84,18,32.875,18h13.25C47.16,18,48,18.839,48,19.875V20.125z"/>
</g>
</svg>
