<?xml version="1.0" encoding="utf-8"?>
<!-- Generator: Adobe Illustrator 16.0.0, SVG Export Plug-In . SVG Version: 6.00 Build 0)  -->
<!DOCTYPE svg PUBLIC "-//W3C//DTD SVG 1.1//EN" "http://www.w3.org/Graphics/SVG/1.1/DTD/svg11.dtd">
<svg version="1.1" id="Layer_1" xmlns="http://www.w3.org/2000/svg" xmlns:xlink="http://www.w3.org/1999/xlink" x="0px" y="0px"
	 width="265.151px" height="136.364px" viewBox="0 0 265.151 136.364" enable-background="new 0 0 265.151 136.364"
	 xml:space="preserve">
<g>
	<g>
		<g>
			<path fill-rule="evenodd" clip-rule="evenodd" fill="#3E3E49" d="M18.724,91.531c0-0.008-0.001-0.016-0.001-0.024
				C18.723,91.993,18.723,92.02,18.724,91.531z M81.467,38.301c-1.476-2.296-3.744-4.03-6.425-4.815
				c-5.908-2.922-14.229-4.337-23.776-4.337c-9.549,0-18.381,1.416-24.29,4.337c-2.681,0.786-4.949,2.52-6.424,4.815
				c-1.171,1.482-1.815,3.074-1.815,4.734c0,32.664-0.009,46.23-0.013,48.496c0.006,1.649,0.649,3.234,1.814,4.71
				c1.476,2.295,3.743,4.029,6.424,4.814c5.909,2.923,14.794,4.384,24.343,4.384c9.548,0,17.815-1.461,23.725-4.384
				c2.681-0.785,4.949-2.52,6.424-4.814c1.171-1.483,1.666-3.014,1.666-4.673c0-3.906,0-20.238,0-48.549
				C83.119,41.135,82.638,39.783,81.467,38.301z"/>
		</g>
	</g>
	<path fill-rule="evenodd" clip-rule="evenodd" fill="#FDEBCC" d="M51.266,28.924c16.52,0,29.003,4.14,29.003,11.605
		s-11.79,11.975-28.311,11.975s-30.222-4.509-30.222-11.975S34.746,28.924,51.266,28.924z"/>
	<path fill-rule="evenodd" clip-rule="evenodd" fill="#F37264" d="M51.266,32.391c11.486,0,20.773,3.185,20.773,8.323
		c0,5.138-9.287,8.323-20.773,8.323c-11.487,0-21.467-3.186-21.467-8.323C29.799,35.575,39.778,32.391,51.266,32.391z"/>
	<g>
		<g>
			<path fill-rule="evenodd" clip-rule="evenodd" fill="#3E3E49" d="M99.845,93.531c0-0.008-0.001-0.016-0.001-0.024
				C99.844,93.993,99.844,94.02,99.845,93.531z M162.588,40.301c-1.476-2.296-3.743-4.03-6.425-4.815
				c-5.909-2.922-14.229-4.337-23.776-4.337c-9.549,0-18.381,1.416-24.29,4.337c-2.681,0.786-4.948,2.52-6.424,4.815
				c-1.171,1.482-1.815,3.074-1.815,4.734c0,32.664-0.009,46.23-0.013,48.496c0.006,1.649,0.649,3.234,1.815,4.71
				c1.475,2.295,3.742,4.029,6.423,4.814c5.909,2.923,14.794,4.384,24.343,4.384c9.548,0,17.816-1.461,23.725-4.384
				c2.682-0.785,4.949-2.52,6.424-4.814c1.172-1.483,1.666-3.014,1.666-4.673c0-3.906,0-20.238,0-48.549
				C164.24,43.135,163.759,41.783,162.588,40.301z"/>
		</g>
	</g>
	<path fill-rule="evenodd" clip-rule="evenodd" fill="#FDEBCC" d="M132.387,30.924c16.52,0,29.003,4.14,29.003,11.605
		s-11.791,11.975-28.311,11.975s-30.222-4.509-30.222-11.975S115.867,30.924,132.387,30.924z"/>
	<path fill-rule="evenodd" clip-rule="evenodd" fill="#F37264" d="M132.387,34.391c11.486,0,20.773,3.185,20.773,8.323
		c0,5.138-9.287,8.323-20.773,8.323s-21.467-3.186-21.467-8.323C110.92,37.575,120.9,34.391,132.387,34.391z"/>
	<g>
		<g>
			<path fill-rule="evenodd" clip-rule="evenodd" fill="#3E3E49" d="M180.967,93.531c0-0.008-0.001-0.016-0.001-0.024
				C180.966,93.993,180.966,94.02,180.967,93.531z M243.71,40.301c-1.476-2.296-3.743-4.03-6.424-4.815
				c-5.909-2.922-14.229-4.337-23.777-4.337c-9.549,0-18.381,1.416-24.29,4.337c-2.681,0.786-4.948,2.52-6.424,4.815
				c-1.172,1.482-1.815,3.074-1.815,4.734c0,32.664-0.009,46.23-0.013,48.496c0.006,1.649,0.649,3.234,1.815,4.71
				c1.475,2.295,3.743,4.029,6.424,4.814c5.909,2.923,14.794,4.384,24.341,4.384c9.549,0,17.816-1.461,23.727-4.384
				c2.68-0.785,4.948-2.52,6.423-4.814c1.172-1.483,1.665-3.014,1.665-4.673c0-3.906,0-20.238,0-48.549
				C245.361,43.135,244.882,41.783,243.71,40.301z"/>
		</g>
	</g>
	<path fill-rule="evenodd" clip-rule="evenodd" fill="#FDEBCC" d="M213.509,30.924c16.52,0,29.003,4.14,29.003,11.605
		s-11.791,11.975-28.311,11.975s-30.221-4.509-30.221-11.975S196.989,30.924,213.509,30.924z"/>
	<path fill-rule="evenodd" clip-rule="evenodd" fill="#F37264" d="M213.509,34.391c11.486,0,20.774,3.185,20.774,8.323
		c0,5.138-9.288,8.323-20.774,8.323s-21.466-3.186-21.466-8.323C192.043,37.575,202.022,34.391,213.509,34.391z"/>
</g>
</svg>
