<?xml version="1.0" encoding="utf-8"?>
<!-- Generator: Adobe Illustrator 16.0.0, SVG Export Plug-In . SVG Version: 6.00 Build 0)  -->
<!DOCTYPE svg PUBLIC "-//W3C//DTD SVG 1.1//EN" "http://www.w3.org/Graphics/SVG/1.1/DTD/svg11.dtd">
<svg version="1.1" id="Layer_1" xmlns="http://www.w3.org/2000/svg" xmlns:xlink="http://www.w3.org/1999/xlink" x="0px" y="0px"
	 width="125.757px" height="169.697px" viewBox="0 0 125.757 169.697" enable-background="new 0 0 125.757 169.697"
	 xml:space="preserve">
<g>
	<path fill="#716C7F" d="M96.455,139.453c0,6.813-5.523,12.335-12.336,12.335H28.791c-6.813,0-12.336-5.522-12.336-12.335V30.123
		c0-6.813,5.523-12.335,12.336-12.335h55.328c6.813,0,12.336,5.522,12.336,12.335V139.453z"/>
	<path fill="#55C5F2" d="M82.134,21.788H54.936H30.54c-6.429,0-10.085,4.326-10.085,10.758v100.541
		c0,6.432,3.656,11.701,10.085,11.701h24.396h27.198c6.429,0,10.32-5.27,10.32-11.701V32.546
		C92.455,26.114,88.563,21.788,82.134,21.788z"/>
	<g>
		<path fill="#716C7F" d="M83.174,67.788H55.975H31.579c-6.428,0-11.124,3.261-11.124,9.693v55.457
			c0,6.432,4.696,12.85,11.124,12.85h24.396h27.199c6.429,0,8.28-6.418,8.28-12.85V77.481
			C91.455,71.049,89.603,67.788,83.174,67.788z"/>
	</g>
	<path fill="#F4A982" stroke="#F4A982" stroke-width="2" stroke-miterlimit="10" d="M70.891,31.881
		c-7.906,6.376-11.437,16.735-11.437,22.31c0,11.051,0,26.598,0,26.598h12.448h10.243c0,0-0.324-15.375-0.324-26.425
		C81.822,48.787,78.799,38.257,70.891,31.881z"/>
	
		<path fill="#F39463" stroke="#F39463" stroke-width="2" stroke-linecap="round" stroke-linejoin="round" stroke-miterlimit="10" d="
		M70.909,60.153c-5.355,0-9.203-2.633-11.571-4.576c0,11.513,0.603,29.211,0.603,29.211h13.592h8.313c0,0,1.11-17.638,1.11-29.221
		C81.77,57.604,76.842,60.153,70.909,60.153z"/>
	<path fill="#F4A982" stroke="#F4A982" stroke-width="2" stroke-miterlimit="10" d="M41.253,31.881
		c-7.907,6.376-10.799,16.735-10.799,22.31c0,11.051,0,26.598,0,26.598h11.172H51.87c0,0-0.006-15.375-0.006-26.425
		C51.863,48.787,49.163,38.257,41.253,31.881z"/>
	<circle fill="#2B2B33" cx="41.626" cy="47.941" r="2.389"/>
	
		<path fill="#F39463" stroke="#F39463" stroke-width="2" stroke-linecap="round" stroke-linejoin="round" stroke-miterlimit="10" d="
		M40.633,60.153c-5.356,0-9.205-2.633-11.572-4.576c0,11.513,0.602,29.211,0.602,29.211h13.594h8.311c0,0,1.111-17.638,1.111-29.221
		C51.495,57.604,46.566,60.153,40.633,60.153z"/>
	<circle fill="#716C7F" cx="41.485" cy="47.938" r="1.121"/>
	<circle fill="#2B2B33" cx="71.903" cy="47.941" r="2.389"/>
	<path fill="#716C7F" d="M72.881,47.938c0,0.619-0.504,1.121-1.12,1.121c-0.62,0-1.122-0.502-1.122-1.121
		c0-0.62,0.502-1.122,1.122-1.122C72.377,46.817,72.881,47.319,72.881,47.938z"/>
	
		<line fill="none" stroke="#716C7F" stroke-width="5" stroke-linecap="round" stroke-miterlimit="10" x1="14.455" y1="77.288" x2="100.455" y2="77.288"/>
	<path fill="none" stroke="#716C7F" stroke-width="5" stroke-linecap="round" stroke-miterlimit="10" d="M111.955,86.631
		c0,1.259-1.175,2.657-2.433,2.657h-3.989c-1.258,0-3.578-2.539-3.578-3.797V68.967c0-1.259,2.32-3.679,3.578-3.679h3.989
		c1.258,0,2.433,1.28,2.433,2.539V86.631z"/>
	<path fill="#51515E" d="M94.455,87.454c0,1.841-1.492,3.334-3.334,3.334H21.789c-1.841,0-3.334-1.493-3.334-3.334V70.122
		c0-1.841,1.493-3.334,3.334-3.334h69.332c1.842,0,3.334,1.493,3.334,3.334V87.454z"/>
</g>
</svg>
