<?xml version="1.0" encoding="utf-8"?>
<!-- Generator: Adobe Illustrator 16.0.0, SVG Export Plug-In . SVG Version: 6.00 Build 0)  -->
<!DOCTYPE svg PUBLIC "-//W3C//DTD SVG 1.1//EN" "http://www.w3.org/Graphics/SVG/1.1/DTD/svg11.dtd">
<svg version="1.1" id="Layer_1" xmlns="http://www.w3.org/2000/svg" xmlns:xlink="http://www.w3.org/1999/xlink" x="0px" y="0px"
	 width="171.212px" height="362.121px" viewBox="0 0 171.212 362.121" enable-background="new 0 0 171.212 362.121"
	 xml:space="preserve">
<g>
	<path fill="#35C971" d="M88.091,50.524c0,9.252,3.251,32.572-6.001,32.572L70.883,67.275c-9.251,0-16.792-7.499-16.792-16.751
		V35.168c0-9.251,7.75-16.751,17-16.751l0,0c9.251,0,17,7.5,17,16.751V50.524z"/>
	<path fill="#42E588" d="M121.091,50.524c0,9.252-7.667,8.375-16.917,8.375L89.153,81.235c-2.565-9.292-1.063-21.459-1.063-30.711
		V35.168c0-9.251,7.25-16.751,16.5-16.751l0,0c9.25,0,16.5,7.5,16.5,16.751V50.524z"/>
	<path fill="#42E588" d="M85.521,102.64c0,0,8.205-63.856-37.813-70.263c-36.762-5.118-34.619,32.759-18.613,31.642
		C49.105,62.623,76.803,51.919,85.521,102.64z"/>
	<path fill="#35C971" d="M85.691,102.64c0,0-8.204-63.856,37.812-70.263c36.762-5.118,34.62,32.759,18.613,31.642
		C122.107,62.623,94.408,51.919,85.691,102.64z"/>
	<path fill="#E57E51" d="M84.466,342.788h-4.002c-16.19,0-46.252-166.274-39.272-216.528c2.228-16.035,13.125-29.472,29.315-29.472
		h30.71c16.189,0,28.104,13.326,29.314,29.472C134.72,182.098,100.656,342.788,84.466,342.788z"/>
	<g>
		<defs>
			<path id="SVGID_1_" d="M85.863,343.788H81.86c-16.189,0-46.252-166.274-39.271-216.529c2.228-16.035,13.125-29.471,29.314-29.471
				h30.711c16.189,0,28.104,13.327,29.314,29.471C136.116,183.098,102.052,343.788,85.863,343.788z"/>
		</defs>
		<clipPath id="SVGID_2_">
			<use xlink:href="#SVGID_1_"  overflow="visible"/>
		</clipPath>
		<path clip-path="url(#SVGID_2_)" fill="#F39463" d="M85.863,342.788H81.86c-16.189,0-46.252-166.274-39.271-216.528
			c2.228-16.035,13.125-29.472,29.314-29.472h30.711c16.189,0,28.104,13.326,29.314,29.472
			C136.116,182.098,102.052,342.788,85.863,342.788z"/>
		<g clip-path="url(#SVGID_2_)">
			<defs>
				<path id="SVGID_3_" d="M85.863,343.788H81.86c-16.189,0-46.252-166.274-39.271-216.529
					c2.228-16.035,13.125-29.471,29.314-29.471h30.711c16.189,0,28.104,13.327,29.314,29.471
					C136.116,183.098,102.052,343.788,85.863,343.788z"/>
			</defs>
			<clipPath id="SVGID_4_">
				<use xlink:href="#SVGID_3_"  overflow="visible"/>
			</clipPath>
			<path clip-path="url(#SVGID_4_)" fill="#F39463" d="M85.863,342.788H81.86c-16.189,0-46.252-166.274-39.271-216.528
				c2.228-16.035,13.125-29.472,29.314-29.472h30.711c16.189,0,28.104,13.326,29.314,29.472
				C136.116,182.098,102.052,342.788,85.863,342.788z"/>
		</g>
		
			<line clip-path="url(#SVGID_2_)" fill="none" stroke="#E57E51" stroke-width="14" stroke-linecap="round" stroke-miterlimit="10" x1="92.091" y1="182.788" x2="137.091" y2="182.788"/>
		
			<line clip-path="url(#SVGID_2_)" fill="none" stroke="#E57E51" stroke-width="14" stroke-linecap="round" stroke-miterlimit="10" x1="82.091" y1="276.788" x2="111.091" y2="276.788"/>
		
			<line clip-path="url(#SVGID_2_)" fill="none" stroke="#E57E51" stroke-width="14" stroke-linecap="round" stroke-miterlimit="10" x1="57.091" y1="232.788" x2="79.091" y2="232.788"/>
	</g>
</g>
</svg>
