<?xml version="1.0" encoding="utf-8"?>
<!-- Generator: Adobe Illustrator 16.0.0, SVG Export Plug-In . SVG Version: 6.00 Build 0)  -->
<!DOCTYPE svg PUBLIC "-//W3C//DTD SVG 1.1//EN" "http://www.w3.org/Graphics/SVG/1.1/DTD/svg11.dtd">
<svg version="1.1" id="Layer_1" xmlns="http://www.w3.org/2000/svg" xmlns:xlink="http://www.w3.org/1999/xlink" x="0px" y="0px"
	 width="228px" height="145px" viewBox="0 0 228 145" enable-background="new 0 0 228 145" xml:space="preserve">
<path fill="#716C7F" d="M105.836,11.021c-11.986,0.163-49.82-0.199-49.82-0.199L55.521,25.28c0,0-1.638,0.522-5.453,3.474
	C27.013,46.59,29.709,52.088,29.709,52.088l-0.696,7.139l-1.993,59.59c0,0-0.744,20.184,13.384,20.184c14.126,0,59.485,0,59.485,0
	s14.126-5.312,14.87-13.492c0.745-8.178,0.581-94.605,0.581-94.605l0.016-6.408C115.355,24.494,119.22,10.838,105.836,11.021z
	 M78.217,26.595L62,25.765V18h25.991L78.217,26.595z"/>
<polygon fill="#716C7F" points="32.79,35.24 26.637,26.031 9.201,22.126 10.904,14.531 30.248,18.969 39.652,30.771 "/>
<g>
	<g>
		<path fill="#324E5D" d="M191.29,130.273c0.001,1.598-1.288,2.89-2.882,2.894l-9.756,0.011c-1.598,0.004-2.891-1.284-2.893-2.883
			l0,0c0-1.593,1.285-2.888,2.884-2.892l9.755-0.011C189.992,127.389,191.29,128.681,191.29,130.273L191.29,130.273z"/>
		<path fill="#F8DB62" d="M220.957,45.934c-0.029-20.645-16.787-37.357-37.435-37.328c-0.198,0-0.394,0.013-0.594,0.016
			c-20.369,0.35-36.762,16.973-36.733,37.418c0.017,10.351,4.234,19.714,11.041,26.472c-0.008,0.031-0.014,0.065-0.025,0.095
			c10.725,12.755,8.597,23.427,8.628,44.738c0.01,6.49,4.808,11.742,10.71,11.732l6.555-0.01l7.561-0.011
			c5.906-0.01,10.686-5.272,10.676-11.762c-0.027-18.207-2.295-30.542,7.686-43.54c-0.025-0.109-0.037-0.224-0.063-0.334
			C216.352,66.578,220.973,56.797,220.957,45.934z"/>
		<polygon fill="none" stroke="#FFFFFF" stroke-width="2.9246" stroke-linecap="round" stroke-linejoin="round" points="
			179.516,101.795 173.604,58.058 181.47,62.799 192.979,58.58 186.645,101.785 		"/>
		<path fill="#3E3E49" d="M201.134,101.086l-35.169,0.05c0.096,4.874-0.135,10.397-0.126,17.067
			c0.01,6.014,4.808,10.883,10.71,10.873l14.115-0.021c5.906-0.01,10.686-4.887,10.676-10.903
			C201.331,111.798,201.006,106.217,201.134,101.086z"/>
		<path fill="#716C7F" d="M201.328,115.063c-0.008-1.502-0.055-2.933-0.102-4.313l-35.322,0.051
			c-0.033,1.35-0.062,2.789-0.065,4.313L201.328,115.063z"/>
		<path fill="#3E3E49" d="M166.139,120.709c1.123,4.801,5.355,8.373,10.41,8.367l14.115-0.021c5.058-0.008,9.279-3.593,10.384-8.396
			L166.139,120.709z"/>
		<path fill="#716C7F" d="M165.965,106.763l35.179-0.051c-0.038-1.597-0.056-3.155-0.01-4.648l-35.169,0.049
			C165.998,103.583,165.991,105.128,165.965,106.763z"/>
		<path fill="#716C7F" d="M200.236,122.819c0.627-1.233,1.053-2.885,1.006-4.264h-35.394c-0.357,1.65,0.644,3.269,1.11,4.311
			L200.236,122.819z"/>
		<path opacity="0.18" d="M165.965,101.136l33.547,23.111c0,0,2.732-4.134,1.811-8.444l-0.2-14.146L165.965,101.136z"/>
		<path fill="none" stroke="#FFFFFF" stroke-width="2.3455" stroke-linecap="round" d="M157.171,46.704
			c0,0-2.999-19.824,15.509-26.109"/>
	</g>
</g>
<path fill="#F27769" d="M100,122.829c0,1.751-1.42,3.171-3.171,3.171H43.171C41.42,126,40,124.58,40,122.829V59.171
	C40,57.42,41.42,56,43.171,56h53.658C98.58,56,100,57.42,100,59.171V122.829z"/>
<path fill="none" stroke="#F8DB62" stroke-width="2.2684" stroke-miterlimit="10" d="M89.929,89.098
	c0,10.334-8.376,18.713-18.712,18.713c-10.34,0-18.717-8.379-18.717-18.713c0-10.34,8.377-18.716,18.717-18.716
	C81.553,70.382,89.929,78.758,89.929,89.098z"/>
<path fill="none" stroke="#E6E9ED" stroke-width="1.1342" stroke-miterlimit="10" d="M71.214,89.098"/>
<path fill="#F8DB62" d="M76.804,87.416l-6.122-8.311l-5.298,8.457c-0.038,0.054-0.06,0.23-0.099,0.283L65.26,88h0.006
	c-0.491,0-0.867,1.367-1.073,2.246c-0.895,3.797,1.524,7.556,5.407,8.467c3.874,0.912,7.749-1.45,8.642-5.25
	C78.758,91.267,78.145,89.055,76.804,87.416z"/>
<polygon fill="#3E3E49" points="38.505,27.912 30.863,36.297 33.658,43.559 46.286,31.751 "/>
</svg>
