<?xml version="1.0" encoding="utf-8"?>
<!-- Generator: Adobe Illustrator 17.0.0, SVG Export Plug-In . SVG Version: 6.00 Build 0)  -->
<!DOCTYPE svg PUBLIC "-//W3C//DTD SVG 1.1//EN" "http://www.w3.org/Graphics/SVG/1.1/DTD/svg11.dtd">
<svg version="1.1" xmlns="http://www.w3.org/2000/svg" xmlns:xlink="http://www.w3.org/1999/xlink" x="0px" y="0px"
	 width="182.39px" height="166.66px" viewBox="0 0 182.39 166.66" enable-background="new 0 0 182.39 166.66" xml:space="preserve">
<g id="Layer_2">
</g>
<g id="Layer_3">
	<g>
		<path fill="#4EDF94" d="M51.936,48.557l0.376-0.137l0.067-3.435l-0.067,3.435l2.957-1.065c-0.072-0.038-0.152-0.082-0.228-0.118
			c4.635-5.572,13.107-8.181,27.717-4.879l21.257,4.915c0,0-8.572-24.586-58.773-14.749c0,0,20.304-18.038,37.516-18.038
			c0,0-54.392-20.997-55.875,27.871c0,0-37.983,42.607,0,59.022c0,0-8.209-35.034,10.782-44.263c0,0-1.035,44.263,21.618,44.263
			c0.211,0.511-13.445-30.068-7.6-47.928c0.182,0.173,0.34,0.353,0.52,0.526l0.11-5.558L51.936,48.557z"/>
		<path fill="#5E5F71" d="M55.27,47.355l-2.957,1.065l-0.11,5.558c44.149,43.027,28.095,102.681,28.095,102.681h10.154h9.702
			v-45.575C88.115,70.891,69.055,54.21,55.27,47.355z"/>
		<path fill="#7C778E" d="M138.855,67.286l-3.999-1.403c0.093,0.11,0.194,0.209,0.287,0.323
			c-10.511,5.171-24.833,17.271-34.854,45.307c-0.044-0.146-0.089-0.283-0.135-0.429v45.575h8.963h5.161
			c0,0-13.393-49.724,23.65-85.322L138.855,67.286z"/>
		<path fill="#4EDF94" d="M158.426,62.163c-1.227-40.397-46.189-23.033-46.189-23.033c14.225,0,31.01,14.905,31.01,14.905
			c-41.513-8.133-48.589,12.201-48.589,12.201l17.579-4.073c11.781-2.662,18.724-0.676,22.619,3.72l3.999,1.403l0.813-3.547
			l-0.813,3.547l2.6,0.917l-2.6-0.917l-0.927,4.051l0.011-0.006c4.822,14.768-6.462,40.057-6.293,39.624
			c18.737,0,17.871-36.597,17.871-36.597c15.716,7.632,8.914,36.597,8.914,36.597C189.837,97.393,158.426,62.163,158.426,62.163z"/>
		<path fill="#F5945D" d="M61.089,55.701c0,5.545-4.499,10.046-10.049,10.046c-5.547,0-10.046-4.501-10.046-10.046
			c0-5.549,4.499-10.049,10.046-10.049C56.59,45.653,61.089,50.152,61.089,55.701z"/>
		<circle fill="#F5945D" cx="136.992" cy="73.784" r="10.047"/>
	</g>
</g>
<g id="Layer_1">
</g>
<g id="Layer_4">
</g>
</svg>
