<?xml version="1.0" encoding="utf-8"?>
<!-- Generator: Adobe Illustrator 16.0.0, SVG Export Plug-In . SVG Version: 6.00 Build 0)  -->
<!DOCTYPE svg PUBLIC "-//W3C//DTD SVG 1.1//EN" "http://www.w3.org/Graphics/SVG/1.1/DTD/svg11.dtd">
<svg version="1.1" id="Layer_1" xmlns="http://www.w3.org/2000/svg" xmlns:xlink="http://www.w3.org/1999/xlink" x="0px" y="0px"
	 width="200px" height="60px" viewBox="-23 -2.5 200 60" enable-background="new -23 -2.5 200 60" xml:space="preserve">
<g>
	<g>
		<path fill="#42E8CE" d="M122.299,47.5C133.291,47.5,141,38.1,141,27.107v-1.021c0-10.99-7.709-18.586-18.701-18.586H71v40H122.299
			z"/>
		<path fill="#FFFFFF" d="M71,7.5H27.385C16.395,7.5,7,15.095,7,26.085v1.021C7,38.1,16.395,47.5,27.385,47.5H71V7.5z"/>
	</g>
	<path fill="#FFFFFF" d="M83.955,15c0-1.418,1.15-1.5,2.576-1.5h23.832c1.425,0,2.576,0.082,2.576,1.5c0,1.426-1.151,1.5-2.576,1.5
		H86.531C85.105,16.5,83.955,16.425,83.955,15z"/>
	<path fill="#FFFFFF" d="M118.092,15.657c0-1.425,1.154-2.58,2.578-2.58l0,0c1.426,0,2.578,1.155,2.578,2.58
		c0,1.422-1.152,2.575-2.578,2.575l0,0C119.247,18.232,118.092,17.079,118.092,15.657z"/>
</g>
</svg>
