<?xml version="1.0" encoding="utf-8"?>
<!-- Generator: Adobe Illustrator 16.0.0, SVG Export Plug-In . SVG Version: 6.00 Build 0)  -->
<!DOCTYPE svg PUBLIC "-//W3C//DTD SVG 1.1//EN" "http://www.w3.org/Graphics/SVG/1.1/DTD/svg11.dtd">
<svg version="1.1" id="Layer_1" xmlns="http://www.w3.org/2000/svg" xmlns:xlink="http://www.w3.org/1999/xlink" x="0px" y="0px"
	 width="154px" height="55px" viewBox="231.61 363.583 154 55" enable-background="new 231.61 363.583 154 55" xml:space="preserve"
	>
<g>
	<g>
		<path fill="#3FA9F5" d="M359.299,413c10.992,0,18.701-9.4,18.701-20.393v-1.021c0-10.99-7.709-18.586-18.701-18.586H308v40
			H359.299z"/>
		<path fill="#D4E3F9" d="M308,373h-43.615C253.394,373,244,380.596,244,391.586v1.021C244,403.6,253.394,413,264.385,413H308V373z"
			/>
	</g>
	<path fill="#FFFFFF" d="M320.955,380.5c0-1.418,1.151-1.5,2.576-1.5h23.832c1.425,0,2.576,0.082,2.576,1.5
		c0,1.426-1.151,1.5-2.576,1.5h-23.832C322.106,382,320.955,381.926,320.955,380.5z"/>
	<path fill="#FFFFFF" d="M355.092,381.157c0-1.424,1.154-2.58,2.578-2.58l0,0c1.426,0,2.578,1.156,2.578,2.58
		c0,1.422-1.152,2.576-2.578,2.576l0,0C356.247,383.733,355.092,382.579,355.092,381.157z"/>
</g>
</svg>
