<?xml version="1.0" encoding="utf-8"?>
<!-- Generator: Adobe Illustrator 17.0.0, SVG Export Plug-In . SVG Version: 6.00 Build 0)  -->
<!DOCTYPE svg PUBLIC "-//W3C//DTD SVG 1.1//EN" "http://www.w3.org/Graphics/SVG/1.1/DTD/svg11.dtd">
<svg version="1.1" xmlns="http://www.w3.org/2000/svg" xmlns:xlink="http://www.w3.org/1999/xlink" x="0px" y="0px"
	 width="422.81px" height="328.31px" viewBox="0 0 422.81 328.31" enable-background="new 0 0 422.81 328.31" xml:space="preserve">
<g id="Layer_2">
</g>
<g id="Layer_3">
</g>
<g id="Layer_1">
	<g>
		<path fill="#D3E4E3" d="M404.699,230.297H19.182c-2.483,0-4.498,2.01-4.498,4.498v28.966c0,2.489,2.015,4.498,4.498,4.498h17.904
			v28.553c0,11.867,9.627,21.499,21.501,21.499h14.321c11.872,0,21.499-9.632,21.499-21.499V268.26h246.396v28.553
			c0,11.867,9.632,21.499,21.504,21.499h14.319c11.872,0,21.499-9.632,21.499-21.499V268.26h6.574c2.479,0,4.489-2.01,4.489-4.498
			v-28.966C409.187,232.307,407.178,230.297,404.699,230.297"/>
		<path fill="#5E606C" d="M340.661,268.26v28.553c0,11.867,9.632,21.499,21.504,21.499h14.319c11.874,0,21.499-9.632,21.499-21.499
			V268.26"/>
		<path fill="#5E606C" d="M36.944,268.26v28.553c0,11.867,9.627,21.499,21.501,21.499h14.321c11.872,0,21.499-9.632,21.499-21.499
			V268.26H36.944z"/>
		<path fill="#43BAF2" d="M377.501,132.543c-12.504-54.345-54.618-118.18-66.354-118.18c-5.846,0-52.27-4.365-99.208-4.365
			c-47.354,0-95.214,4.365-100.271,4.365c-10.065,0-53.85,63.835-66.359,118.18c-42.394,8.2-34.938,80.606-34.598,83.759
			c0.254,2.278,2.177,4.001,4.477,4.001h0.007l196.21-0.471l196.215,0.471h0.01c2.29,0,4.22-1.722,4.469-4.001
			C412.442,213.149,419.897,140.743,377.501,132.543"/>
		<path fill="#D3E4E3" d="M65.746,198.823c-11.033,0-19.982-8.944-19.982-19.977c0-11.038,8.948-19.984,19.982-19.984
			c11.04,0,19.981,8.946,19.981,19.984C85.728,189.879,76.787,198.823,65.746,198.823"/>
		<path fill="#D3E4E3" d="M78.374,135.131c-0.471,0-0.913-0.22-1.198-0.597c-0.283-0.377-0.375-0.87-0.239-1.315
			c1.037-3.595,25.707-88.068,43.471-94.243c17.269-6.006,87.986-6.482,90.99-6.499c-0.01,0,7.185-0.128,17.701-0.128
			c33.177,0,72.542,1.554,79.944,6.832c10.758,7.69,40.802,90.431,41.998,93.973c0.157,0.459,0.082,0.959-0.203,1.35
			c-0.278,0.391-0.73,0.626-1.215,0.626H78.374z"/>
		<path fill="#D3E4E3" d="M357.065,198.823c-11.043,0-19.979-8.944-19.979-19.977c0-11.038,8.936-19.984,19.979-19.984
			c11.038,0,19.981,8.946,19.981,19.984C377.047,189.879,368.103,198.823,357.065,198.823"/>
		<path fill="#95D3D8" d="M229.098,32.349c33.177,0,72.542,1.554,79.944,6.832c10.758,7.69,40.802,90.431,41.998,93.973
			c0.157,0.459,0.082,0.959-0.203,1.35c-0.278,0.391-0.73,0.626-1.215,0.626H173.24L229.098,32.349z"/>
		<rect x="153.503" y="170.526" fill="#F9DD56" width="120.99" height="28.297"/>
	</g>
</g>
<g id="Layer_4">
</g>
</svg>
