<?xml version="1.0" encoding="utf-8"?>
<!-- Generator: Adobe Illustrator 17.0.0, SVG Export Plug-In . SVG Version: 6.00 Build 0)  -->
<!DOCTYPE svg PUBLIC "-//W3C//DTD SVG 1.1//EN" "http://www.w3.org/Graphics/SVG/1.1/DTD/svg11.dtd">
<svg version="1.1" xmlns="http://www.w3.org/2000/svg" xmlns:xlink="http://www.w3.org/1999/xlink" x="0px" y="0px"
	 width="220.88px" height="103.93px" viewBox="0 0 220.88 103.93" enable-background="new 0 0 220.88 103.93" xml:space="preserve">
<g id="Layer_2">
</g>
<g id="Layer_3">
	<g>
		<g>
			<rect x="10" y="69.121" fill="#40E9CA" width="169.985" height="24.807"/>
			<polygon fill="#52B586" points="179.986,69.591 10.001,69.591 40.447,48.448 210.101,48.448 			"/>
			<polygon fill="#52D2BE" points="210.101,73.255 179.986,93.928 179.986,69.121 210.101,48.448 			"/>
			<polygon fill="#FFFFFF" points="210.43,67.292 185.305,84.025 185.305,71.702 210.43,53.839 			"/>
			<rect x="33.155" y="69.591" fill="#344E5D" width="16.162" height="24.337"/>
			<rect x="47.625" y="69.591" fill="#EEC84D" width="6.908" height="24.337"/>
		</g>
		<g>
			<g>
				<rect x="10.349" y="48.446" fill="#FADA61" width="169.987" height="19.167"/>
				<polygon fill="#D8BB55" points="180.336,48.914 10.349,48.446 40.796,27.208 210.452,27.208 				"/>
				<polygon fill="#E2D06C" points="210.452,46.941 180.336,67.613 180.336,48.351 210.452,27.208 				"/>
				<polygon fill="#FFFFFF" points="210.879,43.479 185.721,60.416 185.721,48.676 210.849,30.813 				"/>
				<g>
					<rect x="37.676" y="48.446" fill="#344E5D" width="24.198" height="19.167"/>
				</g>
				<g>
					<polygon fill="#243A47" points="37.676,48.446 61.875,48.446 85.555,27.339 61.358,27.339 					"/>
				</g>
			</g>
		</g>
		<g>
			<g>
				<rect x="10.349" y="28.798" fill="#F37163" width="150.433" height="16.963"/>
				<polygon fill="#DC5A58" points="160.782,29.211 10.349,28.798 37.294,10.002 187.433,10.002 				"/>
				<polygon fill="#DD6E5B" points="187.433,27.465 160.782,45.761 160.782,28.712 187.433,10.002 				"/>
				<polygon fill="#FFFFFF" points="187.81,24.401 165.547,39.392 165.547,29.001 187.785,13.192 				"/>
				<g>
					<rect x="55.947" y="28.798" fill="#EEC84D" width="3.658" height="16.963"/>
					<rect x="30.873" y="28.798" fill="#EEC84D" width="3.659" height="16.963"/>
					<rect x="34.533" y="28.798" fill="#344E5D" width="21.414" height="16.963"/>
				</g>
				<g>
					<polygon fill="#C4A63F" points="59.605,28.798 55.947,28.798 76.905,10.119 80.562,10.119 					"/>
					<polygon fill="#C4A63F" points="34.533,28.798 30.874,28.798 51.831,10.119 55.49,10.119 					"/>
					<polygon fill="#243A47" points="34.533,28.798 55.947,28.798 76.905,10.119 55.49,10.119 					"/>
				</g>
			</g>
		</g>
	</g>
</g>
<g id="Layer_1">
</g>
<g id="Layer_4">
</g>
</svg>
