<?xml version="1.0" encoding="utf-8"?>
<!-- Generator: Adobe Illustrator 17.0.0, SVG Export Plug-In . SVG Version: 6.00 Build 0)  -->
<!DOCTYPE svg PUBLIC "-//W3C//DTD SVG 1.1//EN" "http://www.w3.org/Graphics/SVG/1.1/DTD/svg11.dtd">
<svg version="1.1" id="Layer_1" xmlns="http://www.w3.org/2000/svg" xmlns:xlink="http://www.w3.org/1999/xlink" x="0px" y="0px"
	 width="144px" height="78px" viewBox="0 0 144 78" enable-background="new 0 0 144 78" xml:space="preserve">
<g>
	<g>
		<polyline fill="#2B2B33" points="144,78 143.665,78 7.565,78 0,70.926 0,0 7.565,0 144,0 		"/>
	</g>
	<rect fill="#36363D" width="144" height="71"/>
	<g>
		<path fill="#FFFFFF" d="M33.371,40.189h-3.838l-1.4-3.54v-9.222h6.639v9.222L33.371,40.189z M28.317,47.825v-5.936h6.269v5.936
			H28.317z"/>
		<path fill="#FFFFFF" d="M47.134,47.825V33.697h-2.767v14.128h-8.481v-6.269h1.841v-7.858h-1.475v-6.269h17.522v20.397H47.134z"/>
		<path fill="#FFFFFF" d="M64.793,33.697c-0.074,0.259-0.258,1.401-0.146,2.547l0.958,11.581h-6.639l-0.96-11.508
			c-0.037-0.59,0.073-2.176,0.259-2.62h-3.1v-6.269h11.989v6.269H64.793z"/>
		<path fill="#FFFFFF" d="M68.261,47.825v-6.269h7.896v-7.858H68.63v-6.269h14.167v14.128h1.508v6.269H68.261z"/>
		<path fill="#FFFFFF" d="M93.741,33.697c-0.075,0.259-0.259,1.401-0.149,2.547l0.961,11.581h-6.641l-0.961-11.508
			c-0.035-0.59,0.074-2.176,0.26-2.62h-3.098v-6.269h11.987v6.269H93.741z"/>
		<path fill="#FFFFFF" d="M97.085,47.825v-6.269h7.896v-7.858h-7.525v-6.269h14.164v14.128h1.514v6.269H97.085z"/>
	</g>
</g>
</svg>
