<?xml version="1.0" encoding="utf-8"?>
<!-- Generator: Adobe Illustrator 17.0.0, SVG Export Plug-In . SVG Version: 6.00 Build 0)  -->
<!DOCTYPE svg PUBLIC "-//W3C//DTD SVG 1.1//EN" "http://www.w3.org/Graphics/SVG/1.1/DTD/svg11.dtd">
<svg version="1.1" id="Layer_1" xmlns="http://www.w3.org/2000/svg" xmlns:xlink="http://www.w3.org/1999/xlink" x="0px" y="0px"
	 width="360.503px" height="86.517px" viewBox="0 0 360.503 86.517" enable-background="new 0 0 360.503 86.517"
	 xml:space="preserve">
<g>
	<path fill="#FFFFFF" d="M21.766,53.603H5.495L-0.45,38.584V-0.529h28.161v39.113L21.766,53.603z M0.332,85.988V60.8h26.597v25.189
		H0.332z"/>
	<path fill="#FFFFFF" d="M80.145,85.988V26.067H68.412v59.921H32.428V59.392h7.822V26.067h-6.258V-0.529h74.314v86.517H80.145z"/>
	<path fill="#FFFFFF" d="M155.04,26.067c-0.313,1.095-1.096,5.945-0.626,10.795l4.068,49.126H130.32l-4.067-48.813
		c-0.156-2.503,0.313-9.231,1.096-11.108h-13.143V-0.529h50.847v26.597H155.04z"/>
	<path fill="#FFFFFF" d="M169.744,85.988V59.392h33.481V26.067h-31.916V-0.529h60.077v59.921h6.415v26.597H169.744z"/>
	<path fill="#FFFFFF" d="M277.806,26.067c-0.313,1.095-1.096,5.945-0.626,10.795l4.069,49.126h-28.162l-4.067-48.813
		c-0.156-2.503,0.313-9.231,1.096-11.108h-13.143V-0.529h50.847v26.597H277.806z"/>
	<path fill="#FFFFFF" d="M291.997,85.988V59.392h33.48V26.067h-31.915V-0.529h60.077v59.921h6.414v26.597H291.997z"/>
</g>
</svg>
