<?xml version="1.0" encoding="utf-8"?>
<!-- Generator: Adobe Illustrator 16.0.0, SVG Export Plug-In . SVG Version: 6.00 Build 0)  -->
<!DOCTYPE svg PUBLIC "-//W3C//DTD SVG 1.1//EN" "http://www.w3.org/Graphics/SVG/1.1/DTD/svg11.dtd">
<svg version="1.1" id="Layer_1" xmlns="http://www.w3.org/2000/svg" xmlns:xlink="http://www.w3.org/1999/xlink" x="0px" y="0px"
	 width="450px" height="310px" viewBox="0 0 450 310" enable-background="new 0 0 450 310" xml:space="preserve">
<g>
	<path fill="#E2E2E2" d="M435,275.6c0,7.953-6.048,14.4-14,14.4H32.2c-7.954,0-14.2-6.447-14.2-14.4V43.4
		C18,35.447,24.247,29,32.2,29H421c7.952,0,14,6.447,14,14.4V275.6z"/>
	<path fill="#FFFFFF" d="M434,266.6c0,7.953-6.447,14.4-14.399,14.4H30.399C22.447,281,16,274.553,16,266.6V34.4
		C16,26.447,22.447,20,30.399,20h389.201C427.553,20,434,26.447,434,34.4V266.6z"/>
	<polygon fill="none" stroke="#ED7266" stroke-width="14" stroke-miterlimit="10" points="70.974,180 122.525,96.623 174.075,180 	
		"/>
	<polygon fill="none" stroke="#ED7266" stroke-width="14" stroke-miterlimit="10" points="174.075,124 122.525,207.389 70.974,124 	
		"/>
	<path fill="#969696" d="M375.609,125.436c0,4.178-3.394,7.574-7.572,7.574h-84.299c-4.177,0-7.561-3.396-7.561-7.574
		c0-4.177,3.384-7.566,7.561-7.566h84.299C372.216,117.87,375.609,121.259,375.609,125.436"/>
	<path fill="#969696" d="M375.609,160.219c0,4.181-3.394,7.573-7.572,7.573h-65.512c-4.179,0-7.563-3.393-7.563-7.573
		c0-4.178,3.384-7.563,7.563-7.563h65.512C372.216,152.655,375.609,156.041,375.609,160.219"/>
	<path fill="#969696" d="M375.609,195.003c0,4.178-3.394,7.574-7.572,7.574H264.428c-4.178,0-7.561-3.396-7.561-7.574
		c0-4.179,3.382-7.566,7.561-7.566h103.609C372.216,187.437,375.609,190.824,375.609,195.003"/>
</g>
</svg>
