<?xml version="1.0" encoding="utf-8"?>
<!-- Generator: Adobe Illustrator 17.0.0, SVG Export Plug-In . SVG Version: 6.00 Build 0)  -->
<!DOCTYPE svg PUBLIC "-//W3C//DTD SVG 1.1//EN" "http://www.w3.org/Graphics/SVG/1.1/DTD/svg11.dtd">
<svg version="1.1" xmlns="http://www.w3.org/2000/svg" xmlns:xlink="http://www.w3.org/1999/xlink" x="0px" y="0px"
	 width="142.04px" height="128.24px" viewBox="0 0 142.04 128.24" enable-background="new 0 0 142.04 128.24" xml:space="preserve">
<g id="Layer_2">
</g>
<g id="Layer_3">
	<g>
		<path fill="#C7C7C7" d="M92.244,116.393l-42.383,0.062c3.883-2.307,2.584-2.239,3.439-6.678l-0.021-14.24l34.262-0.05
			C87.562,110.172,86.524,113.923,92.244,116.393z"/>
		<path opacity="0.15" fill="#6E6E6E" d="M52.619,99.988l38.402,16.407c0,0-3.678-3.446-3.683-7.225
			c-0.006-3.784-0.011-8.082-0.017-12.126C77.119,87.687,52.619,99.988,52.619,99.988z"/>
		<path fill="#D4D4D4" d="M132.038,95.869c0.004,2.702-2.184,4.899-4.887,4.901l-112.13,0.163c-2.703,0.002-4.897-2.185-4.901-4.889
			l-0.103-70.748l121.919-0.178L132.038,95.869z"/>
		<path fill="#404040" d="M132.024,85.632l-121.92,0.175l-0.102-70.748C10,12.355,12.186,10.16,14.89,10.16L127.02,9.998
			c2.704-0.007,4.897,2.182,4.902,4.886L132.024,85.632z"/>
		<rect x="14.72" y="16.751" transform="matrix(1 -0.0015 0.0015 1 -0.07 0.104)" fill="#FFFFFF" width="112.578" height="62.296"/>
		<polygon fill="#F3F2F2" points="127.468,16.893 14.653,17.058 14.662,24.296 14.857,24.294 14.86,26.73 127.331,26.57 
			127.328,24.131 127.477,24.131 		"/>
		<path opacity="0.67" fill="#7B726C" d="M67.514,93.29c-0.003-1.964,1.59-3.561,3.557-3.564c1.964-0.002,3.561,1.587,3.562,3.554
			c0.004,1.964-1.588,3.564-3.554,3.569C69.112,96.849,67.517,95.257,67.514,93.29z"/>
		<path fill="#BFBFBF" d="M96.028,118.167l-51.169,0.075c0-0.945,0.372-1.852,1.04-2.519c0.666-0.667,1.571-1.045,2.514-1.047
			l44.051-0.062C94.43,114.608,96.024,116.2,96.028,118.167z"/>
		<g>
			
				<rect x="19.545" y="32.393" transform="matrix(1 -0.0014 0.0014 1 -0.0715 0.0599)" fill="#F47262" width="46.53" height="37.641"/>
			<g>
				<path fill="#FFFFFF" d="M26.586,39.386l0.035,23.7l32.412-0.048l-0.032-23.698L26.586,39.386z M28.186,41.401l29.218-0.04
					l0.029,19.664l-0.751,0.003l-5.643-6.965l-4.105,5.191l-7.293-8.992L31.178,60.96l2.254,0.103l-5.218,0.005L28.186,41.401z"/>
				<circle fill="#FFFFFF" cx="32.553" cy="47.946" r="2.207"/>
			</g>
			
				<rect x="74.995" y="32.75" transform="matrix(1 -0.0014 0.0014 1 -0.0476 0.1407)" fill="#BFBFBF" width="47.399" height="1.392"/>
			
				<rect x="75.004" y="39.583" transform="matrix(1 -0.0014 0.0014 1 -0.0571 0.1402)" fill="#BFBFBF" width="47.4" height="1.389"/>
			
				<rect x="79.372" y="46.409" transform="matrix(1 -0.0014 0.0014 1 -0.0669 0.1404)" fill="#BFBFBF" width="38.687" height="1.395"/>
			
				<rect x="81.82" y="53.241" transform="matrix(1 -0.0014 0.0014 1 -0.0758 0.1391)" fill="#BFBFBF" width="33.807" height="1.395"/>
			
				<rect x="81.83" y="60.075" transform="matrix(1 -0.0013 0.0013 1 -0.0804 0.1308)" fill="#BFBFBF" width="33.808" height="1.392"/>
			
				<rect x="89.333" y="65.425" transform="matrix(1 -0.0015 0.0015 1 -0.0992 0.1451)" fill="#4FB8D5" width="18.822" height="4.354"/>
		</g>
		<g>
			<path fill="#73BFAF" d="M17.603,21.667c-0.001-1.03,0.831-1.864,1.858-1.864c1.027-0.003,1.861,0.83,1.862,1.859
				c0.001,1.025-0.83,1.86-1.858,1.86C18.441,23.524,17.605,22.692,17.603,21.667z"/>
			<path fill="#EE4235" d="M25.672,21.654c0-1.027,0.832-1.862,1.858-1.862c1.027-0.005,1.861,0.83,1.862,1.857
				c0.001,1.027-0.83,1.857-1.858,1.862C26.509,23.511,25.675,22.679,25.672,21.654z"/>
			<path fill="#F89D4D" d="M33.742,21.642c-0.003-1.025,0.83-1.862,1.857-1.864c1.027,0,1.862,0.835,1.863,1.86
				c0.001,1.027-0.83,1.862-1.858,1.862C34.577,23.499,33.743,22.669,33.742,21.642z"/>
		</g>
	</g>
</g>
<g id="Layer_1">
</g>
<g id="Layer_4">
</g>
</svg>
