<?xml version="1.0" encoding="utf-8"?>
<!-- Generator: Adobe Illustrator 16.0.0, SVG Export Plug-In . SVG Version: 6.00 Build 0)  -->
<!DOCTYPE svg PUBLIC "-//W3C//DTD SVG 1.1//EN" "http://www.w3.org/Graphics/SVG/1.1/DTD/svg11.dtd">
<svg version="1.1" id="Layer_1" xmlns="http://www.w3.org/2000/svg" xmlns:xlink="http://www.w3.org/1999/xlink" x="0px" y="0px"
	 width="331.818px" height="265.151px" viewBox="0 0 331.818 265.151" enable-background="new 0 0 331.818 265.151"
	 xml:space="preserve">
<g>
	<path fill="#F8F8F8" d="M113.637,29.672c0.006-0.122,0.019-0.244,0.019-0.368c0-0.132-0.013-0.26-0.019-0.386v-0.049h-0.006
		c-0.209-2.813-2.447-5.051-5.255-5.266l-0.022-0.019h-0.421h-0.002l0,0l-33.083,0.005h-0.436h-0.436l-33.081-0.005h-0.003
		c-0.001,0-0.001,0-0.001,0H40.47l-0.024,0.019c-2.804,0.215-5.043,2.454-5.255,5.266h-0.003v0.049
		c-0.006,0.126-0.019,0.254-0.019,0.386c0,0.124,0.013,0.246,0.019,0.368L35.17,48.85h78.485L113.637,29.672z"/>
	<polygon fill="#F8F8F8" points="124.321,74.22 124.315,74.22 124.338,74.274 	"/>
	<path fill="#F8F8F8" d="M24.487,74.274c0,0.036,0,19.408,0,44.622h99.852c0-25.214,0-44.586,0-44.622H24.487z"/>
	<path fill="#E2E2E2" d="M24.487,233.585c0,7.223,5.855,13.082,13.082,13.082h36.408h0.436h0.436h36.409
		c7.223,0,13.081-5.859,13.081-13.082c0,0,0-3.463,0-25.801H24.487C24.487,230.122,24.487,233.585,24.487,233.585z"/>
	<path fill="#F8F8F8" d="M24.487,131.993c0,21.487,0,57.879,0,76.792h99.852c0-18.912,0-55.305,0-76.792c0-4.487,0-8.872,0-13.097
		H24.487C24.487,123.121,24.487,127.505,24.487,131.993z"/>
	<polygon fill="#E9E9EB" points="124.315,74.22 113.69,48.934 113.656,48.85 35.17,48.85 35.135,48.934 24.536,74.109 24.503,74.22 
		24.487,74.274 124.338,74.274 	"/>
</g>
<g>
	<path fill="#FDEBCC" d="M230.011,177.802c0,29.648-16.82,53.67-37.57,53.67c-20.751,0-37.57-24.021-37.57-53.67
		c0-29.646,16.819-53.672,37.57-53.672C213.191,124.129,230.011,148.156,230.011,177.802z"/>
</g>
<g>
	<path fill="#FDEBCC" d="M307.181,178.44c0,29.645-16.82,53.669-37.57,53.669c-20.748,0-37.57-24.024-37.57-53.669
		c0-29.649,16.822-53.676,37.57-53.676C290.361,124.764,307.181,148.791,307.181,178.44z"/>
</g>
<g>
	<path fill="#C9C9C9" d="M226.703,201.974c8.613,17.42,21.021,42.693,25.328,42.693h32.096c4.303,0,20.571-29.393,25.889-47.139
		l-9.346-7.586c0-3.986-3.48-0.549-7.784-0.549h-49.313c-4.303,0-11.033-6.666-12.329,0.4L226.703,201.974z"/>
</g>
<g>
	<path fill="#C9C9C9" d="M152.005,201.974c7.818,17.42,21.386,42.693,25.692,42.693h32c4.303,0,21.999-29.393,25.618-47.139
		l-9.341-7.586c0-3.986-3.483-2.549-7.787-2.549h-49.313c-4.306,0-15.574-4.666-16.87,2.4V201.974z"/>
</g>
<path fill="#E2E2E2" d="M316.697,197.636c0,0.736-0.597,1.576-1.333,1.576H148.03c-0.736,0-1.333-0.84-1.333-1.576l2-11.213
	c0-0.736,0.597-1.211,1.333-1.211h163.334c0.736,0,1.333,0.475,1.333,1.211L316.697,197.636z"/>
<rect x="25.515" y="74.212" fill="#45B9F5" width="11" height="11"/>
<rect x="36.853" y="73.727" fill="#F8F8F8" width="11.156" height="11.156"/>
<rect x="48.515" y="74.212" fill="#45B9F5" width="11" height="11"/>
<rect x="59.167" y="73.727" fill="#F8F8F8" width="11.156" height="11.156"/>
<rect x="70.515" y="74.212" fill="#45B9F5" width="10" height="11"/>
<rect x="25.697" y="84.883" fill="#F8F8F8" width="11.156" height="11.157"/>
<rect x="36.515" y="85.212" fill="#45B9F5" width="12" height="12"/>
<rect x="59.515" y="85.212" fill="#45B9F5" width="11" height="12"/>
<rect x="25.515" y="97.212" fill="#45B9F5" width="11" height="11"/>
<rect x="48.515" y="97.212" fill="#45B9F5" width="11" height="11"/>
<rect x="70.515" y="97.212" fill="#45B9F5" width="10" height="11"/>
<rect x="25.697" y="107.197" fill="#F8F8F8" width="11.156" height="11.157"/>
<rect x="36.515" y="108.212" fill="#45B9F5" width="12" height="11"/>
<rect x="59.515" y="108.212" fill="#45B9F5" width="11" height="11"/>
<rect x="70.515" y="74.212" fill="#45B9F5" width="10" height="11"/>
<rect x="81.408" y="73.727" fill="#F8F8F8" width="11.156" height="11.156"/>
<rect x="92.515" y="74.212" fill="#45B9F5" width="11" height="11"/>
<rect x="103.721" y="73.727" fill="#F8F8F8" width="11.156" height="11.156"/>
<rect x="114.515" y="74.212" fill="#45B9F5" width="11" height="11"/>
<rect x="70.251" y="84.883" fill="#F8F8F8" width="11.156" height="11.157"/>
<rect x="80.515" y="85.212" fill="#45B9F5" width="12" height="12"/>
<rect x="92.564" y="84.883" fill="#F8F8F8" width="11.157" height="11.157"/>
<rect x="103.515" y="85.212" fill="#45B9F5" width="11" height="12"/>
<rect x="70.515" y="97.212" fill="#45B9F5" width="10" height="11"/>
<rect x="92.515" y="97.212" fill="#45B9F5" width="11" height="11"/>
<rect x="103.721" y="96.04" fill="#F8F8F8" width="11.156" height="11.157"/>
<rect x="114.515" y="97.212" fill="#45B9F5" width="11" height="11"/>
<rect x="80.515" y="108.212" fill="#45B9F5" width="12" height="11"/>
<rect x="103.515" y="108.212" fill="#45B9F5" width="11" height="11"/>
<circle fill="#3191AF" cx="75.413" cy="58.312" r="10.927"/>
<circle fill="#45B9F5" cx="75.413" cy="56.022" r="10.332"/>
</svg>
