<?xml version="1.0" encoding="utf-8"?>
<!-- Generator: Adobe Illustrator 17.0.0, SVG Export Plug-In . SVG Version: 6.00 Build 0)  -->
<!DOCTYPE svg PUBLIC "-//W3C//DTD SVG 1.1//EN" "http://www.w3.org/Graphics/SVG/1.1/DTD/svg11.dtd">
<svg version="1.1" id="Layer_1" xmlns="http://www.w3.org/2000/svg" xmlns:xlink="http://www.w3.org/1999/xlink" x="0px" y="0px"
	 width="173.72px" height="128.75px" viewBox="0 0 173.72 128.75" enable-background="new 0 0 173.72 128.75" xml:space="preserve">
<g>
	<g>
		<g>
			<path fill="#F37264" d="M162.436,35.578c-1.325-0.884-3.116-0.525-4,0.8c-1.508,2.263-3.582,3.24-5.362,3.638
				c-0.015-3.36-1.643-6.865-4.622-9.845c-2.844-2.844-6.975-3.415-9.821-1.365c-2.129,1.537-3.807,4.945-1.53,9.502
				c1.418,2.837,4.037,5.108,7.225,6.439c-0.604,0.428-1.301,0.839-2.087,1.231c-1.73,0.865-3.498,1.383-5.213,1.682
				c-8.267-16.877-29.789-28.912-55.04-28.912c-5.045,0-9.69,0.329-14.028,0.89c-7.225-4.679-20.633-10.439-34.051-9.544
				c0.62,5.577,4.04,12.741,8.45,17.91c-8.544,5.28-14.052,12.486-16.825,20.828c-3.252,1.428-6.764,2.333-10.688,2.599
				c-2.87,0.195-5.038,2.657-4.834,5.527c0.529,7.396,2.721,19.995,11.397,23.331c1.625,0.624,4.218,0.994,7.304,1.19
				c3.677,6.008,9.073,11.294,15.735,15.485c-1.115,5.572-2.494,11.191-4.193,16.868c-0.734,2.452,1.124,4.92,3.688,4.92h16.158
				c1.598,0,3.055-0.979,3.611-2.477c1.271-3.435,2.346-6.95,3.26-10.532c4.792,0.956,9.823,1.469,15.016,1.469
				c6.036,0,11.858-0.69,17.339-1.965c-0.714,2.85-1.477,5.707-2.337,8.583c-0.736,2.454,1.121,4.922,3.684,4.922h16.158
				c1.599,0,3.056-0.979,3.613-2.477c2.879-7.776,4.784-15.947,5.952-24.416c8.87-7.751,14.247-17.837,14.247-28.878
				c0-3.389-0.523-6.686-1.479-9.855c1.857-0.413,3.765-1.041,5.654-1.987c3.125-1.562,5.093-3.363,6.32-5.104
				c4.978-0.102,9.431-2.452,12.098-6.452C164.121,38.253,163.761,36.462,162.436,35.578z M142.261,35.726
				c-0.586-1.171-0.576-2.015-0.26-2.242c0.125-0.091,0.316-0.144,0.548-0.144c0.483,0,1.155,0.241,1.822,0.91
				c1.748,1.749,2.787,3.715,2.917,5.45C145.028,38.947,143.153,37.508,142.261,35.726z"/>
			<circle fill="#C65954" cx="47.371" cy="44.709" r="4.808"/>
		</g>
		<path fill="#C65954" d="M82.886,21.193c0,0,6.773-0.131,13.676,1.302c6.902,1.432,11.461,4.168,11.461,4.168l-1.562,3.647
			c0,0-4.82-3.127-10.811-4.299c-5.992-1.172-13.026-1.432-13.026-1.432L82.886,21.193z"/>
	</g>
</g>
</svg>
