<?xml version="1.0" encoding="utf-8"?>
<!-- Generator: Adobe Illustrator 17.0.0, SVG Export Plug-In . SVG Version: 6.00 Build 0)  -->
<!DOCTYPE svg PUBLIC "-//W3C//DTD SVG 1.1//EN" "http://www.w3.org/Graphics/SVG/1.1/DTD/svg11.dtd">
<svg version="1.1" xmlns="http://www.w3.org/2000/svg" xmlns:xlink="http://www.w3.org/1999/xlink" x="0px" y="0px"
	 width="176.13px" height="222.68px" viewBox="0 0 176.13 222.68" enable-background="new 0 0 176.13 222.68" xml:space="preserve">
<g id="Layer_2">
</g>
<g id="Layer_3">
	<g>
		<g>
			<g>
				<g>
					<circle fill="#FFFFFF" cx="23.194" cy="55.804" r="7.618"/>
					<path fill="#FFFFFF" d="M15.563,48.196c-0.006-4.211,3.4-7.626,7.607-7.63c4.209-0.008,7.626,3.396,7.63,7.61
						c0.008,4.207-3.4,7.623-7.607,7.627C18.987,55.811,15.569,52.407,15.563,48.196z"/>
					<path fill="#FFFFFF" d="M26.028,40.562c-0.006-4.211,3.399-7.626,7.608-7.63c4.209-0.004,7.625,3.4,7.628,7.607
						c0.008,4.211-3.399,7.626-7.606,7.634C29.451,48.176,26.033,44.773,26.028,40.562z"/>
					<circle fill="#FFFFFF" cx="43.731" cy="34.441" r="7.618"/>
					<circle fill="#FFFFFF" cx="50.2" cy="28.527" r="7.62"/>
					<circle fill="#FFFFFF" cx="62.959" cy="26.795" r="7.618"/>
					<path fill="#FFFFFF" d="M62.951,20.892c-0.006-4.207,3.4-7.626,7.608-7.63c4.207-0.008,7.625,3.4,7.631,7.607
						c0.006,4.207-3.402,7.622-7.609,7.63C66.372,28.503,62.959,25.099,62.951,20.892z"/>
					<path fill="#FFFFFF" d="M73.995,19.163c-0.006-3.713,2.998-6.721,6.708-6.724c3.708-0.008,6.716,2.996,6.722,6.704
						c0.004,3.708-2.994,6.72-6.704,6.724C77.012,25.875,73.999,22.867,73.995,19.163z"/>
					<path fill="#FFFFFF" d="M79.333,22.103c-0.004-3.027,2.444-5.477,5.469-5.481c3.024-0.008,5.481,2.438,5.485,5.465
						c0.004,3.024-2.446,5.482-5.469,5.485C81.791,27.577,79.338,25.127,79.333,22.103z"/>
					<path fill="#FFFFFF" d="M87.425,19.143c-0.006-3.867,3.125-7.005,6.987-7.009c3.869-0.008,7.009,3.123,7.013,6.989
						c0.006,3.863-3.127,6.997-6.991,7.005C90.569,26.132,87.431,23.006,87.425,19.143z"/>
					<circle fill="#FFFFFF" cx="102.43" cy="15.106" r="5.106"/>
					<circle fill="#FFFFFF" cx="109.293" cy="18.311" r="5.105"/>
					<path fill="#FFFFFF" d="M111.996,19.352c-0.004-3.396,2.746-6.154,6.146-6.158c3.395-0.008,6.158,2.743,6.162,6.142
						c0.004,3.396-2.751,6.158-6.146,6.162C114.761,25.503,112.002,22.752,111.996,19.352z"/>
					<path fill="#FFFFFF" d="M120.387,25.495c-0.008-3.4,2.746-6.158,6.144-6.162c3.398-0.004,6.16,2.747,6.164,6.146
						c0.006,3.396-2.751,6.154-6.146,6.162C123.151,31.645,120.39,28.894,120.387,25.495z"/>
					<path fill="#FFFFFF" d="M128.955,23.441c-0.004-2.62,2.118-4.745,4.738-4.749c2.62-0.004,4.747,2.118,4.751,4.738
						c0.004,2.62-2.117,4.749-4.735,4.753C131.086,28.186,128.959,26.065,128.955,23.441z"/>
					<path fill="#FFFFFF" d="M135.053,26.832c-0.004-3.198,2.584-5.79,5.784-5.794c3.198-0.008,5.792,2.581,5.796,5.774
						c0.004,3.202-2.58,5.798-5.778,5.802C137.654,32.619,135.058,30.03,135.053,26.832z"/>
					<path fill="#FFFFFF" d="M139.447,34.305c-0.004-3.202,2.584-5.794,5.782-5.798c3.2-0.004,5.796,2.58,5.802,5.782
						c0.004,3.198-2.586,5.794-5.784,5.794C142.049,40.091,139.451,37.502,139.447,34.305z"/>
					<path fill="#FFFFFF" d="M142.89,42.489c-0.006-2.881,2.327-5.224,5.21-5.224c2.881-0.008,5.224,2.327,5.228,5.208
						c0.002,2.889-2.331,5.224-5.214,5.228C145.233,47.705,142.894,45.374,142.89,42.489z"/>
					<path fill="#FFFFFF" d="M146.665,47.705c-0.004-2.885,2.335-5.224,5.213-5.228c2.887-0.004,5.224,2.327,5.228,5.212
						c0.004,2.881-2.327,5.22-5.212,5.224C149.014,52.918,146.669,50.587,146.665,47.705z"/>
					<path fill="#FFFFFF" d="M149.531,52.918c-0.004-2.881,2.331-5.22,5.216-5.224c2.881-0.004,5.216,2.327,5.222,5.208
						c0.004,2.885-2.327,5.228-5.208,5.232C151.878,58.138,149.534,55.803,149.531,52.918z"/>
				</g>
			</g>
			<path fill="#FFFFFF" d="M149.59,93.472L28.093,93.646l-0.075-53.393L78.19,20.869c15.852-11.402,77.634,0.74,71.323,19.21
				L149.59,93.472z"/>
			<g>
				<rect x="72.682" y="51.679" fill="#F37264" width="30" height="161"/>
				<polygon fill="#FCF4E9" points="138.574,51.679 102.682,51.679 102.682,212.679 129.327,212.679 				"/>
				<polygon fill="#F37264" points="128.464,212.679 154.918,212.679 166.132,51.679 137.711,51.679 				"/>
				<polygon fill="#FCF4E9" points="37.556,51.679 72.682,51.679 72.682,212.679 46.803,212.679 				"/>
				<polygon fill="#F37264" points="47.666,212.679 21.212,212.679 9.998,51.679 38.419,51.679 				"/>
			</g>
		</g>
	</g>
</g>
<g id="Layer_1">
</g>
<g id="Layer_4">
</g>
</svg>
