<?xml version="1.0" encoding="utf-8"?>
<!-- Generator: Adobe Illustrator 17.0.0, SVG Export Plug-In . SVG Version: 6.00 Build 0)  -->
<!DOCTYPE svg PUBLIC "-//W3C//DTD SVG 1.1//EN" "http://www.w3.org/Graphics/SVG/1.1/DTD/svg11.dtd">
<svg version="1.1" id="Layer_1" xmlns="http://www.w3.org/2000/svg" xmlns:xlink="http://www.w3.org/1999/xlink" x="0px" y="0px"
	 width="350.74px" height="272.72px" viewBox="0 0 350.74 272.72" enable-background="new 0 0 350.74 272.72" xml:space="preserve">
<g>
	<g>
		<g>
			<path fill-rule="evenodd" clip-rule="evenodd" fill="#43E8CE" d="M277.192,95.199c36.945,12.457,63.549,47.39,63.549,88.534
				c0,31.644-15.739,59.611-39.813,76.509H296.4h-12.306H210.25h-16.521h-0.189v-0.136c-23.966-16.909-39.625-44.811-39.625-76.373
				c0-41.144,26.604-76.077,63.549-88.534l0,0H277.192L277.192,95.199L277.192,95.199z"/>
			<rect x="238.91" y="20.423" fill-rule="evenodd" clip-rule="evenodd" fill="#F9DC62" width="16.837" height="74.776"/>
			<path fill-rule="evenodd" clip-rule="evenodd" fill="#F9DC62" d="M218.43,10h89.916c14.102,0,22.237,9.022,25.363,17.534H319.24
				c-1.117-2.167-5.035-3.645-9.14-3.507l-91.67,2.756c-2.889,0.095-5.26-2.367-5.26-5.261v-6.26
				C213.17,12.367,215.537,10,218.43,10z"/>
			<path fill-rule="evenodd" clip-rule="evenodd" fill="#43E8CE" d="M277.192,109.861V65.535c0-4.489-2.651-8.16-5.879-8.16h-47.968
				c-3.232,0-5.879,3.68-5.879,8.16v44.326H277.192z"/>
		</g>
		<g>
			<path fill-rule="evenodd" clip-rule="evenodd" fill="#F39463" d="M46.248,262.72h58.85c6.393,0,11.624-5.98,11.624-13.289
				v-29.443c12.728-50.924,27.365-166.601,24.183-199.337H10.441C7.259,53.387,21.896,169.065,34.624,219.989v29.443
				C34.624,256.74,39.855,262.72,46.248,262.72z"/>
			<path fill-rule="evenodd" clip-rule="evenodd" fill="#FCEBCC" d="M46.248,262.72h58.85c6.393,0,11.624-5.98,11.624-13.289
				v-29.443H34.624v29.443C34.624,256.74,39.855,262.72,46.248,262.72z"/>
			<rect x="126.646" y="24.483" fill-rule="evenodd" clip-rule="evenodd" fill="#F4A684" width="9.616" height="29.683"/>
			<rect x="112.701" y="24.483" fill-rule="evenodd" clip-rule="evenodd" fill="#F4A684" width="9.616" height="29.683"/>
			<rect x="98.755" y="24.483" fill-rule="evenodd" clip-rule="evenodd" fill="#F4A684" width="9.618" height="29.683"/>
			<rect x="84.809" y="24.483" fill-rule="evenodd" clip-rule="evenodd" fill="#F4A684" width="9.618" height="29.683"/>
			<rect x="70.864" y="24.483" fill-rule="evenodd" clip-rule="evenodd" fill="#F4A684" width="9.618" height="29.683"/>
			<rect x="56.92" y="24.483" fill-rule="evenodd" clip-rule="evenodd" fill="#F4A684" width="9.616" height="29.683"/>
			<rect x="42.974" y="24.483" fill-rule="evenodd" clip-rule="evenodd" fill="#F4A684" width="9.618" height="29.683"/>
			<rect x="29.028" y="24.483" fill-rule="evenodd" clip-rule="evenodd" fill="#F4A684" width="9.618" height="29.683"/>
			<rect x="15.084" y="24.483" fill-rule="evenodd" clip-rule="evenodd" fill="#F4A684" width="9.616" height="29.683"/>
		</g>
	</g>
	<rect x="42.37" y="113.36" fill="#CC72E1" width="66" height="7"/>
	<rect x="48.37" y="128.36" fill="#CC72E1" width="54" height="7"/>
</g>
</svg>
