<?xml version="1.0" encoding="utf-8"?>
<!-- Generator: Adobe Illustrator 17.0.0, SVG Export Plug-In . SVG Version: 6.00 Build 0)  -->
<!DOCTYPE svg PUBLIC "-//W3C//DTD SVG 1.1//EN" "http://www.w3.org/Graphics/SVG/1.1/DTD/svg11.dtd">
<svg version="1.1" xmlns="http://www.w3.org/2000/svg" xmlns:xlink="http://www.w3.org/1999/xlink" x="0px" y="0px" width="360px"
	 height="235.51px" viewBox="0 0 360 235.51" enable-background="new 0 0 360 235.51" xml:space="preserve">
<g id="Layer_2">
</g>
<g id="Layer_3">
	<g>
		<g>
			<path fill="#545A58" d="M350,220.156c0,2.957-2.397,5.355-5.354,5.355H15.354c-2.957,0-5.354-2.398-5.354-5.355V15.353
				c0-2.957,2.397-5.354,5.354-5.354h329.292c2.957,0,5.354,2.397,5.354,5.354V220.156z"/>
			<rect x="23.386" y="27.401" fill="#FBEACE" width="313.229" height="179.288"/>
			<path fill="#FCF4E9" d="M290.147,81.823c-19.021,15.401-39.271,29.321-60.684,41.192c-22.724,12.597-46.657,22.613-71.01,31.603
				c-43.715,16.136-88.892,28.143-135.068,33.911v18.16h313.229V37.891C322.277,53.742,306.675,68.441,290.147,81.823z"/>
		</g>
		<circle fill="#C6C6C6" cx="180" cy="215.976" r="5.436"/>
	</g>
</g>
<g id="Layer_1">
</g>
<g id="Layer_4">
</g>
</svg>
