<?xml version="1.0" encoding="utf-8"?>
<!-- Generator: Adobe Illustrator 16.0.0, SVG Export Plug-In . SVG Version: 6.00 Build 0)  -->
<!DOCTYPE svg PUBLIC "-//W3C//DTD SVG 1.1//EN" "http://www.w3.org/Graphics/SVG/1.1/DTD/svg11.dtd">
<svg version="1.1" id="Layer_1" xmlns="http://www.w3.org/2000/svg" xmlns:xlink="http://www.w3.org/1999/xlink" x="0px" y="0px"
	 width="330px" height="366px" viewBox="0 0 330 366" enable-background="new 0 0 330 366" xml:space="preserve">
<g>
	<g>
		<path fill="#CC72E1" d="M105.147,256.486c0.916-7.672-5.004-13.834-12.676-14.75l-0.713-0.084
			c-7.673-0.918-13.619,3.83-14.534,11.504l-3.856,32.322l27.924,3.334L105.147,256.486z"/>
		<path fill="#FFFFFF" d="M73.368,285.479l-3.217,26.957c-0.916,7.674,3.604,14.863,11.277,15.779l0.713,0.084
			c7.674,0.918,15.018-4.857,15.933-12.533l3.218-26.953L73.368,285.479z"/>
	</g>
	<path fill="#FFFFFF" d="M79.683,277.061c-0.99-0.119-0.952-0.93-0.834-1.928l1.986-16.633c0.12-0.994,0.272-1.793,1.262-1.674
		c0.995,0.119,0.95,0.928,0.833,1.922l-1.985,16.639C80.825,276.381,80.678,277.178,79.683,277.061z"/>
	<path fill="#FFFFFF" d="M82.983,253.283c-0.992-0.119-1.703-1.02-1.584-2.016l0,0c0.117-0.996,1.021-1.703,2.015-1.584
		c0.995,0.119,1.702,1.02,1.584,2.014l0,0C84.878,252.691,83.978,253.404,82.983,253.283z"/>
</g>
<g>
	<g>
		<path fill="#CC72E1" d="M41.328,284.537c-4.791-6.066-13.335-6.225-19.397-1.438l-0.564,0.445
			c-6.065,4.789-6.899,12.35-2.11,18.416l20.169,25.551l22.073-17.426L41.328,284.537z"/>
		<path fill="#FFFFFF" d="M39.424,327.512l16.823,21.309c4.788,6.064,13.072,7.939,19.137,3.15l0.563-0.445
			c6.064-4.789,7.159-14.066,2.371-20.131l-16.821-21.309L39.424,327.512z"/>
	</g>
	<path fill="#FFFFFF" d="M37.92,317.094c-0.783,0.617-1.33,0.018-1.953-0.77l-10.379-13.148c-0.62-0.783-1.078-1.459-0.296-2.074
		c0.788-0.621,1.33-0.02,1.952,0.77l10.38,13.146C38.245,315.807,38.708,316.473,37.92,317.094z"/>
	<path fill="#FFFFFF" d="M23.411,297.973c-0.785,0.617-1.928,0.486-2.546-0.299l0,0c-0.624-0.789-0.487-1.928,0.299-2.549
		c0.787-0.619,1.923-0.486,2.546,0.301l0,0C24.331,296.213,24.198,297.354,23.411,297.973z"/>
</g>
<g>
	<circle fill="#17BF9F" cx="43.027" cy="231.6" r="19.441"/>
	<g>
		<path fill="#42E8CE" d="M60.627,239.814c3.972-8.496,1.334-18.85-6.666-24.289c-8.002-5.443-18.602-4.092-25.037,2.725
			L60.627,239.814z"/>
		<path fill="#42E8CE" d="M25.431,223.389c-3.974,8.49-1.336,18.846,6.665,24.285c8.001,5.443,18.601,4.09,25.038-2.727
			L25.431,223.389z"/>
	</g>
</g>
<g>
	<circle fill="#17BF9F" cx="67.716" cy="186.05" r="19.44"/>
	<g>
		<path fill="#42E8CE" d="M76.903,203.16c8.266-4.426,12.348-14.301,9.192-23.447c-3.154-9.148-12.458-14.408-21.692-12.797
			L76.903,203.16z"/>
		<path fill="#42E8CE" d="M58.531,168.941c-8.264,4.426-12.347,14.299-9.191,23.447c3.155,9.146,12.456,14.404,21.693,12.795
			L58.531,168.941z"/>
	</g>
</g>
<path fill="#E2E2E2" d="M304.35,11.564H137.506c-7.573,0-13.714,6.146-13.714,13.714v234.757c0,7.578,6.141,13.717,13.714,13.717
	H304.35c7.572,0,13.715-6.139,13.715-13.717V25.278C318.064,17.709,311.922,11.564,304.35,11.564z"/>
<path fill="#FFFFFF" d="M299.762,11.564H137.159c-7.381,0-13.366,5.989-13.366,13.366v228.791c0,7.387,5.985,13.367,13.366,13.367
	h162.603c7.381,0,13.365-5.98,13.365-13.367V24.93C313.127,17.553,307.143,11.564,299.762,11.564z"/>
<path fill="#E2E2E2" d="M220.928,244.4c2.273,0,4.117-1.838,4.117-4.111V109.676c0-2.273-1.844-4.112-4.117-4.112
	c-2.271,0-4.117,1.839-4.117,4.112v130.613C216.811,242.563,218.656,244.4,220.928,244.4z"/>
<path fill="#E2E2E2" d="M220.928,85.895c2.273,0,4.117-1.84,4.117-4.113V47.458c0-2.283-1.844-4.121-4.117-4.121
	c-2.271,0-4.117,1.838-4.117,4.121v34.323C216.811,84.055,218.656,85.895,220.928,85.895z"/>
<g>
	<path fill="#17BF9F" d="M277.734,85.266c-9.494,7.955-23.637,6.703-31.59-2.789c-7.953-9.496-6.703-23.64,2.789-31.594
		c9.492-7.951,23.637-6.704,31.592,2.791C288.479,63.168,287.23,77.311,277.734,85.266z"/>
	<g>
		<path fill="#42E8CE" d="M280.279,82.725c7.082-8.172,7.412-20.492,0.246-29.051c-7.168-8.555-19.357-10.39-28.645-4.851
			L280.279,82.725z"/>
		<path fill="#42E8CE" d="M246.389,53.424c-7.08,8.174-7.412,20.494-0.244,29.053c7.166,8.555,19.355,10.389,28.645,4.85
			L246.389,53.424z"/>
	</g>
</g>
<g>
	<path fill="#17BF9F" d="M277.734,159.902c-9.494,7.955-23.637,6.705-31.59-2.789c-7.953-9.496-6.703-23.638,2.789-31.593
		c9.492-7.951,23.637-6.701,31.592,2.791C288.479,137.803,287.23,151.947,277.734,159.902z"/>
	<g>
		<path fill="#42E8CE" d="M280.279,157.363c7.082-8.174,7.412-20.495,0.246-29.052c-7.168-8.553-19.357-10.391-28.645-4.85
			L280.279,157.363z"/>
		<path fill="#42E8CE" d="M246.389,128.063c-7.08,8.172-7.412,20.494-0.244,29.05c7.166,8.557,19.355,10.391,28.645,4.85
			L246.389,128.063z"/>
	</g>
</g>
<g>
	<path fill="#17BF9F" d="M277.734,234.541c-9.494,7.955-23.637,6.703-31.59-2.789c-7.953-9.496-6.703-23.641,2.789-31.594
		c9.492-7.951,23.637-6.705,31.592,2.791C288.479,212.441,287.23,226.586,277.734,234.541z"/>
	<g>
		<path fill="#42E8CE" d="M280.279,232c7.082-8.172,7.412-20.492,0.246-29.051c-7.168-8.555-19.357-10.391-28.645-4.852L280.279,232
			z"/>
		<path fill="#42E8CE" d="M246.389,202.699c-7.08,8.174-7.412,20.494-0.244,29.053c7.166,8.555,19.355,10.389,28.645,4.85
			L246.389,202.699z"/>
	</g>
</g>
<g>
	<path fill="#17BF9F" d="M193.26,85.266c-9.492,7.955-23.637,6.703-31.588-2.789c-7.953-9.496-6.704-23.64,2.788-31.594
		c9.494-7.951,23.638-6.704,31.591,2.791C204.006,63.168,202.758,77.311,193.26,85.266z"/>
	<g>
		<path fill="#42E8CE" d="M195.807,82.725c7.082-8.172,7.412-20.492,0.244-29.051c-7.166-8.555-19.357-10.39-28.643-4.851
			L195.807,82.725z"/>
		<path fill="#42E8CE" d="M161.914,53.424c-7.079,8.174-7.409,20.494-0.242,29.053c7.167,8.555,19.354,10.389,28.645,4.85
			L161.914,53.424z"/>
	</g>
</g>
<g>
	<path fill="#17BF9F" d="M193.26,159.902c-9.492,7.955-23.637,6.705-31.588-2.789c-7.953-9.496-6.704-23.638,2.788-31.593
		c9.494-7.951,23.638-6.701,31.591,2.791C204.006,137.803,202.758,151.947,193.26,159.902z"/>
	<g>
		<path fill="#42E8CE" d="M195.807,157.363c7.082-8.174,7.412-20.495,0.244-29.052c-7.166-8.553-19.357-10.391-28.643-4.85
			L195.807,157.363z"/>
		<path fill="#42E8CE" d="M161.914,128.063c-7.079,8.172-7.409,20.494-0.242,29.05c7.167,8.557,19.354,10.391,28.645,4.85
			L161.914,128.063z"/>
	</g>
</g>
<g>
	<path fill="#17BF9F" d="M193.26,234.541c-9.492,7.955-23.637,6.703-31.588-2.789c-7.953-9.496-6.704-23.641,2.788-31.594
		c9.494-7.951,23.638-6.705,31.591,2.791C204.006,212.441,202.758,226.586,193.26,234.541z"/>
	<g>
		<path fill="#42E8CE" d="M195.807,232c7.082-8.172,7.412-20.492,0.244-29.051c-7.166-8.555-19.357-10.391-28.643-4.852L195.807,232
			z"/>
		<path fill="#42E8CE" d="M161.914,202.699c-7.079,8.174-7.409,20.494-0.242,29.053c7.167,8.555,19.354,10.389,28.645,4.85
			L161.914,202.699z"/>
	</g>
</g>
</svg>
