<?xml version="1.0" encoding="utf-8"?>
<!-- Generator: Adobe Illustrator 16.0.0, SVG Export Plug-In . SVG Version: 6.00 Build 0)  -->
<!DOCTYPE svg PUBLIC "-//W3C//DTD SVG 1.1//EN" "http://www.w3.org/Graphics/SVG/1.1/DTD/svg11.dtd">
<svg version="1.1" id="Layer_1" xmlns="http://www.w3.org/2000/svg" xmlns:xlink="http://www.w3.org/1999/xlink" x="0px" y="0px"
	 width="293px" height="264px" viewBox="0 0 293 264" enable-background="new 0 0 293 264" xml:space="preserve">
<path fill="#CCB554" d="M85.519,38.572c0,15.377,6.958,28.911,21.548,28.911c12.753,0,18.334-2.029,23.623-7.538
	c4.998-5.206,7.852-15.264,6.832-22.195c-2.059-14-12.514-23.969-27.104-23.969C95.828,13.781,85.519,23.193,85.519,38.572z"/>
<path fill="#F8DB62" d="M84,40.484c0,14.809,10.87,26.813,24.281,26.813c13.408,0,24.28-12.004,24.28-26.813
	c0-14.805-10.872-26.808-24.28-26.808C94.87,13.677,84,25.68,84,40.484z"/>
<polygon fill="#FDEBCC" points="21,166 21,249 121.296,249 122.434,166 "/>
<polygon fill="#FFFFFF" points="269,249 269,164.92 197.516,86.317 122.397,166 125.964,249 "/>
<polygon fill="#FDEBCC" points="269,164.666 194.516,88.666 123.827,162.98 125.964,249 110,249 110,166.139 122.236,166.478 
	198.77,84.733 269,154 "/>
<rect x="216" y="185" fill="#FDEBCC" width="34" height="64"/>
<rect x="216" y="191" fill="#F39463" width="27" height="58"/>
<rect x="154" y="182" fill="#FDEBCC" width="39" height="34"/>
<rect x="154" y="187" fill="#2DC4A7" width="34" height="29"/>
<rect x="50" y="182" fill="#FDEBCC" width="46" height="39"/>
<rect x="53" y="187" fill="#2DC4A7" width="37" height="29"/>
<rect x="53" y="191" fill="#42E8CE" width="32" height="25"/>
<rect x="154" y="191" fill="#42E8CE" width="31" height="25"/>
<path fill="#373B47" d="M77.648,101.5c0-1.516,1.475-2.5,3.295-2.5h59.283c1.82,0,3.295,0.984,3.295,2.5l0,0
	c0,1.516-1.475,2.5-3.295,2.5H80.943C79.123,104,77.648,103.016,77.648,101.5L77.648,101.5z"/>
<polygon fill="#F37264" points="85.145,73 197.588,73 116.622,157 12.301,157 "/>
<polygon fill="#DB675E" points="282.001,156.8 276.903,162.389 199.088,84.733 122.044,166.088 20.477,166.478 12,166.088 12,157 
	116.622,157 197.977,72.21 "/>
<path fill="#45939A" d="M81.767,101.5c0,0.734,0.306,1.5,0.686,1.5h56.266c0.38,0,0.687-0.766,0.687-1.5l0,0
	c0-0.734-0.307-1.5-0.687-1.5H82.452C82.072,100,81.767,100.766,81.767,101.5L81.767,101.5z"/>
<path fill="#CCB554" d="M135.973,101.279c0-10.15-10.254-18.377-22.907-18.377c-12.65,0-22.906,8.227-22.906,18.377"/>
<path fill="#F8DB62" d="M131.965,101.086c0-10.801-10.339-19.557-23.093-19.557c-12.752,0-23.092,8.756-23.092,19.557"/>
<line opacity="0.5" fill="#61C4B9" stroke="#51515E" stroke-width="0.4407" stroke-miterlimit="10" x1="138.718" y1="102.652" x2="82.28" y2="102.457"/>
</svg>
