<?xml version="1.0" encoding="utf-8"?>
<!-- Generator: Adobe Illustrator 16.0.0, SVG Export Plug-In . SVG Version: 6.00 Build 0)  -->
<!DOCTYPE svg PUBLIC "-//W3C//DTD SVG 1.1//EN" "http://www.w3.org/Graphics/SVG/1.1/DTD/svg11.dtd">
<svg version="1.1" id="Layer_1" xmlns="http://www.w3.org/2000/svg" xmlns:xlink="http://www.w3.org/1999/xlink" x="0px" y="0px"
	 width="178px" height="145px" viewBox="0 0 178 145" enable-background="new 0 0 178 145" xml:space="preserve">
<rect x="34" y="38" fill="#B94FD3" width="106" height="30"/>
<polygon fill="#B94FD3" points="34,43.014 64.387,70 34,70 "/>
<path fill="#CC72E1" d="M138,29.994C138,20.525,129.846,13,120.375,13h-63.5C47.405,13,40,20.525,40,29.994v29.783
	C40,69.246,47.405,77,56.875,77h63.5C129.846,77,138,69.246,138,59.777V29.994z"/>
<path fill="#CC72E1" d="M38,105.35c0,5.877-5.966,9.65-11.844,9.65h-2.635c-5.877,0-9.521-3.773-9.521-9.65V43.834
	C14,37.953,17.645,33,23.521,33h2.635C32.034,33,38,37.953,38,43.834V105.35z"/>
<path fill="#CC72E1" d="M163,104.412c0,5.925-4.427,10.588-10.35,10.588h-2.156c-5.923,0-10.494-4.663-10.494-10.588V43.811
	C140,37.887,144.571,33,150.494,33h2.156c5.923,0,10.35,4.887,10.35,10.811V104.412z"/>
<path fill="#CC72E1" d="M163,104.662c0,5.785-4.192,10.338-9.979,10.338H24.479C18.691,115,14,110.447,14,104.662v-0.402
	C14,98.475,18.691,94,24.479,94h128.542c5.787,0,9.979,4.475,9.979,10.26V104.662z"/>
<rect x="24" y="115" fill="#716C7F" width="10" height="17"/>
<rect x="140" y="115" fill="#716C7F" width="11" height="17"/>
<path fill="#B94FD3" d="M154.533,65.877"/>
<path fill="#B94FD3" d="M143,93c0,1.656-1.344,3-3,3H38c-1.656,0-3-1.344-3-3V71c0-1.656,1.344-3,3-3h102c1.656,0,3,1.344,3,3V93z"
	/>
</svg>
