<?xml version="1.0" encoding="utf-8"?>
<!-- Generator: Adobe Illustrator 16.0.0, SVG Export Plug-In . SVG Version: 6.00 Build 0)  -->
<!DOCTYPE svg PUBLIC "-//W3C//DTD SVG 1.1//EN" "http://www.w3.org/Graphics/SVG/1.1/DTD/svg11.dtd">
<svg version="1.1" id="Layer_1" xmlns="http://www.w3.org/2000/svg" xmlns:xlink="http://www.w3.org/1999/xlink" x="0px" y="0px"
	 width="231px" height="191px" viewBox="191.61 294.583 231 191" enable-background="new 191.61 294.583 231 191"
	 xml:space="preserve">
<g>
	<path fill="none" stroke="#EA5353" stroke-width="6" stroke-linecap="round" stroke-miterlimit="10" d="M386.083,377.784
		c0,0,2.039,8.514,11.973,8.514c11.705,0,10.287-20.574,1.24-18.445c-6.041,1.422-5.853,15.254,5.588,12.771
		c13.621-2.957,9.488-17.029,6.65-17.383"/>
	<path fill="#FF8D8D" d="M391.844,392.874c0-35.234-39.406-63.79-88.003-63.79c-16.886,0-32.619,3.51-46.013,9.5
		c-0.291-1.258-0.727-2.486-1.536-3.481h-26.635c-2.455,3.049-2.455,7.97,0,11.006l5.55,6.89
		c-8.751,7.909-14.963,17.325-17.728,27.672l-7.386,1.986c-9.023,2.424-14.376,11.742-11.959,20.789l4.375,16.395
		c2.417,9.049,11.703,14.434,20.723,12.012l8.64-2.322c6.268,6.451,14.101,12.037,23.158,16.426l-2.44,11.027
		c-1.64,7.389,2.338,15.066,8.859,17.184c6.521,2.111,13.127-2.17,14.767-9.557l2.354-10.639c8.011,1.73,16.486,2.672,25.266,2.672
		c11,0,21.463-1.518,31.17-4.174l2.787,11.953c1.725,7.365,8.336,11.734,14.77,9.762c6.436-1.98,10.247-9.547,8.51-16.91
		l-3.285-14.076C378.475,431.522,391.844,413.342,391.844,392.874z"/>
	<path fill="#333333" d="M306.91,347.287c-15.209,0-30.412,5.193-30.412,5.193v6.915c0,0,15.192-5.184,30.383-5.184
		c15.191,0,30.413,4.951,30.413,4.951v-6.896C337.293,352.268,322.102,347.287,306.91,347.287z M246.169,377.563
		c-3.373,0-6.112,2.711-6.112,6.061c0,3.344,2.739,6.061,6.112,6.061c3.377,0,6.117-2.717,6.117-6.061
		C252.287,380.274,249.541,377.563,246.169,377.563z"/>
	<path fill="#333333" d="M246.169,377.563c-3.373,0-6.112,2.711-6.112,6.061c0,3.344,2.739,6.061,6.112,6.061
		c3.377,0,6.117-2.717,6.117-6.061C252.287,380.274,249.541,377.563,246.169,377.563z"/>
	<g>
		<g>
			<defs>
				<path id="SVGID_1_" d="M344.848,330.959c0-20.375-16.518-36.893-36.892-36.893c-20.375,0-36.892,16.518-36.892,36.893
					c0,10.857,0.09,17.301,6.426,20.663c-2.421,0.678-0.49,0.858-0.49,0.858v6.915c0,0,7.643-2.9,18.714-4.314
					c2.093,0.115,5.919-0.398,8.227-0.398c6.588,0,10.005,0.037,13.869,0.531c11.008,1.414,19.19,3.951,19.19,3.951v-6.897
					c0,0,0.144-0.088-0.346-0.235C344.42,348.855,344.848,342.646,344.848,330.959z"/>
			</defs>
			<clipPath id="SVGID_2_">
				<use xlink:href="#SVGID_1_"  overflow="visible"/>
			</clipPath>
			<g clip-path="url(#SVGID_2_)">
				<g>
					<g>
						<path fill="#FBE158" d="M306.983,304.709c16.431,0,29.797,13.367,29.797,29.797c0,16.432-13.366,29.797-29.797,29.797
							c-16.43,0-29.797-13.366-29.797-29.797C277.187,318.076,290.553,304.709,306.983,304.709 M306.983,300.453
							c-18.807,0-34.054,15.245-34.054,34.053s15.247,34.053,34.054,34.053c18.807,0,34.055-15.247,34.055-34.053
							C341.038,315.698,325.79,300.453,306.983,300.453L306.983,300.453z"/>
					</g>
					<g>
						<path fill="#FACB1B" d="M306.983,364.303c-16.43,0-29.797-13.366-29.797-29.797c0-16.43,13.367-29.797,29.797-29.797
							c16.431,0,29.797,13.367,29.797,29.797C336.78,350.938,323.414,364.303,306.983,364.303z"/>
					</g>
					<g>
						<path fill="#FBE158" d="M306.983,304.709c-16.43,0-29.797,13.367-29.797,29.797c0,8.455,3.546,16.094,9.222,21.524
							l42.096-42.099C323.076,308.255,315.438,304.709,306.983,304.709z"/>
					</g>
					<g>
						<path fill="#FCF6C2" d="M277.187,334.506c0-16.43,13.367-29.797,29.797-29.797c8.433,0,16.054,3.527,21.479,9.179l3.02-3.021
							c-6.191-6.416-14.876-10.414-24.499-10.414c-18.807,0-34.054,15.245-34.054,34.053c0,9.623,3.998,18.308,10.415,24.5
							l3.021-3.02C280.715,350.561,277.187,342.939,277.187,334.506z"/>
					</g>
					<text transform="matrix(1 0 0 1 295.2021 349.6108)" fill="#8E6134" font-family="'MyriadPro-Bold'" font-size="44.7792">$</text>
				</g>
				<g>
					<path fill="#FBE158" d="M306.983,304.709c16.431,0,29.797,13.367,29.797,29.797c0,16.432-13.366,29.797-29.797,29.797
						c-16.43,0-29.797-13.366-29.797-29.797C277.187,318.076,290.553,304.709,306.983,304.709 M306.983,300.453
						c-18.807,0-34.054,15.245-34.054,34.053s15.247,34.053,34.054,34.053c18.807,0,34.055-15.247,34.055-34.053
						C341.038,315.698,325.79,300.453,306.983,300.453L306.983,300.453z"/>
				</g>
			</g>
		</g>
	</g>
</g>
</svg>
