<?xml version="1.0" encoding="utf-8"?>
<!-- Generator: Adobe Illustrator 16.0.0, SVG Export Plug-In . SVG Version: 6.00 Build 0)  -->
<!DOCTYPE svg PUBLIC "-//W3C//DTD SVG 1.1//EN" "http://www.w3.org/Graphics/SVG/1.1/DTD/svg11.dtd">
<svg version="1.1" id="Layer_1" xmlns="http://www.w3.org/2000/svg" xmlns:xlink="http://www.w3.org/1999/xlink" x="0px" y="0px"
	 width="646.22px" height="706.165px" viewBox="0 0 646.22 706.165" enable-background="new 0 0 646.22 706.165"
	 xml:space="preserve">
<g>
	<path fill="none" stroke="#EA5353" stroke-width="6" stroke-linecap="round" stroke-miterlimit="10" d="M386.083,377.783
		c0,0,2.039,8.514,11.972,8.514c11.705,0,10.287-20.573,1.241-18.444c-6.042,1.421-5.853,15.252,5.587,12.771
		c13.621-2.957,9.488-17.029,6.651-17.383"/>
	<path fill="#FF8D8D" d="M391.845,392.873c0-35.234-39.407-63.789-88.004-63.789c-16.886,0-32.619,3.51-46.013,9.5
		c-0.291-1.258-0.727-2.486-1.536-3.481h-26.635c-2.455,3.048-2.455,7.969,0,11.005l5.55,6.89
		c-8.751,7.909-14.963,17.325-17.728,27.673l-7.386,1.986c-9.023,2.424-14.376,11.741-11.959,20.789l4.375,16.395
		c2.417,9.049,11.703,14.433,20.723,12.012l8.64-2.323c6.268,6.451,14.101,12.036,23.158,16.425l-2.44,11.028
		c-1.64,7.388,2.338,15.067,8.859,17.183c6.521,2.112,13.127-2.17,14.767-9.557l2.354-10.638c8.011,1.73,16.486,2.673,25.266,2.673
		c11,0,21.464-1.518,31.17-4.174l2.788,11.953c1.724,7.365,8.335,11.734,14.769,9.762c6.435-1.981,10.247-9.547,8.51-16.911
		l-3.285-14.076C378.475,431.521,391.845,413.342,391.845,392.873z"/>
	<path fill="#333333" d="M306.91,347.287c-15.209,0-30.412,5.193-30.412,5.193v6.915c0,0,15.192-5.183,30.383-5.183
		c15.191,0,30.412,4.951,30.412,4.951v-6.896C337.293,352.268,322.102,347.287,306.91,347.287z M246.169,377.563
		c-3.373,0-6.112,2.711-6.112,6.061c0,3.344,2.739,6.061,6.112,6.061c3.377,0,6.117-2.717,6.117-6.061
		C252.287,380.273,249.541,377.563,246.169,377.563z"/>
	<path fill="#333333" d="M246.169,377.563c-3.373,0-6.112,2.711-6.112,6.061c0,3.344,2.739,6.061,6.112,6.061
		c3.377,0,6.117-2.717,6.117-6.061C252.287,380.273,249.541,377.563,246.169,377.563z"/>
	<g>
		<defs>
			<path id="SVGID_1_" d="M344.848,330.959c0-20.375-16.517-36.893-36.892-36.893s-36.892,16.518-36.892,36.893
				c0,10.857,0.09,17.301,6.426,20.663c-2.421,0.678-0.49,0.858-0.49,0.858v6.915c0,0,7.643-2.9,18.714-4.315
				c2.093,0.115,5.919-0.398,8.227-0.398c6.588,0,10.005,0.037,13.869,0.532c11.008,1.413,19.19,3.95,19.19,3.95v-6.896
				c0,0,0.144-0.088-0.345-0.236C344.42,348.855,344.848,342.646,344.848,330.959z"/>
		</defs>
		<clipPath id="SVGID_2_">
			<use xlink:href="#SVGID_1_"  overflow="visible"/>
		</clipPath>
		<g clip-path="url(#SVGID_2_)">
			<g>
				<g>
					<path fill="#FBE158" d="M306.983,304.709c16.431,0,29.797,13.367,29.797,29.797c0,16.431-13.366,29.797-29.797,29.797
						c-16.43,0-29.797-13.366-29.797-29.797C277.187,318.076,290.553,304.709,306.983,304.709 M306.983,300.453
						c-18.807,0-34.054,15.245-34.054,34.053c0,18.807,15.247,34.054,34.054,34.054c18.807,0,34.054-15.247,34.054-34.054
						C341.037,315.698,325.79,300.453,306.983,300.453L306.983,300.453z"/>
				</g>
				<g>
					<path fill="#FACB1B" d="M306.983,364.303c-16.43,0-29.797-13.366-29.797-29.797c0-16.43,13.367-29.797,29.797-29.797
						c16.431,0,29.797,13.367,29.797,29.797C336.78,350.937,323.414,364.303,306.983,364.303z"/>
				</g>
				<g>
					<path fill="#FBE158" d="M306.983,304.709c-16.43,0-29.797,13.367-29.797,29.797c0,8.455,3.546,16.094,9.222,21.523
						l42.097-42.098C323.076,308.255,315.438,304.709,306.983,304.709z"/>
				</g>
				<g>
					<path fill="#FCF6C2" d="M277.187,334.506c0-16.43,13.367-29.797,29.797-29.797c8.433,0,16.054,3.527,21.479,9.179l3.02-3.021
						c-6.192-6.416-14.876-10.414-24.499-10.414c-18.807,0-34.054,15.245-34.054,34.053c0,9.623,3.998,18.307,10.415,24.5l3.02-3.02
						C280.715,350.561,277.187,342.939,277.187,334.506z"/>
				</g>
				<text transform="matrix(1 0 0 1 295.2021 349.6108)" fill="#8E6134" font-family="'MyriadPro-Bold'" font-size="44.7792">$</text>
			</g>
			<g>
				<path fill="#FBE158" d="M306.983,304.709c16.431,0,29.797,13.367,29.797,29.797c0,16.431-13.366,29.797-29.797,29.797
					c-16.43,0-29.797-13.366-29.797-29.797C277.187,318.076,290.553,304.709,306.983,304.709 M306.983,300.453
					c-18.807,0-34.054,15.245-34.054,34.053c0,18.807,15.247,34.054,34.054,34.054c18.807,0,34.054-15.247,34.054-34.054
					C341.037,315.698,325.79,300.453,306.983,300.453L306.983,300.453z"/>
			</g>
		</g>
	</g>
</g>
</svg>
