<?xml version="1.0" encoding="utf-8"?>
<!-- Generator: Adobe Illustrator 17.0.0, SVG Export Plug-In . SVG Version: 6.00 Build 0)  -->
<!DOCTYPE svg PUBLIC "-//W3C//DTD SVG 1.1//EN" "http://www.w3.org/Graphics/SVG/1.1/DTD/svg11.dtd">
<svg version="1.1" id="Layer_1" xmlns="http://www.w3.org/2000/svg" xmlns:xlink="http://www.w3.org/1999/xlink" x="0px" y="0px"
	 width="69px" height="78px" viewBox="0 0 69 78" enable-background="new 0 0 69 78" xml:space="preserve">
<g opacity="0.8">
	<g>
		<polyline fill="#2B2B33" points="0,78 0.188,78 61.287,78 69,70.926 69,0 61.287,0 0,0 		"/>
	</g>
	<rect x="0" fill="#36363D" width="69" height="71"/>
</g>
<g opacity="0.8">
	<path fill-rule="evenodd" clip-rule="evenodd" fill="#FFFFFF" d="M32.015,46.567c1.603,0.73,3.205,1.18,5.023,1.047
		c-0.129,0.174-0.195,0.297-0.292,0.388c-1.254,1.172-2.408,2.486-3.792,3.48c-2.926,2.104-7.23,1.591-9.814-0.929
		c-1.665-1.625-2.455-3.594-2.429-5.868c0.022-1.879,0.592-3.646,1.909-5.023c1.729-1.812,3.456-3.656,5.383-5.244
		c2.926-2.412,7.472-2.115,10.294,0.644c0.86,0.841,0.923,2.283,0.076,3.081c-0.947,0.894-2.21,0.976-3.118,0
		c-1.256-1.354-3.879-1.304-5.114,0.069c-1.252,1.393-2.638,2.667-3.963,3.994c-2.033,2.04-1.238,5.292,1.527,6.098
		c1.227,0.359,2.394,0.121,3.364-0.781C31.389,47.227,31.682,46.904,32.015,46.567z"/>
	<path fill-rule="evenodd" clip-rule="evenodd" fill="#FFFFFF" d="M37.177,31.245c-1.808-0.402-3.428-0.761-5.052-1.121
		c0.368-0.373,0.831-0.846,1.297-1.313c1.071-1.074,2.087-2.212,3.512-2.858c4.63-2.102,10.018,0.412,11.129,5.363
		c0.661,2.942-0.15,5.426-2.198,7.549c-1.289,1.334-2.617,2.63-3.937,3.933c-1.804,1.781-3.998,2.558-6.501,2.326
		c-1.81-0.169-3.405-0.924-4.707-2.219c-0.944-0.939-0.967-2.167-0.082-3.062c0.94-0.953,2.162-0.998,3.103-0.031
		c1.349,1.391,3.781,1.352,5.106-0.046c1.336-1.408,2.751-2.742,4.107-4.131c0.984-1.009,1.319-2.239,0.889-3.578
		c-0.401-1.25-1.324-2.147-2.577-2.446c-1.228-0.292-2.46-0.063-3.413,0.922C37.581,30.814,37.314,31.102,37.177,31.245z"/>
</g>
</svg>
