<?xml version="1.0" encoding="utf-8"?>
<!-- Generator: Adobe Illustrator 17.0.0, SVG Export Plug-In . SVG Version: 6.00 Build 0)  -->
<!DOCTYPE svg PUBLIC "-//W3C//DTD SVG 1.1//EN" "http://www.w3.org/Graphics/SVG/1.1/DTD/svg11.dtd">
<svg version="1.1" id="Layer_1" xmlns="http://www.w3.org/2000/svg" xmlns:xlink="http://www.w3.org/1999/xlink" x="0px" y="0px"
	 width="69px" height="78px" viewBox="0 0 69 78" enable-background="new 0 0 69 78" xml:space="preserve">
<g>
	<g>
		<polyline fill="#2B2B33" points="0,78 0.188,78 61.287,78 69,70.926 69,0 61.287,0 0,0 		"/>
	</g>
	<rect x="0" y="0" fill="#36363D" width="69" height="71"/>
	<path fill="#FFFFFF" d="M40.961,38.825c-1.42,0-2.673,0.676-3.49,1.712l-7.59-3.881c0.1-0.371,0.171-0.754,0.171-1.157
		c0-0.438-0.085-0.852-0.203-1.253l7.557-3.863c0.812,1.082,2.098,1.79,3.557,1.79c2.472,0,4.471-1.999,4.471-4.468
		c0-2.467-1.999-4.468-4.471-4.468c-2.466,0-4.467,2.001-4.467,4.468c0,0.403,0.071,0.787,0.172,1.159l-7.588,3.882
		c-0.818-1.037-2.074-1.716-3.496-1.716c-2.469,0-4.467,2.001-4.467,4.469c0,2.469,1.998,4.469,4.467,4.469
		c1.461,0,2.745-0.71,3.562-1.794l7.553,3.863c-0.119,0.401-0.205,0.817-0.205,1.258c0,2.468,2.002,4.468,4.468,4.468
		c2.472,0,4.471-2,4.471-4.468C45.432,40.824,43.433,38.825,40.961,38.825z"/>
</g>
</svg>
