<?xml version="1.0" encoding="utf-8"?>
<!-- Generator: Adobe Illustrator 17.0.0, SVG Export Plug-In . SVG Version: 6.00 Build 0)  -->
<!DOCTYPE svg PUBLIC "-//W3C//DTD SVG 1.1//EN" "http://www.w3.org/Graphics/SVG/1.1/DTD/svg11.dtd">
<svg version="1.1" id="Layer_1" xmlns="http://www.w3.org/2000/svg" xmlns:xlink="http://www.w3.org/1999/xlink" x="0px" y="0px"
	 width="69px" height="78px" viewBox="0 0 69 78" enable-background="new 0 0 69 78" xml:space="preserve">
<g>
	<g>
		<polyline fill="#2B2B33" points="0,78 0.188,78 61.287,78 69,70.926 69,0 61.287,0 0,0 		"/>
	</g>
	<rect x="0" fill="#36363D" width="69" height="71"/>
</g>
<path fill="#FFFFFF" d="M46.564,29.005c-1.013,0.6-2.135,1.036-3.328,1.271c-0.955-1.018-2.317-1.654-3.824-1.654
	c-2.894,0-5.24,2.345-5.24,5.238c0,0.411,0.047,0.812,0.137,1.194c-4.355-0.218-8.217-2.305-10.801-5.475
	c-0.451,0.773-0.709,1.675-0.709,2.634c0,1.818,0.925,3.422,2.331,4.362c-0.858-0.027-1.667-0.264-2.374-0.655
	c0,0.021,0,0.043,0,0.065c0,2.538,1.807,4.656,4.203,5.138c-0.439,0.12-0.902,0.184-1.381,0.184c-0.337,0-0.665-0.032-0.985-0.094
	c0.667,2.082,2.603,3.597,4.896,3.639c-1.794,1.406-4.053,2.243-6.508,2.243c-0.424,0-0.84-0.024-1.25-0.073
	c2.318,1.487,5.072,2.354,8.031,2.354c9.639,0,14.908-7.984,14.908-14.908c0-0.228-0.005-0.453-0.015-0.678
	c1.024-0.739,1.912-1.662,2.614-2.713c-0.94,0.417-1.949,0.698-3.01,0.825C45.342,31.255,46.173,30.228,46.564,29.005z"/>
</svg>
