<?xml version="1.0" encoding="utf-8"?>
<!-- Generator: Adobe Illustrator 16.0.0, SVG Export Plug-In . SVG Version: 6.00 Build 0)  -->
<!DOCTYPE svg PUBLIC "-//W3C//DTD SVG 1.1//EN" "http://www.w3.org/Graphics/SVG/1.1/DTD/svg11.dtd">
<svg version="1.1" id="Layer_1" xmlns="http://www.w3.org/2000/svg" xmlns:xlink="http://www.w3.org/1999/xlink" x="0px" y="0px"
	 width="259px" height="378px" viewBox="0 0 259 378" enable-background="new 0 0 259 378" xml:space="preserve">
<g>
	<path fill="#E0784B" d="M16.894,274.177l11.525,23.741l0.788,0.084l7.715,17.53l3.268-6.693l60.186-117.378
		c19.598,1.521,39.078-8.674,48.449-27.352c12.322-24.621,2.374-54.578-22.245-66.942c-24.613-12.327-54.573-2.355-66.92,22.257
		c-9.373,18.661-5.849,40.44,7.101,55.213l-9.165,18.373l5.345,16.135l-16.128,5.342l-4.214,8.372l3.784,11.328l-11.332,3.775
		l-1.267,6.495l-4.533,5.047l7.805,13.359l-15.451,1.721L16.894,274.177z M100.563,116.135c3.261-6.495,11.146-9.133,17.666-5.886
		c6.502,3.259,9.121,11.175,5.865,17.696c-3.266,6.482-11.166,9.084-17.653,5.845C99.957,130.532,97.301,122.62,100.563,116.135z"/>
</g>
<g>
	<path fill="#F39463" d="M17.078,274.877l11.525,23.742l0.787,0.084l53.321-105.66l8.133-1.93l-56.51,119.048l3.415,7.089
		l62.811-125.088c19.598,1.52,39.077-8.675,48.448-27.352c12.323-24.623,2.374-54.579-22.245-66.943
		c-24.613-12.327-54.573-2.355-66.92,22.256c-9.373,18.662-5.85,40.441,7.101,55.214l-9.165,18.373l5.344,16.134l-16.127,5.342
		l-4.215,8.374l3.785,11.327l-11.332,3.775l-1.268,6.494l-4.533,5.047l7.805,13.36l-15.45,1.722L17.078,274.877z M100.748,116.836
		c3.26-6.495,11.145-9.135,17.666-5.887c6.501,3.259,9.119,11.175,5.863,17.697c-3.265,6.481-11.164,9.083-17.653,5.844
		C100.141,131.232,97.484,123.32,100.748,116.836z"/>
</g>
<g>
	<path fill="#CCB554" d="M88.687,323.091l15.286,21.513l0.791-0.047l9.569,15.291l3.051-6.416l39.983-125.704
		c19.58-1.735,37.109-15.007,43.269-34.974c8.089-26.319-6.669-54.222-32.991-62.353c-26.311-8.095-54.213,6.687-62.327,32.999
		c-6.164,19.952,0.906,40.852,16.118,53.283l-6.007,19.634l7.935,15.031l-15.023,7.931l-2.775,8.954l5.604,10.548l-10.554,5.594
		l-0.177,6.615l-3.639,5.726l9.902,11.888l-14.953,4.248L88.687,323.091z M145.117,153.404c2.143-6.943,9.484-10.848,16.451-8.722
		c6.95,2.142,10.84,9.516,8.705,16.485c-2.149,6.932-9.512,10.802-16.445,8.679C146.896,167.704,142.969,160.339,145.117,153.404z"
		/>
</g>
<line fill="none" x1="154.111" y1="128.186" x2="117.384" y2="353.432"/>
<g>
	<path fill="#CC72E1" d="M100.748,116.836c-0.041,0.082-0.07,0.167-0.11,0.25c2.469,5.074,6.558,12.711,11.373,18.775
		c3.651,0.139,7.24-1.245,9.843-3.86c-4.204-4.503-9.144-12.521-13.405-21.787C105.217,111.267,102.393,113.559,100.748,116.836z"/>
</g>
<path fill="none" stroke="#CC72E1" stroke-width="10" stroke-miterlimit="10" d="M121.854,140.5
	c-6.135-6.135-13.768-18.208-17.165-25.664"/>
<g>
	<path fill="#F8DB62" d="M88.929,323.091l15.286,21.513l0.791-0.047l35.146-113.013l7.704-3.245l-36.082,126.743l3.56,4.806
		l42.276-132.12c19.58-1.735,37.109-15.007,43.269-34.974c8.089-26.319-6.668-54.222-32.99-62.353
		c-26.312-8.095-54.214,6.687-62.328,32.999c-6.163,19.952,0.907,40.852,16.118,53.283l-6.006,19.634l7.935,15.031l-15.024,7.931
		l-2.775,8.954l5.604,10.548l-10.553,5.594l-0.178,6.615l-3.638,5.726l9.902,11.888l-14.954,4.248L88.929,323.091z M145.359,153.404
		c2.144-6.943,9.484-10.848,16.451-8.722c6.951,2.141,10.84,9.516,8.705,16.485c-2.149,6.933-9.512,10.802-16.445,8.679
		C147.139,167.704,143.212,160.339,145.359,153.404z"/>
</g>
<g>
	<path fill="none" d="M145.359,153.404c-0.219,0.706-0.358,1.416-0.454,2.124l1.812-5.102
		C146.158,151.342,145.69,152.332,145.359,153.404z"/>
	<path fill="#CC72E1" d="M146.837,150.087l-0.12,0.339c0.063-0.105,0.126-0.212,0.192-0.315
		C146.886,150.103,146.861,150.096,146.837,150.087z"/>
	<path fill="#CC72E1" d="M222.089,35.13c-29.4-29.399-77.239-29.399-106.638,0C100.146,50.435,92.188,71.49,93.504,93.069
		c0.025,0.411,4.496-1.188,9.951-1.175c-0.972-18.522,5.926-36.552,19.066-49.692c25.502-25.501,66.995-25.501,92.497,0
		c25.502,25.502,25.502,66.997,0.001,92.498c-17.73,17.732-44.458,23.777-68.11,15.412c-0.066,0.103-0.129,0.209-0.192,0.315
		l-1.812,5.102c-0.207,1.53-0.146,3.051,0.171,4.507c7.681,2.534,15.614,3.783,23.504,3.783c19.737,0,39.174-7.71,53.51-22.047
		C251.491,112.37,251.49,64.532,222.089,35.13z"/>
</g>
</svg>
