<?xml version="1.0" encoding="utf-8"?>
<!-- Generator: Adobe Illustrator 17.0.0, SVG Export Plug-In . SVG Version: 6.00 Build 0)  -->
<!DOCTYPE svg PUBLIC "-//W3C//DTD SVG 1.1//EN" "http://www.w3.org/Graphics/SVG/1.1/DTD/svg11.dtd">
<svg version="1.1" xmlns="http://www.w3.org/2000/svg" xmlns:xlink="http://www.w3.org/1999/xlink" x="0px" y="0px"
	 width="360.26px" height="243.23px" viewBox="0 0 360.26 243.23" enable-background="new 0 0 360.26 243.23" xml:space="preserve">
<g id="Layer_2">
</g>
<g id="Layer_3">
	<g>
		<path fill="#B25DC5" d="M179.921,10.002L10.001,72.767l0.045,14.911l74.589,19.942l0.136,45.145c0,0,29.625-8.577,95.542-12.953
			c64.221,3.653,95.613,12.378,95.613,12.378l-0.136-45.147l74.469-20.388l-0.043-14.909L179.921,10.002z"/>
		<path fill="#25EDE7" d="M333.52,188.45c2.933-0.56,5.15-3.13,5.142-6.229c-0.01-3.497-2.853-6.322-6.351-6.312l-1.08,0.004
			l-0.347-115.486c-0.014-4.815-3.928-8.704-8.737-8.688c-4.817,0.016-8.705,3.926-8.69,8.739l0.347,115.49l-0.063-0.002
			c-3.501,0.01-6.324,2.853-6.314,6.349c0.01,2.77,1.806,5.092,4.287,5.947c-8.587,18.477-14.015,32.222-11.688,34.253
			c16.434,14.324,28.922,14.287,45.263-0.136C347.6,220.345,342.198,206.835,333.52,188.45z"/>
		<path fill="#CC71E7" d="M275.926,152.19c-0.053-17.937-42.887-32.352-95.674-32.192c-52.783,0.158-95.532,14.828-95.479,32.765
			c0.053,17.939,42.891,32.352,95.676,32.19C233.232,184.798,275.981,170.127,275.926,152.19z"/>
	</g>
</g>
<g id="Layer_1">
</g>
<g id="Layer_4">
</g>
</svg>
