<?xml version="1.0" encoding="utf-8"?>
<!-- Generator: Adobe Illustrator 17.0.0, SVG Export Plug-In . SVG Version: 6.00 Build 0)  -->
<!DOCTYPE svg PUBLIC "-//W3C//DTD SVG 1.1//EN" "http://www.w3.org/Graphics/SVG/1.1/DTD/svg11.dtd">
<svg version="1.1" id="Layer_1" xmlns="http://www.w3.org/2000/svg" xmlns:xlink="http://www.w3.org/1999/xlink" x="0px" y="0px"
	 width="128.35px" height="155px" viewBox="0 0 128.35 155" enable-background="new 0 0 128.35 155" xml:space="preserve">
<g>
	<path fill="#FCF4E8" d="M118,50v90c0,2.761-2.239,5-5,5H15c-2.761,0-5-2.239-5-5V15c0-2.761,2.239-5,5-5h63"/>
	<g>
		<g>
			<defs>
				<rect id="SVGID_3_" x="81.327" y="48.283" width="37.023" height="32.717"/>
			</defs>
			<clipPath id="SVGID_2_">
				<use xlink:href="#SVGID_3_"  overflow="visible"/>
			</clipPath>
			<polygon opacity="0.2" clip-path="url(#SVGID_2_)" fill="#5F5F6D" points="81.327,48.283 118.35,80.999 118.35,50.665 			"/>
		</g>
	</g>
	<path fill="#FFFFFF" d="M77.902,10.217v30.336c0,5.585,4.526,10.112,10.112,10.112h30.335L77.902,10.217z"/>
	<line fill="#E0E0D1" x1="77.902" y1="10.217" x2="118" y2="50.315"/>
	<rect x="31" y="44" fill="#F39463" width="32" height="7"/>
	<rect x="31" y="61" fill="#F39463" width="67" height="7"/>
	<rect x="31" y="78" fill="#F39463" width="67" height="7"/>
	<rect x="31" y="94" fill="#F39463" width="67" height="7"/>
	<rect x="31" y="111" fill="#F39463" width="67" height="7"/>
</g>
</svg>
