<?xml version="1.0" encoding="utf-8"?>
<!-- Generator: Adobe Illustrator 17.0.0, SVG Export Plug-In . SVG Version: 6.00 Build 0)  -->
<!DOCTYPE svg PUBLIC "-//W3C//DTD SVG 1.1//EN" "http://www.w3.org/Graphics/SVG/1.1/DTD/svg11.dtd">
<svg version="1.1" id="Layer_1" xmlns="http://www.w3.org/2000/svg" xmlns:xlink="http://www.w3.org/1999/xlink" x="0px" y="0px"
	 width="117.29px" height="240.07px" viewBox="0 0 117.29 240.07" enable-background="new 0 0 117.29 240.07" xml:space="preserve">
<g>
	<g>
		<defs>
			<rect id="SVGID_5_" x="57.164" y="-2.97" width="63" height="232"/>
		</defs>
		<clipPath id="SVGID_2_">
			<use xlink:href="#SVGID_5_"  overflow="visible"/>
		</clipPath>
		<path clip-path="url(#SVGID_2_)" fill="#AC5EBF" d="M60.716,157.88c0-9.59,0.001-19.18-0.001-28.77c0-2.03-0.061-2.09-2.129-2.122
			c-0.433-0.007-0.939-0.122-1.283,0.057c-0.459,0.24-0.949,0.656-1.139,1.115c-0.201,0.485-0.077,1.11-0.077,1.673
			c-0.002,18.095-0.075,36.191,0.042,54.285c0.036,5.521-1.944,10.162-5.195,14.369c-3.53,4.569-8.181,7.554-13.897,8.46
			c-8.178,1.296-15.429-0.803-20.87-7.24c-6.834-8.086-7.837-17.254-3.76-26.89c4.065-9.606,15.381-14.933,25.369-12.199
			c1.504,0.412,2.964,0.994,4.478,1.349c1.783,0.418,2.043,0.149,2.043-1.682c0.001-16.143,0.088-32.286-0.04-48.427
			c-0.055-6.878,0.518-13.678,1.363-20.485c1.02-8.217,1.897-16.451,2.846-24.677c0.959-8.31,1.925-16.619,2.897-24.927
			c0.927-7.923,1.866-15.845,2.798-23.768c0.203-1.723,0.399-3.446,0.599-5.169c0.203-1.743,1.137-2.661,2.85-2.804
			c2.995-0.249,3.967,0.518,4.326,3.594c0.852,7.32,1.643,14.646,2.495,21.966c0.766,6.587,1.59,13.167,2.37,19.753
			c1.174,9.901,2.334,19.804,3.497,29.707c0.682,5.81,1.366,11.621,2.028,17.433c0.088,0.773,0.08,1.559,0.08,2.339
			c0.004,18.399,0.003,36.798,0.004,55.197c0,2.213,0.208,2.401,2.418,1.853c1.383-0.343,2.719-0.873,4.102-1.215
			c5.37-1.327,10.641-1.042,15.548,1.612c7.486,4.049,11.71,10.426,12.541,18.894c0.979,9.989-2.947,17.646-11.446,22.934
			c-0.997,0.62-1.514,1.37-1.633,2.467c-0.373,3.446-0.389,6.817,1.388,9.996c1.032,1.846,1.981,3.772,2.681,5.762
			c1.067,3.03-0.118,5.941-2.685,7.237c-2.304,1.163-5.73,0.265-7.532-1.89c-2.794-3.342-4.045-7.343-4.906-11.485
			c-0.511-2.456-0.782-4.963-1.118-7.453c-0.122-0.901-0.39-1.464-1.417-1.701c-3.445-0.794-6.666-2.184-9.692-4.013
			c-4.94-2.987-7.953-7.39-9.313-12.938c-0.357-1.455-0.596-2.978-0.605-4.471C60.689,176.366,60.716,167.123,60.716,157.88z
			 M95.386,183.326c0.001-6.685-4.643-11.338-11.272-11.293c-6.472,0.044-11.125,4.798-11.13,11.372
			c-0.005,6.403,4.962,11.743,10.93,11.752C90.553,195.168,95.385,190.185,95.386,183.326z M33.187,195.161
			c6.113-0.006,11.089-5.25,11.111-11.712c0.022-6.449-4.823-11.408-11.156-11.416c-6.542-0.008-11.262,4.766-11.26,11.388
			C21.885,190.097,26.767,195.167,33.187,195.161z"/>
	</g>
	<path fill="#CC72E1" d="M12.409,172.819c-4.078,9.635-3.074,18.804,3.76,26.89c5.44,6.437,12.691,8.535,20.87,7.24
		c5.716-0.906,10.367-3.89,13.897-8.46c3.251-4.208,5.23-8.849,5.195-14.37c-0.117-18.094-0.044-36.19-0.042-54.285
		c0-0.564-0.124-1.188,0.078-1.674c0.19-0.459,1.058-0.875,1.518-1.115c0.298-0.156,0.482-0.093,1.482-0.068V9.998
		c-1,0.004-0.884,0.01-1.173,0.033c-1.713,0.143-2.836,1.06-3.039,2.804c-0.201,1.723-0.491,3.446-0.694,5.168
		c-0.932,7.923-1.919,15.844-2.845,23.768c-0.972,8.309-1.962,16.617-2.921,24.927c-0.949,8.226-1.838,16.46-2.858,24.677
		c-0.845,6.807-1.423,13.606-1.369,20.485c0.129,16.142,0.039,32.285,0.038,48.427c0,1.831-0.262,2.1-2.045,1.682
		c-1.515-0.355-2.976-0.937-4.479-1.349C27.79,157.886,16.475,163.213,12.409,172.819z M21.883,183.422
		c-0.003-6.622,4.718-11.396,11.26-11.388c6.332,0.008,11.177,4.967,11.156,11.416c-0.022,6.462-4.998,11.706-11.111,11.712
		C26.767,195.167,21.885,190.097,21.883,183.422z"/>
</g>
</svg>
