<?xml version="1.0" encoding="utf-8"?>
<!-- Generator: Adobe Illustrator 16.0.0, SVG Export Plug-In . SVG Version: 6.00 Build 0)  -->
<!DOCTYPE svg PUBLIC "-//W3C//DTD SVG 1.1//EN" "http://www.w3.org/Graphics/SVG/1.1/DTD/svg11.dtd">
<svg version="1.1" id="Layer_1" xmlns="http://www.w3.org/2000/svg" xmlns:xlink="http://www.w3.org/1999/xlink" x="0px" y="0px"
	 width="222.355px" height="516.932px" viewBox="0 0 222.355 516.932" enable-background="new 0 0 222.355 516.932"
	 xml:space="preserve">
<g>
	<path fill="#F39463" d="M160.281,16.78c0,0,36.601-2.775,38.269,45.479c1.662,48.254,4.99,72.656,4.99,72.656
		s3.881,34.945,3.881,39.932c0,4.994,0.896,28.5-8.318,49.777c-8.468,19.557-22.739,40.076-38.821,38.414
		c-16.087-1.666-31.618-13.871-37.162-41.045c-5.545-27.178-3.329-38.268,0-92.625c3.328-54.354,1.635-68.229,1.635-68.229
		S119.743,19.831,160.281,16.78z"/>
	<path fill="none" d="M123.397,125.767c8.734,24.027,18.234,35.165,38.852,35.165h0.262c27.996,0,38.611-16.128,38.611-46.069
		l-3.343-60.331c-0.618-16.904-14.653-36.6-35.269-36.6h-0.262c-20.617,0-37.604,16.293-37.604,36.387L123.397,125.767z"/>
	<path fill="#9D99AD" d="M158.89,26.932c0,0-20.81,1.579-23.587,20.995c-2.768,19.398-2.768,37.39-2.768,37.39
		s-4.02,20.362,13.242,25.351c15.736,4.555,14.132,0.731,14.671,6.126l-0.033,1.803c0.054-0.35,0.097-0.679,0.135-0.983
		c0,88.516,0.075,0.605,0.134,0.951l-0.037-1.845c0.543-5.398-1.062-1.658,14.67-6.205C192.58,105.524,188.565,85,188.565,85
		s0-17.665-2.772-37.079c-2.772-19.406-22.21-20.989-22.21-20.989H158.89z"/>
	<path fill="#B5573E" d="M136.588,104.725c2.044,2.529,4.98,4.668,9.189,5.885c15.736,4.551,14.132,0.756,14.671,6.154l-0.033,1.813
		c0.054-0.344,0.097-0.668,0.135-0.969c0,88.51,0.075,0.605,0.134,0.951l-0.037-1.84c0.543-5.398-1.062-1.656,14.67-6.207
		c4.13-1.193,7.033-3.277,9.072-5.758C176.435,103.403,154.76,100.459,136.588,104.725z"/>
	<line fill="none" x1="178.678" y1="105.932" x2="178.678" y2="158.932"/>
	<line fill="none" x1="135.678" y1="112.932" x2="135.678" y2="152.932"/>
	<path fill="#B5573E" d="M136.218,148.706c6.556,7.889,14.628,10.197,26.292,10.197c10.465-1.469,37.006,4.299,38.674-46.592
		c0,0,6.244,47.668,6.244,57.549l-1.479,29.895c-2.436,11.988-11.811,20.711-23.486,20.711c-10.256,0-18.851-6.168-20.797-14.361
		c-1.955,8.193-10.551,14.361-20.802,14.361c-6.286,0-11.267-1.232-14.763-4.494c-3-2.805-4.913-7.094-5.621-13.391l-0.737-21.91
		l3.653-55.914C123.397,123.014,125.284,135.557,136.218,148.706z"/>
	<rect x="149.678" y="49.932" fill="#51515E" width="15" height="37"/>
	
		<line fill="none" stroke="#B5573E" stroke-width="4" stroke-miterlimit="10" x1="169.678" y1="121.932" x2="146.678" y2="121.932"/>
	
		<line fill="none" stroke="#B5573E" stroke-width="4" stroke-miterlimit="10" x1="169.678" y1="131.932" x2="146.678" y2="131.932"/>
	
		<line fill="none" stroke="#B5573E" stroke-width="4" stroke-miterlimit="10" x1="169.678" y1="140.932" x2="146.678" y2="140.932"/>
	<line fill="none" x1="169.678" y1="152.932" x2="146.678" y2="152.932"/>
	<path fill="#F39463" d="M68.432,16.78c0,0-36.605-2.775-38.27,45.479s-4.993,72.656-4.993,72.656s-3.881,34.945-3.881,39.932
		c0,4.994-0.897,28.5,8.322,49.777c8.468,19.557,22.74,40.076,38.822,38.414c16.086-1.666,31.618-13.871,37.162-41.045
		c5.545-27.178,3.329-38.268,0-92.625c-3.333-54.354-1.635-68.229-1.635-68.229S108.969,19.831,68.432,16.78z"/>
	<path fill="none" d="M105.316,125.767c-8.734,24.027-18.235,35.165-38.851,35.165h-0.266c-27.993,0-38.607-16.128-38.607-46.069
		l3.342-60.331c0.618-16.904,14.654-36.6,35.265-36.6h0.266c20.616,0,37.604,16.293,37.604,36.387L105.316,125.767z"/>
	<path fill="#9D99AD" d="M69.823,26.932c0,0,20.806,1.579,23.579,20.995c2.775,19.398,2.775,37.39,2.775,37.39
		s4.02,20.362-13.242,25.351c-15.736,4.555-14.136,0.731-14.67,6.126l0.029,1.803c-0.051-0.35-0.096-0.679-0.13-0.983
		c0,88.516-0.08,0.605-0.135,0.951l0.034-1.845c-0.543-5.398,1.065-1.658-14.67-6.205C36.129,105.524,40.148,85,40.148,85
		s0-17.665,2.773-37.079C45.693,28.515,65.13,26.932,65.13,26.932H69.823z"/>
	<path fill="#B5573E" d="M92.12,104.725c-2.043,2.529-4.98,4.668-9.185,5.885c-15.736,4.551-14.136,0.756-14.67,6.154l0.029,1.813
		c-0.051-0.344-0.096-0.668-0.13-0.969c0,88.51-0.08,0.605-0.135,0.951l0.034-1.84c-0.543-5.398,1.065-1.656-14.67-6.207
		c-4.129-1.193-7.028-3.277-9.072-5.758C52.274,103.403,73.948,100.459,92.12,104.725z"/>
	<line fill="none" x1="42.678" y1="105.932" x2="42.678" y2="158.932"/>
	<line fill="none" x1="87.678" y1="112.932" x2="87.678" y2="152.932"/>
	<path fill="#B5573E" d="M92.491,148.706c-6.552,7.889-14.629,10.197-26.292,10.197c-10.461-1.469-37.006,4.299-38.666-46.592
		c0,0-6.249,47.668-6.249,57.549l1.475,29.895c2.439,11.988,11.811,20.711,23.49,20.711c10.251,0,18.847-6.168,20.797-14.361
		c1.951,8.193,10.546,14.361,20.798,14.361c6.287,0,11.267-1.232,14.768-4.494c3-2.805,4.909-7.094,5.617-13.391l0.741-21.91
		l-3.653-55.914C105.316,123.014,103.424,135.557,92.491,148.706z"/>
	<line fill="none" stroke="#B5573E" stroke-width="4" stroke-miterlimit="10" x1="53.678" y1="121.932" x2="80.678" y2="121.932"/>
	<line fill="none" stroke="#B5573E" stroke-width="4" stroke-miterlimit="10" x1="53.678" y1="131.932" x2="80.678" y2="131.932"/>
	<line fill="none" stroke="#B5573E" stroke-width="4" stroke-miterlimit="10" x1="53.678" y1="140.932" x2="80.678" y2="140.932"/>
	<line fill="none" x1="57.678" y1="152.932" x2="80.678" y2="152.932"/>
	<rect x="57.678" y="49.932" fill="#51515E" width="14" height="37"/>
</g>
<g>
	<path fill="#CC72E1" d="M75.017,500.358c0,0-30.553,2.316-31.945-37.965c-1.387-40.279-4.165-60.65-4.165-60.65
		s-3.24-29.17-3.24-33.332c0-4.17-0.749-23.791,6.943-41.553c7.069-16.324,18.982-33.453,32.407-32.066
		c13.428,1.391,26.393,11.578,31.021,34.262c4.628,22.688,2.779,31.945,0,77.322c-2.778,45.371-1.365,56.953-1.365,56.953
		S108.856,497.811,75.017,500.358z"/>
	<path fill="none" d="M105.806,409.333c-7.291-20.059-15.222-29.401-32.431-29.401h-0.218c-23.372,0-32.232,13.511-32.232,38.505
		l2.79,50.153c0.516,14.111,12.233,30.342,29.442,30.342h0.218c17.209,0,31.39-13.391,31.39-30.164L105.806,409.333z"/>
	<path fill="#9D99AD" d="M76.178,491.932c0,0,17.372-1.343,19.69-17.55c2.31-16.193,2.31-31.226,2.31-31.226
		s3.356-17.003-11.054-21.167c-13.136-3.801-11.796-0.612-12.247-5.116l0.028-1.506c-0.045,0.293-0.08,0.565-0.112,0.819
		c0-73.889-0.063-0.506-0.112-0.795l0.031,1.54c-0.453,4.508,0.887,1.385-12.246,5.18c-14.41,4.166-11.059,21.299-11.059,21.299
		s0,14.771,2.314,30.976c2.314,16.201,18.54,17.546,18.54,17.546H76.178z"/>
	<path fill="#8B3E9E" d="M94.795,426.946c-1.706-2.113-4.157-3.898-7.671-4.914c-13.136-3.797-11.796-0.631-12.247-5.137
		l0.028-1.514c-0.045,0.287-0.08,0.559-0.112,0.809c0-73.883-0.063-0.506-0.112-0.793l0.031,1.535
		c-0.453,4.508,0.887,1.383-12.246,5.182c-3.447,0.996-5.871,2.736-7.573,4.807C61.532,428.049,79.625,430.506,94.795,426.946z"/>
	<line fill="none" x1="59.678" y1="424.932" x2="59.678" y2="381.932"/>
	<line fill="none" x1="95.678" y1="420.932" x2="95.678" y2="385.932"/>
	<path fill="#8B3E9E" d="M95.104,390.231c-5.473-6.584-12.211-8.512-21.947-8.512c-8.737,1.227-30.892-3.588-32.284,38.893
		c0,0-5.213-39.791-5.213-48.039l1.235-24.955c2.033-10.008,9.859-17.289,19.604-17.289c8.561,0,15.736,5.15,17.36,11.988
		c1.633-6.838,8.808-11.988,17.365-11.988c5.248,0,9.405,1.029,12.324,3.752c2.504,2.342,4.101,5.922,4.692,11.178l0.615,18.289
		l-3.05,46.676C105.806,411.676,104.231,401.208,95.104,390.231z"/>
	<rect x="71.678" y="440.932" fill="#51515E" width="11" height="31"/>
	<line fill="none" stroke="#2B2B33" stroke-width="3" stroke-miterlimit="10" x1="66.678" y1="412.432" x2="86.678" y2="412.432"/>
	<line fill="none" stroke="#2B2B33" stroke-width="3" stroke-miterlimit="10" x1="66.678" y1="404.432" x2="86.678" y2="404.432"/>
	<line fill="none" stroke="#2B2B33" stroke-width="3" stroke-miterlimit="10" x1="66.678" y1="396.432" x2="86.678" y2="396.432"/>
	<line fill="none" x1="66.678" y1="385.932" x2="86.678" y2="385.932"/>
	<path fill="#CC72E1" d="M151.689,500.358c0,0,30.557,2.316,31.946-37.965c1.39-40.279,4.168-60.65,4.168-60.65
		s3.239-29.17,3.239-33.332c0-4.17,0.749-23.791-6.946-41.553c-7.07-16.324-18.982-33.453-32.407-32.066
		c-13.429,1.391-26.394,11.578-31.021,34.262c-4.629,22.688-2.778,31.945,0,77.322c2.782,45.371,1.364,56.953,1.364,56.953
		S117.85,497.811,151.689,500.358z"/>
	<path fill="none" d="M120.899,409.333c7.291-20.059,15.223-29.401,32.432-29.401h0.223c23.367,0,32.228,13.511,32.228,38.505
		l-2.79,50.153c-0.516,14.111-12.232,30.342-29.438,30.342h-0.223c-17.209,0-31.39-13.391-31.39-30.164L120.899,409.333z"/>
	<path fill="#9D99AD" d="M150.528,491.932c0,0-17.367-1.343-19.682-17.55c-2.318-16.193-2.318-31.226-2.318-31.226
		s-3.354-17.003,11.055-21.167c13.137-3.801,11.801-0.612,12.246-5.116l-0.023-1.506c0.042,0.293,0.08,0.565,0.109,0.819
		c0-73.889,0.066-0.506,0.111-0.795l-0.027,1.54c0.453,4.508-0.89,1.385,12.246,5.18c14.41,4.166,11.055,21.299,11.055,21.299
		s0,14.771-2.314,30.976c-2.314,16.201-18.539,17.546-18.539,17.546H150.528z"/>
	<path fill="#8B3E9E" d="M131.914,426.946c1.707-2.113,4.158-3.898,7.668-4.914c13.137-3.797,11.801-0.631,12.246-5.137
		l-0.023-1.514c0.042,0.287,0.08,0.559,0.109,0.809c0-73.883,0.066-0.506,0.111-0.793l-0.027,1.535
		c0.453,4.508-0.89,1.383,12.246,5.182c3.447,0.996,5.867,2.736,7.573,4.807C165.177,428.049,147.084,430.506,131.914,426.946z"/>
	<line fill="none" x1="173.678" y1="424.932" x2="173.678" y2="381.932"/>
	<line fill="none" x1="135.678" y1="420.932" x2="135.678" y2="385.932"/>
	<path fill="#8B3E9E" d="M131.606,390.231c5.469-6.584,12.211-8.512,21.947-8.512c8.732,1.227,30.891-3.588,32.277,38.893
		c0,0,5.216-39.791,5.216-48.039l-1.231-24.955c-2.037-10.008-9.859-17.289-19.608-17.289c-8.558,0-15.733,5.15-17.36,11.988
		c-1.629-6.838-8.804-11.988-17.361-11.988c-5.248,0-9.404,1.029-12.327,3.752c-2.505,2.342-4.098,5.922-4.688,11.178l-0.619,18.289
		l3.049,46.676C120.899,411.676,122.479,401.208,131.606,390.231z"/>
	
		<line fill="none" stroke="#2B2B33" stroke-width="3" stroke-miterlimit="10" x1="163.678" y1="414.432" x2="141.678" y2="414.432"/>
	
		<line fill="none" stroke="#2B2B33" stroke-width="3" stroke-miterlimit="10" x1="163.678" y1="406.432" x2="141.678" y2="406.432"/>
	
		<line fill="none" stroke="#2B2B33" stroke-width="3" stroke-miterlimit="10" x1="163.678" y1="398.432" x2="141.678" y2="398.432"/>
	<line fill="none" x1="160.678" y1="385.932" x2="141.678" y2="385.932"/>
	<rect x="148.678" y="440.932" fill="#51515E" width="12" height="31"/>
</g>
</svg>
