<?xml version="1.0" encoding="utf-8"?>
<!-- Generator: Adobe Illustrator 17.0.0, SVG Export Plug-In . SVG Version: 6.00 Build 0)  -->
<!DOCTYPE svg PUBLIC "-//W3C//DTD SVG 1.1//EN" "http://www.w3.org/Graphics/SVG/1.1/DTD/svg11.dtd">
<svg version="1.1" id="Layer_1" xmlns="http://www.w3.org/2000/svg" xmlns:xlink="http://www.w3.org/1999/xlink" x="0px" y="0px"
	 width="159.47px" height="300px" viewBox="0 0 159.47 300" enable-background="new 0 0 159.47 300" xml:space="preserve">
<g>
	<g>
		<g>
			<g>
				<g>
					<circle fill="#CCCCCC" cx="122.443" cy="44.602" r="21.78"/>
				</g>
			</g>
			<g>
				<g>
					<path fill="#808080" d="M145.472,44.413v0.189c0,1.221,0.142,2.448-0.045,3.647l-3.281-0.528
						c0.153-0.981,0.292-1.855,0.299-2.856L142.502,44h1.721l1.444-0.061L145.472,44.413z M145.652,40.906l-3.395,0.537
						c-0.163-1.032-0.411-2.061-0.735-3.057l3.271-1.065C145.172,38.489,145.463,39.695,145.652,40.906z M144.809,51.835
						c-0.374,1.159-0.848,2.306-1.407,3.409l-3.066-1.555c0.477-0.942,0.882-1.921,1.199-2.909L144.809,51.835z M143.377,33.915
						l-3.063,1.565c-0.474-0.927-1.028-1.829-1.647-2.679l2.781-2.024C142.171,31.773,142.821,32.829,143.377,33.915z
						 M141.475,58.389c-0.717,0.989-1.521,1.933-2.391,2.805l-2.435-2.428c0.742-0.745,1.429-1.551,2.042-2.396L141.475,58.389z
						 M139.053,27.977l-2.431,2.433c-0.742-0.742-1.547-1.43-2.393-2.045l2.022-2.782C137.241,26.304,138.183,27.11,139.053,27.977z
						 M136.287,63.592c-0.991,0.723-2.045,1.373-3.137,1.933l-1.568-3.06c0.93-0.477,1.832-1.033,2.677-1.65L136.287,63.592z
						 M133.107,23.657l-1.565,3.062c-0.93-0.476-1.908-0.881-2.903-1.204l1.061-3.271C130.869,22.624,132.016,23.099,133.107,23.657
						z M129.747,66.944c-1.165,0.381-2.371,0.672-3.583,0.865l-0.541-3.396c1.034-0.165,2.062-0.413,3.056-0.737L129.747,66.944z
						 M126.115,21.836l-0.534,3.172c-1.029-0.162-2.086,0.093-3.138,0.093L122.353,22h0.089
						C123.673,22,124.909,21.647,126.115,21.836z M122.488,68h-0.045c-1.214,0-2.433-0.043-3.624-0.227l0.527-3.373
						c1.018,0.158,2.059,0.199,3.096,0.199L122.488,68z M119.225,24.797c-1.034,0.167-2.064,0.416-3.056,0.743l-1.075-3.267
						c1.165-0.383,2.371-0.677,3.583-0.872L119.225,24.797z M116.285,63.701l-1.055,3.274c-1.167-0.376-2.316-0.849-3.41-1.405
						l1.555-3.067C114.31,62.977,115.289,63.38,116.285,63.701z M113.269,26.756c-0.932,0.481-1.832,1.038-2.673,1.656l-2.035-2.772
						c0.986-0.724,2.04-1.376,3.13-1.939L113.269,26.756z M110.691,60.862l-2.015,2.786c-0.996-0.72-1.939-1.524-2.808-2.39
						l2.428-2.435C109.037,59.562,109.843,60.247,110.691,60.862z M108.208,30.467c-0.737,0.741-1.422,1.548-2.037,2.399
						l-2.787-2.013c0.719-0.997,1.523-1.942,2.386-2.811L108.208,30.467z M106.243,56.435l-2.777,2.029
						c-0.727-0.995-1.377-2.049-1.934-3.135l3.06-1.57C105.066,54.686,105.622,55.586,106.243,56.435z M104.532,35.551
						c-0.474,0.937-0.875,1.917-1.194,2.912l-3.274-1.05c0.374-1.166,0.845-2.314,1.399-3.411L104.532,35.551z M103.377,50.858
						l-3.268,1.07c-0.381-1.163-0.673-2.369-0.868-3.582l3.395-0.546C102.802,48.836,103.052,49.865,103.377,50.858z
						 M102.616,41.522c-0.154,1.016,0.031,2.052,0.031,3.08l-3.175,0.066v-0.066c0-1.201-0.172-2.412,0.01-3.599L102.616,41.522z"/>
				</g>
			</g>
		</g>
		<g>
			<g>
				<path fill="#F37264" d="M80.335,38.774c-4.748,0-8.864,3.659-8.864,8.408v233.854c0,4.748,4.382,8.965,9.13,8.965h60.183
					c4.748,0,8.687-4.217,8.687-8.965V52.34c0-4.748-3.939-1.34-8.687-1.34h-20.627L80.335,38.774z"/>
			</g>
		</g>
		<g>
			<g>
				<path fill="#DB675E" d="M119.472,290h21.313c4.748,0,8.687-4.217,8.687-8.965V54.059c0-4.748-3.939-1.059-8.687-1.059h-21.313
					V290z"/>
			</g>
		</g>
		<g>
			<g>
				<rect x="71.472" y="15" fill="#DCDADB" width="52" height="45"/>
			</g>
		</g>
		<g>
			<g>
				<rect x="97.472" y="15" fill="#AFAFAF" width="26" height="45"/>
			</g>
		</g>
		<g>
			<g>
				<rect x="83.472" y="46" width="27" height="3"/>
			</g>
		</g>
		<g>
			<g>
				<rect x="83.472" y="38" width="27" height="2"/>
			</g>
		</g>
		<g>
			<g>
				<rect x="123.472" y="47" width="26" height="13"/>
			</g>
		</g>
	</g>
	<g>
		<g>
			<path fill="#F9DC62" d="M12.472,249.102v10.317v20.634c0,4.748,4.059,9.947,8.807,9.947h15.476c4.748,0,9.718-5.199,9.718-9.947
				v-20.634v-10.317V174h-34V249.102z"/>
		</g>
		<g>
			<path fill="#DBC153" d="M30.472,271.456V290h6.282c4.748,0,9.718-5.199,9.718-9.947v-20.634v-10.317V187h-16v74.138V271.456z"/>
		</g>
		<g>
			<path fill="#FFFFFF" d="M12.472,159.687v15.476v15.476c0,4.748,4.059,10.362,8.807,10.362h15.476
				c4.748,0,9.718-5.613,9.718-10.362v-15.476v-15.476V10h-34V159.687z"/>
		</g>
		<g>
			<path fill="#CCCCCC" d="M30.472,189.925V201h6.282c4.748,0,9.718-5.613,9.718-10.362v-15.476v-15.476V10h-16v163.072V189.925z"/>
		</g>
		<g>
			<defs>
				<rect id="SVGID_1_" x="12.472" y="173" width="34" height="38"/>
			</defs>
			<clipPath id="SVGID_2_">
				<use xlink:href="#SVGID_1_"  overflow="visible"/>
			</clipPath>
			<g clip-path="url(#SVGID_2_)">
				<path fill="#808080" d="M49.538,190c0,5-6.505,11-12.211,11H20.581c-5.7,0-10.583-7-10.583-13h1.861c0,6,4.23,11,8.722,11
					h16.746c4.739,0,10.35-5,10.35-9H49.538z"/>
			</g>
		</g>
	</g>
</g>
</svg>
