<?xml version="1.0" encoding="utf-8"?>
<!-- Generator: Adobe Illustrator 16.0.0, SVG Export Plug-In . SVG Version: 6.00 Build 0)  -->
<!DOCTYPE svg PUBLIC "-//W3C//DTD SVG 1.1//EN" "http://www.w3.org/Graphics/SVG/1.1/DTD/svg11.dtd">
<svg version="1.1" id="Layer_1" xmlns="http://www.w3.org/2000/svg" xmlns:xlink="http://www.w3.org/1999/xlink" x="0px" y="0px"
	 width="150px" height="122.728px" viewBox="0 0 150 122.728" enable-background="new 0 0 150 122.728" xml:space="preserve">
<g>
	<path fill="#FFFFFF" d="M19.805,43.138L91.5,17.079c0,0,22.695,3.354,35.33,13.03c12.639,9.676,10.137,17.982,10.137,27.217
		c0,5.868-0.131,13.918-0.131,41.542c-1.029,4.642-14.953,2.553-46.281,2.553C77.834,101.421,19.805,43.138,19.805,43.138z"/>
	<path fill="none" stroke="#F37264" stroke-width="3.7509" stroke-linecap="round" stroke-miterlimit="10" d="M40.716,38.753
		c0,0,3.075,1.547,5.138,0"/>
	<path fill="none" stroke="#F37264" stroke-width="3.7509" stroke-linecap="round" stroke-miterlimit="10" d="M57.803,32.134
		c0,0,0.686,2.407-2.064,4.47"/>
	<path fill="none" stroke="#F37264" stroke-width="3.7509" stroke-linecap="round" stroke-miterlimit="10" d="M76.198,26.288
		c0,0,1.173,0.859-1.203,3.782"/>
	<path fill="none" stroke="#F37264" stroke-width="3.7509" stroke-linecap="round" stroke-miterlimit="10" d="M65.024,38.753
		c0,0,2.491-2.149,4.985-1.461"/>
	<path fill="none" stroke="#F37264" stroke-width="3.7509" stroke-linecap="round" stroke-miterlimit="10" d="M95.971,22.162
		c0,0-3.094-1.451-3.783-3.268"/>
	<path fill="none" stroke="#F37264" stroke-width="3.7509" stroke-linecap="round" stroke-miterlimit="10" d="M88.061,28.179
		c0,0,2.064-1.719,4.986,0"/>
	<path fill="none" stroke="#F37264" stroke-width="3.7509" stroke-linecap="round" stroke-miterlimit="10" d="M81.357,34.884
		c0,0,1.547,2.531,3.438,3.069"/>
	<path fill="none" stroke="#F37264" stroke-width="3.7509" stroke-linecap="round" stroke-miterlimit="10" d="M98.895,32.993
		c0,0,0,2.407-1.721,3.61"/>
	<path fill="none" stroke="#F37264" stroke-width="3.7509" stroke-linecap="round" stroke-miterlimit="10" d="M105.082,27.415
		c0,0,2.58-1.986,4.299-1.127"/>
	<path fill="none" stroke="#F37264" stroke-width="3.7509" stroke-linecap="round" stroke-miterlimit="10" d="M109.381,34.799
		c0,0,0.514,2.149,2.75,3.954"/>
	<g>
		<defs>
			<path id="SVGID_1_" d="M134.697,46.918c0-2.088-1.049-2.1-3.137-2.1H19.805l-0.344,57h112.099c2.088,0,3.137-2.09,3.137-4.181
				V46.918z"/>
		</defs>
		<use xlink:href="#SVGID_1_"  overflow="visible" fill="#F8DB62"/>
		<clipPath id="SVGID_2_">
			<use xlink:href="#SVGID_1_"  overflow="visible"/>
		</clipPath>
		<path clip-path="url(#SVGID_2_)" fill="#F39463" d="M134.697,46.918c0-2.088-1.049-3.1-3.137-3.1H19.805l-0.344,58h112.099
			c2.088,0,3.137-2.09,3.137-4.181V46.918z"/>
		
			<path clip-path="url(#SVGID_2_)" fill="none" stroke="#FEEBCB" stroke-width="8.1012" stroke-linecap="round" stroke-miterlimit="10" d="
			M20.209,59.126c0,0,4.497-1.547,8.107-1.547c3.611,0,5.674,2.836,9.025,2.836c3.354,0,6.705-2.836,9.543-2.836
			c2.836,0,4.973,2.836,7.513,2.836c2.545,0,4.866-2.836,8.218-2.836s4.223,2.836,8.172,2.836s5.754-2.836,9.107-2.836
			c3.352,0,5.158,2.836,9.285,2.836c4.125,0,5.416-2.836,8.768-2.836c3.354,0,5.932,2.836,9.027,2.836
			c3.094,0,4.127-2.836,7.479-2.836s5.156,2.836,10.316,2.836c5.156,0,7.152-2.836,9.764-2.836"/>
		<path clip-path="url(#SVGID_2_)" fill="#F39463" stroke="#F37264" stroke-width="5.7702" stroke-miterlimit="10" d="
			M20.209,73.053c0,0,4.497-1.548,8.107-1.548c3.611,0,5.674,2.837,9.025,2.837c3.354,0,6.705-2.837,9.543-2.837
			c2.836,0,4.973,2.837,7.513,2.837c2.545,0,4.866-2.837,8.218-2.837s4.223,2.837,8.172,2.837s5.754-2.837,9.107-2.837
			c3.352,0,5.158,2.837,9.285,2.837c4.125,0,5.416-2.837,8.768-2.837c3.354,0,5.932,2.837,9.027,2.837
			c3.094,0,4.127-2.837,7.479-2.837s5.156,2.837,10.316,2.837c5.156,0,7.152-2.837,9.764-2.837"/>
		
			<path clip-path="url(#SVGID_2_)" fill="none" stroke="#FEEBCB" stroke-width="8.1012" stroke-linecap="round" stroke-miterlimit="10" d="
			M20.209,88.011c0,0,4.497-1.549,8.107-1.549c3.611,0,5.674,2.837,9.025,2.837c3.354,0,6.705-2.837,9.543-2.837
			c2.836,0,4.973,2.837,7.513,2.837c2.545,0,4.866-2.837,8.218-2.837s4.223,2.837,8.172,2.837s5.754-2.837,9.107-2.837
			c3.352,0,5.158,2.837,9.285,2.837c4.125,0,5.416-2.837,8.768-2.837c3.354,0,5.932,2.837,9.027,2.837
			c3.094,0,4.127-2.837,7.479-2.837s5.156,2.837,10.316,2.837c5.156,0,7.152-2.837,9.764-2.837"/>
	</g>
</g>
</svg>
