<?xml version="1.0" encoding="utf-8"?>
<!-- Generator: Adobe Illustrator 17.0.0, SVG Export Plug-In . SVG Version: 6.00 Build 0)  -->
<!DOCTYPE svg PUBLIC "-//W3C//DTD SVG 1.1//EN" "http://www.w3.org/Graphics/SVG/1.1/DTD/svg11.dtd">
<svg version="1.1" id="Layer_1" xmlns="http://www.w3.org/2000/svg" xmlns:xlink="http://www.w3.org/1999/xlink" x="0px" y="0px"
	 width="138.01px" height="175px" viewBox="0 0 138.01 175" enable-background="new 0 0 138.01 175" xml:space="preserve">
<g>
	<rect x="36.955" y="10" fill="#43E8CE" width="67" height="36"/>
	<rect x="36.955" y="129" fill="#43E8CE" width="67" height="36"/>
	<circle fill="#43E8CE" cx="69.005" cy="88.058" r="59.003"/>
	<circle fill="#FFFFFF" cx="69.004" cy="88.058" r="45.37"/>
	<path fill="#F37264" d="M69.142,51.967c-0.006-0.237-0.203-0.429-0.443-0.424c-0.236,0.005-0.429,0.204-0.425,0.442l0.604,31.422
		L45.716,61.117c-0.86-0.827-2.231-0.801-3.06,0.06c-0.829,0.863-0.805,2.234,0.059,3.06l24.519,23.596l0.396,20.571
		c0.023,1.194,1.01,2.145,2.204,2.121c1.197-0.023,2.144-1.012,2.122-2.206l-0.414-21.465c-0.002-0.143-0.019-0.288-0.049-0.426
		c-0.015-0.06-0.039-0.113-0.056-0.175c-0.023-0.075-0.042-0.151-0.076-0.228c-0.028-0.063-0.065-0.12-0.099-0.182
		c-0.034-0.062-0.067-0.125-0.108-0.186c-0.06-0.089-0.134-0.168-0.208-0.246c-0.024-0.025-0.039-0.054-0.064-0.077l-1.12-1.077"/>
	<path fill="#FFDF79" d="M74.076,87.962c-0.054-2.805-2.37-5.029-5.173-4.974c-2.797,0.054-5.026,2.363-4.972,5.168
		c0.057,2.798,2.372,5.029,5.169,4.973C71.903,93.077,74.13,90.758,74.076,87.962z"/>
</g>
</svg>
