<?xml version="1.0" encoding="utf-8"?>
<!-- Generator: Adobe Illustrator 17.0.0, SVG Export Plug-In . SVG Version: 6.00 Build 0)  -->
<!DOCTYPE svg PUBLIC "-//W3C//DTD SVG 1.1//EN" "http://www.w3.org/Graphics/SVG/1.1/DTD/svg11.dtd">
<svg version="1.1" xmlns="http://www.w3.org/2000/svg" xmlns:xlink="http://www.w3.org/1999/xlink" x="0px" y="0px"
	 width="232.04px" height="144.78px" viewBox="0 0 232.04 144.78" enable-background="new 0 0 232.04 144.78" xml:space="preserve">
<g id="Layer_2">
</g>
<g id="Layer_3">
	<g>
		<g>
			<path fill="#29ABE2" d="M138.979,92.638c0-22.602,18.322-40.926,40.925-40.926c22.602,0,40.925,18.324,40.925,40.926
				s-18.323,40.927-40.925,40.927C157.301,133.565,138.979,115.24,138.979,92.638z M179.904,129.696
				c20.466,0,37.057-16.59,37.057-37.057c0-20.465-16.591-37.055-37.057-37.055c-20.466,0-37.056,16.59-37.056,37.055
				C142.848,113.106,159.438,129.696,179.904,129.696z"/>
			<path fill="#1A1A1A" d="M137.764,92.638c0-23.272,18.868-42.137,42.139-42.137c23.273,0,42.139,18.865,42.139,42.137
				c0,23.273-18.866,42.14-42.139,42.14C156.632,134.778,137.764,115.912,137.764,92.638z M179.904,131.587
				c21.511,0,38.948-17.438,38.948-38.949s-17.437-38.949-38.948-38.949c-21.511,0-38.948,17.438-38.948,38.949
				S158.393,131.587,179.904,131.587z"/>
			<circle fill="#4D4D4D" cx="179.783" cy="92.638" r="7.733"/>
			<circle opacity="0.2" fill="#1A1A1A" cx="180.753" cy="93.607" r="4.16"/>
		</g>
		<g>
			<path fill="#29ABE2" d="M11.21,92.638c0-22.602,18.323-40.926,40.926-40.926c22.605,0,40.925,18.324,40.925,40.926
				s-18.32,40.927-40.925,40.927C29.532,133.565,11.21,115.24,11.21,92.638z M52.135,129.696c20.466,0,37.057-16.59,37.057-37.057
				c0-20.465-16.591-37.055-37.057-37.055S15.08,72.173,15.08,92.638C15.08,113.106,31.67,129.696,52.135,129.696z"/>
			<path fill="#1A1A1A" d="M9.998,92.638c0-23.272,18.865-42.137,42.138-42.137c23.273,0,42.139,18.865,42.139,42.137
				c0,23.273-18.865,42.14-42.139,42.14C28.863,134.778,9.998,115.912,9.998,92.638z M52.135,131.587
				c21.512,0,38.949-17.438,38.949-38.949S73.647,53.689,52.135,53.689c-21.511,0-38.949,17.438-38.949,38.949
				S30.625,131.587,52.135,131.587z"/>
			<circle fill="#4D4D4D" cx="52.014" cy="92.638" r="7.733"/>
			<circle opacity="0.2" fill="#1A1A1A" cx="52.984" cy="93.607" r="4.16"/>
		</g>
		<path fill="none" stroke="#FCEE21" stroke-width="2.6049" stroke-miterlimit="10" d="M148.24,18.589"/>
		<circle fill="#4D4D4D" cx="124.597" cy="100.535" r="7.734"/>
		<circle fill="#B0B0B2" cx="124.598" cy="100.535" r="4.161"/>
		<g>
			<g>
				
					<rect x="96.612" y="34.247" transform="matrix(-0.7212 0.6928 -0.6928 -0.7212 218.9526 56.6915)" fill="#53B0E9" width="2.91" height="76.324"/>
			</g>
			<g>
				<g>
					<rect x="72.894" y="32.6" fill="#53B0E9" width="69" height="3"/>
				</g>
				<g>
					<path fill="#53B0E9" d="M123.495,98.081l18.294-67.828l39.87,63.832l-57.262,7.333L123.495,98.081z M142.71,38.013
						l-16.231,60.175l50.613-6.398L142.71,38.013z"/>
				</g>
				<g>
					
						<rect x="136.915" y="24.491" transform="matrix(-0.3597 0.9331 -0.9331 -0.3597 222.0872 -99.6773)" fill="#53B0E9" width="16.657" height="3.741"/>
				</g>
				<g>
					<path fill="#53B0E9" d="M52.542,93.352c0,0,0.433-0.627,1.192-1.726c0.756-1.099,1.831-2.67,3.109-4.565
						c1.277-1.898,2.763-4.114,4.307-6.537c0.383-0.607,0.775-1.225,1.161-1.865c0.386-0.639,0.773-1.286,1.146-2.004
						c0.047-0.087,0.094-0.182,0.141-0.282l0.069-0.147l0.017-0.035l0.009-0.018l0.018-0.041l0.027-0.064l0.109-0.259l0.112-0.292
						c0.079-0.198,0.145-0.379,0.211-0.56l0.197-0.547c0.258-0.726,0.505-1.453,0.75-2.177c0.97-2.902,1.896-5.806,2.759-8.532
						c0.853-2.724,1.649-5.27,2.332-7.452c1.345-4.368,2.243-7.278,2.243-7.278l-3.601-1.009c0,0-0.759,2.944-1.898,7.358
						c-0.578,2.207-1.254,4.781-1.978,7.539c-0.733,2.752-1.521,5.691-2.346,8.602c-0.208,0.726-0.418,1.453-0.634,2.166
						l-0.164,0.53l-0.163,0.509l-0.079,0.24l-0.099,0.265l-0.025,0.067c-0.003,0.01,0.014-0.032,0.003-0.01l-0.006,0.015
						l-0.01,0.028l-0.047,0.109c-0.029,0.07-0.06,0.146-0.1,0.227c-0.289,0.622-0.637,1.273-0.981,1.905
						c-0.346,0.632-0.7,1.259-1.054,1.875c-1.413,2.455-2.792,4.732-3.978,6.678c-1.186,1.943-2.189,3.558-2.89,4.686
						c-0.706,1.129-1.107,1.774-1.107,1.774L52.542,93.352z"/>
				</g>
				<g>
					<polygon fill="#53B0E9" points="72.453,48.957 77.394,30.96 79.905,16.66 76.221,16.015 73.742,30.138 68.847,47.97 					"/>
				</g>
			</g>
		</g>
		<path fill="#333333" d="M179.67,90.768l-55.342-2.329c-0.557-0.024-0.989-0.491-0.965-1.042c0.023-0.552,0.496-0.98,1.05-0.958
			l55.342,2.332c0.558,0.022,0.989,0.489,0.966,1.04c-0.024,0.537-0.47,0.958-1.008,0.958
			C179.7,90.769,179.685,90.769,179.67,90.768z M126.56,113.253c0.097,0,0.195-0.014,0.292-0.044l53.154-16.413
			c0.533-0.16,0.836-0.718,0.674-1.247c-0.162-0.529-0.724-0.827-1.258-0.669l-53.154,16.414c-0.534,0.16-0.835,0.719-0.674,1.247
			C125.726,112.974,126.126,113.253,126.56,113.253z"/>
		
			<rect x="120.44" y="77.712" transform="matrix(0.9662 -0.2578 0.2578 0.9662 -18.9289 34.3566)" fill="#999999" width="2.268" height="23.326"/>
		<path opacity="0.2" fill="#1A1A1A" d="M126.677,110.062c0.752-0.16,1.474-0.404,2.155-0.719l0.821,3.078
			c-0.695,0.286-1.418,0.516-2.165,0.684L126.677,110.062z"/>
		<path fill="#C674D8" d="M110.996,99.935c0-7.461,6.047-13.505,13.506-13.505c7.458,0,13.506,6.044,13.506,13.505
			c0,7.458-6.048,13.506-13.506,13.506C117.043,113.441,110.996,107.393,110.996,99.935z M124.502,110.294
			c5.721,0,10.359-4.638,10.359-10.359c0-5.723-4.637-10.363-10.359-10.363c-5.721,0-10.36,4.64-10.36,10.363
			C114.142,105.655,118.781,110.294,124.502,110.294z"/>
		<path opacity="0.1" fill="#1A1A1A" d="M146.495,17.918l3.491,1.345l-1.749,4.537c-0.905,0.137-1.898,0.216-3.016,0.216
			c-0.344,0-0.699-0.018-1.059-0.041L146.495,17.918z"/>
		
			<rect x="126.018" y="98.631" transform="matrix(-0.9661 0.258 -0.258 -0.9661 278.4521 184.0477)" fill="#999999" width="2.266" height="23.324"/>
		<path fill="#F39463" d="M164.232,13.235c0,0-0.763-2.942-3.544-3.211c-2.78-0.266-9.09,1.926-14.169,2.033
			c-5.079,0.107-13.635-1.551-17.543-0.508c-3.195,0.852-3.684,3.769-3.684,3.769s12.03,6.845,19.784,6.845
			C155.503,22.163,155.677,15.586,164.232,13.235z"/>
		<rect x="53.894" y="18.6" fill="#1A1A1A" width="27" height="2"/>
		<circle fill="#B0B0B2" cx="52.015" cy="92.638" r="4.161"/>
		<circle fill="#B0B0B2" cx="179.782" cy="92.638" r="4.16"/>
		<path opacity="0.2" fill="#1A1A1A" d="M126.239,13.322c5.095-0.67,14.595,0.773,20.385,0.676c6.05-0.107,13.53-2.203,17.025-2.044
			c0.427,0.68,0.582,1.282,0.582,1.282c-8.555,2.351-8.729,8.928-19.157,8.928c-7.754,0-19.784-6.845-19.784-6.845
			S125.46,14.32,126.239,13.322z"/>
		<rect x="112.894" y="75.6" fill="#333333" width="10" height="4"/>
		<rect x="122.894" y="118.6" fill="#333333" width="13" height="4"/>
		<line fill="none" x1="123.103" y1="72.329" x2="122.919" y2="72.694"/>
	</g>
</g>
<g id="Layer_1">
</g>
<g id="Layer_4">
</g>
</svg>
