<?xml version="1.0" encoding="utf-8"?>
<!-- Generator: Adobe Illustrator 16.0.0, SVG Export Plug-In . SVG Version: 6.00 Build 0)  -->
<!DOCTYPE svg PUBLIC "-//W3C//DTD SVG 1.1//EN" "http://www.w3.org/Graphics/SVG/1.1/DTD/svg11.dtd">
<svg version="1.1" id="Layer_1" xmlns="http://www.w3.org/2000/svg" xmlns:xlink="http://www.w3.org/1999/xlink" x="0px" y="0px"
	 width="204.545px" height="272.728px" viewBox="0 0 204.545 272.728" enable-background="new 0 0 204.545 272.728"
	 xml:space="preserve">
<g>
	<g>
		<path fill="#CC8436" d="M101.741,18.542c-7.162-0.029-14.311-0.608-21.422,0.365c0,0,3.257,10.512-2.424,31.431L58.94,67.18
			c-2.318,1.3-4.397,2.157-6.199,3.854c-8.93,8.425-11.389-0.977-30.681-8.017c-2.683,11.695-1.963,24.253,2.71,36.143l18.78,47.787
			c5.372,13.667,16.464,24.316,30.352,29.094l10.992,4.136c5.458,1.883,11.126,3.611,16.837,3.611h0.01h0.009
			c5.711,0,11.379-1.74,16.838-3.623l10.992-3.973c13.885-4.776,24.979-15.534,30.349-29.2l18.781-47.872
			c15.455-44.066-5.395-65.899-28.343-74.514C132.639,17.953,120.639,18.468,101.741,18.542z"/>
		<path fill="#E2E2E2" d="M84.242,169.573v47.126c-9,1.585-14.997,9.338-14.997,18.684c0,10.495,8.833,19,19.326,19
			c5.019,0,9.73-1.945,13.138-5.122c0.003,0.003,0.018,0.007,0.018,0.007s0.016-0.004,0.017-0.007
			c3.407,3.177,8.098,5.122,13.116,5.122c10.494,0,19.375-8.505,19.375-19c0-9.346-7.992-17.099-14.992-18.684v-47.126
			c0,0-5.234-2.628-17.293-2.628C90.647,166.945,84.242,169.573,84.242,169.573z"/>
		<path fill="#FFFFFF" d="M96.726,35.25c0-8.635-6.616-15.311-14.906-15.681c-0.021-0.04-0.033,0.219-0.055,0.219h-1.445
			c-0.291,6-3.975,11.233-9.314,14.071c0.013,0.322,0.037,0.313,0.037,0.638c0,12.053-9.738,21.665-21.775,21.733
			c-4.014,5.107-11.06,8.316-18.056,8.316c-2.877,0-3.969-0.652-8.969-1.664v1.594c5,9.458,11.81,16.458,22.021,16.458
			c6.636,0,12.982-2.965,16.999-7.627c2.96,1.728,6.604,2.724,10.277,2.724c11.06,0,20.13-8.967,20.13-20.027
			c0-2.731-0.518-5.329-1.502-7.698C94.111,45.389,96.726,40.635,96.726,35.25z"/>
	</g>
	<path fill="none" stroke="#C9C9C9" stroke-width="6" stroke-linecap="round" stroke-linejoin="round" stroke-miterlimit="10" d="
		M112.242,175.788v45.467c0,0,15.623,0.479,15.623,16.832"/>
</g>
</svg>
