<?xml version="1.0" encoding="utf-8"?>
<!-- Generator: Adobe Illustrator 16.0.0, SVG Export Plug-In . SVG Version: 6.00 Build 0)  -->
<!DOCTYPE svg PUBLIC "-//W3C//DTD SVG 1.1//EN" "http://www.w3.org/Graphics/SVG/1.1/DTD/svg11.dtd">
<svg version="1.1" id="Layer_1" xmlns="http://www.w3.org/2000/svg" xmlns:xlink="http://www.w3.org/1999/xlink" x="0px" y="0px"
	 width="250px" height="276px" viewBox="0 0 250 276" enable-background="new 0 0 250 276" xml:space="preserve">
<g>
	<path fill="#EFEFEF" d="M208.411,34.545C182.287,3.378,142.415,27.67,125,27.67c-17.415,0-57.289-24.292-83.412,6.875
		C15.465,65.707,16.841,109.247,30.591,135.37c13.748,26.125,15.123,65.079,15.58,81.579c0.459,16.495,10.492,42.621,26.787,42.621
		c16.296,0,30.5-74.701,52.042-74.701c21.542,0,35.747,74.701,52.042,74.701c16.293,0,26.328-26.126,26.785-42.621
		c0.459-16.5,1.832-55.454,15.582-81.579C233.159,109.247,234.535,65.707,208.411,34.545z"/>
	<path fill="#FFFFFF" d="M203.463,31.808c-25.279-30.159-63.862-6.654-80.715-6.654c-16.853,0-55.437-23.505-80.717,6.654
		c-25.277,30.156-23.946,72.286-10.642,97.566c13.304,25.28,14.635,62.977,15.078,78.942c0.442,15.965,10.153,41.244,25.922,41.244
		c15.768,0,29.514-72.289,50.358-72.289c20.845,0,34.593,72.289,50.361,72.289s25.478-25.279,25.92-41.244
		c0.443-15.965,1.773-53.662,15.078-78.942C227.414,104.094,228.744,61.964,203.463,31.808z"/>
	<path fill="#EFEFEF" d="M36.262,87.67c0,0-0.138-0.44-0.345-1.249c-0.195-0.81-0.445-1.997-0.647-3.505
		c-0.411-3.017-0.637-7.326-0.024-12.457c0.173-1.272,0.354-2.616,0.626-3.989c0.287-1.366,0.615-2.782,1.004-4.24
		c0.42-1.439,0.907-2.914,1.459-4.423c0.255-0.764,0.583-1.506,0.917-2.261c0.322-0.758,0.679-1.518,1.049-2.284
		c0.711-1.55,1.585-3.064,2.541-4.586c0.945-1.524,1.972-3.071,3.178-4.526c1.182-1.473,2.469-2.931,3.867-4.338
		c1.424-1.378,2.958-2.713,4.612-3.939c0.83-0.61,1.695-1.199,2.564-1.767l1.282-0.786l0.487-0.302
		c0.182-0.111,0.275-0.176,0.558-0.322l1.471-0.769c0.492-0.252,0.999-0.517,1.418-0.699c0.888-0.383,1.775-0.792,2.66-1.121
		c3.559-1.351,7.105-2.218,10.52-2.608c1.708-0.194,3.359-0.374,4.99-0.36c1.623-0.001,3.187-0.01,4.712,0.163
		c1.519,0.148,2.978,0.296,4.382,0.591c1.4,0.259,2.738,0.545,4.01,0.93c0.635,0.186,1.254,0.353,1.855,0.544
		c0.598,0.217,1.182,0.429,1.751,0.635c1.131,0.4,2.19,0.883,3.174,1.34c1.968,0.917,3.63,1.917,4.97,2.796
		c1.338,0.917,2.354,1.712,3.032,2.321c0.34,0.292,0.596,0.543,0.767,0.713c0.174,0.17,0.264,0.258,0.264,0.258l-0.201,1.482
		c0,0-0.374-0.029-1.074-0.084c-0.707-0.047-1.749-0.105-3.076-0.143c-1.327-0.038-2.94-0.055-4.789-0.017
		c-1.848,0.052-3.93,0.092-6.195,0.249c-2.264,0.152-4.709,0.395-7.272,0.776c-2.562,0.379-5.251,0.845-7.978,1.533
		c-2.727,0.681-5.495,1.556-8.199,2.681c-1.355,0.561-2.685,1.198-3.973,1.837c-0.644,0.341-1.372,0.746-1.966,1.083
		c-0.62,0.395-1.253,0.77-1.864,1.181c-2.441,1.652-4.691,3.604-6.721,5.715c-2.037,2.107-3.833,4.389-5.472,6.672
		c-3.272,4.581-5.746,9.285-7.614,13.418c-1.901,4.125-3.219,7.692-4.051,10.213c-0.836,2.523-1.202,3.979-1.202,3.979L36.262,87.67
		z"/>
</g>
</svg>
