<?xml version="1.0" encoding="utf-8"?>
<!-- Generator: Adobe Illustrator 16.0.0, SVG Export Plug-In . SVG Version: 6.00 Build 0)  -->
<!DOCTYPE svg PUBLIC "-//W3C//DTD SVG 1.1//EN" "http://www.w3.org/Graphics/SVG/1.1/DTD/svg11.dtd">
<svg version="1.1" id="Layer_1" xmlns="http://www.w3.org/2000/svg" xmlns:xlink="http://www.w3.org/1999/xlink" x="0px" y="0px"
	 width="233px" height="599px" viewBox="44 0 233 599" enable-background="new 44 0 233 599" xml:space="preserve">
<g>
	<path fill="#F0F1F1" d="M1406,1395c0,4.418-3.582,8-8,8h-216c-4.418,0-8-3.582-8-8v-129c0-4.418,3.582-8,8-8h216
		c4.418,0,8,3.582,8,8V1395z"/>
	<polygon fill="none" stroke="#E66945" stroke-width="8" stroke-miterlimit="10" points="1204.348,1347 1232.987,1300.68 
		1261.626,1347 	"/>
	<polygon fill="none" stroke="#E66945" stroke-width="8" stroke-miterlimit="10" points="1261.626,1316 1232.987,1362.327 
		1204.348,1316 	"/>
	<path opacity="0.8" fill="#999999" enable-background="new    " d="M1373.59,1316.464c0,2.321-1.886,4.208-4.207,4.208h-46.833
		c-2.319,0-4.2-1.887-4.2-4.208c0-2.32,1.881-4.203,4.2-4.203h46.833C1371.704,1312.261,1373.59,1314.144,1373.59,1316.464"/>
	<path opacity="0.8" fill="#999999" enable-background="new    " d="M1373.59,1335.788c0,2.322-1.886,4.207-4.207,4.207h-36.396
		c-2.321,0-4.201-1.885-4.201-4.207c0-2.321,1.88-4.202,4.201-4.202h36.396C1371.704,1331.586,1373.59,1333.467,1373.59,1335.788"/>
	<path opacity="0.8" fill="#999999" enable-background="new    " d="M1373.59,1355.112c0,2.32-1.886,4.208-4.207,4.208h-57.561
		c-2.321,0-4.2-1.888-4.2-4.208c0-2.321,1.879-4.203,4.2-4.203h57.561C1371.704,1350.909,1373.59,1352.791,1373.59,1355.112"/>
</g>
<g>
	<polygon fill="#F9A95D" points="419.286,4707 418.478,4773.153 377.168,4786 232,4786 232,4494 465,4494 465,4707 	"/>
	<rect x="232" y="4807" fill="#F9A95E" width="240" height="97"/>
	<rect x="231" y="4807" fill="#F9A95D" width="241" height="97"/>
	<rect x="407" y="4827" fill="#FFFEFF" width="41" height="59"/>
	<rect x="430" y="4531" fill="#91C079" width="13" height="39"/>
	<rect x="409" y="4531" fill="#203647" width="21" height="39"/>
	<rect x="405" y="4531" fill="#30A49D" width="4" height="39"/>
	<rect x="395" y="4531" fill="#8AC475" width="10" height="39"/>
	<rect x="402" y="4523" fill="#EDFFFF" width="33" height="8"/>
	<rect x="402" y="4570" fill="#EDFFFF" width="33" height="8"/>
	<rect x="402" y="4521" fill="#09A893" width="33" height="2"/>
	<path fill="#EDFFFF" d="M429.896,4515c-1.222-6-5.864-9.157-11.419-9.157c-5.558,0-10.199,3.157-11.422,9.157H402v6h5.124h22.703
		H435v-6H429.896z"/>
	<rect x="396" y="4578" fill="#30A49D" width="43" height="5"/>
	<path fill="#EF4D3E" d="M435,4583v-1.801c0,2.242-0.977,4.801-4.278,4.801H407.29c-3.301,0-5.29-2.56-5.29-4.801V4583H435z"/>
	<rect x="293" y="4531" fill="#91C079" width="11" height="39"/>
	<rect x="270" y="4531" fill="#203647" width="23" height="39"/>
	<rect x="267" y="4531" fill="#30A49D" width="3" height="39"/>
	<rect x="253" y="4531" fill="#8AC475" width="14" height="39"/>
	<rect x="260" y="4523" fill="#EDFFFF" width="37" height="8"/>
	<rect x="260" y="4570" fill="#EDFFFF" width="37" height="8"/>
	<rect x="260" y="4521" fill="#09A893" width="37" height="2"/>
	<path fill="#EDFFFF" d="M291.393,4515c-1.222-6-5.863-9.157-11.42-9.157c-5.556,0-10.199,3.157-11.421,9.157H260v6h8.622h22.7H297
		v-6H291.393z"/>
	<rect x="256" y="4578" fill="#30A49D" width="45" height="5"/>
	<path fill="#EF4D3E" d="M297,4583v-1.801c0,2.242-1.48,4.801-4.781,4.801h-23.433c-3.302,0-7.786-2.56-7.786-4.801V4583H297z"/>
	<rect x="430" y="4637" fill="#91C079" width="13" height="40"/>
	<rect x="409" y="4637" fill="#203647" width="21" height="40"/>
	<rect x="405" y="4637" fill="#30A49D" width="4" height="40"/>
	<rect x="395" y="4637" fill="#8AC475" width="10" height="40"/>
	<rect x="402" y="4631" fill="#EDFFFF" width="33" height="6"/>
	<rect x="402" y="4677" fill="#EDFFFF" width="33" height="8"/>
	<rect x="402" y="4627" fill="#09A893" width="33" height="4"/>
	<path fill="#EDFFFF" d="M429.896,4620c-1.222-5-5.864-9.159-11.419-9.159c-5.558,0-10.199,4.159-11.422,9.159H402v7h5.124h22.703
		H435v-7H429.896z"/>
	<rect x="396" y="4685" fill="#30A49D" width="43" height="4"/>
	<path fill="#EF4D3E" d="M435,4689v-1.187c0,2.242-0.977,5.187-4.278,5.187H407.29c-3.301,0-5.29-2.942-5.29-5.187V4689H435z"/>
	<rect x="286" y="4718" fill="#91C079" width="13" height="39"/>
	<rect x="263" y="4718" fill="#203647" width="23" height="39"/>
	<rect x="260" y="4718" fill="#30A49D" width="3" height="39"/>
	<rect x="250" y="4718" fill="#8AC475" width="10" height="39"/>
	<rect x="253" y="4709" fill="#EDFFFF" width="40" height="9"/>
	<rect x="253" y="4757" fill="#EDFFFF" width="40" height="9"/>
	<rect x="253" y="4707" fill="#09A893" width="40" height="2"/>
	<path fill="#EDFFFF" d="M285.723,4700c-1.221-4-5.863-9.158-11.421-9.158c-5.555,0-10.198,5.158-11.42,9.158H253v7h9.952h22.7H293
		v-7H285.723z"/>
	<path fill="#FFFEFF" d="M440.632,4819c-1.33-7-6.387-9.158-12.435-9.158c-6.053,0-11.105,2.158-12.438,9.158H407v7h8.837h24.719
		H448v-7H440.632z"/>
	<rect x="252" y="4766" fill="#30A49D" width="44" height="2"/>
	<path fill="#EF4D3E" d="M293,4768v0.185c0,2.242-3.148,2.815-6.452,2.815h-23.431c-3.303,0-8.117-0.574-8.117-2.815V4768H293z"/>
	<rect x="232" y="4482" fill="#EDFFFF" width="233" height="8"/>
	<rect x="465" y="4482" fill="#14A99B" width="41" height="8"/>
	<rect x="465" y="4490" fill="#203458" width="38" height="4"/>
	<rect x="232" y="4490" fill="#F54840" width="233" height="4"/>
	<rect x="416" y="4834" fill="#1D3354" width="23" height="52"/>
	<rect x="427" y="4834" fill="#88C66F" width="12" height="52"/>
	<rect x="413" y="4834" fill="#359991" width="3" height="52"/>
	<rect x="407" y="4826" fill="#14A4A3" width="41" height="1"/>
	<polygon fill="#18A1AF" points="417,4780.207 377,4792.507 377,4785.129 417,4772.827 	"/>
	<polygon fill="#FFFEFF" points="231.374,4793 279.973,4793 377.168,4786 232.995,4786 	"/>
	<rect x="231" y="4793" fill="#FFFEFF" width="241" height="8"/>
	<rect x="232" y="4801" fill="#F15040" width="240" height="6"/>
	<polygon fill="#0FA9A5" points="512,4785.946 472,4799.89 472,4793.329 512,4779.386 	"/>
	<polygon fill="#193247" points="472,4804.81 509,4790.867 509,4785.946 472,4799.89 	"/>
	<polygon fill="#EC4F3C" points="509,4879.444 472,4904.454 472,4804.81 509,4790.867 	"/>
	<polygon fill="#FDFFFF" points="403,4886 403,4893 393,4893 393,4900 384,4900 384,4904 392.963,4904 401.873,4904 439,4904 
		439,4886 	"/>
	<polygon fill="#11ADA5" points="439,4886 439,4893 430,4893 430,4900 421,4900 421,4904 431.031,4904 439.94,4904 448,4904 
		448,4886 	"/>
	<polygon fill="#EF4D3E" points="506,4692.455 465,4707.217 465,4494 506,4494 	"/>
	<polygon fill="#EF4D3E" points="377,4707 419.286,4707 418.393,4772.72 377,4785.129 	"/>
	<polygon fill="#2A2F46" points="472,4795 265.038,4795 264.583,4793 472,4793 	"/>
	<path fill="#17A197" d="M281,4567.8v-14.764c0,0,1.807-11.037-10.748-11.037c-12.554,0-44.548,0-44.548,0
		S210,4542.375,210,4559.188c0,16.813,0,344.033,0,344.033s7,4.102,11,0v-343.625c0,0-1.37-9.598,10.374-9.598
		c11.745,0,36.449,0,36.449,0s5.177,0.167,5.177,7.139c0,6.971,0,10.662,0,10.662S276,4572.312,281,4567.8z"/>
	<path fill="#2669A3" d="M496.232,4829h57.227c0,0,5.541-0.332,5.541,6.64c0,6.971,0,41.826,0,41.826s4,3.689,9-0.82v-45.105
		c0,0,0.443-13.539-12.11-13.539c-12.555,0-59.656,0-59.656,0S487.321,4825,496.232,4829z"/>
	<path fill="#2669A3" d="M429.353,4724.961"/>
	<path fill="#2669A3" d="M568,4903v-74.864c0,0-6-7.789-9-3.277V4903"/>
	<path fill="#2669A3" d="M177,4510.978v-57.942c0,0-0.08-4.034,6.807-4.034c6.885,0,41.31,0,41.31,0s3.644-6-0.812-10h-44.549
		c0,0-13.756-1.139-13.756,11.57c0,12.713,0,60.405,0,60.405S172,4519.999,177,4510.978z"/>
	<path fill="#2669A3" d="M255,4439h-47.85c0,0-7.692,7-3.237,10H255"/>
	<path fill="#2669A3" d="M274.65,4726h-94.457c0,0-4.193,1.086-4.193-5.886c0-6.973,0-41.828,0-41.828s-5-3.689-10,0.82v45.105
		c0,0-0.79,12.787,11.764,12.787c12.555,0,98.508,0,98.508,0S283.563,4731,274.65,4726z"/>
	<path fill="#2669A3" d="M166,4505v214.422c0,0,0.291,0,10.004-11.474l1.473-203.201"/>
	<path fill="#2669A3" d="M425.353,4718.961"/>
	<path fill="#17A197" d="M425.179,4560h-38.065c0,0-14.112,0.912-14.112-11.799c0-12.712,0-69.709,0-69.709
		s3.58-13.492,20.187-13.492c16.604,0,109.747,0,109.747,0s4.05,7,0,11H393.591c0,0-9.591-3.66-9.591,8.231
		c0,11.893,0,61.512,0,61.512s0.275,4.257,7.162,4.257c6.886,0,34.017,0,34.017,0S429.634,4556,425.179,4560z"/>
	<path fill="#17A197" d="M489.122,4559h38.065c0,0,10.813,0.272,10.813-12.438c0-12.709,0-68.068,0-68.068
		S537.721,4465,521.116,4465s-106.515,0-106.515,0s-4.046,7,0,11H520.71c0,0,9.289-3.66,9.289,8.231c0,11.893,0,59.869,0,59.869
		s0.024,4.898-6.859,4.898c-6.883,0-34.019,0-34.019,0S484.667,4553,489.122,4559z"/>
	<path fill="#2669A3" d="M209,4439h68.465c0,0,12.535,1.099,12.535,17.91s0,111.123,0,111.123s-3.596,4.101-8.455,0l1.036-110.041
		c0,0,0.958-8.992-10.787-8.992c-11.741,0-59.794,0-59.794,0"/>
	<path fill="#FFE00A" d="M489.091,4559.063l17.818,0.306c0,0,11.975-0.806,11.875,11.905c-0.103,12.711-0.549,69.707-0.549,69.707
		c0.252-2.186,0.549,13.471-18.147,13.471c-16.605-0.002-45.765-1.188-45.765-1.188s-4.006-4.135,0.08-9.021l45.354,0.363
		c0,0,9.521,2.453,9.615-9.438c0.093-11.892,0.482-61.506,0.482-61.506s-0.185-5.246-7.066-5.304
		c-6.885-0.055-13.771-0.271-13.771-0.271S484.599,4563.948,489.091,4559.063z"/>
	<polygon fill="#11ADA5" points="446,4786 446,4778 438,4778 438,4770 427,4770 427,4765.035 380.822,4765.08 380.822,4765.08 
		380.822,4765.08 380.822,4765.08 414.831,4793 445.609,4793 445.626,4793 445.609,4793 451,4793 451,4786 	"/>
	<polygon fill="#FFFEFF" points="407,4786 407,4778 402,4778 402,4770 393,4770 393,4766 375.142,4766 375.294,4766 375.294,4766 
		375.294,4766 407.417,4793 407.417,4793 407.417,4793 407.541,4793 416,4793 416,4786 	"/>
	<path fill="#FFDE15" d="M417,4670.313v-14.763c0,0,0.271-11.551,12.827-11.551c12.553,0,44.545,0,44.545,0
		S487,4644.892,487,4661.702s0,161.971,0,161.971s-5,4.103-9,0v-161.561c0,0,2.446-9.111-9.297-9.111c-11.744,0-36.448,0-36.448,0
		s-5.255-0.317-5.255,6.65c0,6.973,0,10.661,0,10.661S421,4674.823,417,4670.313z"/>
	<path fill="#FFDE15" d="M478,4906v-137.196c0,0,4-4.101,9,0V4906"/>
	<path fill="#FFDE15" d="M423,4842.946c0,0,31.125,0.408,35.984,0c4.86-0.41,6.016-2.871,6.016-2.871s0-21.322,0-26.653
		c0-5.332,6.944-5.422,6.944-5.422h10.528c0,0,1.619,3,0,4h-6.887c0,0-4.97,0.274-4.97,5.603c0,5.33-0.698,25.502-0.698,25.502
		s-0.376,5.045-5.235,5.457c-4.858,0.41-41.684,0.422-41.684,0.422L423,4842.946L423,4842.946z"/>
	<rect x="232" y="4793" fill="#0E9B8E" width="145" height="2"/>
	<path fill="#17A197" d="M276,4740.433c0,0-28.314,0.41-33.174,0c-4.86-0.41-4.826-2.871-4.826-2.871s0-21.322,0-26.654
		c0-5.328-7.436-6.906-7.436-6.906h-10.529c0,0-1.62,3,0,5h6.884c0,0,4.16,0.109,4.16,5.437c0,5.334-0.108,26.235-0.108,26.235
		s1.051,5.01,5.91,5.418c4.859,0.41,39.119,0.379,39.119,0.379V4740.433z"/>
</g>
<g>
	<g>
		<path fill="#3A3A3A" d="M1203.172,5887.147c0,3.612-2.932,6.545-6.547,6.545l0,0c-3.611,0-6.542-2.933-6.542-6.545v-16.164
			c0-3.621,2.931-6.547,6.542-6.547l0,0c3.615,0,6.547,2.926,6.547,6.547V5887.147z"/>
		<path fill="#3A3A3A" d="M1284.785,5887.147c0,3.612-2.928,6.545-6.546,6.545l0,0c-3.614,0-6.54-2.933-6.54-6.545v-16.164
			c0-3.621,2.926-6.547,6.54-6.547l0,0c3.618,0,6.546,2.926,6.546,6.547V5887.147z"/>
	</g>
	<g>
		<path fill="#3A3A3A" d="M1317.234,5741.229v5.787c3.809,1.627,6.479,5.41,6.479,9.821v15.071c0,4.408-2.672,8.193-6.479,9.822
			v5.785c7.483,0,13.563-6.077,13.563-13.563v-19.153C1330.798,5747.304,1324.719,5741.229,1317.234,5741.229z"/>
	</g>
	<g>
		<g>
			<path fill="none" d="M1248.705,5588.104h-23.764c-5.162,0-9.35,4.182-9.35,9.348v55.346h42.469v-55.346
				C1258.063,5592.286,1253.873,5588.104,1248.705,5588.104z"/>
			<path fill="#3A3A3A" d="M1215.593,5597.452c0-5.166,4.188-9.348,9.35-9.348h23.764c5.168,0,9.356,4.182,9.356,9.348v55.346h6.125
				v-60.434c0-6.652-5.395-12.044-12.053-12.044h-30.622c-6.65,0-12.046,5.392-12.046,12.044v60.434h6.126V5597.452z"/>
		</g>
		<path fill="#212121" d="M1267.107,5586.405c0,3.353-2.156,6.078-4.814,6.078h-51.179c-2.657,0-4.811-2.727-4.811-6.078l0,0
			c0-3.361,2.152-6.086,4.811-6.086h51.179C1264.951,5580.319,1267.107,5583.044,1267.107,5586.405L1267.107,5586.405z"/>
	</g>
	<path fill="#67B8CB" d="M1318.662,5866.813c0,9.674-7.841,17.514-17.51,17.514h-127.438c-9.671,0-17.513-7.84-17.513-17.514
		v-196.748c0-9.676,7.842-17.51,17.513-17.51h127.438c9.668,0,17.51,7.834,17.51,17.51V5866.813L1318.662,5866.813z"/>
	<g>
		<path fill="#40ABB6" d="M1302.796,5851.745c0,7.777-6.309,14.088-14.094,14.088h-102.54c-7.781,0-14.093-6.311-14.093-14.088
			v-84.65c0-7.779,6.312-14.088,14.093-14.088h102.54c7.785,0,14.094,6.309,14.094,14.088V5851.745z"/>
		<path fill="#58B4C3" d="M1302.796,5860.255c0,7.785-6.309,14.094-14.094,14.094h-102.54c-7.781,0-14.093-6.309-14.093-14.094
			l2.13-84.645c0-7.785,6.313-14.097,14.09-14.097h97.801c7.787,0,14.088,6.312,14.088,14.097L1302.796,5860.255z"/>
		<g>
			<path fill="#40ABB6" d="M1280.238,5776.526h-86.096c-1.074,0-1.945,1.902-1.945,4.254c0,2.35,0.871,4.256,1.945,4.256h86.096
				c1.074,0,1.945-1.906,1.945-4.256C1282.186,5778.431,1281.313,5776.526,1280.238,5776.526z"/>
			<path fill="#28868C" d="M1280.238,5779.81h-86.096c-1.074,0-1.945,0.438-1.945,0.973c0,0.541,0.871,0.975,1.945,0.975h86.096
				c1.074,0,1.945-0.434,1.945-0.975C1282.186,5780.248,1281.313,5779.81,1280.238,5779.81z"/>
			<path fill="#258B90" d="M1281.6,5783.343c0-0.021,0-0.045,0-0.063c0-1.367-0.715-2.465-1.604-2.465s-1.607,1.098-1.607,2.465
				c0,0.018,0.004,0.041,0.004,0.063c-0.286,0.354-0.467,0.799-0.467,1.294c0,1.138,0.931,2.065,2.07,2.065
				c1.144,0,2.066-0.929,2.066-2.065C1282.063,5784.142,1281.88,5783.696,1281.6,5783.343z"/>
		</g>
	</g>
	<g>
		<g>
			<path fill="#40ABB6" d="M1302.796,5722.837c0,7.784-6.309,14.087-14.094,14.087h-102.54c-7.781,0-14.093-6.304-14.093-14.087
				v-39.415c0-7.78,6.312-14.089,14.093-14.089h102.54c7.785,0,14.094,6.309,14.094,14.089V5722.837z"/>
			<path fill="#58B4C3" d="M1302.796,5722.837c0,7.784-6.309,14.087-14.094,14.087h-102.54c-7.781,0-14.093-6.304-14.093-14.087
				l2.13-32.352c0-7.777,6.313-14.088,14.09-14.088h97.801c7.787,0,14.088,6.311,14.088,14.088L1302.796,5722.837z"/>
		</g>
		<g>
			<path fill="#40ABB6" d="M1280.238,5683.507h-86.096c-1.074,0-1.945,1.9-1.945,4.25s0.871,4.258,1.945,4.258h86.096
				c1.074,0,1.945-1.908,1.945-4.258C1282.186,5685.408,1281.313,5683.507,1280.238,5683.507z"/>
			<path fill="#28868C" d="M1280.238,5686.788h-86.096c-1.074,0-1.945,0.432-1.945,0.969c0,0.539,0.871,0.973,1.945,0.973h86.096
				c1.074,0,1.945-0.434,1.945-0.973C1282.186,5687.22,1281.313,5686.788,1280.238,5686.788z"/>
			<path fill="#258B90" d="M1281.6,5690.321c0-0.021,0-0.043,0-0.072c0-1.363-0.715-2.46-1.604-2.46s-1.607,1.097-1.607,2.46
				c0,0.029,0.004,0.051,0.004,0.072c-0.286,0.356-0.467,0.795-0.467,1.289c0,1.143,0.931,2.064,2.07,2.064
				c1.144,0,2.066-0.923,2.066-2.064C1282.063,5691.116,1281.88,5690.679,1281.6,5690.321z"/>
		</g>
	</g>
</g>
<g>
	<g>
		<g>
			<g>
				<g>
					<g>
						<path fill="#F3F4F5" d="M1969.746,2031.156c0,6.817-3.469,10.289-10.287,10.286l-34.977,0.003
							c-6.821,0-10.293-3.472-10.293-10.289v-84.361c0-6.818,3.472-10.287,10.293-10.287h34.977c6.818,0,10.287,3.469,10.287,10.287
							V2031.156z"/>
						<path fill="#C9C9C9" d="M1948.483,1944.223c0,0.663-0.535,1.201-1.199,1.201h-10.629c-0.664,0-1.203-0.538-1.203-1.201l0,0
							c0-0.663,0.539-1.197,1.203-1.197h10.629C1947.948,1943.024,1948.483,1943.559,1948.483,1944.223L1948.483,1944.223z"/>
						
							<rect x="1916.764" y="1949.624" fill="#CE3E49" stroke="#CE3E49" stroke-width="2.7172" stroke-miterlimit="10" width="50.152" height="76.645"/>
					</g>
				</g>
			</g>
		</g>
	</g>
	<path fill="#C9C9C9" d="M1941.968,2029.313c-2.349,0-4.249,1.901-4.249,4.25c0,2.346,1.9,4.248,4.249,4.248
		c2.35,0,4.249-1.902,4.249-4.248C1946.217,2031.215,1944.316,2029.313,1941.968,2029.313"/>
	<path fill="#91222F" d="M1955.804,1973.933c-1.316-1.317-4.616-0.149-6.193,1.43l-6.009,6.014
		c-0.585-0.545-15.18-5.75-15.703-5.226l-1.903,1.901c-0.527,0.523-0.527,1.375,0,1.9l10.666,8.367l-4.204,4.206
		c-0.317,0.319-0.72,0.813-1.145,1.397l-0.169-0.168c-0.267-0.267-4.098-0.751-4.364-0.482l-0.973,0.968
		c-0.267,0.268-0.267,0.701,0,0.968c0,0,0.176,0.177,0.479,0.479c0.544,0.545,1.499,1.494,2.566,2.562
		c-0.51,1.269-0.696,2.368-0.206,2.861c0.493,0.491,1.596,0.304,2.864-0.209c1.049,1.046,1.983,1.979,2.528,2.521
		c0.315,0.318,0.504,0.503,0.504,0.503c0.268,0.27,0.702,0.27,0.969,0l0.972-0.968c0.269-0.269-0.217-4.09-0.485-4.357l-0.164-0.165
		c0.583-0.423,1.072-0.822,1.391-1.14l4.203-4.209l8.371,10.634c0.526,0.524,1.378,0.524,1.904,0l1.905-1.902
		c0.524-0.523-4.695-15.115-5.234-15.682l6.001-6.007C1955.953,1978.551,1957.119,1975.248,1955.804,1973.933z"/>
</g>
<g>
	<path fill="#FDEBCB" d="M2773,1291.947v71.317c0,47.372-38.627,85.774-86,85.774l0,0c-47.371,0-86-38.402-86-85.774v-72.794
		c0,0,0.741-13.943,20.979-20.919c16.246-5.604,48.055-6.496,68.68-6.517C2717.178,1263.006,2773,1263.036,2773,1291.947z"/>
	<path fill="#645655" d="M2761.018,1289.539c0,9.047-32.791,16.383-73.241,16.383c-43.025,0-73.247-7.333-73.247-16.383
		c0-9.049,32.794-16.384,73.247-16.384C2728.227,1273.155,2761.018,1280.49,2761.018,1289.539z"/>
	<path fill="#FDEBCB" d="M2768.535,1314.596c18.365,0,33.254,14.89,33.254,33.25c0,18.363-14.889,33.25-33.254,33.25"/>
	<path fill="#FDEBCB" d="M2611.443,1381.096c-18.361,0-33.247-14.887-33.247-33.25c0-18.36,14.886-33.25,33.247-33.25"/>
	<path fill="none" stroke="#645655" stroke-width="3.8469" stroke-linecap="round" stroke-miterlimit="10" d="M2589.76,1346.209
		c0,0,0-12.045,15.419-13.012"/>
	<path fill="none" stroke="#645655" stroke-width="3.8469" stroke-linecap="round" stroke-miterlimit="10" d="M2790.22,1346.209
		c0,0,0-12.045-15.419-13.012"/>
	<path fill="#645655" d="M2644,1276.047V1295c0,0,31.246,0,55.336,0c24.098,0,48.189,1.85,53.01-4.899
		c4.818-6.746-10.08-14.736-35.139-14.736C2683.477,1275.363,2644,1276.047,2644,1276.047z"/>
	<path fill="#776868" d="M2643,1280.863v16.386c0,0,32.021-5.302,56.112-5.302c24.094,0,47.579,8.192,53.845-0.722
		c4.766-6.782-25.104-15.061-50.159-15.061C2669.063,1276.166,2643,1280.863,2643,1280.863z"/>
	<path fill="#645655" d="M2632.838,1284.236"/>
	<g>
		<g>
			<g>
				<g>
					<g>
						<g>
							<path fill="#EC68A4" stroke="#EC68A4" stroke-width="2.3754" stroke-miterlimit="10" d="M2675.012,1187.72
								c1.326,0.183,7.813,5.96,2.862,8.503c-1.088-0.887,0.054-2.649-0.782-4.598c-6.481-5.69-19.711-0.353-25.75,4.368
								c0.01,0.828,1.688,2.075,0.471,2.765c-5.256-2.387-12.09,3.41-14.779,7.704c-1.063,1.833,0.816,3.259-1.137,4.454
								c-1.69-0.088-1.127-3.348-3.307-2.754c-6.224,4.346-8.334,11.613-9.986,19.199c1.455-0.722,1.615,0.387,1.689,1.606
								c-5.78,0.115-5.951,6.242-3.882,10.596c-6.294,5.142-2.198,23.063,5.444,26.517c0.653-2.4,3.616-6.922,6.733-4.931
								c-2.854,2.021-6.224,3.675-5.188,8.451c5.687,4.471,21.248,3.049,26.142-2.066c1.91-0.034,2.976,1.125,5.293,0.519
								c0.752-0.676-0.098-2.497,1.985-2.229c0.896,7.282,4.156,11.235,10.001,11.548c2.94,13.167,19.684,7.568,29.918,3.439
								c-1.208-2.696,2.542-2.627,2.898-5.222c-1.189-2.505-4.314-2.278-5.151-5.276c3.311,0.463,5.871,1.984,6.688,5.963
								c0.071,1.674-1.557,2.131-2.295,3.231c8.655-2.242,19.898-9.63,15.59-19.68c-1.15-2.686-3.858-2.396-5.615-5.195
								c10.1-0.15,9.8,16.646,2.896,19.851c7.344-1.664,10.972-5.962,14.305-10.474c-0.23-1.579-1.12-2.833-0.777-4.597
								c0.43-2.181,2.76-2.014,4.052-3.997c0.52-0.797,0.219-2.796,0.756-3.916c1.524-3.151,3.914-5.268,5.736-5.229
								c-1.496,3.79-5.504,5.798-5.257,10.828c-8.175,3.184-0.854,8.37,3.476,9.342c5.843,1.32,12.83,2.187,16.57,2.867
								c0.405-1.061,0.97-2.009,1.373-3.071c-1.334-0.398-2.862-0.525-2.847-2.829c2.184-0.793,2.418,1.154,4.757,0.144
								c1.301-2.449,1.758-5.492,2.354-8.443c-0.032-1.85-2.616-0.112-2.308-2.444c3.201-0.642,1.822-6.726,0.888-11.502
								c-1.412,0.182-2.813,2.437-3.681,0.623c-0.264-2.211,2.722-2.119,3.67-3.465c-0.012-5.072-1.178-13.041-5.635-13.707
								c-0.381,1.213,0.113,3.047-1.298,3.528c-3.485-2.344,1.632-4.85-0.021-8.517c-0.277-1.505-2.153-0.763-2.312-2.447
								c-0.211-6.566-5.813-10.39-9.467-14.002c-8.264-0.441-5.287,9.156-9.635,10.151c1.5-4.328,0.899-10.148,7.099-11.142
								c-0.165-2.43-2.373-1.981-3.765-2.676c-4.438-3.627-8.354-7.984-14.752-8.848c0.622,1.618,4.455,5.141,1.553,6.358
								c-3.056-6.899-9.805-8.598-16.818-9.922c0.74,2.171,3.977,8.056,1.177,9.736c-1.791-1.905-1.363-6.704-3.479-9.349
								c-2.577-1.355-6.941-2.146-9.509-0.276c-0.727-1.065-2.171-1.119-3.146-1.833
								C2682.801,1187.926,2680.073,1187.068,2675.012,1187.72z M2686.265,1287.528c-8.632,1.529-14.366-1.037-16.967-8.001
								c-3.949-2.037-9.229-2.201-9.612-9.248c-4.093-0.719-6.299-0.248-8.582,2.397c-9.404,0.254-18.168,4.521-24.233-0.622
								c-0.854-0.724-1.117-2.278-2.002-3.441c-2.813-3.704-7.2-7.316-8.545-11.328c-2.045-6.104-1.22-13.123,1.016-19.095
								c-1.336-5.536,1-8.463,3.267-11.438c1.091-8.257,4.549-14.837,9.832-20.113c1.457-0.153,3.326-0.888,4.219-0.245
								c3.1-4.545,6.049-9.189,13.852-10.395c5.028-6.67,14.226-7.623,22.593-9.033c2.254-0.378,4.069-1.762,6.282-2.014
								c1.192-0.135,2.668,0.86,3.91,0.753c1.914-0.159,3.853-2.161,5.747-2.395c1.083-0.127,3.458,0.534,4.835,0.602
								c2.307,0.109,4.123-0.184,5.67-0.019c1.434,0.16,2.646,1.445,4.071,1.676c0.597,0.102,1.751-0.858,2.223-0.846
								c4.372,0.069,9.825,3.069,13.125,4.867c1.177-0.763,1.395-1.58,3.145-1.009c6.479,1.146,11.332,6.178,16.819,9.924
								c7.125,4.864,15.72,11.587,17.246,23.567c4.793,1.505,8.209,11.813,6.259,17.388c4.315,13.487,0.936,24.907-5.427,32.144
								c-1.446,0.524-2.191,0.056-3.298,0.09l-2.456-0.531c-5.346-2.91-13.24-2.238-18.033-5.928
								c-3.49,4.309-7.694,9.229-13.314,10.773c-1.161,0.317-2.591-0.615-3.835-0.295c-3.873,1.003-6.846,6.563-12.252,5.862
								C2695.52,1285.904,2686.265,1287.528,2686.265,1287.528z"/>
						</g>
					</g>
				</g>
			</g>
		</g>
		<g>
			<g>
				<g>
					<g>
						<g>
							<path fill="#F7B5C7" d="M2688.811,1185.378c0.977,0.714,2.422,0.768,3.146,1.833c2.566-1.87,6.931-1.079,9.509,0.277
								c2.114,2.644,1.688,7.441,3.479,9.348c2.8-1.682-0.437-7.564-1.177-9.735c7.015,1.323,13.764,3.021,16.818,9.922
								c2.902-1.22-0.931-4.741-1.553-6.359c6.398,0.863,10.314,5.221,14.752,8.848c1.393,0.693,3.6,0.246,3.765,2.677
								c-6.198,0.991-5.599,6.813-7.099,11.141c4.348-0.995,1.371-10.594,9.635-10.151c3.652,3.612,9.256,7.436,9.467,14.002
								c0.157,1.686,2.033,0.942,2.312,2.447c1.653,3.667-3.464,6.173,0.021,8.518c1.411-0.482,0.917-2.316,1.298-3.529
								c4.457,0.666,5.623,8.635,5.635,13.708c-0.948,1.345-3.934,1.253-3.67,3.464c0.867,1.813,2.269-0.441,3.681-0.623
								c0.937,4.777,2.313,10.861-0.888,11.502c-0.311,2.332,2.273,0.596,2.308,2.445c-0.596,2.95-1.053,5.993-2.354,8.442
								c-2.339,1.012-2.573-0.936-4.757-0.143c-0.017,2.303,1.513,2.43,2.847,2.829c-0.403,1.063-0.968,2.011-1.373,3.07
								c-3.74-0.682-10.729-1.547-16.57-2.866c-4.33-0.973-11.649-6.158-3.476-9.343c-0.248-5.029,3.761-7.037,5.257-10.828
								c-1.822-0.036-4.212,2.078-5.736,5.229c-0.537,1.12-0.236,3.119-0.756,3.916c-1.292,1.984-3.622,1.817-4.052,3.997
								c-0.343,1.764,0.547,3.018,0.777,4.597c-3.333,4.513-6.961,8.811-14.305,10.475c6.902-3.205,7.202-20.001-2.896-19.852
								c1.757,2.8,4.465,2.511,5.615,5.195c4.31,10.05-6.935,17.438-15.59,19.68c0.738-1.102,2.366-1.559,2.295-3.23
								c-0.816-3.979-3.378-5.501-6.688-5.963c0.836,2.998,3.961,2.771,5.151,5.275c-0.356,2.595-4.106,2.524-2.898,5.223
								c-10.234,4.129-26.978,9.727-29.918-3.44c-5.845-0.312-9.104-4.265-10.001-11.548c-2.083-0.269-1.233,1.553-1.985,2.229
								c-2.318,0.605-3.383-0.554-5.293-0.52c-4.894,5.115-20.455,6.537-26.142,2.067c-1.035-4.777,2.334-6.432,5.188-8.451
								c-3.117-1.992-6.08,2.528-6.733,4.93c-7.644-3.452-11.738-21.375-5.444-26.517c-2.069-4.354-1.898-10.479,3.882-10.596
								c-0.074-1.221-0.234-2.327-1.689-1.606c1.652-7.586,3.764-14.854,9.986-19.199c2.18-0.594,1.615,2.666,3.307,2.754
								c1.953-1.194,0.074-2.621,1.137-4.454c2.689-4.294,9.523-10.091,14.779-7.703c1.217-0.689-0.461-1.938-0.471-2.766
								c6.039-4.721,19.269-10.059,25.75-4.368c0.836,1.947-0.306,3.711,0.782,4.599c4.95-2.543-1.536-8.321-2.862-8.504
								C2680.073,1187.068,2682.801,1187.926,2688.811,1185.378z M2685.566,1205.329c-9.871,1.933-14.347,21.181,0.061,19.854
								c1.154,3.199,4.76,5.723,7.832,4.351c-2.396-1.939-5.832-2.417-7.148-5.887c-13.608,1.411-8.528-15.623,0.871-17.174
								c-2.291-9.714,3.938-13.389,8.767-18.049c-0.675,0-0.904-0.625-1.535-0.684
								C2689.594,1192.275,2683.509,1195.909,2685.566,1205.329z M2653.424,1199.897c1.889,2.279,5.229,2.512,6.229,6.041
								c7.813-2.846,15.889-2.139,20.555,1.246c-1.601-5.883-12.586-5.362-19.947-3.239
								C2658.973,1201.479,2656.041,1198.621,2653.424,1199.897z M2705.576,1203.354c3.879-2.774,7.826,0.646,10.352-0.336
								C2714.457,1200.551,2706.057,1198.526,2705.576,1203.354z M2628.865,1219.678c1.68,0.692,2.979-1.764,5.899-1.472
								c2.89,1.057,4.523,3.882,5.923,7.038c7.647-2.229,11.804,0.459,13.823,6.169c2.083-0.536,2.783-1.548,4.439-1.702
								c5.69-0.522,8.485,6.743,11.76,7.942c-1.582-5.243-7.726-11.829-15.592-8.239c-0.338-3.129-2.597-3.562-3.771-5.511
								c2.076-3.394,9.511-1.429,11.259-3.327c-3.823-2.468-10.459,0-13.257,2.721c-2.08-0.867-4.832-0.784-8.051-0.056
								C2640.563,1217.416,2631.805,1213.746,2628.865,1219.678z M2718.727,1216.734c1.475,5.227-1.33,7.416-6.726,7.763
								c0.308,4.775-4.378,9.036-9.64,7.311c-0.805,4.024-7.424,3.532-9.654,1.639c2.803,8.767-16.195,8.244-20.739,14.399
								c-5.03-3.741-14.756-0.869-17.431-7.924c-2.387-0.726-7.77-1.24-8.662,1.944c7.164-3.125,10.543,3.151,15.123,5.478
								c5.676-1.543,8.374,1.121,11.818,2.724c3.908-7.063,19.457-5.871,22.271-13.711c1.182,0.617,2.76,0.676,4.758,0.139
								c1.568-0.773,2.604-1.922,3.748-3c4.97,1.58,9.452-3.298,10.099-7.393c5.603-0.873,8.146-3.925,6.339-10.063
								c2.25-1.23,5.142-2.013,4.813-5.073c-4.384,5.398-13.333,4.766-16.259-1.028
								C2708.234,1215.24,2714.045,1216.641,2718.727,1216.734z M2725.582,1226.456c-2.609,7.851-8.23,13.568-16.438,17.449
								c3.986,1.974,6.319-2.438,10.58-1.793c1.866,1.55,2.022,5.5,3.621,7.428c4.645-0.408,13.067,0.248,12.027-4.404
								c-2.437,2.475-6.688,2.316-10.882,2.79c-1.476-1.147-1.524-4.311-2.471-6.203c-1.031-1.021-3.187-0.45-4.071-1.678
								c3.38-4.073,8.112-7.181,9.706-12.529c4.055-1.161,6.754-3.288,6.799-7.3c-0.184-0.501-0.631-0.634-1.073-0.762
								C2732.59,1223.069,2730.451,1225.729,2725.582,1226.456z M2624.109,1244.61c7.683-1.83,12.117,5.669,16.438,10.462
								c-2.223,1.118-4.744,2.022-4.897,4.61c2.287,0.411,3.396-3.158,6.509-3.465c4.498,1.637,9.808,2.135,12.441,6.398
								c1.291-1.935-2.334-4.067-1.778-4.9c3.711-0.953,6.313,2.367,8.744,1.355c-1.474-2.713-7.451-4.369-10.204-1.576
								c-2.879-2.024-4.809-0.801-7.44-2.056c-6.961-3.311-9.726-15.832-20.588-12.591
								C2623.438,1243.657,2623.682,1244.268,2624.109,1244.61z M2665.111,1263.203c2.213,0.444,2.34-1.607,4.359-2.16
								c5.275-1.428,8.905,1.529,10.223,7.26c4.666-2.385,9.807-1.049,12.12,1.726c2.446-4.283,9.868-3.213,12.798-2.646
								c-1.77-3.91-9.834-2.321-12.729,0.263c-2.775-1.885-7.062-3.044-11.121-1.42
								C2679.857,1258.9,2667.987,1255.871,2665.111,1263.203z M2748.119,1250.539c1.796,1.265,1.006,6.181,3.085,7.046
								c1.016-1.648-0.265-3.359,0.142-4.756c2.115-1.098,5.428,0.674,4.901-1.774c-1.431-1.194-4.276-0.178-6.059,0.557
								c-0.758-2.923-2.516-4.434-5.452-4.278C2744.857,1249.822,2747.469,1248.801,2748.119,1250.539z M2697.816,1277.53
								c-2.613-6.568-10.584,0.105-16.563-0.032c-4.521-0.104-4.583-3.281-8.751-4.194
								C2674.584,1283.501,2690.645,1274.457,2697.816,1277.53z"/>
						</g>
					</g>
				</g>
			</g>
		</g>
		<g>
			<g>
				<g>
					<g>
						<g>
							<g>
								<path fill="#EC68A4" d="M2694.412,1187.742c0.631,0.059,0.86,0.684,1.535,0.684c-4.828,4.66-11.057,8.335-8.767,18.049
									c-9.399,1.552-14.479,18.585-0.871,17.174c1.316,3.47,4.752,3.946,7.148,5.887c-3.072,1.372-6.679-1.15-7.832-4.351
									c-14.406,1.325-9.933-17.923-0.061-19.854C2683.509,1195.909,2689.594,1192.275,2694.412,1187.742z"/>
							</g>
						</g>
					</g>
				</g>
			</g>
			<g>
				<g>
					<g>
						<g>
							<g>
								<path fill="#EC68A4" d="M2660.26,1203.945c7.361-2.123,18.348-2.644,19.947,3.239c-4.666-3.385-12.74-4.092-20.555-1.246
									c-1-3.529-4.34-3.762-6.229-6.041C2656.041,1198.621,2658.973,1201.479,2660.26,1203.945z"/>
							</g>
						</g>
					</g>
				</g>
			</g>
			<g>
				<g>
					<g>
						<g>
							<g>
								<path fill="#EC68A4" d="M2715.928,1203.019c-2.523,0.982-6.473-2.438-10.352,0.336
									C2706.057,1198.526,2714.457,1200.551,2715.928,1203.019z"/>
							</g>
						</g>
					</g>
				</g>
			</g>
			<g>
				<g>
					<g>
						<g>
							<g>
								<path fill="#EC68A4" d="M2641.299,1223.242c3.219-0.729,5.971-0.813,8.051,0.055c2.798-2.721,9.434-5.188,13.258-2.721
									c-1.748,1.899-9.184-0.065-11.26,3.328c1.177,1.948,3.435,2.381,3.771,5.51c7.867-3.59,14.01,2.996,15.592,8.239
									c-3.273-1.199-6.068-8.465-11.76-7.942c-1.656,0.154-2.355,1.166-4.439,1.702c-2.021-5.71-6.176-8.398-13.822-6.169
									c-1.399-3.156-3.033-5.981-5.924-7.038c-2.922-0.292-4.221,2.164-5.899,1.473
									C2631.805,1213.746,2640.563,1217.416,2641.299,1223.242z"/>
							</g>
						</g>
					</g>
				</g>
			</g>
			<g>
				<g>
					<g>
						<g>
							<g>
								<path fill="#EC68A4" d="M2708.586,1209.938c2.925,5.793,11.874,6.428,16.258,1.028c0.328,3.062-2.563,3.843-4.813,5.073
									c1.807,6.138-0.736,9.188-6.34,10.063c-0.646,4.095-5.129,8.973-10.099,7.393c-1.144,1.078-2.179,2.227-3.747,3
									c-1.999,0.537-3.577,0.479-4.758-0.139c-2.815,7.84-18.364,6.646-22.272,13.711c-3.444-1.603-6.143-4.267-11.817-2.724
									c-4.58-2.325-7.959-8.603-15.123-5.478c0.894-3.186,6.274-2.67,8.662-1.944c2.675,7.056,12.398,4.183,17.431,7.924
									c4.544-6.155,23.542-5.634,20.739-14.399c2.229,1.895,8.851,2.387,9.653-1.639c5.263,1.727,9.947-2.535,9.64-7.311
									c5.396-0.348,8.199-2.536,6.727-7.763C2714.045,1216.641,2708.234,1215.24,2708.586,1209.938z"/>
							</g>
						</g>
					</g>
				</g>
			</g>
			<g>
				<g>
					<g>
						<g>
							<g>
								<path fill="#EC68A4" d="M2733.381,1219.454c0.443,0.128,0.892,0.261,1.074,0.762c-0.045,4.011-2.744,6.138-6.799,7.3
									c-1.594,5.35-6.326,8.456-9.706,12.529c0.886,1.228,3.04,0.656,4.071,1.678c0.944,1.894,0.994,5.056,2.471,6.203
									c4.193-0.474,8.445-0.315,10.882-2.79c1.04,4.652-7.384,3.996-12.028,4.404c-1.598-1.928-1.754-5.878-3.621-7.428
									c-4.26-0.646-6.593,3.767-10.58,1.793c8.207-3.881,13.828-9.6,16.438-17.449
									C2730.451,1225.729,2732.59,1223.069,2733.381,1219.454z"/>
							</g>
						</g>
					</g>
				</g>
			</g>
			<g>
				<g>
					<g>
						<g>
							<g>
								<path fill="#EC68A4" d="M2623.334,1242.851c10.863-3.24,13.627,9.28,20.588,12.592c2.633,1.255,4.563,0.029,7.441,2.055
									c2.752-2.793,8.729-1.137,10.203,1.576c-2.431,1.012-5.033-2.31-8.743-1.355c-0.556,0.833,3.069,2.967,1.778,4.9
									c-2.636-4.264-7.944-4.762-12.442-6.398c-3.113,0.307-4.222,3.876-6.509,3.465c0.154-2.588,2.676-3.492,4.897-4.61
									c-4.321-4.793-8.757-12.292-16.438-10.462C2623.682,1244.268,2623.438,1243.657,2623.334,1242.851z"/>
							</g>
						</g>
					</g>
				</g>
			</g>
			<g>
				<g>
					<g>
						<g>
							<g>
								<path fill="#EC68A4" d="M2680.762,1266.226c4.062-1.624,8.346-0.465,11.121,1.42c2.896-2.584,10.959-4.173,12.729-0.263
									c-2.931-0.567-10.353-1.639-12.798,2.646c-2.313-2.773-7.455-4.109-12.121-1.726c-1.315-5.729-4.945-8.688-10.222-7.26
									c-2.021,0.553-2.146,2.605-4.36,2.16C2667.987,1255.871,2679.857,1258.9,2680.762,1266.226z"/>
							</g>
						</g>
					</g>
				</g>
			</g>
			<g>
				<g>
					<g>
						<g>
							<g>
								<path fill="#EC68A4" d="M2744.736,1247.332c2.938-0.154,4.695,1.356,5.453,4.278c1.78-0.733,4.627-1.751,6.058-0.557
									c0.524,2.448-2.786,0.678-4.901,1.774c-0.404,1.396,0.875,3.106-0.142,4.756c-2.079-0.865-1.289-5.781-3.085-7.046
									C2747.469,1248.801,2744.857,1249.822,2744.736,1247.332z"/>
							</g>
						</g>
					</g>
				</g>
			</g>
			<g>
				<g>
					<g>
						<g>
							<g>
								<path fill="#EC68A4" d="M2672.502,1273.304c4.168,0.913,4.23,4.089,8.751,4.194c5.979,0.139,13.95-6.536,16.563,0.032
									C2690.645,1274.457,2674.584,1283.501,2672.502,1273.304z"/>
							</g>
						</g>
					</g>
				</g>
			</g>
		</g>
	</g>
	<circle fill="#191717" cx="2648.184" cy="1345.996" r="6.14"/>
	<circle fill="#191717" cx="2721.859" cy="1345.996" r="6.141"/>
	<path fill="none" stroke="#645655" stroke-width="5.7703" stroke-linecap="round" stroke-miterlimit="10" d="M2685.85,1361.644
		c6.446,0,11.677,5.227,11.677,11.676l0,0c0,6.444-5.229,11.671-11.677,11.671"/>
	<path fill="none" stroke="#645655" stroke-width="5.0313" stroke-linecap="round" stroke-miterlimit="10" d="M2714.052,1402.955
		c-3.97,5.029-12.374,11.601-27.638,11.601c-15.263,0-24.311-6.124-27.637-11.601"/>
</g>
<g>
	<g>
		<path fill="#FC855B" d="M3179.322,1211.747c0,0,16.967-1.286,17.74,21.082c0.77,22.368,2.313,33.68,2.313,33.68
			s1.799,16.199,1.799,18.512c0,2.313,0.417,13.211-3.854,23.073c-3.927,9.064-10.541,18.577-17.996,17.808
			c-7.457-0.772-14.656-6.431-17.228-19.027c-2.57-12.597-1.543-17.738,0-42.936c1.543-25.195,0.758-31.627,0.758-31.627
			S3160.531,1213.162,3179.322,1211.747z"/>
		<path fill="none" d="M3162.225,1261.984c4.05,11.139,8.453,16.016,18.011,16.016h0.121c12.979,0,17.897-7.191,17.897-21.07
			l-1.549-27.966c-0.287-7.836-6.793-16.964-16.35-16.964h-0.121c-9.558,0-17.433,7.551-17.433,16.865L3162.225,1261.984z"/>
		<path fill="#C0BFA4" d="M3178.678,1216c0,0-9.646,0.957-10.933,9.959c-1.284,8.994-1.284,17.446-1.284,17.446
			s-1.863,9.495,6.14,11.808c7.294,2.111,6.55,0.367,6.8,2.868l-0.016,0.849c0.025-0.161,0.046-0.307,0.063-0.447
			c0,41.03,0.035,0.284,0.063,0.443l-0.019-0.853c0.252-2.503-0.491-0.768,6.803-2.876c8.001-2.313,6.14-11.826,6.14-11.826
			s0-8.415-1.285-17.414c-1.284-8.998-10.295-9.957-10.295-9.957H3178.678z"/>
		<path fill="#B5573E" d="M3168.34,1252.515c0.947,1.172,2.31,2.164,4.262,2.729c7.293,2.109,6.55,0.351,6.8,2.854l-0.017,0.84
			c0.025-0.159,0.046-0.31,0.063-0.448c0,41.027,0.034,0.28,0.063,0.44l-0.018-0.854c0.252-2.502-0.492-0.768,6.802-2.877
			c1.914-0.553,3.259-1.521,4.204-2.669C3186.811,1251.901,3176.764,1250.537,3168.34,1252.515z"/>
		<line fill="none" x1="3189" y1="1253" x2="3189" y2="1277"/>
		<line fill="none" x1="3169" y1="1256" x2="3169" y2="1275"/>
		<path fill="#B5573E" d="M3168.168,1272.902c3.039,3.655,6.781,4.727,12.188,4.727c4.853-0.681,17.155,1.993,17.929-21.598
			c0,0,2.895,22.097,2.895,26.677l-0.686,13.857c-1.129,5.558-5.476,9.601-10.888,9.601c-4.754,0-8.737-2.859-9.641-6.657
			c-0.905,3.798-4.89,6.657-9.643,6.657c-2.914,0-5.223-0.571-6.845-2.083c-1.391-1.3-2.276-3.289-2.604-6.208l-0.342-10.155
			l1.692-25.92C3162.225,1260.992,3163.1,1266.807,3168.168,1272.902z"/>
		<rect x="3176" y="1227" fill="#78A89B" width="6" height="17"/>
		<line fill="none" stroke="#B5573E" stroke-width="2" stroke-miterlimit="10" x1="3185" y1="1260" x2="3174" y2="1260"/>
		<line fill="none" stroke="#B5573E" stroke-width="2" stroke-miterlimit="10" x1="3185" y1="1265" x2="3174" y2="1265"/>
		<line fill="none" stroke="#B5573E" stroke-width="2" stroke-miterlimit="10" x1="3185" y1="1269" x2="3174" y2="1269"/>
		<line fill="none" x1="3185" y1="1275" x2="3174" y2="1275"/>
		<path fill="#FC855B" d="M3136.746,1211.747c0,0-16.968-1.286-17.74,21.082c-0.771,22.368-2.313,33.68-2.313,33.68
			s-1.801,16.199-1.801,18.512c0,2.313-0.414,13.211,3.857,23.073c3.926,9.064,10.541,18.577,17.996,17.808
			c7.457-0.772,14.656-6.431,17.227-19.027s1.543-17.738,0-42.936c-1.543-25.195-0.758-31.627-0.758-31.627
			S3155.537,1213.162,3136.746,1211.747z"/>
		<path fill="none" d="M3153.844,1261.984c-4.049,11.139-8.451,16.016-18.01,16.016h-0.123c-12.977,0-17.896-7.191-17.896-21.07
			l1.55-27.966c0.287-7.836,6.793-16.964,16.348-16.964h0.123c9.558,0,17.432,7.551,17.432,16.865L3153.844,1261.984z"/>
		<path fill="#C0BFA4" d="M3137.391,1216c0,0,9.646,0.957,10.931,9.959c1.287,8.994,1.287,17.446,1.287,17.446
			s1.862,9.495-6.14,11.808c-7.295,2.111-6.553,0.367-6.801,2.868l0.014,0.849c-0.022-0.161-0.043-0.307-0.061-0.447
			c0,41.03-0.037,0.284-0.063,0.443l0.016-0.853c-0.252-2.503,0.494-0.768-6.801-2.876c-8.002-2.313-6.139-11.826-6.139-11.826
			s0-8.415,1.284-17.414c1.285-8.998,10.295-9.957,10.295-9.957H3137.391z"/>
		<path fill="#B5573E" d="M3147.727,1252.515c-0.946,1.172-2.309,2.164-4.258,2.729c-7.295,2.109-6.553,0.351-6.801,2.854
			l0.014,0.84c-0.022-0.159-0.044-0.31-0.061-0.448c0,41.027-0.037,0.28-0.063,0.44l0.017-0.854
			c-0.252-2.502,0.494-0.768-6.801-2.877c-1.914-0.553-3.259-1.521-4.205-2.669
			C3129.256,1251.901,3139.303,1250.537,3147.727,1252.515z"/>
		<line fill="none" x1="3126" y1="1253" x2="3126" y2="1277"/>
		<line fill="none" x1="3147" y1="1256" x2="3147" y2="1275"/>
		<path fill="#B5573E" d="M3147.898,1272.902c-3.037,3.655-6.781,4.727-12.188,4.727c-4.851-0.681-17.154,1.993-17.924-21.598
			c0,0-2.896,22.097-2.896,26.677l0.686,13.857c1.13,5.558,5.474,9.601,10.888,9.601c4.753,0,8.736-2.859,9.641-6.657
			c0.905,3.798,4.89,6.657,9.642,6.657c2.914,0,5.224-0.571,6.846-2.083c1.393-1.3,2.275-3.289,2.604-6.208l0.344-10.155
			l-1.693-25.92C3153.844,1260.992,3152.968,1266.807,3147.898,1272.902z"/>
		<rect x="3133" y="1227" fill="#78A89B" width="5" height="17"/>
		<line fill="none" stroke="#B5573E" stroke-width="2" stroke-miterlimit="10" x1="3131" y1="1260" x2="3143" y2="1260"/>
		<line fill="none" stroke="#B5573E" stroke-width="2" stroke-miterlimit="10" x1="3131" y1="1265" x2="3143" y2="1265"/>
		<line fill="none" stroke="#B5573E" stroke-width="2" stroke-miterlimit="10" x1="3131" y1="1269" x2="3143" y2="1269"/>
		<line fill="none" x1="3133" y1="1275" x2="3143" y2="1275"/>
	</g>
	<path fill="#203C59" d="M3085,1311.641c0,3.048-1.98,5.359-4.97,5.359h-81.62c-2.988,0-5.41-2.313-5.41-5.359v-91.588
		c0-3.046,2.422-6.053,5.41-6.053h81.62c2.989,0,4.97,3.007,4.97,6.053V1311.641z"/>
	<path fill="#162C3F" d="M3055.289,1225l29.711,7.248v-14.027c0-3.131-0.206-5.221-3.338-5.221h-81.469
		c-3.131,0-7.193,2.09-7.193,5.221v13.85l32.658-7.069L3055.289,1225L3055.289,1225z"/>
	<rect x="3033" y="1239" fill="#5FA18B" width="14" height="78"/>
	<polyline fill="none" points="2995.283,1232.791 3026.264,1225 3055.893,1225 3088.086,1235.104 	"/>
	<path fill="none" d="M3021,1269h-15.02c1.563,2,2.02,3.299,2.02,5.298v37.032c0,1.366-1.088,2.621-1.895,3.601l14.895,0.104V1269z"
		/>
	<path fill="none" d="M3008,1274.298c0-1.999-0.455-3.298-2.02-5.298h-11.76c0,0,0.378,32.943,0.151,39.945
		c-0.151,4.712,5.67,5.803,5.67,5.803l6.959,0.113c0.805-0.979,0.998-2.165,0.998-3.531L3008,1274.298L3008,1274.298z"/>
	<line fill="none" x1="2995" y1="1286" x2="3023" y2="1286"/>
	<line fill="none" x1="3001" y1="1286" x2="3001" y2="1301"/>
	<line fill="none" x1="3016" y1="1286" x2="3016" y2="1301"/>
	<line fill="none" x1="3063" y1="1286" x2="3089" y2="1286"/>
	<line fill="none" x1="2998" y1="1280" x2="3007" y2="1280"/>
	<line fill="none" x1="3040" y1="1253" x2="3040" y2="1263"/>
	<line fill="none" x1="3040" y1="1275" x2="3040" y2="1286"/>
	<line fill="none" x1="3040" y1="1297" x2="3040" y2="1308"/>
	<line fill="none" x1="3040" y1="1297" x2="3040" y2="1308"/>
	<path fill="#FF865D" d="M3004,1279.51c0,1.375-1.115,2.49-2.49,2.49h-0.02c-1.375,0-2.49-1.115-2.49-2.49v-0.02
		c0-1.375,1.115-2.49,2.49-2.49h0.02c1.375,0,2.49,1.115,2.49,2.49V1279.51z"/>
	<path fill="#FF865D" d="M3043,1259.511c0,1.375-1.115,2.489-2.49,2.489h-0.02c-1.375,0-2.49-1.114-2.49-2.489v-0.021
		c0-1.375,1.115-2.489,2.49-2.489h0.02c1.375,0,2.49,1.114,2.49,2.489V1259.511z"/>
	<path fill="#FF865D" d="M3043,1282.51c0,1.375-1.115,2.49-2.49,2.49h-0.02c-1.375,0-2.49-1.115-2.49-2.49v-0.02
		c0-1.375,1.115-2.49,2.49-2.49h0.02c1.375,0,2.49,1.115,2.49,2.49V1282.51z"/>
	<path fill="#FF865D" d="M3043,1301.511c0,1.375-1.115,2.489-2.49,2.489h-0.02c-1.375,0-2.49-1.114-2.49-2.489v-0.021
		c0-1.375,1.115-2.489,2.49-2.489h0.02c1.375,0,2.49,1.114,2.49,2.489V1301.511z"/>
	<path fill="none" d="M3061,1280v6.616V1316h15.9c0,0,2.145,0,4.786,0h0.103c2.334,0,3.486-2.531,3.91-4.742l-0.699-0.595v-1.45
		V1280H3061z"/>
	<polygon fill="#162C3F" points="3085,1278 3061,1278 3061,1285.104 3061,1286 3085,1286 	"/>
	<path fill="#78A89B" d="M3030.406,1255.989l10.666-12.207c0,0-19.789-24.782-20.502-30.782h-9.117
		C3011.453,1213,3011.453,1230.44,3030.406,1255.989z"/>
	<path fill="#78A89B" d="M3051.746,1255.989l-10.667-12.207c0,0,19.788-24.782,20.502-30.782h9.117
		C3070.698,1213,3070.698,1230.44,3051.746,1255.989z"/>
	<polygon fill="#162C3F" points="3041.121,1244.502 3036.623,1239 3045.613,1239 	"/>
</g>
<path fill="#FFFFFF" d="M1359.243,79.438c-25.279-30.159-63.862-6.654-80.715-6.654c-16.854,0-55.438-23.505-80.718,6.654
	c-25.276,30.156-23.945,72.286-10.642,97.566c13.304,25.28,14.635,62.979,15.078,78.941c0.442,15.966,10.153,41.244,25.922,41.244
	s29.515-72.289,50.358-72.289s34.593,72.289,50.359,72.289c15.768,0,25.479-25.278,25.92-41.244
	c0.443-15.965,1.773-53.661,15.078-78.941C1383.193,151.725,1384.523,109.595,1359.243,79.438z"/>
<g>
	<path fill="#2DC4A7" d="M259,248.109c0,6.555-1.956,12.891-8.389,12.891H75.021C68.593,261,61,254.664,61,248.109V51.073
		C61,44.521,68.593,39,75.021,39h175.59c6.433,0,8.389,5.521,8.389,12.073V248.109z"/>
	<path fill="#21826F" d="M197.387,63L259,77.31V47.132C259,40.396,258.708,37,251.973,37H72.404C65.668,37,61,40.396,61,47.132
		v29.793L133.641,63H197.387z"/>
	<rect x="147" y="93" fill="#42E8CE" width="30" height="168"/>
	<polyline fill="none" points="68.295,79.118 134.943,63 198.681,63 267.943,84.418 	"/>
	<path fill="none" d="M121,158H91.308c3.366,4,1.692,5.472,1.692,9.772v79.668c0,2.939-2.324,5.64-4.06,7.746l32.06,0.221V158z"/>
	<path fill="none" d="M93,167.772c0-4.301,1.674-5.772-1.692-9.772H66.009c0,0,0.815,70.059,0.327,85.122
		C66.009,253.261,78.534,255.2,78.534,255.2l13.645,0.04c1.731-2.105,0.821-4.86,0.821-7.8V167.772z"/>
	<line fill="none" x1="65" y1="194" x2="126" y2="194"/>
	<line fill="none" x1="78" y1="194" x2="78" y2="226"/>
	<line fill="none" x1="110" y1="194" x2="110" y2="226"/>
	<line fill="none" x1="212" y1="194" x2="268" y2="194"/>
	<line fill="none" x1="72" y1="181" x2="91" y2="181"/>
	<line fill="none" x1="162" y1="123" x2="162" y2="145"/>
	<line fill="none" x1="162" y1="170" x2="162" y2="194"/>
	<line fill="none" x1="162" y1="218" x2="162" y2="241"/>
	<line fill="#42E8CE" x1="162" y1="218" x2="162" y2="241"/>
	<path fill="#F39463" d="M85,180.643c0,2.959-2.398,5.357-5.357,5.357h-0.285c-2.959,0-5.357-2.398-5.357-5.357v-0.285
		c0-2.959,2.398-5.357,5.357-5.357h0.285c2.959,0,5.357,2.398,5.357,5.357V180.643z"/>
	<path fill="#F39463" d="M169,137.645c0,2.958-2.398,5.355-5.357,5.355h-0.285c-2.959,0-5.357-2.397-5.357-5.355v-0.289
		c0-2.958,2.398-5.355,5.357-5.355h0.285c2.959,0,5.357,2.397,5.357,5.355V137.645z"/>
	<path fill="#F39463" d="M169,186.643c0,2.959-2.398,5.357-5.357,5.357h-0.285c-2.959,0-5.357-2.398-5.357-5.357v-0.285
		c0-2.959,2.398-5.357,5.357-5.357h0.285c2.959,0,5.357,2.398,5.357,5.357V186.643z"/>
	<path fill="#F39463" d="M169,227.645c0,2.958-2.398,5.355-5.357,5.355h-0.285c-2.959,0-5.357-2.397-5.357-5.355v-0.289
		c0-2.958,2.398-5.355,5.357-5.355h0.285c2.959,0,5.357,2.397,5.357,5.355V227.645z"/>
	<path fill="none" d="M207,181v13.273V259h36.879c0,0,4.614,0,10.299,0h0.219c5.021,0,6.348-6.203,7.26-10.96L259,246.006v-3.12V181
		H207z"/>
	<polygon fill="#21826F" points="259,177 207,177 207,191.019 207,194 259,194 	"/>
	<path fill="#42E8CE" d="M143.855,128.936l22.946-25.988c0,0-42.573-52.947-44.106-65.947h-19.614
		C103.081,37,103.081,73.971,143.855,128.936z"/>
	<path fill="#42E8CE" d="M189.765,128.936l-22.95-25.988c0,0,42.572-52.947,44.105-65.947h19.615
		C230.535,37,230.535,73.971,189.765,128.936z"/>
	<polygon fill="#21826F" points="166.906,104.836 157.23,93 176.57,93 	"/>
</g>
<polygon fill="#DD5A50" points="117,579 233.865,579 250.957,338 117,338 "/>
<polygon fill="#F37264" points="231.393,578 86.454,578 80.984,295 239.596,295 "/>
<rect x="82" y="300" fill="#B5573E" width="161" height="22"/>
<rect x="103" y="293" fill="#DD5A50" width="19" height="36"/>
<rect x="201" y="293" fill="#DD5A50" width="20" height="36"/>
<polygon fill="#DD5A50" points="195.842,423.027 163.938,434.764 127.474,423.31 124.74,364 198.577,364 "/>
<line fill="none" stroke="#F39463" stroke-width="3" stroke-miterlimit="10" x1="125" y1="383.5" x2="199" y2="383.5"/>
<circle fill="#114859" cx="162.047" cy="397.507" r="4.785"/>
</svg>
