<?xml version="1.0" encoding="utf-8"?>
<!-- Generator: Adobe Illustrator 16.0.0, SVG Export Plug-In . SVG Version: 6.00 Build 0)  -->
<!DOCTYPE svg PUBLIC "-//W3C//DTD SVG 1.1//EN" "http://www.w3.org/Graphics/SVG/1.1/DTD/svg11.dtd">
<svg version="1.1" id="Layer_1" xmlns="http://www.w3.org/2000/svg" xmlns:xlink="http://www.w3.org/1999/xlink" x="0px" y="0px"
	 width="75.195px" height="125px" viewBox="0 0 75.195 125" enable-background="new 0 0 75.195 125" xml:space="preserve">
<g>
	<path fill="#FFFFFF" d="M15,83.863v21.484c0,0-0.271,9.152,13.256,9.549c13.526,0.396,20.55,0,20.55,0s9.084-0.793,9.882-10.741
		c0.794-9.946,0.162-31.829,0.162-31.829s0.282-25.464-10.062-31.031c0,0-15.653-1.195-15.257,3.579
		c0.395,4.774,1.202,6.767,1.602,9.153s1.994,6.763-1.188,9.148c-3.184,2.387-7.881,5.967-11.464,9.15
		C18.902,75.512,15,80.281,15,83.863z"/>
	<path fill="#43B5E7" d="M20.6,79c-1.142,0-2.6,2.779-2.6,4.42v19.484c0,0-0.54,8.303,11.726,8.664c12.271,0.355,18.491,0,18.491,0
		s8.165-0.224,8.889-9.249C57.597,96.171,57.54,85,57.396,79H20.6z"/>
	<path fill="#FFFFFF" d="M39.234,40c0,0,0,0.447,2.523,21.533c0.678,5.666,0.488,15.741-2.154,25.688
		c-1.383,5.208-4.461,13.491-4.461,13.491l2.148,1.123c0,0,3.371-9.981,3.674-11.175s3.732-14.747,2.998-27.001
		C43.227,51.403,41.512,40,41.512,40H39.234z"/>
	<polygon fill="#F8DB62" points="35,43.283 35,28.959 48.566,31.746 48.426,41.295 	"/>
	<path fill="#DB675E" d="M48.242,31.746c0,0,0.93-5.67,4.51-5.67c3.582,0,7.709,2.04,9.299,0.05
		c1.591-1.986,3.657-4.075-4.697-9.249C48.999,11.705,50.828,12,42.19,12s-26.938,0-26.938,0s-1.592,4.102,0,8.381
		c1.591,4.279,4.375,2.054,7.16,2.054c2.787,0,11.936,3.956,11.936,11.12L48.242,31.746z"/>
	<path fill="#F8DB62" d="M24.029,22.913c0,0,2.76,7.641-2.015,10.824c-4.772,3.183-8.751,3.977-8.751,3.977
		s-1.443,1.546,4.201,1.439c2.521-0.047,5.316-0.638,8.953-3.032c3.853-2.537,5.018-9.061,5.018-9.061S28.682,22.913,24.029,22.913z
		"/>
</g>
</svg>
