<?xml version="1.0" encoding="utf-8"?>
<!-- Generator: Adobe Illustrator 16.0.0, SVG Export Plug-In . SVG Version: 6.00 Build 0)  -->
<!DOCTYPE svg PUBLIC "-//W3C//DTD SVG 1.1//EN" "http://www.w3.org/Graphics/SVG/1.1/DTD/svg11.dtd">
<svg version="1.1" id="Layer_1" xmlns="http://www.w3.org/2000/svg" xmlns:xlink="http://www.w3.org/1999/xlink" x="0px" y="0px"
	 width="414.147px" height="470px" viewBox="0 0 414.147 470" enable-background="new 0 0 414.147 470" xml:space="preserve">
<g>
	<g>
		<path fill="#F44040" d="M1699.471,1076.12c0.916-7.672-5.004-13.834-12.676-14.75l-0.713-0.085
			c-7.673-0.917-13.619,3.831-14.534,11.505l-3.856,32.322l27.924,3.333L1699.471,1076.12z"/>
		<path fill="#D4E3F9" d="M1667.691,1105.112l-3.217,26.957c-0.916,7.674,3.604,14.862,11.277,15.779l0.713,0.084
			c7.674,0.918,15.018-4.858,15.933-12.533l3.218-26.954L1667.691,1105.112z"/>
	</g>
	<path fill="#FFFFFF" d="M1674.007,1096.694c-0.99-0.119-0.952-0.93-0.834-1.928l1.986-16.633c0.12-0.994,0.272-1.793,1.262-1.674
		c0.995,0.118,0.95,0.928,0.833,1.922l-1.985,16.638C1675.148,1096.015,1675.002,1096.812,1674.007,1096.694z"/>
	<path fill="#FFFFFF" d="M1677.307,1072.917c-0.992-0.119-1.703-1.02-1.584-2.016l0,0c0.117-0.996,1.021-1.703,2.015-1.584
		c0.995,0.119,1.702,1.02,1.584,2.014l0,0C1679.202,1072.325,1678.302,1073.037,1677.307,1072.917z"/>
</g>
<g>
	<g>
		<path fill="#F44040" d="M1635.651,1104.171c-4.791-6.066-13.335-6.226-19.397-1.438l-0.564,0.445
			c-6.065,4.789-6.899,12.35-2.11,18.416l20.169,25.551l22.073-17.427L1635.651,1104.171z"/>
		<path fill="#D4E3F9" d="M1633.748,1147.146l16.823,21.308c4.788,6.065,13.072,7.94,19.137,3.151l0.563-0.445
			c6.064-4.789,7.159-14.066,2.371-20.131l-16.821-21.31L1633.748,1147.146z"/>
	</g>
	<path fill="#FFFFFF" d="M1632.244,1136.728c-0.783,0.617-1.33,0.018-1.953-0.77l-10.379-13.148
		c-0.62-0.783-1.078-1.459-0.296-2.075c0.788-0.62,1.33-0.019,1.952,0.77l10.38,13.147
		C1632.568,1135.439,1633.031,1136.106,1632.244,1136.728z"/>
	<path fill="#FFFFFF" d="M1617.734,1117.605c-0.785,0.618-1.928,0.486-2.546-0.299l0,0c-0.624-0.789-0.487-1.927,0.299-2.548
		c0.787-0.619,1.923-0.486,2.546,0.301l0,0C1618.654,1115.847,1618.521,1116.986,1617.734,1117.605z"/>
</g>
<g>
	<circle fill="#D9D9D9" cx="1637.351" cy="1051.233" r="19.441"/>
	<g>
		<path fill="#ECECEC" d="M1654.951,1059.448c3.972-8.496,1.334-18.85-6.666-24.29c-8.002-5.442-18.602-4.091-25.037,2.726
			L1654.951,1059.448z"/>
		<path fill="#ECECEC" d="M1619.755,1043.022c-3.974,8.49-1.336,18.846,6.665,24.285c8.001,5.443,18.601,4.09,25.038-2.727
			L1619.755,1043.022z"/>
	</g>
</g>
<g>
	<circle fill="#D9D9D9" cx="1662.04" cy="1005.684" r="19.44"/>
	<g>
		<path fill="#ECECEC" d="M1671.227,1022.794c8.266-4.426,12.348-14.301,9.192-23.447c-3.154-9.149-12.458-14.408-21.692-12.797
			L1671.227,1022.794z"/>
		<path fill="#ECECEC" d="M1652.854,988.575c-8.264,4.426-12.347,14.299-9.191,23.447c3.155,9.146,12.456,14.404,21.693,12.795
			L1652.854,988.575z"/>
	</g>
</g>
<path fill="#FFFFFF" d="M1894.086,831.197h-162.604c-7.381,0-13.366,5.989-13.366,13.366v228.791
	c0,7.387,5.985,13.367,13.366,13.367h162.604c7.381,0,13.365-5.98,13.365-13.367V844.563
	C1907.451,837.187,1901.467,831.197,1894.086,831.197z"/>
<path opacity="0.6" fill="#999999" d="M1815.252,1064.034c2.272,0,4.117-1.838,4.117-4.111V929.31c0-2.273-1.845-4.112-4.117-4.112
	c-2.271,0-4.117,1.839-4.117,4.112v130.613C1811.135,1062.196,1812.98,1064.034,1815.252,1064.034z"/>
<path opacity="0.6" fill="#999999" d="M1815.252,905.528c2.272,0,4.117-1.84,4.117-4.113v-34.323c0-2.283-1.845-4.121-4.117-4.121
	c-2.271,0-4.117,1.838-4.117,4.121v34.323C1811.135,903.688,1812.98,905.528,1815.252,905.528z"/>
<g>
	<path fill="#339CDD" d="M1872.059,904.899c-9.494,7.955-23.638,6.703-31.59-2.789c-7.953-9.496-6.704-23.64,2.789-31.594
		c9.492-7.951,23.637-6.704,31.591,2.791C1882.803,882.802,1881.555,896.944,1872.059,904.899z"/>
	<g>
		<path fill="#54B4EF" d="M1874.604,902.358c7.082-8.172,7.412-20.492,0.245-29.051c-7.167-8.555-19.357-10.39-28.644-4.851
			L1874.604,902.358z"/>
		<path fill="#54B4EF" d="M1840.712,873.058c-7.079,8.174-7.411,20.494-0.243,29.053c7.166,8.555,19.355,10.389,28.645,4.85
			L1840.712,873.058z"/>
	</g>
</g>
<g>
	<path fill="#339CDD" d="M1872.059,979.536c-9.494,7.955-23.638,6.705-31.59-2.789c-7.953-9.496-6.704-23.639,2.789-31.594
		c9.492-7.951,23.637-6.701,31.591,2.791S1881.555,971.581,1872.059,979.536z"/>
	<g>
		<path fill="#54B4EF" d="M1874.604,976.997c7.082-8.174,7.412-20.495,0.245-29.053c-7.167-8.553-19.357-10.391-28.644-4.85
			L1874.604,976.997z"/>
		<path fill="#54B4EF" d="M1840.712,947.696c-7.079,8.172-7.411,20.493-0.243,29.051c7.166,8.556,19.355,10.391,28.645,4.85
			L1840.712,947.696z"/>
	</g>
</g>
<g>
	<path fill="#339CDD" d="M1872.059,1054.174c-9.494,7.956-23.638,6.704-31.59-2.788c-7.953-9.497-6.704-23.641,2.789-31.594
		c9.492-7.951,23.637-6.705,31.591,2.791C1882.803,1032.075,1881.555,1046.219,1872.059,1054.174z"/>
	<g>
		<path fill="#54B4EF" d="M1874.604,1051.634c7.082-8.172,7.412-20.492,0.245-29.051c-7.167-8.555-19.357-10.391-28.644-4.852
			L1874.604,1051.634z"/>
		<path fill="#54B4EF" d="M1840.712,1022.333c-7.079,8.173-7.411,20.494-0.243,29.053c7.166,8.555,19.355,10.389,28.645,4.85
			L1840.712,1022.333z"/>
	</g>
</g>
<g>
	<path fill="#339CDD" d="M1787.584,904.899c-9.492,7.955-23.637,6.703-31.589-2.789c-7.953-9.496-6.704-23.64,2.788-31.594
		c9.494-7.951,23.638-6.704,31.592,2.791C1798.33,882.802,1797.081,896.944,1787.584,904.899z"/>
	<g>
		<path fill="#54B4EF" d="M1790.13,902.358c7.082-8.172,7.413-20.492,0.245-29.051c-7.167-8.555-19.357-10.39-28.643-4.851
			L1790.13,902.358z"/>
		<path fill="#54B4EF" d="M1756.237,873.058c-7.079,8.174-7.409,20.494-0.242,29.053c7.167,8.555,19.354,10.389,28.645,4.85
			L1756.237,873.058z"/>
	</g>
</g>
<g>
	<path fill="#339CDD" d="M1787.584,979.536c-9.492,7.955-23.637,6.705-31.589-2.789c-7.953-9.496-6.704-23.639,2.788-31.594
		c9.494-7.951,23.638-6.701,31.592,2.791C1798.33,957.437,1797.081,971.581,1787.584,979.536z"/>
	<g>
		<path fill="#54B4EF" d="M1790.13,976.997c7.082-8.174,7.413-20.495,0.245-29.053c-7.167-8.553-19.357-10.391-28.643-4.85
			L1790.13,976.997z"/>
		<path fill="#54B4EF" d="M1756.237,947.696c-7.079,8.172-7.409,20.493-0.242,29.051c7.167,8.556,19.354,10.391,28.645,4.85
			L1756.237,947.696z"/>
	</g>
</g>
<g>
	<path fill="#339CDD" d="M1787.584,1054.174c-9.492,7.956-23.637,6.704-31.589-2.788c-7.953-9.497-6.704-23.641,2.788-31.594
		c9.494-7.951,23.638-6.705,31.592,2.791C1798.33,1032.075,1797.081,1046.219,1787.584,1054.174z"/>
	<g>
		<path fill="#54B4EF" d="M1790.13,1051.634c7.082-8.172,7.413-20.492,0.245-29.051c-7.167-8.555-19.357-10.391-28.643-4.852
			L1790.13,1051.634z"/>
		<path fill="#54B4EF" d="M1756.237,1022.333c-7.079,8.173-7.409,20.494-0.242,29.053c7.167,8.555,19.354,10.389,28.645,4.85
			L1756.237,1022.333z"/>
	</g>
</g>
<g>
	<path fill="#F0F1F1" d="M1406,1395c0,4.418-3.582,8-8,8h-216c-4.418,0-8-3.582-8-8v-129c0-4.418,3.582-8,8-8h216
		c4.418,0,8,3.582,8,8V1395z"/>
	<polygon fill="none" stroke="#E66945" stroke-width="8" stroke-miterlimit="10" points="1204.348,1347 1232.987,1300.68 
		1261.626,1347 	"/>
	<polygon fill="none" stroke="#E66945" stroke-width="8" stroke-miterlimit="10" points="1261.626,1316 1232.987,1362.327 
		1204.348,1316 	"/>
	<path opacity="0.8" fill="#999999" d="M1373.59,1316.464c0,2.321-1.886,4.208-4.207,4.208h-46.833c-2.32,0-4.2-1.887-4.2-4.208
		c0-2.32,1.88-4.203,4.2-4.203h46.833C1371.704,1312.261,1373.59,1314.144,1373.59,1316.464"/>
	<path opacity="0.8" fill="#999999" d="M1373.59,1335.788c0,2.322-1.886,4.207-4.207,4.207h-36.396
		c-2.321,0-4.201-1.885-4.201-4.207c0-2.321,1.88-4.202,4.201-4.202h36.396C1371.704,1331.586,1373.59,1333.467,1373.59,1335.788"/>
	<path opacity="0.8" fill="#999999" d="M1373.59,1355.112c0,2.321-1.886,4.208-4.207,4.208h-57.561c-2.321,0-4.2-1.887-4.2-4.208
		s1.879-4.203,4.2-4.203h57.561C1371.704,1350.909,1373.59,1352.791,1373.59,1355.112"/>
</g>
<g>
	<rect x="1244" y="1836" fill="#B28083" width="77" height="23"/>
	<rect x="1283" y="1836" fill="#936C70" width="38" height="23"/>
	<g>
		<defs>
			<path id="SVGID_1_" d="M1386.474,1881.621L1328.255,1854h-46.243h-46.241l-58.219,27.621l-52.154,122.6l4.39,137.779h40.935
				l1.109-104.364c0,0,12.169-25.855,19.169-48.331v154.092l91,16.576l91-16.576v-154.092c10,22.476,19.185,48.331,19.185,48.331
				l1.121,104.364h40.935l4.385-137.779L1386.474,1881.621z"/>
		</defs>
		<clipPath id="SVGID_2_">
			<use xlink:href="#SVGID_1_"  overflow="visible"/>
		</clipPath>
		<g clip-path="url(#SVGID_2_)">
			<g>
				<g>
					<g>
						<rect x="1119" y="1849" fill="#413E49" width="20" height="20"/>
						<rect x="1139" y="1849" fill="#23685C" width="20" height="20"/>
						<rect x="1119" y="1869" fill="#23685C" width="20" height="22"/>
						<rect x="1139" y="1869" fill="#BDD630" width="20" height="22"/>
					</g>
					<g>
						<rect x="1159" y="1849" fill="#413E49" width="22" height="20"/>
						<rect x="1181" y="1849" fill="#23685C" width="20" height="20"/>
						<rect x="1159" y="1869" fill="#23685C" width="22" height="22"/>
						<rect x="1181" y="1869" fill="#BDD630" width="20" height="22"/>
					</g>
					<g>
						<rect x="1119" y="1891" fill="#413E49" width="20" height="20"/>
						<rect x="1139" y="1891" fill="#23685C" width="20" height="20"/>
						<rect x="1119" y="1911" fill="#23685C" width="20" height="20"/>
						<rect x="1139" y="1911" fill="#BDD630" width="20" height="20"/>
					</g>
					<g>
						<rect x="1159" y="1891" fill="#413E49" width="22" height="20"/>
						<rect x="1181" y="1891" fill="#23685C" width="20" height="20"/>
						<rect x="1159" y="1911" fill="#23685C" width="22" height="20"/>
						<rect x="1181" y="1911" fill="#BDD630" width="20" height="20"/>
					</g>
					<g>
						<rect x="1119" y="1931" fill="#413E49" width="20" height="20"/>
						<rect x="1139" y="1931" fill="#23685C" width="20" height="20"/>
						<rect x="1119" y="1951" fill="#23685C" width="20" height="22"/>
						<rect x="1139" y="1951" fill="#BDD630" width="20" height="22"/>
					</g>
					<g>
						<rect x="1159" y="1931" fill="#413E49" width="22" height="20"/>
						<rect x="1181" y="1931" fill="#23685C" width="20" height="20"/>
						<rect x="1159" y="1951" fill="#23685C" width="22" height="22"/>
						<rect x="1181" y="1951" fill="#BDD630" width="20" height="22"/>
					</g>
					<g>
						<rect x="1119" y="1973" fill="#413E49" width="20" height="20"/>
						<rect x="1139" y="1973" fill="#23685C" width="20" height="20"/>
						<rect x="1119" y="1993" fill="#23685C" width="20" height="20"/>
						<rect x="1139" y="1993" fill="#BDD630" width="20" height="20"/>
					</g>
					<g>
						<rect x="1159" y="1973" fill="#413E49" width="22" height="20"/>
						<rect x="1181" y="1973" fill="#23685C" width="20" height="20"/>
						<rect x="1159" y="1993" fill="#23685C" width="22" height="20"/>
						<rect x="1181" y="1993" fill="#BDD630" width="20" height="20"/>
					</g>
					<g>
						<rect x="1201" y="1849" fill="#413E49" width="20" height="20"/>
						<rect x="1221" y="1849" fill="#23685C" width="20" height="20"/>
						<rect x="1201" y="1869" fill="#23685C" width="20" height="22"/>
						<rect x="1221" y="1869" fill="#BDD630" width="20" height="22"/>
					</g>
					<g>
						<rect x="1241" y="1849" fill="#413E49" width="23" height="20"/>
						<rect x="1264" y="1849" fill="#23685C" width="19" height="20"/>
						<rect x="1241" y="1869" fill="#23685C" width="23" height="22"/>
						<rect x="1264" y="1869" fill="#BDD630" width="19" height="22"/>
					</g>
					<g>
						<rect x="1201" y="1891" fill="#413E49" width="20" height="20"/>
						<rect x="1221" y="1891" fill="#23685C" width="20" height="20"/>
						<rect x="1201" y="1911" fill="#23685C" width="20" height="20"/>
						<rect x="1221" y="1911" fill="#BDD630" width="20" height="20"/>
					</g>
					<g>
						<rect x="1241" y="1891" fill="#413E49" width="23" height="20"/>
						<rect x="1264" y="1891" fill="#23685C" width="19" height="20"/>
						<rect x="1241" y="1911" fill="#23685C" width="23" height="20"/>
						<rect x="1264" y="1911" fill="#BDD630" width="19" height="20"/>
					</g>
					<g>
						<rect x="1201" y="1931" fill="#413E49" width="20" height="20"/>
						<rect x="1221" y="1931" fill="#23685C" width="20" height="20"/>
						<rect x="1201" y="1951" fill="#23685C" width="20" height="22"/>
						<rect x="1221" y="1951" fill="#BDD630" width="20" height="22"/>
					</g>
					<g>
						<rect x="1241" y="1931" fill="#413E49" width="23" height="20"/>
						<rect x="1264" y="1931" fill="#23685C" width="19" height="20"/>
						<rect x="1241" y="1951" fill="#23685C" width="23" height="22"/>
						<rect x="1264" y="1951" fill="#BDD630" width="19" height="22"/>
					</g>
					<g>
						<rect x="1201" y="1973" fill="#413E49" width="20" height="20"/>
						<rect x="1221" y="1973" fill="#23685C" width="20" height="20"/>
						<rect x="1201" y="1993" fill="#23685C" width="20" height="20"/>
						<rect x="1221" y="1993" fill="#BDD630" width="20" height="20"/>
					</g>
					<g>
						<rect x="1241" y="1973" fill="#413E49" width="23" height="20"/>
						<rect x="1264" y="1973" fill="#23685C" width="19" height="20"/>
						<rect x="1241" y="1993" fill="#23685C" width="23" height="20"/>
						<rect x="1264" y="1993" fill="#BDD630" width="19" height="20"/>
					</g>
				</g>
				<g>
					<g>
						<rect x="1119" y="2013" fill="#413E49" width="20" height="20"/>
						<rect x="1139" y="2013" fill="#23685C" width="20" height="20"/>
						<rect x="1119" y="2033" fill="#23685C" width="20" height="20"/>
						<rect x="1139" y="2033" fill="#BDD630" width="20" height="20"/>
					</g>
					<g>
						<rect x="1159" y="2013" fill="#413E49" width="22" height="20"/>
						<rect x="1181" y="2013" fill="#23685C" width="20" height="20"/>
						<rect x="1159" y="2033" fill="#23685C" width="22" height="20"/>
						<rect x="1181" y="2033" fill="#BDD630" width="20" height="20"/>
					</g>
					<g>
						<rect x="1119" y="2053" fill="#413E49" width="20" height="22"/>
						<rect x="1139" y="2053" fill="#23685C" width="20" height="22"/>
						<rect x="1119" y="2075" fill="#23685C" width="20" height="20"/>
						<rect x="1139" y="2075" fill="#BDD630" width="20" height="20"/>
					</g>
					<g>
						<rect x="1159" y="2053" fill="#413E49" width="22" height="22"/>
						<rect x="1181" y="2053" fill="#23685C" width="20" height="22"/>
						<rect x="1159" y="2075" fill="#23685C" width="22" height="20"/>
						<rect x="1181" y="2075" fill="#BDD630" width="20" height="20"/>
					</g>
					<g>
						<rect x="1119" y="2095" fill="#413E49" width="20" height="20"/>
						<rect x="1139" y="2095" fill="#23685C" width="20" height="20"/>
						<rect x="1119" y="2115" fill="#23685C" width="20" height="20"/>
						<rect x="1139" y="2115" fill="#BDD630" width="20" height="20"/>
					</g>
					<g>
						<rect x="1159" y="2095" fill="#413E49" width="22" height="20"/>
						<rect x="1181" y="2095" fill="#23685C" width="20" height="20"/>
						<rect x="1159" y="2115" fill="#23685C" width="22" height="20"/>
						<rect x="1181" y="2115" fill="#BDD630" width="20" height="20"/>
					</g>
					<g>
						<rect x="1119" y="2135" fill="#413E49" width="20" height="22"/>
						<rect x="1139" y="2135" fill="#23685C" width="20" height="22"/>
						<rect x="1119" y="2157" fill="#23685C" width="20" height="20"/>
						<rect x="1139" y="2157" fill="#BDD630" width="20" height="20"/>
					</g>
					<g>
						<rect x="1159" y="2135" fill="#413E49" width="22" height="22"/>
						<rect x="1181" y="2135" fill="#23685C" width="20" height="22"/>
						<rect x="1159" y="2157" fill="#23685C" width="22" height="20"/>
						<rect x="1181" y="2157" fill="#BDD630" width="20" height="20"/>
					</g>
					<g>
						<rect x="1201" y="2013" fill="#413E49" width="20" height="20"/>
						<rect x="1221" y="2013" fill="#23685C" width="20" height="20"/>
						<rect x="1201" y="2033" fill="#23685C" width="20" height="20"/>
						<rect x="1221" y="2033" fill="#BDD630" width="20" height="20"/>
					</g>
					<g>
						<rect x="1241" y="2013" fill="#413E49" width="23" height="20"/>
						<rect x="1264" y="2013" fill="#23685C" width="19" height="20"/>
						<rect x="1241" y="2033" fill="#23685C" width="23" height="20"/>
						<rect x="1264" y="2033" fill="#BDD630" width="19" height="20"/>
					</g>
					<g>
						<rect x="1201" y="2053" fill="#413E49" width="20" height="22"/>
						<rect x="1221" y="2053" fill="#23685C" width="20" height="22"/>
						<rect x="1201" y="2075" fill="#23685C" width="20" height="20"/>
						<rect x="1221" y="2075" fill="#BDD630" width="20" height="20"/>
					</g>
					<g>
						<rect x="1241" y="2053" fill="#413E49" width="23" height="22"/>
						<rect x="1264" y="2053" fill="#23685C" width="19" height="22"/>
						<rect x="1241" y="2075" fill="#23685C" width="23" height="20"/>
						<rect x="1264" y="2075" fill="#BDD630" width="19" height="20"/>
					</g>
					<g>
						<rect x="1201" y="2095" fill="#413E49" width="20" height="20"/>
						<rect x="1221" y="2095" fill="#23685C" width="20" height="20"/>
						<rect x="1201" y="2115" fill="#23685C" width="20" height="20"/>
						<rect x="1221" y="2115" fill="#BDD630" width="20" height="20"/>
					</g>
					<g>
						<rect x="1241" y="2095" fill="#413E49" width="23" height="20"/>
						<rect x="1264" y="2095" fill="#23685C" width="19" height="20"/>
						<rect x="1241" y="2115" fill="#23685C" width="23" height="20"/>
						<rect x="1264" y="2115" fill="#BDD630" width="19" height="20"/>
					</g>
					<g>
						<rect x="1201" y="2135" fill="#413E49" width="20" height="22"/>
						<rect x="1221" y="2135" fill="#23685C" width="20" height="22"/>
						<rect x="1201" y="2157" fill="#23685C" width="20" height="20"/>
						<rect x="1221" y="2157" fill="#BDD630" width="20" height="20"/>
					</g>
					<g>
						<rect x="1241" y="2135" fill="#413E49" width="23" height="22"/>
						<rect x="1264" y="2135" fill="#23685C" width="19" height="22"/>
						<rect x="1241" y="2157" fill="#23685C" width="23" height="20"/>
						<rect x="1264" y="2157" fill="#BDD630" width="19" height="20"/>
					</g>
				</g>
			</g>
			<g>
				<g>
					<g>
						<rect x="1283" y="1849" fill="#413E49" width="20" height="20"/>
						<rect x="1303" y="1849" fill="#23685C" width="20" height="20"/>
						<rect x="1283" y="1869" fill="#23685C" width="20" height="22"/>
						<rect x="1303" y="1869" fill="#BDD630" width="20" height="22"/>
					</g>
					<g>
						<rect x="1323" y="1849" fill="#413E49" width="23" height="20"/>
						<rect x="1346" y="1849" fill="#23685C" width="17" height="20"/>
						<rect x="1323" y="1869" fill="#23685C" width="23" height="22"/>
						<rect x="1346" y="1869" fill="#BDD630" width="17" height="22"/>
					</g>
					<g>
						<rect x="1283" y="1891" fill="#413E49" width="20" height="20"/>
						<rect x="1303" y="1891" fill="#23685C" width="20" height="20"/>
						<rect x="1283" y="1911" fill="#23685C" width="20" height="20"/>
						<rect x="1303" y="1911" fill="#BDD630" width="20" height="20"/>
					</g>
					<g>
						<rect x="1323" y="1891" fill="#413E49" width="23" height="20"/>
						<rect x="1346" y="1891" fill="#23685C" width="17" height="20"/>
						<rect x="1323" y="1911" fill="#23685C" width="23" height="20"/>
						<rect x="1346" y="1911" fill="#BDD630" width="17" height="20"/>
					</g>
					<g>
						<rect x="1283" y="1931" fill="#413E49" width="20" height="20"/>
						<rect x="1303" y="1931" fill="#23685C" width="20" height="20"/>
						<rect x="1283" y="1951" fill="#23685C" width="20" height="22"/>
						<rect x="1303" y="1951" fill="#BDD630" width="20" height="22"/>
					</g>
					<g>
						<rect x="1323" y="1931" fill="#413E49" width="23" height="20"/>
						<rect x="1346" y="1931" fill="#23685C" width="17" height="20"/>
						<rect x="1323" y="1951" fill="#23685C" width="23" height="22"/>
						<rect x="1346" y="1951" fill="#BDD630" width="17" height="22"/>
					</g>
					<g>
						<rect x="1283" y="1973" fill="#413E49" width="20" height="20"/>
						<rect x="1303" y="1973" fill="#23685C" width="20" height="20"/>
						<rect x="1283" y="1993" fill="#23685C" width="20" height="20"/>
						<rect x="1303" y="1993" fill="#BDD630" width="20" height="20"/>
					</g>
					<g>
						<rect x="1323" y="1973" fill="#413E49" width="23" height="20"/>
						<rect x="1346" y="1973" fill="#23685C" width="17" height="20"/>
						<rect x="1323" y="1993" fill="#23685C" width="23" height="20"/>
						<rect x="1346" y="1993" fill="#BDD630" width="17" height="20"/>
					</g>
					<g>
						<rect x="1363" y="1849" fill="#413E49" width="23" height="20"/>
						<rect x="1386" y="1849" fill="#23685C" width="19" height="20"/>
						<rect x="1363" y="1869" fill="#23685C" width="23" height="22"/>
						<rect x="1386" y="1869" fill="#BDD630" width="19" height="22"/>
					</g>
					<g>
						<rect x="1405" y="1849" fill="#413E49" width="23" height="20"/>
						<rect x="1428" y="1849" fill="#23685C" width="17" height="20"/>
						<rect x="1405" y="1869" fill="#23685C" width="23" height="22"/>
						<rect x="1428" y="1869" fill="#BDD630" width="17" height="22"/>
					</g>
					<g>
						<rect x="1363" y="1891" fill="#413E49" width="23" height="20"/>
						<rect x="1386" y="1891" fill="#23685C" width="19" height="20"/>
						<rect x="1363" y="1911" fill="#23685C" width="23" height="20"/>
						<rect x="1386" y="1911" fill="#BDD630" width="19" height="20"/>
					</g>
					<g>
						<rect x="1405" y="1891" fill="#413E49" width="23" height="20"/>
						<rect x="1428" y="1891" fill="#23685C" width="17" height="20"/>
						<rect x="1405" y="1911" fill="#23685C" width="23" height="20"/>
						<rect x="1428" y="1911" fill="#BDD630" width="17" height="20"/>
					</g>
					<g>
						<rect x="1363" y="1931" fill="#413E49" width="23" height="20"/>
						<rect x="1386" y="1931" fill="#23685C" width="19" height="20"/>
						<rect x="1363" y="1951" fill="#23685C" width="23" height="22"/>
						<rect x="1386" y="1951" fill="#BDD630" width="19" height="22"/>
					</g>
					<g>
						<rect x="1405" y="1931" fill="#413E49" width="23" height="20"/>
						<rect x="1428" y="1931" fill="#23685C" width="17" height="20"/>
						<rect x="1405" y="1951" fill="#23685C" width="23" height="22"/>
						<rect x="1428" y="1951" fill="#BDD630" width="17" height="22"/>
					</g>
					<g>
						<rect x="1363" y="1973" fill="#413E49" width="23" height="20"/>
						<rect x="1386" y="1973" fill="#23685C" width="19" height="20"/>
						<rect x="1363" y="1993" fill="#23685C" width="23" height="20"/>
						<rect x="1386" y="1993" fill="#BDD630" width="19" height="20"/>
					</g>
					<g>
						<rect x="1405" y="1973" fill="#413E49" width="23" height="20"/>
						<rect x="1428" y="1973" fill="#23685C" width="17" height="20"/>
						<rect x="1405" y="1993" fill="#23685C" width="23" height="20"/>
						<rect x="1428" y="1993" fill="#BDD630" width="17" height="20"/>
					</g>
				</g>
				<g>
					<g>
						<rect x="1283" y="2013" fill="#413E49" width="20" height="20"/>
						<rect x="1303" y="2013" fill="#23685C" width="20" height="20"/>
						<rect x="1283" y="2033" fill="#23685C" width="20" height="20"/>
						<rect x="1303" y="2033" fill="#BDD630" width="20" height="20"/>
					</g>
					<g>
						<rect x="1323" y="2013" fill="#413E49" width="23" height="20"/>
						<rect x="1346" y="2013" fill="#23685C" width="17" height="20"/>
						<rect x="1323" y="2033" fill="#23685C" width="23" height="20"/>
						<rect x="1346" y="2033" fill="#BDD630" width="17" height="20"/>
					</g>
					<g>
						<rect x="1283" y="2053" fill="#413E49" width="20" height="22"/>
						<rect x="1303" y="2053" fill="#23685C" width="20" height="22"/>
						<rect x="1283" y="2075" fill="#23685C" width="20" height="20"/>
						<rect x="1303" y="2075" fill="#BDD630" width="20" height="20"/>
					</g>
					<g>
						<rect x="1323" y="2053" fill="#413E49" width="23" height="22"/>
						<rect x="1346" y="2053" fill="#23685C" width="17" height="22"/>
						<rect x="1323" y="2075" fill="#23685C" width="23" height="20"/>
						<rect x="1346" y="2075" fill="#BDD630" width="17" height="20"/>
					</g>
					<g>
						<rect x="1283" y="2095" fill="#413E49" width="20" height="20"/>
						<rect x="1303" y="2095" fill="#23685C" width="20" height="20"/>
						<rect x="1283" y="2115" fill="#23685C" width="20" height="20"/>
						<rect x="1303" y="2115" fill="#BDD630" width="20" height="20"/>
					</g>
					<g>
						<rect x="1323" y="2095" fill="#413E49" width="23" height="20"/>
						<rect x="1346" y="2095" fill="#23685C" width="17" height="20"/>
						<rect x="1323" y="2115" fill="#23685C" width="23" height="20"/>
						<rect x="1346" y="2115" fill="#BDD630" width="17" height="20"/>
					</g>
					<g>
						<rect x="1283" y="2135" fill="#413E49" width="20" height="22"/>
						<rect x="1303" y="2135" fill="#23685C" width="20" height="22"/>
						<rect x="1283" y="2157" fill="#23685C" width="20" height="20"/>
						<rect x="1303" y="2157" fill="#BDD630" width="20" height="20"/>
					</g>
					<g>
						<rect x="1323" y="2135" fill="#413E49" width="23" height="22"/>
						<rect x="1346" y="2135" fill="#23685C" width="17" height="22"/>
						<rect x="1323" y="2157" fill="#23685C" width="23" height="20"/>
						<rect x="1346" y="2157" fill="#BDD630" width="17" height="20"/>
					</g>
					<g>
						<rect x="1363" y="2013" fill="#413E49" width="23" height="20"/>
						<rect x="1386" y="2013" fill="#23685C" width="19" height="20"/>
						<rect x="1363" y="2033" fill="#23685C" width="23" height="20"/>
						<rect x="1386" y="2033" fill="#BDD630" width="19" height="20"/>
					</g>
					<g>
						<rect x="1405" y="2013" fill="#413E49" width="23" height="20"/>
						<rect x="1428" y="2013" fill="#23685C" width="17" height="20"/>
						<rect x="1405" y="2033" fill="#23685C" width="23" height="20"/>
						<rect x="1428" y="2033" fill="#BDD630" width="17" height="20"/>
					</g>
					<g>
						<rect x="1363" y="2053" fill="#413E49" width="23" height="22"/>
						<rect x="1386" y="2053" fill="#23685C" width="19" height="22"/>
						<rect x="1363" y="2075" fill="#23685C" width="23" height="20"/>
						<rect x="1386" y="2075" fill="#BDD630" width="19" height="20"/>
					</g>
					<g>
						<rect x="1405" y="2053" fill="#413E49" width="23" height="22"/>
						<rect x="1428" y="2053" fill="#23685C" width="17" height="22"/>
						<rect x="1405" y="2075" fill="#23685C" width="23" height="20"/>
						<rect x="1428" y="2075" fill="#BDD630" width="17" height="20"/>
					</g>
					<g>
						<rect x="1363" y="2095" fill="#413E49" width="23" height="20"/>
						<rect x="1386" y="2095" fill="#23685C" width="19" height="20"/>
						<rect x="1363" y="2115" fill="#23685C" width="23" height="20"/>
						<rect x="1386" y="2115" fill="#BDD630" width="19" height="20"/>
					</g>
					<g>
						<rect x="1405" y="2095" fill="#413E49" width="23" height="20"/>
						<rect x="1428" y="2095" fill="#23685C" width="17" height="20"/>
						<rect x="1405" y="2115" fill="#23685C" width="23" height="20"/>
						<rect x="1428" y="2115" fill="#BDD630" width="17" height="20"/>
					</g>
					<g>
						<rect x="1363" y="2135" fill="#413E49" width="23" height="22"/>
						<rect x="1386" y="2135" fill="#23685C" width="19" height="22"/>
						<rect x="1363" y="2157" fill="#23685C" width="23" height="20"/>
						<rect x="1386" y="2157" fill="#BDD630" width="19" height="20"/>
					</g>
					<g>
						<rect x="1405" y="2135" fill="#413E49" width="23" height="22"/>
						<rect x="1428" y="2135" fill="#23685C" width="17" height="22"/>
						<rect x="1405" y="2157" fill="#23685C" width="23" height="20"/>
						<rect x="1428" y="2157" fill="#BDD630" width="17" height="20"/>
					</g>
				</g>
			</g>
		</g>
	</g>
	<path opacity="0.3" fill="#1A1A1A" d="M1235.771,1854l-58.219,27.621l-52.154,122.6l4.39,137.779h40.935l1.109-104.364
		c0,0,12.169-25.855,19.169-48.331v154.092l92,16.576V1854H1235.771z"/>
	<polygon fill="#413E49" points="1282.012,1853.171 1243.019,1837.669 1235.771,1853.171 1262.677,1874.709 	"/>
	<polygon fill="#413E49" points="1282.012,1853.171 1321.007,1837.669 1328.255,1853.171 1301.349,1874.709 	"/>
	<g>
		<circle fill="#F9F9E4" cx="1282.019" cy="1890.951" r="3.49"/>
		<circle fill="#F9F9E4" cx="1282.019" cy="1931.894" r="3.49"/>
		<path fill="#F9F9E4" d="M1285.509,1972.841c0-1.93-1.563-3.493-3.49-3.493c-1.927,0-3.49,1.563-3.49,3.493
			c0,1.925,1.563,3.49,3.49,3.49C1283.946,1976.331,1285.509,1974.766,1285.509,1972.841z"/>
		<path fill="#F9F9E4" d="M1285.509,2013.78c0-1.925-1.563-3.487-3.49-3.487c-1.927,0-3.49,1.563-3.49,3.487
			c0,1.93,1.563,3.49,3.49,3.49C1283.946,2017.271,1285.509,2015.71,1285.509,2013.78z"/>
		<circle fill="#F9F9E4" cx="1282.019" cy="2054.726" r="3.49"/>
		<path fill="#F9F9E4" d="M1285.509,2095.67c0-1.93-1.563-3.492-3.49-3.492c-1.927,0-3.49,1.563-3.49,3.492
			c0,1.926,1.563,3.488,3.49,3.488C1283.946,2099.158,1285.509,2097.596,1285.509,2095.67z"/>
		<circle fill="#F9F9E4" cx="1282.019" cy="2136.612" r="3.49"/>
	</g>
	<polygon fill="#BDD630" points="1363,1942.936 1342.953,1951.87 1323,1942.936 1323,1931 1363,1931 	"/>
	<path fill="#F9F9E4" d="M1346.248,1945.242c0-1.451-1.174-2.628-2.625-2.628s-2.627,1.177-2.627,2.628
		c0,1.448,1.176,2.627,2.627,2.627S1346.248,1946.69,1346.248,1945.242z"/>
</g>
<g>
	<g>
		<g>
			<path fill="#BC1D1D" d="M618.195,1062.407c0,0-27.663,24.564-71.824,24.564c-44.167,0-71.835-24.564-71.835-24.564
				s-5.174,113.037,71.461,113.037C622.635,1175.444,618.195,1062.407,618.195,1062.407z"/>
			<path fill="#D61E1E" d="M724.478,1166.315c-8.591-18.988-18.988-45.998-31.744-71.182
				c-11.041-21.801-74.539-32.727-74.539-32.727s-51.176,109.764-71.824,109.764c-20.654,0-71.835-109.764-71.835-109.764
				s-63.758,10.805-74.533,32.727c-12.014,24.436-24.296,52.473-33.057,71.979c0,0,4.765,7.074,17.392,19.697
				c12.627,12.631,26.291,18.637,26.291,18.637l17.251-12.971l22.315,132.525l-82.007,307.143
				c0,18.41,180.178,30.104,180.178,30.104s175.883-11.693,175.883-30.104l-81.777-307.143l22.385-132.525l15.565,12.563
				c0,0,12.486-5.627,26.426-18.688C720.776,1173.278,724.478,1166.315,724.478,1166.315z"/>
			<path fill="#E22424" d="M546.371,1172.171c-20.654,0-71.835-109.764-71.835-109.764s-63.758,10.805-74.533,32.727
				c-12.014,24.436-24.296,52.473-33.057,71.979c0,0,4.765,7.074,17.392,19.697c12.627,12.631,26.291,18.637,26.291,18.637
				l17.251-12.971l22.315,132.525l-82.007,307.143c0,18.41,180.178,30.104,180.178,30.104L546.371,1172.171z"/>
			<path fill="#C61E1E" d="M423.954,1134.286c0,0,4.026,23.848,4.351,33.975c0.329,10.117-0.624,24.215-0.624,24.215
				C422.647,1172.171,423.954,1134.286,423.954,1134.286z"/>
			<path fill="#C61E1E" d="M668.787,1134.286c0,0-4.025,23.848-4.35,33.975c-0.33,10.117,0.618,24.215,0.618,24.215
				C670.094,1172.171,668.787,1134.286,668.787,1134.286z"/>
		</g>
		<g>
			<g>
				<path fill="#C65858" d="M540.823,1280.868c0-2.902,2.35-5.248,5.248-5.248s5.243,2.346,5.243,5.248
					c0,2.895-2.345,5.248-5.243,5.248S540.823,1283.763,540.823,1280.868z"/>
				<path fill="#DD6464" d="M546.255,1276.259c2.55,0,4.61,2.057,4.61,4.609c0,2.545-2.061,4.609-4.61,4.609
					C543.707,1285.478,543.707,1276.259,546.255,1276.259z"/>
			</g>
			<g>
				<path fill="#C65858" d="M540.823,1211.804c0-2.904,2.35-5.248,5.248-5.248s5.243,2.344,5.243,5.248
					c0,2.893-2.345,5.248-5.243,5.248S540.823,1214.696,540.823,1211.804z"/>
				<path fill="#DD6464" d="M546.255,1207.183c2.55,0,4.61,2.076,4.61,4.621c0,2.543-2.061,4.609-4.61,4.609
					C543.707,1216.413,543.707,1207.183,546.255,1207.183z"/>
			</g>
			<g>
				<path fill="#C65858" d="M540.823,1175.444c0-2.904,2.35-5.248,5.248-5.248s5.243,2.344,5.243,5.248
					c0,2.893-2.345,5.238-5.243,5.238S540.823,1178.337,540.823,1175.444z"/>
				<path fill="#DD6464" d="M546.255,1170.825c2.55,0,4.61,2.064,4.61,4.619c0,2.545-2.061,4.6-4.61,4.6
					C543.707,1180.044,543.707,1170.825,546.255,1170.825z"/>
			</g>
			<g>
				<path fill="#C65858" d="M540.823,1247.712c0-2.893,2.35-5.238,5.248-5.238s5.243,2.346,5.243,5.238
					c0,2.904-2.345,5.25-5.243,5.25S540.823,1250.616,540.823,1247.712z"/>
				<path fill="#DD6464" d="M546.255,1243.112c2.55,0,4.61,2.057,4.61,4.6c0,2.555-2.061,4.621-4.61,4.621
					C543.707,1252.333,543.707,1243.112,546.255,1243.112z"/>
			</g>
			<g>
				<path fill="#C65858" d="M540.823,1316.399c0-2.904,2.35-5.248,5.248-5.248s5.243,2.344,5.243,5.248
					c0,2.895-2.345,5.248-5.243,5.248S540.823,1319.294,540.823,1316.399z"/>
				<path fill="#DD6464" d="M546.255,1311.79c2.55,0,4.61,2.055,4.61,4.609c0,2.545-2.061,4.609-4.61,4.609
					C543.707,1321.009,543.707,1311.79,546.255,1311.79z"/>
			</g>
		</g>
	</g>
	<path fill="#F42F2F" d="M474.536,1062.407c0,0-9.589,11.813-12.003,15.863c-2.41,4.051-6.561,15.826,3.477,23.539l40.889,22.928
		c0,0-8.72-14.787-15.585-27.998C484.444,1083.54,474.536,1062.407,474.536,1062.407z"/>
	<path fill="#F42F2F" d="M618.744,1062.407c0,0,9.589,11.813,12.003,15.863c2.41,4.051,6.561,15.826-3.477,23.539l-40.884,22.928
		c0,0,8.715-14.787,15.585-27.998C608.835,1083.54,618.744,1062.407,618.744,1062.407z"/>
</g>
<g>
	<rect x="1215" y="2427" fill="#E0D5C1" width="144" height="174"/>
	<circle fill="#99C4BC" cx="1286.397" cy="2530.08" r="34.127"/>
	<path fill="none" stroke="#375078" stroke-width="3" stroke-miterlimit="10" d="M1320.524,2530.08c0-1.051-0.056-2.089-0.148-3.115
		c-0.86-0.217-1.864-0.333-3.067-0.333c-4.965,0.002-6.422,1.724-8.275,4.562c-0.785,1.203-1.792,4.443-7.297,4.484
		c-4.73-0.041-5.338-3.174-6.139-4.492c-1.686-2.772-3.408-4.531-8.082-4.529c-4.967,0.002-6.423,1.712-8.274,4.549
		c-0.787,1.203-1.795,4.437-7.297,4.479c-4.732-0.042-5.339-3.177-6.141-4.495c-1.686-2.772-3.407-4.532-8.081-4.53
		c-2.533,0-4.151,0.435-5.375,1.233c-0.046,0.725-0.077,1.452-0.077,2.188"/>
	<path fill="#4982CB" d="M1309.033,2532.336c-0.785,1.203-1.792,4.443-7.297,4.484c-4.73-0.041-5.338-3.174-6.139-4.492
		c-1.686-2.772-3.408-4.531-8.082-4.529c-4.967,0.002-6.423,1.713-8.274,4.549c-0.787,1.203-1.795,4.438-7.297,4.479
		c-4.732-0.041-5.339-3.177-6.141-4.494c-1.686-2.773-3.407-4.533-8.081-4.531c-2.533,0-4.151,0.435-5.375,1.234
		c-0.046,0.724-0.077,1.451-0.077,2.188c0,18.849,15.278,34.128,34.127,34.128s34.127-15.279,34.127-34.128
		c0-1.051-0.056-2.089-0.148-3.115c-0.86-0.217-1.864-0.333-3.067-0.333C1312.344,2527.777,1310.887,2529.5,1309.033,2532.336z"/>
	<line fill="#95A2A1" stroke="#935865" stroke-width="3" stroke-miterlimit="10" x1="1215" y1="2472.5" x2="1232" y2="2472.5"/>
	<line fill="#95A2A1" stroke="#935865" stroke-width="3" stroke-miterlimit="10" x1="1215" y1="2481.5" x2="1228" y2="2481.5"/>
	<line fill="#95A2A1" stroke="#935865" stroke-width="3" stroke-miterlimit="10" x1="1215" y1="2491.5" x2="1223" y2="2491.5"/>
	<path fill="#935865" d="M1288.524,2485.824c-26.51,0-48,21.489-48,48c0,26.51,21.49,48,48,48c26.509,0,48-21.49,48-48
		C1336.524,2507.313,1315.033,2485.824,1288.524,2485.824z M1288.302,2567.412c-18.848,0-34.128-15.279-34.128-34.127
		c0-18.849,15.28-34.128,34.128-34.128s34.127,15.279,34.127,34.128C1322.429,2552.133,1307.149,2567.412,1288.302,2567.412z"/>
	<rect x="1215" y="2427" fill="#DF887C" width="143" height="34"/>
	<rect x="1276" y="2427" fill="#BC746F" width="83" height="34"/>
	<path fill="#C57684" d="M1286.618,2482.619c-26.509,0-48,21.49-48,48s21.491,48,48,48c26.511,0,48-21.49,48-48
		S1313.129,2482.619,1286.618,2482.619z M1286.397,2564.207c-18.849,0-34.127-15.278-34.127-34.127
		c0-18.848,15.278-34.127,34.127-34.127s34.127,15.279,34.127,34.127C1320.524,2548.929,1305.246,2564.207,1286.397,2564.207z"/>
	<circle fill="#395958" cx="1261.203" cy="2440.822" r="3.875"/>
	<circle fill="#395958" cx="1245.203" cy="2440.822" r="3.875"/>
	<circle fill="#395958" cx="1229.203" cy="2440.822" r="3.875"/>
	<line fill="#95A2A1" stroke="#935865" stroke-width="3" stroke-miterlimit="10" x1="1290" y1="2440.5" x2="1346" y2="2440.5"/>
	<line fill="#95A2A1" stroke="#935865" stroke-width="3" stroke-miterlimit="10" x1="1302" y1="2449.5" x2="1334" y2="2449.5"/>
</g>
<g>
	<rect x="1844" y="2410" fill="#CABD96" width="55" height="71"/>
	<path fill="#F8F682" d="M1910.459,2403c0,3.977-3.361,7-7.508,7h-61.957c-4.146,0-7.51-3.023-7.51-7l0,0c0-3.98,3.363-7,7.51-7
		h61.957C1907.098,2396,1910.459,2399.02,1910.459,2403L1910.459,2403z"/>
	<path fill="#C4C274" d="M1910.459,2404.5c0,1.99-1.68,2.5-3.755,2.5h-69.464c-2.074,0-3.756-0.51-3.756-2.5l0,0
		c0-1.988,1.682-2.5,3.756-2.5h69.464C1908.779,2402,1910.459,2402.512,1910.459,2404.5L1910.459,2404.5z"/>
	<path fill="#F8F682" d="M1910.459,2487c0,3.443-3.361,6-7.508,6h-61.957c-4.146,0-7.51-2.557-7.51-6l0,0c0-3.447,3.363-6,7.51-6
		h61.957C1907.098,2481,1910.459,2483.553,1910.459,2487L1910.459,2487z"/>
	<path fill="#C4C274" d="M1910.459,2490c0,1.721-1.68,3-3.755,3h-69.464c-2.074,0-3.756-1.279-3.756-3l0,0c0-1.727,1.682-3,3.756-3
		h69.464C1908.779,2487,1910.459,2488.273,1910.459,2490L1910.459,2490z"/>
	<g>
		<line fill="none" stroke="#998675" stroke-miterlimit="10" x1="1844" y1="2411.5" x2="1899" y2="2411.5"/>
		<line fill="none" stroke="#998675" stroke-miterlimit="10" x1="1844" y1="2419.5" x2="1899" y2="2419.5"/>
		<line fill="none" stroke="#998675" stroke-miterlimit="10" x1="1844" y1="2424.5" x2="1899" y2="2424.5"/>
		<line fill="none" stroke="#998675" stroke-miterlimit="10" x1="1844" y1="2430.5" x2="1899" y2="2430.5"/>
		<line fill="none" stroke="#998675" stroke-miterlimit="10" x1="1844" y1="2435.5" x2="1899" y2="2435.5"/>
		<line fill="none" stroke="#998675" stroke-miterlimit="10" x1="1844" y1="2441.5" x2="1899" y2="2441.5"/>
		<line fill="none" stroke="#998675" stroke-miterlimit="10" x1="1844" y1="2448.5" x2="1899" y2="2448.5"/>
		<line fill="none" stroke="#998675" stroke-miterlimit="10" x1="1844" y1="2455.5" x2="1899" y2="2455.5"/>
		<line fill="none" stroke="#998675" stroke-miterlimit="10" x1="1844" y1="2459.5" x2="1899" y2="2459.5"/>
		<line fill="none" stroke="#998675" stroke-miterlimit="10" x1="1844" y1="2466.5" x2="1899" y2="2466.5"/>
		<line fill="none" stroke="#998675" stroke-miterlimit="10" x1="1844" y1="2473.5" x2="1899" y2="2473.5"/>
		<line fill="none" stroke="#998675" stroke-miterlimit="10" x1="1844" y1="2478.5" x2="1899" y2="2478.5"/>
	</g>
</g>
<g>
	<circle fill="#65C1BD" cx="1938.752" cy="2405.295" r="10.682"/>
	<path fill="#52A39D" d="M1928.07,2405.295c0-5.9,4.783-10.682,10.683-10.682c5.897,0,10.681,4.781,10.681,10.682"/>
	<line fill="none" stroke="#534741" stroke-miterlimit="10" x1="1939.5" y1="2494" x2="1939.5" y2="2417"/>
</g>
<g>
	<path fill="#9B936F" d="M1797.957,2395h-13.994h-24.587h-59.386c-1.515,0,1.313,0,0,0c-2.145,0-8.657-0.014-10.97-0.014
		c-15.04,0-27.233,11.497-27.233,25.689s12.193,25.695,27.233,25.695c15.042,0,27.235-11.162,27.235-25.358
		c0-1.835-0.207-3.013-0.596-5.013H1753v59h-76.461c-3.76,0-6.539,3.152-6.539,6.7v6.425c0,3.549,2.779,5.875,6.539,5.875h82.837
		h38.581c3.759,0,6.043-2.326,6.043-5.875v-6.425v-80.304C1804,2397.848,1801.716,2395,1797.957,2395z"/>
	<rect x="1679" y="2444" fill="#FFFF8A" width="18" height="10"/>
	<line fill="none" stroke="#9B936F" stroke-width="2" stroke-miterlimit="10" x1="1688" y1="2458" x2="1688" y2="2454"/>
	<line fill="none" stroke="#9B936F" stroke-width="2" stroke-miterlimit="10" x1="1778" y1="2360" x2="1778" y2="2370"/>
	<line fill="none" stroke="#615E2E" stroke-width="2" stroke-miterlimit="10" x1="1778" y1="2439" x2="1778" y2="2444"/>
	<rect x="1772" y="2373" fill="#6DBDBB" width="14" height="17"/>
	<path fill="#F8F682" d="M1788.878,2370c0,1.33-0.764,3-1.702,3h-17.021c-0.94,0-1.703-1.67-1.703-3l0,0c0-1.33,0.763-3,1.703-3
		h17.021C1788.114,2367,1788.878,2368.67,1788.878,2370L1788.878,2370z"/>
	<path fill="#F8F682" d="M1788.878,2392.5c0,1.331-0.764,2.5-1.702,2.5h-17.021c-0.94,0-1.703-1.169-1.703-2.5l0,0
		c0-1.33,0.763-2.5,1.703-2.5h17.021C1788.114,2390,1788.878,2391.17,1788.878,2392.5L1788.878,2392.5z"/>
	<ellipse fill="#FFF685" cx="1778.644" cy="2425.636" rx="9.802" ry="9.248"/>
	<path fill="#FFF685" d="M1698.801,2420.627c0,5.887-5.061,10.664-11.303,10.664c-6.238,0-11.3-4.777-11.3-10.664
		c0-5.891,5.062-10.666,11.3-10.666C1693.74,2409.961,1698.801,2414.736,1698.801,2420.627z"/>
	<path fill="#C4C274" d="M1768.842,2425.636c0-5.108,4.39-9.25,9.803-9.25c5.411,0,9.802,4.142,9.802,9.25"/>
	<rect x="1727" y="2401" fill="#7A6B3C" width="11" height="9"/>
	<rect x="1768" y="2454" fill="#EDF87C" width="23" height="21"/>
	<line fill="#534741" stroke="#52A39D" stroke-miterlimit="10" x1="1785.475" y1="2377.127" x2="1679.943" y2="2396.043"/>
	<ellipse fill="#65C1BD" cx="1687.14" cy="2420.67" rx="6.809" ry="6.424"/>
</g>
<g>
	<polygon fill="#F9A95D" points="419.286,4707 418.478,4773.153 377.168,4786 232,4786 232,4494 465,4494 465,4707 	"/>
	<rect x="232" y="4807" fill="#F9A95E" width="240" height="97"/>
	<rect x="231" y="4807" fill="#F9A95D" width="241" height="97"/>
	<rect x="407" y="4827" fill="#FFFEFF" width="41" height="59"/>
	<rect x="430" y="4531" fill="#91C079" width="13" height="39"/>
	<rect x="409" y="4531" fill="#203647" width="21" height="39"/>
	<rect x="405" y="4531" fill="#30A49D" width="4" height="39"/>
	<rect x="395" y="4531" fill="#8AC475" width="10" height="39"/>
	<rect x="402" y="4523" fill="#EDFFFF" width="33" height="8"/>
	<rect x="402" y="4570" fill="#EDFFFF" width="33" height="8"/>
	<rect x="402" y="4521" fill="#09A893" width="33" height="2"/>
	<path fill="#EDFFFF" d="M429.896,4515c-1.221-6-5.864-9.157-11.418-9.157c-5.558,0-10.2,3.157-11.422,9.157H402v6h5.124h22.703H435
		v-6H429.896z"/>
	<rect x="396" y="4578" fill="#30A49D" width="43" height="5"/>
	<path fill="#EF4D3E" d="M435,4583v-1.801c0,2.242-0.977,4.801-4.278,4.801H407.29c-3.301,0-5.29-2.559-5.29-4.801V4583H435z"/>
	<rect x="293" y="4531" fill="#91C079" width="11" height="39"/>
	<rect x="270" y="4531" fill="#203647" width="23" height="39"/>
	<rect x="267" y="4531" fill="#30A49D" width="3" height="39"/>
	<rect x="253" y="4531" fill="#8AC475" width="14" height="39"/>
	<rect x="260" y="4523" fill="#EDFFFF" width="37" height="8"/>
	<rect x="260" y="4570" fill="#EDFFFF" width="37" height="8"/>
	<rect x="260" y="4521" fill="#09A893" width="37" height="2"/>
	<path fill="#EDFFFF" d="M291.392,4515c-1.221-6-5.863-9.157-11.42-9.157c-5.555,0-10.199,3.157-11.42,9.157H260v6h8.622h22.7H297
		v-6H291.392z"/>
	<rect x="256" y="4578" fill="#30A49D" width="45" height="5"/>
	<path fill="#EF4D3E" d="M297,4583v-1.801c0,2.242-1.481,4.801-4.781,4.801h-23.433c-3.302,0-7.786-2.559-7.786-4.801V4583H297z"/>
	<rect x="430" y="4637" fill="#91C079" width="13" height="40"/>
	<rect x="409" y="4637" fill="#203647" width="21" height="40"/>
	<rect x="405" y="4637" fill="#30A49D" width="4" height="40"/>
	<rect x="395" y="4637" fill="#8AC475" width="10" height="40"/>
	<rect x="402" y="4631" fill="#EDFFFF" width="33" height="6"/>
	<rect x="402" y="4677" fill="#EDFFFF" width="33" height="8"/>
	<rect x="402" y="4627" fill="#09A893" width="33" height="4"/>
	<path fill="#EDFFFF" d="M429.896,4620c-1.221-5-5.864-9.159-11.418-9.159c-5.558,0-10.2,4.159-11.422,9.159H402v7h5.124h22.703H435
		v-7H429.896z"/>
	<rect x="396" y="4685" fill="#30A49D" width="43" height="4"/>
	<path fill="#EF4D3E" d="M435,4689v-1.187c0,2.243-0.977,5.187-4.278,5.187H407.29c-3.301,0-5.29-2.943-5.29-5.187V4689H435z"/>
	<rect x="286" y="4718" fill="#91C079" width="13" height="39"/>
	<rect x="263" y="4718" fill="#203647" width="23" height="39"/>
	<rect x="260" y="4718" fill="#30A49D" width="3" height="39"/>
	<rect x="250" y="4718" fill="#8AC475" width="10" height="39"/>
	<rect x="253" y="4709" fill="#EDFFFF" width="40" height="9"/>
	<rect x="253" y="4757" fill="#EDFFFF" width="40" height="9"/>
	<rect x="253" y="4707" fill="#09A893" width="40" height="2"/>
	<path fill="#EDFFFF" d="M285.723,4700c-1.221-4-5.864-9.158-11.421-9.158c-5.555,0-10.199,5.158-11.42,9.158H253v7h9.952h22.701
		H293v-7H285.723z"/>
	<path fill="#FFFEFF" d="M440.632,4819c-1.33-7-6.387-9.158-12.435-9.158c-6.052,0-11.105,2.158-12.438,9.158H407v7h8.837h24.719
		H448v-7H440.632z"/>
	<rect x="252" y="4766" fill="#30A49D" width="44" height="2"/>
	<path fill="#EF4D3E" d="M293,4768v0.184c0,2.242-3.149,2.816-6.452,2.816h-23.431c-3.302,0-8.117-0.574-8.117-2.816V4768H293z"/>
	<rect x="232" y="4482" fill="#EDFFFF" width="233" height="8"/>
	<rect x="465" y="4482" fill="#14A99B" width="41" height="8"/>
	<rect x="465" y="4490" fill="#203458" width="38" height="4"/>
	<rect x="232" y="4490" fill="#F54840" width="233" height="4"/>
	<rect x="416" y="4834" fill="#1D3354" width="23" height="52"/>
	<rect x="427" y="4834" fill="#88C66F" width="12" height="52"/>
	<rect x="413" y="4834" fill="#359991" width="3" height="52"/>
	<rect x="407" y="4826" fill="#14A4A3" width="41" height="1"/>
	<polygon fill="#18A1AF" points="417,4780.207 377,4792.507 377,4785.129 417,4772.827 	"/>
	<polygon fill="#FFFEFF" points="231.374,4793 279.972,4793 377.168,4786 232.995,4786 	"/>
	<rect x="231" y="4793" fill="#FFFEFF" width="241" height="8"/>
	<rect x="232" y="4801" fill="#F15040" width="240" height="6"/>
	<polygon fill="#0FA9A5" points="512,4785.947 472,4799.889 472,4793.329 512,4779.386 	"/>
	<polygon fill="#193247" points="472,4804.809 509,4790.867 509,4785.947 472,4799.889 	"/>
	<polygon fill="#EC4F3C" points="509,4879.444 472,4904.454 472,4804.809 509,4790.867 	"/>
	<polygon fill="#FDFFFF" points="403,4886 403,4893 393,4893 393,4900 384,4900 384,4904 392.963,4904 401.873,4904 439,4904 
		439,4886 	"/>
	<polygon fill="#11ADA5" points="439,4886 439,4893 430,4893 430,4900 421,4900 421,4904 431.031,4904 439.94,4904 448,4904 
		448,4886 	"/>
	<polygon fill="#EF4D3E" points="506,4692.455 465,4707.217 465,4494 506,4494 	"/>
	<polygon fill="#EF4D3E" points="377,4707 419.286,4707 418.393,4772.719 377,4785.129 	"/>
	<polygon fill="#2A2F46" points="472,4795 265.038,4795 264.583,4793 472,4793 	"/>
	<path fill="#17A197" d="M281,4567.8v-14.764c0,0,1.807-11.036-10.748-11.036c-12.554,0-44.548,0-44.548,0
		S210,4542.375,210,4559.188c0,16.813,0,344.034,0,344.034s7,4.101,11,0v-343.625c0,0-1.37-9.598,10.374-9.598
		c11.745,0,36.449,0,36.449,0s5.177,0.167,5.177,7.139c0,6.97,0,10.661,0,10.661S276,4572.311,281,4567.8z"/>
	<path fill="#2669A3" d="M496.232,4829h57.227c0,0,5.541-0.332,5.541,6.64c0,6.97,0,41.826,0,41.826s4,3.689,9-0.821v-45.105
		c0,0,0.443-13.539-12.11-13.539c-12.555,0-59.657,0-59.657,0S487.321,4825,496.232,4829z"/>
	<path fill="#2669A3" d="M429.353,4724.961"/>
	<path fill="#2669A3" d="M568,4903v-74.864c0,0-6-7.79-9-3.278V4903"/>
	<path fill="#2669A3" d="M177,4510.977v-57.942c0,0-0.08-4.034,6.806-4.034c6.885,0,41.31,0,41.31,0s3.644-6-0.811-10h-44.549
		c0,0-13.756-1.139-13.756,11.571c0,12.713,0,60.405,0,60.405S172,4519.999,177,4510.977z"/>
	<path fill="#2669A3" d="M255,4439h-47.849c0,0-7.693,7-3.238,10H255"/>
	<path fill="#2669A3" d="M274.651,4726h-94.457c0,0-4.194,1.086-4.194-5.886s0-41.828,0-41.828s-5-3.689-10,0.821v45.106
		c0,0-0.79,12.786,11.763,12.786c12.555,0,98.508,0,98.508,0S283.562,4731,274.651,4726z"/>
	<path fill="#2669A3" d="M166,4505v214.422c0,0,0.291,0,10.004-11.474l1.473-203.2"/>
	<path fill="#2669A3" d="M425.353,4718.961"/>
	<path fill="#17A197" d="M425.179,4560h-38.066c0,0-14.112,0.912-14.112-11.799c0-12.712,0-69.709,0-69.709
		S376.581,4465,393.187,4465c16.604,0,109.748,0,109.748,0s4.049,7,0,11H393.591c0,0-9.591-3.66-9.591,8.232s0,61.511,0,61.511
		s0.275,4.257,7.162,4.257c6.886,0,34.017,0,34.017,0S429.634,4556,425.179,4560z"/>
	<path fill="#17A197" d="M489.122,4559h38.066c0,0,10.812,0.272,10.812-12.438s0-68.069,0-68.069S537.721,4465,521.116,4465
		c-16.604,0-106.514,0-106.514,0s-4.046,7,0,11h106.108c0,0,9.289-3.66,9.289,8.232s0,59.868,0,59.868s0.024,4.899-6.859,4.899
		s-34.019,0-34.019,0S484.667,4553,489.122,4559z"/>
	<path fill="#2669A3" d="M209,4439h68.465c0,0,12.535,1.098,12.535,17.91c0,16.812,0,111.123,0,111.123s-3.596,4.101-8.455,0
		l1.036-110.041c0,0,0.958-8.992-10.787-8.992c-11.742,0-59.794,0-59.794,0"/>
	<path fill="#FFE00A" d="M489.091,4559.063l17.818,0.306c0,0,11.975-0.806,11.875,11.905c-0.102,12.711-0.549,69.707-0.549,69.707
		c0.252-2.185,0.549,13.471-18.147,13.471c-16.606-0.002-45.765-1.188-45.765-1.188s-4.006-4.134,0.08-9.021l45.355,0.363
		c0,0,9.52,2.454,9.615-9.438c0.093-11.891,0.482-61.506,0.482-61.506s-0.184-5.246-7.066-5.303
		c-6.885-0.055-13.77-0.271-13.77-0.271S484.599,4563.948,489.091,4559.063z"/>
	<polygon fill="#11ADA5" points="446,4786 446,4778 438,4778 438,4770 427,4770 427,4765.035 380.822,4765.08 380.822,4765.08 
		380.822,4765.08 380.822,4765.08 414.831,4793 445.609,4793 445.626,4793 445.609,4793 451,4793 451,4786 	"/>
	<polygon fill="#FFFEFF" points="407,4786 407,4778 402,4778 402,4770 393,4770 393,4766 375.142,4766 375.294,4766 375.294,4766 
		375.294,4766 407.417,4793 407.417,4793 407.417,4793 407.541,4793 416,4793 416,4786 	"/>
	<path fill="#FFDE15" d="M417,4670.313v-14.762c0,0,0.271-11.551,12.827-11.551c12.553,0,44.545,0,44.545,0
		S487,4644.891,487,4661.702s0,161.971,0,161.971s-5,4.102-9,0v-161.561c0,0,2.446-9.112-9.297-9.112c-11.744,0-36.448,0-36.448,0
		s-5.255-0.317-5.255,6.651c0,6.972,0,10.661,0,10.661S421,4674.823,417,4670.313z"/>
	<path fill="#FFDE15" d="M478,4906v-137.196c0,0,4-4.101,9,0V4906"/>
	<path fill="#FFDE15" d="M423,4842.946c0,0,31.125,0.408,35.984,0c4.861-0.41,6.016-2.87,6.016-2.87s0-21.323,0-26.654
		c0-5.332,6.944-5.422,6.944-5.422h10.529c0,0,1.619,3,0,4h-6.887c0,0-4.97,0.274-4.97,5.603c0,5.33-0.698,25.501-0.698,25.501
		s-0.376,5.046-5.235,5.457c-4.859,0.41-41.684,0.422-41.684,0.422V4842.946z"/>
	<rect x="232" y="4793" fill="#0E9B8E" width="145" height="2"/>
	<path fill="#17A197" d="M276,4740.432c0,0-28.314,0.41-33.174,0c-4.86-0.41-4.826-2.871-4.826-2.871s0-21.322,0-26.654
		c0-5.328-7.436-6.906-7.436-6.906h-10.529c0,0-1.62,3,0,5h6.884c0,0,4.16,0.109,4.16,5.436c0,5.334-0.109,26.236-0.109,26.236
		s1.052,5.009,5.911,5.418c4.859,0.41,39.119,0.379,39.119,0.379V4740.432z"/>
</g>
<g>
	<g>
		<path fill="#3A3A3A" d="M1203.172,5887.147c0,3.613-2.932,6.546-6.547,6.546l0,0c-3.611,0-6.542-2.933-6.542-6.546v-16.164
			c0-3.62,2.931-6.546,6.542-6.546l0,0c3.615,0,6.547,2.926,6.547,6.546V5887.147z"/>
		<path fill="#3A3A3A" d="M1284.785,5887.147c0,3.613-2.928,6.546-6.546,6.546l0,0c-3.614,0-6.54-2.933-6.54-6.546v-16.164
			c0-3.62,2.926-6.546,6.54-6.546l0,0c3.618,0,6.546,2.926,6.546,6.546V5887.147z"/>
	</g>
	<g>
		<path fill="#3A3A3A" d="M1317.234,5741.229v5.787c3.809,1.627,6.48,5.41,6.48,9.822v15.072c0,4.408-2.672,8.193-6.48,9.822v5.785
			c7.484,0,13.563-6.077,13.563-13.563v-19.153C1330.798,5747.304,1324.719,5741.229,1317.234,5741.229z"/>
	</g>
	<g>
		<g>
			<path fill="none" d="M1248.705,5588.104h-23.764c-5.162,0-9.349,4.182-9.349,9.348v55.346h42.469v-55.346
				C1258.062,5592.286,1253.873,5588.104,1248.705,5588.104z"/>
			<path fill="#3A3A3A" d="M1215.593,5597.452c0-5.166,4.187-9.348,9.349-9.348h23.764c5.168,0,9.356,4.182,9.356,9.348v55.346
				h6.125v-60.434c0-6.652-5.394-12.044-12.052-12.044h-30.622c-6.651,0-12.046,5.392-12.046,12.044v60.434h6.126V5597.452z"/>
		</g>
		<path fill="#212121" d="M1267.107,5586.405c0,3.353-2.156,6.078-4.814,6.078h-51.179c-2.657,0-4.81-2.726-4.81-6.078l0,0
			c0-3.361,2.152-6.085,4.81-6.085h51.179C1264.951,5580.32,1267.107,5583.044,1267.107,5586.405L1267.107,5586.405z"/>
	</g>
	<path fill="#67B8CB" d="M1318.662,5866.813c0,9.674-7.841,17.514-17.51,17.514h-127.438c-9.671,0-17.513-7.84-17.513-17.514
		v-196.748c0-9.676,7.842-17.51,17.513-17.51h127.438c9.669,0,17.51,7.834,17.51,17.51V5866.813z"/>
	<g>
		<path fill="#40ABB6" d="M1302.796,5851.745c0,7.777-6.309,14.088-14.094,14.088h-102.54c-7.781,0-14.093-6.311-14.093-14.088
			v-84.65c0-7.78,6.312-14.089,14.093-14.089h102.54c7.785,0,14.094,6.309,14.094,14.089V5851.745z"/>
		<path fill="#58B4C3" d="M1302.796,5860.255c0,7.785-6.309,14.094-14.094,14.094h-102.54c-7.781,0-14.093-6.309-14.093-14.094
			l2.13-84.645c0-7.785,6.313-14.096,14.09-14.096h97.801c7.787,0,14.088,6.311,14.088,14.096L1302.796,5860.255z"/>
		<g>
			<path fill="#40ABB6" d="M1280.238,5776.526h-86.095c-1.075,0-1.946,1.903-1.946,4.255c0,2.349,0.871,4.256,1.946,4.256h86.095
				c1.075,0,1.946-1.907,1.946-4.256C1282.185,5778.43,1281.313,5776.526,1280.238,5776.526z"/>
			<path fill="#28868C" d="M1280.238,5779.81h-86.095c-1.075,0-1.946,0.438-1.946,0.972c0,0.541,0.871,0.974,1.946,0.974h86.095
				c1.075,0,1.946-0.433,1.946-0.974C1282.185,5780.248,1281.313,5779.81,1280.238,5779.81z"/>
			<path fill="#258B90" d="M1281.6,5783.343c0-0.021,0-0.045,0-0.063c0-1.367-0.715-2.465-1.605-2.465
				c-0.889,0-1.607,1.098-1.607,2.465c0,0.018,0.004,0.041,0.004,0.063c-0.286,0.354-0.467,0.799-0.467,1.294
				c0,1.138,0.93,2.066,2.07,2.066c1.144,0,2.067-0.929,2.067-2.066C1282.062,5784.142,1281.88,5783.696,1281.6,5783.343z"/>
		</g>
	</g>
	<g>
		<g>
			<path fill="#40ABB6" d="M1302.796,5722.837c0,7.784-6.309,14.087-14.094,14.087h-102.54c-7.781,0-14.093-6.303-14.093-14.087
				v-39.415c0-7.78,6.312-14.089,14.093-14.089h102.54c7.785,0,14.094,6.309,14.094,14.089V5722.837z"/>
			<path fill="#58B4C3" d="M1302.796,5722.837c0,7.784-6.309,14.087-14.094,14.087h-102.54c-7.781,0-14.093-6.303-14.093-14.087
				l2.13-32.351c0-7.778,6.313-14.089,14.09-14.089h97.801c7.787,0,14.088,6.311,14.088,14.089L1302.796,5722.837z"/>
		</g>
		<g>
			<path fill="#40ABB6" d="M1280.238,5683.507h-86.095c-1.075,0-1.946,1.901-1.946,4.25c0,2.35,0.871,4.258,1.946,4.258h86.095
				c1.075,0,1.946-1.908,1.946-4.258C1282.185,5685.408,1281.313,5683.507,1280.238,5683.507z"/>
			<path fill="#28868C" d="M1280.238,5686.788h-86.095c-1.075,0-1.946,0.432-1.946,0.969c0,0.539,0.871,0.972,1.946,0.972h86.095
				c1.075,0,1.946-0.433,1.946-0.972C1282.185,5687.22,1281.313,5686.788,1280.238,5686.788z"/>
			<path fill="#258B90" d="M1281.6,5690.321c0-0.021,0-0.043,0-0.072c0-1.363-0.715-2.46-1.605-2.46
				c-0.889,0-1.607,1.097-1.607,2.46c0,0.029,0.004,0.051,0.004,0.072c-0.286,0.357-0.467,0.795-0.467,1.289
				c0,1.143,0.93,2.065,2.07,2.065c1.144,0,2.067-0.923,2.067-2.065C1282.062,5691.116,1281.88,5690.679,1281.6,5690.321z"/>
		</g>
	</g>
</g>
<g>
	<g>
		<g>
			<g>
				<g>
					<g>
						<path fill="#F3F4F5" d="M1969.746,2031.156c0,6.818-3.469,10.289-10.287,10.286l-34.977,0.003
							c-6.821,0-10.293-3.471-10.293-10.289v-84.361c0-6.819,3.472-10.287,10.293-10.287h34.977c6.818,0,10.287,3.468,10.287,10.287
							V2031.156z"/>
						<path fill="#C9C9C9" d="M1948.483,1944.223c0,0.663-0.535,1.201-1.199,1.201h-10.629c-0.664,0-1.203-0.538-1.203-1.201l0,0
							c0-0.664,0.539-1.198,1.203-1.198h10.629C1947.948,1943.024,1948.483,1943.559,1948.483,1944.223L1948.483,1944.223z"/>
						
							<rect x="1916.764" y="1949.624" fill="#CE3E49" stroke="#CE3E49" stroke-width="2.7172" stroke-miterlimit="10" width="50.152" height="76.644"/>
					</g>
				</g>
			</g>
		</g>
	</g>
	<path fill-rule="evenodd" clip-rule="evenodd" fill="#C9C9C9" d="M1941.968,2029.313c-2.349,0-4.249,1.902-4.249,4.25
		c0,2.346,1.9,4.249,4.249,4.249s4.249-1.903,4.249-4.249C1946.217,2031.215,1944.316,2029.313,1941.968,2029.313"/>
	<path fill="#91222F" d="M1955.804,1973.933c-1.317-1.318-4.616-0.15-6.194,1.429l-6.008,6.014
		c-0.585-0.545-15.18-5.75-15.703-5.226l-1.904,1.902c-0.527,0.523-0.527,1.375,0,1.9l10.666,8.367l-4.204,4.206
		c-0.317,0.32-0.72,0.813-1.144,1.398l-0.169-0.168c-0.267-0.267-4.098-0.751-4.365-0.483l-0.972,0.968
		c-0.267,0.268-0.267,0.701,0,0.968c0,0,0.176,0.177,0.478,0.478c0.544,0.545,1.499,1.495,2.567,2.562
		c-0.51,1.269-0.697,2.368-0.206,2.861c0.493,0.492,1.595,0.304,2.864-0.209c1.049,1.046,1.983,1.979,2.528,2.522
		c0.316,0.318,0.504,0.503,0.504,0.503c0.268,0.269,0.702,0.269,0.969,0l0.972-0.968c0.268-0.269-0.217-4.09-0.486-4.357
		l-0.164-0.165c0.583-0.423,1.072-0.823,1.391-1.14l4.203-4.209l8.371,10.634c0.526,0.524,1.378,0.524,1.904,0l1.905-1.903
		c0.525-0.523-4.695-15.115-5.234-15.681l6.001-6.007C1955.953,1978.551,1957.119,1975.248,1955.804,1973.933z"/>
</g>
<g>
	<path fill="#FDEBCB" d="M2773,1291.947v71.318c0,47.372-38.627,85.774-86,85.774l0,0c-47.371,0-86-38.402-86-85.774v-72.794
		c0,0,0.741-13.944,20.979-20.919c16.245-5.604,48.054-6.496,68.679-6.517C2717.178,1263.006,2773,1263.036,2773,1291.947z"/>
	<path fill="#645655" d="M2761.018,1289.539c0,9.047-32.791,16.383-73.242,16.383c-43.025,0-73.247-7.333-73.247-16.383
		c0-9.049,32.794-16.384,73.247-16.384C2728.227,1273.155,2761.018,1280.49,2761.018,1289.539z"/>
	<path fill="#FDEBCB" d="M2768.535,1314.596c18.365,0,33.254,14.889,33.254,33.25c0,18.363-14.889,33.25-33.254,33.25"/>
	<path fill="#FDEBCB" d="M2611.443,1381.096c-18.361,0-33.247-14.887-33.247-33.25c0-18.361,14.886-33.25,33.247-33.25"/>
	<path fill="none" stroke="#645655" stroke-width="3.8469" stroke-linecap="round" stroke-miterlimit="10" d="M2589.76,1346.209
		c0,0,0-12.045,15.419-13.012"/>
	<path fill="none" stroke="#645655" stroke-width="3.8469" stroke-linecap="round" stroke-miterlimit="10" d="M2790.22,1346.209
		c0,0,0-12.045-15.419-13.012"/>
	<path fill="#645655" d="M2644,1276.047V1295c0,0,31.246,0,55.336,0c24.098,0,48.189,1.85,53.01-4.899
		c4.818-6.746-10.08-14.737-35.139-14.737C2683.477,1275.363,2644,1276.047,2644,1276.047z"/>
	<path fill="#776868" d="M2643,1280.863v16.386c0,0,32.021-5.302,56.112-5.302c24.094,0,47.579,8.193,53.845-0.721
		c4.766-6.783-25.104-15.061-50.159-15.061C2669.063,1276.166,2643,1280.863,2643,1280.863z"/>
	<path fill="#645655" d="M2632.838,1284.236"/>
	<g>
		<g>
			<g>
				<g>
					<g>
						<g>
							
								<path fill-rule="evenodd" clip-rule="evenodd" fill="#EC68A4" stroke="#EC68A4" stroke-width="2.3754" stroke-miterlimit="10" d="
								M2675.012,1187.72c1.326,0.182,7.813,5.96,2.862,8.503c-1.088-0.887,0.054-2.65-0.782-4.598
								c-6.482-5.69-19.711-0.353-25.75,4.368c0.01,0.828,1.687,2.075,0.47,2.765c-5.255-2.387-12.089,3.41-14.779,7.704
								c-1.062,1.833,0.817,3.259-1.137,4.454c-1.69-0.088-1.127-3.348-3.306-2.754c-6.224,4.346-8.334,11.613-9.986,19.199
								c1.455-0.721,1.615,0.387,1.689,1.607c-5.78,0.115-5.951,6.242-3.882,10.595c-6.294,5.142-2.198,23.064,5.444,26.517
								c0.654-2.4,3.617-6.922,6.734-4.93c-2.854,2.021-6.224,3.674-5.188,8.451c5.686,4.47,21.248,3.048,26.141-2.067
								c1.91-0.034,2.975,1.125,5.293,0.519c0.752-0.676-0.098-2.497,1.985-2.229c0.897,7.283,4.156,11.236,10.001,11.548
								c2.941,13.167,19.684,7.569,29.918,3.44c-1.208-2.697,2.542-2.627,2.899-5.222c-1.19-2.505-4.315-2.278-5.152-5.276
								c3.311,0.462,5.872,1.984,6.688,5.963c0.071,1.673-1.557,2.13-2.295,3.231c8.655-2.242,19.898-9.63,15.59-19.68
								c-1.151-2.685-3.859-2.396-5.615-5.195c10.099-0.15,9.799,16.646,2.896,19.851c7.344-1.664,10.972-5.962,14.305-10.474
								c-0.231-1.579-1.12-2.833-0.777-4.597c0.429-2.18,2.759-2.013,4.051-3.997c0.52-0.797,0.219-2.796,0.756-3.916
								c1.524-3.151,3.914-5.267,5.736-5.229c-1.496,3.79-5.504,5.798-5.256,10.828c-8.175,3.184-0.855,8.37,3.475,9.342
								c5.843,1.32,12.83,2.186,16.57,2.867c0.406-1.061,0.97-2.009,1.373-3.071c-1.334-0.399-2.862-0.526-2.846-2.829
								c2.183-0.793,2.417,1.154,4.756,0.143c1.301-2.449,1.758-5.492,2.354-8.443c-0.033-1.85-2.617-0.113-2.308-2.445
								c3.202-0.641,1.823-6.725,0.888-11.502c-1.412,0.182-2.813,2.437-3.681,0.623c-0.263-2.211,2.722-2.119,3.67-3.464
								c-0.012-5.073-1.177-13.042-5.634-13.708c-0.381,1.213,0.113,3.047-1.298,3.529c-3.486-2.344,1.631-4.85-0.022-8.517
								c-0.277-1.505-2.153-0.763-2.311-2.447c-0.211-6.567-5.814-10.39-9.467-14.002c-8.264-0.442-5.287,9.156-9.635,10.151
								c1.5-4.328,0.9-10.148,7.099-11.141c-0.165-2.43-2.373-1.982-3.765-2.676c-4.438-3.627-8.353-7.984-14.752-8.848
								c0.622,1.618,4.455,5.141,1.553,6.359c-3.056-6.9-9.805-8.598-16.818-9.922c0.74,2.171,3.976,8.055,1.176,9.736
								c-1.791-1.905-1.363-6.704-3.478-9.348c-2.578-1.356-6.942-2.147-9.509-0.277c-0.726-1.065-2.171-1.119-3.147-1.833
								C2682.801,1187.926,2680.073,1187.068,2675.012,1187.72z M2686.265,1287.528c-8.632,1.53-14.366-1.037-16.967-8.001
								c-3.949-2.037-9.23-2.201-9.612-9.248c-4.093-0.718-6.299-0.248-8.582,2.398c-9.404,0.254-18.168,4.521-24.234-0.622
								c-0.854-0.724-1.117-2.279-2.002-3.442c-2.813-3.704-7.2-7.316-8.545-11.328c-2.045-6.104-1.22-13.123,1.016-19.095
								c-1.336-5.536,1-8.462,3.266-11.438c1.091-8.257,4.549-14.837,9.832-20.113c1.457-0.154,3.326-0.888,4.219-0.245
								c3.099-4.545,6.049-9.19,13.851-10.395c5.029-6.67,14.226-7.623,22.593-9.033c2.254-0.378,4.069-1.762,6.283-2.014
								c1.192-0.135,2.667,0.861,3.91,0.753c1.914-0.159,3.852-2.161,5.747-2.394c1.083-0.127,3.458,0.534,4.835,0.601
								c2.307,0.11,4.123-0.183,5.67-0.018c1.433,0.16,2.645,1.445,4.071,1.675c0.597,0.102,1.751-0.858,2.223-0.845
								c4.372,0.069,9.825,3.069,13.125,4.867c1.177-0.763,1.394-1.58,3.144-1.009c6.48,1.146,11.332,6.178,16.819,9.924
								c7.125,4.864,15.72,11.587,17.246,23.567c4.794,1.505,8.21,11.813,6.259,17.388c4.316,13.487,0.936,24.907-5.426,32.144
								c-1.447,0.524-2.192,0.055-3.298,0.089l-2.456-0.531c-5.346-2.91-13.24-2.238-18.034-5.928
								c-3.49,4.309-7.694,9.229-13.314,10.774c-1.161,0.317-2.591-0.616-3.835-0.295c-3.873,1.003-6.846,6.563-12.252,5.862
								C2695.52,1285.904,2686.265,1287.528,2686.265,1287.528z"/>
						</g>
					</g>
				</g>
			</g>
		</g>
		<g>
			<g>
				<g>
					<g>
						<g>
							<path fill-rule="evenodd" clip-rule="evenodd" fill="#F7B5C7" d="M2688.81,1185.378c0.977,0.714,2.422,0.768,3.147,1.833
								c2.566-1.87,6.931-1.079,9.509,0.277c2.114,2.644,1.687,7.442,3.478,9.348c2.8-1.682-0.436-7.565-1.176-9.736
								c7.014,1.324,13.763,3.021,16.818,9.922c2.902-1.219-0.931-4.741-1.553-6.359c6.399,0.863,10.314,5.221,14.752,8.848
								c1.392,0.693,3.6,0.246,3.765,2.676c-6.198,0.992-5.599,6.813-7.099,11.141c4.348-0.995,1.371-10.594,9.635-10.151
								c3.652,3.612,9.256,7.435,9.467,14.002c0.157,1.685,2.033,0.942,2.311,2.447c1.653,3.667-3.464,6.173,0.022,8.517
								c1.411-0.482,0.917-2.316,1.298-3.529c4.457,0.666,5.622,8.635,5.634,13.708c-0.948,1.345-3.933,1.253-3.67,3.464
								c0.868,1.813,2.269-0.441,3.681-0.623c0.936,4.777,2.314,10.861-0.888,11.502c-0.31,2.332,2.274,0.596,2.308,2.445
								c-0.596,2.951-1.053,5.994-2.354,8.443c-2.339,1.012-2.573-0.936-4.756-0.143c-0.017,2.303,1.512,2.43,2.846,2.829
								c-0.403,1.063-0.967,2.011-1.373,3.071c-3.74-0.682-10.728-1.547-16.57-2.867c-4.33-0.972-11.649-6.158-3.475-9.342
								c-0.248-5.03,3.76-7.038,5.256-10.828c-1.822-0.037-4.212,2.078-5.736,5.229c-0.537,1.12-0.236,3.119-0.756,3.916
								c-1.292,1.984-3.622,1.817-4.051,3.997c-0.343,1.764,0.546,3.018,0.777,4.597c-3.333,4.512-6.961,8.81-14.305,10.474
								c6.902-3.205,7.202-20.001-2.896-19.851c1.756,2.8,4.464,2.511,5.615,5.195c4.309,10.05-6.935,17.438-15.59,19.68
								c0.738-1.102,2.366-1.559,2.295-3.231c-0.816-3.979-3.378-5.501-6.688-5.963c0.837,2.998,3.962,2.771,5.152,5.276
								c-0.357,2.595-4.107,2.524-2.899,5.222c-10.234,4.129-26.977,9.727-29.918-3.44c-5.845-0.312-9.104-4.265-10.001-11.548
								c-2.083-0.269-1.233,1.553-1.985,2.229c-2.318,0.606-3.383-0.553-5.293-0.519c-4.893,5.115-20.455,6.537-26.141,2.067
								c-1.036-4.777,2.334-6.431,5.188-8.451c-3.117-1.992-6.08,2.529-6.734,4.93c-7.643-3.452-11.738-21.375-5.444-26.517
								c-2.069-4.353-1.898-10.479,3.882-10.595c-0.074-1.221-0.234-2.328-1.689-1.607c1.652-7.586,3.763-14.854,9.986-19.199
								c2.179-0.594,1.615,2.666,3.306,2.754c1.954-1.195,0.075-2.621,1.137-4.454c2.69-4.294,9.524-10.091,14.779-7.704
								c1.217-0.689-0.46-1.937-0.47-2.765c6.039-4.721,19.268-10.059,25.75-4.368c0.836,1.947-0.306,3.711,0.782,4.598
								c4.95-2.543-1.536-8.321-2.862-8.503C2680.073,1187.068,2682.801,1187.926,2688.81,1185.378z M2685.567,1205.329
								c-9.872,1.933-14.347,21.181,0.06,19.855c1.154,3.199,4.76,5.722,7.832,4.35c-2.396-1.939-5.832-2.417-7.148-5.886
								c-13.609,1.411-8.529-15.623,0.871-17.174c-2.291-9.714,3.938-13.389,8.766-18.049c-0.675,0-0.904-0.625-1.535-0.684
								C2689.594,1192.275,2683.509,1195.909,2685.567,1205.329z M2653.424,1199.898c1.889,2.279,5.229,2.511,6.229,6.041
								c7.814-2.846,15.889-2.139,20.555,1.246c-1.6-5.883-12.586-5.363-19.947-3.24
								C2658.973,1201.479,2656.041,1198.621,2653.424,1199.898z M2705.576,1203.354c3.879-2.774,7.827,0.647,10.352-0.335
								C2714.457,1200.551,2706.057,1198.526,2705.576,1203.354z M2628.865,1219.678c1.68,0.692,2.979-1.764,5.9-1.472
								c2.89,1.057,4.523,3.882,5.923,7.038c7.647-2.229,11.803,0.459,13.823,6.169c2.083-0.536,2.783-1.548,4.439-1.702
								c5.691-0.522,8.485,6.743,11.76,7.942c-1.582-5.243-7.725-11.829-15.592-8.239c-0.338-3.129-2.596-3.561-3.771-5.51
								c2.076-3.394,9.511-1.429,11.259-3.328c-3.824-2.467-10.46,0-13.257,2.721c-2.08-0.867-4.832-0.784-8.051-0.055
								C2640.563,1217.416,2631.805,1213.746,2628.865,1219.678z M2718.727,1216.734c1.474,5.227-1.331,7.416-6.726,7.763
								c0.308,4.775-4.378,9.036-9.64,7.311c-0.804,4.024-7.424,3.532-9.654,1.638c2.803,8.767-16.195,8.244-20.739,14.4
								c-5.031-3.741-14.756-0.869-17.431-7.924c-2.387-0.726-7.769-1.24-8.662,1.944c7.164-3.125,10.543,3.152,15.123,5.478
								c5.676-1.543,8.374,1.121,11.818,2.723c3.908-7.063,19.457-5.871,22.272-13.711c1.181,0.618,2.759,0.676,4.758,0.139
								c1.568-0.773,2.604-1.922,3.747-3c4.97,1.58,9.453-3.298,10.099-7.393c5.603-0.873,8.146-3.924,6.339-10.062
								c2.25-1.231,5.141-2.013,4.813-5.073c-4.384,5.398-13.333,4.765-16.258-1.029
								C2708.234,1215.24,2714.045,1216.641,2718.727,1216.734z M2725.582,1226.456c-2.609,7.851-8.23,13.568-16.438,17.449
								c3.987,1.974,6.32-2.438,10.58-1.793c1.867,1.55,2.023,5.5,3.621,7.428c4.645-0.408,13.068,0.248,12.028-4.404
								c-2.437,2.474-6.688,2.316-10.882,2.79c-1.476-1.148-1.525-4.311-2.471-6.203c-1.031-1.021-3.186-0.451-4.071-1.678
								c3.38-4.073,8.112-7.181,9.706-12.529c4.055-1.162,6.754-3.289,6.799-7.3c-0.184-0.501-0.631-0.634-1.074-0.762
								C2732.59,1223.069,2730.451,1225.73,2725.582,1226.456z M2624.109,1244.61c7.683-1.83,12.118,5.669,16.439,10.462
								c-2.223,1.118-4.744,2.023-4.898,4.611c2.287,0.411,3.396-3.159,6.509-3.465c4.498,1.637,9.808,2.135,12.442,6.398
								c1.291-1.934-2.334-4.067-1.778-4.9c3.71-0.953,6.313,2.367,8.744,1.355c-1.474-2.713-7.451-4.369-10.204-1.576
								c-2.879-2.024-4.809-0.8-7.441-2.055c-6.961-3.311-9.725-15.832-20.588-12.591
								C2623.437,1243.657,2623.682,1244.268,2624.109,1244.61z M2665.111,1263.203c2.213,0.445,2.34-1.607,4.36-2.16
								c5.275-1.428,8.905,1.529,10.222,7.26c4.666-2.385,9.807-1.049,12.12,1.725c2.446-4.283,9.868-3.213,12.798-2.645
								c-1.77-3.91-9.834-2.321-12.729,0.263c-2.775-1.885-7.061-3.044-11.121-1.42
								C2679.857,1258.9,2667.987,1255.871,2665.111,1263.203z M2748.119,1250.539c1.796,1.265,1.006,6.181,3.085,7.046
								c1.016-1.648-0.264-3.359,0.142-4.756c2.115-1.097,5.427,0.674,4.901-1.774c-1.431-1.195-4.276-0.178-6.058,0.556
								c-0.758-2.922-2.516-4.433-5.453-4.278C2744.857,1249.822,2747.469,1248.801,2748.119,1250.539z M2697.816,1277.53
								c-2.613-6.568-10.584,0.106-16.563-0.032c-4.521-0.105-4.583-3.281-8.751-4.194
								C2674.584,1283.501,2690.645,1274.457,2697.816,1277.53z"/>
						</g>
					</g>
				</g>
			</g>
		</g>
		<g>
			<g>
				<g>
					<g>
						<g>
							<g>
								<path fill-rule="evenodd" clip-rule="evenodd" fill="#EC68A4" d="M2694.412,1187.742c0.631,0.059,0.86,0.684,1.535,0.684
									c-4.828,4.66-11.057,8.335-8.766,18.049c-9.4,1.551-14.48,18.585-0.871,17.174c1.316,3.469,4.752,3.946,7.148,5.886
									c-3.072,1.372-6.678-1.15-7.832-4.35c-14.406,1.325-9.932-17.923-0.06-19.855
									C2683.509,1195.909,2689.594,1192.275,2694.412,1187.742z"/>
							</g>
						</g>
					</g>
				</g>
			</g>
			<g>
				<g>
					<g>
						<g>
							<g>
								<path fill-rule="evenodd" clip-rule="evenodd" fill="#EC68A4" d="M2660.26,1203.945c7.361-2.123,18.348-2.643,19.947,3.24
									c-4.666-3.385-12.74-4.092-20.555-1.246c-1-3.53-4.34-3.762-6.229-6.041
									C2656.041,1198.621,2658.973,1201.479,2660.26,1203.945z"/>
							</g>
						</g>
					</g>
				</g>
			</g>
			<g>
				<g>
					<g>
						<g>
							<g>
								<path fill-rule="evenodd" clip-rule="evenodd" fill="#EC68A4" d="M2715.928,1203.019c-2.524,0.982-6.473-2.439-10.352,0.335
									C2706.057,1198.526,2714.457,1200.551,2715.928,1203.019z"/>
							</g>
						</g>
					</g>
				</g>
			</g>
			<g>
				<g>
					<g>
						<g>
							<g>
								<path fill-rule="evenodd" clip-rule="evenodd" fill="#EC68A4" d="M2641.299,1223.242c3.219-0.729,5.971-0.813,8.051,0.055
									c2.797-2.721,9.433-5.188,13.257-2.721c-1.748,1.899-9.183-0.065-11.259,3.328c1.176,1.949,3.434,2.381,3.771,5.51
									c7.867-3.59,14.01,2.996,15.592,8.239c-3.274-1.199-6.068-8.465-11.76-7.942c-1.656,0.154-2.356,1.166-4.439,1.702
									c-2.021-5.71-6.176-8.398-13.823-6.169c-1.399-3.156-3.033-5.981-5.923-7.038c-2.922-0.292-4.221,2.164-5.9,1.472
									C2631.805,1213.746,2640.563,1217.416,2641.299,1223.242z"/>
							</g>
						</g>
					</g>
				</g>
			</g>
			<g>
				<g>
					<g>
						<g>
							<g>
								<path fill-rule="evenodd" clip-rule="evenodd" fill="#EC68A4" d="M2708.586,1209.938c2.925,5.794,11.874,6.428,16.258,1.029
									c0.328,3.061-2.563,3.842-4.813,5.073c1.807,6.138-0.736,9.188-6.339,10.062c-0.646,4.095-5.129,8.973-10.099,7.393
									c-1.143,1.078-2.179,2.227-3.747,3c-1.999,0.537-3.577,0.479-4.758-0.139c-2.815,7.84-18.364,6.647-22.272,13.711
									c-3.444-1.602-6.143-4.266-11.818-2.723c-4.58-2.325-7.959-8.603-15.123-5.478c0.894-3.185,6.275-2.67,8.662-1.944
									c2.675,7.055,12.399,4.183,17.431,7.924c4.544-6.156,23.542-5.634,20.739-14.4c2.23,1.895,8.851,2.387,9.654-1.638
									c5.262,1.726,9.947-2.535,9.64-7.311c5.395-0.347,8.199-2.536,6.726-7.763
									C2714.045,1216.641,2708.234,1215.24,2708.586,1209.938z"/>
							</g>
						</g>
					</g>
				</g>
			</g>
			<g>
				<g>
					<g>
						<g>
							<g>
								<path fill-rule="evenodd" clip-rule="evenodd" fill="#EC68A4" d="M2733.381,1219.454c0.443,0.128,0.891,0.261,1.074,0.762
									c-0.045,4.011-2.744,6.138-6.799,7.3c-1.594,5.349-6.326,8.456-9.706,12.529c0.886,1.227,3.04,0.656,4.071,1.678
									c0.945,1.893,0.995,5.055,2.471,6.203c4.193-0.474,8.445-0.316,10.882-2.79c1.04,4.652-7.384,3.996-12.028,4.404
									c-1.598-1.928-1.754-5.878-3.621-7.428c-4.26-0.646-6.593,3.767-10.58,1.793c8.207-3.881,13.828-9.599,16.438-17.449
									C2730.451,1225.73,2732.59,1223.069,2733.381,1219.454z"/>
							</g>
						</g>
					</g>
				</g>
			</g>
			<g>
				<g>
					<g>
						<g>
							<g>
								<path fill-rule="evenodd" clip-rule="evenodd" fill="#EC68A4" d="M2623.334,1242.851
									c10.863-3.241,13.627,9.28,20.588,12.591c2.633,1.255,4.563,0.03,7.441,2.055c2.753-2.793,8.73-1.137,10.204,1.576
									c-2.431,1.012-5.034-2.309-8.744-1.355c-0.556,0.833,3.069,2.967,1.778,4.9c-2.635-4.264-7.944-4.762-12.442-6.398
									c-3.113,0.306-4.222,3.876-6.509,3.465c0.154-2.588,2.676-3.493,4.898-4.611c-4.321-4.793-8.757-12.292-16.439-10.462
									C2623.682,1244.268,2623.437,1243.657,2623.334,1242.851z"/>
							</g>
						</g>
					</g>
				</g>
			</g>
			<g>
				<g>
					<g>
						<g>
							<g>
								<path fill-rule="evenodd" clip-rule="evenodd" fill="#EC68A4" d="M2680.762,1266.226c4.061-1.624,8.346-0.465,11.121,1.42
									c2.895-2.584,10.959-4.173,12.729-0.263c-2.93-0.568-10.352-1.639-12.798,2.645c-2.313-2.773-7.454-4.109-12.12-1.725
									c-1.316-5.73-4.946-8.688-10.222-7.26c-2.021,0.553-2.147,2.605-4.36,2.16
									C2667.987,1255.871,2679.857,1258.9,2680.762,1266.226z"/>
							</g>
						</g>
					</g>
				</g>
			</g>
			<g>
				<g>
					<g>
						<g>
							<g>
								<path fill-rule="evenodd" clip-rule="evenodd" fill="#EC68A4" d="M2744.736,1247.332c2.938-0.154,4.695,1.356,5.453,4.278
									c1.781-0.733,4.627-1.751,6.058-0.556c0.525,2.448-2.786,0.678-4.901,1.774c-0.405,1.396,0.874,3.107-0.142,4.756
									c-2.079-0.865-1.289-5.781-3.085-7.046C2747.469,1248.801,2744.857,1249.822,2744.736,1247.332z"/>
							</g>
						</g>
					</g>
				</g>
			</g>
			<g>
				<g>
					<g>
						<g>
							<g>
								<path fill-rule="evenodd" clip-rule="evenodd" fill="#EC68A4" d="M2672.502,1273.304c4.168,0.913,4.23,4.089,8.751,4.194
									c5.979,0.139,13.95-6.536,16.563,0.032C2690.645,1274.457,2674.584,1283.501,2672.502,1273.304z"/>
							</g>
						</g>
					</g>
				</g>
			</g>
		</g>
	</g>
	<circle fill="#191717" cx="2648.183" cy="1345.996" r="6.14"/>
	<circle fill="#191717" cx="2721.859" cy="1345.996" r="6.141"/>
	<path fill="none" stroke="#645655" stroke-width="5.7703" stroke-linecap="round" stroke-miterlimit="10" d="M2685.85,1361.644
		c6.446,0,11.676,5.226,11.676,11.675l0,0c0,6.445-5.229,11.671-11.676,11.671"/>
	<path fill="none" stroke="#645655" stroke-width="5.0313" stroke-linecap="round" stroke-miterlimit="10" d="M2714.052,1402.955
		c-3.97,5.029-12.374,11.601-27.638,11.601c-15.263,0-24.311-6.124-27.637-11.601"/>
</g>
<g>
	<g>
		<path fill="#FC855B" d="M3179.322,1211.747c0,0,16.967-1.286,17.74,21.082c0.77,22.368,2.313,33.68,2.313,33.68
			s1.799,16.199,1.799,18.511c0,2.314,0.417,13.211-3.855,23.074c-3.926,9.064-10.541,18.577-17.996,17.807
			c-7.457-0.772-14.656-6.43-17.227-19.027c-2.57-12.597-1.543-17.738,0-42.936c1.543-25.195,0.758-31.627,0.758-31.627
			S3160.531,1213.162,3179.322,1211.747z"/>
		<path fill="none" d="M3162.225,1261.984c4.049,11.139,8.453,16.016,18.01,16.016h0.121c12.979,0,17.898-7.191,17.898-21.07
			l-1.549-27.966c-0.287-7.836-6.793-16.964-16.35-16.964h-0.121c-9.557,0-17.432,7.551-17.432,16.865L3162.225,1261.984z"/>
		<path fill="#C0BFA4" d="M3178.678,1216c0,0-9.646,0.957-10.933,9.959c-1.284,8.994-1.284,17.446-1.284,17.446
			s-1.863,9.495,6.14,11.808c7.294,2.111,6.55,0.367,6.8,2.868l-0.016,0.849c0.025-0.161,0.046-0.307,0.063-0.448
			c0,41.031,0.035,0.284,0.063,0.444l-0.018-0.853c0.252-2.503-0.492-0.767,6.802-2.876c8.001-2.313,6.14-11.826,6.14-11.826
			s0-8.415-1.285-17.414c-1.285-8.998-10.295-9.957-10.295-9.957H3178.678z"/>
		<path fill="#B5573E" d="M3168.34,1252.515c0.947,1.172,2.309,2.164,4.261,2.728c7.294,2.109,6.55,0.351,6.8,2.854l-0.016,0.84
			c0.025-0.16,0.046-0.31,0.063-0.449c0,41.028,0.035,0.281,0.063,0.441l-0.018-0.854c0.252-2.502-0.492-0.768,6.802-2.877
			c1.914-0.553,3.259-1.52,4.204-2.669C3186.811,1251.901,3176.764,1250.537,3168.34,1252.515z"/>
		<line fill="none" x1="3189" y1="1253" x2="3189" y2="1277"/>
		<line fill="none" x1="3169" y1="1256" x2="3169" y2="1275"/>
		<path fill="#B5573E" d="M3168.168,1272.902c3.039,3.656,6.781,4.727,12.188,4.727c4.852-0.681,17.155,1.993,17.928-21.598
			c0,0,2.895,22.097,2.895,26.677l-0.686,13.857c-1.129,5.558-5.475,9.601-10.887,9.601c-4.754,0-8.738-2.859-9.641-6.657
			c-0.905,3.798-4.89,6.657-9.643,6.657c-2.914,0-5.222-0.571-6.844-2.083c-1.391-1.3-2.277-3.289-2.605-6.208l-0.342-10.155
			l1.693-25.92C3162.225,1260.992,3163.1,1266.807,3168.168,1272.902z"/>
		<rect x="3176" y="1227" fill="#78A89B" width="6" height="17"/>
		<line fill="none" stroke="#B5573E" stroke-width="2" stroke-miterlimit="10" x1="3185" y1="1260" x2="3174" y2="1260"/>
		<line fill="none" stroke="#B5573E" stroke-width="2" stroke-miterlimit="10" x1="3185" y1="1265" x2="3174" y2="1265"/>
		<line fill="none" stroke="#B5573E" stroke-width="2" stroke-miterlimit="10" x1="3185" y1="1269" x2="3174" y2="1269"/>
		<line fill="none" x1="3185" y1="1275" x2="3174" y2="1275"/>
		<path fill="#FC855B" d="M3136.746,1211.747c0,0-16.968-1.286-17.74,21.082c-0.771,22.368-2.313,33.68-2.313,33.68
			s-1.8,16.199-1.8,18.511c0,2.314-0.415,13.211,3.857,23.074c3.926,9.064,10.541,18.577,17.996,17.807
			c7.457-0.772,14.656-6.43,17.227-19.027c2.57-12.597,1.543-17.738,0-42.936c-1.544-25.195-0.758-31.627-0.758-31.627
			S3155.537,1213.162,3136.746,1211.747z"/>
		<path fill="none" d="M3153.844,1261.984c-4.049,11.139-8.452,16.016-18.01,16.016h-0.123c-12.977,0-17.896-7.191-17.896-21.07
			l1.549-27.966c0.287-7.836,6.793-16.964,16.348-16.964h0.123c9.558,0,17.432,7.551,17.432,16.865L3153.844,1261.984z"/>
		<path fill="#C0BFA4" d="M3137.391,1216c0,0,9.646,0.957,10.93,9.959c1.287,8.994,1.287,17.446,1.287,17.446
			s1.863,9.495-6.139,11.808c-7.295,2.111-6.553,0.367-6.801,2.868l0.014,0.849c-0.023-0.161-0.044-0.307-0.061-0.448
			c0,41.031-0.037,0.284-0.063,0.444l0.016-0.853c-0.252-2.503,0.494-0.767-6.801-2.876c-8.002-2.313-6.139-11.826-6.139-11.826
			s0-8.415,1.285-17.414c1.285-8.998,10.295-9.957,10.295-9.957H3137.391z"/>
		<path fill="#B5573E" d="M3147.727,1252.515c-0.947,1.172-2.309,2.164-4.258,2.728c-7.295,2.109-6.553,0.351-6.801,2.854
			l0.014,0.84c-0.023-0.16-0.044-0.31-0.061-0.449c0,41.028-0.037,0.281-0.063,0.441l0.016-0.854
			c-0.252-2.502,0.494-0.768-6.801-2.877c-1.914-0.553-3.258-1.52-4.205-2.669
			C3129.256,1251.901,3139.303,1250.537,3147.727,1252.515z"/>
		<line fill="none" x1="3126" y1="1253" x2="3126" y2="1277"/>
		<line fill="none" x1="3147" y1="1256" x2="3147" y2="1275"/>
		<path fill="#B5573E" d="M3147.898,1272.902c-3.037,3.656-6.781,4.727-12.188,4.727c-4.85-0.681-17.154,1.993-17.924-21.598
			c0,0-2.896,22.097-2.896,26.677l0.685,13.857c1.13,5.558,5.474,9.601,10.888,9.601c4.753,0,8.736-2.859,9.641-6.657
			c0.905,3.798,4.889,6.657,9.641,6.657c2.914,0,5.224-0.571,6.846-2.083c1.392-1.3,2.275-3.289,2.604-6.208l0.344-10.155
			l-1.693-25.92C3153.844,1260.992,3152.968,1266.807,3147.898,1272.902z"/>
		<rect x="3133" y="1227" fill="#78A89B" width="5" height="17"/>
		<line fill="none" stroke="#B5573E" stroke-width="2" stroke-miterlimit="10" x1="3131" y1="1260" x2="3143" y2="1260"/>
		<line fill="none" stroke="#B5573E" stroke-width="2" stroke-miterlimit="10" x1="3131" y1="1265" x2="3143" y2="1265"/>
		<line fill="none" stroke="#B5573E" stroke-width="2" stroke-miterlimit="10" x1="3131" y1="1269" x2="3143" y2="1269"/>
		<line fill="none" x1="3133" y1="1275" x2="3143" y2="1275"/>
	</g>
	<path fill="#203C59" d="M3085,1311.641c0,3.047-1.98,5.359-4.97,5.359h-81.62c-2.988,0-5.41-2.313-5.41-5.359v-91.588
		c0-3.046,2.422-6.053,5.41-6.053h81.62c2.989,0,4.97,3.007,4.97,6.053V1311.641z"/>
	<path fill="#162C3F" d="M3055.289,1225l29.711,7.248v-14.027c0-3.131-0.206-5.221-3.338-5.221h-81.469
		c-3.131,0-7.193,2.09-7.193,5.221v13.849l32.658-7.069H3055.289z"/>
	<rect x="3033" y="1239" fill="#5FA18B" width="14" height="78"/>
	<polyline fill="none" points="2995.283,1232.791 3026.264,1225 3055.892,1225 3088.086,1235.105 	"/>
	<path fill="none" d="M3021,1269h-15.019c1.563,2,2.019,3.299,2.019,5.298v37.032c0,1.366-1.088,2.621-1.895,3.601l14.895,0.103
		V1269z"/>
	<path fill="none" d="M3008,1274.298c0-1.999-0.455-3.298-2.019-5.298h-11.76c0,0,0.378,32.943,0.151,39.945
		c-0.151,4.712,5.67,5.803,5.67,5.803l6.959,0.113c0.805-0.979,0.998-2.165,0.998-3.531V1274.298z"/>
	<line fill="none" x1="2995" y1="1286" x2="3023" y2="1286"/>
	<line fill="none" x1="3001" y1="1286" x2="3001" y2="1301"/>
	<line fill="none" x1="3016" y1="1286" x2="3016" y2="1301"/>
	<line fill="none" x1="3063" y1="1286" x2="3089" y2="1286"/>
	<line fill="none" x1="2998" y1="1280" x2="3007" y2="1280"/>
	<line fill="none" x1="3040" y1="1253" x2="3040" y2="1263"/>
	<line fill="none" x1="3040" y1="1275" x2="3040" y2="1286"/>
	<line fill="none" x1="3040" y1="1297" x2="3040" y2="1308"/>
	<line fill="none" x1="3040" y1="1297" x2="3040" y2="1308"/>
	<path fill="#FF865D" d="M3004,1279.51c0,1.375-1.115,2.49-2.49,2.49h-0.02c-1.375,0-2.49-1.115-2.49-2.49v-0.02
		c0-1.375,1.115-2.49,2.49-2.49h0.02c1.375,0,2.49,1.115,2.49,2.49V1279.51z"/>
	<path fill="#FF865D" d="M3043,1259.511c0,1.375-1.115,2.489-2.49,2.489h-0.02c-1.375,0-2.49-1.114-2.49-2.489v-0.021
		c0-1.375,1.115-2.489,2.49-2.489h0.02c1.375,0,2.49,1.114,2.49,2.489V1259.511z"/>
	<path fill="#FF865D" d="M3043,1282.51c0,1.375-1.115,2.49-2.49,2.49h-0.02c-1.375,0-2.49-1.115-2.49-2.49v-0.02
		c0-1.375,1.115-2.49,2.49-2.49h0.02c1.375,0,2.49,1.115,2.49,2.49V1282.51z"/>
	<path fill="#FF865D" d="M3043,1301.511c0,1.375-1.115,2.489-2.49,2.489h-0.02c-1.375,0-2.49-1.114-2.49-2.489v-0.021
		c0-1.375,1.115-2.489,2.49-2.489h0.02c1.375,0,2.49,1.114,2.49,2.489V1301.511z"/>
	<path fill="none" d="M3061,1280v6.616V1316h15.901c0,0,2.144,0,4.786,0h0.102c2.334,0,3.486-2.531,3.91-4.742l-0.699-0.595v-1.45
		V1280H3061z"/>
	<polygon fill="#162C3F" points="3085,1278 3061,1278 3061,1285.104 3061,1286 3085,1286 	"/>
	<path fill="#78A89B" d="M3030.406,1255.989l10.666-12.207c0,0-19.789-24.782-20.502-30.782h-9.117
		C3011.453,1213,3011.453,1230.44,3030.406,1255.989z"/>
	<path fill="#78A89B" d="M3051.746,1255.989l-10.667-12.207c0,0,19.788-24.782,20.502-30.782h9.117
		C3070.698,1213,3070.698,1230.44,3051.746,1255.989z"/>
	<polygon fill="#162C3F" points="3041.121,1244.502 3036.623,1239 3045.613,1239 	"/>
</g>
<g>
	<g>
		<path fill="#3FA9F5" d="M3150.65,1934c10.993,0,18.35-9.439,18.35-20.431v-1.021c0-10.991-7.356-18.548-18.35-18.548H3099v40
			H3150.65z"/>
		<path fill="#D4E3F9" d="M3099,1894h-43.263c-10.991,0-20.737,7.557-20.737,18.548v1.021c0,10.991,9.746,20.431,20.737,20.431H3099
			V1894z"/>
	</g>
	<path fill="#FFFFFF" d="M3112.308,1901.5c0-1.418,1.151-1.5,2.576-1.5h23.832c1.424,0,2.576,0.082,2.576,1.5
		c0,1.426-1.152,1.5-2.576,1.5h-23.832C3113.459,1903,3112.308,1902.926,3112.308,1901.5z"/>
	<path fill="#FFFFFF" d="M3146.444,1902.117c0-1.423,1.153-2.58,2.578-2.58l0,0c1.425,0,2.578,1.157,2.578,2.58
		s-1.153,2.576-2.578,2.576l0,0C3147.598,1904.693,3146.444,1903.54,3146.444,1902.117z"/>
</g>
<path fill="#FFFFFF" d="M1359.243,79.438c-25.279-30.159-63.862-6.654-80.715-6.654s-55.437-23.505-80.717,6.654
	c-25.277,30.156-23.946,72.286-10.642,97.566c13.304,25.28,14.635,62.978,15.078,78.942c0.442,15.965,10.153,41.244,25.922,41.244
	c15.768,0,29.514-72.289,50.358-72.289s34.593,72.289,50.36,72.289s25.478-25.279,25.92-41.244
	c0.443-15.965,1.773-53.662,15.078-78.942C1383.193,151.725,1384.523,109.595,1359.243,79.438z"/>
<polygon fill="#F9A95D" points="259.159,274 258.351,340.153 217.041,353 72,353 72,61 305,61 305,274 "/>
<rect x="72" y="374" fill="#F9A95E" width="240" height="97"/>
<rect x="71" y="374" fill="#F9A95D" width="241" height="97"/>
<rect x="247" y="394" fill="#FFFEFF" width="41" height="59"/>
<rect x="270" y="98" fill="#91C079" width="13" height="39"/>
<rect x="249" y="98" fill="#203647" width="21" height="39"/>
<rect x="245" y="98" fill="#30A49D" width="4" height="39"/>
<rect x="235" y="98" fill="#8AC475" width="10" height="39"/>
<rect x="242" y="90" fill="#EDFFFF" width="33" height="8"/>
<rect x="242" y="137" fill="#EDFFFF" width="33" height="8"/>
<rect x="242" y="88" fill="#09A893" width="33" height="2"/>
<path fill="#EDFFFF" d="M269.769,82c-1.221-6-5.864-9.157-11.418-9.157c-5.558,0-10.2,3.157-11.422,9.157H242v6h4.997H269.7h5.3v-6
	H269.769z"/>
<rect x="236" y="145" fill="#30A49D" width="43" height="5"/>
<path fill="#EF4D3E" d="M275,150v-1.887c0,2.242-1.104,4.887-4.405,4.887h-23.432c-3.301,0-5.163-2.645-5.163-4.887V150H275z"/>
<rect x="133" y="98" fill="#91C079" width="11" height="39"/>
<rect x="110" y="98" fill="#203647" width="23" height="39"/>
<rect x="107" y="98" fill="#30A49D" width="3" height="39"/>
<rect x="93" y="98" fill="#8AC475" width="14" height="39"/>
<rect x="100" y="90" fill="#EDFFFF" width="37" height="8"/>
<rect x="100" y="137" fill="#EDFFFF" width="37" height="8"/>
<rect x="100" y="88" fill="#09A893" width="37" height="2"/>
<path fill="#EDFFFF" d="M131.265,82c-1.221-6-5.863-9.157-11.42-9.157c-5.555,0-10.199,3.157-11.42,9.157H100v6h8.495h22.7H137v-6
	H131.265z"/>
<rect x="96" y="145" fill="#30A49D" width="45" height="5"/>
<path fill="#EF4D3E" d="M137,150v-1.887c0,2.242-1.608,4.887-4.908,4.887h-23.433c-3.302,0-7.659-2.645-7.659-4.887V150H137z"/>
<rect x="270" y="204" fill="#91C079" width="13" height="40"/>
<rect x="249" y="204" fill="#203647" width="21" height="40"/>
<rect x="245" y="204" fill="#30A49D" width="4" height="40"/>
<rect x="235" y="204" fill="#8AC475" width="10" height="40"/>
<rect x="242" y="198" fill="#EDFFFF" width="33" height="6"/>
<rect x="242" y="244" fill="#EDFFFF" width="33" height="8"/>
<rect x="242" y="194" fill="#09A893" width="33" height="4"/>
<path fill="#EDFFFF" d="M269.769,187c-1.221-5-5.864-9.159-11.418-9.159c-5.558,0-10.2,4.159-11.422,9.159H242v7h4.997H269.7h5.3v-7
	H269.769z"/>
<rect x="236" y="252" fill="#30A49D" width="43" height="4"/>
<path fill="#EF4D3E" d="M275,256v-1.272c0,2.243-1.104,5.272-4.405,5.272h-23.432c-3.301,0-5.163-3.029-5.163-5.272V256H275z"/>
<rect x="126" y="285" fill="#91C079" width="13" height="39"/>
<rect x="103" y="285" fill="#203647" width="23" height="39"/>
<rect x="100" y="285" fill="#30A49D" width="3" height="39"/>
<rect x="90" y="285" fill="#8AC475" width="10" height="39"/>
<rect x="93" y="276" fill="#EDFFFF" width="40" height="9"/>
<rect x="93" y="324" fill="#EDFFFF" width="40" height="9"/>
<rect x="93" y="274" fill="#09A893" width="40" height="2"/>
<path fill="#EDFFFF" d="M125.596,267c-1.221-4-5.864-9.158-11.421-9.158c-5.555,0-10.199,5.158-11.42,9.158H93v7h9.825h22.701H133
	v-7H125.596z"/>
<path fill="#FFFEFF" d="M280.505,386c-1.33-7-6.387-9.158-12.435-9.158c-6.052,0-11.105,2.158-12.438,9.158H247v7h8.71h24.719H288
	v-7H280.505z"/>
<rect x="92" y="333" fill="#30A49D" width="44" height="2"/>
<path fill="#EF4D3E" d="M133,335v0.098c0,2.242-3.276,2.902-6.579,2.902H102.99c-3.302,0-7.99-0.66-7.99-2.902V335H133z"/>
<rect x="72" y="49" fill="#EDFFFF" width="233" height="8"/>
<rect x="305" y="49" fill="#14A99B" width="41" height="8"/>
<rect x="305" y="57" fill="#203458" width="38" height="4"/>
<rect x="72" y="57" fill="#F54840" width="233" height="4"/>
<rect x="256" y="401" fill="#1D3354" width="23" height="52"/>
<rect x="267" y="401" fill="#88C66F" width="12" height="52"/>
<rect x="253" y="401" fill="#359991" width="3" height="52"/>
<rect x="247" y="393" fill="#14A4A3" width="41" height="1"/>
<polygon fill="#18A1AF" points="257,347.121 217,359.421 217,352.043 257,339.741 "/>
<polygon fill="#FFFEFF" points="71.247,360 216.845,360 217.041,353 71.868,353 "/>
<rect x="71" y="360" fill="#FFFEFF" width="241" height="8"/>
<rect x="72" y="368" fill="#F15040" width="240" height="6"/>
<polygon fill="#0FA9A5" points="352,352.861 312,366.803 312,360.243 352,346.3 "/>
<polygon fill="#193247" points="312,371.723 349,357.781 349,352.861 312,366.803 "/>
<polygon fill="#EC4F3C" points="349,446.358 312,471.368 312,371.723 349,357.781 "/>
<polygon fill="#FDFFFF" points="243,453 243,460 233,460 233,467 224,467 224,471 232.836,471 241.746,471 279,471 279,453 "/>
<polygon fill="#11ADA5" points="279,453 279,460 270,460 270,467 261,467 261,471 270.904,471 279.813,471 288,471 288,453 "/>
<polygon fill="#EF4D3E" points="346,259.369 305,274.131 305,61 346,61 "/>
<polygon fill="#EF4D3E" points="217,274 259.159,274 258.329,339.676 217,352.043 "/>
<polygon fill="#2A2F46" points="312,362 104.911,362 104.456,360 312,360 "/>
<path fill="#17A197" d="M121,134.714V119.95c0,0,1.68-10.95-10.875-10.95c-12.554,0-44.548,0-44.548,0S50,109.289,50,126.103
	c0,16.813,0,344.034,0,344.034s7,4.101,11,0V126.512c0,0-1.497-9.512,10.247-9.512c11.745,0,36.449,0,36.449,0
	s5.304,0.081,5.304,7.053c0,6.97,0,10.661,0,10.661S116,139.225,121,134.714z"/>
<path fill="#2669A3" d="M336.105,396h57.227c0,0,5.668-0.418,5.668,6.554c0,6.97,0,41.826,0,41.826s4,3.689,9-0.821v-45.105
	c0,0,0.316-13.453-12.237-13.453c-12.555,0-59.657,0-59.657,0S327.194,392,336.105,396z"/>
<path fill="#2669A3" d="M269.226,291.875"/>
<path fill="#2669A3" d="M408,470v-74.95c0,0-6-7.79-9-3.278V470"/>
<path fill="#2669A3" d="M17,77.891V19.948c0,0-0.207-3.948,6.679-3.948c6.885,0,41.31,0,41.31,0s3.644-6-0.811-10H19.629
	C19.629,6,6,4.775,6,17.485c0,12.713,0,60.405,0,60.405S12,86.913,17,77.891z"/>
<path fill="#2669A3" d="M95,6H47.024c0,0-7.693,7-3.238,10H95"/>
<path fill="#2669A3" d="M114.524,293H20.067c0,0-4.067,1-4.067-5.972s0-41.828,0-41.828s-5-3.689-10,0.821v45.106
	c0,0-0.917,12.872,11.636,12.872c12.555,0,98.508,0,98.508,0S123.435,298,114.524,293z"/>
<path fill="#2669A3" d="M6,72v214.336c0,0,0.228,0,9.94-11.474l1.504-203.157"/>
<path fill="#2669A3" d="M265.226,285.875"/>
<path fill="#17A197" d="M265.052,127h-38.066c0,0-13.985,0.826-13.985-11.885c0-12.712,0-69.709,0-69.709S216.454,32,233.06,32
	c16.604,0,109.748,0,109.748,0s4.049,7,0,11H233.464c0,0-9.464-3.746-9.464,8.146s0,61.511,0,61.511s0.148,4.343,7.035,4.343
	c6.886,0,34.017,0,34.017,0S269.507,123,265.052,127z"/>
<path fill="#17A197" d="M328.995,126h38.066c0,0,10.938,0.187,10.938-12.524s0-68.069,0-68.069S377.594,32,360.989,32
	c-16.604,0-106.514,0-106.514,0s-4.046,7,0,11h106.108c0,0,9.416-3.746,9.416,8.146s0,59.868,0,59.868S369.897,116,363.014,116
	s-34.019,0-34.019,0S324.54,120,328.995,126z"/>
<path fill="#2669A3" d="M49,6h68.338c0,0,12.662,1.012,12.662,17.824c0,16.812,0,111.123,0,111.123s-3.659,4.101-8.519,0
	l1.004-109.998c0,0,0.926-8.949-10.819-8.949C99.925,16,52,16,52,16"/>
<path fill="#FFE00A" d="M328.964,125.978l17.818,0.306c0,0,11.975-0.806,11.875,11.905c-0.102,12.711-0.549,69.707-0.549,69.707
	c0.252-2.185,0.549,13.471-18.147,13.471c-16.606-0.002-45.765-1.188-45.765-1.188s-4.006-4.134,0.08-9.021l45.355,0.363
	c0,0,9.52,2.454,9.615-9.438c0.093-11.891,0.482-61.506,0.482-61.506s-0.184-5.246-7.066-5.303
	c-6.885-0.055-13.77-0.271-13.77-0.271S324.472,130.862,328.964,125.978z"/>
<polygon fill="#11ADA5" points="286,353 286,345 278,345 278,337 267,337 267,331.949 220.759,332.037 220.759,332.037 
	220.759,332.037 220.759,332.037 254.704,360 285.482,360 285.499,360 285.482,360 291,360 291,353 "/>
<polygon fill="#FFFEFF" points="247,353 247,345 242,345 242,337 233,337 233,333 215.015,333 215.167,333 215.167,333 215.167,333 
	247.29,360 247.29,360 247.29,360 247.414,360 256,360 256,353 "/>
<path fill="#FFDE15" d="M257,237.227v-14.762c0,0,0.144-11.465,12.7-11.465c12.553,0,44.545,0,44.545,0S327,211.805,327,228.616
	s0,161.971,0,161.971s-5,4.102-9,0V229.026c0,0,2.319-9.026-9.424-9.026c-11.744,0-36.448,0-36.448,0S267,219.597,267,226.565
	c0,6.972,0,10.661,0,10.661S261,241.737,257,237.227z"/>
<path fill="#FFDE15" d="M318,473V335.718c0,0,4-4.101,9,0V473"/>
<path fill="#FFDE15" d="M263,409.86c0,0,31.125,0.408,35.984,0c4.861-0.41,6.016-2.87,6.016-2.87s0-21.323,0-26.654
	c0-5.332,6.817-5.336,6.817-5.336h10.529c0,0,1.619,3,0,4h-6.887c0,0-4.97,0.231-4.97,5.56c0,5.33-0.698,25.479-0.698,25.479
	s-0.313,5.035-5.172,5.446c-4.859,0.41-41.62,0.411-41.62,0.411V409.86z"/>
<rect x="72" y="360" fill="#0E9B8E" width="145" height="2"/>
<path fill="#17A197" d="M116,307.346c0,0-28.314,0.41-33.174,0c-4.86-0.41-4.826-2.871-4.826-2.871s0-21.322,0-26.654
	c0-5.328-7.563-6.82-7.563-6.82H59.908c0,0-1.62,3,0,5h6.884c0,0,4.16,0.066,4.16,5.393c0,5.334-0.109,26.215-0.109,26.215
	s1.115,4.998,5.975,5.407c4.859,0.41,39.183,0.368,39.183,0.368V307.346z"/>
</svg>
