<?xml version="1.0" encoding="utf-8"?>
<!-- Generator: Adobe Illustrator 16.0.0, SVG Export Plug-In . SVG Version: 6.00 Build 0)  -->
<!DOCTYPE svg PUBLIC "-//W3C//DTD SVG 1.1//EN" "http://www.w3.org/Graphics/SVG/1.1/DTD/svg11.dtd">
<svg version="1.1" id="Layer_1" xmlns="http://www.w3.org/2000/svg" xmlns:xlink="http://www.w3.org/1999/xlink" x="0px" y="0px"
	 width="223.789px" height="283.04px" viewBox="0 0 223.789 283.04" enable-background="new 0 0 223.789 283.04"
	 xml:space="preserve">
<g>
	<polygon fill="#F9A95D" points="419.286,4724 418.478,4790.153 377.168,4803 232,4803 232,4511 465,4511 465,4724 	"/>
	<rect x="232" y="4824" fill="#F9A95E" width="240" height="97"/>
	<rect x="231" y="4824" fill="#F9A95D" width="241" height="97"/>
	<rect x="407" y="4844" fill="#FFFEFF" width="41" height="59"/>
	<rect x="430" y="4548" fill="#91C079" width="13" height="39"/>
	<rect x="409" y="4548" fill="#203647" width="21" height="39"/>
	<rect x="405" y="4548" fill="#30A49D" width="4" height="39"/>
	<rect x="395" y="4548" fill="#8AC475" width="10" height="39"/>
	<rect x="402" y="4540" fill="#EDFFFF" width="33" height="8"/>
	<rect x="402" y="4587" fill="#EDFFFF" width="33" height="8"/>
	<rect x="402" y="4538" fill="#09A893" width="33" height="2"/>
	<path fill="#EDFFFF" d="M429.896,4532c-1.221-6-5.864-9.157-11.418-9.157c-5.558,0-10.2,3.157-11.422,9.157H402v6h5.124h22.703H435
		v-6H429.896z"/>
	<rect x="396" y="4595" fill="#30A49D" width="43" height="5"/>
	<path fill="#EF4D3E" d="M435,4600v-1.801c0,2.242-0.977,4.801-4.278,4.801H407.29c-3.301,0-5.29-2.559-5.29-4.801V4600H435z"/>
	<rect x="293" y="4548" fill="#91C079" width="11" height="39"/>
	<rect x="270" y="4548" fill="#203647" width="23" height="39"/>
	<rect x="267" y="4548" fill="#30A49D" width="3" height="39"/>
	<rect x="253" y="4548" fill="#8AC475" width="14" height="39"/>
	<rect x="260" y="4540" fill="#EDFFFF" width="37" height="8"/>
	<rect x="260" y="4587" fill="#EDFFFF" width="37" height="8"/>
	<rect x="260" y="4538" fill="#09A893" width="37" height="2"/>
	<path fill="#EDFFFF" d="M291.392,4532c-1.221-6-5.863-9.157-11.42-9.157c-5.555,0-10.199,3.157-11.42,9.157H260v6h8.622h22.7H297
		v-6H291.392z"/>
	<rect x="256" y="4595" fill="#30A49D" width="45" height="5"/>
	<path fill="#EF4D3E" d="M297,4600v-1.801c0,2.242-1.481,4.801-4.781,4.801h-23.433c-3.302,0-7.786-2.559-7.786-4.801V4600H297z"/>
	<rect x="430" y="4654" fill="#91C079" width="13" height="40"/>
	<rect x="409" y="4654" fill="#203647" width="21" height="40"/>
	<rect x="405" y="4654" fill="#30A49D" width="4" height="40"/>
	<rect x="395" y="4654" fill="#8AC475" width="10" height="40"/>
	<rect x="402" y="4648" fill="#EDFFFF" width="33" height="6"/>
	<rect x="402" y="4694" fill="#EDFFFF" width="33" height="8"/>
	<rect x="402" y="4644" fill="#09A893" width="33" height="4"/>
	<path fill="#EDFFFF" d="M429.896,4637c-1.221-5-5.864-9.159-11.418-9.159c-5.558,0-10.2,4.159-11.422,9.159H402v7h5.124h22.703H435
		v-7H429.896z"/>
	<rect x="396" y="4702" fill="#30A49D" width="43" height="4"/>
	<path fill="#EF4D3E" d="M435,4706v-1.187c0,2.243-0.977,5.187-4.278,5.187H407.29c-3.301,0-5.29-2.943-5.29-5.187V4706H435z"/>
	<rect x="286" y="4735" fill="#91C079" width="13" height="39"/>
	<rect x="263" y="4735" fill="#203647" width="23" height="39"/>
	<rect x="260" y="4735" fill="#30A49D" width="3" height="39"/>
	<rect x="250" y="4735" fill="#8AC475" width="10" height="39"/>
	<rect x="253" y="4726" fill="#EDFFFF" width="40" height="9"/>
	<rect x="253" y="4774" fill="#EDFFFF" width="40" height="9"/>
	<rect x="253" y="4724" fill="#09A893" width="40" height="2"/>
	<path fill="#EDFFFF" d="M285.723,4717c-1.221-4-5.864-9.158-11.421-9.158c-5.555,0-10.199,5.158-11.42,9.158H253v7h9.952h22.701
		H293v-7H285.723z"/>
	<path fill="#FFFEFF" d="M440.632,4836c-1.33-7-6.387-9.158-12.435-9.158c-6.052,0-11.105,2.158-12.438,9.158H407v7h8.837h24.719
		H448v-7H440.632z"/>
	<rect x="252" y="4783" fill="#30A49D" width="44" height="2"/>
	<path fill="#EF4D3E" d="M293,4785v0.184c0,2.242-3.149,2.816-6.452,2.816h-23.431c-3.302,0-8.117-0.574-8.117-2.816V4785H293z"/>
	<rect x="232" y="4499" fill="#EDFFFF" width="233" height="8"/>
	<rect x="465" y="4499" fill="#14A99B" width="41" height="8"/>
	<rect x="465" y="4507" fill="#203458" width="38" height="4"/>
	<rect x="232" y="4507" fill="#F54840" width="233" height="4"/>
	<rect x="416" y="4851" fill="#1D3354" width="23" height="52"/>
	<rect x="427" y="4851" fill="#88C66F" width="12" height="52"/>
	<rect x="413" y="4851" fill="#359991" width="3" height="52"/>
	<rect x="407" y="4843" fill="#14A4A3" width="41" height="1"/>
	<polygon fill="#18A1AF" points="417,4797.207 377,4809.507 377,4802.129 417,4789.827 	"/>
	<polygon fill="#FFFEFF" points="231.374,4810 279.972,4810 377.168,4803 232.995,4803 	"/>
	<rect x="231" y="4810" fill="#FFFEFF" width="241" height="8"/>
	<rect x="232" y="4818" fill="#F15040" width="240" height="6"/>
	<polygon fill="#0FA9A5" points="512,4802.947 472,4816.889 472,4810.329 512,4796.386 	"/>
	<polygon fill="#193247" points="472,4821.809 509,4807.867 509,4802.947 472,4816.889 	"/>
	<polygon fill="#EC4F3C" points="509,4896.444 472,4921.454 472,4821.809 509,4807.867 	"/>
	<polygon fill="#FDFFFF" points="403,4903 403,4910 393,4910 393,4917 384,4917 384,4921 392.963,4921 401.873,4921 439,4921 
		439,4903 	"/>
	<polygon fill="#11ADA5" points="439,4903 439,4910 430,4910 430,4917 421,4917 421,4921 431.031,4921 439.94,4921 448,4921 
		448,4903 	"/>
	<polygon fill="#EF4D3E" points="506,4709.455 465,4724.217 465,4511 506,4511 	"/>
	<polygon fill="#EF4D3E" points="377,4724 419.286,4724 418.393,4789.719 377,4802.129 	"/>
	<polygon fill="#2A2F46" points="472,4812 265.038,4812 264.583,4810 472,4810 	"/>
	<path fill="#17A197" d="M281,4584.8v-14.764c0,0,1.807-11.036-10.748-11.036c-12.554,0-44.548,0-44.548,0
		S210,4559.375,210,4576.188c0,16.813,0,344.034,0,344.034s7,4.101,11,0v-343.625c0,0-1.37-9.598,10.374-9.598
		c11.745,0,36.449,0,36.449,0s5.177,0.167,5.177,7.139c0,6.97,0,10.661,0,10.661S276,4589.311,281,4584.8z"/>
	<path fill="#2669A3" d="M496.232,4846h57.227c0,0,5.541-0.332,5.541,6.64c0,6.97,0,41.826,0,41.826s4,3.689,9-0.821v-45.105
		c0,0,0.443-13.539-12.11-13.539c-12.555,0-59.657,0-59.657,0S487.321,4842,496.232,4846z"/>
	<path fill="#2669A3" d="M429.353,4741.961"/>
	<path fill="#2669A3" d="M568,4920v-74.864c0,0-6-7.79-9-3.278V4920"/>
	<path fill="#2669A3" d="M177,4527.977v-57.942c0,0-0.08-4.034,6.806-4.034c6.885,0,41.31,0,41.31,0s3.644-6-0.811-10h-44.549
		c0,0-13.756-1.139-13.756,11.571c0,12.713,0,60.405,0,60.405S172,4536.999,177,4527.977z"/>
	<path fill="#2669A3" d="M255,4456h-47.849c0,0-7.693,7-3.238,10H255"/>
	<path fill="#2669A3" d="M274.651,4743h-94.457c0,0-4.194,1.086-4.194-5.886s0-41.828,0-41.828s-5-3.689-10,0.821v45.106
		c0,0-0.79,12.786,11.763,12.786c12.555,0,98.508,0,98.508,0S283.562,4748,274.651,4743z"/>
	<path fill="#2669A3" d="M166,4522v214.422c0,0,0.291,0,10.004-11.474l1.473-203.2"/>
	<path fill="#2669A3" d="M425.353,4735.961"/>
	<path fill="#17A197" d="M425.179,4577h-38.066c0,0-14.112,0.912-14.112-11.799c0-12.712,0-69.709,0-69.709
		S376.581,4482,393.187,4482c16.604,0,109.748,0,109.748,0s4.049,7,0,11H393.591c0,0-9.591-3.66-9.591,8.232s0,61.511,0,61.511
		s0.275,4.257,7.162,4.257c6.886,0,34.017,0,34.017,0S429.634,4573,425.179,4577z"/>
	<path fill="#17A197" d="M489.122,4576h38.066c0,0,10.812,0.272,10.812-12.438s0-68.069,0-68.069S537.721,4482,521.116,4482
		c-16.604,0-106.514,0-106.514,0s-4.046,7,0,11h106.108c0,0,9.289-3.66,9.289,8.232s0,59.868,0,59.868s0.024,4.899-6.859,4.899
		s-34.019,0-34.019,0S484.667,4570,489.122,4576z"/>
	<path fill="#2669A3" d="M209,4456h68.465c0,0,12.535,1.098,12.535,17.91c0,16.812,0,111.123,0,111.123s-3.596,4.101-8.455,0
		l1.036-110.041c0,0,0.958-8.992-10.787-8.992c-11.742,0-59.794,0-59.794,0"/>
	<path fill="#FFE00A" d="M489.091,4576.063l17.818,0.306c0,0,11.975-0.806,11.875,11.905c-0.102,12.711-0.549,69.707-0.549,69.707
		c0.252-2.185,0.549,13.471-18.147,13.471c-16.606-0.002-45.765-1.188-45.765-1.188s-4.006-4.134,0.08-9.021l45.355,0.363
		c0,0,9.52,2.454,9.615-9.438c0.093-11.891,0.482-61.506,0.482-61.506s-0.184-5.246-7.066-5.303
		c-6.885-0.055-13.77-0.271-13.77-0.271S484.599,4580.948,489.091,4576.063z"/>
	<polygon fill="#11ADA5" points="446,4803 446,4795 438,4795 438,4787 427,4787 427,4782.035 380.822,4782.08 380.822,4782.08 
		380.822,4782.08 380.822,4782.08 414.831,4810 445.609,4810 445.626,4810 445.609,4810 451,4810 451,4803 	"/>
	<polygon fill="#FFFEFF" points="407,4803 407,4795 402,4795 402,4787 393,4787 393,4783 375.142,4783 375.294,4783 375.294,4783 
		375.294,4783 407.417,4810 407.417,4810 407.417,4810 407.541,4810 416,4810 416,4803 	"/>
	<path fill="#FFDE15" d="M417,4687.313v-14.762c0,0,0.271-11.551,12.827-11.551c12.553,0,44.545,0,44.545,0
		S487,4661.891,487,4678.702s0,161.971,0,161.971s-5,4.102-9,0v-161.561c0,0,2.446-9.112-9.297-9.112c-11.744,0-36.448,0-36.448,0
		s-5.255-0.317-5.255,6.651c0,6.972,0,10.661,0,10.661S421,4691.823,417,4687.313z"/>
	<path fill="#FFDE15" d="M478,4923v-137.196c0,0,4-4.101,9,0V4923"/>
	<path fill="#FFDE15" d="M423,4859.946c0,0,31.125,0.408,35.984,0c4.861-0.41,6.016-2.87,6.016-2.87s0-21.323,0-26.654
		c0-5.332,6.944-5.422,6.944-5.422h10.529c0,0,1.619,3,0,4h-6.887c0,0-4.97,0.274-4.97,5.603c0,5.33-0.698,25.501-0.698,25.501
		s-0.376,5.046-5.235,5.457c-4.859,0.41-41.684,0.422-41.684,0.422V4859.946z"/>
	<rect x="232" y="4810" fill="#0E9B8E" width="145" height="2"/>
	<path fill="#17A197" d="M276,4757.432c0,0-28.314,0.41-33.174,0c-4.86-0.41-4.826-2.871-4.826-2.871s0-21.322,0-26.654
		c0-5.328-7.436-6.906-7.436-6.906h-10.529c0,0-1.62,3,0,5h6.884c0,0,4.16,0.109,4.16,5.436c0,5.334-0.109,26.236-0.109,26.236
		s1.052,5.009,5.911,5.418c4.859,0.41,39.119,0.379,39.119,0.379V4757.432z"/>
</g>
<g>
	<g>
		<path fill="#3A3A3A" d="M1203.172,5904.147c0,3.613-2.932,6.546-6.547,6.546l0,0c-3.611,0-6.542-2.933-6.542-6.546v-16.164
			c0-3.62,2.931-6.546,6.542-6.546l0,0c3.615,0,6.547,2.926,6.547,6.546V5904.147z"/>
		<path fill="#3A3A3A" d="M1284.785,5904.147c0,3.613-2.928,6.546-6.546,6.546l0,0c-3.614,0-6.54-2.933-6.54-6.546v-16.164
			c0-3.62,2.926-6.546,6.54-6.546l0,0c3.618,0,6.546,2.926,6.546,6.546V5904.147z"/>
	</g>
	<g>
		<path fill="#3A3A3A" d="M1317.234,5758.229v5.787c3.809,1.627,6.48,5.41,6.48,9.822v15.072c0,4.408-2.672,8.193-6.48,9.822v5.785
			c7.484,0,13.563-6.077,13.563-13.563v-19.153C1330.798,5764.304,1324.719,5758.229,1317.234,5758.229z"/>
	</g>
	<g>
		<g>
			<path fill="none" d="M1248.705,5605.104h-23.764c-5.162,0-9.349,4.182-9.349,9.348v55.346h42.469v-55.346
				C1258.062,5609.286,1253.873,5605.104,1248.705,5605.104z"/>
			<path fill="#3A3A3A" d="M1215.593,5614.452c0-5.166,4.187-9.348,9.349-9.348h23.764c5.168,0,9.356,4.182,9.356,9.348v55.346
				h6.125v-60.434c0-6.652-5.394-12.044-12.052-12.044h-30.622c-6.651,0-12.046,5.392-12.046,12.044v60.434h6.126V5614.452z"/>
		</g>
		<path fill="#212121" d="M1267.107,5603.405c0,3.353-2.156,6.078-4.814,6.078h-51.179c-2.657,0-4.81-2.726-4.81-6.078l0,0
			c0-3.361,2.152-6.085,4.81-6.085h51.179C1264.951,5597.32,1267.107,5600.044,1267.107,5603.405L1267.107,5603.405z"/>
	</g>
	<path fill="#67B8CB" d="M1318.662,5883.813c0,9.674-7.841,17.514-17.51,17.514h-127.438c-9.671,0-17.513-7.84-17.513-17.514
		v-196.748c0-9.676,7.842-17.51,17.513-17.51h127.438c9.669,0,17.51,7.834,17.51,17.51V5883.813z"/>
	<g>
		<path fill="#40ABB6" d="M1302.796,5868.745c0,7.777-6.309,14.088-14.094,14.088h-102.54c-7.781,0-14.093-6.311-14.093-14.088
			v-84.65c0-7.78,6.312-14.089,14.093-14.089h102.54c7.785,0,14.094,6.309,14.094,14.089V5868.745z"/>
		<path fill="#58B4C3" d="M1302.796,5877.255c0,7.785-6.309,14.094-14.094,14.094h-102.54c-7.781,0-14.093-6.309-14.093-14.094
			l2.13-84.645c0-7.785,6.313-14.096,14.09-14.096h97.801c7.787,0,14.088,6.311,14.088,14.096L1302.796,5877.255z"/>
		<g>
			<path fill="#40ABB6" d="M1280.238,5793.526h-86.095c-1.075,0-1.946,1.903-1.946,4.255c0,2.349,0.871,4.256,1.946,4.256h86.095
				c1.075,0,1.946-1.907,1.946-4.256C1282.185,5795.43,1281.313,5793.526,1280.238,5793.526z"/>
			<path fill="#28868C" d="M1280.238,5796.81h-86.095c-1.075,0-1.946,0.438-1.946,0.972c0,0.541,0.871,0.974,1.946,0.974h86.095
				c1.075,0,1.946-0.433,1.946-0.974C1282.185,5797.248,1281.313,5796.81,1280.238,5796.81z"/>
			<path fill="#258B90" d="M1281.6,5800.343c0-0.021,0-0.045,0-0.063c0-1.367-0.715-2.465-1.605-2.465
				c-0.889,0-1.607,1.098-1.607,2.465c0,0.018,0.004,0.041,0.004,0.063c-0.286,0.354-0.467,0.799-0.467,1.294
				c0,1.138,0.93,2.066,2.07,2.066c1.144,0,2.067-0.929,2.067-2.066C1282.062,5801.142,1281.88,5800.696,1281.6,5800.343z"/>
		</g>
	</g>
	<g>
		<g>
			<path fill="#40ABB6" d="M1302.796,5739.837c0,7.784-6.309,14.087-14.094,14.087h-102.54c-7.781,0-14.093-6.303-14.093-14.087
				v-39.415c0-7.78,6.312-14.089,14.093-14.089h102.54c7.785,0,14.094,6.309,14.094,14.089V5739.837z"/>
			<path fill="#58B4C3" d="M1302.796,5739.837c0,7.784-6.309,14.087-14.094,14.087h-102.54c-7.781,0-14.093-6.303-14.093-14.087
				l2.13-32.351c0-7.778,6.313-14.089,14.09-14.089h97.801c7.787,0,14.088,6.311,14.088,14.089L1302.796,5739.837z"/>
		</g>
		<g>
			<path fill="#40ABB6" d="M1280.238,5700.507h-86.095c-1.075,0-1.946,1.901-1.946,4.25c0,2.35,0.871,4.258,1.946,4.258h86.095
				c1.075,0,1.946-1.908,1.946-4.258C1282.185,5702.408,1281.313,5700.507,1280.238,5700.507z"/>
			<path fill="#28868C" d="M1280.238,5703.788h-86.095c-1.075,0-1.946,0.432-1.946,0.969c0,0.539,0.871,0.972,1.946,0.972h86.095
				c1.075,0,1.946-0.433,1.946-0.972C1282.185,5704.22,1281.313,5703.788,1280.238,5703.788z"/>
			<path fill="#258B90" d="M1281.6,5707.321c0-0.021,0-0.043,0-0.072c0-1.363-0.715-2.46-1.605-2.46
				c-0.889,0-1.607,1.097-1.607,2.46c0,0.029,0.004,0.051,0.004,0.072c-0.286,0.357-0.467,0.795-0.467,1.289
				c0,1.143,0.93,2.065,2.07,2.065c1.144,0,2.067-0.923,2.067-2.065C1282.062,5708.116,1281.88,5707.679,1281.6,5707.321z"/>
		</g>
	</g>
</g>
<g>
	<g>
		<g>
			<g>
				<g>
					<g>
						<path fill="#F3F4F5" d="M1969.746,2048.156c0,6.818-3.469,10.289-10.287,10.286l-34.977,0.003
							c-6.821,0-10.293-3.471-10.293-10.289v-84.361c0-6.819,3.472-10.287,10.293-10.287h34.977c6.818,0,10.287,3.468,10.287,10.287
							V2048.156z"/>
						<path fill="#C9C9C9" d="M1948.483,1961.223c0,0.663-0.535,1.201-1.199,1.201h-10.629c-0.664,0-1.203-0.538-1.203-1.201l0,0
							c0-0.664,0.539-1.198,1.203-1.198h10.629C1947.948,1960.024,1948.483,1960.559,1948.483,1961.223L1948.483,1961.223z"/>
						
							<rect x="1916.764" y="1966.624" fill="#CE3E49" stroke="#CE3E49" stroke-width="2.7172" stroke-miterlimit="10" width="50.152" height="76.644"/>
					</g>
				</g>
			</g>
		</g>
	</g>
	<path fill-rule="evenodd" clip-rule="evenodd" fill="#C9C9C9" d="M1941.968,2046.313c-2.349,0-4.249,1.902-4.249,4.25
		c0,2.346,1.9,4.249,4.249,4.249s4.249-1.903,4.249-4.249C1946.217,2048.215,1944.316,2046.313,1941.968,2046.313"/>
	<path fill="#91222F" d="M1955.804,1990.933c-1.317-1.318-4.616-0.15-6.194,1.429l-6.008,6.014
		c-0.585-0.545-15.18-5.75-15.703-5.226l-1.904,1.902c-0.527,0.523-0.527,1.375,0,1.9l10.666,8.367l-4.204,4.206
		c-0.317,0.32-0.72,0.813-1.144,1.398l-0.169-0.168c-0.267-0.267-4.098-0.751-4.365-0.483l-0.972,0.968
		c-0.267,0.268-0.267,0.701,0,0.968c0,0,0.176,0.177,0.478,0.478c0.544,0.545,1.499,1.495,2.567,2.562
		c-0.51,1.269-0.697,2.368-0.206,2.861c0.493,0.492,1.595,0.304,2.864-0.209c1.049,1.046,1.983,1.979,2.528,2.522
		c0.316,0.318,0.504,0.503,0.504,0.503c0.268,0.269,0.702,0.269,0.969,0l0.972-0.968c0.268-0.269-0.217-4.09-0.486-4.357
		l-0.164-0.165c0.583-0.423,1.072-0.823,1.391-1.14l4.203-4.209l8.371,10.634c0.526,0.524,1.378,0.524,1.904,0l1.905-1.903
		c0.525-0.523-4.695-15.115-5.234-15.681l6.001-6.007C1955.953,1995.551,1957.119,1992.248,1955.804,1990.933z"/>
</g>
<g>
	<path fill="#FDEBCB" d="M195,125.947v71.318c0,47.372-38.627,85.774-86,85.774l0,0c-47.371,0-86-38.402-86-85.774v-72.794
		c0,0,0.741-13.944,20.979-20.919c16.245-5.604,48.054-6.496,68.679-6.517C139.178,97.006,195,97.036,195,125.947z"/>
	<path fill="#645655" d="M183.018,123.539c0,9.047-32.791,16.383-73.242,16.383c-43.025,0-73.247-7.333-73.247-16.383
		c0-9.049,32.794-16.384,73.247-16.384C150.227,107.155,183.018,114.49,183.018,123.539z"/>
	<path fill="#FDEBCB" d="M190.535,148.596c18.365,0,33.254,14.889,33.254,33.25c0,18.363-14.889,33.25-33.254,33.25"/>
	<path fill="#FDEBCB" d="M33.443,215.096c-18.361,0-33.247-14.887-33.247-33.25c0-18.361,14.886-33.25,33.247-33.25"/>
	<path fill="none" stroke="#645655" stroke-width="3.8469" stroke-linecap="round" stroke-miterlimit="10" d="M11.76,180.209
		c0,0,0-12.045,15.419-13.012"/>
	<path fill="none" stroke="#645655" stroke-width="3.8469" stroke-linecap="round" stroke-miterlimit="10" d="M212.22,180.209
		c0,0,0-12.045-15.419-13.012"/>
	<path fill="#645655" d="M66,110.047V129c0,0,31.246,0,55.336,0c24.098,0,48.189,1.85,53.01-4.899
		c4.818-6.746-10.08-14.737-35.139-14.737C105.477,109.363,66,110.047,66,110.047z"/>
	<path fill="#776868" d="M65,114.863v16.386c0,0,32.021-5.302,56.112-5.302c24.094,0,47.579,8.193,53.845-0.721
		c4.766-6.783-25.104-15.061-50.159-15.061C91.063,110.166,65,114.863,65,114.863z"/>
	<path fill="#645655" d="M54.838,118.236"/>
	<g>
		<g>
			<g>
				<g>
					<g>
						<g>
							
								<path fill-rule="evenodd" clip-rule="evenodd" fill="#EC68A4" stroke="#EC68A4" stroke-width="2.3754" stroke-miterlimit="10" d="
								M97.012,21.72c1.326,0.182,7.813,5.96,2.862,8.503c-1.088-0.887,0.054-2.65-0.782-4.598
								c-6.482-5.69-19.711-0.353-25.75,4.368c0.01,0.828,1.687,2.075,0.47,2.765c-5.255-2.387-12.089,3.41-14.779,7.704
								c-1.062,1.833,0.817,3.259-1.137,4.454c-1.69-0.088-1.127-3.348-3.306-2.754c-6.224,4.346-8.334,11.613-9.986,19.199
								c1.455-0.721,1.615,0.387,1.689,1.607c-5.78,0.115-5.951,6.242-3.882,10.595c-6.294,5.142-2.198,23.064,5.444,26.517
								c0.654-2.4,3.617-6.922,6.734-4.93c-2.854,2.021-6.224,3.674-5.188,8.451c5.686,4.47,21.248,3.048,26.141-2.067
								c1.91-0.034,2.975,1.125,5.293,0.519c0.752-0.676-0.098-2.497,1.985-2.229c0.897,7.283,4.156,11.236,10.001,11.548
								c2.941,13.167,19.684,7.569,29.918,3.44c-1.208-2.697,2.542-2.627,2.899-5.222c-1.19-2.505-4.315-2.278-5.152-5.276
								c3.311,0.462,5.872,1.984,6.688,5.963c0.071,1.673-1.557,2.13-2.295,3.231c8.655-2.242,19.898-9.63,15.59-19.68
								c-1.151-2.685-3.859-2.396-5.615-5.195c10.099-0.15,9.799,16.646,2.896,19.851c7.344-1.664,10.972-5.962,14.305-10.474
								c-0.231-1.579-1.12-2.833-0.777-4.597c0.429-2.18,2.759-2.013,4.051-3.997c0.52-0.797,0.219-2.796,0.756-3.916
								c1.524-3.151,3.914-5.267,5.736-5.229c-1.496,3.79-5.504,5.798-5.256,10.828c-8.175,3.184-0.855,8.37,3.475,9.342
								c5.843,1.32,12.83,2.186,16.57,2.867c0.406-1.061,0.97-2.009,1.373-3.071c-1.334-0.399-2.862-0.526-2.846-2.829
								c2.183-0.793,2.417,1.154,4.756,0.143c1.301-2.449,1.758-5.492,2.354-8.443c-0.033-1.85-2.617-0.113-2.308-2.445
								c3.202-0.641,1.823-6.725,0.888-11.502c-1.412,0.182-2.813,2.437-3.681,0.623c-0.263-2.211,2.722-2.119,3.67-3.464
								c-0.012-5.073-1.177-13.042-5.634-13.708c-0.381,1.213,0.113,3.047-1.298,3.529c-3.486-2.344,1.631-4.85-0.022-8.517
								c-0.277-1.505-2.153-0.763-2.311-2.447c-0.211-6.567-5.814-10.39-9.467-14.002c-8.264-0.442-5.287,9.156-9.635,10.151
								c1.5-4.328,0.9-10.148,7.099-11.141c-0.165-2.43-2.373-1.982-3.765-2.676c-4.438-3.627-8.353-7.984-14.752-8.848
								c0.622,1.618,4.455,5.141,1.553,6.359c-3.056-6.9-9.805-8.598-16.818-9.922c0.74,2.171,3.976,8.055,1.176,9.736
								c-1.791-1.905-1.363-6.704-3.478-9.348c-2.578-1.356-6.942-2.147-9.509-0.277c-0.726-1.065-2.171-1.119-3.147-1.833
								C104.801,21.926,102.073,21.068,97.012,21.72z M108.265,121.528c-8.632,1.53-14.366-1.037-16.967-8.001
								c-3.949-2.037-9.23-2.201-9.612-9.248c-4.093-0.718-6.299-0.248-8.582,2.398c-9.404,0.254-18.168,4.521-24.234-0.622
								c-0.854-0.724-1.117-2.279-2.002-3.442c-2.813-3.704-7.2-7.316-8.545-11.328c-2.045-6.104-1.22-13.123,1.016-19.095
								c-1.336-5.536,1-8.462,3.266-11.438c1.091-8.257,4.549-14.837,9.832-20.113c1.457-0.154,3.326-0.888,4.219-0.245
								c3.099-4.545,6.049-9.19,13.851-10.395c5.029-6.67,14.226-7.623,22.593-9.033c2.254-0.378,4.069-1.762,6.283-2.014
								c1.192-0.135,2.667,0.861,3.91,0.753c1.914-0.159,3.852-2.161,5.747-2.394c1.083-0.127,3.458,0.534,4.835,0.601
								c2.307,0.11,4.123-0.183,5.67-0.018c1.433,0.16,2.645,1.445,4.071,1.675c0.597,0.102,1.751-0.858,2.223-0.845
								c4.372,0.069,9.825,3.069,13.125,4.867c1.177-0.763,1.394-1.58,3.144-1.009c6.48,1.146,11.332,6.178,16.819,9.924
								c7.125,4.864,15.72,11.587,17.246,23.567c4.794,1.505,8.21,11.813,6.259,17.388c4.316,13.487,0.936,24.907-5.426,32.144
								c-1.447,0.524-2.192,0.055-3.298,0.089l-2.456-0.531c-5.346-2.91-13.24-2.238-18.034-5.928
								c-3.49,4.309-7.694,9.229-13.314,10.774c-1.161,0.317-2.591-0.616-3.835-0.295c-3.873,1.003-6.846,6.563-12.252,5.862
								C117.52,119.904,108.265,121.528,108.265,121.528z"/>
						</g>
					</g>
				</g>
			</g>
		</g>
		<g>
			<g>
				<g>
					<g>
						<g>
							<path fill-rule="evenodd" clip-rule="evenodd" fill="#F7B5C7" d="M110.81,19.378c0.977,0.714,2.422,0.768,3.147,1.833
								c2.566-1.87,6.931-1.079,9.509,0.277c2.114,2.644,1.687,7.442,3.478,9.348c2.8-1.682-0.436-7.565-1.176-9.736
								c7.014,1.324,13.763,3.021,16.818,9.922c2.902-1.219-0.931-4.741-1.553-6.359c6.399,0.863,10.314,5.221,14.752,8.848
								c1.392,0.693,3.6,0.246,3.765,2.676c-6.198,0.992-5.599,6.813-7.099,11.141c4.348-0.995,1.371-10.594,9.635-10.151
								c3.652,3.612,9.256,7.435,9.467,14.002c0.157,1.685,2.033,0.942,2.311,2.447c1.653,3.667-3.464,6.173,0.022,8.517
								c1.411-0.482,0.917-2.316,1.298-3.529c4.457,0.666,5.622,8.635,5.634,13.708c-0.948,1.345-3.933,1.253-3.67,3.464
								c0.868,1.813,2.269-0.441,3.681-0.623c0.936,4.777,2.314,10.861-0.888,11.502c-0.31,2.332,2.274,0.596,2.308,2.445
								c-0.596,2.951-1.053,5.994-2.354,8.443c-2.339,1.012-2.573-0.936-4.756-0.143c-0.017,2.303,1.512,2.43,2.846,2.829
								c-0.403,1.063-0.967,2.011-1.373,3.071c-3.74-0.682-10.728-1.547-16.57-2.867c-4.33-0.972-11.649-6.158-3.475-9.342
								c-0.248-5.03,3.76-7.038,5.256-10.828c-1.822-0.037-4.212,2.078-5.736,5.229c-0.537,1.12-0.236,3.119-0.756,3.916
								c-1.292,1.984-3.622,1.817-4.051,3.997c-0.343,1.764,0.546,3.018,0.777,4.597c-3.333,4.512-6.961,8.81-14.305,10.474
								c6.902-3.205,7.202-20.001-2.896-19.851c1.756,2.8,4.464,2.511,5.615,5.195c4.309,10.05-6.935,17.438-15.59,19.68
								c0.738-1.102,2.366-1.559,2.295-3.231c-0.816-3.979-3.378-5.501-6.688-5.963c0.837,2.998,3.962,2.771,5.152,5.276
								c-0.357,2.595-4.107,2.524-2.899,5.222c-10.234,4.129-26.977,9.727-29.918-3.44c-5.845-0.312-9.104-4.265-10.001-11.548
								c-2.083-0.269-1.233,1.553-1.985,2.229c-2.318,0.606-3.383-0.553-5.293-0.519c-4.893,5.115-20.455,6.537-26.141,2.067
								c-1.036-4.777,2.334-6.431,5.188-8.451c-3.117-1.992-6.08,2.529-6.734,4.93c-7.643-3.452-11.738-21.375-5.444-26.517
								c-2.069-4.353-1.898-10.479,3.882-10.595c-0.074-1.221-0.234-2.328-1.689-1.607c1.652-7.586,3.763-14.854,9.986-19.199
								c2.179-0.594,1.615,2.666,3.306,2.754c1.954-1.195,0.075-2.621,1.137-4.454c2.69-4.294,9.524-10.091,14.779-7.704
								c1.217-0.689-0.46-1.937-0.47-2.765c6.039-4.721,19.268-10.059,25.75-4.368c0.836,1.947-0.306,3.711,0.782,4.598
								c4.95-2.543-1.536-8.321-2.862-8.503C102.073,21.068,104.801,21.926,110.81,19.378z M107.567,39.329
								c-9.872,1.933-14.347,21.181,0.06,19.855c1.154,3.199,4.76,5.722,7.832,4.35c-2.396-1.939-5.832-2.417-7.148-5.886
								c-13.609,1.411-8.529-15.623,0.871-17.174c-2.291-9.714,3.938-13.389,8.766-18.049c-0.675,0-0.904-0.625-1.535-0.684
								C111.594,26.275,105.509,29.909,107.567,39.329z M75.424,33.898c1.889,2.279,5.229,2.511,6.229,6.041
								c7.814-2.846,15.889-2.139,20.555,1.246c-1.6-5.883-12.586-5.363-19.947-3.24C80.973,35.479,78.041,32.621,75.424,33.898z
								 M127.576,37.354c3.879-2.774,7.827,0.647,10.352-0.335C136.457,34.551,128.057,32.526,127.576,37.354z M50.865,53.678
								c1.68,0.692,2.979-1.764,5.9-1.472c2.89,1.057,4.523,3.882,5.923,7.038c7.647-2.229,11.803,0.459,13.823,6.169
								c2.083-0.536,2.783-1.548,4.439-1.702c5.691-0.522,8.485,6.743,11.76,7.942c-1.582-5.243-7.725-11.829-15.592-8.239
								c-0.338-3.129-2.596-3.561-3.771-5.51c2.076-3.394,9.511-1.429,11.259-3.328c-3.824-2.467-10.46,0-13.257,2.721
								c-2.08-0.867-4.832-0.784-8.051-0.055C62.563,51.416,53.805,47.746,50.865,53.678z M140.727,50.734
								c1.474,5.227-1.331,7.416-6.726,7.763c0.308,4.775-4.378,9.036-9.64,7.311c-0.804,4.024-7.424,3.532-9.654,1.638
								c2.803,8.767-16.195,8.244-20.739,14.4c-5.031-3.741-14.756-0.869-17.431-7.924c-2.387-0.726-7.769-1.24-8.662,1.944
								c7.164-3.125,10.543,3.152,15.123,5.478c5.676-1.543,8.374,1.121,11.818,2.723c3.908-7.063,19.457-5.871,22.272-13.711
								c1.181,0.618,2.759,0.676,4.758,0.139c1.568-0.773,2.604-1.922,3.747-3c4.97,1.58,9.453-3.298,10.099-7.393
								c5.603-0.873,8.146-3.924,6.339-10.062c2.25-1.231,5.141-2.013,4.813-5.073c-4.384,5.398-13.333,4.765-16.258-1.029
								C130.234,49.24,136.045,50.641,140.727,50.734z M147.582,60.456c-2.609,7.851-8.23,13.568-16.438,17.449
								c3.987,1.974,6.32-2.438,10.58-1.793c1.867,1.55,2.023,5.5,3.621,7.428c4.645-0.408,13.068,0.248,12.028-4.404
								c-2.437,2.474-6.688,2.316-10.882,2.79c-1.476-1.148-1.525-4.311-2.471-6.203c-1.031-1.021-3.186-0.451-4.071-1.678
								c3.38-4.073,8.112-7.181,9.706-12.529c4.055-1.162,6.754-3.289,6.799-7.3c-0.184-0.501-0.631-0.634-1.074-0.762
								C154.59,57.069,152.451,59.73,147.582,60.456z M46.109,78.61c7.683-1.83,12.118,5.669,16.439,10.462
								c-2.223,1.118-4.744,2.023-4.898,4.611c2.287,0.411,3.396-3.159,6.509-3.465c4.498,1.637,9.808,2.135,12.442,6.398
								c1.291-1.934-2.334-4.067-1.778-4.9c3.71-0.953,6.313,2.367,8.744,1.355c-1.474-2.713-7.451-4.369-10.204-1.576
								c-2.879-2.024-4.809-0.8-7.441-2.055c-6.961-3.311-9.725-15.832-20.588-12.591C45.437,77.657,45.682,78.268,46.109,78.61z
								 M87.111,97.203c2.213,0.445,2.34-1.607,4.36-2.16c5.275-1.428,8.905,1.529,10.222,7.26c4.666-2.385,9.807-1.049,12.12,1.725
								c2.446-4.283,9.868-3.213,12.798-2.645c-1.77-3.91-9.834-2.321-12.729,0.263c-2.775-1.885-7.061-3.044-11.121-1.42
								C101.857,92.9,89.987,89.871,87.111,97.203z M170.119,84.539c1.796,1.265,1.006,6.181,3.085,7.046
								c1.016-1.648-0.264-3.359,0.142-4.756c2.115-1.097,5.427,0.674,4.901-1.774c-1.431-1.195-4.276-0.178-6.058,0.556
								c-0.758-2.922-2.516-4.433-5.453-4.278C166.857,83.822,169.469,82.801,170.119,84.539z M119.816,111.53
								c-2.613-6.568-10.584,0.106-16.563-0.032c-4.521-0.105-4.583-3.281-8.751-4.194
								C96.584,117.501,112.645,108.457,119.816,111.53z"/>
						</g>
					</g>
				</g>
			</g>
		</g>
		<g>
			<g>
				<g>
					<g>
						<g>
							<g>
								<path fill-rule="evenodd" clip-rule="evenodd" fill="#EC68A4" d="M116.412,21.742c0.631,0.059,0.86,0.684,1.535,0.684
									c-4.828,4.66-11.057,8.335-8.766,18.049c-9.4,1.551-14.48,18.585-0.871,17.174c1.316,3.469,4.752,3.946,7.148,5.886
									c-3.072,1.372-6.678-1.15-7.832-4.35c-14.406,1.325-9.932-17.923-0.06-19.855C105.509,29.909,111.594,26.275,116.412,21.742
									z"/>
							</g>
						</g>
					</g>
				</g>
			</g>
			<g>
				<g>
					<g>
						<g>
							<g>
								<path fill-rule="evenodd" clip-rule="evenodd" fill="#EC68A4" d="M82.26,37.945c7.361-2.123,18.348-2.643,19.947,3.24
									c-4.666-3.385-12.74-4.092-20.555-1.246c-1-3.53-4.34-3.762-6.229-6.041C78.041,32.621,80.973,35.479,82.26,37.945z"/>
							</g>
						</g>
					</g>
				</g>
			</g>
			<g>
				<g>
					<g>
						<g>
							<g>
								<path fill-rule="evenodd" clip-rule="evenodd" fill="#EC68A4" d="M137.928,37.019c-2.524,0.982-6.473-2.439-10.352,0.335
									C128.057,32.526,136.457,34.551,137.928,37.019z"/>
							</g>
						</g>
					</g>
				</g>
			</g>
			<g>
				<g>
					<g>
						<g>
							<g>
								<path fill-rule="evenodd" clip-rule="evenodd" fill="#EC68A4" d="M63.299,57.242c3.219-0.729,5.971-0.813,8.051,0.055
									c2.797-2.721,9.433-5.188,13.257-2.721c-1.748,1.899-9.183-0.065-11.259,3.328c1.176,1.949,3.434,2.381,3.771,5.51
									c7.867-3.59,14.01,2.996,15.592,8.239c-3.274-1.199-6.068-8.465-11.76-7.942c-1.656,0.154-2.356,1.166-4.439,1.702
									c-2.021-5.71-6.176-8.398-13.823-6.169c-1.399-3.156-3.033-5.981-5.923-7.038c-2.922-0.292-4.221,2.164-5.9,1.472
									C53.805,47.746,62.563,51.416,63.299,57.242z"/>
							</g>
						</g>
					</g>
				</g>
			</g>
			<g>
				<g>
					<g>
						<g>
							<g>
								<path fill-rule="evenodd" clip-rule="evenodd" fill="#EC68A4" d="M130.586,43.938c2.925,5.794,11.874,6.428,16.258,1.029
									c0.328,3.061-2.563,3.842-4.813,5.073c1.807,6.138-0.736,9.188-6.339,10.062c-0.646,4.095-5.129,8.973-10.099,7.393
									c-1.143,1.078-2.179,2.227-3.747,3c-1.999,0.537-3.577,0.479-4.758-0.139c-2.815,7.84-18.364,6.647-22.272,13.711
									c-3.444-1.602-6.143-4.266-11.818-2.723c-4.58-2.325-7.959-8.603-15.123-5.478c0.894-3.185,6.275-2.67,8.662-1.944
									c2.675,7.055,12.399,4.183,17.431,7.924c4.544-6.156,23.542-5.634,20.739-14.4c2.23,1.895,8.851,2.387,9.654-1.638
									c5.262,1.726,9.947-2.535,9.64-7.311c5.395-0.347,8.199-2.536,6.726-7.763C136.045,50.641,130.234,49.24,130.586,43.938z"/>
							</g>
						</g>
					</g>
				</g>
			</g>
			<g>
				<g>
					<g>
						<g>
							<g>
								<path fill-rule="evenodd" clip-rule="evenodd" fill="#EC68A4" d="M155.381,53.454c0.443,0.128,0.891,0.261,1.074,0.762
									c-0.045,4.011-2.744,6.138-6.799,7.3c-1.594,5.349-6.326,8.456-9.706,12.529c0.886,1.227,3.04,0.656,4.071,1.678
									c0.945,1.893,0.995,5.055,2.471,6.203c4.193-0.474,8.445-0.316,10.882-2.79c1.04,4.652-7.384,3.996-12.028,4.404
									c-1.598-1.928-1.754-5.878-3.621-7.428c-4.26-0.646-6.593,3.767-10.58,1.793c8.207-3.881,13.828-9.599,16.438-17.449
									C152.451,59.73,154.59,57.069,155.381,53.454z"/>
							</g>
						</g>
					</g>
				</g>
			</g>
			<g>
				<g>
					<g>
						<g>
							<g>
								<path fill-rule="evenodd" clip-rule="evenodd" fill="#EC68A4" d="M45.334,76.851c10.863-3.241,13.627,9.28,20.588,12.591
									c2.633,1.255,4.563,0.03,7.441,2.055c2.753-2.793,8.73-1.137,10.204,1.576c-2.431,1.012-5.034-2.309-8.744-1.355
									c-0.556,0.833,3.069,2.967,1.778,4.9c-2.635-4.264-7.944-4.762-12.442-6.398c-3.113,0.306-4.222,3.876-6.509,3.465
									c0.154-2.588,2.676-3.493,4.898-4.611c-4.321-4.793-8.757-12.292-16.439-10.462C45.682,78.268,45.437,77.657,45.334,76.851z
									"/>
							</g>
						</g>
					</g>
				</g>
			</g>
			<g>
				<g>
					<g>
						<g>
							<g>
								<path fill-rule="evenodd" clip-rule="evenodd" fill="#EC68A4" d="M102.762,100.226c4.061-1.624,8.346-0.465,11.121,1.42
									c2.895-2.584,10.959-4.173,12.729-0.263c-2.93-0.568-10.352-1.639-12.798,2.645c-2.313-2.773-7.454-4.109-12.12-1.725
									c-1.316-5.73-4.946-8.688-10.222-7.26c-2.021,0.553-2.147,2.605-4.36,2.16C89.987,89.871,101.857,92.9,102.762,100.226z"/>
							</g>
						</g>
					</g>
				</g>
			</g>
			<g>
				<g>
					<g>
						<g>
							<g>
								<path fill-rule="evenodd" clip-rule="evenodd" fill="#EC68A4" d="M166.736,81.332c2.938-0.154,4.695,1.356,5.453,4.278
									c1.781-0.733,4.627-1.751,6.058-0.556c0.525,2.448-2.786,0.678-4.901,1.774c-0.405,1.396,0.874,3.107-0.142,4.756
									c-2.079-0.865-1.289-5.781-3.085-7.046C169.469,82.801,166.857,83.822,166.736,81.332z"/>
							</g>
						</g>
					</g>
				</g>
			</g>
			<g>
				<g>
					<g>
						<g>
							<g>
								<path fill-rule="evenodd" clip-rule="evenodd" fill="#EC68A4" d="M94.502,107.304c4.168,0.913,4.23,4.089,8.751,4.194
									c5.979,0.139,13.95-6.536,16.563,0.032C112.645,108.457,96.584,117.501,94.502,107.304z"/>
							</g>
						</g>
					</g>
				</g>
			</g>
		</g>
	</g>
	<circle fill="#191717" cx="70.183" cy="179.996" r="6.14"/>
	<circle fill="#191717" cx="143.859" cy="179.996" r="6.141"/>
	<path fill="none" stroke="#645655" stroke-width="5.7703" stroke-linecap="round" stroke-miterlimit="10" d="M107.85,195.644
		c6.446,0,11.676,5.226,11.676,11.675l0,0c0,6.445-5.229,11.671-11.676,11.671"/>
	<path fill="none" stroke="#645655" stroke-width="5.0313" stroke-linecap="round" stroke-miterlimit="10" d="M136.052,236.955
		c-3.97,5.029-12.374,11.601-27.638,11.601c-15.263,0-24.311-6.124-27.637-11.601"/>
</g>
<g>
	<g>
		<path fill="#FC855B" d="M3179.322,1228.747c0,0,16.967-1.286,17.74,21.082c0.77,22.368,2.313,33.68,2.313,33.68
			s1.799,16.199,1.799,18.511c0,2.314,0.417,13.211-3.855,23.074c-3.926,9.064-10.541,18.577-17.996,17.807
			c-7.457-0.772-14.656-6.43-17.227-19.027c-2.57-12.597-1.543-17.738,0-42.936c1.543-25.195,0.758-31.627,0.758-31.627
			S3160.531,1230.162,3179.322,1228.747z"/>
		<path fill="none" d="M3162.225,1278.984c4.049,11.139,8.453,16.016,18.01,16.016h0.121c12.979,0,17.898-7.191,17.898-21.07
			l-1.549-27.966c-0.287-7.836-6.793-16.964-16.35-16.964h-0.121c-9.557,0-17.432,7.551-17.432,16.865L3162.225,1278.984z"/>
		<path fill="#C0BFA4" d="M3178.678,1233c0,0-9.646,0.957-10.933,9.959c-1.284,8.994-1.284,17.446-1.284,17.446
			s-1.863,9.495,6.14,11.808c7.294,2.111,6.55,0.367,6.8,2.868l-0.016,0.849c0.025-0.161,0.046-0.307,0.063-0.448
			c0,41.031,0.035,0.284,0.063,0.444l-0.018-0.853c0.252-2.503-0.492-0.767,6.802-2.876c8.001-2.313,6.14-11.826,6.14-11.826
			s0-8.415-1.285-17.414c-1.285-8.998-10.295-9.957-10.295-9.957H3178.678z"/>
		<path fill="#B5573E" d="M3168.34,1269.515c0.947,1.172,2.309,2.164,4.261,2.728c7.294,2.109,6.55,0.351,6.8,2.854l-0.016,0.84
			c0.025-0.16,0.046-0.31,0.063-0.449c0,41.028,0.035,0.281,0.063,0.441l-0.018-0.854c0.252-2.502-0.492-0.768,6.802-2.877
			c1.914-0.553,3.259-1.52,4.204-2.669C3186.811,1268.901,3176.764,1267.537,3168.34,1269.515z"/>
		<line fill="none" x1="3189" y1="1270" x2="3189" y2="1294"/>
		<line fill="none" x1="3169" y1="1273" x2="3169" y2="1292"/>
		<path fill="#B5573E" d="M3168.168,1289.902c3.039,3.656,6.781,4.727,12.188,4.727c4.852-0.681,17.155,1.993,17.928-21.598
			c0,0,2.895,22.097,2.895,26.677l-0.686,13.857c-1.129,5.558-5.475,9.601-10.887,9.601c-4.754,0-8.738-2.859-9.641-6.657
			c-0.905,3.798-4.89,6.657-9.643,6.657c-2.914,0-5.222-0.571-6.844-2.083c-1.391-1.3-2.277-3.289-2.605-6.208l-0.342-10.155
			l1.693-25.92C3162.225,1277.992,3163.1,1283.807,3168.168,1289.902z"/>
		<rect x="3176" y="1244" fill="#78A89B" width="6" height="17"/>
		<line fill="none" stroke="#B5573E" stroke-width="2" stroke-miterlimit="10" x1="3185" y1="1277" x2="3174" y2="1277"/>
		<line fill="none" stroke="#B5573E" stroke-width="2" stroke-miterlimit="10" x1="3185" y1="1282" x2="3174" y2="1282"/>
		<line fill="none" stroke="#B5573E" stroke-width="2" stroke-miterlimit="10" x1="3185" y1="1286" x2="3174" y2="1286"/>
		<line fill="none" x1="3185" y1="1292" x2="3174" y2="1292"/>
		<path fill="#FC855B" d="M3136.746,1228.747c0,0-16.968-1.286-17.74,21.082c-0.771,22.368-2.313,33.68-2.313,33.68
			s-1.8,16.199-1.8,18.511c0,2.314-0.415,13.211,3.857,23.074c3.926,9.064,10.541,18.577,17.996,17.807
			c7.457-0.772,14.656-6.43,17.227-19.027c2.57-12.597,1.543-17.738,0-42.936c-1.544-25.195-0.758-31.627-0.758-31.627
			S3155.537,1230.162,3136.746,1228.747z"/>
		<path fill="none" d="M3153.844,1278.984c-4.049,11.139-8.452,16.016-18.01,16.016h-0.123c-12.977,0-17.896-7.191-17.896-21.07
			l1.549-27.966c0.287-7.836,6.793-16.964,16.348-16.964h0.123c9.558,0,17.432,7.551,17.432,16.865L3153.844,1278.984z"/>
		<path fill="#C0BFA4" d="M3137.391,1233c0,0,9.646,0.957,10.93,9.959c1.287,8.994,1.287,17.446,1.287,17.446
			s1.863,9.495-6.139,11.808c-7.295,2.111-6.553,0.367-6.801,2.868l0.014,0.849c-0.023-0.161-0.044-0.307-0.061-0.448
			c0,41.031-0.037,0.284-0.063,0.444l0.016-0.853c-0.252-2.503,0.494-0.767-6.801-2.876c-8.002-2.313-6.139-11.826-6.139-11.826
			s0-8.415,1.285-17.414c1.285-8.998,10.295-9.957,10.295-9.957H3137.391z"/>
		<path fill="#B5573E" d="M3147.727,1269.515c-0.947,1.172-2.309,2.164-4.258,2.728c-7.295,2.109-6.553,0.351-6.801,2.854
			l0.014,0.84c-0.023-0.16-0.044-0.31-0.061-0.449c0,41.028-0.037,0.281-0.063,0.441l0.016-0.854
			c-0.252-2.502,0.494-0.768-6.801-2.877c-1.914-0.553-3.258-1.52-4.205-2.669
			C3129.256,1268.901,3139.303,1267.537,3147.727,1269.515z"/>
		<line fill="none" x1="3126" y1="1270" x2="3126" y2="1294"/>
		<line fill="none" x1="3147" y1="1273" x2="3147" y2="1292"/>
		<path fill="#B5573E" d="M3147.898,1289.902c-3.037,3.656-6.781,4.727-12.188,4.727c-4.85-0.681-17.154,1.993-17.924-21.598
			c0,0-2.896,22.097-2.896,26.677l0.685,13.857c1.13,5.558,5.474,9.601,10.888,9.601c4.753,0,8.736-2.859,9.641-6.657
			c0.905,3.798,4.889,6.657,9.641,6.657c2.914,0,5.224-0.571,6.846-2.083c1.392-1.3,2.275-3.289,2.604-6.208l0.344-10.155
			l-1.693-25.92C3153.844,1277.992,3152.968,1283.807,3147.898,1289.902z"/>
		<rect x="3133" y="1244" fill="#78A89B" width="5" height="17"/>
		<line fill="none" stroke="#B5573E" stroke-width="2" stroke-miterlimit="10" x1="3131" y1="1277" x2="3143" y2="1277"/>
		<line fill="none" stroke="#B5573E" stroke-width="2" stroke-miterlimit="10" x1="3131" y1="1282" x2="3143" y2="1282"/>
		<line fill="none" stroke="#B5573E" stroke-width="2" stroke-miterlimit="10" x1="3131" y1="1286" x2="3143" y2="1286"/>
		<line fill="none" x1="3133" y1="1292" x2="3143" y2="1292"/>
	</g>
	<path fill="#203C59" d="M3085,1328.641c0,3.047-1.98,5.359-4.97,5.359h-81.62c-2.988,0-5.41-2.313-5.41-5.359v-91.588
		c0-3.046,2.422-6.053,5.41-6.053h81.62c2.989,0,4.97,3.007,4.97,6.053V1328.641z"/>
	<path fill="#162C3F" d="M3055.289,1242l29.711,7.248v-14.027c0-3.131-0.206-5.221-3.338-5.221h-81.469
		c-3.131,0-7.193,2.09-7.193,5.221v13.849l32.658-7.069H3055.289z"/>
	<rect x="3033" y="1256" fill="#5FA18B" width="14" height="78"/>
	<polyline fill="none" points="2995.283,1249.791 3026.264,1242 3055.892,1242 3088.086,1252.105 	"/>
	<path fill="none" d="M3021,1286h-15.019c1.563,2,2.019,3.299,2.019,5.298v37.032c0,1.366-1.088,2.621-1.895,3.601l14.895,0.103
		V1286z"/>
	<path fill="none" d="M3008,1291.298c0-1.999-0.455-3.298-2.019-5.298h-11.76c0,0,0.378,32.943,0.151,39.945
		c-0.151,4.712,5.67,5.803,5.67,5.803l6.959,0.113c0.805-0.979,0.998-2.165,0.998-3.531V1291.298z"/>
	<line fill="none" x1="2995" y1="1303" x2="3023" y2="1303"/>
	<line fill="none" x1="3001" y1="1303" x2="3001" y2="1318"/>
	<line fill="none" x1="3016" y1="1303" x2="3016" y2="1318"/>
	<line fill="none" x1="3063" y1="1303" x2="3089" y2="1303"/>
	<line fill="none" x1="2998" y1="1297" x2="3007" y2="1297"/>
	<line fill="none" x1="3040" y1="1270" x2="3040" y2="1280"/>
	<line fill="none" x1="3040" y1="1292" x2="3040" y2="1303"/>
	<line fill="none" x1="3040" y1="1314" x2="3040" y2="1325"/>
	<line fill="none" x1="3040" y1="1314" x2="3040" y2="1325"/>
	<path fill="#FF865D" d="M3004,1296.51c0,1.375-1.115,2.49-2.49,2.49h-0.02c-1.375,0-2.49-1.115-2.49-2.49v-0.02
		c0-1.375,1.115-2.49,2.49-2.49h0.02c1.375,0,2.49,1.115,2.49,2.49V1296.51z"/>
	<path fill="#FF865D" d="M3043,1276.511c0,1.375-1.115,2.489-2.49,2.489h-0.02c-1.375,0-2.49-1.114-2.49-2.489v-0.021
		c0-1.375,1.115-2.489,2.49-2.489h0.02c1.375,0,2.49,1.114,2.49,2.489V1276.511z"/>
	<path fill="#FF865D" d="M3043,1299.51c0,1.375-1.115,2.49-2.49,2.49h-0.02c-1.375,0-2.49-1.115-2.49-2.49v-0.02
		c0-1.375,1.115-2.49,2.49-2.49h0.02c1.375,0,2.49,1.115,2.49,2.49V1299.51z"/>
	<path fill="#FF865D" d="M3043,1318.511c0,1.375-1.115,2.489-2.49,2.489h-0.02c-1.375,0-2.49-1.114-2.49-2.489v-0.021
		c0-1.375,1.115-2.489,2.49-2.489h0.02c1.375,0,2.49,1.114,2.49,2.489V1318.511z"/>
	<path fill="none" d="M3061,1297v6.616V1333h15.901c0,0,2.144,0,4.786,0h0.102c2.334,0,3.486-2.531,3.91-4.742l-0.699-0.595v-1.45
		V1297H3061z"/>
	<polygon fill="#162C3F" points="3085,1295 3061,1295 3061,1302.104 3061,1303 3085,1303 	"/>
	<path fill="#78A89B" d="M3030.406,1272.989l10.666-12.207c0,0-19.789-24.782-20.502-30.782h-9.117
		C3011.453,1230,3011.453,1247.44,3030.406,1272.989z"/>
	<path fill="#78A89B" d="M3051.746,1272.989l-10.667-12.207c0,0,19.788-24.782,20.502-30.782h9.117
		C3070.698,1230,3070.698,1247.44,3051.746,1272.989z"/>
	<polygon fill="#162C3F" points="3041.121,1261.502 3036.623,1256 3045.613,1256 	"/>
</g>
</svg>
