<?xml version="1.0" encoding="utf-8"?>
<!-- Generator: Adobe Illustrator 16.0.0, SVG Export Plug-In . SVG Version: 6.00 Build 0)  -->
<!DOCTYPE svg PUBLIC "-//W3C//DTD SVG 1.1//EN" "http://www.w3.org/Graphics/SVG/1.1/DTD/svg11.dtd">
<svg version="1.1" id="Layer_1" xmlns="http://www.w3.org/2000/svg" xmlns:xlink="http://www.w3.org/1999/xlink" x="0px" y="0px"
	 width="646.22px" height="706.165px" viewBox="0 0 646.22 706.165" enable-background="new 0 0 646.22 706.165"
	 xml:space="preserve">
<g>
	<path fill="#CEA947" d="M345.676,205.419c-9.631-0.039-15.772-1.333-25.339-0.026c0,0-9.416,14.654-6.734,42.795l-25.497,22.655
		c-3.117,1.748-5.915,2.899-8.337,5.184c-12.012,11.333-15.317-1.314-41.268-10.784c-3.607,15.731-2.641,32.623,3.644,48.615
		l25.264,64.277c7.223,18.385,22.144,32.709,40.822,39.135l14.786,5.217c7.342,2.531,14.966,4.514,22.648,4.514
		c0.005,0,0.008,0,0.012,0s0.008,0,0.012,0c7.683,0,15.308-1.996,22.65-4.528l14.785-5.171c18.677-6.426,33.6-20.809,40.822-39.192
		l25.264-64.349c12.569-31.986,3.863-67.07-20.156-89.734c-2.424-2.285-5.221-3.468-8.338-4.8l-10.922-3.995
		C385.609,207.24,371.096,205.32,345.676,205.419z"/>
	<path fill="#DFD7BF" d="M322,409v62.955c-11,2.133-20.101,12.563-20.101,25.134c0,14.114,11.915,25.556,26.028,25.556
		c6.75,0,13.107-2.617,17.688-6.891c0.004,0.004,0.033,0.008,0.037,0.011c0.004-0.003,0.02-0.007,0.024-0.011
		c4.582,4.273,10.897,6.891,17.646,6.891c14.114,0,25.951-11.441,25.951-25.556c0-12.571-10.273-23.001-20.273-25.134V409H322z"/>
	<path fill="#FDEBCC" d="M338.931,227.893c0-11.614-8.899-21.145-20.05-21.639c-0.027-0.055-0.046-0.254-0.073-0.254h-1.944
		c-0.393,7-5.348,15.659-12.528,19.474c0.016,0.433,0.048,0.694,0.048,1.134c0,16.211-13.098,29.277-29.29,29.369
		c-5.396,6.867-14.746,11.252-24.156,11.252c-3.87,0-5.938-0.808-11.938-2.168v2.144c6,12.722,15.756,22.138,29.493,22.138
		c8.924,0,17.397-3.989,22.799-10.258c3.981,2.32,8.851,3.661,13.792,3.661c14.876,0,27.061-12.062,27.061-26.938
		c0-3.675-0.705-7.167-2.03-10.356C335.422,241.531,338.931,235.136,338.931,227.893z"/>
</g>
</svg>
