<?xml version="1.0" encoding="utf-8"?>
<!-- Generator: Adobe Illustrator 16.0.0, SVG Export Plug-In . SVG Version: 6.00 Build 0)  -->
<!DOCTYPE svg PUBLIC "-//W3C//DTD SVG 1.1//EN" "http://www.w3.org/Graphics/SVG/1.1/DTD/svg11.dtd">
<svg version="1.1" id="Layer_1" xmlns="http://www.w3.org/2000/svg" xmlns:xlink="http://www.w3.org/1999/xlink" x="0px" y="0px"
	 width="646.22px" height="706.165px" viewBox="0 0 646.22 706.165" enable-background="new 0 0 646.22 706.165"
	 xml:space="preserve">
<g>
	<g>
		<path fill="#FC855B" d="M476.107,254.758c0,0,30.275-2.294,31.653,37.617c1.375,39.912,4.128,60.097,4.128,60.097
			s3.212,28.903,3.212,33.03c0,4.129,0.743,23.57-6.881,41.171c-7.005,16.176-18.81,33.147-32.112,31.771
			c-13.304-1.377-26.15-11.471-30.736-33.949c-4.588-22.478-2.753-31.653,0-76.611c2.753-44.957,1.352-56.432,1.352-56.432
			S442.577,257.284,476.107,254.758z"/>
		<path fill="none" d="M445.6,344.412C452.824,364.286,460.682,373,477.734,373h0.219c23.155,0,31.936-12.843,31.936-37.61
			l-2.764-50.011C506.613,271.396,495.004,255,477.953,255h-0.219c-17.053,0-31.102,13.582-31.102,30.202L445.6,344.412z"/>
		<path fill="#C0BFA4" d="M474.959,263c0,0-17.212,1.382-19.506,17.441c-2.293,16.053-2.293,30.968-2.293,30.968
			s-3.326,16.861,10.953,20.99c13.018,3.765,11.69,0.611,12.135,5.076l-0.026,1.492c0.044-0.286,0.079-0.559,0.109-0.806
			c0,73.208,0.065,0.498,0.111,0.783l-0.028-1.522c0.447-4.465-0.881-1.372,12.135-5.134c14.277-4.129,10.954-21.104,10.954-21.104
			s0-14.689-2.294-30.746C494.916,264.384,478.842,263,478.842,263H474.959z"/>
		<path fill="#B5573E" d="M456.514,327.501c1.691,2.093,4.119,3.86,7.6,4.866c13.018,3.764,11.69,0.626,12.135,5.092l-0.026,1.5
			c0.044-0.285,0.079-0.554,0.109-0.802c0,73.208,0.065,0.5,0.111,0.786l-0.028-1.521c0.447-4.464-0.881-1.37,12.135-5.135
			c3.416-0.986,5.814-2.713,7.502-4.762C489.471,326.406,471.545,323.974,456.514,327.501z"/>
		<line fill="none" x1="494" y1="329" x2="494" y2="370"/>
		<line fill="none" x1="458" y1="332" x2="458" y2="367"/>
		<path fill="#B5573E" d="M456.207,363.882c5.42,6.522,12.1,8.43,21.746,8.43c8.654-1.212,30.61,3.558,31.986-38.534
			c0,0,5.166,39.426,5.166,47.598l-1.223,24.727c-2.017,9.918-9.767,17.132-19.426,17.132c-8.481,0-15.59-5.103-17.203-11.878
			c-1.613,6.775-8.724,11.878-17.204,11.878c-5.199,0-9.318-1.02-12.212-3.717c-2.482-2.318-4.061-5.869-4.646-11.077l-0.614-18.12
			l3.022-46.249C445.6,342.629,447.162,353.001,456.207,363.882z"/>
		<rect x="470" y="281" fill="#78A89B" width="12" height="30"/>
		<line fill="none" stroke="#B5573E" stroke-width="2" stroke-miterlimit="10" x1="485" y1="340" x2="467" y2="340"/>
		<line fill="none" stroke="#B5573E" stroke-width="2" stroke-miterlimit="10" x1="485" y1="349" x2="467" y2="349"/>
		<line fill="none" stroke="#B5573E" stroke-width="2" stroke-miterlimit="10" x1="485" y1="358" x2="467" y2="358"/>
		<line fill="none" x1="485" y1="367" x2="467" y2="367"/>
		<path fill="#FC855B" d="M400.139,254.758c0,0-30.275-2.294-31.653,37.617c-1.376,39.912-4.128,60.097-4.128,60.097
			s-3.212,28.903-3.212,33.03c0,4.129-0.742,23.57,6.881,41.171c7.005,16.176,18.81,33.147,32.112,31.771
			c13.305-1.377,26.15-11.471,30.738-33.949c4.587-22.478,2.752-31.653,0-76.611c-2.755-44.957-1.354-56.432-1.354-56.432
			S433.67,257.284,400.139,254.758z"/>
		<path fill="none" d="M430.647,344.412C423.422,364.286,415.564,373,398.512,373h-0.219c-23.154,0-31.936-12.843-31.936-37.61
			l2.764-50.011C369.634,271.396,381.242,255,398.293,255h0.219c17.053,0,31.103,13.582,31.103,30.202L430.647,344.412z"/>
		<path fill="#C0BFA4" d="M401.287,263c0,0,17.213,1.382,19.506,17.441c2.293,16.053,2.293,30.968,2.293,30.968
			s3.326,16.861-10.951,20.99c-13.019,3.765-11.691,0.611-12.135,5.076l0.025,1.492c-0.044-0.286-0.079-0.559-0.109-0.806
			c0,73.208-0.066,0.498-0.112,0.783l0.029-1.522c-0.448-4.465,0.881-1.372-12.136-5.134c-14.277-4.129-10.954-21.104-10.954-21.104
			s0-14.689,2.294-30.746C381.33,264.384,397.405,263,397.405,263H401.287z"/>
		<path fill="#B5573E" d="M419.731,327.501c-1.69,2.093-4.119,3.86-7.597,4.866c-13.019,3.764-11.691,0.626-12.135,5.092l0.025,1.5
			c-0.044-0.285-0.079-0.554-0.109-0.802c0,73.208-0.066,0.5-0.112,0.786l0.029-1.521c-0.448-4.464,0.881-1.37-12.136-5.135
			c-3.415-0.986-5.814-2.713-7.502-4.762C386.775,326.406,404.701,323.974,419.731,327.501z"/>
		<line fill="none" x1="381" y1="329" x2="381" y2="370"/>
		<line fill="none" x1="417" y1="332" x2="417" y2="367"/>
		<path fill="#B5573E" d="M420.039,363.882c-5.42,6.522-12.1,8.43-21.746,8.43c-8.654-1.212-30.611,3.558-31.984-38.534
			c0,0-5.168,39.426-5.168,47.598l1.223,24.727c2.018,9.918,9.768,17.132,19.426,17.132c8.481,0,15.591-5.103,17.203-11.878
			c1.614,6.775,8.723,11.878,17.204,11.878c5.199,0,9.319-1.02,12.212-3.717c2.482-2.318,4.061-5.869,4.647-11.077l0.614-18.12
			l-3.022-46.249C430.647,342.629,429.084,353.001,420.039,363.882z"/>
		<rect x="393" y="281" fill="#78A89B" width="12" height="30"/>
		<line fill="none" stroke="#B5573E" stroke-width="2" stroke-miterlimit="10" x1="393" y1="340" x2="411" y2="340"/>
		<line fill="none" stroke="#B5573E" stroke-width="2" stroke-miterlimit="10" x1="393" y1="349" x2="411" y2="349"/>
		<line fill="none" stroke="#B5573E" stroke-width="2" stroke-miterlimit="10" x1="393" y1="358" x2="411" y2="358"/>
		<line fill="none" x1="393" y1="367" x2="411" y2="367"/>
	</g>
	<path fill="#203C59" d="M310,433.886c0,5.586-4.528,10.114-10.114,10.114H154.114c-5.585,0-10.114-4.528-10.114-10.114V270.114
		c0-5.586,4.528-10.114,10.114-10.114h145.772c5.585,0,10.114,4.528,10.114,10.114V433.886z"/>
	<path fill="#162C3F" d="M254.789,278L310,291.338V266.31c0-5.586-2.562-9.31-8.148-9.31H156.482c-5.586,0-12.482,3.724-12.482,9.31
		v24.71L201.921,278H254.789z"/>
	<rect x="215" y="302" fill="#5FA18B" width="27" height="136"/>
	<polyline fill="none" points="147.72,292.102 203,278 255.868,278 313.313,296.134 	"/>
	<path fill="none" d="M194,358h-27.188c2.789,3,4.188,4.803,4.188,8.369v66.078c0,2.438-2.04,4.677-3.478,6.424L194,439.056V358z"/>
	<path fill="none" d="M171,366.369c0-3.566-1.4-5.369-4.188-8.369h-20.982c0,0,0.67,58.241,0.269,70.734
		c-0.269,8.405,10.115,10.082,10.115,10.082l12.71,0.069c1.438-1.746,2.077-4,2.077-6.438V366.369z"/>
	<line fill="none" x1="147" y1="388" x2="197" y2="388"/>
	<line fill="none" x1="159" y1="388" x2="159" y2="414"/>
	<line fill="none" x1="186" y1="388" x2="186" y2="414"/>
	<line fill="none" x1="268" y1="388" x2="313" y2="388"/>
	<line fill="none" x1="153" y1="376" x2="168" y2="376"/>
	<line fill="none" x1="227" y1="329" x2="227" y2="346"/>
	<line fill="none" x1="227" y1="367" x2="227" y2="388"/>
	<line fill="none" x1="227" y1="406" x2="227" y2="426"/>
	<line fill="none" x1="227" y1="406" x2="227" y2="426"/>
	<path fill="#FF865D" d="M165,374.557c0,2.454-1.989,4.443-4.443,4.443h-0.114c-2.454,0-4.443-1.989-4.443-4.443v-0.113
		c0-2.454,1.989-4.443,4.443-4.443h0.114c2.454,0,4.443,1.989,4.443,4.443V374.557z"/>
	<path fill="#FF865D" d="M233,338.557c0,2.454-1.989,4.443-4.443,4.443h-0.114c-2.454,0-4.443-1.989-4.443-4.443v-0.113
		c0-2.454,1.989-4.443,4.443-4.443h0.114c2.454,0,4.443,1.989,4.443,4.443V338.557z"/>
	<path fill="#FF865D" d="M233,380.557c0,2.454-1.989,4.443-4.443,4.443h-0.114c-2.454,0-4.443-1.989-4.443-4.443v-0.113
		c0-2.454,1.989-4.443,4.443-4.443h0.114c2.454,0,4.443,1.989,4.443,4.443V380.557z"/>
	<path fill="#FF865D" d="M233,415.557c0,2.454-1.989,4.443-4.443,4.443h-0.114c-2.454,0-4.443-1.989-4.443-4.443v-0.113
		c0-2.454,1.989-4.443,4.443-4.443h0.114c2.454,0,4.443,1.989,4.443,4.443V415.557z"/>
	<path fill="none" d="M265,376v12.35V441h28.356c0,0,3.824,0,8.541,0h0.18c4.164,0,7.317-4.627,8.075-8.57L310,431.257v-2.587V376
		H265z"/>
	<polygon fill="#162C3F" points="310,373 265,373 265,385.652 265,388 310,388 	"/>
	<path fill="#78A89B" d="M210.392,333.705l19.033-21.781c0,0-35.309-42.924-36.583-54.924h-16.267
		C176.575,257,176.575,288.116,210.392,333.705z"/>
	<path fill="#78A89B" d="M248.47,333.705l-19.033-21.781c0,0,35.308-42.924,36.583-54.924h16.268
		C282.287,257,282.287,288.116,248.47,333.705z"/>
	<polygon fill="#162C3F" points="229.511,311.815 221.484,302 237.528,302 	"/>
</g>
</svg>
