<?xml version="1.0" encoding="utf-8"?>
<!-- Generator: Adobe Illustrator 16.0.0, SVG Export Plug-In . SVG Version: 6.00 Build 0)  -->
<!DOCTYPE svg PUBLIC "-//W3C//DTD SVG 1.1//EN" "http://www.w3.org/Graphics/SVG/1.1/DTD/svg11.dtd">
<svg version="1.1" id="Layer_1" xmlns="http://www.w3.org/2000/svg" xmlns:xlink="http://www.w3.org/1999/xlink" x="0px" y="0px"
	 width="646.22px" height="706.165px" viewBox="0 0 646.22 706.165" enable-background="new 0 0 646.22 706.165"
	 xml:space="preserve">
<g>
	<g>
		<path fill="#73777E" d="M480.803,350.546c-9.855,0.249-8.749-1.527-8.749-1.527s-4.054-0.486-4.054,1.7v28.775
			c0,0,1.94,1.876,12.505,2.502"/>
		<path fill="#73777E" d="M477.516,350.546c9.855,0.249,9.093-1.527,9.093-1.527s4.392-0.486,4.392,1.7v30.027
			c0,0-2.279,1.25-12.848,1.875"/>
		<path fill="#E91A4B" d="M467.719,415.146c0,3.543,1.967,4.309,3.531,4.691c2.568,0.624,9.682,1.024,14.77,0.102
			c2.891-0.523,2.891-3.229,2.891-3.229s2.568-32.214,2.568-34.715c0-2.502-1.283-2.502-1.283-2.502
			c-10.883,4.849-21.834,0-21.834,0s-0.99-0.417-1.178,0.816C466.945,381.887,467.719,415.146,467.719,415.146z"/>
		<path fill="#E46687" d="M471.452,349.955L471.109,330H488v20.094C488,350.094,478.28,353.295,471.452,349.955z"/>
		<path fill="#F9BEC8" d="M487.627,329.537c0,5.572-3.563,10.092-7.959,10.092c-4.395,0-8.559-4.52-8.559-10.092
			c0-5.574,3.563-10.092,7.959-10.092C483.461,319.445,487.627,323.963,487.627,329.537z"/>
		<path fill="#9EA1A7" d="M490.195,350.719c0-2.187-2.828-1.7-2.828-1.7s0.26,1.973-6.164,2.157l0.643-0.005
			c0,0.015-2.377,0.021-2.889,0.023c-0.51-0.002,0.643,0.013,0,0l-1.605-0.021c-5.781-0.183-7.094-2.155-7.094-2.155
			s-1.844-0.486-1.844,1.7c0,0,7.758,4.899,21.775,0.417"/>
	</g>
	<g>
		<path fill="#916347" d="M320,317.336c0-2.527-1.986-5.336-4.581-5.336H179.521c-2.595,0-4.521,2.809-4.521,5.336v98.882
			c0,2.527,1.926,4.782,4.521,4.782h135.898c2.595,0,4.581-2.255,4.581-4.782V317.336z"/>
		<path fill="#724A33" d="M320,364.359c0,2.527-1.986,4.641-4.581,4.641H179.521c-2.595,0-4.521-2.113-4.521-4.641v-36.219
			c0-2.53,1.926-5.141,4.521-5.141h135.898c2.595,0,4.581,2.61,4.581,5.141V364.359z"/>
		<g>
			<path fill="none" stroke="#6D4731" stroke-miterlimit="10" stroke-dasharray="5.5238,5.5238" d="M311.5,406.812
				c0,3.879-1.497,6.688-3.823,6.688H186.096c-2.327,0-4.596-2.81-4.596-6.688v-53.841c0-3.879,2.269-7.471,4.596-7.471h121.581
				c2.326,0,3.823,3.592,3.823,7.471V406.812z"/>
		</g>
		<path fill="#F9B349" d="M270.382,281h-50.124c-8.651,0-15.258,6.936-15.258,15.363v12.205c0,7.126,4.537,13.093,11.318,14.773
			c-0.537-1.263-1.318-2.645-1.318-4.092v-12.207c0-5.899,5.467-10.043,11.522-10.043h39.16c6.056,0,11.318,4.144,11.318,10.043
			v12.207c0,1.241-0.429,2.431-0.83,3.543c5.862-2.207,9.83-7.734,9.83-14.225v-12.205C286,287.936,279.033,281,270.382,281z"/>
		<g>
			<path fill="#938F7D" d="M225.007,295.545c0,0,0.636-0.083,1.792-0.183c1.156-0.076,2.796-0.263,4.778-0.347
				c1.982-0.077,4.29-0.256,6.768-0.287c2.478-0.04,5.118-0.082,7.761-0.124c2.643,0.042,5.285,0.085,7.763,0.125
				c2.478,0.036,4.791,0.21,6.773,0.288c1.982,0.085,3.634,0.27,4.79,0.346c1.157,0.1,1.665,0.182,1.665,0.182L267,295.552V296h0.25
				c0,0-10.573,0.027-21.146,0.055C235.53,296.027,224.958,296,224.958,296H225v-0.448L225.007,295.545z"/>
		</g>
		<path fill="#F9B349" d="M220,372.199c0,1.932-1.847,4.801-4.439,4.801h-4.7c-2.595,0-4.861-2.869-4.861-4.801v-12.836
			c0-1.931,2.266-3.363,4.861-3.363h4.7c2.592,0,4.439,1.433,4.439,3.363V372.199z"/>
		<path fill="#F9B349" d="M290,372.199c0,1.932-1.36,4.801-3.955,4.801h-4.7c-2.594,0-4.345-2.869-4.345-4.801v-12.836
			c0-1.931,1.751-3.363,4.345-3.363h4.7c2.595,0,3.955,1.433,3.955,3.363V372.199z"/>
		<path fill="#916347" d="M320,353.556c0,2.53-1.986,4.444-4.581,4.444H179.521c-2.595,0-4.521-1.914-4.521-4.444v-36.219
			c0-2.528,1.926-5.337,4.521-5.337h135.898c2.595,0,4.581,2.809,4.581,5.337V353.556z"/>
		<g>
			<g>
				<line fill="none" stroke="#6D4731" stroke-miterlimit="10" x1="311.5" y1="315" x2="311.5" y2="318"/>
				<path fill="none" stroke="#6D4731" stroke-miterlimit="10" stroke-dasharray="5.4858,5.4858" d="M311.5,323v23.422
					c0,2.265-1.497,4.078-3.823,4.078H186.096c-2.327,0-4.596-1.813-4.596-4.078V320"/>
				<line fill="none" stroke="#6D4731" stroke-miterlimit="10" x1="181.5" y1="318" x2="181.5" y2="315"/>
			</g>
		</g>
	</g>
	<g>
		<rect x="352" y="315" fill="#FFFEFF" width="81" height="104"/>
		<rect x="352" y="321" fill="#91222F" width="81" height="2"/>
		<rect x="352" y="408" fill="#91222F" width="81" height="2"/>
		<rect x="421" y="280" fill="#E7E4E1" width="10" height="35"/>
		<rect x="411" y="298" fill="#E7E4E1" width="10" height="17"/>
		<rect x="411" y="295" fill="#9C6D35" width="10" height="3"/>
		<rect x="421" y="280" fill="#9C6D35" width="10" height="5"/>
		
			<ellipse fill="none" stroke="#827B70" stroke-width="4.4366" stroke-miterlimit="10" cx="392.477" cy="365.158" rx="29.354" ry="28.592"/>
		<ellipse fill="#91222F" cx="392.227" cy="365.399" rx="23.135" ry="22.535"/>
		<rect x="381" y="315" fill="#5E563E" width="25" height="12"/>
	</g>
</g>
</svg>
