<?xml version="1.0" encoding="utf-8"?>
<!-- Generator: Adobe Illustrator 16.0.0, SVG Export Plug-In . SVG Version: 6.00 Build 0)  -->
<!DOCTYPE svg PUBLIC "-//W3C//DTD SVG 1.1//EN" "http://www.w3.org/Graphics/SVG/1.1/DTD/svg11.dtd">
<svg version="1.1" id="Layer_1" xmlns="http://www.w3.org/2000/svg" xmlns:xlink="http://www.w3.org/1999/xlink" x="0px" y="0px"
	 width="646.22px" height="706.165px" viewBox="0 0 646.22 706.165" enable-background="new 0 0 646.22 706.165"
	 xml:space="preserve">
<g>
	<polygon fill="#F9A95D" points="358.623,393 357.783,461.331 314.894,475 165,475 165,176 408,176 408,393 	"/>
	<rect x="165" y="496" fill="#F9A95E" width="249" height="101"/>
	<rect x="164" y="496" fill="#F9A95D" width="250" height="101"/>
	<rect x="347" y="517" fill="#FFFEFF" width="42" height="61"/>
	<rect x="370" y="213" fill="#91C079" width="14" height="40"/>
	<rect x="348" y="213" fill="#203647" width="22" height="40"/>
	<rect x="343" y="213" fill="#30A49D" width="5" height="40"/>
	<rect x="334" y="213" fill="#8AC475" width="9" height="40"/>
	<rect x="340" y="205" fill="#EDFFFF" width="35" height="8"/>
	<rect x="340" y="253" fill="#EDFFFF" width="35" height="9"/>
	<rect x="340" y="203" fill="#09A893" width="35" height="2"/>
	<path fill="#EDFFFF" d="M369.641,196c-1.268-5-6.09-9.391-11.857-9.391c-5.77,0-10.59,4.391-11.858,9.391H340v7h5.997h23.571H375
		v-7H369.641z"/>
	<rect x="336" y="262" fill="#30A49D" width="45" height="6"/>
	<path fill="#EF4D3E" d="M375,268v-2.726c0,2.3-1.074,4.726-4.504,4.726H346.17c-3.43,0-6.17-2.426-6.17-4.726V268H375z"/>
	<rect x="228" y="213" fill="#91C079" width="11" height="40"/>
	<rect x="204" y="213" fill="#203647" width="24" height="40"/>
	<rect x="200" y="213" fill="#30A49D" width="4" height="40"/>
	<rect x="188" y="213" fill="#8AC475" width="12" height="40"/>
	<rect x="193" y="205" fill="#EDFFFF" width="40" height="8"/>
	<rect x="193" y="253" fill="#EDFFFF" width="40" height="9"/>
	<rect x="193" y="203" fill="#09A893" width="40" height="2"/>
	<path fill="#EDFFFF" d="M225.835,196c-1.268-5-6.089-9.391-11.858-9.391c-5.768,0-10.589,4.391-11.857,9.391H193v7h9.193h23.568
		H233v-7H225.835z"/>
	<rect x="191" y="262" fill="#30A49D" width="45" height="6"/>
	<path fill="#EF4D3E" d="M233,268v-2.726c0,2.3-2.88,4.726-6.307,4.726h-24.329c-3.429,0-6.364-2.426-6.364-4.726V268H233z"/>
	<rect x="370" y="323" fill="#91C079" width="14" height="40"/>
	<rect x="348" y="323" fill="#203647" width="22" height="40"/>
	<rect x="343" y="323" fill="#30A49D" width="5" height="40"/>
	<rect x="334" y="323" fill="#8AC475" width="9" height="40"/>
	<rect x="340" y="315" fill="#EDFFFF" width="35" height="8"/>
	<rect x="340" y="363" fill="#EDFFFF" width="35" height="8"/>
	<rect x="340" y="313" fill="#09A893" width="35" height="2"/>
	<path fill="#EDFFFF" d="M369.641,305c-1.268-7-6.09-9.392-11.857-9.392c-5.77,0-10.59,2.392-11.858,9.392H340v8h5.997h23.571H375
		v-8H369.641z"/>
	<rect x="336" y="371" fill="#30A49D" width="45" height="4"/>
	<path fill="#EF4D3E" d="M375,375v-0.4c0,2.302-1.074,4.4-4.504,4.4H346.17c-3.43,0-6.17-2.099-6.17-4.4v0.4H375z"/>
	<rect x="221" y="406" fill="#91C079" width="13" height="39"/>
	<rect x="198" y="406" fill="#203647" width="23" height="39"/>
	<rect x="193" y="406" fill="#30A49D" width="5" height="39"/>
	<rect x="183" y="406" fill="#8AC475" width="10" height="39"/>
	<rect x="188" y="397" fill="#EDFFFF" width="40" height="9"/>
	<rect x="188" y="445" fill="#EDFFFF" width="40" height="8"/>
	<rect x="188" y="393" fill="#09A893" width="40" height="4"/>
	<path fill="#EDFFFF" d="M219.948,387c-1.267-4-6.088-9.392-11.857-9.392c-5.768,0-10.589,5.392-11.857,9.392H188v6h8.306h23.571
		H228v-6H219.948z"/>
	<path fill="#FFFEFF" d="M380.785,508c-1.379-5-6.63-9.392-12.91-9.392c-6.282,0-11.529,4.392-12.913,9.392H347v8h8.043h25.664H389
		v-8H380.785z"/>
	<rect x="186" y="453" fill="#30A49D" width="45" height="4"/>
	<path fill="#EF4D3E" d="M228,457v0.015c0,2.3-3.767,3.985-7.194,3.985h-24.328c-3.429,0-7.478-1.686-7.478-3.985V457H228z"/>
	<rect x="165" y="163" fill="#EDFFFF" width="243" height="9"/>
	<rect x="408" y="163" fill="#14A99B" width="41" height="9"/>
	<rect x="408" y="172" fill="#203458" width="38" height="4"/>
	<rect x="165" y="172" fill="#F54840" width="243" height="4"/>
	<rect x="356" y="525" fill="#1D3354" width="25" height="53"/>
	<rect x="367" y="525" fill="#88C66F" width="14" height="53"/>
	<rect x="353" y="525" fill="#359991" width="3" height="53"/>
	<rect x="347" y="516" fill="#14A4A3" width="42" height="1"/>
	<polygon fill="#18A1AF" points="357,469.344 315,481.955 315,474.392 357,461.775 	"/>
	<polygon fill="#FFFEFF" points="164.5,482 314.551,482 314.694,475 164.703,475 	"/>
	<rect x="164" y="482" fill="#FFFEFF" width="250" height="9"/>
	<rect x="164" y="491" fill="#F15040" width="250" height="5"/>
	<polygon fill="#0FA9A5" points="453,474.551 414,489.533 414,482.484 453,467.502 	"/>
	<polygon fill="#193247" points="414,494.82 453,479.84 453,474.551 414,489.533 	"/>
	<polygon fill="#EC4F3C" points="453,571.104 414,596.748 414,494.57 453,480.275 	"/>
	<polygon fill="#FDFFFF" points="341,578 341,584 331,584 331,591 321,591 321,597 331.292,597 340.545,597 381,597 381,578 	"/>
	<polygon fill="#11ADA5" points="381,578 381,584 370,584 370,591 362,591 362,597 370.818,597 380.068,597 389,597 389,578 	"/>
	<polygon fill="#EF4D3E" points="449,379.359 408,394.497 408,176 449,176 	"/>
	<polygon fill="#EF4D3E" points="315,393 358.623,393 357.837,461.026 315,474.392 	"/>
	<path fill="#17A197" d="M217,250.533v-15.137c0,0-0.079-11.396-13.114-11.396c-13.036,0-46.253,0-46.253,0S143,224.463,143,241.703
		s0,354.975,0,354.975s5,4.205,11,0V242.123c0,0-2.675-10.123,9.52-10.123c12.194,0,37.844,0,37.844,0s6.636,0.453,6.636,7.602
		c0,7.146,0,10.932,0,10.932S210,255.158,217,250.533z"/>
	<path fill="#17A197" d="M210,428.556c0,0-29.67,0.419-34.716,0c-5.046-0.42-5.284-2.942-5.284-2.942s0-21.865,0-27.334
		c0-5.463-7.321-7.279-7.321-7.279h-10.932c0,0-1.682,2,0,6h7.148c0,0,4.319-0.226,4.319,5.237c0,5.468-0.114,26.732-0.114,26.732
		s1.165,5.053,6.21,5.472c5.045,0.422,40.69,0.305,40.69,0.305V428.556z"/>
	<path fill="#2669A3" d="M438.516,519h59.416c0,0,6.068,0.035,6.068,7.185c0,7.147,0,42.891,0,42.891s4,3.783,9-0.841V521.98
		c0,0,0.49-13.98-12.544-13.98s-61.94,0-61.94,0S429.264,515,438.516,519z"/>
	<path fill="#17A197" d="M364.742,243h-39.524c0,0-13.218,1.471-13.218-11.563c0-13.035,0-71.482,0-71.482S314.285,146,331.525,146
		c17.238,0,113.949,0,113.949,0s4.203,7,0,12h-113.53c0,0-10.945-4.354-10.945,7.842s0,63.074,0,63.074s1.274,4.084,8.423,4.084
		c7.149,0,35.319,0,35.319,0S369.367,239,364.742,243z"/>
	<path fill="#17A197" d="M431.133,241h39.523c0,0,13.344,1.791,13.344-11.245c0-13.034,0-69.8,0-69.8S481.592,146,464.351,146
		c-17.238,0-110.589,0-110.589,0s-4.201,7,0,12h110.169c0,0,11.069-4.354,11.069,7.842s0,61.391,0,61.391S473.602,231,466.453,231
		c-7.147,0-35.32,0-35.32,0S426.508,237,431.133,241z"/>
	<path fill="#2669A3" d="M93,74h118.375c0,0,14.625,1.768,14.625,19.007c0,17.238,0,157.767,0,157.767s-4.54,4.205-9.585,0
		l0.674-157.105c0,0,0.593-9.668-11.602-9.668C193.294,84,93,84,93,84"/>
	<path fill="#FFE00A" d="M431.483,241.965l18.117-0.076c0,0,12.433-0.825,12.329,12.208c-0.104,13.036-0.569,71.479-0.569,71.479
		c0.261-2.24,0.569,13.814-18.842,13.814c-17.241-0.002-47.516-1.219-47.516-1.219s-4.161-4.239,0.082-9.25l47.092,0.372
		c0,0,9.884,2.517,9.982-9.679c0.097-12.193,0.501-63.07,0.501-63.07s-0.189-5.379-7.336-5.437
		c-7.148-0.056-13.717,0.099-13.717,0.099S426.819,246.975,431.483,241.965z"/>
	<polygon fill="#11ADA5" points="389,475 389,466 381,466 381,458 369,458 369,453.17 319.06,452.811 319.06,452.811 
		319.06,452.811 319.06,452.811 355.183,482 388.217,482 388.217,482 388.217,482 395,482 395,475 	"/>
	<polygon fill="#FFFEFF" points="347,475 347,467 340,467 340,459 331,459 331,453 313,453 313,453.109 313,453.109 313,453.109 
		346,482.055 346,482.055 346,482.055 346,482 356,482 356,475 	"/>
	<path fill="#FFDE15" d="M357,356.654v-15.139c0,0-0.469-12.516,12.568-12.516c13.033,0,46.25,0,46.25,0S430,330.586,430,347.825
		s0,166.089,0,166.089s-6,4.206-10,0V348.246c0,0,2.125-9.246-10.068-9.246s-37.843,0-37.843,0S367,338.574,367,345.721
		c0,7.15,0,10.934,0,10.934S362,361.279,357,356.654z"/>
	<path fill="#FFDE15" d="M573,598H434.07c0,0-14.07-2.705-14.07-19.944c0-17.24,0-120.405,0-120.405s4-4.206,10,0v119.984
		c0,0-2.236,10.365,9.956,10.365C452.151,588,573,588,573,588"/>
	<path fill="#FFDE15" d="M364,533.677c0,0,32.513,0.42,37.558,0c5.048-0.419,6.442-2.942,6.442-2.942s0-21.865,0-27.332
		s5.297-6.402,5.297-6.402h10.933c0,0,1.681,4,0,6h-7.149c0,0-5.16-0.246-5.16,5.218c0,5.466-0.726,25.885-0.726,25.885
		s0.368,5.042-4.677,5.464c-5.045,0.42-42.518,0.301-42.518,0.301V533.677z"/>
	<polygon fill="#2A2F46" points="414,484 198.472,484 198,482 414,482 	"/>
	<rect x="164" y="482" fill="#0E9B8E" width="151" height="2"/>
</g>
</svg>
